<svg width="543" height="424" viewBox="0 0 543 424" fill="none" xmlns="http://www.w3.org/2000/svg">
<path d="M299.763 341.829C433.668 315.787 529.39 228.711 513.564 147.338C497.739 65.9656 376.359 21.1109 242.455 47.1524C108.551 73.1939 12.8289 160.27 28.6541 241.643C44.4793 323.015 165.859 367.87 299.763 341.829Z" fill="#F9F9FF"/>
<path opacity="0.3" d="M288.012 324.22V320.168C288.012 312.172 282.696 309.342 277.257 309.342C271.719 309.342 266.624 313.415 266.624 320.168V324.22H265.109V346.644H289.406V324.22H288.012ZM277.972 336.546V340.605H275.671V336.546C274.549 336.089 273.756 334.996 273.756 333.71C273.756 332.016 275.128 330.644 276.822 330.644C278.515 330.644 279.887 332.016 279.887 333.71C279.894 334.989 279.094 336.089 277.972 336.546ZM284.646 324.22H269.876V320.168C269.876 316.095 273.191 312.779 277.265 312.779C281.338 312.779 284.654 315.566 284.654 320.168V324.22H284.646Z" stroke="black" stroke-miterlimit="10"/>
<path opacity="0.3" d="M486.305 259.07C494.833 259.07 501.747 252.157 501.747 243.628C501.747 235.099 494.833 228.186 486.305 228.186C477.776 228.186 470.862 235.099 470.862 243.628C470.862 252.157 477.776 259.07 486.305 259.07Z" stroke="black" stroke-miterlimit="10"/>
<g opacity="0.3">
<path d="M487.899 253.425L487.892 254.919L485.305 254.912L485.312 253.418C483.068 252.946 481.925 251.217 481.939 248.487V247.851L484.933 247.866V248.702C484.926 250.138 485.498 250.688 486.505 250.696C487.513 250.703 488.092 250.152 488.099 248.716C488.113 244.571 481.932 244.35 481.953 238.59C481.968 235.861 483.154 234.11 485.398 233.652L485.405 232.188L487.992 232.195L487.985 233.66C490.257 234.131 491.4 235.889 491.386 238.619L491.379 239.998L488.385 239.984L488.392 238.404C488.399 236.968 487.77 236.446 486.763 236.439C485.755 236.432 485.119 236.954 485.112 238.39C485.098 242.535 491.279 242.756 491.257 248.516C491.243 251.224 490.114 252.939 487.899 253.425Z" stroke="black" stroke-miterlimit="10"/>
</g>
<path opacity="0.3" d="M276.465 394.25C281.947 394.25 286.391 389.806 286.391 384.324C286.391 378.842 281.947 374.398 276.465 374.398C270.983 374.398 266.54 378.842 266.54 384.324C266.54 389.806 270.983 394.25 276.465 394.25Z" stroke="black" stroke-miterlimit="10"/>
<g opacity="0.3">
<path d="M277.488 390.613L277.48 391.578L275.815 391.571L275.823 390.606C274.379 390.306 273.65 389.191 273.657 387.433V387.026L275.58 387.033V387.569C275.572 388.491 275.944 388.848 276.594 388.848C277.245 388.848 277.609 388.498 277.616 387.576C277.623 384.918 273.65 384.768 273.672 381.073C273.679 379.315 274.443 378.193 275.887 377.9L275.894 376.957L277.559 376.964L277.552 377.907C279.01 378.208 279.746 379.337 279.738 381.095V381.981L277.816 381.974L277.823 380.959C277.831 380.037 277.423 379.701 276.773 379.694C276.123 379.694 275.715 380.023 275.715 380.944C275.701 383.603 279.681 383.753 279.667 387.447C279.638 389.198 278.91 390.306 277.488 390.613Z" stroke="black" stroke-miterlimit="10"/>
</g>
<path opacity="0.3" d="M350.848 155.84C356.329 155.84 360.773 151.396 360.773 145.914C360.773 140.432 356.329 135.988 350.848 135.988C345.366 135.988 340.922 140.432 340.922 145.914C340.922 151.396 345.366 155.84 350.848 155.84Z" stroke="black" stroke-miterlimit="10"/>
<g opacity="0.3">
<path d="M351.871 152.211L351.864 153.175L350.199 153.168L350.206 152.203C348.763 151.903 348.034 150.789 348.041 149.031V148.623L349.963 148.63V149.166C349.956 150.088 350.328 150.446 350.978 150.446C351.628 150.446 351.993 150.095 352 149.174C352.007 146.515 348.034 146.365 348.055 142.671C348.062 140.913 348.827 139.791 350.271 139.498L350.278 138.555L351.943 138.562L351.936 139.505C353.393 139.805 354.129 140.934 354.122 142.692L354.108 143.585L352.186 143.578L352.193 142.564C352.2 141.642 351.793 141.306 351.142 141.299C350.492 141.299 350.085 141.627 350.085 142.549C350.078 145.208 354.051 145.358 354.037 149.052C354.022 150.796 353.3 151.903 351.871 152.211Z" stroke="black" stroke-miterlimit="10"/>
</g>
<path d="M26.106 422.99H513.46" stroke="#263238" stroke-miterlimit="10" stroke-linecap="round" stroke-linejoin="round"/>
<path d="M310.782 149.211C310.465 149.125 310.141 149.04 309.818 148.961" stroke="#01B187" stroke-linecap="round" stroke-linejoin="round"/>
<path d="M307.897 148.489C298.875 146.381 289.444 145.566 279.781 146.216C255.569 147.86 233.853 158.486 217.223 174.9" stroke="#01B187" stroke-linecap="round" stroke-linejoin="round" stroke-dasharray="2.98 2.98"/>
<path d="M216.502 175.623C216.258 175.866 216.02 176.109 215.782 176.359" stroke="#01B187" stroke-linecap="round" stroke-linejoin="round"/>
<path d="M315.35 143.998L309.669 155.439L322.417 154.638L315.35 143.998Z" fill="#01B187"/>
<path d="M341.327 189.694L282.31 183.012L270.763 284.992L329.78 291.674L341.327 189.694Z" fill="white" stroke="#B2B2B2" stroke-miterlimit="10" stroke-linecap="round" stroke-linejoin="round"/>
<path d="M285.609 192.012L276.198 275.112C278.02 275.319 279.335 276.963 279.128 278.792C279.049 279.493 278.749 280.122 278.313 280.615L323.419 285.724C323.104 285.145 322.954 284.473 323.033 283.766C323.24 281.944 324.884 280.629 326.713 280.836L336.124 197.736C334.302 197.529 332.987 195.885 333.194 194.056L289.282 189.082C289.082 190.904 287.432 192.219 285.609 192.012Z" fill="white" stroke="#B2B2B2" stroke-miterlimit="10" stroke-linecap="round" stroke-linejoin="round"/>
<path d="M306.054 252.811C314.582 252.811 321.496 245.897 321.496 237.368C321.496 228.84 314.582 221.926 306.054 221.926C297.525 221.926 290.611 228.84 290.611 237.368C290.611 245.897 297.525 252.811 306.054 252.811Z" fill="white" stroke="#B2B2B2" stroke-miterlimit="10" stroke-linecap="round" stroke-linejoin="round"/>
<path d="M315.966 236.995L317.452 237.188L317.124 239.753L315.637 239.561C314.894 241.726 313.036 242.648 310.328 242.305L309.699 242.226L310.078 239.26L310.907 239.368C312.336 239.553 312.95 239.046 313.079 238.053C313.208 237.052 312.736 236.416 311.314 236.23C307.205 235.702 306.219 241.811 300.509 241.083C297.801 240.732 296.207 239.339 296.036 237.059L294.578 236.874L294.907 234.308L296.365 234.494C297.108 232.3 298.994 231.378 301.71 231.729L303.082 231.907L302.703 234.873L301.131 234.673C299.702 234.487 299.109 235.051 298.98 236.052C298.851 237.052 299.287 237.745 300.709 237.924C304.818 238.453 305.804 232.343 311.514 233.072C314.194 233.401 315.766 234.737 315.966 236.995Z" fill="white" stroke="#B2B2B2" stroke-miterlimit="10" stroke-linecap="round" stroke-linejoin="round"/>
<path d="M299.544 182.808L240.171 184.418L242.952 287.014L302.326 285.405L299.544 182.808Z" fill="white" stroke="#B2B2B2" stroke-miterlimit="10" stroke-linecap="round" stroke-linejoin="round"/>
<path d="M244.683 192.849L246.948 276.449C248.785 276.399 250.314 277.85 250.364 279.686C250.386 280.394 250.178 281.051 249.814 281.601L295.191 280.372C294.798 279.844 294.555 279.193 294.54 278.486C294.49 276.649 295.941 275.12 297.778 275.07L295.512 191.47C293.676 191.52 292.147 190.069 292.097 188.232L247.92 189.433C247.97 191.269 246.52 192.799 244.683 192.849Z" fill="white" stroke="#B2B2B2" stroke-miterlimit="10" stroke-linecap="round" stroke-linejoin="round"/>
<path d="M271.257 250.352C279.786 250.352 286.7 243.438 286.7 234.909C286.7 226.381 279.786 219.467 271.257 219.467C262.729 219.467 255.815 226.381 255.815 234.909C255.815 243.438 262.729 250.352 271.257 250.352Z" fill="white" stroke="#B2B2B2" stroke-miterlimit="10" stroke-linecap="round" stroke-linejoin="round"/>
<path d="M281.055 232.936L282.548 232.893L282.627 235.48L281.133 235.523C280.74 237.781 279.047 238.981 276.317 239.06L275.681 239.081L275.595 236.087L276.431 236.066C277.868 236.023 278.396 235.43 278.368 234.429C278.339 233.422 277.775 232.864 276.338 232.907C272.201 233.029 272.172 239.217 266.427 239.382C263.697 239.46 261.904 238.331 261.382 236.102L259.917 236.144L259.838 233.558L261.303 233.515C261.696 231.228 263.419 230.027 266.148 229.949L267.527 229.906L267.613 232.9L266.034 232.943C264.598 232.986 264.097 233.629 264.126 234.637C264.155 235.644 264.69 236.259 266.127 236.216C270.264 236.094 270.293 229.906 276.038 229.742C278.739 229.67 280.497 230.735 281.055 232.936Z" fill="white" stroke="#B2B2B2" stroke-miterlimit="10" stroke-linecap="round" stroke-linejoin="round"/>
<path d="M270.569 178.649L214.242 197.496L246.809 294.827L303.135 275.98L270.569 178.649Z" fill="white" stroke="#B2B2B2" stroke-miterlimit="10" stroke-linecap="round" stroke-linejoin="round"/>
<path d="M221.022 204.252L247.555 283.565C249.299 282.979 251.185 283.922 251.764 285.666C251.985 286.338 251.985 287.031 251.8 287.66L294.847 273.253C294.318 272.86 293.896 272.31 293.675 271.638C293.089 269.895 294.032 268.008 295.776 267.429L269.243 188.117C267.499 188.703 265.613 187.759 265.034 186.016L223.123 200.036C223.702 201.787 222.758 203.673 221.022 204.252Z" fill="white" stroke="#B2B2B2" stroke-miterlimit="10" stroke-linecap="round" stroke-linejoin="round"/>
<path d="M258.696 252.188C267.224 252.188 274.138 245.274 274.138 236.745C274.138 228.217 267.224 221.303 258.696 221.303C250.167 221.303 243.253 228.217 243.253 236.745C243.253 245.274 250.167 252.188 258.696 252.188Z" fill="white" stroke="#B2B2B2" stroke-miterlimit="10" stroke-linecap="round" stroke-linejoin="round"/>
<path d="M266.949 231.05L268.307 230.414L269.401 232.758L268.043 233.394C268.572 235.623 267.5 237.396 265.02 238.553L264.448 238.818L263.184 236.109L263.941 235.759C265.242 235.152 265.499 234.401 265.07 233.487C264.641 232.572 263.905 232.286 262.605 232.894C258.853 234.644 261.283 240.333 256.073 242.769C253.594 243.927 251.507 243.598 250.142 241.762L248.813 242.384L247.72 240.04L249.049 239.418C248.506 237.167 249.606 235.38 252.086 234.223L253.336 233.637L254.601 236.345L253.165 237.017C251.864 237.624 251.657 238.418 252.086 239.332C252.515 240.247 253.251 240.597 254.551 239.99C258.303 238.239 255.873 232.544 261.083 230.114C263.534 228.963 265.57 229.249 266.949 231.05Z" fill="white" stroke="#B2B2B2" stroke-miterlimit="10" stroke-linecap="round" stroke-linejoin="round"/>
<path d="M238.902 183.436L191.159 218.771L252.218 301.271L299.961 265.936L238.902 183.436Z" fill="white" stroke="#B2B2B2" stroke-miterlimit="10" stroke-linecap="round" stroke-linejoin="round"/>
<path d="M199.682 223.096L249.432 290.318C250.911 289.225 252.991 289.539 254.084 291.011C254.506 291.583 254.713 292.241 254.735 292.898L291.222 265.893C290.6 265.686 290.028 265.293 289.607 264.721C288.513 263.242 288.828 261.163 290.3 260.069L240.55 192.847C239.071 193.941 236.991 193.626 235.898 192.154L200.375 218.444C201.469 219.923 201.154 222.003 199.682 223.096Z" fill="white" stroke="#B2B2B2" stroke-miterlimit="10" stroke-linecap="round" stroke-linejoin="round"/>
<path d="M245.559 257.789C254.088 257.789 261.002 250.875 261.002 242.347C261.002 233.818 254.088 226.904 245.559 226.904C237.031 226.904 230.117 233.818 230.117 242.347C230.117 250.875 237.031 257.789 245.559 257.789Z" fill="white" stroke="#B2B2B2" stroke-miterlimit="10" stroke-linecap="round" stroke-linejoin="round"/>
<path d="M250.947 233.865L251.948 232.75L253.877 234.479L252.877 235.594C254.242 237.438 253.941 239.489 252.119 241.525L251.698 241.997L249.468 239.996L250.025 239.374C250.983 238.302 250.926 237.509 250.176 236.837C249.425 236.166 248.632 236.187 247.674 237.259C244.909 240.346 249.375 244.627 245.538 248.907C243.716 250.944 241.665 251.458 239.685 250.308L238.706 251.401L236.777 249.672L237.756 248.578C236.37 246.72 236.684 244.641 238.513 242.611L239.435 241.582L241.665 243.583L240.607 244.762C239.65 245.834 239.771 246.642 240.521 247.313C241.272 247.985 242.086 248.021 243.051 246.949C245.816 243.862 241.35 239.582 245.188 235.301C246.981 233.286 248.975 232.75 250.947 233.865Z" fill="white" stroke="#B2B2B2" stroke-miterlimit="10" stroke-linecap="round" stroke-linejoin="round"/>
<path d="M216.147 200.391L169.081 236.623L231.689 317.953L278.756 281.721L216.147 200.391Z" fill="white" stroke="#B2B2B2" stroke-miterlimit="10" stroke-linecap="round" stroke-linejoin="round"/>
<path d="M177.688 240.775L228.703 307.04C230.161 305.918 232.248 306.189 233.37 307.647C233.799 308.212 234.02 308.862 234.056 309.519L270.029 281.829C269.4 281.629 268.821 281.25 268.392 280.692C267.27 279.235 267.542 277.148 268.999 276.026L217.985 209.762C216.527 210.884 214.44 210.612 213.318 209.154L178.303 236.116C179.411 237.567 179.139 239.653 177.688 240.775Z" fill="white" stroke="#B2B2B2" stroke-miterlimit="10" stroke-linecap="round" stroke-linejoin="round"/>
<path d="M223.916 274.598C232.444 274.598 239.358 267.684 239.358 259.155C239.358 250.627 232.444 243.713 223.916 243.713C215.387 243.713 208.473 250.627 208.473 259.155C208.473 267.684 215.387 274.598 223.916 274.598Z" fill="white" stroke="#B2B2B2" stroke-miterlimit="10" stroke-linecap="round" stroke-linejoin="round"/>
<path d="M229.41 250.751L230.425 249.65L232.333 251.401L231.318 252.502C232.655 254.36 232.333 256.41 230.482 258.418L230.054 258.883L227.853 256.854L228.417 256.239C229.389 255.181 229.339 254.388 228.596 253.709C227.853 253.03 227.059 253.038 226.088 254.095C223.279 257.139 227.695 261.484 223.801 265.715C221.95 267.723 219.892 268.216 217.934 267.037L216.941 268.116L215.033 266.365L216.026 265.286C214.668 263.406 215.004 261.334 216.862 259.326L217.798 258.311L219.999 260.341L218.927 261.506C217.955 262.563 218.07 263.371 218.806 264.057C219.549 264.736 220.364 264.786 221.335 263.728C224.144 260.684 219.728 256.339 223.622 252.109C225.452 250.122 227.452 249.608 229.41 250.751Z" fill="white" stroke="#B2B2B2" stroke-miterlimit="10" stroke-linecap="round" stroke-linejoin="round"/>
<path d="M183.33 230.612L151.618 280.832L238.398 335.63L270.11 285.41L183.33 230.612Z" fill="white" stroke="#B2B2B2" stroke-miterlimit="10" stroke-linecap="round" stroke-linejoin="round"/>
<path d="M161.138 281.779L231.855 326.434C232.834 324.884 234.892 324.419 236.442 325.398C237.043 325.777 237.471 326.313 237.729 326.92L261.968 288.539C261.31 288.568 260.638 288.411 260.038 288.032C258.488 287.053 258.023 284.995 259.002 283.444L188.286 238.789C187.307 240.34 185.249 240.804 183.698 239.825L160.102 277.191C161.66 278.17 162.124 280.221 161.138 281.779Z" fill="white" stroke="#B2B2B2" stroke-miterlimit="10" stroke-linecap="round" stroke-linejoin="round"/>
<path d="M210.876 298.559C219.404 298.559 226.318 291.645 226.318 283.116C226.318 274.588 219.404 267.674 210.876 267.674C202.347 267.674 195.433 274.588 195.433 283.116C195.433 291.645 202.347 298.559 210.876 298.559Z" fill="white" stroke="#B2B2B2" stroke-miterlimit="10" stroke-linecap="round" stroke-linejoin="round"/>
<path d="M214.804 273.998L215.612 272.74L217.791 274.141L216.984 275.399C218.62 276.999 218.656 279.072 217.177 281.373L216.833 281.908L214.318 280.294L214.768 279.593C215.547 278.386 215.354 277.614 214.511 277.071C213.661 276.528 212.882 276.678 212.11 277.885C209.873 281.373 214.961 284.881 211.853 289.726C210.374 292.027 208.437 292.863 206.3 292.041L205.507 293.278L203.328 291.877L204.121 290.641C202.456 289.026 202.442 286.925 203.914 284.624L204.657 283.459L207.172 285.074L206.315 286.403C205.536 287.611 205.786 288.39 206.636 288.933C207.487 289.476 208.294 289.383 209.073 288.175C211.31 284.688 206.222 281.18 209.33 276.335C210.802 274.055 212.675 273.212 214.804 273.998Z" fill="white" stroke="#B2B2B2" stroke-miterlimit="10" stroke-linecap="round" stroke-linejoin="round"/>
<path d="M161.522 259.093L144.594 316.025L242.972 345.277L259.9 288.345L161.522 259.093Z" fill="white" stroke="#B2B2B2" stroke-miterlimit="10" stroke-linecap="round" stroke-linejoin="round"/>
<path d="M154.013 314.357L234.177 338.188C234.698 336.43 236.549 335.423 238.314 335.944C238.993 336.145 239.558 336.545 239.965 337.066L252.899 293.555C252.277 293.762 251.584 293.79 250.905 293.59C249.147 293.069 248.14 291.218 248.662 289.453L168.498 265.621C167.977 267.379 166.126 268.387 164.361 267.865L151.77 310.226C153.535 310.741 154.535 312.591 154.013 314.357Z" fill="white" stroke="#B2B2B2" stroke-miterlimit="10" stroke-linecap="round" stroke-linejoin="round"/>
<path d="M202.25 317.615C210.779 317.615 217.692 310.701 217.692 302.173C217.692 293.644 210.779 286.73 202.25 286.73C193.721 286.73 186.808 293.644 186.808 302.173C186.808 310.701 193.721 317.615 202.25 317.615Z" fill="white" stroke="#B2B2B2" stroke-miterlimit="10" stroke-linecap="round" stroke-linejoin="round"/>
<path d="M203.693 292.361L204.15 290.939L206.615 291.733L206.158 293.155C208.152 294.277 208.724 296.277 207.887 298.879L207.694 299.479L204.843 298.564L205.101 297.771C205.544 296.399 205.158 295.706 204.2 295.399C203.243 295.091 202.528 295.434 202.085 296.806C200.82 300.751 206.644 302.83 204.886 308.311C204.05 310.912 202.392 312.227 200.113 311.977L199.662 313.378L197.197 312.585L197.647 311.184C195.625 310.048 195.068 308.025 195.897 305.424L196.318 304.109L199.169 305.024L198.683 306.532C198.24 307.904 198.691 308.59 199.648 308.897C200.606 309.205 201.37 308.904 201.806 307.532C203.071 303.588 197.247 301.508 199.005 296.027C199.841 293.448 201.435 292.147 203.693 292.361Z" fill="white" stroke="#B2B2B2" stroke-miterlimit="10" stroke-linecap="round" stroke-linejoin="round"/>
<path d="M248.15 360.278L248.388 300.881L145.75 300.47L145.513 359.867L248.15 360.278Z" fill="white" stroke="#B2B2B2" stroke-miterlimit="10" stroke-linecap="round" stroke-linejoin="round"/>
<path d="M239.822 305.125L156.193 304.789C156.185 306.626 154.692 308.112 152.855 308.105C152.148 308.105 151.498 307.876 150.955 307.497L150.776 352.896C151.319 352.524 151.969 352.295 152.677 352.303C154.513 352.31 156 353.803 155.992 355.64L239.622 355.976C239.629 354.139 241.122 352.653 242.959 352.66L243.137 308.469C241.294 308.455 239.814 306.961 239.822 305.125Z" fill="white" stroke="#B2B2B2" stroke-miterlimit="10" stroke-linecap="round" stroke-linejoin="round"/>
<path d="M196.953 345.815C205.481 345.815 212.395 338.901 212.395 330.372C212.395 321.844 205.481 314.93 196.953 314.93C188.424 314.93 181.51 321.844 181.51 330.372C181.51 338.901 188.424 345.815 196.953 345.815Z" fill="white" stroke="#B2B2B2" stroke-miterlimit="10" stroke-linecap="round" stroke-linejoin="round"/>
<path d="M198.547 340.169L198.54 341.663L195.953 341.656L195.96 340.162C193.716 339.691 192.573 337.961 192.587 335.232V334.596L195.581 334.61V335.446C195.574 336.882 196.146 337.433 197.153 337.44C198.161 337.447 198.74 336.897 198.747 335.46C198.761 331.316 192.58 331.094 192.601 325.334C192.616 322.605 193.802 320.854 196.046 320.397L196.053 318.932L198.64 318.939L198.633 320.404C200.905 320.875 202.048 322.633 202.034 325.363L202.027 326.742L199.033 326.728L199.04 325.149C199.047 323.712 198.418 323.191 197.411 323.183C196.403 323.176 195.767 323.698 195.76 325.134C195.746 329.279 201.927 329.501 201.905 335.26C201.891 337.968 200.762 339.691 198.547 340.169Z" fill="white" stroke="#B2B2B2" stroke-miterlimit="10" stroke-linecap="round" stroke-linejoin="round"/>
<path d="M317.021 184.532C317.021 174.756 324.946 166.824 334.729 166.824H429.834C439.61 166.824 447.542 174.749 447.542 184.532V405.292C447.542 415.068 439.617 423 429.834 423H334.722C324.946 423 317.014 415.075 317.014 405.292V184.532H317.021ZM326.811 392.636C326.811 402.412 330.506 410.344 340.289 410.344H424.268C434.043 410.344 441.976 402.419 441.976 392.636V188.577C441.976 178.801 434.051 170.869 424.268 170.869H389.16L389.124 170.997C388.088 174.742 385.694 177.164 383.043 177.164H381.521C378.87 177.164 376.476 174.735 375.439 170.997L375.404 170.869H340.296C330.52 170.869 326.818 178.794 326.818 188.577V392.636H326.811Z" fill="#707070" stroke="#263238" stroke-miterlimit="10" stroke-linecap="round" stroke-linejoin="round"/>
<path d="M432.299 170.869H397.191L397.156 170.998C396.119 174.742 393.726 177.165 391.074 177.165H389.552C386.901 177.165 384.507 174.735 383.471 170.998L383.435 170.869H348.327C338.552 170.869 330.62 178.794 330.62 188.577V402.655C330.62 408.265 335.172 412.817 340.781 412.817H439.853C445.462 412.817 450.014 408.265 450.014 402.655V188.577C450.007 178.801 442.082 170.869 432.299 170.869Z" fill="white" stroke="#263238" stroke-miterlimit="10" stroke-linecap="round" stroke-linejoin="round"/>
<path d="M362.283 191.643L329.668 228.887V299.504L339.358 307.993L406.973 230.767L362.283 191.643Z" fill="white" stroke="#B2B2B2" stroke-miterlimit="10" stroke-linecap="round" stroke-linejoin="round"/>
<path d="M397.805 229.687L364.555 200.574C363.348 201.953 361.247 202.096 359.86 200.889L329.662 235.382V292.557L337.529 299.446C337.601 298.788 337.865 298.152 338.33 297.616C339.537 296.237 341.638 296.094 343.025 297.302L398.113 234.382C396.734 233.174 396.598 231.073 397.805 229.687Z" fill="white" stroke="#B2B2B2" stroke-miterlimit="10" stroke-linecap="round" stroke-linejoin="round"/>
<path d="M350.82 265.26C359.348 265.26 366.262 258.346 366.262 249.817C366.262 241.289 359.348 234.375 350.82 234.375C342.291 234.375 335.377 241.289 335.377 249.817C335.377 258.346 342.291 265.26 350.82 265.26Z" fill="white" stroke="#B2B2B2" stroke-miterlimit="10" stroke-linecap="round" stroke-linejoin="round"/>
<path d="M358.88 255.585L359.937 256.643L358.101 258.472L357.043 257.415C355.128 258.672 353.099 258.265 351.169 256.328L350.719 255.878L352.841 253.763L353.427 254.356C354.442 255.378 355.235 255.357 355.95 254.642C356.664 253.934 356.686 253.134 355.671 252.119C352.748 249.182 348.225 253.406 344.159 249.332C342.23 247.396 341.829 245.324 343.094 243.409L342.058 242.372L343.895 240.543L344.931 241.579C346.867 240.3 348.918 240.729 350.848 242.665L351.819 243.644L349.697 245.76L348.582 244.638C347.568 243.616 346.753 243.701 346.038 244.409C345.324 245.116 345.245 245.931 346.26 246.953C349.183 249.89 353.706 245.667 357.772 249.74C359.68 251.662 360.109 253.677 358.88 255.585Z" fill="white" stroke="#B2B2B2" stroke-miterlimit="10" stroke-linecap="round" stroke-linejoin="round"/>
<path d="M401.921 217.025L329.668 259.73V296.496L343.789 320.377L432.149 268.155L401.921 217.025Z" fill="white" stroke="#B2B2B2" stroke-miterlimit="10" stroke-linecap="round" stroke-linejoin="round"/>
<path d="M423.774 264.274L401.286 226.229C399.706 227.165 397.663 226.636 396.726 225.057L329.662 264.695V286.219L344.718 311.694C344.99 311.094 345.44 310.572 346.047 310.208C347.627 309.272 349.67 309.801 350.606 311.38L422.602 268.826C421.673 267.246 422.195 265.203 423.774 264.274Z" fill="white" stroke="#B2B2B2" stroke-miterlimit="10" stroke-linecap="round" stroke-linejoin="round"/>
<path d="M372.852 284.147C381.381 284.147 388.295 277.233 388.295 268.704C388.295 260.176 381.381 253.262 372.852 253.262C364.323 253.262 357.41 260.176 357.41 268.704C357.41 277.233 364.323 284.147 372.852 284.147Z" fill="white" stroke="#B2B2B2" stroke-miterlimit="10" stroke-linecap="round" stroke-linejoin="round"/>
<path d="M378.416 276.952L379.037 278.317L376.679 279.389L376.058 278.024C373.828 278.531 372.063 277.438 370.934 274.951L370.669 274.372L373.392 273.136L373.735 273.894C374.328 275.201 375.079 275.466 376 275.044C376.915 274.63 377.215 273.894 376.622 272.579C374.907 268.806 369.19 271.185 366.811 265.947C365.682 263.461 366.025 261.374 367.883 260.023L367.275 258.687L369.633 257.615L370.241 258.952C372.499 258.43 374.271 259.552 375.407 262.039L375.979 263.296L373.256 264.533L372.599 263.089C372.006 261.781 371.213 261.567 370.298 261.989C369.383 262.403 369.019 263.139 369.612 264.447C371.327 268.22 377.044 265.84 379.423 271.078C380.538 273.558 380.231 275.594 378.416 276.952Z" fill="white" stroke="#B2B2B2" stroke-miterlimit="10" stroke-linecap="round" stroke-linejoin="round"/>
<path d="M429.559 244.373L329.673 262.031V268.948L338.827 320.728L439.892 302.863L429.559 244.373Z" fill="white" stroke="#B2B2B2" stroke-miterlimit="10" stroke-linecap="round" stroke-linejoin="round"/>
<path d="M421.877 250.076L339.52 264.632C339.841 266.44 338.634 268.17 336.826 268.484C336.125 268.606 335.446 268.498 334.846 268.22L342.75 312.925C343.214 312.46 343.822 312.124 344.515 312.003C346.323 311.681 348.052 312.889 348.366 314.697L430.723 300.141C430.402 298.333 431.61 296.603 433.417 296.289L425.728 252.77C423.928 253.092 422.198 251.884 421.877 250.076Z" fill="white" stroke="#B2B2B2" stroke-miterlimit="10" stroke-linecap="round" stroke-linejoin="round"/>
<path d="M384.189 297.996C392.718 297.996 399.632 291.082 399.632 282.554C399.632 274.025 392.718 267.111 384.189 267.111C375.661 267.111 368.747 274.025 368.747 282.554C368.747 291.082 375.661 297.996 384.189 297.996Z" fill="white" stroke="#B2B2B2" stroke-miterlimit="10" stroke-linecap="round" stroke-linejoin="round"/>
<path d="M387.426 292.001L387.669 293.48L385.11 293.894L384.867 292.415C382.581 292.322 381.166 290.8 380.73 288.106L380.63 287.485L383.581 287.006L383.717 287.828C383.946 289.25 384.603 289.693 385.596 289.535C386.59 289.371 387.068 288.742 386.84 287.32C386.175 283.233 380.037 284.026 379.115 278.345C378.679 275.644 379.558 273.729 381.702 272.914L381.466 271.463L384.024 271.049L384.26 272.499C386.575 272.592 387.997 274.136 388.433 276.837L388.655 278.202L385.704 278.681L385.446 277.116C385.218 275.694 384.51 275.286 383.517 275.451C382.524 275.615 381.981 276.223 382.209 277.645C382.874 281.732 389.012 280.939 389.934 286.62C390.363 289.278 389.534 291.165 387.426 292.001Z" fill="white" stroke="#B2B2B2" stroke-miterlimit="10" stroke-linecap="round" stroke-linejoin="round"/>
<path d="M443.077 321.659L443.04 262.262L340.402 262.326L340.439 321.723L443.077 321.659Z" fill="#92E3A9" stroke="#263238" stroke-miterlimit="10" stroke-linecap="round" stroke-linejoin="round"/>
<path d="M434.493 266.547L350.864 266.597C350.864 268.433 349.378 269.927 347.541 269.927C346.834 269.927 346.177 269.705 345.641 269.327L345.669 314.725C346.205 314.346 346.863 314.125 347.57 314.125C349.407 314.125 350.9 315.611 350.9 317.448L434.529 317.398C434.529 315.561 436.016 314.067 437.852 314.067L437.823 269.877C435.987 269.87 434.493 268.383 434.493 266.547Z" fill="white" stroke="#263238" stroke-miterlimit="10"/>
<path d="M391.74 307.436C400.268 307.436 407.182 300.522 407.182 291.993C407.182 283.465 400.268 276.551 391.74 276.551C383.211 276.551 376.297 283.465 376.297 291.993C376.297 300.522 383.211 307.436 391.74 307.436Z" fill="#263238"/>
<path d="M393.377 301.783V303.277H390.79V301.783C388.546 301.326 387.396 299.597 387.388 296.867V296.231H390.383V297.067C390.383 298.503 390.961 299.054 391.969 299.054C392.977 299.054 393.548 298.503 393.548 297.067C393.548 292.922 387.36 292.729 387.36 286.97C387.36 284.24 388.539 282.482 390.783 282.018V280.553H393.37V282.018C395.642 282.475 396.792 284.233 396.8 286.963V288.342H393.805V286.763C393.805 285.326 393.17 284.805 392.162 284.805C391.154 284.805 390.526 285.326 390.526 286.763C390.526 290.907 396.714 291.1 396.714 296.86C396.714 299.561 395.592 301.29 393.377 301.783Z" fill="white"/>
<path d="M389.337 364.396C397.23 364.396 403.629 357.998 403.629 350.104C403.629 342.211 397.23 335.812 389.337 335.812C381.444 335.812 375.045 342.211 375.045 350.104C375.045 357.998 381.444 364.396 389.337 364.396Z" fill="#263238" stroke="#263238" stroke-miterlimit="10"/>
<path d="M390.766 357.25L382.62 346.388C381.913 345.437 382.098 344.094 383.049 343.387C383.992 342.679 385.343 342.865 386.05 343.815L390.766 350.104L401.914 335.24C402.629 334.29 403.972 334.104 404.915 334.811C405.866 335.519 406.052 336.869 405.344 337.813L390.766 357.25Z" fill="#92E3A9" stroke="#263238" stroke-miterlimit="10" stroke-linecap="round" stroke-linejoin="round"/>
<path d="M450.007 195.751V188.577C450.007 178.801 442.082 170.869 432.299 170.869H397.191L397.156 170.998C396.119 174.742 393.726 177.165 391.074 177.165H389.552C386.901 177.165 384.507 174.735 383.471 170.998L383.435 170.869H348.327C338.552 170.869 330.62 178.794 330.62 188.577V195.751H450.007Z" fill="#92E3A9" stroke="#263238" stroke-miterlimit="10" stroke-linecap="round" stroke-linejoin="round"/>
<path d="M330.62 397.982V402.656C330.62 408.265 335.172 412.817 340.781 412.817H439.853C445.462 412.817 450.014 408.265 450.014 402.656V397.982H330.62Z" fill="#92E3A9" stroke="#263238" stroke-miterlimit="10" stroke-linecap="round" stroke-linejoin="round"/>
<path d="M455.573 184.532C455.573 174.756 447.648 166.824 437.865 166.824H342.76C332.984 166.824 325.052 174.749 325.052 184.532V405.292C325.052 415.068 332.977 423 342.76 423H437.865C447.641 423 455.573 415.075 455.573 405.292V184.532ZM450.006 392.636C450.006 402.412 442.082 410.344 432.299 410.344H348.327C338.551 410.344 330.619 402.419 330.619 392.636V188.577C330.619 178.801 338.544 170.869 348.327 170.869H383.435L383.47 170.997C384.507 174.742 386.9 177.164 389.552 177.164H391.074C393.725 177.164 396.119 174.735 397.155 170.997L397.191 170.869H432.299C442.074 170.869 450.006 178.794 450.006 188.577V392.636Z" fill="#707070" stroke="#263238" stroke-miterlimit="10" stroke-linecap="round" stroke-linejoin="round"/>
<path d="M434.764 169.262H345.861C335.499 169.262 327.103 177.658 327.103 188.02V401.798C327.103 412.16 335.499 420.556 345.861 420.556H434.764C445.125 420.556 453.522 412.16 453.522 401.798V188.02C453.522 177.658 445.125 169.262 434.764 169.262ZM450.006 392.637C450.006 402.413 442.081 410.345 432.298 410.345H348.326C338.55 410.345 330.618 402.42 330.618 392.637V188.577C330.618 178.802 338.543 170.87 348.326 170.87H383.434L383.47 170.998C384.506 174.743 386.9 177.165 389.551 177.165H391.073C393.724 177.165 396.118 174.736 397.154 170.998L397.19 170.87H432.298C442.074 170.87 450.006 178.794 450.006 188.577V392.637Z" fill="#263238" stroke="#263238" stroke-miterlimit="10" stroke-linecap="round" stroke-linejoin="round"/>
<path d="M389.952 173.385C390.872 173.385 391.617 172.639 391.617 171.72C391.617 170.8 390.872 170.055 389.952 170.055C389.033 170.055 388.287 170.8 388.287 171.72C388.287 172.639 389.033 173.385 389.952 173.385Z" fill="#707070"/>
<path d="M341.232 178.086C341.232 179.765 339.345 180.373 339.338 181.659V181.745H341.174V182.309H338.73V181.831C338.73 180.03 340.617 179.68 340.617 178.108C340.617 177.536 340.424 177.229 339.967 177.229C339.509 177.229 339.316 177.557 339.316 178.05V178.543H338.738V178.086C338.738 177.236 339.131 176.664 339.988 176.664C340.839 176.678 341.232 177.236 341.232 178.086Z" fill="#263238"/>
<path d="M344.282 178.078V178.221C344.282 178.793 344.053 179.2 343.603 179.372C344.075 179.55 344.282 179.972 344.282 180.529V180.958C344.282 181.809 343.882 182.366 343.024 182.366C342.174 182.366 341.774 181.809 341.774 180.958V180.572H342.353V180.994C342.353 181.494 342.56 181.801 343.003 181.801C343.46 181.801 343.653 181.508 343.653 180.944V180.515C343.653 179.965 343.425 179.7 342.953 179.686H342.617V179.129H342.982C343.396 179.115 343.653 178.85 343.653 178.364V178.107C343.653 177.535 343.453 177.235 343.003 177.235C342.56 177.235 342.353 177.542 342.353 178.05V178.336H341.774V178.078C341.774 177.228 342.174 176.678 343.024 176.678C343.882 176.678 344.282 177.228 344.282 178.078Z" fill="#263238"/>
<path d="M345.49 178.5V179.272H344.89V178.5H345.49ZM345.49 181.537V182.309H344.89V181.537H345.49Z" fill="#263238"/>
<path d="M346.748 179.009C346.927 178.709 347.205 178.544 347.577 178.544C348.292 178.544 348.613 179.073 348.613 179.866V180.96C348.613 181.81 348.206 182.367 347.356 182.367C346.505 182.367 346.105 181.81 346.105 180.96V180.588H346.684V181.002C346.684 181.503 346.891 181.81 347.334 181.81C347.777 181.81 347.984 181.51 347.984 181.002V179.916C347.984 179.416 347.777 179.109 347.334 179.109C346.991 179.109 346.762 179.302 346.705 179.709V179.838H346.126L346.276 176.736H348.477V177.294H346.834L346.748 179.009Z" fill="#263238"/>
<path d="M351.716 178.072V178.18H351.137V178.037C351.137 177.537 350.93 177.236 350.472 177.236C350.001 177.236 349.793 177.537 349.793 178.137V179.387C349.943 179.001 350.251 178.787 350.694 178.787C351.408 178.787 351.73 179.309 351.73 180.109V180.952C351.73 181.803 351.308 182.36 350.451 182.36C349.593 182.36 349.165 181.803 349.165 180.952V178.108C349.165 177.222 349.565 176.672 350.451 176.672C351.315 176.679 351.716 177.222 351.716 178.072ZM349.793 180.159V180.995C349.793 181.495 350.001 181.803 350.458 181.803C350.901 181.803 351.123 181.503 351.123 180.995V180.159C351.123 179.659 350.908 179.352 350.458 179.352C350.001 179.359 349.793 179.659 349.793 180.159Z" fill="#263238"/>
<path d="M412.613 178.314H411.041V182.252H412.613V178.314Z" fill="#263238"/>
<path d="M414.714 177.529H413.142V182.253H414.714V177.529Z" fill="#263238"/>
<path d="M416.817 176.971H415.245V182.259H416.817V176.971Z" fill="#263238"/>
<path d="M418.917 175.992H417.345V182.252H418.917V175.992Z" fill="#263238"/>
<path d="M438.411 182.145H428.957V176.371H438.411V182.145ZM429.486 181.623H437.889V176.9H429.486V181.623Z" fill="#263238"/>
<path d="M435.265 177.471H430.277V181.051H435.265V177.471Z" fill="#263238"/>
<path d="M439.275 178.58H438.088V179.938H439.275V178.58Z" fill="#263238"/>
<path d="M425.496 180.894C425.432 180.894 425.375 180.88 425.318 180.844C423.395 179.701 422.123 180.765 422.066 180.808C421.916 180.937 421.695 180.922 421.566 180.772C421.437 180.622 421.452 180.408 421.602 180.279C421.673 180.222 423.295 178.829 425.675 180.244C425.839 180.344 425.896 180.558 425.796 180.73C425.732 180.83 425.618 180.894 425.496 180.894Z" fill="#263238"/>
<path d="M426.205 179.708C426.141 179.708 426.083 179.694 426.026 179.658C423.246 178.007 421.374 179.601 421.36 179.622C421.217 179.751 420.988 179.736 420.86 179.594C420.731 179.451 420.745 179.222 420.888 179.093C420.91 179.072 423.168 177.143 426.383 179.058C426.548 179.158 426.605 179.372 426.505 179.544C426.448 179.644 426.326 179.708 426.205 179.708Z" fill="#263238"/>
<path d="M426.854 178.33C426.789 178.33 426.732 178.316 426.675 178.28C423.152 176.186 420.808 178.158 420.715 178.244C420.565 178.373 420.344 178.358 420.215 178.208C420.086 178.065 420.101 177.837 420.251 177.715C420.279 177.694 423.059 175.314 427.039 177.68C427.204 177.78 427.261 177.994 427.161 178.166C427.089 178.273 426.975 178.33 426.854 178.33Z" fill="#263238"/>
<path d="M423.546 182.366C424.036 182.366 424.432 181.969 424.432 181.48C424.432 180.99 424.036 180.594 423.546 180.594C423.057 180.594 422.66 180.99 422.66 181.48C422.66 181.969 423.057 182.366 423.546 182.366Z" fill="#263238"/>
<path d="M322.072 211.594H318.356V226.25H322.072V211.594Z" fill="#263238" stroke="#263238" stroke-miterlimit="10" stroke-linecap="round" stroke-linejoin="round"/>
<path d="M236.213 184.532C236.213 174.756 228.288 166.824 218.506 166.824H123.4C113.624 166.824 105.692 174.749 105.692 184.532V405.292C105.692 415.068 113.617 423 123.4 423H218.506C228.281 423 236.213 415.075 236.213 405.292V184.532ZM226.416 392.636C226.416 402.412 222.722 410.344 212.939 410.344H128.967C119.191 410.344 111.259 402.419 111.259 392.636V188.577C111.259 178.801 119.184 170.869 128.967 170.869H164.075L164.111 170.997C165.147 174.742 167.541 177.164 170.192 177.164H171.714C174.365 177.164 176.759 174.735 177.795 170.997L177.831 170.869H212.939C222.715 170.869 226.416 178.794 226.416 188.577V392.636Z" fill="#707070" stroke="#263238" stroke-miterlimit="10" stroke-linecap="round" stroke-linejoin="round"/>
<path d="M206.198 170.869H171.09L171.055 170.998C170.018 174.742 167.624 177.165 164.973 177.165H163.451C160.8 177.165 158.406 174.735 157.37 170.998L157.334 170.869H122.226C112.451 170.869 104.519 178.794 104.519 188.577V402.655C104.519 408.265 109.071 412.817 114.68 412.817H213.752C219.361 412.817 223.913 408.265 223.913 402.655V188.577C223.906 178.801 215.981 170.869 206.198 170.869Z" fill="white" stroke="#263238" stroke-miterlimit="10" stroke-linecap="round" stroke-linejoin="round"/>
<g opacity="0.2">
<path d="M128.793 195.758V232.574L119.882 241.485V290.778" stroke="black" stroke-miterlimit="10"/>
<path d="M139.369 196.287V217.082L129.172 228.065" stroke="black" stroke-miterlimit="10"/>
<path d="M134.661 222.176V249.638" stroke="black" stroke-miterlimit="10"/>
<path d="M148.003 195.893V236.696" stroke="black" stroke-miterlimit="10"/>
<path d="M119.882 294.092C120.719 294.092 121.397 293.414 121.397 292.577C121.397 291.741 120.719 291.062 119.882 291.062C119.045 291.062 118.367 291.741 118.367 292.577C118.367 293.414 119.045 294.092 119.882 294.092Z" stroke="black" stroke-miterlimit="10"/>
<path d="M134.625 252.254C135.461 252.254 136.14 251.576 136.14 250.74C136.14 249.903 135.461 249.225 134.625 249.225C133.788 249.225 133.11 249.903 133.11 250.74C133.11 251.576 133.788 252.254 134.625 252.254Z" stroke="black" stroke-miterlimit="10"/>
<path d="M147.893 240.006C148.73 240.006 149.408 239.328 149.408 238.492C149.408 237.655 148.73 236.977 147.893 236.977C147.057 236.977 146.378 237.655 146.378 238.492C146.378 239.328 147.057 240.006 147.893 240.006Z" stroke="black" stroke-miterlimit="10"/>
</g>
<g opacity="0.2">
<path d="M196.052 195.758V232.574L204.963 241.485V290.778" stroke="black" stroke-miterlimit="10"/>
<path d="M185.467 196.287V217.082L195.671 228.065" stroke="black" stroke-miterlimit="10"/>
<path d="M190.178 222.176V249.638" stroke="black" stroke-miterlimit="10"/>
<path d="M176.843 195.895V236.698" stroke="black" stroke-miterlimit="10"/>
<path d="M204.962 294.092C205.798 294.092 206.477 293.414 206.477 292.577C206.477 291.741 205.798 291.062 204.962 291.062C204.125 291.062 203.447 291.741 203.447 292.577C203.447 293.414 204.125 294.092 204.962 294.092Z" stroke="black" stroke-miterlimit="10"/>
<path d="M190.221 252.254C191.058 252.254 191.736 251.576 191.736 250.74C191.736 249.903 191.058 249.225 190.221 249.225C189.385 249.225 188.707 249.903 188.707 250.74C188.707 251.576 189.385 252.254 190.221 252.254Z" stroke="black" stroke-miterlimit="10"/>
<path d="M176.95 240.006C177.787 240.006 178.465 239.328 178.465 238.492C178.465 237.655 177.787 236.977 176.95 236.977C176.114 236.977 175.436 237.655 175.436 238.492C175.436 239.328 176.114 240.006 176.95 240.006Z" stroke="black" stroke-miterlimit="10"/>
</g>
<path d="M223.906 195.751V188.577C223.906 178.801 215.981 170.869 206.198 170.869H171.09L171.055 170.998C170.018 174.742 167.624 177.165 164.973 177.165H163.451C160.8 177.165 158.406 174.735 157.37 170.998L157.334 170.869H122.226C112.451 170.869 104.519 178.794 104.519 188.577V195.751H223.906Z" fill="#92E3A9" stroke="#263238" stroke-miterlimit="10" stroke-linecap="round" stroke-linejoin="round"/>
<path d="M104.519 397.982V402.656C104.519 408.265 109.071 412.817 114.68 412.817H213.752C219.361 412.817 223.913 408.265 223.913 402.656V397.982H104.519Z" fill="#92E3A9" stroke="#263238" stroke-miterlimit="10" stroke-linecap="round" stroke-linejoin="round"/>
<path d="M229.475 184.532C229.475 174.756 221.551 166.824 211.768 166.824H116.662C106.887 166.824 98.9546 174.749 98.9546 184.532V405.292C98.9546 415.068 106.879 423 116.662 423H211.768C221.543 423 229.475 415.075 229.475 405.292V184.532ZM223.909 392.636C223.909 402.412 215.984 410.344 206.201 410.344H122.229C112.453 410.344 104.521 402.419 104.521 392.636V188.577C104.521 178.801 112.446 170.869 122.229 170.869H157.337L157.373 170.997C158.409 174.742 160.803 177.164 163.454 177.164H164.976C167.627 177.164 170.021 174.735 171.057 170.997L171.093 170.869H206.201C215.977 170.869 223.909 178.794 223.909 188.577V392.636Z" fill="#707070" stroke="#263238" stroke-miterlimit="10" stroke-linecap="round" stroke-linejoin="round"/>
<path d="M208.666 169.262H119.763C109.401 169.262 101.005 177.658 101.005 188.02V401.798C101.005 412.16 109.401 420.556 119.763 420.556H208.666C219.027 420.556 227.424 412.16 227.424 401.798V188.02C227.424 177.658 219.027 169.262 208.666 169.262ZM223.908 392.637C223.908 402.413 215.983 410.345 206.2 410.345H122.228C112.453 410.345 104.521 402.42 104.521 392.637V188.577C104.521 178.802 112.446 170.87 122.228 170.87H157.336L157.372 170.998C158.408 174.743 160.802 177.165 163.453 177.165H164.975C167.627 177.165 170.021 174.736 171.057 170.998L171.092 170.87H206.2C215.976 170.87 223.908 178.794 223.908 188.577V392.637Z" fill="#263238" stroke="#263238" stroke-miterlimit="10" stroke-linecap="round" stroke-linejoin="round"/>
<path d="M163.854 173.385C164.774 173.385 165.519 172.639 165.519 171.72C165.519 170.8 164.774 170.055 163.854 170.055C162.934 170.055 162.189 170.8 162.189 171.72C162.189 172.639 162.934 173.385 163.854 173.385Z" fill="#707070"/>
<path d="M115.133 178.086C115.133 179.765 113.247 180.373 113.24 181.659V181.745H115.076V182.309H112.632V181.831C112.632 180.03 114.519 179.68 114.519 178.108C114.519 177.536 114.326 177.229 113.869 177.229C113.411 177.229 113.218 177.557 113.218 178.05V178.543H112.639V178.086C112.639 177.236 113.032 176.664 113.89 176.664C114.74 176.678 115.133 177.236 115.133 178.086Z" fill="#263238"/>
<path d="M118.184 178.078V178.221C118.184 178.793 117.955 179.2 117.505 179.372C117.977 179.55 118.184 179.972 118.184 180.529V180.958C118.184 181.809 117.784 182.366 116.926 182.366C116.076 182.366 115.676 181.809 115.676 180.958V180.572H116.255V180.994C116.255 181.494 116.462 181.801 116.905 181.801C117.362 181.801 117.555 181.508 117.555 180.944V180.515C117.555 179.965 117.327 179.7 116.855 179.686H116.519V179.129H116.883C117.298 179.115 117.555 178.85 117.555 178.364V178.107C117.555 177.535 117.355 177.235 116.905 177.235C116.462 177.235 116.255 177.542 116.255 178.05V178.336H115.676V178.078C115.676 177.228 116.076 176.678 116.926 176.678C117.784 176.678 118.184 177.228 118.184 178.078Z" fill="#263238"/>
<path d="M119.385 178.5V179.272H118.785V178.5H119.385ZM119.385 181.537V182.309H118.785V181.537H119.385Z" fill="#263238"/>
<path d="M120.65 179.009C120.829 178.709 121.107 178.544 121.479 178.544C122.194 178.544 122.515 179.073 122.515 179.866V180.96C122.515 181.81 122.108 182.367 121.257 182.367C120.407 182.367 120.007 181.81 120.007 180.96V180.588H120.586V181.002C120.586 181.503 120.793 181.81 121.236 181.81C121.679 181.81 121.886 181.51 121.886 181.002V179.916C121.886 179.416 121.679 179.109 121.236 179.109C120.893 179.109 120.664 179.302 120.607 179.709V179.838H120.028L120.178 176.736H122.379V177.294H120.736L120.65 179.009Z" fill="#263238"/>
<path d="M125.615 178.072V178.18H125.036V178.037C125.036 177.537 124.829 177.236 124.371 177.236C123.9 177.236 123.692 177.537 123.692 178.137V179.387C123.843 179.001 124.15 178.787 124.593 178.787C125.307 178.787 125.629 179.309 125.629 180.109V180.952C125.629 181.803 125.207 182.36 124.357 182.36C123.5 182.36 123.071 181.803 123.071 180.952V178.108C123.071 177.222 123.471 176.672 124.357 176.672C125.215 176.679 125.615 177.222 125.615 178.072ZM123.692 180.159V180.995C123.692 181.495 123.9 181.803 124.357 181.803C124.8 181.803 125.022 181.503 125.022 180.995V180.159C125.022 179.659 124.807 179.352 124.357 179.352C123.9 179.359 123.692 179.659 123.692 180.159Z" fill="#263238"/>
<path d="M186.513 178.314H184.941V182.252H186.513V178.314Z" fill="#263238"/>
<path d="M188.614 177.529H187.042V182.253H188.614V177.529Z" fill="#263238"/>
<path d="M190.716 176.971H189.144V182.259H190.716V176.971Z" fill="#263238"/>
<path d="M192.817 175.992H191.245V182.252H192.817V175.992Z" fill="#263238"/>
<path d="M212.311 182.145H202.857V176.371H212.311V182.145ZM203.386 181.623H211.789V176.9H203.386V181.623Z" fill="#263238"/>
<path d="M209.159 177.473H204.171V181.053H209.159V177.473Z" fill="#263238"/>
<path d="M213.168 178.58H211.982V179.938H213.168V178.58Z" fill="#263238"/>
<path d="M199.398 180.894C199.333 180.894 199.276 180.88 199.219 180.844C197.297 179.701 196.025 180.765 195.968 180.808C195.818 180.937 195.596 180.922 195.467 180.772C195.339 180.622 195.353 180.408 195.503 180.279C195.575 180.222 197.197 178.829 199.576 180.244C199.741 180.344 199.798 180.558 199.698 180.73C199.633 180.83 199.519 180.894 199.398 180.894Z" fill="#263238"/>
<path d="M200.104 179.708C200.039 179.708 199.982 179.694 199.925 179.658C197.145 178.007 195.273 179.601 195.259 179.622C195.116 179.751 194.887 179.736 194.759 179.594C194.63 179.451 194.644 179.222 194.787 179.093C194.809 179.072 197.067 177.143 200.282 179.058C200.447 179.158 200.504 179.372 200.404 179.544C200.347 179.644 200.225 179.708 200.104 179.708Z" fill="#263238"/>
<path d="M200.756 178.33C200.692 178.33 200.634 178.316 200.577 178.28C197.054 176.186 194.71 178.158 194.617 178.244C194.467 178.373 194.246 178.358 194.117 178.208C193.989 178.065 194.003 177.837 194.153 177.715C194.182 177.694 196.961 175.314 200.942 177.68C201.106 177.78 201.163 177.994 201.063 178.166C200.992 178.273 200.877 178.33 200.756 178.33Z" fill="#263238"/>
<path d="M197.446 182.366C197.936 182.366 198.332 181.969 198.332 181.48C198.332 180.99 197.936 180.594 197.446 180.594C196.957 180.594 196.56 180.99 196.56 181.48C196.56 181.969 196.957 182.366 197.446 182.366Z" fill="#263238"/>
<path d="M234.805 211.594H231.089V226.25H234.805V211.594Z" fill="#263238" stroke="#263238" stroke-miterlimit="10" stroke-linecap="round" stroke-linejoin="round"/>
<path d="M234.805 243.314H231.089V257.971H234.805V243.314Z" fill="#263238" stroke="#263238" stroke-miterlimit="10" stroke-linecap="round" stroke-linejoin="round"/>
<path d="M234.805 259.508H231.089V274.164H234.805V259.508Z" fill="#263238" stroke="#263238" stroke-miterlimit="10" stroke-linecap="round" stroke-linejoin="round"/>
<path d="M131.994 269.512V269.769H131V269.462C131 268.619 130.679 268.126 129.928 268.126C129.178 268.126 128.857 268.619 128.857 269.448C128.857 271.548 132.001 271.749 132.001 274.385C132.001 275.8 131.322 276.729 129.886 276.729C128.449 276.729 127.785 275.807 127.785 274.385V273.849H128.764V274.435C128.764 275.279 129.114 275.772 129.864 275.772C130.614 275.772 130.965 275.279 130.965 274.435C130.965 272.349 127.835 272.149 127.835 269.512C127.835 268.068 128.506 267.168 129.907 267.168C131.329 267.168 131.994 268.09 131.994 269.512Z" fill="#263238"/>
<path d="M136.251 271.414V272.35H133.965V275.68H136.773V276.63H132.921V267.262H136.773V268.212H133.965V271.406H136.251V271.414Z" fill="#263238"/>
<path d="M141.876 269.526V270.369H140.883V269.476C140.883 268.632 140.547 268.125 139.783 268.125C139.032 268.125 138.682 268.632 138.682 269.476V274.428C138.682 275.271 139.032 275.778 139.783 275.778C140.547 275.778 140.883 275.271 140.883 274.428V273.213H141.876V274.378C141.876 275.793 141.205 276.729 139.761 276.729C138.332 276.729 137.66 275.793 137.66 274.378V269.533C137.66 268.118 138.332 267.182 139.761 267.182C141.205 267.168 141.876 268.104 141.876 269.526Z" fill="#263238"/>
<path d="M143.812 274.422C143.812 275.265 144.148 275.773 144.912 275.773C145.663 275.773 145.999 275.265 145.999 274.422V267.262H146.978V274.365C146.978 275.78 146.32 276.73 144.877 276.73C143.447 276.73 142.79 275.78 142.79 274.365V267.262H143.819V274.422H143.812Z" fill="#263238"/>
<path d="M150.094 267.262C151.566 267.262 152.181 268.012 152.181 269.406V270.17C152.181 271.199 151.816 271.842 151.016 272.1C151.873 272.357 152.195 273.05 152.195 274.05V275.508C152.195 275.923 152.209 276.308 152.381 276.63H151.323C151.202 276.366 151.152 276.123 151.152 275.494V274.022C151.152 272.964 150.658 272.628 149.787 272.628H149.051V276.63H148.007V267.262H150.094ZM149.822 271.678C150.651 271.678 151.144 271.414 151.144 270.392V269.498C151.144 268.655 150.837 268.212 150.058 268.212H149.043V271.678H149.822Z" fill="#263238"/>
<path d="M156.611 271.414V272.35H154.325V275.68H157.133V276.63H153.281V267.262H157.133V268.212H154.325V271.406H156.611V271.414Z" fill="#263238"/>
<path d="M162.215 267.261C163.687 267.261 164.316 268.133 164.316 269.548V270.67C164.316 272.156 163.622 272.928 162.136 272.928H161.214V276.622H160.171V267.254H162.215V267.261ZM162.136 271.999C162.915 271.999 163.287 271.634 163.287 270.741V269.498C163.287 268.64 162.979 268.211 162.215 268.211H161.214V271.999H162.136Z" fill="#263238"/>
<path d="M166.017 274.744L165.652 276.63H164.688L166.481 267.262H167.996L169.79 276.63H168.746L168.382 274.744H166.017ZM166.152 273.85H168.239L167.181 268.448L166.152 273.85Z" fill="#263238"/>
<path d="M171.612 273.271L169.632 267.262H170.719L172.176 271.864L173.648 267.262H174.642L172.648 273.271V276.63H171.619V273.271H171.612Z" fill="#263238"/>
<path d="M178.841 276.616H177.841L176.29 269.163V276.63H175.382V267.262H176.84L178.376 274.744L179.863 267.262H181.321V276.63H180.327V269.098L178.841 276.616Z" fill="#263238"/>
<path d="M185.716 271.414V272.35H183.43V275.68H186.238V276.63H182.386V267.262H186.238V268.212H183.43V271.406H185.716V271.414Z" fill="#263238"/>
<path d="M188.125 276.63H187.189V267.262H188.511L190.676 274.029V267.262H191.598V276.63H190.512L188.118 269.055V276.63H188.125Z" fill="#263238"/>
<path d="M194.028 276.63V268.212H192.299sV267.262H196.779V268.212H195.05V276.63H194.028Z" fill="#263238"/>
<path d="M170.79 236.391V233.282C170.79 227.151 166.71 224.979 162.544 224.979C158.292 224.979 154.39 228.101 154.39 233.282V236.391H153.232V253.591H171.862V236.391H170.79ZM163.094 245.845V248.96H161.329V245.845C160.464 245.495 159.857 244.651 159.857 243.665C159.857 242.365 160.907 241.314 162.208 241.314C163.508 241.314 164.559 242.365 164.559 243.665C164.566 244.651 163.959 245.495 163.094 245.845ZM168.21 236.391H156.884V233.282C156.884 230.159 159.428 227.615 162.551 227.615C165.674 227.615 168.217 229.752 168.217 233.282V236.391H168.21Z" fill="#263238" stroke="#263238" stroke-miterlimit="10"/>
<path d="M214.53 346.616L214.493 287.219L111.856 287.283L111.893 346.68L214.53 346.616Z" fill="#92E3A9" stroke="#263238" stroke-miterlimit="10" stroke-linecap="round" stroke-linejoin="round"/>
<path d="M205.947 291.504L122.318 291.554C122.318 293.39 120.832 294.884 118.995 294.884C118.288 294.884 117.63 294.662 117.094 294.284L117.123 339.682C117.659 339.303 118.316 339.082 119.024 339.082C120.86 339.082 122.354 340.568 122.354 342.405L205.983 342.355C205.983 340.518 207.469 339.025 209.306 339.025L209.277 294.834C207.441 294.827 205.947 293.34 205.947 291.504Z" fill="white" stroke="#263238" stroke-miterlimit="10"/>
<path d="M163.193 332.393C171.721 332.393 178.635 325.479 178.635 316.95C178.635 308.422 171.721 301.508 163.193 301.508C154.664 301.508 147.75 308.422 147.75 316.95C147.75 325.479 154.664 332.393 163.193 332.393Z" fill="#263238"/>
<path d="M164.831 326.74V328.234H162.245V326.74C160.001 326.283 158.85 324.554 158.843 321.824V321.188H161.837V322.024C161.837 323.46 162.416 324.011 163.424 324.011C164.431 324.011 165.003 323.46 165.003 322.024C165.003 317.879 158.814 317.686 158.814 311.927C158.814 309.197 159.994 307.439 162.237 306.975V305.51H164.824V306.975C167.097 307.432 168.247 309.19 168.254 311.92V313.299H165.26V311.72C165.26 310.283 164.624 309.762 163.617 309.762C162.609 309.762 161.98 310.283 161.98 311.72C161.98 315.864 168.168 316.057 168.168 321.817C168.168 324.518 167.047 326.247 164.831 326.74Z" fill="white"/>
</svg>
