<svg width="583" height="429" viewBox="0 0 583 429" fill="none" xmlns="http://www.w3.org/2000/svg">
<path opacity="0.3" d="M497.055 141.973C610.591 207.527 610.591 313.791 497.055 379.344C383.52 444.897 199.458 444.897 85.9446 379.344C-27.5909 313.791 -27.5909 207.527 85.9446 141.973C199.458 76.4203 383.52 76.4203 497.055 141.973Z" fill="#B2B2B2"/>
<path d="M299.139 75.4919L289.039 47.6439C287.403 36.6594 281.657 31.6645 276.22 29.8301L271.689 52.0863L275.402 59.6671L286.762 82.8516C288.354 86.3879 287.668 88.5538 288.729 92.4658L301.371 86.0343C300.885 82.8737 300.465 78.4756 299.139 75.4919Z" fill="#EDEDED"/>
<path opacity="0.3" d="M287.645 74.4752L283.38 47.666L275.401 59.6671L286.761 82.8516C288.352 86.3879 287.667 88.5538 288.728 92.4658L291.491 91.0513C290.01 84.5093 289.236 79.7575 287.645 74.4752Z" fill="#3C3C3B"/>
<path d="M248.728 181.779L248.109 191.128C250.761 193.383 253.347 195.283 255.292 195.173C259.314 202.511 265.967 207.461 271.956 208.544C278.322 208.721 280.642 206.224 280.333 202.599C278.852 193.825 267.293 189.979 265.304 183.901L248.728 181.779Z" fill="#1D1D1B"/>
<path d="M266.716 183.766C263.246 185.49 258.936 187.081 255.112 186.883C252.416 186.75 249.985 185.733 248.194 183.28C248.194 183.28 247.841 170.395 246.758 166.328C243.487 154.106 243.686 143.696 244.504 132.645L235.11 100.841L236.215 96.7084L243.398 69.9434L259.312 72.8608C264.307 91.2051 267.799 109.24 263.422 127.606L262.958 138.657C263.467 155.963 264.24 176.23 266.716 183.766Z" fill="#3C3C3B"/>
<path opacity="0.3" d="M255.112 186.862C252.416 186.729 249.985 185.713 248.194 183.259C248.194 183.259 247.841 170.374 246.758 166.308C243.487 154.085 243.686 143.676 244.504 132.625L235.11 100.821L236.215 96.6877L248.128 90.4551C245.587 103.539 245.785 116.292 250.913 128.403C247.377 146.328 249.918 166.197 255.112 186.862Z" fill="#3F668A"/>
<path d="M205.429 205.229L204.457 216.766C205.473 218.843 207.926 221.451 209.982 222.357C213.761 229.695 218.999 233.452 225.519 234.115C231.31 234.624 234.89 232.656 235.31 229.076C234.758 221.164 222.447 216.412 221.187 209.958L205.429 205.229Z" fill="#1D1D1B"/>
<path d="M257.986 74.8733L255.732 80.4871L254.074 84.5758C251.533 91.7588 247.002 95.6708 240.703 96.6875C239.134 114.634 237.454 132.381 231.111 144.029C230.448 150.173 227.309 153.908 225.696 159.787C222.823 176.474 220.657 193.912 221.165 209.958C217.762 212.61 212.236 212.986 208.501 211.35L207.551 210.886C205.893 209.936 204.744 208.543 204.545 206.709C205.097 179.966 198.953 165.711 211.242 142.393C210.159 121.795 211.595 113.883 213.827 94.1679C211.242 82.3436 213.098 74.0334 218.226 68.2428C218.756 67.6461 219.331 67.0715 219.927 66.541L226.249 67.9334L257.986 74.8733Z" fill="#3C3C3B"/>
<path d="M276.288 62.2751C272.199 68.5078 266.254 73.5691 258.938 77.7242C257.899 78.7629 256.816 79.6691 255.711 80.4868C243.931 89.3717 229.388 87.1615 222.205 79.9122C219.42 77.1053 217.741 73.569 217.741 69.5907C217.895 69.1266 218.072 68.6846 218.227 68.2426C219.531 64.64 220.68 61.148 221.807 57.8106C225.675 46.34 228.924 36.8142 234.361 31.112C239.422 27.3105 250.009 24.8573 255.689 27.3105C265.591 21.7409 275.691 27.0453 283.67 32.6812C288.09 48.0418 280.575 52.3073 276.288 62.2751Z" fill="#EDEDED"/>
<path opacity="0.3" d="M238.537 52.4395C233.829 57.4565 229.343 62.5178 226.249 67.9105C224.06 71.712 222.602 75.6682 222.226 79.9116C217.828 83.7794 216.966 88.7964 219.883 95.0733C217.32 114.478 213.098 136.934 218.955 143.586C205.827 152.869 208.81 182.949 208.501 211.372L207.551 210.907C205.893 209.957 204.744 208.565 204.545 206.73C205.097 179.987 198.953 165.732 211.242 142.415C210.159 121.816 211.595 113.904 213.827 94.1892C211.242 82.3649 213.098 74.0548 218.226 68.2642C219.53 64.6616 220.679 61.1696 221.806 57.8322L238.537 52.4395Z" fill="#3C3C3B"/>
<path d="M183.548 98.9198L179.879 105.55L177.316 111.783L176.984 117.131C176.807 118.347 177.868 119.209 178.067 117.75L177.338 123.43C176.984 125.044 178.487 125.773 179.017 124.337L180.918 117.286L180.852 128.116C180.874 129.751 182.465 130.635 182.907 128.668L184.587 117.618L185.14 124.314L186.422 129.265C187.085 131.055 188.963 131.144 188.919 129.265L188.101 122.834C188.101 122.834 188.543 118.325 188.919 116.269C188.985 115.938 191.416 112.822 191.416 112.822L196.765 119.806C198.401 121.309 199.926 120.005 198.798 117.971L194.599 108.357C194.599 108.357 191.615 103.893 191.35 103.473C191.085 103.053 191.085 103.075 191.085 103.075L191.549 99.3397L184.565 96.6875L183.548 98.9198Z" fill="#FCAF75"/>
<path d="M234.381 31.1113C222.888 35.7748 210.975 44.7701 198.797 56.2187C191.99 67.1147 187.437 82.7847 183.193 99.5597C184.851 101.681 187.569 101.947 191.194 101.925C196.255 90.3655 204.499 80.0442 208.632 68.1314C216.434 67.159 227.595 58.9372 238.536 52.4172C246.625 39.9519 247.619 33.0121 234.381 31.1113Z" fill="#EDEDED"/>
<path d="M364.556 214.486C366.094 214.486 367.341 213.239 367.341 211.701C367.341 210.163 366.094 208.916 364.556 208.916C363.018 208.916 361.771 210.163 361.771 211.701C361.771 213.239 363.018 214.486 364.556 214.486Z" fill="#030403"/>
<path d="M358.015 242.599C359.553 242.599 360.8 241.352 360.8 239.814C360.8 238.276 359.553 237.029 358.015 237.029C356.477 237.029 355.23 238.276 355.23 239.814C355.23 241.352 356.477 242.599 358.015 242.599Z" fill="#030403"/>
<path d="M402.751 255.507C404.289 255.507 405.536 254.26 405.536 252.722C405.536 251.184 404.289 249.938 402.751 249.938C401.213 249.938 399.966 251.184 399.966 252.722C399.966 254.26 401.213 255.507 402.751 255.507Z" fill="#030403"/>
<path d="M436.279 235.572C437.817 235.572 439.064 234.325 439.064 232.787C439.064 231.249 437.817 230.002 436.279 230.002C434.741 230.002 433.494 231.249 433.494 232.787C433.494 234.325 434.741 235.572 436.279 235.572Z" fill="#030403"/>
<path d="M415.699 208.542C417.237 208.542 418.484 207.295 418.484 205.757C418.484 204.219 417.237 202.973 415.699 202.973C414.161 202.973 412.915 204.219 412.915 205.757C412.915 207.295 414.161 208.542 415.699 208.542Z" fill="#030403"/>
<path d="M418.661 203.589V199.766L413.511 202.086L394.172 220.099L366.125 206.418L362.036 204.959V208.783L385.751 224.961L354.544 232.321V236.145L357.152 239.106L391.144 231.106L399.918 251.682L405.621 251.174V247.35L402.924 230.023L439.546 231.57L440.453 228.277V224.453L404.781 223.215L418.661 203.589Z" fill="#030403"/>
<path d="M418.661 199.767L413.511 198.264L394.172 216.276L366.125 202.596L362.036 204.96L385.751 221.139L354.544 232.322L357.152 235.284L391.144 227.283L399.918 247.86L405.621 247.351L402.924 226.2L439.546 227.747L440.453 224.454L404.781 219.415L418.661 199.767Z" fill="#878787"/>
<path d="M399.5 219.814C401.599 221.03 401.599 222.975 399.5 224.19C397.4 225.406 394.019 225.406 391.919 224.19C389.819 222.975 389.819 221.03 391.919 219.814C394.019 218.598 397.4 218.598 399.5 219.814Z" fill="#030403"/>
<path d="M401.066 187.479H390.347V222.001H401.066V187.479Z" fill="#030403"/>
<path d="M395.301 155.034L352.888 179.522C350.921 180.65 349.352 179.743 349.352 177.467C349.352 172.118 353.02 165.775 357.529 163.167L395.301 141.353C397.268 140.226 398.837 141.132 398.837 143.408V148.89C398.837 151.166 397.268 153.907 395.301 155.034Z" fill="#4A4A49"/>
<path d="M410.107 64.484L407.941 78.9163L399.299 136.314C399.211 136.889 399.012 137.463 398.769 138.016C398.239 139.143 397.377 140.16 396.426 140.712L390.547 144.094C389.774 144.536 389.089 144.602 388.58 144.359C387.829 143.917 387.497 143.011 387.674 141.751L388.669 135.319L398.194 73.5015L398.924 68.7054C399.233 66.7605 400.692 64.7272 402.239 64.1084L407.676 61.9203C408.361 61.655 408.936 61.6992 409.378 61.9866C409.997 62.3844 410.284 63.2685 410.107 64.484Z" fill="#4A4A49"/>
<path d="M388.936 202.021L350.059 179.5L397.666 141.043L436.697 163.609L388.936 202.021Z" fill="#4A4A49"/>
<path d="M447.678 84.1548L409.376 61.9648L388.468 144.293L426.969 166.527L447.678 84.1548Z" fill="#4A4A49"/>
<path d="M433.979 177.38L391.567 201.868C389.599 202.995 388.03 202.089 388.03 199.813C388.03 194.464 391.699 188.121 396.208 185.513L433.979 163.699C435.946 162.571 437.516 163.478 437.516 165.754V171.235C437.516 173.512 435.946 176.252 433.979 177.38Z" fill="#1D1D1B"/>
<path d="M426.374 164.096L437.624 91.0504C437.933 89.1055 439.392 87.0721 440.939 86.4533L446.376 84.2874C448.012 83.6243 449.117 84.7956 448.807 86.8511L437.978 158.681C437.712 160.427 436.519 162.262 435.104 163.079L429.225 166.483C427.391 167.522 426.021 166.372 426.374 164.096Z" fill="#1D1D1B"/>
<path d="M345.113 232.943C347.434 235.264 347.765 239.795 346.992 244.237C345.268 246.823 344.295 248.061 341.356 248.945C341.356 248.945 337.687 250.227 334.349 252.194C327.586 259.2 321.354 260.062 319.055 259.2C311.275 256.304 319.608 249.652 321.884 248.016C322.547 247.53 331.211 239.286 331.211 239.286L333.266 236.037L333.023 228.943L344.295 225.605L345.113 232.943Z" fill="black"/>
<path d="M321.862 181.467C323.343 199.082 328.868 212.365 333.222 236.036C335.278 237.671 339.521 239.174 342.704 238.113C344.406 237.561 345.798 236.257 346.395 233.87C347.08 213.669 346.903 198.043 341.334 185.003C358.285 177.555 380.696 175.19 394.532 163.609C399.903 158.968 403.969 154.702 405.229 150.481C405.87 148.381 405.826 146.304 404.898 144.204C404.433 143.099 403.704 142.016 402.754 140.889L398.333 137.728L379.304 135.01C376.873 136.292 374.176 137.773 371.325 139.408C350.771 151.122 321.752 170.593 321.862 181.467Z" fill="#4A4A49"/>
<path opacity="0.5" d="M341.358 237.65C341.358 237.65 341.888 237.827 342.706 238.092C344.408 237.539 345.8 236.235 346.397 233.848C347.082 213.648 346.905 198.022 341.336 184.982C358.288 177.534 380.699 175.169 394.534 163.588C399.905 158.946 403.972 154.681 405.231 150.459L404.9 144.182C404.436 143.077 403.706 141.994 402.756 140.867L398.336 137.707L379.306 134.988C376.875 136.27 374.179 137.751 371.328 139.386C369.891 157.289 352.453 169.909 333.136 181.91C340.408 198.619 342.485 217.471 341.358 237.65Z" fill="#3C3C3B"/>
<path d="M375.88 250.314C378.201 252.635 378.267 256.901 377.759 261.608C376.035 264.194 373.537 265.697 370.576 266.559C370.576 266.559 359.812 276.814 349.535 275.289C339.28 273.742 349.535 266.404 349.535 266.404L361.359 256.149L363.636 252.989L363.724 246.314L374.996 242.977L375.88 250.314Z" fill="black"/>
<path d="M347.766 194.487C349.246 212.124 359.303 229.296 363.679 252.967C367.657 255.995 371.149 256.526 373.956 253.343C374.73 252.481 375.437 251.332 376.1 249.895C376.807 229.716 375.415 211.903 369.845 198.863C386.797 191.414 400.19 184.01 414.026 172.451C423.463 164.296 422.867 150.372 416.28 142.769L414.402 142.482L414.048 142.438L382.951 148.891C381.249 150.814 379.526 152.759 377.802 154.726C375.503 157.312 373.182 159.942 370.906 162.506C359.479 175.391 349.269 187.591 347.766 194.487Z" fill="#4A4A49"/>
<path opacity="0.5" d="M371.966 254.071L373.956 253.342C374.729 252.48 375.436 251.331 376.099 249.894C376.807 229.715 375.414 211.901 369.845 198.862C386.797 191.413 400.19 184.009 414.026 172.45C423.463 164.295 422.866 150.371 416.28 142.768L414.401 142.48L377.801 154.703C375.503 157.288 373.182 159.919 370.906 162.482C374.884 163.101 383.636 163.3 401.826 163.079C395.35 176.76 380.144 188.407 361.557 196.43C370.088 211.084 372.187 231.505 371.966 254.071Z" fill="#3C3C3B"/>
<path d="M364.562 320.972C361.268 320.972 359.036 318.298 359.036 314.32V239.859C359.036 234.776 362.484 228.787 366.904 226.245L419.197 196.054C420.545 195.281 421.893 194.883 423.153 194.883C426.446 194.883 428.678 197.557 428.678 201.535V275.995C428.678 281.079 425.23 287.068 420.81 289.61L368.518 319.801C367.17 320.574 365.821 320.972 364.562 320.972ZM423.153 198.11C422.468 198.11 421.65 198.375 420.81 198.861L368.518 229.052C365.136 230.997 362.285 235.947 362.285 239.859V314.32C362.285 315.336 362.506 317.745 364.562 317.745C365.247 317.745 366.064 317.48 366.904 316.994L419.197 286.803C422.578 284.858 425.429 279.907 425.429 275.995V201.535C425.451 200.519 425.208 198.11 423.153 198.11Z" fill="#575756"/>
<path d="M244.727 251.64C241.433 251.64 239.201 248.966 239.201 244.987V170.527C239.201 165.444 242.649 159.455 247.069 156.913L299.362 126.722C300.71 125.949 302.058 125.551 303.318 125.551C306.611 125.551 308.843 128.225 308.843 132.203V206.663C308.843 211.747 305.395 217.736 300.975 220.278L248.683 250.469C247.335 251.242 246.008 251.64 244.727 251.64ZM303.34 128.778C302.655 128.778 301.837 129.043 300.997 129.529L248.705 159.72C245.323 161.665 242.472 166.615 242.472 170.527V244.987C242.472 246.004 242.693 248.413 244.749 248.413C245.434 248.413 246.252 248.148 247.091 247.662L299.384 217.471C302.765 215.526 305.616 210.575 305.616 206.663V132.203C305.616 131.165 305.395 128.778 303.34 128.778Z" fill="#575756"/>
<path d="M433.117 198.111L363.232 238.446L237.607 165.842V162.284L307.492 125.463L433.117 194.53V198.111Z" fill="#575756"/>
<path d="M433.117 194.53L363.232 234.887L237.607 162.284L307.492 121.904L433.117 194.53Z" fill="#B2B2B2"/>
<path opacity="0.5" d="M348.888 174.108L362.68 166.041L378.372 162.969L369.177 156.096L357.574 160.45L348.888 174.108Z" fill="#B2B2B2"/>
<path opacity="0.5" d="M325.727 158.373L328.357 155.743L327.363 154.041L333.794 149.842L335.364 146.814L345.309 143.764L335.364 138.018L327.075 143.189L322.257 147.322L321.859 152.936L321.417 155.699L325.727 158.373Z" fill="#B2B2B2"/>
<path d="M394.021 196.608L402.862 201.713C403.083 201.846 403.436 201.846 403.657 201.713L420.609 191.922C420.72 191.856 420.764 191.768 420.764 191.701C420.764 191.613 420.72 191.547 420.609 191.48L411.769 186.375C411.548 186.242 411.194 186.242 410.995 186.375L394.043 196.166C393.8 196.276 393.8 196.475 394.021 196.608Z" fill="#4A4A49"/>
<path d="M420.765 190.816V191.7L393.868 196.386V195.524L420.765 190.816Z" fill="#4A4A49"/>
<path d="M394.021 195.723L402.862 200.829C403.083 200.961 403.436 200.961 403.657 200.829L420.609 191.038C420.72 190.971 420.764 190.883 420.764 190.817C420.764 190.728 420.72 190.662 420.609 190.596L411.769 185.49C411.548 185.357 411.194 185.357 410.995 185.49L394.043 195.281C393.8 195.392 393.8 195.613 394.021 195.723Z" fill="#878787"/>
<path d="M403.813 200.188L419.063 191.392L415.129 189.116L413.825 188.364L411.814 187.193L411.084 186.773C410.996 186.729 410.377 186.375 410.377 186.375L395.127 195.171L403.813 200.188Z" fill="#3F76AB"/>
<path d="M413.91 188.098L416.098 189.358C416.186 189.402 416.341 189.402 416.43 189.358L417.004 189.026C417.093 188.982 417.093 188.894 417.004 188.85L414.816 187.59C414.728 187.546 414.573 187.546 414.485 187.59L413.91 187.921C413.822 187.943 413.822 188.032 413.91 188.098Z" fill="white"/>
<path d="M416.187 189.314C416.231 189.336 416.297 189.336 416.341 189.314L416.916 188.982C416.916 188.894 414.728 187.634 414.728 187.634C414.684 187.612 414.617 187.612 414.573 187.634L413.999 187.965C413.999 188.032 416.187 189.314 416.187 189.314Z" fill="#4A4A49"/>
<path d="M399.256 198.376C399.3 198.486 399.344 198.486 399.388 198.464L399.919 198.155C399.875 198.066 399.83 198.066 399.786 198.066L399.256 198.376Z" fill="#273340"/>
<path d="M398.972 198.222C399.016 198.31 399.061 198.31 399.105 198.31L399.635 198.001C399.591 197.912 399.547 197.912 399.503 197.912L398.972 198.222Z" fill="#273340"/>
<path d="M398.703 198.067C398.747 198.178 398.792 198.178 398.836 198.155L399.366 197.846C399.322 197.736 399.278 197.736 399.234 197.758L398.703 198.067Z" fill="#273340"/>
<path d="M398.417 197.89C398.462 197.978 398.506 197.978 398.55 197.978L399.08 197.669C399.036 197.58 398.992 197.58 398.948 197.58L398.417 197.89Z" fill="#273340"/>
<path d="M398.129 197.735C398.174 197.823 398.218 197.823 398.262 197.823L398.792 197.514C398.748 197.403 398.704 197.404 398.66 197.426L398.129 197.735Z" fill="#273340"/>
<path opacity="0.5" d="M399.256 198.376C399.3 198.486 399.344 198.486 399.388 198.464L399.919 198.155C399.875 198.066 399.83 198.066 399.786 198.066L399.256 198.376Z" fill="black"/>
<path opacity="0.5" d="M398.972 198.222C399.016 198.31 399.061 198.31 399.105 198.31L399.635 198.001C399.591 197.912 399.547 197.912 399.503 197.912L398.972 198.222Z" fill="black"/>
<path opacity="0.5" d="M398.703 198.067C398.747 198.178 398.792 198.178 398.836 198.155L399.366 197.846C399.322 197.736 399.278 197.736 399.234 197.758L398.703 198.067Z" fill="black"/>
<path opacity="0.5" d="M398.417 197.89C398.462 197.978 398.506 197.978 398.55 197.978L399.08 197.669C399.036 197.58 398.992 197.58 398.948 197.58L398.417 197.89Z" fill="black"/>
<path opacity="0.5" d="M398.129 197.735C398.174 197.823 398.218 197.823 398.262 197.823L398.792 197.514C398.748 197.403 398.704 197.404 398.66 197.426L398.129 197.735Z" fill="black"/>
<path opacity="0.5" d="M402.064 199.702C401.976 199.768 401.976 199.857 402.064 199.901C402.153 199.967 402.307 199.967 402.418 199.901C402.506 199.835 402.506 199.746 402.418 199.702C402.307 199.636 402.153 199.636 402.064 199.702Z" fill="white"/>
<path opacity="0.5" d="M400.783 198.951C400.695 199.017 400.695 199.106 400.783 199.15C400.872 199.216 401.026 199.216 401.137 199.15C401.225 199.084 401.225 198.995 401.137 198.951C401.026 198.907 400.872 198.907 400.783 198.951Z" fill="black"/>
<path d="M369.732 74.8938C360.847 73.5677 357.974 77.7007 355.962 87.3591L347.829 116.445C344.801 119.008 342.945 122.744 339.983 126.412L349.089 133.905C353.266 130.612 357.377 127.009 361.51 123.097L366.306 106.477L372.295 85.7456L375.699 79.4467L369.732 74.8938Z" fill="#55B2E6"/>
<path opacity="0.5" d="M366.33 106.479L359.191 92.4883C357.445 104.114 352.605 112.291 352.163 122.745L345.333 130.901L349.113 133.884C353.29 130.591 357.401 126.989 361.534 123.077L366.33 106.479Z" fill="#3F76AB"/>
<path d="M389.665 62.0312C407.302 67.7555 403.545 84.4201 398.793 97.46L386.35 85.7462L389.665 62.0312Z" fill="#1D1D1B"/>
<path d="M355.984 117.506C355.984 117.617 355.984 117.727 356.007 117.815C356.426 127.96 370.262 127.01 370.262 127.01L375.854 139.143C377.268 156.758 407.702 161.201 416.255 142.724C410.089 133.994 410.089 133.994 409.581 128.004C410.067 126.413 410.487 124.844 410.84 123.341C413.603 111.516 412.299 102.565 407.194 92.4429C402.199 85.9671 390.993 79.4913 383.921 76.8612L363.256 76.375L359.145 91.382C360.228 110.235 355.852 109.594 355.984 117.506Z" fill="#55B2E6"/>
<path d="M387.324 73.3926C388.451 77.2382 391.457 83.2057 392.186 86.8745C393.026 91.4053 384.672 98.4558 379.08 98.0358C375.124 97.2623 374.107 92.1789 373.533 87.4934L387.324 73.3926Z" fill="#FCAF75"/>
<path opacity="0.3" d="M384.45 76.332C384.45 76.332 387.743 103.429 374.725 101.196C366.238 99.7376 368.006 85.7252 368.006 85.7252L384.45 76.332Z" fill="#FCAF75"/>
<path d="M376.252 51.5104C363.19 53.3228 359.168 60.9699 360.472 71.3576C360.626 80.0656 367.876 91.6026 372.937 91.3816C380.164 91.7794 383.701 83.3588 389.867 74.3414C394.619 59.5554 388.386 49.8307 376.252 51.5104Z" fill="#FCAF75"/>
<path d="M360.647 71.6676C363.365 74.5629 367.719 76.2205 373.134 77.4582C377.709 79.3368 382.152 79.16 383.92 81.7238L389.224 79.5357C394.551 73.4136 395.081 55.865 385.953 52.1741C371.256 46.2066 353.817 60.9483 360.647 71.6676Z" fill="#1D1D1B"/>
<path d="M384.096 79.0269C384.892 75.8222 387.124 73.7446 389.025 75.5791C389.909 76.441 389.843 78.0102 389.025 80.0214C388.384 81.5906 387.39 82.2979 386.174 82.4969C384.384 82.7621 383.478 81.5023 384.096 79.0269Z" fill="#FCAF75"/>
<path opacity="0.5" d="M356.008 117.838C356.428 127.983 370.263 127.032 370.263 127.032L375.855 139.166C377.27 156.781 407.703 161.223 416.257 142.746C410.09 134.016 410.09 134.016 409.582 128.027C410.068 126.435 410.488 124.866 410.842 123.363L398.553 110.213L391.459 126.148C385.712 138.547 372.208 133.243 371.103 123.253C369.136 126.435 358.837 125.706 356.008 117.838Z" fill="#3F76AB"/>
<path opacity="0.5" d="M342.547 172.914L340.867 173.644C339.431 174.042 338.768 173.357 339.74 171.92C339.674 173.268 340.779 173.379 342.547 172.914Z" fill="#FCAF75"/>
<path d="M267.886 40.815L269.367 45.5227L272.063 44.5281V39.2237L269.367 37.3672L267.886 40.815Z" fill="black"/>
<path d="M269.367 45.5219C270.119 55.4455 270.141 74.1434 269.389 84.6196L273.81 88.8188L276.86 81.9232C276.263 71.6902 274.296 54.1636 272.108 44.5273L269.367 45.5219Z" fill="black"/>
<path d="M261.833 18.0273C261.523 18.0273 256.329 24.4589 256.329 24.4589C249.389 28.393 258.296 43.0463 267.778 41.5213L275.624 36.0622L261.833 18.0273Z" fill="#FCAF75"/>
<path d="M257.919 22.5137C256.637 23.4198 254.382 24.9448 252.438 26.7793C252.438 26.7793 256.239 44.5268 267.886 45.5214C268.704 42.4493 269.986 39.996 269.986 39.996C262.759 38.8909 257.919 27.9506 257.919 22.5137Z" fill="#DADADA"/>
<path d="M269.989 39.9973L274.254 44.086C274.254 44.086 278.343 27.3773 274.763 23.841C271.16 20.3048 269.989 39.9973 269.989 39.9973Z" fill="#DADADA"/>
<path d="M273.412 0.412109C264.903 0.500516 260.062 4.50088 259.731 13.3857C259.974 22.7125 260.438 28.3485 264.947 34.7137C267.754 38.2278 271.555 40.7695 275.909 40.5485C281.081 40.2833 288.728 27.8843 289.458 18.9111C290.717 9.84945 282.982 2.88748 273.412 0.412109Z" fill="#FCAF75"/>
<path d="M288.396 25.4537C286.474 29.9845 275.202 29.1667 270.251 23.5971L269.699 26.9345L265.146 23.1551L261.189 28.3048L259.753 26.2714C256.15 19.0221 256.327 7.10941 266.604 1.11989C280.329 -4.40549 297.37 11.596 288.396 25.4537Z" fill="black"/>
<path d="M263.863 27.0453C263.311 26.117 262.847 25.1225 262.736 24.0837C262.626 23.0228 262.935 21.8957 263.731 21.2105C264.526 20.5033 265.852 20.3706 266.692 21.0558C267.267 21.5199 267.532 22.2935 267.532 23.0228C267.532 23.7522 267.333 24.4594 267.134 25.1667C266.957 25.8076 266.759 26.4265 266.582 27.0674C266.449 27.5094 266.294 27.9957 265.874 28.1946C265.499 28.3935 265.013 28.283 264.659 28.0178C264.305 27.7968 264.062 27.421 263.863 27.0453Z" fill="#FCAF75"/>
<path d="M304.778 126.016L327.498 139.144L295.119 157.842L272.399 144.714L304.778 126.016Z" fill="white"/>
<path d="M279.074 144.625L295.518 154.107L294.523 154.659L278.102 145.178L279.074 144.625Z" fill="#1D1D1B"/>
<path d="M281.772 143.057L298.194 152.538L297.597 152.892L281.176 143.41L281.772 143.057Z" fill="#1D1D1B"/>
<path d="M283.404 142.127L299.825 151.609L299.207 151.962L282.785 142.481L283.404 142.127Z" fill="#1D1D1B"/>
<path d="M285.018 141.199L301.439 150.681L300.842 151.012L284.421 141.531L285.018 141.199Z" fill="#1D1D1B"/>
<path d="M288.268 139.32L304.69 148.802L304.093 149.155L287.671 139.652L288.268 139.32Z" fill="#1D1D1B"/>
<path d="M289.882 138.371L306.326 147.853L305.707 148.206L289.286 138.725L289.882 138.371Z" fill="#1D1D1B"/>
<path d="M301.665 143.299L307.942 146.924L307.345 147.277L301.046 143.63L301.665 143.299Z" fill="#1D1D1B"/>
<path d="M293.127 136.492L309.571 145.974L308.952 146.327L292.531 136.846L293.127 136.492Z" fill="#1D1D1B"/>
<path d="M294.766 135.564L311.187 145.046L310.59 145.4L294.169 135.918L294.766 135.564Z" fill="#1D1D1B"/>
<path d="M300.226 136.846L312.824 144.117L312.205 144.449L299.629 137.199L300.226 136.846Z" fill="#1D1D1B"/>
<path d="M310.37 137.066L317.685 141.288L317.089 141.641L309.751 137.42L310.37 137.066Z" fill="#1D1D1B"/>
<path d="M311.983 136.139L319.299 140.36L318.702 140.714L311.387 136.47L311.983 136.139Z" fill="#1D1D1B"/>
<path d="M313.152 129.795C313.616 131.21 311.936 132.337 311.14 131.165L310.742 130.834C310.986 131.828 309.328 133.066 308.51 131.873L307.538 130.458C307.14 131.674 306.565 132.204 305.527 131.099L302.941 125.905L299.427 121.772L298.874 124.203L299.67 126.878C300.067 128.602 298.41 129.574 297.725 127.961L296.929 126.038L296.465 124.933L296.2 121.971C296.664 120.402 297.371 118.015 298.653 116.026L297.437 114.457L302.388 112.445L304.289 114.191C306.565 114.943 310.698 119.474 311.118 120.8L313.351 126.59C314.102 128.226 313.859 129.574 312.754 128.845L313.152 129.795Z" fill="#FCAF75"/>
<path d="M288.728 92.4661C291.004 100.887 293.944 109.44 297.591 117.817L299.403 116.424C301.105 114.965 302.829 114.148 304.553 114.369C304.774 106.103 302.961 96.1349 301.37 86.0566L288.728 92.4661Z" fill="#EDEDED"/>
<path opacity="0.3" d="M288.728 92.4647C291.004 100.885 293.944 109.439 297.591 117.815L299.403 116.423C295.889 107.516 293.281 98.9846 291.491 91.0723L288.728 92.4647Z" fill="#3C3C3B"/>
<path d="M320.31 153.688L343.053 166.794L310.652 185.492L287.932 172.363L320.31 153.688Z" fill="white"/>
<path d="M294.629 172.275L311.05 181.757L310.056 182.332L293.634 172.85L294.629 172.275Z" fill="#1D1D1B"/>
<path d="M297.305 170.729L313.727 180.21L313.13 180.564L296.708 171.082L297.305 170.729Z" fill="#1D1D1B"/>
<path d="M298.937 169.777L315.358 179.259L314.739 179.612L298.318 170.131L298.937 169.777Z" fill="#1D1D1B"/>
<path d="M300.55 168.85L316.972 178.331L316.375 178.685L299.954 169.203L300.55 168.85Z" fill="#1D1D1B"/>
<path d="M303.801 166.971L320.222 176.452L319.626 176.806L303.204 167.324L303.801 166.971Z" fill="#1D1D1B"/>
<path d="M305.437 166.043L321.859 175.525L321.24 175.878L304.818 166.397L305.437 166.043Z" fill="#1D1D1B"/>
<path d="M317.197 170.949L323.474 174.574L322.878 174.927L316.579 171.303L317.197 170.949Z" fill="#1D1D1B"/>
<path d="M308.682 164.164L325.104 173.646L324.485 173.999L308.063 164.518L308.682 164.164Z" fill="#1D1D1B"/>
<path d="M310.298 163.213L326.72 172.717L326.123 173.048L309.702 163.567L310.298 163.213Z" fill="#1D1D1B"/>
<path d="M315.78 164.518L328.356 171.767L327.737 172.121L315.162 164.849L315.78 164.518Z" fill="#1D1D1B"/>
<path d="M325.903 164.738L333.218 168.96L332.621 169.313L325.284 165.07L325.903 164.738Z" fill="#1D1D1B"/>
<path d="M327.516 163.787L334.854 168.008L334.235 168.362L326.919 164.141L327.516 163.787Z" fill="#1D1D1B"/>
<path d="M324.466 162.593C322.72 163.61 319.847 163.61 318.101 162.593C316.355 161.577 316.355 159.919 318.101 158.925C319.847 157.908 322.72 157.908 324.466 158.925C326.212 159.919 326.212 161.577 324.466 162.593ZM318.3 159.035C316.664 159.985 316.664 161.511 318.3 162.461C319.935 163.411 322.61 163.411 324.245 162.461C325.881 161.511 325.881 159.985 324.245 159.035C322.61 158.085 319.935 158.085 318.3 159.035Z" fill="#1D71B8"/>
<path d="M324.003 162.328C322.5 163.19 320.069 163.19 318.566 162.328C317.063 161.466 317.063 160.051 318.566 159.189C320.069 158.327 322.5 158.327 324.003 159.189C325.506 160.051 325.506 161.444 324.003 162.328ZM318.699 159.256C317.284 160.073 317.284 161.422 318.699 162.239C320.113 163.057 322.434 163.057 323.848 162.239C325.263 161.422 325.263 160.073 323.848 159.256C322.434 158.438 320.113 158.438 318.699 159.256Z" fill="#1D71B8"/>
<path d="M322.895 161.688C322.011 162.196 320.553 162.196 319.646 161.688C318.74 161.179 318.762 160.339 319.646 159.809C320.531 159.301 321.989 159.301 322.895 159.809C323.779 160.317 323.779 161.157 322.895 161.688ZM319.801 159.897C318.983 160.362 318.983 161.135 319.801 161.599C320.619 162.063 321.945 162.063 322.763 161.599C323.581 161.135 323.581 160.362 322.763 159.897C321.945 159.433 320.619 159.433 319.801 159.897Z" fill="#1D71B8"/>
<path d="M320.022 159.411L319.469 159.212C319.469 159.212 319.779 159.499 319.712 159.521C319.712 159.521 319.337 159.168 319.425 159.146L319.956 159.345C319.956 159.345 319.646 159.057 319.712 159.035C319.712 159.035 320.088 159.389 320.088 159.411C320.088 159.411 320.088 159.411 320.022 159.411Z" fill="#1D71B8"/>
<path d="M320.135 159.257C320.135 159.257 320.024 159.081 320.444 158.992C320.444 158.992 320.554 159.169 320.51 159.324C320.466 159.324 320.444 159.346 320.135 159.257ZM320.09 159.081C320.09 159.081 320.201 159.257 320.488 159.191C320.466 159.191 320.356 159.014 320.09 159.081Z" fill="#1D71B8"/>
<path d="M320.972 158.859L320.795 158.882C320.795 158.882 320.906 159.279 320.84 159.279L320.729 158.882C320.729 158.882 320.552 158.904 320.552 158.859C320.552 158.859 320.972 158.815 320.972 158.859Z" fill="#1D71B8"/>
<path d="M321.062 159.234C321.062 159.234 321.305 158.814 321.371 158.814C321.371 158.814 321.57 159.234 321.459 159.146C321.459 159.146 321.172 159.146 321.106 159.234C321.106 159.256 321.106 159.256 321.062 159.234ZM321.459 159.124L321.349 158.881L321.216 159.124H321.459Z" fill="#1D71B8"/>
<path d="M321.836 158.836C321.836 158.836 322.013 158.858 321.991 159.101C321.991 159.101 322.079 159.3 322.013 159.3L321.925 159.101L321.792 159.079C321.792 159.079 321.726 159.256 321.659 159.256C321.637 159.256 321.792 158.836 321.836 158.836ZM321.858 158.88L321.792 159.057C321.792 159.057 321.925 159.079 321.991 158.902L321.858 158.88Z" fill="#1D71B8"/>
<path d="M322.41 159.212C322.41 159.212 322.388 158.947 322.455 158.947L322.477 159.19C322.477 159.19 322.808 159.036 322.852 159.058L322.477 159.235C322.477 159.235 322.366 159.367 322.3 159.367L322.41 159.212Z" fill="#1D71B8"/>
<path d="M323.292 159.189C323.292 159.189 323.446 159.256 323.159 159.455L323.049 159.388C323.049 159.388 322.872 159.521 322.805 159.499C322.783 159.499 323.247 159.189 323.292 159.189ZM323.27 159.234L323.049 159.388C323.049 159.388 323.159 159.455 323.38 159.3L323.27 159.234Z" fill="#1D71B8"/>
<path d="M324.021 159.655C324.021 159.655 323.601 159.854 323.335 159.655C323.335 159.655 323.755 159.456 323.8 159.501C323.8 159.501 323.38 159.699 323.446 159.854C323.49 159.854 323.534 159.854 323.556 159.832C323.579 159.81 323.976 159.611 324.021 159.655Z" fill="#1D71B8"/>
<path d="M323.6 160.097C323.6 160.097 323.512 159.987 323.512 159.965C323.512 159.965 324.153 159.788 323.6 160.097ZM323.733 160.119C323.777 160.119 323.799 160.119 323.865 159.898L323.578 159.987C323.578 159.987 323.644 160.075 323.733 160.119Z" fill="#1D71B8"/>
<path d="M323.738 160.251C323.738 160.251 324.423 160.14 324.446 160.184L323.783 160.295C323.783 160.295 323.871 160.472 323.805 160.472C323.827 160.449 323.738 160.273 323.738 160.251Z" fill="#1D71B8"/>
<path d="M324.575 160.471C324.575 160.471 323.867 160.537 323.845 160.493C323.845 160.493 324.575 160.449 324.575 160.471Z" fill="#1D71B8"/>
<path d="M324.532 160.672C324.51 160.65 324.465 160.65 324.399 160.65H324.068C324.001 160.65 323.979 160.65 324.068 160.605C324.068 160.605 324.399 160.605 324.421 160.826C324.421 160.826 324.443 160.826 324.532 160.672Z" fill="#1D71B8"/>
<path d="M322.677 162.019L323.23 162.196C323.23 162.196 322.898 161.909 322.965 161.887C322.965 161.887 323.362 162.24 323.274 162.262L322.721 162.086C322.721 162.086 323.053 162.373 322.987 162.395L322.589 162.041C322.611 162.041 322.611 162.019 322.677 162.019Z" fill="#1D71B8"/>
<path d="M322.584 162.196C322.584 162.196 322.694 162.373 322.296 162.483C322.296 162.483 322.186 162.307 322.23 162.152C322.252 162.13 322.274 162.13 322.584 162.196ZM322.628 162.373C322.628 162.373 322.517 162.196 322.23 162.262C322.252 162.262 322.363 162.461 322.628 162.373Z" fill="#1D71B8"/>
<path d="M321.767 162.637L321.944 162.615C321.944 162.615 321.833 162.217 321.9 162.217L322.01 162.615C322.01 162.615 322.187 162.593 322.187 162.637C322.187 162.615 321.767 162.681 321.767 162.637Z" fill="#1D71B8"/>
<path d="M321.681 162.263C321.681 162.263 321.46 162.705 321.393 162.705C321.393 162.705 321.172 162.285 321.305 162.373C321.305 162.373 321.592 162.373 321.637 162.263C321.615 162.241 321.637 162.241 321.681 162.263ZM321.283 162.395L321.416 162.638L321.548 162.373L321.283 162.395Z" fill="#1D71B8"/>
<path d="M320.928 162.704C320.928 162.704 320.751 162.682 320.773 162.439C320.773 162.439 320.685 162.24 320.751 162.24L320.84 162.439H320.972C320.972 162.439 321.039 162.24 321.105 162.262C321.105 162.262 320.972 162.682 320.928 162.704ZM320.906 162.66L320.972 162.483C320.972 162.483 320.84 162.461 320.773 162.638L320.906 162.66Z" fill="#1D71B8"/>
<path d="M320.354 162.349C320.354 162.349 320.398 162.637 320.332 162.637L320.31 162.394C320.31 162.394 319.978 162.57 319.934 162.548L320.288 162.349C320.288 162.349 320.398 162.195 320.442 162.217C320.465 162.173 320.354 162.327 320.354 162.349Z" fill="#1D71B8"/>
<path d="M319.492 162.417C319.492 162.417 319.338 162.351 319.625 162.13L319.736 162.174C319.736 162.174 319.912 162.019 319.957 162.041C319.979 162.063 319.537 162.417 319.492 162.417ZM319.492 162.373L319.691 162.196C319.691 162.196 319.581 162.152 319.36 162.329L319.492 162.373Z" fill="#1D71B8"/>
<path d="M318.741 162.04C318.741 162.04 319.139 161.819 319.426 161.974C319.426 161.974 319.028 162.195 318.984 162.173C318.984 162.173 319.382 161.952 319.293 161.797C319.249 161.797 319.227 161.819 319.183 161.841C319.183 161.841 318.785 162.062 318.741 162.04Z" fill="#1D71B8"/>
<path d="M319.116 161.555C319.116 161.555 319.226 161.643 319.204 161.665C319.204 161.687 318.585 161.93 319.116 161.555ZM318.961 161.555C318.917 161.555 318.895 161.555 318.851 161.776L319.138 161.665C319.138 161.665 319.049 161.599 318.961 161.555Z" fill="#1D71B8"/>
<path d="M318.939 161.422C318.939 161.422 318.254 161.62 318.231 161.576L318.872 161.399C318.872 161.399 318.762 161.245 318.828 161.223C318.828 161.245 318.939 161.399 318.939 161.422Z" fill="#1D71B8"/>
<path d="M318.055 161.312C318.055 161.312 318.762 161.157 318.785 161.201C318.785 161.201 318.055 161.334 318.055 161.312Z" fill="#1D71B8"/>
<path d="M318.055 161.112C318.077 161.134 318.122 161.134 318.188 161.112L318.519 161.068C318.586 161.068 318.608 161.046 318.519 161.112C318.519 161.112 318.188 161.157 318.121 160.936C318.121 160.958 318.121 160.958 318.055 161.112Z" fill="#1D71B8"/>
<path d="M322.611 161.511C321.881 161.93 320.688 161.93 319.936 161.511C319.207 161.091 319.207 160.405 319.936 159.963C320.666 159.543 321.859 159.543 322.611 159.963C323.34 160.405 323.34 161.091 322.611 161.511ZM320.091 160.052C319.428 160.428 319.428 161.046 320.091 161.422C320.754 161.798 321.815 161.798 322.478 161.422C323.141 161.046 323.141 160.428 322.478 160.052C321.815 159.676 320.754 159.676 320.091 160.052Z" fill="#1D71B8"/>
<path d="M319.05 160.029L318.741 159.985C318.741 159.985 318.807 160.162 318.675 160.184L318.63 160.007C318.63 160.007 318.365 160.095 318.299 160.029L318.586 159.941C318.586 159.941 318.365 159.83 318.454 159.764L318.675 159.896C318.675 159.896 318.807 159.742 318.918 159.764L318.763 159.919C318.763 159.919 319.072 159.963 319.05 160.029Z" fill="#1D71B8"/>
<path d="M324.271 161.621L323.961 161.577C323.961 161.577 324.027 161.754 323.895 161.776L323.851 161.599C323.851 161.599 323.585 161.687 323.519 161.621L323.806 161.532C323.806 161.532 323.585 161.422 323.674 161.356L323.895 161.488C323.895 161.488 324.027 161.334 324.138 161.356L323.983 161.51C323.961 161.51 324.293 161.532 324.271 161.621Z" fill="#1D71B8"/>
<path d="M342.721 135.386L335.273 141.044L334.168 144.338C334.168 144.338 333.196 146.968 331.096 149.222L330.521 149.067L327.051 148.161C327.096 147.984 327.118 147.874 327.118 147.785C326.521 146.813 324.333 147.1 322.255 147.299L321.946 148.183C322.653 148.139 323.184 148.493 323.581 149.134L323.184 149.819L321.57 152.603L321.393 152.913L320.288 152.25L319.868 152.228C319.471 152.206 319.073 152.029 318.785 151.764L316.509 150.128C316.001 149.62 315.78 149.045 315.956 148.382C315.735 148.117 315.625 147.785 315.713 147.343L315.647 147.167C315.47 146.769 315.47 146.327 315.603 145.929C315.625 145.84 316.376 143.851 316.376 143.851L316.531 143.255C316.73 142.481 317.415 141.906 318.211 141.884C318.233 141.884 326.189 139.674 326.189 139.674C327.538 139.276 328.864 139.055 330.013 139.099L338.124 130.922L342.721 135.386Z" fill="#FCAF75"/>
<path opacity="0.5" d="M327.074 148.095C327.097 148.007 327.119 147.919 327.119 147.808C326.522 146.836 324.334 147.123 322.256 147.322L321.947 148.206C322.654 148.162 323.184 148.515 323.582 149.156L323.185 149.841L320.93 149.068C321.615 148.184 321.814 147.034 322.057 145.73C323.87 146.371 325.815 146.637 327.317 145.885C327.428 146.57 327.34 147.3 327.074 148.095Z" fill="#FCAF75"/>
<path opacity="0.5" d="M321.681 150.813L321.57 152.625L321.393 152.935L320.288 152.271L319.868 152.249C319.471 152.227 319.073 152.05 318.785 151.785L316.509 150.15C316.001 149.641 315.78 149.067 315.956 148.404C315.735 148.138 315.625 147.807 315.713 147.365L315.647 147.188C315.47 146.79 315.47 146.348 315.603 145.95C315.625 145.862 315.824 146.37 315.824 146.37L316.752 144.138L316.023 146.967L316.31 147.542C316.841 146.238 317.172 145.044 317.504 143.453C317.658 142.856 318.1 142.635 318.631 142.48C318.078 142.856 317.901 143.21 317.835 143.674C317.57 145.309 317.194 146.613 316.642 147.962C316.398 148.558 316.509 149.244 316.951 149.73C317.459 150.26 318.211 150.592 318.697 150.061C318.366 149.663 318.145 149.023 318.454 148.47C319.073 147.321 319.471 146.083 319.537 144.823C319.692 143.63 320.31 143.431 321.128 143.431C320.377 143.674 319.935 143.961 319.758 144.823C319.736 146.149 319.471 147.409 318.874 148.581C318.609 149.111 318.763 149.752 319.272 150.083C319.957 150.636 320.775 150.835 321.681 150.813Z" fill="#FCAF75"/>
<path d="M321.241 159.063C323.525 159.535 325.52 159.221 325.698 158.36C325.876 157.499 324.169 156.419 321.886 155.947C319.603 155.475 317.608 155.79 317.43 156.65C317.252 157.511 318.958 158.591 321.241 159.063Z" fill="#1D1D1B"/>
<path d="M326.032 156.936L317.766 155.234L317.457 156.605L325.722 158.373L326.032 156.936Z" fill="#1D1D1B"/>
<path d="M321.609 157.631C323.892 158.103 325.887 157.788 326.065 156.927C326.242 156.067 324.536 154.986 322.253 154.515C319.97 154.043 317.974 154.358 317.797 155.219C317.619 156.079 319.325 157.159 321.609 157.631Z" fill="#292928"/>
<path d="M321.6 157.352C323.799 157.807 325.726 157.477 325.904 156.617C326.082 155.756 324.443 154.69 322.244 154.235C320.044 153.781 318.117 154.11 317.939 154.97C317.761 155.831 319.4 156.897 321.6 157.352Z" fill="#3C3C3B"/>
<path d="M321.732 156.823C323.152 157.131 324.405 156.906 324.532 156.322C324.659 155.737 323.611 155.014 322.191 154.706C320.772 154.398 319.518 154.622 319.392 155.207C319.265 155.791 320.313 156.515 321.732 156.823Z" fill="#1D1D1B"/>
<path d="M324.154 151.897L321.59 151.234C321.236 152.737 320.706 153.975 319.49 154.947L324.419 155.898C323.844 154.66 323.8 153.489 324.154 151.897Z" fill="#1D1D1B"/>
<path d="M325.48 150.969C325.326 151.765 324.331 152.229 322.806 151.919C321.48 151.654 320.574 150.903 320.729 149.974C320.883 149.002 322.099 148.759 323.403 149.024C324.862 149.311 325.657 150.173 325.48 150.969Z" fill="#3C3C3B"/>
<path d="M323.103 150.554C324.165 150.784 325.095 150.651 325.18 150.258C325.266 149.864 324.474 149.358 323.413 149.128C322.351 148.898 321.421 149.03 321.336 149.424C321.25 149.817 322.042 150.323 323.103 150.554Z" fill="#525250"/>
<path d="M331.097 149.244L329.594 150.482C329.594 150.482 328.555 151.388 326.743 152.603C325.461 153.465 324.157 155.123 323.383 154.327C321.991 153.245 325.704 150.46 325.704 150.46C326.345 149.708 326.853 148.957 327.074 148.205C328.268 147.962 329.483 148.183 330.677 148.957C330.787 149.023 330.942 149.134 331.097 149.244Z" fill="#FCAF75"/>
<path d="M329.573 138.946C332.38 138.836 333.021 141.466 334.148 144.339C334.501 144.14 334.104 144.118 334.435 143.919C335.651 143.919 348.138 134.658 349.088 133.907C346.967 129.685 344.359 126.37 339.983 126.414C336.734 130.923 334.037 133.288 329.573 138.946Z" fill="#55B2E6"/>
<path opacity="0.5" d="M334.459 143.919C339.498 141.046 344.338 137.664 349.112 133.907C348.427 132.426 347.565 130.989 346.416 129.619L334.459 143.919Z" fill="#3F76AB"/>
<path d="M366.325 160.252L361.286 162.904C361.198 163.214 361.087 163.501 360.977 163.766C359.916 166.396 358.104 167.855 355.098 170.021L348.887 174.088C347.031 174.64 346.898 173.844 347.451 172.518L344.887 174.287C343.141 175.347 341.749 174.198 342.544 172.872L340.864 173.601C339.428 173.999 338.765 173.314 339.737 171.877C339.848 171.678 339.98 171.524 340.157 171.325L341.174 170.352C339.715 171.082 338.256 170.352 340.135 168.452C343.605 164.65 346.545 161.821 350.081 159.147C352.866 157.799 354.943 157.357 358.126 157.025L363.563 155.213L366.325 160.252Z" fill="#FCAF75"/>
<path d="M407.171 92.4883C413.161 97.4611 414.774 102.456 413.669 112.999C411.149 137.178 401.27 152.737 401.27 152.737C390.904 158.417 376.516 161.511 360.979 163.788C361.178 160.716 359.918 158.064 357.155 157.135C371.079 150.461 386.572 141.288 392.23 141.73C392.584 129.442 394.507 119.673 397.247 108.733C399.259 100.997 402.198 94.9195 407.171 92.4883Z" fill="#55B2E6"/>
<path opacity="0.5" d="M360.954 163.809C359.915 166.417 358.103 167.875 355.097 170.041L348.887 174.108C347.03 174.66 346.897 173.865 347.45 172.539L344.886 174.307C343.14 175.368 341.748 174.218 342.543 172.892C343.361 174.926 345.306 173.202 348.003 171.522C346.721 173.997 349.329 173.312 350.721 171.876C354.965 169.246 358.678 166.593 360.954 163.809Z" fill="#FCAF75"/>
<path d="M361.65 216.492L360.103 219.172L368.294 223.902L369.842 221.222L361.65 216.492Z" fill="#333332"/>
<path d="M399.309 204.232L367.66 222.422C367.66 223.859 368.654 224.411 369.848 223.726L397.099 208.078C398.315 207.371 399.287 205.669 399.287 204.277V204.232H399.309Z" fill="#333332"/>
<path d="M327.212 198.883L358.796 180.826L399.308 204.232L367.658 222.421L327.212 198.883Z" fill="#575756"/>
<path d="M371.638 214.996L369.848 216.035L372.08 217.317L373.871 216.278L371.638 214.996Z" fill="#DADADA"/>
<path d="M364.521 212.963L366.754 214.244L368.544 213.206L366.312 211.924L364.521 212.963Z" fill="#DADADA"/>
<path d="M363.657 210.377L361.845 211.416L364.077 212.72L365.868 211.681L363.657 210.377Z" fill="#DADADA"/>
<path d="M360.986 208.852L359.195 209.89L361.405 211.172L363.218 210.133L360.986 208.852Z" fill="#DADADA"/>
<path d="M358.309 207.305L356.519 208.343L358.751 209.625L360.541 208.587L358.309 207.305Z" fill="#DADADA"/>
<path d="M351.192 205.271L353.425 206.553L355.215 205.514L352.983 204.232L351.192 205.271Z" fill="#DADADA"/>
<path d="M350.331 202.686L348.519 203.724L350.751 205.006L352.541 203.967L350.331 202.686Z" fill="#DADADA"/>
<path d="M347.654 201.16L345.863 202.199L348.073 203.481L349.886 202.442L347.654 201.16Z" fill="#DADADA"/>
<path d="M354.972 193.336L356.762 192.298L354.552 191.016L352.74 192.054L354.972 193.336Z" fill="#DADADA"/>
<path d="M352.298 191.812L354.11 190.773L351.878 189.469L350.087 190.508L352.298 191.812Z" fill="#DADADA"/>
<path d="M351.436 189.225L349.204 187.943L347.414 188.982L349.646 190.264L351.436 189.225Z" fill="#DADADA"/>
<path d="M383.352 210.399L385.143 209.36L382.932 208.078L381.12 209.117L383.352 210.399Z" fill="#DADADA"/>
<path d="M380.676 208.852L382.488 207.813L380.256 206.531L378.444 207.57L380.676 208.852Z" fill="#DADADA"/>
<path d="M365.117 199.879L369.161 202.199L370.023 202.708L370.465 202.951L371.57 203.592L373.117 204.498L375.35 205.78L378.024 207.327L379.814 206.288L372.521 202.067L372.256 201.912L366.929 198.84L365.117 199.879Z" fill="#DADADA"/>
<path d="M364.699 199.614L366.489 198.575L364.257 197.293L362.467 198.332L364.699 199.614Z" fill="#DADADA"/>
<path d="M362.023 198.088L363.813 197.049L361.603 195.768L359.791 196.806L362.023 198.088Z" fill="#DADADA"/>
<path d="M361.163 195.503L358.93 194.221L357.14 195.259L359.35 196.541L361.163 195.503Z" fill="#DADADA"/>
<path d="M354.531 193.602L352.299 192.32L350.509 193.359L352.741 194.641L354.531 193.602Z" fill="#DADADA"/>
<path d="M351.877 192.053L349.645 190.771L347.833 191.81L350.065 193.092L351.877 192.053Z" fill="#DADADA"/>
<path d="M349.205 190.507L346.973 189.225L345.183 190.263L347.393 191.567L349.205 190.507Z" fill="#DADADA"/>
<path d="M382.909 210.641L380.677 209.359L378.887 210.398L381.097 211.68L382.909 210.641Z" fill="#DADADA"/>
<path d="M376.21 208.873L378.443 210.155L380.233 209.116L378.023 207.812L376.21 208.873Z" fill="#DADADA"/>
<path d="M373.56 207.326L375.77 208.608L377.583 207.569L375.35 206.287L373.56 207.326Z" fill="#DADADA"/>
<path d="M370.884 205.779L373.116 207.061L374.906 206.022L372.674 204.74L370.884 205.779Z" fill="#DADADA"/>
<path d="M368.212 204.254L370.445 205.535L372.257 204.497L370.025 203.215L368.212 204.254Z" fill="#DADADA"/>
<path d="M365.557 202.707L367.767 203.989L369.58 202.95L367.347 201.668L365.557 202.707Z" fill="#DADADA"/>
<path d="M362.886 201.16L365.118 202.464L366.908 201.425L364.698 200.121L362.886 201.16Z" fill="#DADADA"/>
<path d="M360.209 199.634L362.442 200.916L364.254 199.878L362.022 198.596L360.209 199.634Z" fill="#DADADA"/>
<path d="M357.559 198.088L359.791 199.369L361.582 198.331L359.349 197.049L357.559 198.088Z" fill="#DADADA"/>
<path d="M352.3 194.883L350.068 193.602L348.278 194.64L350.488 195.922L352.3 194.883Z" fill="#DADADA"/>
<path d="M345.602 193.093L347.834 194.397L349.624 193.359L347.392 192.055L345.602 193.093Z" fill="#DADADA"/>
<path d="M346.97 191.811L344.738 190.529L342.925 191.568L345.158 192.85L346.97 191.811Z" fill="#DADADA"/>
<path d="M380.674 211.946L378.442 210.664L376.629 211.703L378.862 212.985L380.674 211.946Z" fill="#DADADA"/>
<path d="M373.979 210.156L376.212 211.438L378.002 210.399L375.77 209.117L373.979 210.156Z" fill="#DADADA"/>
<path d="M375.33 208.872L373.12 207.568L371.308 208.607L373.54 209.911L375.33 208.872Z" fill="#DADADA"/>
<path d="M372.675 207.327L370.443 206.045L368.653 207.084L370.863 208.366L372.675 207.327Z" fill="#DADADA"/>
<path d="M370.003 205.78L367.771 204.498L365.981 205.537L368.213 206.819L370.003 205.78Z" fill="#DADADA"/>
<path d="M367.349 204.255L365.117 202.951L363.305 203.99L365.537 205.294L367.349 204.255Z" fill="#DADADA"/>
<path d="M360.655 202.465L362.887 203.746L364.677 202.708L362.445 201.426L360.655 202.465Z" fill="#DADADA"/>
<path d="M362.001 201.159L359.791 199.877L357.979 200.916L360.211 202.198L362.001 201.159Z" fill="#DADADA"/>
<path d="M354.882 199.127L357.534 200.674L359.346 199.635L356.672 198.088L358.926 196.806L356.694 195.502L354.44 196.806L353.71 197.226L352.649 197.845L354.13 198.707L354.882 199.127Z" fill="#DADADA"/>
<path d="M348.253 197.225L350.065 196.186L347.833 194.904L346.021 195.943L348.253 197.225Z" fill="#DADADA"/>
<path d="M345.161 193.357L343.371 194.396L345.581 195.678L347.393 194.639L345.161 193.357Z" fill="#DADADA"/>
<path d="M344.716 193.092L342.506 191.811L340.694 192.849L342.926 194.131L344.716 193.092Z" fill="#DADADA"/>
<path d="M378.421 213.227L376.211 211.945L374.398 212.984L376.631 214.266L378.421 213.227Z" fill="#DADADA"/>
<path d="M373.959 212.741L375.771 211.702L373.539 210.398L371.727 211.437L373.959 212.741Z" fill="#DADADA"/>
<path d="M373.094 210.155L370.862 208.873L369.072 209.912L371.304 211.194L373.094 210.155Z" fill="#DADADA"/>
<path d="M368.213 207.326L366.4 208.365L368.633 209.647L370.445 208.608L368.213 207.326Z" fill="#DADADA"/>
<path d="M367.77 207.083L365.538 205.801L363.748 206.84L365.958 208.121L367.77 207.083Z" fill="#DADADA"/>
<path d="M365.094 205.536L362.884 204.254L361.071 205.293L363.303 206.575L365.094 205.536Z" fill="#DADADA"/>
<path d="M360.627 205.05L362.44 203.989L360.207 202.707L358.395 203.746L360.627 205.05Z" fill="#DADADA"/>
<path d="M359.768 202.464L357.535 201.182L355.745 202.22L357.977 203.502L359.768 202.464Z" fill="#DADADA"/>
<path d="M354.441 199.392L353.623 198.906L352.209 198.088L350.418 199.127L351.833 199.944L352.629 200.431L355.303 201.956L357.093 200.917L354.441 199.392Z" fill="#DADADA"/>
<path d="M341.556 198.531L343.766 199.813L345.579 198.774L343.346 197.492L341.556 198.531Z" fill="#DADADA"/>
<path d="M340.697 195.945L338.884 196.984L341.117 198.266L342.907 197.227L340.697 195.945Z" fill="#DADADA"/>
<path d="M338.02 194.396L336.208 195.435L338.44 196.717L340.253 195.678L338.02 194.396Z" fill="#DADADA"/>
<path d="M380.035 195.855L374.686 198.949C374.443 199.082 374.045 199.082 373.802 198.949L365.735 194.286C365.492 194.153 365.492 193.91 365.735 193.778L371.084 190.683C371.327 190.551 371.725 190.551 371.968 190.683L380.035 195.347C380.278 195.48 380.278 195.7 380.035 195.855Z" fill="#878787"/>
<path d="M327.102 199.392L318.394 167.521C317.201 168.582 316.516 170.373 316.825 171.544L324.384 199.171C324.715 200.364 325.909 200.475 327.102 199.392Z" fill="#4A4A49"/>
<path d="M358.886 190.926L365.495 223.416L325.005 200.032L318.396 167.543L358.886 190.926Z" fill="#4A4A49"/>
<path d="M367.636 222.798L358.928 190.928C357.734 191.989 357.049 193.779 357.358 194.95L364.917 222.577C365.226 223.771 366.442 223.859 367.636 222.798Z" fill="#333332"/>
<path d="M341.822 196.806C342.043 198.177 341.204 198.729 339.922 198.044C338.64 197.359 337.424 195.679 337.203 194.309C336.982 192.939 337.822 192.386 339.104 193.071C340.364 193.757 341.579 195.436 341.822 196.806Z" fill="#DADADA"/>
<path opacity="0.5" d="M53.1025 258.493C53.1025 245.585 62.12 228.744 73.2592 220.898C79.536 216.478 85.1498 215.859 88.8407 218.467C88.8628 218.423 137.729 248.237 137.729 248.237C139.078 248.834 140.205 249.873 141.067 251.265L149.112 255.664C149.863 256.172 150.261 256.99 150.438 257.984L156.118 261.145C164.119 262.007 172.694 261.764 181.645 260.261C184.982 259.708 188.364 260.371 190.64 262.537C196.807 268.438 202.664 271.687 208.852 273.367L229.119 260.216L373.089 351.584L262.603 409.115L119.142 331.494L144.139 315.294C143.697 314.962 143.277 314.608 142.857 314.255C142.636 314.078 142.393 313.901 142.172 313.702C141.509 313.128 140.912 312.509 140.315 311.868C140.138 311.691 139.962 311.514 139.785 311.337C139.188 310.696 138.658 309.989 138.105 309.304C137.95 309.105 137.796 308.928 137.641 308.729C137.133 308.022 136.646 307.271 136.16 306.519C136.005 306.298 135.851 306.077 135.718 305.834C135.276 305.105 134.834 304.309 134.414 303.513C134.259 303.204 134.083 302.939 133.928 302.629C133.552 301.9 133.176 301.126 132.801 300.353C132.602 299.933 132.381 299.513 132.182 299.071C131.629 297.9 131.077 296.662 130.524 295.38C128.137 296.817 125.662 297.435 123.164 296.684L119.451 294.85C116.821 295.601 114.479 295.491 112.6 294.518L59.7109 271.09C55.6442 269.654 53.1025 265.322 53.1025 258.493Z" fill="url(#paint0_linear_154_95728)"/>
<path d="M52.3281 224.213C52.3281 237.12 61.3897 242.358 72.5731 235.905C83.7565 229.451 92.8181 213.737 92.8181 200.83C92.8181 187.922 83.7565 182.684 72.5731 189.138C61.3897 195.592 52.3281 211.284 52.3281 224.213Z" fill="#1D1D1B"/>
<path d="M107.183 256.437C107.183 245.165 115.095 231.44 124.864 225.804C129.727 222.997 134.125 222.732 137.33 224.544C140.556 226.379 142.568 230.357 142.568 236.015C142.568 247.287 134.655 261.012 124.886 266.648C119.825 269.565 115.272 269.742 112.045 267.686C109.04 265.764 107.183 261.874 107.183 256.437Z" fill="#575756"/>
<path d="M122.653 271.18C129.836 274.252 136.887 266.14 141.594 259.09C145.926 249.211 153.308 237.121 148.755 233.408C143.583 229.717 129.66 233.607 120.288 237.32C118.763 249.564 113.415 265.234 122.653 271.18Z" fill="#DADADA"/>
<path d="M201.026 270.339C201.026 270.339 200.96 270.384 200.827 270.428C200.098 270.737 199.501 272.881 195.655 274.649C193.246 275.754 195.059 277.567 192.009 279.114C191.987 279.114 187.699 281.169 187.677 281.169C181.312 284.418 175.101 287.424 168.824 291.933C165.885 294.032 159.564 293.767 157.265 295.955C156.116 297.06 155.099 298.165 154.171 299.248C151.563 297.922 149.286 296.574 147.275 295.182C138.501 289.104 134.699 282.031 129.97 270.627L119.582 261.366C115.073 248.459 132.489 229.076 143.717 231.617L163.675 245.122L194.506 265.985L199.855 269.61L201.026 270.339Z" fill="#FCAF75"/>
<path opacity="0.5" d="M132.802 267.952C137.333 280.064 143.743 283.556 152.384 285.523C160.716 287.556 180.519 281.434 189.029 271.091C190.001 270.538 195.04 272.549 195.151 272.925C195.151 272.925 180.586 282.694 177.492 285.368L152.959 298.585C152.627 298.408 152.252 298.209 151.92 298.033C151.721 297.922 151.522 297.812 151.345 297.701C150.815 297.414 150.329 297.104 149.82 296.795C149.599 296.662 149.356 296.508 149.135 296.375C148.715 296.11 148.295 295.845 147.898 295.557C138.703 289.391 134.836 282.252 130.017 270.605L119.63 261.344L118.9 254.338L132.802 267.952Z" fill="#FCAF75"/>
<path d="M262.605 409.137L373.09 351.607L229.143 247.973L118.657 305.503L262.605 409.137Z" fill="white"/>
<path d="M149.711 308.221L229.564 266.648L225.188 263.51L145.335 305.083L149.711 308.221Z" fill="#1D1D1B"/>
<path d="M161.668 316.84L241.52 275.245L238.824 273.322L158.971 314.895L161.668 316.84Z" fill="#1D1D1B"/>
<path d="M168.872 322.036L248.725 280.44L246.051 278.518L166.198 320.091L168.872 322.036Z" fill="#1D1D1B"/>
<path d="M176.097 327.229L255.95 285.634L253.254 283.711L173.401 325.284L176.097 327.229Z" fill="#1D1D1B"/>
<path d="M190.533 337.618L270.386 296.045L267.712 294.1L187.859 335.695L190.533 337.618Z" fill="#1D1D1B"/>
<path d="M197.76 342.811L277.613 301.238L274.917 299.293L195.064 340.888L197.76 342.811Z" fill="#1D1D1B"/>
<path d="M254.251 322.344L284.839 306.431L282.143 304.486L251.577 320.422L254.251 322.344Z" fill="#1D1D1B"/>
<path d="M212.19 353.219L292.042 311.624L289.368 309.701L209.493 351.274L212.19 353.219Z" fill="#1D1D1B"/>
<path d="M219.416 358.414L299.269 316.819L296.573 314.896L216.72 356.469L219.416 358.414Z" fill="#1D1D1B"/>
<path d="M245.341 353.861L306.474 322.013L303.8 320.09L242.645 351.938L245.341 353.861Z" fill="#1D1D1B"/>
<path d="M292.531 356.16L328.137 337.617L325.462 335.672L289.857 354.215L292.531 356.16Z" fill="#1D1D1B"/>
<path d="M299.759 361.353L335.364 342.81L332.668 340.865L297.062 359.408L299.759 361.353Z" fill="#1D1D1B"/>
<path d="M247.553 386.881C238.845 380.604 239.508 371.476 249.033 366.526C258.559 361.575 273.389 362.636 282.097 368.891C290.805 375.167 290.142 384.295 280.616 389.246C271.069 394.197 256.261 393.136 247.553 386.881ZM248.702 386.262C256.813 392.097 270.649 393.092 279.533 388.472C288.418 383.853 289.037 375.322 280.904 369.487C272.77 363.652 258.957 362.658 250.072 367.277C241.209 371.896 240.591 380.427 248.702 386.262Z" fill="#1D71B8"/>
<path d="M250.071 385.555C242.645 380.207 243.197 372.405 251.331 368.183C259.464 363.94 272.128 364.868 279.554 370.217C286.98 375.565 286.428 383.367 278.295 387.588C270.161 391.81 257.497 390.904 250.071 385.555ZM250.844 385.157C257.895 390.219 269.874 391.081 277.587 387.08C285.279 383.08 285.831 375.676 278.781 370.614C271.73 365.553 259.751 364.691 252.038 368.692C244.347 372.692 243.794 380.074 250.844 385.157Z" fill="#1D71B8"/>
<path d="M256.041 382.461C251.621 379.279 251.952 374.637 256.792 372.118C261.633 369.598 269.169 370.129 273.612 373.333C278.032 376.516 277.701 381.157 272.86 383.677C267.998 386.174 260.461 385.644 256.041 382.461ZM256.815 382.041C260.859 384.937 267.733 385.445 272.131 383.147C276.551 380.848 276.861 376.604 272.816 373.709C268.771 370.814 261.898 370.306 257.5 372.604C253.079 374.903 252.77 379.146 256.815 382.041Z" fill="#1D71B8"/>
<path d="M252.855 373.2C252.855 373.2 249.76 371.763 249.959 371.586L252.479 372.758L250.888 370.923C250.843 370.879 250.821 370.835 251.064 370.658C251.064 370.658 254.159 372.095 253.96 372.272L251.44 371.1C251.44 371.1 253.032 372.979 253.076 373.178C253.054 373.2 253.031 373.2 252.855 373.2Z" fill="#1D71B8"/>
<path d="M252.081 374.46C251.993 374.526 251.882 374.571 251.75 374.615C251.617 374.637 251.484 374.659 251.33 374.659C251.175 374.659 250.998 374.615 250.799 374.549L249.208 374.084C249.009 374.018 248.854 373.952 248.744 373.886C248.633 373.819 248.545 373.731 248.501 373.642C248.456 373.554 248.434 373.466 248.456 373.377C248.479 373.289 248.501 373.2 248.567 373.112C248.633 373.024 248.7 372.935 248.788 372.869C248.876 372.803 248.987 372.758 249.12 372.714C249.252 372.692 249.385 372.67 249.539 372.67C249.694 372.67 249.871 372.714 250.07 372.758L251.661 373.222C251.86 373.289 252.015 373.355 252.125 373.421C252.236 373.488 252.324 373.576 252.368 373.665C252.413 373.753 252.435 373.841 252.413 373.93C252.391 374.018 252.368 374.107 252.302 374.195C252.236 374.305 252.17 374.394 252.081 374.46ZM250.91 374.35C251.175 374.438 251.396 374.438 251.573 374.416C251.75 374.372 251.882 374.283 251.971 374.151C252.059 374.018 252.059 373.886 251.993 373.775C251.926 373.664 251.75 373.576 251.484 373.488L249.893 373.024C249.628 372.957 249.407 372.935 249.23 372.957C249.053 373.001 248.921 373.09 248.832 373.222C248.744 373.355 248.744 373.488 248.81 373.598C248.876 373.709 249.053 373.797 249.318 373.886L250.91 374.35Z" fill="#1D71B8"/>
<path d="M248.125 374.482L247.949 375.034C247.949 375.034 251.419 375.587 251.352 375.808L247.882 375.255C247.882 375.255 247.706 375.808 247.374 375.741C247.396 375.741 247.794 374.437 248.125 374.482Z" fill="#1D71B8"/>
<path d="M251.22 376.538L250.38 376.649L250.358 377.577C250.358 377.577 251.198 377.776 251.087 377.997C251.087 377.997 247.374 377.091 247.374 376.825C247.374 376.825 251.131 376.317 251.308 376.45C251.33 376.472 251.308 376.494 251.22 376.538ZM250.07 376.671L247.838 376.958L250.048 377.489L250.07 376.671Z" fill="#1D71B8"/>
<path d="M251.284 378.482L249.627 378.615L249.759 379.035L251.549 379.433C251.594 379.433 251.638 379.455 251.549 379.676L249.781 379.278C249.781 379.344 249.759 379.433 249.737 379.499C249.715 379.565 249.671 379.632 249.582 379.676C249.516 379.72 249.428 379.764 249.317 379.809C249.207 379.853 249.074 379.875 248.897 379.875C248.698 379.897 248.521 379.875 248.367 379.853C248.212 379.831 248.102 379.786 247.991 379.72C247.881 379.654 247.814 379.588 247.748 379.499C247.682 379.411 247.637 379.322 247.615 379.212L247.438 378.615C247.438 378.549 247.461 378.527 247.549 378.527C247.527 378.549 251.218 378.261 251.284 378.482ZM247.947 379.212C247.991 379.367 248.079 379.477 248.234 379.565C248.389 379.654 248.588 379.676 248.853 379.654C249.118 379.632 249.317 379.565 249.405 379.477C249.494 379.367 249.516 379.256 249.472 379.101L249.317 378.637L247.814 378.748L247.947 379.212Z" fill="#1D71B8"/>
<path d="M252.28 380.671C252.28 380.671 250.998 380.958 250.954 380.958C250.954 380.958 249.385 382.063 249.119 381.909L250.578 380.914L248.346 380.715C248.257 380.715 248.213 380.693 248.346 380.494C248.346 380.494 250.799 380.737 250.843 380.715C250.843 380.737 252.147 380.472 252.28 380.671Z" fill="#1D71B8"/>
<path d="M253.74 382.35L252.59 382.881L253.077 383.279C253.187 383.367 253.253 383.456 253.298 383.522C253.342 383.61 253.386 383.699 253.364 383.787C253.364 383.875 253.32 383.964 253.231 384.03C253.143 384.119 253.032 384.185 252.811 384.273C252.635 384.34 252.48 384.406 252.325 384.428C252.17 384.45 252.038 384.45 251.905 384.428C251.773 384.406 251.64 384.362 251.53 384.318C251.419 384.251 251.308 384.185 251.198 384.119L250.557 383.61C250.491 383.566 250.491 383.522 250.557 383.478C250.601 383.478 253.519 382.174 253.74 382.35ZM251.485 384.008C251.64 384.141 251.817 384.207 251.994 384.229C252.193 384.251 252.391 384.207 252.657 384.097C252.878 383.986 253.01 383.898 253.032 383.765C253.055 383.654 252.988 383.522 252.834 383.389L252.347 382.991L250.977 383.61L251.485 384.008Z" fill="#1D71B8"/>
<path d="M256.17 384.825C256.346 384.693 256.435 384.582 256.413 384.449C256.391 384.339 256.28 384.206 256.103 384.118C255.904 384.007 255.705 383.963 255.529 383.963C255.33 383.963 255.153 384.03 254.976 384.162C254.976 384.162 253.23 385.4 252.965 385.245L254.711 384.007C254.843 383.919 254.976 383.831 255.131 383.808C255.263 383.764 255.418 383.742 255.551 383.742C255.683 383.742 255.838 383.764 255.971 383.808C256.103 383.853 256.236 383.897 256.368 383.963C256.501 384.03 256.589 384.096 256.678 384.184C256.766 384.273 256.811 384.339 256.833 384.427C256.855 384.516 256.833 384.604 256.788 384.693C256.744 384.781 256.656 384.891 256.523 384.98C256.523 384.98 254.777 386.218 254.512 386.063L256.17 384.825Z" fill="#1D71B8"/>
<path d="M257.851 384.76L258.779 385.091C258.912 385.135 259.045 385.202 259.133 385.268C259.243 385.334 259.31 385.401 259.354 385.489C259.398 385.578 259.42 385.644 259.398 385.754C259.376 385.843 259.332 385.953 259.199 386.108C259.133 386.174 259.067 386.241 259 386.285C258.934 386.329 258.846 386.373 258.779 386.395C258.713 386.417 258.625 386.44 258.536 386.44C258.448 386.44 258.359 386.44 258.271 386.44C258.359 386.506 258.426 386.616 258.426 386.727C258.426 386.837 258.381 386.948 258.271 387.08C258.183 387.191 258.094 387.257 257.984 387.301C257.873 387.346 257.763 387.368 257.63 387.368C257.497 387.368 257.387 387.368 257.254 387.324C257.122 387.301 256.989 387.257 256.856 387.213C256.856 387.213 256.061 386.926 255.972 386.793C255.95 386.771 257.652 384.782 257.851 384.76ZM257.873 385.003L257.1 385.909L257.807 386.174C258.028 386.241 258.227 386.285 258.381 386.263C258.558 386.241 258.713 386.152 258.89 385.953C259.022 385.799 259.044 385.666 259 385.555C258.934 385.445 258.801 385.357 258.58 385.268L257.873 385.003ZM256.348 386.771L256.967 386.992C257.077 387.036 257.166 387.058 257.254 387.08C257.343 387.103 257.431 387.103 257.52 387.103C257.608 387.103 257.674 387.08 257.741 387.058C257.807 387.036 257.873 386.97 257.939 386.904C258.05 386.771 258.094 386.638 258.028 386.55C257.962 386.462 257.829 386.373 257.608 386.285L256.967 386.064L256.348 386.771Z" fill="#1D71B8"/>
<path d="M262.027 386.151L260.524 385.819C260.524 385.819 259.552 387.897 259.198 387.808C259.198 387.808 260.215 385.62 260.414 385.576C260.414 385.598 262.116 385.974 262.027 386.151Z" fill="#1D71B8"/>
<path d="M263 386.151C263 386.151 262.447 388.405 262.094 388.361C262.094 388.383 262.624 386.107 263 386.151Z" fill="#1D71B8"/>
<path d="M265.986 388.185C265.986 388.273 265.963 388.339 265.897 388.405C265.853 388.472 265.765 388.538 265.676 388.582C265.588 388.627 265.455 388.671 265.323 388.693C265.19 388.715 265.013 388.715 264.836 388.715C264.682 388.715 264.527 388.693 264.394 388.649C264.262 388.627 264.129 388.56 264.019 388.516C263.908 388.45 263.82 388.383 263.775 388.273C263.709 388.184 263.687 388.074 263.687 387.941V386.88C263.687 386.748 263.709 386.637 263.775 386.549C263.842 386.461 263.908 386.394 264.019 386.328C264.129 386.284 264.24 386.24 264.372 386.217C264.505 386.195 264.659 386.195 264.814 386.195C264.991 386.195 265.146 386.217 265.3 386.262C265.433 386.306 265.566 386.35 265.654 386.394C265.742 386.461 265.831 386.527 265.875 386.593C265.919 386.659 265.941 386.748 265.765 386.947C265.654 386.947 265.588 386.903 265.544 386.704C265.521 386.659 265.499 386.615 265.433 386.571C265.389 386.527 265.323 386.483 265.212 386.461C265.124 386.438 264.991 386.416 264.814 386.394C264.549 386.372 264.35 386.416 264.195 386.483C264.063 386.571 263.996 386.682 263.996 386.858V387.919C263.996 388.096 264.063 388.229 264.195 388.317C264.328 388.406 264.527 388.45 264.792 388.472C264.947 388.472 265.079 388.472 265.19 388.45C265.278 388.428 265.367 388.383 265.411 388.361C265.455 388.317 265.499 388.273 265.566 388.118C265.632 388.096 265.654 388.074 265.986 388.185Z" fill="#1D71B8"/>
<path d="M276.327 382.971C276.327 382.971 279.288 384.518 279.067 384.672L276.658 383.413C276.658 383.413 278.073 385.313 277.874 385.579C277.874 385.579 274.912 384.032 275.133 383.877L277.542 385.137C277.542 385.137 276.128 383.214 276.106 383.015C276.128 382.971 276.172 382.971 276.327 382.971Z" fill="#1D71B8"/>
<path d="M277.231 381.756C277.319 381.689 277.429 381.645 277.562 381.623C277.695 381.601 277.827 381.579 278.004 381.601C278.159 381.623 278.336 381.645 278.535 381.711L280.082 382.22C280.281 382.286 280.435 382.352 280.546 382.441C280.656 382.507 280.723 382.595 280.767 382.684C280.811 382.772 280.811 382.861 280.789 382.949C280.767 383.038 280.723 383.126 280.656 383.214C280.59 383.303 280.502 383.369 280.413 383.435C280.325 383.502 280.192 383.546 280.082 383.568C279.949 383.59 279.816 383.612 279.64 383.59C279.485 383.568 279.308 383.546 279.109 383.48L277.562 382.971C277.363 382.905 277.208 382.839 277.098 382.75C276.987 382.684 276.921 382.596 276.877 382.507C276.833 382.419 276.833 382.33 276.855 382.242C276.877 382.154 276.921 382.065 276.987 381.977C277.054 381.888 277.142 381.822 277.231 381.756ZM278.38 381.91C278.115 381.822 277.894 381.8 277.717 381.822C277.54 381.866 277.385 381.932 277.297 382.065C277.186 382.198 277.164 382.33 277.231 382.441C277.297 382.551 277.452 382.662 277.717 382.75L279.264 383.259C279.529 383.347 279.75 383.369 279.927 383.347C280.104 383.325 280.258 383.236 280.347 383.104C280.457 382.971 280.479 382.839 280.413 382.728C280.347 382.618 280.192 382.507 279.927 382.419L278.38 381.91Z" fill="#1D71B8"/>
<path d="M281.187 381.888L281.408 381.336C281.408 381.336 277.983 380.651 278.071 380.43L281.497 381.115C281.497 381.115 281.718 380.584 282.049 380.651C282.071 380.651 281.519 381.955 281.187 381.888Z" fill="#1D71B8"/>
<path d="M278.294 379.744L279.156 379.655L279.267 378.727C279.267 378.727 278.449 378.506 278.559 378.285C278.559 378.285 282.206 379.324 282.162 379.589C282.162 379.589 278.36 379.965 278.184 379.81C278.184 379.788 278.206 379.766 278.294 379.744ZM279.488 379.633L281.742 379.434L279.576 378.816L279.488 379.633Z" fill="#1D71B8"/>
<path d="M278.424 377.776L280.103 377.71L280.015 377.268L278.269 376.803C278.225 376.781 278.181 376.781 278.291 376.56L280.015 377.024C280.015 376.958 280.037 376.87 280.081 376.803C280.103 376.737 280.17 376.671 280.236 376.627C280.302 376.582 280.413 376.538 280.523 376.494C280.634 376.472 280.789 376.45 280.965 376.428C281.164 376.428 281.341 376.428 281.496 376.472C281.651 376.516 281.761 376.56 281.871 376.627C281.96 376.693 282.048 376.759 282.093 376.848C282.137 376.936 282.181 377.024 282.203 377.135L282.336 377.732C282.336 377.798 282.314 377.82 282.225 377.82C282.181 377.864 278.468 378.019 278.424 377.776ZM281.849 377.201C281.827 377.047 281.739 376.936 281.606 376.848C281.474 376.759 281.275 376.715 280.987 376.737C280.722 376.759 280.523 376.803 280.435 376.892C280.346 377.002 280.302 377.113 280.346 377.268L280.435 377.732L281.96 377.665L281.849 377.201Z" fill="#1D71B8"/>
<path d="M277.652 375.567C277.652 375.567 278.978 375.346 279.001 375.324C279.001 375.324 280.68 374.285 280.923 374.462L279.354 375.39L281.586 375.677C281.675 375.677 281.719 375.722 281.564 375.898C281.564 375.898 279.133 375.567 279.089 375.567C279.089 375.567 277.763 375.788 277.652 375.567Z" fill="#1D71B8"/>
<path d="M276.326 373.843L277.542 373.379L277.078 372.959C276.989 372.87 276.923 372.782 276.879 372.694C276.835 372.605 276.812 372.517 276.834 372.428C276.857 372.34 276.901 372.274 276.989 372.185C277.078 372.097 277.21 372.03 277.431 371.942C277.608 371.876 277.763 371.832 277.917 371.809C278.072 371.787 278.227 371.787 278.359 371.832C278.492 371.854 278.625 371.898 278.735 371.964C278.846 372.03 278.956 372.097 279.045 372.185L279.619 372.716C279.663 372.782 279.663 372.804 279.597 372.848C279.597 372.848 276.547 374.042 276.326 373.843ZM278.779 372.296C278.647 372.163 278.47 372.075 278.293 372.053C278.094 372.03 277.895 372.053 277.608 372.163C277.365 372.251 277.232 372.362 277.21 372.472C277.166 372.583 277.232 372.716 277.365 372.848L277.829 373.268L279.266 372.716L278.779 372.296Z" fill="#1D71B8"/>
<path d="M274.16 371.302C273.961 371.412 273.873 371.545 273.873 371.655C273.873 371.766 273.984 371.898 274.16 372.009C274.337 372.119 274.536 372.186 274.735 372.186C274.934 372.186 275.133 372.142 275.332 372.009C275.332 372.009 277.188 370.837 277.453 371.014L275.597 372.186C275.442 372.274 275.31 372.34 275.155 372.385C275.022 372.429 274.868 372.429 274.735 372.429C274.602 372.429 274.47 372.385 274.337 372.34C274.205 372.296 274.072 372.23 273.961 372.164C273.851 372.097 273.74 372.009 273.674 371.943C273.608 371.854 273.564 371.788 273.541 371.699C273.519 371.611 273.541 371.523 273.608 371.434C273.674 371.346 273.762 371.257 273.917 371.169C273.917 371.169 275.774 369.998 276.039 370.174L274.16 371.302Z" fill="#1D71B8"/>
<path d="M272.413 371.301L271.528 370.948C271.396 370.904 271.285 370.837 271.197 370.771C271.109 370.705 271.042 370.638 270.998 370.55C270.954 370.462 270.954 370.395 270.976 370.285C270.998 370.196 271.064 370.086 271.219 369.931C271.285 369.865 271.374 369.798 271.44 369.754C271.506 369.71 271.595 369.688 271.683 369.666C271.772 369.644 271.838 369.644 271.926 369.644C272.015 369.644 272.103 369.644 272.191 369.666C272.103 369.578 272.059 369.489 272.059 369.379C272.059 369.268 272.125 369.158 272.236 369.047C272.324 368.959 272.435 368.87 272.545 368.826C272.656 368.782 272.766 368.76 272.899 368.76C273.031 368.76 273.142 368.782 273.275 368.804C273.407 368.848 273.54 368.892 273.672 368.937C273.672 368.937 274.446 369.246 274.512 369.379C274.512 369.379 272.634 371.279 272.413 371.301ZM274.114 369.334L273.518 369.091C273.429 369.047 273.319 369.025 273.23 369.003C273.142 368.981 273.053 368.959 272.965 368.959C272.877 368.959 272.81 368.981 272.722 369.003C272.656 369.025 272.567 369.069 272.523 369.135C272.39 369.268 272.346 369.379 272.39 369.489C272.435 369.577 272.589 369.688 272.788 369.776L273.407 370.02L274.114 369.334ZM272.413 371.058L273.275 370.196L272.589 369.909C272.368 369.821 272.192 369.799 272.015 369.799C271.838 369.799 271.683 369.887 271.484 370.086C271.33 370.241 271.285 370.351 271.352 370.484C271.396 370.594 271.528 370.705 271.75 370.771L272.413 371.058Z" fill="#1D71B8"/>
<path d="M268.414 369.753L269.895 370.129C269.895 370.129 271.067 368.118 271.42 368.206C271.42 368.206 270.183 370.328 269.984 370.372C269.962 370.372 268.304 369.952 268.414 369.753Z" fill="#1D71B8"/>
<path d="M267.442 369.732C267.442 369.732 268.216 367.5 268.57 367.566C268.57 367.544 267.796 369.776 267.442 369.732Z" fill="#1D71B8"/>
<path d="M264.634 367.588C264.634 367.521 264.678 367.433 264.744 367.389C264.811 367.322 264.877 367.278 264.987 367.234C265.098 367.19 265.208 367.168 265.363 367.145C265.518 367.123 265.673 367.123 265.849 367.145C266.004 367.168 266.159 367.19 266.291 367.212C266.424 367.256 266.535 367.3 266.645 367.367C266.733 367.433 266.822 367.521 266.866 367.61C266.91 367.698 266.932 367.809 266.932 367.941L266.822 368.98C266.8 369.113 266.756 369.223 266.689 369.311C266.623 369.4 266.535 369.466 266.424 369.51C266.314 369.555 266.181 369.599 266.048 369.599C265.916 369.621 265.761 369.621 265.606 369.599C265.429 369.577 265.275 369.555 265.12 369.51C264.987 369.466 264.855 369.422 264.766 369.356C264.678 369.289 264.612 369.223 264.568 369.157C264.523 369.09 264.501 369.002 264.7 368.803C264.811 368.803 264.877 368.847 264.899 369.046C264.921 369.09 264.943 369.135 264.987 369.179C265.032 369.223 265.098 369.267 265.186 369.311C265.275 369.356 265.407 369.378 265.562 369.378C265.827 369.4 266.026 369.378 266.181 369.311C266.336 369.245 266.402 369.113 266.424 368.936L266.535 367.897C266.557 367.72 266.49 367.588 266.38 367.499C266.247 367.411 266.07 367.344 265.805 367.322C265.65 367.3 265.496 367.3 265.407 367.322C265.297 367.344 265.231 367.366 265.164 367.411C265.098 367.455 265.054 367.499 264.987 367.654C264.987 367.676 264.965 367.698 264.634 367.588Z" fill="#1D71B8"/>
<path d="M257.585 381.643C253.939 379.013 254.226 375.189 258.204 373.112C262.183 371.034 268.393 371.476 272.04 374.106C275.687 376.736 275.399 380.56 271.421 382.638C267.443 384.715 261.232 384.273 257.585 381.643ZM258.359 381.245C261.608 383.588 267.155 383.986 270.714 382.129C274.272 380.273 274.515 376.869 271.266 374.526C268.017 372.183 262.47 371.786 258.912 373.642C255.353 375.477 255.11 378.902 258.359 381.245Z" fill="#1D71B8"/>
<path d="M258.031 369.311L256.594 369.687C256.462 369.731 256.351 369.709 256.241 369.62C256.175 369.576 256.152 369.532 256.13 369.466C256.13 369.399 256.153 369.355 256.307 369.289L257.81 368.957L256.683 368.206C256.617 368.162 256.594 368.095 256.594 368.051C256.617 368.007 256.639 367.963 256.705 367.919C256.771 367.874 256.838 367.874 256.926 367.874C257.014 367.874 257.081 367.897 257.169 367.941L258.208 368.736C258.208 368.736 258.981 367.874 259.048 367.83C259.136 367.786 259.202 367.764 259.313 367.786C259.401 367.808 259.49 367.83 259.6 368.095L258.76 368.913L260.374 369.156C260.462 369.178 260.506 369.201 260.551 369.223C260.617 369.267 260.639 369.333 260.617 369.399C260.595 369.466 260.551 369.51 260.484 369.532C260.418 369.576 260.33 369.576 260.263 369.554L258.65 369.245C258.65 369.245 258.893 370.261 258.805 370.416C258.738 370.46 258.65 370.46 258.562 370.46C258.451 370.46 258.385 370.438 258.23 370.284L258.031 369.311Z" fill="#1D71B8"/>
<path d="M271.024 386.969L269.588 387.345C269.455 387.389 269.345 387.367 269.234 387.279C269.168 387.234 269.146 387.19 269.124 387.124C269.124 387.058 269.146 387.013 269.3 386.947L270.803 386.616L269.676 385.864C269.61 385.82 269.588 385.754 269.588 385.709C269.61 385.665 269.632 385.621 269.698 385.577C269.765 385.533 269.831 385.533 269.919 385.533C270.008 385.533 270.074 385.555 270.162 385.599L271.201 386.395C271.201 386.395 271.975 385.533 272.041 385.488C272.129 385.444 272.196 385.422 272.306 385.444C272.395 385.466 272.483 385.488 272.593 385.754L271.754 386.571L273.345 386.837C273.433 386.859 273.478 386.881 273.522 386.903C273.588 386.947 273.61 387.013 273.588 387.08C273.566 387.146 273.522 387.19 273.455 387.212C273.389 387.257 273.323 387.257 273.234 387.234L271.621 386.925C271.621 386.925 271.864 387.942 271.776 388.096C271.709 388.141 271.621 388.141 271.533 388.141C271.422 388.141 271.356 388.119 271.201 387.964L271.024 386.969Z" fill="#1D71B8"/>
<path d="M291.907 356.292C295.332 357.64 298.559 359.187 301.963 360.58C307.643 362.878 314.45 364.956 321.125 364.116C323.689 363.784 326.451 363.077 327.822 361.619C329.059 360.315 328.883 358.657 326.739 357.574C321.479 354.944 314.34 356.624 309.477 358.215C309.19 358.303 309.433 358.613 309.721 358.502C312.483 357.596 315.467 356.756 318.672 356.579C321.788 356.403 327.38 356.911 328.043 359.431C328.617 361.574 325.302 363.033 322.429 363.563C319.291 364.138 315.821 364.05 312.572 363.475C305.234 362.149 299.377 358.922 293.012 356.358C292.084 355.983 291.133 355.629 290.183 355.298C293.454 355.121 296.504 354.325 298.493 352.667C298.692 352.513 298.25 352.314 298.051 352.469C296.062 354.148 292.791 354.944 289.387 355.01C287.398 354.347 285.343 353.773 283.221 353.242C281.342 352.778 279.464 352.292 277.585 351.828C276.414 351.54 275.286 351.297 274.049 351.43C273.916 351.452 273.806 351.518 273.85 351.607C274.513 352.911 277.541 353.441 279.353 353.905C281.652 354.502 284.061 355.032 286.514 355.231C287.42 355.298 288.348 355.342 289.255 355.32C290.183 355.651 291.045 355.961 291.907 356.292ZM288.326 355.032C287.73 355.01 287.133 354.988 286.558 354.922C284.436 354.723 282.359 354.347 280.348 353.839C279.397 353.596 278.447 353.33 277.519 353.065C276.458 352.756 275.021 352.468 274.491 351.739C276.391 351.629 278.513 352.402 280.281 352.844C283 353.529 285.718 354.215 288.326 355.032Z" fill="#1D71B8"/>
<path d="M263.707 372.227C265.917 369.222 271.442 367.918 276.636 369.133C276.039 370.061 276.282 371.078 277.321 371.94C277.41 372.028 277.653 372.028 277.741 371.94C277.83 371.807 277.94 371.697 277.83 371.542C277.631 371.277 275.951 370.194 277.763 370.172C279.553 370.15 281.543 370.526 283.311 370.724C283.554 370.747 283.642 370.57 283.51 370.459C282.736 369.796 281.896 369.133 281.167 368.47C280.636 367.984 280.482 367.232 281.874 367.409C282.405 367.476 282.935 367.542 283.465 367.63C284.217 367.785 284.924 367.962 285.631 368.183C286.692 368.868 287.908 369.421 289.322 369.818C289.565 369.885 289.786 369.686 289.588 369.575C288.46 368.89 287.223 368.315 285.808 367.873C285.676 367.785 285.543 367.674 285.41 367.586C284.968 367.232 282.869 365.597 285.079 365.42C285.72 365.376 286.383 365.376 287.024 365.442C288.814 365.663 290.538 366.083 292.196 366.614C293.168 366.989 294.163 367.365 295.179 367.719C295.467 367.829 295.754 367.586 295.444 367.453C294.516 367.056 293.544 366.702 292.527 366.37C286.913 364.182 281.786 361.508 277.299 358.436C279.421 358.878 281.277 359.696 283.156 360.469C285.079 361.265 287.046 361.994 289.079 362.657C290.936 363.254 292.836 363.829 294.781 364.337C296.107 364.669 297.61 365.155 299.025 365.133C299.666 365.133 300.307 365 300.815 364.779C301.765 364.823 302.627 364.691 303.268 364.337C305.567 363.033 302.738 361.641 300.859 360.823C299.246 360.116 297.522 359.364 295.71 358.856C294.693 358.569 293.721 358.414 292.836 358.812C292.571 358.922 292.925 359.187 293.19 359.055C294.627 358.414 297.213 359.696 298.472 360.204C299.865 360.757 301.456 361.331 302.605 362.061C303.313 362.503 304.108 363.21 303.357 363.807C302.871 364.182 302.208 364.359 301.456 364.403C302.053 363.939 302.185 363.298 301.235 362.657C299.18 361.265 296.461 359.939 293.61 359.32C292.638 359.099 287.355 358.193 288.107 359.762C288.482 360.536 289.61 361.132 290.582 361.663C291.93 362.392 293.389 363.011 294.958 363.519C296.152 363.917 298.141 364.514 299.953 364.713C298.45 365 296.793 364.536 295.356 364.16C294.008 363.807 292.682 363.453 291.378 363.055C288.505 362.193 285.72 361.199 283.068 360.094C280.99 359.232 278.957 358.37 276.526 358.016C276.305 357.972 276.172 358.171 276.327 358.281C280.283 361.066 284.769 363.519 289.676 365.619C289.499 365.575 289.3 365.531 289.123 365.486C287.731 365.199 285.41 364.713 284.128 365.287C282.78 365.884 283.863 366.901 284.747 367.608C283.598 367.277 282.051 366.923 281.056 367.078C280.261 367.21 279.819 367.608 280.216 368.139C280.813 368.934 281.808 369.664 282.692 370.371C281.565 370.238 280.437 370.128 279.31 369.995C278.47 369.907 277.675 369.774 276.791 370.084C276.813 369.774 276.945 369.487 277.166 369.199C277.233 369.111 277.189 369.001 277.034 368.956C271.464 367.564 265.541 368.956 263.176 372.183C263.088 372.294 263.574 372.404 263.707 372.227ZM296.417 363.564C293.853 362.834 290.892 361.729 289.168 360.293C288.792 359.983 288.018 359.21 289.499 359.165C289.853 359.143 290.206 359.165 290.56 359.165C291.311 359.21 292.041 359.276 292.77 359.431C294.008 359.674 295.201 360.027 296.306 360.469C297.743 361.044 303.047 363.32 300.97 364.403C300.815 364.403 300.66 364.381 300.506 364.381C299.113 364.205 297.721 363.939 296.417 363.564Z" fill="#1D71B8"/>
<path d="M148.758 233.386C133.22 226.821 112.887 261.808 122.656 271.179L104.842 260.151C98.9629 247.199 111.804 222.269 129.242 220.346L148.758 233.386Z" fill="white"/>
<path d="M58.1636 237.209L88.2216 188.607L137.309 224.545C134.104 222.732 129.706 222.997 124.844 225.804C115.075 231.44 107.163 245.165 107.163 256.437C107.163 261.874 109.019 265.764 112.025 267.687L58.1636 237.209Z" fill="#1D1D1B"/>
<path opacity="0.5" d="M211.458 273.101C200.474 275.069 195.391 273.809 185.136 268.88C166.018 272.792 144.027 266.36 153.376 243.309C156.713 244.082 160.139 244.679 163.697 245.077L195.214 265.3L211.458 273.101Z" fill="#FCAF75"/>
<path d="M155.807 239.75C163.83 241.607 172.449 242.446 181.445 242.071C184.804 241.916 188.186 243.021 190.462 245.474C201.027 256.834 210.685 260.459 222.642 261.918C226.267 268.349 219.26 273.101 211.436 273.123C199.259 273.123 198.308 271.311 187.523 265.321C168.449 269.211 133.838 270.891 155.807 239.75Z" fill="#FCAF75"/>
<path d="M413.021 199.415L444.649 184.982L431.587 133.088L399.959 147.52L413.021 199.415Z" fill="#EDEDED"/>
<path d="M405.86 150.947L428.735 140.515L428.337 138.924L405.462 149.378L405.86 150.947Z" fill="#1D1D1B"/>
<path d="M406.946 155.256L429.821 144.824L429.578 143.852L406.703 154.283L406.946 155.256Z" fill="#1D1D1B"/>
<path d="M407.605 157.864L430.458 147.41L430.215 146.438L407.362 156.891L407.605 157.864Z" fill="#1D1D1B"/>
<path d="M408.249 160.449L431.124 150.017L430.88 149.045L408.005 159.499L408.249 160.449Z" fill="#1D1D1B"/>
<path d="M409.575 165.666L432.428 155.234L432.185 154.262L409.332 164.694L409.575 165.666Z" fill="#1D1D1B"/>
<path d="M410.213 168.274L433.088 157.82L432.845 156.848L409.97 167.302L410.213 168.274Z" fill="#1D1D1B"/>
<path d="M425.001 164.428L433.754 160.428L433.511 159.455L424.758 163.455L425.001 164.428Z" fill="#1D1D1B"/>
<path d="M411.544 173.467L434.397 163.035L434.154 162.062L411.301 172.494L411.544 173.467Z" fill="#1D1D1B"/>
<path d="M412.182 176.076L435.057 165.644L434.814 164.672L411.938 175.104L412.182 176.076Z" fill="#1D1D1B"/>
<path d="M418.194 176.229L435.721 168.228L435.478 167.256L417.951 175.257L418.194 176.229Z" fill="#1D1D1B"/>
<path d="M427.476 180.694L437.686 176.03L437.443 175.08L427.232 179.721L427.476 180.694Z" fill="#1D1D1B"/>
<path d="M428.14 183.302L438.328 178.638L438.085 177.666L427.896 182.329L428.14 183.302Z" fill="#1D1D1B"/>
<path d="M413.444 189.468C412.648 186.33 414.24 182.772 416.958 181.512C419.677 180.274 422.55 181.799 423.345 184.938C424.141 188.076 422.55 191.634 419.831 192.894C417.113 194.154 414.24 192.607 413.444 189.468ZM413.776 189.314C414.505 192.231 417.179 193.668 419.721 192.518C422.262 191.347 423.743 188.032 422.992 185.114C422.262 182.197 419.588 180.76 417.046 181.91C414.527 183.059 413.046 186.396 413.776 189.314Z" fill="#1D71B8"/>
<path d="M414.172 189.136C413.487 186.462 414.835 183.412 417.178 182.351C419.499 181.29 421.952 182.594 422.615 185.291C423.3 187.965 421.952 191.015 419.609 192.076C417.288 193.137 414.857 191.811 414.172 189.136ZM414.393 189.026C415.034 191.567 417.355 192.805 419.543 191.811C421.753 190.794 423.013 187.921 422.394 185.379C421.753 182.837 419.432 181.6 417.244 182.594C415.034 183.611 413.752 186.484 414.393 189.026Z" fill="#1D71B8"/>
<path d="M415.875 188.364C415.477 186.773 416.273 184.961 417.665 184.32C419.057 183.679 420.516 184.475 420.914 186.066C421.312 187.657 420.516 189.469 419.124 190.11C417.731 190.729 416.273 189.956 415.875 188.364ZM416.096 188.254C416.472 189.713 417.798 190.42 419.057 189.845C420.317 189.271 421.047 187.613 420.693 186.154C420.317 184.696 418.991 183.988 417.731 184.563C416.472 185.138 415.742 186.795 416.096 188.254Z" fill="#1D71B8"/>
<path d="M416.693 184.452C416.693 184.452 416.296 183.656 416.362 183.59L416.693 184.253C416.693 184.253 416.671 183.413 416.738 183.303C416.738 183.303 417.136 184.098 417.069 184.165L416.738 183.502C416.738 183.502 416.76 184.364 416.738 184.452C416.738 184.474 416.716 184.474 416.693 184.452Z" fill="#1D71B8"/>
<path d="M416.055 184.828L415.812 184.518C415.79 184.474 415.768 184.452 416.188 184.076L416.431 184.386C416.453 184.43 416.475 184.452 416.409 184.805C416.387 184.85 416.365 184.872 416.055 184.828ZM416.122 184.761C416.166 184.806 416.21 184.828 416.254 184.828C416.298 184.828 416.343 184.806 416.387 184.761C416.431 184.717 416.453 184.673 416.453 184.607C416.453 184.562 416.431 184.496 416.387 184.452L416.144 184.142C416.099 184.098 416.055 184.076 416.011 184.076C415.967 184.076 415.923 184.098 415.878 184.142C415.834 184.187 415.812 184.231 415.812 184.297C415.812 184.341 415.834 184.408 415.878 184.452L416.122 184.761Z" fill="#1D71B8"/>
<path d="M415.52 184.606L415.388 184.805C415.388 184.805 416.006 185.292 415.962 185.38L415.343 184.894C415.343 184.894 415.211 185.093 415.167 185.048C415.167 185.048 415.454 184.562 415.52 184.606Z" fill="#1D71B8"/>
<path d="M415.832 185.646L415.633 185.623L415.479 185.999C415.479 185.999 415.611 186.132 415.567 186.22C415.567 186.22 414.948 185.579 414.992 185.469C414.992 185.469 415.832 185.557 415.854 185.623C415.854 185.623 415.854 185.646 415.832 185.646ZM415.567 185.623L415.059 185.579L415.435 185.955L415.567 185.623Z" fill="#1D71B8"/>
<path d="M415.545 186.419L415.191 186.353L415.147 186.529C415.147 186.529 415.457 186.817 415.412 186.927C415.412 186.927 415.125 186.64 414.683 186.463C414.683 186.463 414.749 186.22 414.772 186.176C414.772 186.176 415.567 186.331 415.545 186.419ZM414.749 186.463C414.727 186.529 414.727 186.574 414.749 186.618C414.772 186.662 414.794 186.684 414.86 186.706C414.926 186.728 414.97 186.706 414.993 186.684C415.037 186.64 415.059 186.596 415.059 186.529L415.103 186.331L414.772 186.264L414.749 186.463Z" fill="#1D71B8"/>
<path d="M415.39 187.369L415.08 187.391C415.08 187.391 414.594 187.701 414.55 187.634L415.014 187.347C415.014 187.347 414.594 187.104 414.616 187.016L415.08 187.303C415.102 187.281 415.412 187.281 415.39 187.369Z" fill="#1D71B8"/>
<path d="M415.433 188.143L415.123 188.253C415.123 188.253 415.168 188.452 415.079 188.762C415.057 188.784 415.013 188.806 414.659 188.651C414.659 188.651 414.615 188.408 414.637 188.342C414.615 188.364 415.411 188.054 415.433 188.143ZM414.703 188.629C414.725 188.695 414.748 188.74 414.77 188.762C414.814 188.784 414.858 188.784 414.924 188.762C414.991 188.74 415.035 188.695 415.057 188.651C415.079 188.607 415.079 188.563 415.079 188.497L415.035 188.298L414.659 188.43L414.703 188.629Z" fill="#1D71B8"/>
<path d="M415.543 189.314C415.61 189.27 415.632 189.226 415.654 189.181C415.676 189.137 415.654 189.071 415.632 189.027C415.61 188.96 415.588 188.938 415.543 188.916C415.499 188.894 415.455 188.916 415.389 188.96C415.389 188.96 414.836 189.314 414.814 189.248L415.367 188.894C415.411 188.872 415.455 188.85 415.676 189.336C415.654 189.38 415.61 189.402 415.565 189.424C415.565 189.424 415.013 189.778 414.991 189.712L415.543 189.314Z" fill="#1D71B8"/>
<path d="M415.895 189.402C415.895 189.402 416.028 189.601 416.05 189.911C416.028 189.955 416.006 189.977 415.696 190.22C415.674 190.264 415.652 190.308 415.298 190.286C415.298 190.286 415.188 190.11 415.188 190.065C415.188 190.065 415.851 189.402 415.895 189.402ZM415.851 189.491L415.564 189.778L415.674 189.933C415.696 189.977 415.741 189.999 415.785 190.021C415.829 190.021 415.873 189.999 415.939 189.933C415.984 189.889 416.028 189.822 416.028 189.778C416.028 189.734 416.028 189.69 415.984 189.645L415.851 189.491ZM415.276 190.087C415.276 190.087 415.365 190.22 415.586 190.264C415.63 190.22 415.652 190.176 415.652 190.132C415.652 190.087 415.63 190.043 415.608 189.999L415.519 189.866L415.276 190.087Z" fill="#1D71B8"/>
<path d="M416.516 190.287L416.251 190.044C416.251 190.044 415.72 190.796 415.676 190.729C415.676 190.729 416.229 189.934 416.273 189.934C416.295 189.934 416.582 190.199 416.516 190.287Z" fill="#1D71B8"/>
<path d="M416.716 190.353C416.716 190.353 416.252 191.215 416.186 191.171C416.186 191.149 416.65 190.309 416.716 190.353Z" fill="#1D71B8"/>
<path d="M416.562 191.238C416.562 191.193 416.584 191.149 416.606 191.105L416.783 190.685C416.805 190.641 416.827 190.597 417.092 190.597C417.048 190.575 417.004 190.575 416.96 190.597C416.916 190.619 416.894 190.663 416.849 190.729L416.673 191.149C416.65 191.215 416.628 191.282 416.65 191.326C416.673 191.37 416.695 191.414 416.96 191.348C416.96 191.326 416.96 191.304 416.562 191.238Z" fill="#1D71B8"/>
<path d="M419.943 190.088C419.943 190.088 420.297 190.928 420.23 190.972L419.943 190.287C419.943 190.287 419.921 191.149 419.855 191.237C419.855 191.237 419.501 190.397 419.567 190.353L419.855 191.038C419.855 191.038 419.877 190.176 419.899 190.088C419.899 190.088 419.921 190.088 419.943 190.088Z" fill="#1D71B8"/>
<path d="M420.608 189.755L420.851 190.086C420.873 190.13 420.895 190.175 420.453 190.506L420.21 190.175C420.188 190.13 420.166 190.086 420.254 189.755C420.276 189.711 420.298 189.688 420.608 189.755ZM420.541 189.821C420.497 189.777 420.453 189.733 420.409 189.733C420.364 189.733 420.32 189.755 420.276 189.799C420.232 189.843 420.21 189.887 420.21 189.932C420.21 189.976 420.232 190.042 420.254 190.086L420.497 190.418C420.541 190.462 420.585 190.506 420.63 190.506C420.674 190.506 420.718 190.484 420.762 190.44C420.806 190.396 420.829 190.351 420.829 190.307C420.829 190.263 420.806 190.197 420.784 190.153L420.541 189.821Z" fill="#1D71B8"/>
<path d="M421.114 190.02L421.247 189.821C421.247 189.821 420.65 189.291 420.717 189.225L421.313 189.755C421.313 189.755 421.446 189.556 421.512 189.6C421.49 189.6 421.181 190.087 421.114 190.02Z" fill="#1D71B8"/>
<path d="M420.85 188.96L421.048 189.004L421.225 188.651C421.225 188.651 421.093 188.496 421.159 188.43C421.159 188.43 421.734 189.115 421.689 189.225C421.689 189.225 420.85 189.093 420.85 189.004C420.827 188.982 420.827 188.96 420.85 188.96ZM421.115 189.004L421.601 189.093L421.247 188.695L421.115 189.004Z" fill="#1D71B8"/>
<path d="M421.201 188.187L421.555 188.297L421.599 188.12C421.599 188.12 421.312 187.811 421.356 187.723C421.356 187.723 421.644 188.032 422.063 188.253C422.063 188.253 421.997 188.496 421.953 188.518C421.953 188.518 421.157 188.297 421.201 188.187ZM421.975 188.209C421.997 188.143 421.997 188.098 421.975 188.054C421.953 188.01 421.931 187.988 421.865 187.966C421.798 187.944 421.754 187.966 421.732 187.988C421.688 188.01 421.666 188.076 421.644 188.12L421.599 188.319L421.909 188.408L421.975 188.209Z" fill="#1D71B8"/>
<path d="M421.38 187.259H421.69C421.69 187.259 422.198 186.971 422.22 187.06L421.756 187.303C421.756 187.303 422.176 187.59 422.132 187.657C422.132 187.657 421.69 187.347 421.668 187.347C421.69 187.369 421.38 187.347 421.38 187.259Z" fill="#1D71B8"/>
<path d="M421.38 186.484L421.712 186.395C421.712 186.395 421.69 186.196 421.778 185.887C421.8 185.865 421.845 185.843 422.198 186.042C422.198 186.042 422.242 186.307 422.22 186.351C422.22 186.329 421.402 186.572 421.38 186.484ZM422.132 186.042C422.132 185.975 422.11 185.931 422.066 185.909C422.021 185.887 421.977 185.887 421.911 185.909C421.845 185.931 421.8 185.953 421.778 185.998C421.756 186.042 421.734 186.086 421.756 186.152L421.778 186.351L422.154 186.241L422.132 186.042Z" fill="#1D71B8"/>
<path d="M421.336 185.314C421.27 185.336 421.248 185.38 421.226 185.447C421.203 185.491 421.203 185.557 421.226 185.601C421.248 185.668 421.27 185.69 421.314 185.712C421.358 185.734 421.402 185.712 421.469 185.69C421.469 185.69 422.021 185.38 422.065 185.447L421.513 185.756C421.469 185.778 421.424 185.8 421.226 185.292C421.248 185.27 421.292 185.225 421.336 185.203C421.336 185.203 421.889 184.872 421.933 184.96L421.336 185.314Z" fill="#1D71B8"/>
<path d="M420.982 185.18C420.982 185.18 420.85 184.959 420.85 184.672C420.872 184.628 420.894 184.606 421.225 184.385C421.247 184.341 421.27 184.296 421.623 184.341C421.623 184.341 421.734 184.517 421.734 184.584C421.734 184.562 421.026 185.18 420.982 185.18ZM421.645 184.539C421.645 184.539 421.557 184.407 421.358 184.341C421.314 184.385 421.292 184.429 421.27 184.473C421.27 184.517 421.27 184.562 421.314 184.606L421.402 184.761L421.645 184.539ZM421.026 185.07L421.336 184.783L421.247 184.628C421.225 184.584 421.181 184.539 421.137 184.539C421.093 184.539 421.049 184.562 420.982 184.606C420.938 184.65 420.894 184.694 420.894 184.738C420.894 184.783 420.894 184.827 420.938 184.893L421.026 185.07Z" fill="#1D71B8"/>
<path d="M420.407 184.251L420.65 184.516C420.65 184.516 421.202 183.809 421.269 183.875C421.269 183.875 420.672 184.627 420.628 184.627C420.628 184.627 420.363 184.317 420.407 184.251Z" fill="#1D71B8"/>
<path d="M420.233 184.185C420.233 184.185 420.741 183.368 420.808 183.412C420.785 183.39 420.277 184.23 420.233 184.185Z" fill="#1D71B8"/>
<path d="M420.43 183.28C420.43 183.324 420.408 183.368 420.386 183.412L420.187 183.81C420.165 183.854 420.143 183.899 419.878 183.877C419.922 183.899 419.966 183.921 420.011 183.899C420.055 183.877 420.099 183.832 420.121 183.766L420.298 183.368C420.32 183.302 420.342 183.236 420.32 183.191C420.32 183.147 420.276 183.103 420.011 183.147C420.055 183.191 420.033 183.191 420.43 183.28Z" fill="#1D71B8"/>
<path d="M416.315 188.142C415.983 186.838 416.646 185.335 417.796 184.804C418.945 184.274 420.138 184.937 420.47 186.241C420.802 187.545 420.138 189.048 418.989 189.578C417.862 190.109 416.646 189.468 416.315 188.142ZM416.536 188.053C416.823 189.225 417.906 189.799 418.923 189.335C419.94 188.871 420.536 187.545 420.227 186.374C419.94 185.202 418.857 184.628 417.84 185.092C416.845 185.556 416.249 186.882 416.536 188.053Z" fill="#1D71B8"/>
<path d="M418.371 183.302C418.371 183.302 418.017 183.346 418.017 183.169L418.371 183.147C418.371 183.147 418.26 182.771 418.393 182.705L418.481 183.103C418.481 183.103 418.769 182.816 418.857 182.948L418.548 183.213C418.548 183.213 418.835 183.434 418.746 183.589L418.459 183.346C418.459 183.346 418.349 183.766 418.216 183.722L418.371 183.302Z" fill="#1D71B8"/>
<path d="M418.239 191.28C418.239 191.28 417.886 191.325 417.886 191.148L418.239 191.126C418.239 191.126 418.129 190.75 418.261 190.684L418.35 191.081C418.35 191.081 418.637 190.794 418.726 190.927L418.416 191.192C418.416 191.192 418.703 191.413 418.615 191.568L418.328 191.325C418.328 191.325 418.217 191.744 418.085 191.7L418.239 191.28Z" fill="#1D71B8"/>
<path d="M422.994 193.712L420.254 200.541L420.077 200.984L419.215 200.718C418.596 200.387 408.805 194.883 408.628 194.685C406.507 192.43 405.379 189.314 404.12 186.087L404.827 179.258C404.827 179.258 405.932 176.119 407.369 177.07L408.385 180.319L412.253 182.153L414.64 182.816L413.226 180.208C411.281 176.141 413.491 174.196 414.574 175.699L416.452 179.589L420.696 184.695L422.994 193.712Z" fill="#FCAF75"/>
<path opacity="0.3" d="M404.141 186.064L409.18 190.706C413.092 194.375 416.805 195.966 420.253 194.905V200.541L420.076 200.983L419.214 200.718C418.596 200.386 408.805 194.883 408.628 194.684C405.799 190.993 404.915 188.054 404.141 186.064Z" fill="#FCAF75"/>
<path d="M519.443 228.169L518.935 234.203L517.741 237.762L515.111 242.513C514.316 243.839 512.989 243.574 513.034 242.359L511.752 244.613C510.603 246.381 508.923 244.878 509.829 243.044L511.752 238.336L508.547 244.215C507.287 245.939 505.608 244.834 506.337 242.513L508.923 235.971L506.072 241.099C505.21 242.27 503.265 241.541 503.817 239.375L506.713 230.866C506.713 230.866 507.133 229.054 506.425 227.639C505.851 226.512 501.497 228.855 501.497 228.855C499.972 229.739 498.579 230.512 497.518 231.153C496.06 231.374 495.441 230.999 495.64 230.026L498.646 226.888L502.027 223.926L503.508 222.622C505.961 221.053 508.282 219.815 510.094 219.55L510.271 218.931L510.647 217.693L513.918 218.202L518.802 218.953L518.559 222.688L518.846 224.434L519.443 228.169Z" fill="#FCAF75"/>
<path opacity="0.3" d="M505.936 227.109L512.567 225.584L516.125 231.573L513.053 242.381C513.164 239.508 513.296 236.06 511.395 235.375L508.102 234.911L510.799 233.098L510.379 230.424L504.632 229.518L505.936 227.109Z" fill="#FCAF75"/>
<path d="M504.525 147.52L506.492 171.146L508.106 190.772C509.542 202.155 511.178 211.327 510.139 217.272C510.073 217.869 510.117 218.421 510.25 218.93C510.692 220.41 512.018 221.582 513.83 222.532C515.267 223.328 517.013 223.947 518.825 224.411C521.654 212.697 523.864 201.447 522.914 192.319L521.013 169.135C520.505 155.896 517.344 145.84 504.525 147.52Z" fill="white"/>
<path opacity="0.3" d="M502.004 223.926L513.828 222.556C512.016 221.605 510.69 220.434 510.248 218.953L510.049 219.572C508.237 219.815 505.938 221.053 503.463 222.622L502.004 223.926Z" fill="#FCAF75"/>
<path opacity="0.3" d="M508.104 190.795C509.54 202.178 511.176 211.35 510.137 217.295C510.071 217.892 510.115 218.444 510.248 218.953C510.69 220.433 512.016 221.605 513.828 222.555C513.806 221.096 513.85 219.638 513.894 218.201C514.646 196.21 521.276 177.777 513.718 167.633L506.468 171.147L508.104 190.795Z" fill="#3C3C3B"/>
<path d="M449.051 362.303C449.051 358.06 452.322 356.424 457.184 355.916C461.428 355.916 467.13 357.817 474.622 359.541L483.153 364.204C484.767 368.58 484.723 372.492 483.772 376.073C481.363 378.15 478.335 379.432 475.506 378.681L465.914 374.614L465.229 373.221C457.582 372.404 449.051 368.934 449.051 362.303Z" fill="#1D1D1B"/>
<path d="M480.214 345.307C480.214 341.837 483.309 341.24 487.95 340.887C496.304 340.887 496.68 345.064 504.371 344.887L511.93 349.484C513.477 353.927 513.168 358.656 512.262 362.215C509.963 364.204 506.471 364.646 503.841 364.27L496.061 359.695L495.398 358.281C488.105 357.198 480.214 351.761 480.214 345.307Z" fill="#1D1D1B"/>
<path d="M507.616 227.107L479.746 238.755C479.702 243.706 479.835 248.347 480.299 251.795C482.067 264.636 487.239 284.041 487.239 284.041C490.974 300.551 492.477 321.017 493.339 342.61C493.471 350.39 505.053 357.197 512.457 349.837C514.578 323.492 514.578 297.899 508.368 280.969C511.329 267.597 508.523 252.657 507.705 237.252C508.434 236.943 506.821 227.439 507.616 227.107Z" fill="#1D1D1B"/>
<path d="M486.775 254.78C486.753 270.185 486.93 282.606 483.217 295.977C488.477 312.907 487.063 338.103 483.46 364.404C478.907 369.377 472.431 369.443 468.387 366.459C465.801 364.558 464.188 361.42 464.74 357.53L461.889 299.05C461.889 299.05 457.778 279.666 456.739 266.848C455.7 254.029 460.231 224.7 460.231 224.7C462.729 225.385 465.226 225.871 467.702 226.159C484.278 228.258 499.528 222.335 504.258 212.854C504.501 213.539 504.722 214.246 504.965 214.953C506.777 220.655 507.816 226.601 508.059 232.745C508.612 246.293 495.351 251.288 486.775 254.78Z" fill="#3C3C3B"/>
<path d="M456.611 175.7C457.959 184.275 458.025 192.541 458.092 200.387C458.136 203.371 458.158 206.266 458.268 209.139C458.512 214.621 458.998 219.836 460.236 224.743C462.622 225.804 464.965 226.688 467.308 227.417C481.63 231.926 494.648 229.716 504.991 214.996C507.378 208.896 514.34 188.209 516.108 166.749C516.064 156.913 512.859 149.907 504.505 147.564C489.608 151.145 474.425 160.405 459.02 173.644C458.202 174.307 457.406 174.992 456.611 175.7Z" fill="white"/>
<path d="M472.564 148.604L473.978 162.02C482.664 161.953 496.235 155.942 494.533 151.323L489.958 142.57L472.564 148.604Z" fill="#FCAF75"/>
<path d="M468.412 150.283C471.86 154.195 477.054 153.687 482.336 152.272C490.072 148.692 495.641 143.409 494.868 133.353C495.487 126.038 492.171 118.39 479.706 118.788C471.772 119.031 465.031 121.927 464.544 130.392C464.589 130.392 464.169 146.393 468.412 150.283Z" fill="#FCAF75"/>
<path d="M473.494 157.422L470.333 164.583C485.185 162.903 498.49 157.334 495.175 150.482L492.457 147.344C494.534 152.272 479.903 158.173 473.494 157.422Z" fill="#C6C6C6"/>
<path d="M464.628 128.314C465.247 131.231 467.126 133.464 469.69 135.386C469.69 135.386 469.093 141.973 469.447 142.083C469.8 142.194 473.226 145.155 473.226 145.155L474.994 150.128C480.917 154.394 489.714 151.145 492.388 147.277C493.979 145.288 495.659 137.221 495.239 129.53C494.289 123.076 489.647 116.799 479.724 116.379C469.911 115.959 463.789 121.684 464.628 128.314Z" fill="black"/>
<path d="M470.512 143.034C469.562 141.973 471.021 139.52 472.081 139.166C473.562 138.68 474.38 140.824 474.535 142.017C474.734 143.587 474.535 144.824 473.673 146.128C472.656 147.631 471.065 146.15 470.579 144.957C470.225 144.051 471.109 143.697 470.512 143.034Z" fill="#FCAF75"/>
<path d="M467.748 195.923C467.416 197.602 466.974 199.371 466.422 201.205C463.924 204.233 461.228 206.885 458.311 209.117C453.183 213.074 447.37 215.814 440.85 217.295C430.662 213.295 427.435 210.377 418.749 200.409C417.423 197.757 418.174 194.95 422.219 191.878C430.905 195.017 433.888 194.663 439.723 197.404C446.111 186.994 452.52 176.098 459.018 173.578C467.24 177.711 469.803 185.38 467.748 195.923Z" fill="white"/>
<path opacity="0.25" d="M456.766 266.847C457.804 279.688 461.915 299.049 461.915 299.049L464.744 357.551C464.192 361.419 465.805 364.558 468.413 366.481C465.871 341.882 464.744 318.808 468.413 300.95C462.91 280.682 460.412 259.465 466.733 243.817C466.667 237.562 465.982 231.926 467.308 227.373C464.987 226.644 462.623 225.76 460.236 224.699C460.258 224.721 455.727 254.028 456.766 266.847Z" fill="black"/>
<path opacity="0.3" d="M418.726 200.432C426.616 208.919 429.953 212.875 440.827 217.295C447.369 215.836 453.16 213.074 458.265 209.118C458.508 214.599 458.995 219.815 460.232 224.721C462.619 225.782 464.962 226.666 467.305 227.396C467.393 226.998 467.548 226.578 467.703 226.202C469.051 222.732 471.836 220.058 477.339 218.378C471.283 214.908 469.294 206.775 467.725 195.967C467.393 193.602 467.062 191.127 466.708 188.541C463.879 193.801 461.205 197.448 458.088 200.41C453.491 204.786 447.944 207.659 439.567 212.013C436.34 213.67 428.959 203.791 418.726 200.432Z" fill="#3C3C3B"/>
<defs>
<linearGradient id="paint0_linear_154_95728" x1="373.086" y1="313.025" x2="53.1123" y2="313.025" gradientUnits="userSpaceOnUse">
<stop/>
<stop offset="1" stop-color="white"/>
</linearGradient>
</defs>
</svg>
