<svg width="64" height="64" viewBox="0 0 64 64" fill="none" xmlns="http://www.w3.org/2000/svg">
<rect width="64" height="64" rx="32" fill="url(#paint0_linear_154_52601)"/>
<path d="M53.7193 40.8402L52.3599 37.9095C52.1657 37.4857 51.742 37.2209 51.283 37.2209H44.8036V35.4907H47.9903C48.6436 35.4907 49.182 34.9611 49.182 34.299C49.182 33.6458 48.6524 33.1074 47.9903 33.1074H44.8036V31.2536H51.283C51.7508 31.2536 52.1657 30.9799 52.3599 30.5651L53.7105 27.6255C53.9841 27.0253 53.7281 26.3191 53.1279 26.0454C52.5276 25.7718 51.8214 26.0366 51.5478 26.628L50.515 28.879H44.8036V26.9105H47.9903C48.6436 26.9105 49.182 26.3809 49.182 25.7188C49.182 25.0656 48.6524 24.5271 47.9903 24.5271H44.8036V23.459C44.8036 21.5699 43.2677 20.034 41.3786 20.034H40.1075V16.8296C40.1075 16.1764 39.5778 15.6379 38.9158 15.6379C38.2537 15.6379 37.7241 16.1676 37.7241 16.8296V20.034H35.7556V14.305L37.9977 13.2722C38.598 12.9985 38.854 12.2923 38.5803 11.6921C38.3067 11.0918 37.6005 10.8358 37.0002 11.1095L34.0695 12.4601C33.6458 12.6543 33.381 13.078 33.381 13.537V20.0251H31.5272V16.8296C31.5272 16.1764 30.9976 15.6379 30.3355 15.6379C29.6823 15.6379 29.1438 16.1676 29.1438 16.8296V20.034H27.4137V13.5458C27.4137 13.078 27.14 12.6631 26.7251 12.4689L23.7856 11.1183C23.1854 10.8447 22.4792 11.1095 22.2055 11.7009C21.9319 12.3012 22.1879 13.0074 22.7881 13.281L25.0303 14.3138V20.0428H23.4678C21.7377 20.0428 20.1046 21.411 20.0163 22.4968C20.0163 22.5233 20.0163 22.5586 20.0163 22.5851V24.5359H16.8296C16.1764 24.5359 15.6379 25.0656 15.6379 25.7276C15.6379 26.3809 16.1676 26.9193 16.8296 26.9193H20.0163V28.879H14.305L13.2722 26.6369C12.9985 26.0366 12.2923 25.7806 11.6921 26.0543C11.0918 26.3279 10.8358 27.0341 11.1095 27.6344L12.4601 30.5651C12.6543 30.9888 13.078 31.2536 13.537 31.2536H20.0163V33.1074H16.8296C16.1764 33.1074 15.6379 33.637 15.6379 34.299C15.6379 34.9523 16.1676 35.4907 16.8296 35.4907H20.0163V37.2209H13.5458C13.078 37.2209 12.6631 37.4946 12.4689 37.9095L11.1183 40.849C10.8447 41.4492 11.1006 42.1554 11.7009 42.4291C12.3012 42.7027 13.0074 42.4379 13.281 41.8465L14.3138 39.6043H20.0251V40.5047C20.0693 43.6737 21.9142 44.7948 23.4767 44.7948H25.0391V50.5238L22.7881 51.5478C22.1879 51.8214 21.9319 52.5276 22.2055 53.1279C22.4792 53.7282 23.1854 53.9841 23.7856 53.7105L26.7251 52.3599C27.1489 52.1657 27.4137 51.742 27.4137 51.283V44.7948H29.1438V47.9992C29.1438 48.6524 29.6735 49.1909 30.3355 49.1909C30.9888 49.1909 31.5272 48.6612 31.5272 47.9992V44.7948H33.381V51.283C33.381 51.7508 33.6546 52.1657 34.0695 52.3599L37.0091 53.7105C37.6093 53.9841 38.3155 53.7193 38.5892 53.1279C38.8628 52.5276 38.6068 51.8214 38.0066 51.5478L35.7644 50.515V44.786H37.7329V47.9903C37.7329 48.6436 38.2625 49.182 38.9246 49.182C39.5867 49.182 40.1163 48.6524 40.1163 47.9903V44.786H41.3874C43.2765 44.786 44.8125 43.25 44.8125 41.361V39.5955H50.5238L51.5566 41.8376C51.8303 42.4379 52.5364 42.6939 53.1367 42.4203C53.737 42.1466 53.993 41.4404 53.7193 40.8402ZM42.4291 41.361H42.4203C42.4203 41.9347 41.9524 42.4114 41.3698 42.4114H23.4767C22.5321 42.4114 22.4085 41.052 22.3997 40.4782V22.8852C22.5851 22.7087 23 22.4085 23.4767 22.4085H41.3786C41.9524 22.4085 42.4291 22.8764 42.4291 23.459V41.361Z" fill="white"/>
<defs>
<linearGradient id="paint0_linear_154_52601" x1="32" y1="0" x2="32" y2="64" gradientUnits="userSpaceOnUse">
<stop stop-color="#5CBFD4"/>
<stop offset="1" stop-color="#6C63FF"/>
</linearGradient>
</defs>
</svg>
