<svg width="64" height="64" viewBox="0 0 64 64" fill="none" xmlns="http://www.w3.org/2000/svg">
<rect width="64" height="64" rx="32" fill="url(#paint0_linear_154_52609)"/>
<path d="M38.2032 36.905C38.3031 36.5316 38.2518 36.1419 38.0586 35.8073L35.0471 30.5908C34.7894 30.1446 34.3089 29.8671 33.7928 29.8671C33.5404 29.8671 33.2908 29.9343 33.0712 30.0612L31.5013 30.9677C30.8633 30.4996 30.1733 30.0986 29.4419 29.7746V27.966C29.4419 27.1683 28.7928 26.5195 27.9953 26.5195H21.9716C21.1742 26.5195 20.5253 27.1683 20.5253 27.966V29.7745C19.7938 30.0985 19.1039 30.4996 18.4658 30.9677L16.8959 30.0613C16.6763 29.9344 16.4266 29.8673 16.1742 29.8673C15.6582 29.8673 15.1777 30.1446 14.92 30.5909L11.9084 35.8072C11.7152 36.1419 11.6638 36.5316 11.7637 36.905C11.8638 37.2782 12.1031 37.5902 12.4376 37.7832L14.0031 38.6869C13.961 39.0785 13.9386 39.4758 13.9386 39.8784C13.9386 40.2809 13.9608 40.6784 14.0031 41.07L12.4376 41.9738C12.1029 42.1669 11.8638 42.4788 11.7637 42.8521C11.6638 43.2252 11.7152 43.6152 11.9084 43.9497L14.9199 49.1662C15.1776 49.6125 15.6582 49.8898 16.1741 49.8898C16.4265 49.8898 16.6761 49.8228 16.8958 49.6958L18.4658 48.7894C19.1038 49.2573 19.7938 49.6585 20.5252 49.9825V51.791C20.5252 52.1774 20.6757 52.5406 20.949 52.8138C21.2222 53.0869 21.5855 53.2376 21.9715 53.2376H27.9952C28.7927 53.2376 29.4418 52.5886 29.4418 51.791V49.9824C30.1732 49.6584 30.8631 49.2573 31.5011 48.7893L33.0711 49.6957C33.2907 49.8227 33.5404 49.8897 33.7927 49.8897C34.3089 49.8897 34.7893 49.6125 35.047 49.1661L38.0585 43.9496C38.2517 43.6151 38.303 43.2252 38.2031 42.852C38.1032 42.4787 37.8638 42.1666 37.5294 41.9737L35.9639 41.0697C36.006 40.6782 36.0283 40.2807 36.0283 39.8781C36.0283 39.4756 36.0061 39.0781 35.9639 38.6867L37.5294 37.7828C37.864 37.5902 38.1033 37.2783 38.2032 36.905ZM24.9835 46.1602C21.5142 46.1602 18.7021 43.3479 18.7021 39.8786C18.7021 36.4096 21.5144 33.5972 24.9835 33.5972C28.4526 33.5972 31.265 36.4096 31.265 39.8786C31.265 43.3477 28.4527 46.1602 24.9835 46.1602Z" fill="white"/>
<path d="M30.2661 22.046C30.2 22.2931 30.2341 22.5511 30.3619 22.7724L32.3546 26.2242C32.5254 26.5197 32.8431 26.7029 33.1846 26.7029C33.3517 26.7029 33.5167 26.6586 33.6623 26.5747L34.7019 25.9745C35.1238 26.284 35.5802 26.5487 36.0639 26.7629V27.9612C36.0639 28.2168 36.1633 28.4571 36.3443 28.638C36.5251 28.8188 36.7654 28.9182 37.021 28.9182H41.0068C41.5346 28.9182 41.9641 28.4889 41.9641 27.9612V26.7629C42.4478 26.5486 42.9041 26.2839 43.3261 25.9744L44.3658 26.5747C44.5111 26.6587 44.6762 26.7029 44.8433 26.7029C45.1848 26.7029 45.5028 26.5196 45.6733 26.2242L47.666 22.7724C47.7939 22.5511 47.8279 22.2931 47.7618 22.046C47.6956 21.799 47.5374 21.5927 47.316 21.4648L46.2796 20.8664C46.3074 20.6074 46.3227 20.3446 46.3227 20.0783C46.3227 19.812 46.3074 19.5493 46.2796 19.2902L47.316 18.6919C47.5374 18.5641 47.6956 18.3576 47.7618 18.1106C47.8279 17.8636 47.7938 17.6057 47.666 17.3843L45.6733 13.9325C45.5028 13.6371 45.1849 13.4536 44.8433 13.4536C44.6762 13.4536 44.5111 13.498 44.3658 13.5821L43.3261 14.1823C42.9041 13.8729 42.4479 13.6082 41.9641 13.394V12.1955C41.9641 11.6677 41.5346 11.2383 41.0068 11.2383H37.021C36.4932 11.2383 36.0639 11.6677 36.0639 12.1955V13.3939C35.5803 13.6082 35.1238 13.8729 34.702 14.1822L33.6623 13.582C33.5167 13.4978 33.3518 13.4535 33.1846 13.4535C32.8433 13.4535 32.5254 13.6371 32.3546 13.9323L30.3619 17.3841C30.2341 17.6056 30.2 17.8635 30.2661 18.1105C30.3324 18.3576 30.4907 18.564 30.7119 18.6918L31.7483 19.2901C31.7205 19.5491 31.7052 19.8119 31.7052 20.0782C31.7052 20.3446 31.7205 20.6073 31.7483 20.8663L30.7119 21.4647C30.4907 21.5927 30.3324 21.799 30.2661 22.046ZM39.0138 15.9218C41.3096 15.9218 43.1705 17.7828 43.1705 20.0783C43.1705 22.3739 41.3096 24.2349 39.0138 24.2349C36.7182 24.2349 34.8573 22.3739 34.8573 20.0783C34.8573 17.7828 36.7182 15.9218 39.0138 15.9218Z" fill="white"/>
<path d="M51.8004 35.4286L51.0869 35.0166C51.1062 34.8384 51.1167 34.6574 51.1167 34.474C51.1167 34.2907 51.1062 34.1098 51.0869 33.9314L51.8004 33.5195C51.9527 33.4315 52.0617 33.2895 52.1072 33.1194C52.1529 32.9493 52.1293 32.7718 52.0414 32.6194L50.6696 30.2433C50.5521 30.0399 50.3334 29.9136 50.0984 29.9136C49.9834 29.9136 49.8698 29.9442 49.7695 30.0021L49.0539 30.4153C48.7634 30.2022 48.4493 30.02 48.1164 29.8725V29.0476C48.1164 28.6844 47.8208 28.3887 47.4576 28.3887H44.7139C44.3505 28.3887 44.055 28.6844 44.055 29.0476V29.8725C43.7219 30.02 43.408 30.2022 43.1174 30.4153L42.4017 30.0021C42.3017 29.9442 42.188 29.9136 42.073 29.9136C41.838 29.9136 41.619 30.0399 41.5018 30.2433L40.1301 32.6194C40.0418 32.7718 40.0184 32.9493 40.064 33.1194C40.1097 33.2895 40.2186 33.4315 40.3709 33.5195L41.0846 33.9314C41.0653 34.1097 41.0548 34.2905 41.0548 34.4739C41.0548 34.6573 41.0653 34.8381 41.0846 35.0164L40.3709 35.4283C40.2186 35.5162 40.1096 35.6581 40.064 35.8283C40.0184 35.9984 40.042 36.176 40.1301 36.3283L41.5018 38.7044C41.6191 38.9078 41.838 39.0341 42.073 39.0341C42.188 39.0341 42.3016 39.0033 42.4017 38.9456L43.1174 38.5324C43.408 38.7455 43.7219 38.9276 44.055 39.0752V39.9001C44.055 40.076 44.1235 40.2416 44.2479 40.366C44.3724 40.4906 44.538 40.559 44.7139 40.559H47.4576C47.8208 40.559 48.1164 40.2634 48.1164 39.9001V39.0752C48.4493 38.9277 48.7635 38.7455 49.0539 38.5324L49.7695 38.9456C49.8697 39.0033 49.9834 39.0341 50.0984 39.0341C50.3334 39.0341 50.5522 38.9078 50.6696 38.7044L52.0414 36.3283C52.1294 36.176 52.1529 35.9984 52.1072 35.8283C52.0617 35.6583 51.9527 35.5163 51.8004 35.4286ZM46.0857 37.3353C44.5053 37.3353 43.2245 36.0541 43.2245 34.474C43.2245 32.8937 44.5053 31.6126 46.0857 31.6126C47.666 31.6126 48.9469 32.8939 48.9469 34.474C48.9469 36.0542 47.6659 37.3353 46.0857 37.3353Z" fill="white"/>
<defs>
<linearGradient id="paint0_linear_154_52609" x1="32" y1="0" x2="32" y2="64" gradientUnits="userSpaceOnUse">
<stop stop-color="#5CBFD4"/>
<stop offset="1" stop-color="#6C63FF"/>
</linearGradient>
</defs>
</svg>
