<svg width="452" height="459" viewBox="0 0 452 459" fill="none" xmlns="http://www.w3.org/2000/svg">
<path d="M250.945 282.777C361.716 261.234 440.902 189.2 427.811 121.885C414.719 54.5704 314.309 17.4645 203.537 39.0072C92.7654 60.5499 13.5799 132.583 26.6712 199.898C39.7625 267.213 140.173 304.319 250.945 282.777Z" fill="#F9F9FF"/>
<path d="M43.2678 370.612C43.2678 370.612 403.674 370.868 407.727 370.868C409.966 370.868 475.75 292.273 439.159 183.607C438.082 180.376 436.665 177.372 435.248 174.452C434.568 173.064 433.887 171.675 433.15 170.343C430.996 166.346 428.701 162.577 426.32 159.091C425.129 157.362 423.911 155.689 422.692 154.074C387.122 107.507 331.287 108.47 311.588 118.617C289.821 129.841 275.82 103.454 243.764 103.085C241.44 103.057 239.229 103.114 237.075 103.227C236.509 103.255 235.942 103.312 235.403 103.34C190.026 106.855 185.35 143.134 148.476 139.874C109.448 136.416 73.9347 112.07 31.9591 162.577C-46.0401 256.448 43.2678 370.612 43.2678 370.612Z" fill="#E9E9E9"/>
<path d="M20.5938 371.237H431.677C431.989 371.237 432.244 370.982 432.244 370.67V370.188C432.244 369.876 431.989 369.621 431.677 369.621H20.5938C20.282 369.621 20.0269 369.876 20.0269 370.188V370.67C20.0269 370.982 20.282 371.237 20.5938 371.237Z" fill="#151F2C"/>
<g opacity="0.5">
<path d="M347.061 121.065L360.492 172.444C361.084 174.71 359.713 177.052 357.447 177.644L267.315 201.206C265.048 201.798 262.708 200.427 262.114 198.161L248.683 146.78C248.09 144.514 249.462 142.172 251.728 141.579L341.86 118.018C344.127 117.428 346.467 118.799 347.061 121.065Z" fill="#AAC9F5"/>
<path d="M292.661 182.549L268.638 188.828C267.621 189.093 266.573 188.479 266.306 187.463L266.246 187.233C265.981 186.217 266.595 185.169 267.612 184.901L291.634 178.622C292.651 178.357 293.699 178.971 293.966 179.987L294.026 180.217C294.291 181.236 293.677 182.284 292.661 182.549Z" fill="#CDE0FB"/>
<path d="M324.318 174.276L300.295 180.555C299.278 180.82 298.23 180.206 297.963 179.189L297.903 178.958C297.638 177.941 298.252 176.893 299.268 176.626L323.291 170.347C324.308 170.082 325.356 170.696 325.623 171.712L325.683 171.942C325.948 172.96 325.334 174.01 324.318 174.276Z" fill="#CDE0FB"/>
<path d="M297.12 155.703C297.349 156.579 297.383 157.336 297.224 157.976C297.024 158.782 296.523 159.291 295.723 159.502C294.92 159.712 294.235 159.513 293.666 158.907C293.214 158.428 292.876 157.75 292.646 156.874C292.416 155.999 292.38 155.246 292.535 154.612C292.735 153.805 293.238 153.296 294.047 153.084C294.855 152.872 295.542 153.07 296.111 153.677C296.553 154.152 296.89 154.828 297.12 155.703ZM296.016 155.987C295.873 155.438 295.689 154.992 295.467 154.651C295.128 154.14 294.742 153.942 294.306 154.057C293.86 154.174 293.617 154.534 293.575 155.137C293.543 155.545 293.599 156.026 293.743 156.581C294.134 158.075 294.71 158.723 295.473 158.523C295.913 158.408 296.153 158.043 296.192 157.427C296.222 157.027 296.163 156.547 296.016 155.987Z" fill="#CDE0FB"/>
<path d="M302.051 154.414C302.281 155.29 302.315 156.047 302.156 156.687C301.956 157.493 301.455 158.002 300.654 158.21C299.852 158.42 299.166 158.222 298.598 157.616C298.146 157.137 297.805 156.459 297.577 155.583C297.348 154.708 297.312 153.955 297.466 153.323C297.667 152.516 298.17 152.007 298.978 151.795C299.787 151.583 300.474 151.781 301.043 152.388C301.486 152.863 301.823 153.539 302.051 154.414ZM300.948 154.698C300.805 154.149 300.621 153.703 300.399 153.362C300.06 152.851 299.674 152.653 299.238 152.768C298.792 152.885 298.548 153.245 298.507 153.848C298.475 154.256 298.53 154.737 298.675 155.292C299.065 156.786 299.642 157.434 300.405 157.234C300.845 157.119 301.084 156.754 301.124 156.138C301.154 155.738 301.094 155.258 300.948 154.698Z" fill="#CDE0FB"/>
<path d="M309.525 152.459C309.755 153.335 309.789 154.092 309.63 154.732C309.43 155.538 308.929 156.047 308.127 156.255C307.324 156.465 306.639 156.267 306.07 155.661C305.618 155.182 305.277 154.504 305.05 153.628C304.82 152.753 304.784 152 304.939 151.366C305.139 150.559 305.642 150.05 306.45 149.838C307.259 149.626 307.946 149.824 308.515 150.43C308.959 150.908 309.295 151.584 309.525 152.459ZM308.422 152.743C308.279 152.194 308.095 151.748 307.873 151.407C307.534 150.896 307.148 150.698 306.712 150.813C306.266 150.93 306.022 151.29 305.981 151.893C305.949 152.301 306.005 152.782 306.149 153.337C306.54 154.831 307.116 155.479 307.879 155.281C308.319 155.166 308.558 154.801 308.598 154.185C308.628 153.783 308.568 153.303 308.422 152.743Z" fill="#CDE0FB"/>
<path d="M314.457 151.17C314.687 152.046 314.721 152.803 314.562 153.443C314.362 154.249 313.861 154.758 313.061 154.966C312.258 155.176 311.573 154.978 311.004 154.372C310.552 153.893 310.212 153.215 309.984 152.339C309.754 151.463 309.718 150.711 309.873 150.077C310.073 149.27 310.576 148.761 311.384 148.549C312.193 148.337 312.88 148.535 313.449 149.141C313.893 149.619 314.23 150.295 314.457 151.17ZM313.356 151.454C313.213 150.905 313.029 150.459 312.807 150.118C312.468 149.607 312.082 149.409 311.646 149.524C311.2 149.641 310.956 150.001 310.915 150.604C310.883 151.012 310.939 151.493 311.083 152.048C311.474 153.542 312.05 154.19 312.813 153.99C313.253 153.875 313.493 153.51 313.532 152.894C313.56 152.494 313.502 152.014 313.356 151.454Z" fill="#CDE0FB"/>
<path d="M319.391 149.881C319.621 150.757 319.655 151.514 319.496 152.154C319.296 152.96 318.795 153.469 317.995 153.677C317.192 153.887 316.507 153.689 315.938 153.083C315.486 152.603 315.146 151.926 314.918 151.05C314.688 150.174 314.652 149.421 314.807 148.789C315.007 147.983 315.51 147.474 316.319 147.262C317.127 147.05 317.814 147.248 318.383 147.854C318.825 148.33 319.162 149.005 319.391 149.881ZM318.288 150.164C318.145 149.616 317.961 149.17 317.739 148.829C317.4 148.318 317.014 148.12 316.578 148.235C316.132 148.352 315.889 148.712 315.847 149.315C315.815 149.723 315.871 150.204 316.015 150.759C316.406 152.253 316.982 152.901 317.745 152.701C318.185 152.586 318.425 152.221 318.464 151.605C318.494 151.207 318.435 150.725 318.288 150.164Z" fill="#CDE0FB"/>
<path d="M324.323 148.59C324.552 149.466 324.586 150.223 324.428 150.863C324.228 151.669 323.726 152.178 322.924 152.386C322.121 152.596 321.436 152.398 320.867 151.792C320.416 151.312 320.075 150.635 319.847 149.759C319.617 148.883 319.581 148.13 319.736 147.498C319.936 146.692 320.439 146.183 321.248 145.971C322.056 145.759 322.744 145.957 323.312 146.563C323.758 147.039 324.095 147.714 324.323 148.59ZM323.221 148.875C323.078 148.327 322.894 147.881 322.672 147.54C322.333 147.029 321.947 146.831 321.511 146.946C321.065 147.063 320.822 147.423 320.78 148.025C320.748 148.434 320.804 148.915 320.949 149.47C321.339 150.964 321.915 151.612 322.678 151.411C323.118 151.297 323.358 150.932 323.397 150.316C323.425 149.916 323.368 149.434 323.221 148.875Z" fill="#CDE0FB"/>
<path d="M331.798 146.637C332.028 147.513 332.061 148.27 331.903 148.91C331.703 149.716 331.201 150.225 330.401 150.433C329.599 150.643 328.913 150.445 328.344 149.839C327.893 149.359 327.552 148.682 327.324 147.806C327.094 146.93 327.059 146.177 327.213 145.543C327.413 144.737 327.916 144.228 328.725 144.016C329.533 143.804 330.221 144.002 330.789 144.608C331.233 145.086 331.57 145.761 331.798 146.637ZM330.694 146.92C330.552 146.372 330.367 145.926 330.145 145.585C329.807 145.074 329.42 144.876 328.984 144.991C328.539 145.107 328.295 145.468 328.253 146.07C328.222 146.479 328.277 146.96 328.422 147.515C328.812 149.009 329.388 149.656 330.151 149.456C330.591 149.341 330.831 148.977 330.87 148.361C330.9 147.963 330.841 147.481 330.694 146.92Z" fill="#CDE0FB"/>
<path d="M336.731 145.348C336.961 146.224 336.994 146.981 336.836 147.62C336.636 148.427 336.134 148.936 335.334 149.144C334.532 149.354 333.846 149.156 333.277 148.55C332.826 148.07 332.487 147.393 332.257 146.517C332.027 145.641 331.992 144.888 332.146 144.256C332.346 143.45 332.849 142.941 333.658 142.729C334.466 142.517 335.154 142.715 335.722 143.321C336.164 143.797 336.501 144.472 336.731 145.348ZM335.627 145.633C335.485 145.084 335.3 144.639 335.078 144.298C334.74 143.787 334.353 143.589 333.917 143.703C333.472 143.82 333.228 144.181 333.186 144.783C333.155 145.191 333.21 145.673 333.355 146.228C333.745 147.722 334.322 148.369 335.084 148.169C335.524 148.054 335.764 147.69 335.804 147.074C335.833 146.673 335.774 146.192 335.627 145.633Z" fill="#CDE0FB"/>
<path d="M341.663 144.059C341.893 144.935 341.926 145.691 341.768 146.331C341.568 147.138 341.067 147.647 340.264 147.855C339.462 148.065 338.776 147.867 338.208 147.261C337.756 146.781 337.415 146.104 337.187 145.228C336.957 144.352 336.922 143.599 337.076 142.967C337.276 142.161 337.78 141.652 338.588 141.44C339.396 141.228 340.084 141.426 340.653 142.032C341.098 142.508 341.435 143.183 341.663 144.059ZM340.559 144.342C340.417 143.793 340.233 143.348 340.011 143.007C339.672 142.496 339.285 142.298 338.85 142.412C338.404 142.529 338.16 142.89 338.118 143.492C338.087 143.9 338.142 144.382 338.287 144.937C338.677 146.43 339.254 147.078 340.017 146.878C340.456 146.763 340.696 146.399 340.736 145.783C340.765 145.382 340.706 144.903 340.559 144.342Z" fill="#CDE0FB"/>
<path d="M346.595 142.77C346.825 143.646 346.859 144.402 346.7 145.042C346.5 145.849 345.999 146.358 345.198 146.566C344.396 146.776 343.71 146.578 343.142 145.972C342.69 145.492 342.349 144.815 342.121 143.939C341.892 143.063 341.856 142.31 342.01 141.676C342.211 140.87 342.714 140.361 343.522 140.149C344.331 139.937 345.018 140.135 345.587 140.741C346.028 141.219 346.365 141.894 346.595 142.77ZM345.492 143.053C345.349 142.504 345.165 142.059 344.943 141.718C344.604 141.207 344.218 141.008 343.782 141.123C343.336 141.24 343.092 141.601 343.051 142.203C343.019 142.611 343.074 143.093 343.219 143.648C343.609 145.141 344.186 145.789 344.949 145.589C345.388 145.474 345.628 145.11 345.668 144.494C345.698 144.093 345.638 143.614 345.492 143.053Z" fill="#CDE0FB"/>
<path d="M281.558 142.173L258.05 148.319C257.034 148.584 255.986 147.97 255.718 146.954C255.453 145.937 256.067 144.889 257.083 144.622L280.591 138.476C281.607 138.21 282.655 138.825 282.923 139.841C283.188 140.859 282.574 141.907 281.558 142.173Z" fill="#CDE0FB"/>
<path d="M338.432 131.509C338.257 130.837 337.861 130.283 337.344 129.896C337.193 129.783 336.979 129.829 336.886 129.991L336.805 130.132C336.728 130.267 336.761 130.441 336.886 130.534C337.261 130.816 337.546 131.22 337.673 131.707C337.799 132.195 337.75 132.686 337.56 133.114C337.496 133.257 337.552 133.423 337.687 133.504L337.825 133.587C337.986 133.685 338.196 133.617 338.271 133.447C338.535 132.858 338.608 132.181 338.432 131.509Z" fill="#CDE0FB"/>
<path d="M339.954 131.11C339.665 130.007 338.991 129.107 338.111 128.515C337.963 128.414 337.759 128.465 337.669 128.622L337.624 128.701C337.543 128.844 337.586 129.024 337.723 129.117C338.456 129.615 339.019 130.369 339.26 131.293C339.502 132.214 339.379 133.147 338.985 133.942C338.912 134.088 338.961 134.269 339.102 134.352L339.181 134.399C339.336 134.49 339.538 134.437 339.619 134.276C340.094 133.329 340.241 132.214 339.954 131.11Z" fill="#CDE0FB"/>
<path d="M341.287 130.762C340.901 129.286 339.985 128.088 338.796 127.315C338.648 127.218 338.446 127.269 338.357 127.424C338.273 127.567 338.319 127.751 338.458 127.84C339.522 128.529 340.34 129.601 340.685 130.921C341.029 132.24 340.841 133.576 340.251 134.697C340.173 134.844 340.225 135.024 340.366 135.109C340.518 135.2 340.718 135.147 340.801 134.988C341.461 133.732 341.673 132.238 341.287 130.762Z" fill="#CDE0FB"/>
<path d="M342.735 130.384C342.244 128.504 341.067 126.982 339.541 126.017C339.391 125.922 339.19 125.972 339.101 126.126L339.022 126.265C338.939 126.409 338.984 126.594 339.125 126.683C340.486 127.547 341.536 128.906 341.974 130.584C342.412 132.262 342.162 133.96 341.398 135.381C341.318 135.527 341.37 135.71 341.512 135.795L341.649 135.876C341.802 135.967 342.002 135.912 342.085 135.755C342.945 134.168 343.226 132.264 342.735 130.384Z" fill="#CDE0FB"/>
<path d="M270.059 192.991C270.169 193.413 270.185 193.779 270.11 194.086C270.013 194.475 269.771 194.72 269.385 194.821C268.999 194.922 268.668 194.827 268.392 194.534C268.174 194.302 268.01 193.975 267.901 193.553C267.79 193.131 267.772 192.767 267.847 192.462C267.945 192.073 268.186 191.828 268.577 191.725C268.967 191.624 269.298 191.719 269.573 192.01C269.785 192.242 269.948 192.569 270.059 192.991ZM269.528 193.127C269.458 192.862 269.371 192.648 269.262 192.483C269.1 192.238 268.911 192.141 268.701 192.196C268.485 192.252 268.368 192.426 268.349 192.717C268.333 192.913 268.361 193.145 268.43 193.413C268.618 194.134 268.895 194.445 269.264 194.35C269.476 194.294 269.593 194.118 269.611 193.821C269.627 193.629 269.597 193.397 269.528 193.127Z" fill="#CDE0FB"/>
<path d="M272.438 192.368C272.549 192.79 272.565 193.156 272.49 193.463C272.393 193.852 272.151 194.097 271.765 194.198C271.378 194.299 271.048 194.204 270.772 193.911C270.554 193.679 270.39 193.352 270.281 192.93C270.17 192.508 270.152 192.144 270.227 191.839C270.324 191.45 270.566 191.205 270.956 191.102C271.347 191 271.678 191.096 271.953 191.387C272.165 191.619 272.327 191.946 272.438 192.368ZM271.905 192.504C271.836 192.239 271.749 192.025 271.642 191.86C271.479 191.615 271.291 191.518 271.081 191.573C270.865 191.629 270.748 191.803 270.729 192.094C270.713 192.29 270.74 192.522 270.81 192.79C270.998 193.511 271.275 193.822 271.644 193.727C271.856 193.671 271.973 193.495 271.991 193.198C272.004 193.006 271.977 192.774 271.905 192.504Z" fill="#CDE0FB"/>
<path d="M273.883 190.556C273.893 190.594 273.891 190.645 273.877 190.711L273.307 193.6C273.279 193.74 273.217 193.823 273.118 193.849C273.059 193.865 273.001 193.857 272.95 193.827C272.896 193.798 272.863 193.752 272.847 193.693C272.835 193.643 272.833 193.592 272.845 193.536L273.423 190.651C273.451 190.513 273.513 190.432 273.608 190.406C273.671 190.39 273.729 190.394 273.78 190.422C273.832 190.449 273.865 190.493 273.883 190.556Z" fill="#CDE0FB"/>
<path d="M276.444 191.321C276.555 191.743 276.571 192.109 276.496 192.416C276.399 192.805 276.157 193.05 275.771 193.151C275.384 193.252 275.053 193.157 274.778 192.864C274.56 192.632 274.396 192.305 274.287 191.883C274.176 191.461 274.158 191.097 274.233 190.792C274.33 190.403 274.572 190.158 274.962 190.055C275.353 189.954 275.683 190.049 275.959 190.34C276.171 190.574 276.333 190.899 276.444 191.321ZM275.911 191.457C275.842 191.192 275.755 190.978 275.648 190.813C275.485 190.568 275.297 190.471 275.087 190.526C274.871 190.582 274.754 190.756 274.734 191.047C274.719 191.243 274.746 191.475 274.816 191.743C275.004 192.464 275.283 192.775 275.65 192.68C275.862 192.624 275.979 192.448 275.996 192.151C276.01 191.961 275.983 191.729 275.911 191.457Z" fill="#CDE0FB"/>
<path d="M278.824 190.7C278.935 191.122 278.951 191.488 278.876 191.795C278.779 192.184 278.537 192.429 278.151 192.53C277.764 192.631 277.433 192.536 277.158 192.243C276.94 192.011 276.775 191.684 276.667 191.262C276.556 190.84 276.538 190.476 276.613 190.171C276.71 189.782 276.952 189.537 277.342 189.434C277.732 189.333 278.063 189.428 278.339 189.719C278.551 189.951 278.713 190.276 278.824 190.7ZM278.291 190.836C278.222 190.571 278.135 190.357 278.028 190.192C277.863 189.947 277.677 189.85 277.467 189.905C277.251 189.961 277.134 190.135 277.114 190.426C277.098 190.622 277.126 190.854 277.196 191.122C277.384 191.843 277.661 192.154 278.03 192.059C278.242 192.003 278.359 191.827 278.376 191.53C278.39 191.338 278.363 191.106 278.291 190.836Z" fill="#CDE0FB"/>
<path d="M281.201 190.077C281.312 190.499 281.328 190.865 281.251 191.172C281.154 191.561 280.912 191.806 280.526 191.907C280.139 192.008 279.808 191.913 279.533 191.62C279.315 191.388 279.151 191.061 279.042 190.639C278.931 190.217 278.913 189.853 278.988 189.548C279.085 189.159 279.327 188.914 279.717 188.811C280.107 188.709 280.438 188.805 280.714 189.096C280.928 189.328 281.09 189.653 281.201 190.077ZM280.67 190.213C280.601 189.948 280.514 189.734 280.407 189.569C280.244 189.324 280.056 189.227 279.846 189.282C279.63 189.338 279.513 189.512 279.493 189.803C279.477 189.999 279.505 190.231 279.574 190.499C279.763 191.22 280.04 191.531 280.409 191.436C280.621 191.38 280.737 191.204 280.755 190.907C280.769 190.715 280.739 190.483 280.67 190.213Z" fill="#CDE0FB"/>
<path d="M283.58 189.455C283.691 189.877 283.707 190.244 283.632 190.551C283.535 190.939 283.293 191.185 282.907 191.286C282.52 191.387 282.19 191.292 281.914 190.999C281.696 190.767 281.532 190.44 281.423 190.018C281.312 189.596 281.294 189.232 281.369 188.926C281.466 188.538 281.708 188.292 282.098 188.189C282.489 188.088 282.82 188.183 283.095 188.475C283.307 188.707 283.47 189.033 283.58 189.455ZM283.048 189.592C282.978 189.327 282.891 189.113 282.784 188.948C282.62 188.703 282.433 188.605 282.223 188.661C282.007 188.716 281.89 188.891 281.871 189.182C281.855 189.378 281.883 189.61 281.952 189.877C282.14 190.599 282.419 190.91 282.786 190.815C282.998 190.759 283.115 190.583 283.133 190.286C283.147 190.093 283.119 189.862 283.048 189.592Z" fill="#CDE0FB"/>
</g>
<path d="M224.479 181.576L176.752 233.164L107.978 169.536V169.534L79 142.725L126.727 91.1387L180.833 141.196L224.479 181.576Z" fill="#DCEAFF"/>
<path d="M213.555 182.174L176.502 222.224L88.6401 140.934L125.692 100.885L213.555 182.174ZM179.828 216.181L207.772 185.978C209.668 183.928 209.545 180.728 207.495 178.832L129.565 106.733C127.479 104.802 124.222 104.929 122.29 107.017L94.4572 137.097C92.5432 139.167 92.6681 142.396 94.7385 144.31L172.719 216.456C174.758 218.345 177.94 218.22 179.828 216.181Z" fill="#C0D8FB"/>
<path d="M151.096 176.234C159.203 176.234 165.776 169.661 165.776 161.554C165.776 153.447 159.203 146.875 151.096 146.875C142.989 146.875 136.417 153.447 136.417 161.554C136.417 169.661 142.989 176.234 151.096 176.234Z" fill="#C0D8FB"/>
<path d="M226.974 289.631L179.247 341.219L110.473 277.59V277.588L81.4946 250.78L129.222 199.193L183.328 249.25L226.974 289.631Z" fill="#DCEAFF"/>
<path d="M216.048 290.229L178.994 330.279L91.1328 248.989L128.185 208.939L216.048 290.229ZM182.321 324.236L210.265 294.033C212.161 291.983 212.038 288.783 209.987 286.887L132.058 214.788C129.972 212.856 126.715 212.983 124.783 215.071L96.9498 245.151C95.0359 247.222 95.1607 250.451 97.2312 252.365L175.212 324.511C177.251 326.399 180.433 326.274 182.321 324.236Z" fill="#C0D8FB"/>
<path d="M153.591 284.288C161.698 284.288 168.27 277.716 168.27 269.609C168.27 261.502 161.698 254.93 153.591 254.93C145.484 254.93 138.912 261.502 138.912 269.609C138.912 277.716 145.484 284.288 153.591 284.288Z" fill="#C0D8FB"/>
<path d="M203.098 293.996L250.825 345.584L319.599 281.956V281.954L348.577 255.145L300.85 203.559L246.743 253.615L203.098 293.996Z" fill="#DCEAFF"/>
<path d="M214.023 294.594L251.076 334.644L338.938 253.354L301.886 213.305L214.023 294.594ZM247.75 328.601L219.806 298.398C217.91 296.348 218.033 293.148 220.083 291.252L298.013 219.153C300.099 217.222 303.356 217.348 305.288 219.437L333.121 249.516C335.035 251.587 334.91 254.816 332.84 256.73L254.859 328.876C252.82 330.764 249.638 330.64 247.75 328.601Z" fill="#C0D8FB"/>
<path d="M276.48 288.653C268.373 288.653 261.801 282.081 261.801 273.974C261.801 265.867 268.373 259.295 276.48 259.295C284.588 259.295 291.16 265.867 291.16 273.974C291.16 282.081 284.588 288.653 276.48 288.653Z" fill="#C0D8FB"/>
<path d="M228.694 194.825L158.596 199.885L151.854 106.434V106.432L149.013 67.0582L219.106 62L224.414 135.519L228.694 194.825Z" fill="#DCEAFF"/>
<path d="M220.309 187.798L165.889 191.725L157.274 72.337L211.694 68.4102L220.309 187.798ZM172.445 189.585L213.485 186.623C216.271 186.423 218.367 184 218.165 181.214L210.525 75.3228C210.321 72.4876 207.856 70.3538 205.019 70.5579L164.143 73.508C161.332 73.7101 159.216 76.155 159.418 78.9664L167.064 184.927C167.264 187.701 169.673 189.785 172.445 189.585Z" fill="#C0D8FB"/>
<path d="M188.789 144.745C196.896 144.745 203.468 138.173 203.468 130.066C203.468 121.959 196.896 115.387 188.789 115.387C180.682 115.387 174.109 121.959 174.109 130.066C174.109 138.173 180.682 144.745 188.789 144.745Z" fill="#C0D8FB"/>
<path d="M284.812 130.069V363.431C284.812 367.087 281.816 370.081 278.157 370.081H161.464C157.804 370.081 154.812 367.087 154.812 363.431V130.069C154.812 126.41 157.804 123.416 161.464 123.416H278.157C281.816 123.416 284.812 126.41 284.812 130.069Z" fill="#2B478B"/>
<path opacity="0.4" d="M238.862 132.754H205.069C204.346 132.754 203.754 132.162 203.754 131.439C203.754 130.715 204.346 130.123 205.069 130.123H238.862C239.585 130.123 240.178 130.715 240.178 131.439C240.178 132.162 239.585 132.754 238.862 132.754Z" fill="#5E92DD"/>
<path opacity="0.4" d="M199.068 132.754C198.345 132.754 197.753 132.162 197.753 131.439C197.753 130.715 198.345 130.123 199.068 130.123C199.792 130.123 200.384 130.715 200.384 131.439C200.382 132.162 199.792 132.754 199.068 132.754Z" fill="#5E92DD"/>
<path d="M229.901 356.451C229.901 358.779 228.962 360.889 227.442 362.42C225.904 363.971 223.775 364.93 221.421 364.93C216.737 364.93 212.941 361.132 212.941 356.449C212.941 353.437 214.51 350.796 216.876 349.29C218.187 348.454 219.749 347.969 221.421 347.969C226.105 347.973 229.901 351.767 229.901 356.451Z" fill="#2B478B"/>
<path d="M277.875 138.611H162.597V343.804H277.875V138.611Z" fill="#DCEAFF"/>
<path d="M227.442 362.421C225.904 363.972 223.775 364.931 221.421 364.931C216.737 364.931 212.941 361.133 212.941 356.449C212.941 353.438 214.51 350.797 216.876 349.291C217.706 352.905 220.171 358.944 227.442 362.421Z" fill="#233862"/>
<path d="M277.656 138.611H162.6V216.148H277.656V138.611Z" fill="#F99746"/>
<path d="M259.915 203.734H180.559C178.828 203.734 177.419 202.326 177.419 200.594V155.468C177.419 153.737 178.828 152.328 180.559 152.328H259.915C261.647 152.328 263.056 153.737 263.056 155.468V200.594C263.056 202.326 261.647 203.734 259.915 203.734ZM180.559 152.921C179.155 152.921 178.011 154.064 178.011 155.468V200.594C178.011 201.999 179.155 203.142 180.559 203.142H259.915C261.32 203.142 262.463 201.999 262.463 200.594V155.468C262.463 154.064 261.32 152.921 259.915 152.921H180.559Z" fill="#EBF3FA"/>
<path d="M204.372 193.365L186.075 193.507C185.301 193.513 184.663 192.885 184.657 192.111L184.655 191.934C184.649 191.16 185.277 190.522 186.052 190.516L204.349 190.373C205.123 190.367 205.761 190.995 205.767 191.77L205.769 191.946C205.775 192.721 205.147 193.359 204.372 193.365Z" fill="white"/>
<path d="M228.486 193.177L210.189 193.32C209.415 193.326 208.777 192.698 208.771 191.923L208.769 191.747C208.763 190.972 209.391 190.334 210.165 190.328L228.462 190.186C229.237 190.18 229.875 190.808 229.881 191.582L229.883 191.759C229.889 192.533 229.259 193.171 228.486 193.177Z" fill="white"/>
<path d="M187.933 175.181C187.939 175.849 187.826 176.396 187.597 176.823C187.307 177.364 186.858 177.636 186.247 177.642C185.637 177.646 185.181 177.38 184.886 176.845C184.65 176.421 184.53 175.874 184.526 175.209C184.52 174.541 184.631 173.996 184.855 173.572C185.144 173.031 185.596 172.76 186.21 172.754C186.826 172.75 187.282 173.015 187.579 173.55C187.811 173.97 187.927 174.513 187.933 175.181ZM187.093 175.183C187.089 174.765 187.04 174.414 186.943 174.129C186.792 173.703 186.552 173.491 186.222 173.495C185.881 173.497 185.643 173.711 185.504 174.135C185.407 174.42 185.362 174.775 185.364 175.197C185.372 176.336 185.667 176.903 186.249 176.897C186.584 176.895 186.822 176.677 186.961 176.245C187.052 175.966 187.097 175.611 187.093 175.183Z" fill="white"/>
<path d="M191.69 175.152C191.696 175.819 191.583 176.366 191.355 176.794C191.066 177.335 190.616 177.607 190.006 177.612C189.396 177.616 188.94 177.351 188.645 176.816C188.409 176.392 188.288 175.845 188.284 175.179C188.278 174.512 188.389 173.967 188.613 173.543C188.903 173.002 189.354 172.731 189.968 172.725C190.585 172.721 191.04 172.986 191.338 173.521C191.567 173.941 191.686 174.484 191.69 175.152ZM190.852 175.156C190.848 174.738 190.799 174.387 190.702 174.102C190.553 173.676 190.311 173.464 189.98 173.468C189.64 173.47 189.402 173.684 189.263 174.108C189.166 174.393 189.12 174.748 189.122 175.17C189.13 176.309 189.426 176.875 190.008 176.869C190.343 176.867 190.581 176.65 190.719 176.218C190.811 175.936 190.854 175.582 190.852 175.156Z" fill="white"/>
<path d="M195.446 175.122C195.452 175.79 195.339 176.337 195.109 176.765C194.82 177.306 194.37 177.577 193.76 177.583C193.15 177.587 192.694 177.322 192.399 176.787C192.163 176.363 192.042 175.816 192.038 175.15C192.032 174.482 192.143 173.938 192.367 173.514C192.656 172.973 193.108 172.701 193.722 172.695C194.339 172.691 194.794 172.957 195.091 173.492C195.323 173.912 195.442 174.457 195.446 175.122ZM194.608 175.126C194.604 174.708 194.555 174.358 194.457 174.072C194.307 173.646 194.067 173.434 193.736 173.438C193.395 173.44 193.158 173.654 193.019 174.078C192.922 174.364 192.876 174.718 192.878 175.14C192.886 176.279 193.182 176.846 193.764 176.84C194.099 176.838 194.337 176.62 194.475 176.188C194.566 175.907 194.61 175.552 194.608 175.126Z" fill="white"/>
<path d="M199.206 175.093C199.212 175.761 199.099 176.308 198.869 176.736C198.58 177.276 198.13 177.548 197.52 177.554C196.91 177.56 196.454 177.292 196.159 176.757C195.923 176.333 195.802 175.787 195.798 175.121C195.792 174.453 195.903 173.908 196.127 173.484C196.416 172.943 196.868 172.672 197.482 172.666C198.098 172.662 198.554 172.928 198.851 173.463C199.081 173.885 199.2 174.427 199.206 175.093ZM198.366 175.097C198.362 174.679 198.312 174.328 198.215 174.043C198.065 173.617 197.825 173.405 197.494 173.409C197.153 173.411 196.916 173.625 196.777 174.049C196.68 174.334 196.634 174.689 196.636 175.111C196.644 176.25 196.939 176.817 197.522 176.811C197.857 176.809 198.094 176.591 198.233 176.159C198.324 175.878 198.37 175.525 198.366 175.097Z" fill="white"/>
<path d="M204.897 175.05C204.903 175.718 204.79 176.265 204.56 176.693C204.271 177.234 203.821 177.505 203.211 177.511C202.601 177.515 202.145 177.249 201.85 176.714C201.614 176.29 201.493 175.744 201.489 175.078C201.484 174.41 201.594 173.865 201.818 173.441C202.108 172.9 202.559 172.629 203.174 172.623C203.79 172.619 204.245 172.885 204.543 173.42C204.774 173.84 204.893 174.382 204.897 175.05ZM204.059 175.054C204.055 174.636 204.006 174.285 203.909 174.002C203.758 173.576 203.518 173.364 203.187 173.368C202.847 173.37 202.609 173.584 202.47 174.008C202.373 174.293 202.328 174.648 202.33 175.07C202.337 176.209 202.633 176.776 203.215 176.77C203.55 176.768 203.788 176.55 203.926 176.118C204.018 175.835 204.063 175.48 204.059 175.054Z" fill="white"/>
<path d="M208.656 175.019C208.662 175.687 208.549 176.233 208.321 176.661C208.031 177.202 207.582 177.474 206.971 177.48C206.361 177.484 205.906 177.218 205.61 176.683C205.375 176.259 205.254 175.712 205.25 175.047C205.244 174.379 205.355 173.834 205.579 173.41C205.868 172.869 206.32 172.598 206.934 172.592C207.55 172.588 208.006 172.853 208.303 173.388C208.531 173.808 208.65 174.353 208.656 175.019ZM207.815 175.023C207.812 174.605 207.762 174.254 207.665 173.969C207.516 173.543 207.275 173.331 206.944 173.335C206.603 173.337 206.365 173.551 206.227 173.975C206.129 174.26 206.084 174.615 206.086 175.037C206.094 176.176 206.389 176.743 206.971 176.737C207.306 176.735 207.544 176.517 207.683 176.085C207.774 175.803 207.819 175.451 207.815 175.023Z" fill="white"/>
<path d="M212.412 174.992C212.418 175.659 212.305 176.206 212.076 176.634C211.786 177.175 211.337 177.446 210.726 177.452C210.116 177.456 209.66 177.191 209.365 176.656C209.129 176.232 209.009 175.685 209.005 175.019C208.999 174.352 209.11 173.807 209.334 173.383C209.623 172.842 210.075 172.57 210.689 172.564C211.305 172.561 211.761 172.826 212.058 173.361C212.29 173.781 212.406 174.324 212.412 174.992ZM211.572 174.994C211.568 174.575 211.519 174.225 211.422 173.94C211.273 173.514 211.031 173.302 210.701 173.305C210.36 173.307 210.122 173.521 209.983 173.945C209.886 174.231 209.841 174.585 209.843 175.007C209.851 176.147 210.146 176.713 210.728 176.707C211.063 176.705 211.301 176.487 211.44 176.055C211.533 175.774 211.576 175.421 211.572 174.994Z" fill="white"/>
<path d="M216.169 174.962C216.175 175.63 216.062 176.177 215.832 176.605C215.543 177.146 215.093 177.417 214.483 177.423C213.872 177.427 213.417 177.161 213.122 176.627C212.886 176.203 212.765 175.656 212.761 174.99C212.755 174.322 212.866 173.777 213.09 173.353C213.379 172.813 213.831 172.541 214.445 172.535C215.061 172.531 215.517 172.797 215.814 173.332C216.046 173.752 216.165 174.295 216.169 174.962ZM215.331 174.966C215.327 174.548 215.277 174.197 215.18 173.912C215.032 173.486 214.79 173.274 214.459 173.278C214.118 173.28 213.88 173.494 213.742 173.918C213.645 174.203 213.599 174.558 213.601 174.98C213.609 176.119 213.904 176.686 214.487 176.68C214.821 176.678 215.059 176.46 215.198 176.028C215.289 175.747 215.333 175.392 215.331 174.966Z" fill="white"/>
<path d="M221.863 174.917C221.869 175.585 221.756 176.132 221.528 176.56C221.239 177.101 220.789 177.372 220.179 177.378C219.569 177.382 219.113 177.117 218.818 176.582C218.582 176.158 218.461 175.611 218.457 174.945C218.451 174.277 218.562 173.733 218.786 173.309C219.075 172.768 219.527 172.496 220.141 172.49C220.758 172.486 221.213 172.752 221.51 173.287C221.74 173.707 221.857 174.252 221.863 174.917ZM221.023 174.921C221.019 174.503 220.97 174.153 220.872 173.867C220.724 173.441 220.482 173.229 220.151 173.233C219.81 173.235 219.573 173.449 219.434 173.873C219.337 174.159 219.291 174.513 219.293 174.935C219.301 176.074 219.596 176.641 220.179 176.635C220.514 176.633 220.752 176.415 220.89 175.983C220.983 175.702 221.027 175.349 221.023 174.921Z" fill="white"/>
<path d="M225.619 174.888C225.625 175.556 225.512 176.103 225.282 176.531C224.993 177.071 224.543 177.343 223.933 177.349C223.323 177.355 222.867 177.087 222.572 176.552C222.336 176.128 222.215 175.581 222.211 174.916C222.205 174.248 222.316 173.703 222.54 173.279C222.829 172.738 223.281 172.467 223.895 172.461C224.511 172.457 224.967 172.723 225.264 173.257C225.496 173.677 225.615 174.22 225.619 174.888ZM224.781 174.89C224.777 174.472 224.727 174.121 224.63 173.836C224.482 173.41 224.24 173.198 223.909 173.202C223.568 173.204 223.331 173.418 223.19 173.842C223.093 174.127 223.047 174.482 223.049 174.904C223.057 176.043 223.352 176.61 223.935 176.604C224.27 176.602 224.507 176.384 224.646 175.952C224.739 175.673 224.783 175.318 224.781 174.89Z" fill="white"/>
<path d="M229.378 174.859C229.384 175.526 229.271 176.073 229.041 176.501C228.752 177.042 228.302 177.314 227.692 177.319C227.081 177.323 226.626 177.058 226.331 176.523C226.095 176.099 225.974 175.552 225.97 174.886C225.964 174.219 226.075 173.674 226.299 173.25C226.588 172.709 227.04 172.438 227.654 172.432C228.27 172.428 228.726 172.693 229.023 173.228C229.253 173.648 229.372 174.191 229.378 174.859ZM228.538 174.863C228.534 174.445 228.484 174.094 228.387 173.809C228.237 173.383 227.997 173.171 227.666 173.175C227.325 173.177 227.087 173.391 226.947 173.815C226.85 174.1 226.804 174.455 226.806 174.877C226.814 176.016 227.109 176.582 227.692 176.577C228.027 176.575 228.264 176.357 228.403 175.925C228.496 175.643 228.542 175.289 228.538 174.863Z" fill="white"/>
<path d="M233.134 174.829C233.14 175.497 233.027 176.044 232.797 176.472C232.508 177.013 232.058 177.284 231.448 177.29C230.838 177.294 230.382 177.029 230.087 176.494C229.851 176.07 229.73 175.523 229.726 174.857C229.72 174.189 229.831 173.645 230.055 173.221C230.344 172.68 230.796 172.408 231.41 172.402C232.027 172.398 232.482 172.664 232.779 173.199C233.011 173.619 233.128 174.164 233.134 174.829ZM232.294 174.833C232.29 174.415 232.241 174.065 232.143 173.779C231.993 173.353 231.753 173.141 231.422 173.145C231.081 173.147 230.844 173.361 230.703 173.785C230.606 174.071 230.56 174.425 230.562 174.847C230.57 175.987 230.866 176.553 231.448 176.547C231.783 176.545 232.021 176.327 232.159 175.895C232.252 175.614 232.298 175.259 232.294 174.833Z" fill="white"/>
<path d="M238.828 174.786C238.834 175.454 238.721 176.001 238.491 176.429C238.202 176.97 237.752 177.241 237.142 177.247C236.532 177.251 236.076 176.986 235.781 176.451C235.545 176.027 235.424 175.48 235.42 174.814C235.414 174.147 235.525 173.602 235.749 173.178C236.038 172.637 236.49 172.365 237.104 172.359C237.72 172.355 238.176 172.621 238.473 173.156C238.703 173.576 238.822 174.119 238.828 174.786ZM237.988 174.79C237.984 174.372 237.934 174.022 237.837 173.736C237.687 173.31 237.447 173.098 237.116 173.102C236.775 173.104 236.538 173.318 236.397 173.742C236.3 174.028 236.254 174.382 236.256 174.804C236.264 175.944 236.559 176.51 237.142 176.504C237.477 176.502 237.714 176.284 237.853 175.852C237.946 175.571 237.992 175.216 237.988 174.79Z" fill="white"/>
<path d="M242.584 174.755C242.59 175.423 242.477 175.97 242.247 176.398C241.958 176.939 241.508 177.21 240.898 177.216C240.288 177.22 239.832 176.954 239.537 176.419C239.301 175.995 239.18 175.449 239.176 174.783C239.171 174.115 239.282 173.57 239.505 173.146C239.795 172.606 240.246 172.334 240.861 172.328C241.477 172.324 241.932 172.59 242.23 173.125C242.461 173.545 242.578 174.088 242.584 174.755ZM241.744 174.759C241.74 174.341 241.691 173.99 241.594 173.705C241.443 173.279 241.203 173.067 240.872 173.071C240.532 173.073 240.294 173.287 240.153 173.711C240.056 173.996 240.011 174.351 240.013 174.773C240.021 175.912 240.316 176.479 240.898 176.473C241.233 176.471 241.471 176.253 241.61 175.821C241.703 175.54 241.748 175.185 241.744 174.759Z" fill="white"/>
<path d="M246.342 174.726C246.348 175.394 246.235 175.94 246.005 176.368C245.716 176.909 245.266 177.181 244.656 177.187C244.045 177.191 243.59 176.925 243.294 176.39C243.059 175.966 242.938 175.419 242.934 174.754C242.928 174.086 243.039 173.541 243.263 173.117C243.552 172.576 244.004 172.305 244.618 172.299C245.234 172.295 245.69 172.56 245.987 173.095C246.219 173.515 246.338 174.06 246.342 174.726ZM245.504 174.73C245.5 174.312 245.45 173.961 245.353 173.676C245.202 173.25 244.963 173.038 244.632 173.042C244.291 173.044 244.053 173.258 243.913 173.682C243.815 173.967 243.77 174.322 243.772 174.744C243.78 175.883 244.075 176.45 244.658 176.444C244.992 176.442 245.23 176.224 245.369 175.792C245.462 175.511 245.506 175.156 245.504 174.73Z" fill="white"/>
<path d="M250.098 174.699C250.104 175.366 249.991 175.913 249.761 176.341C249.472 176.882 249.022 177.153 248.412 177.159C247.802 177.163 247.346 176.898 247.051 176.363C246.815 175.939 246.694 175.392 246.69 174.726C246.684 174.059 246.795 173.514 247.019 173.09C247.308 172.549 247.76 172.277 248.374 172.272C248.99 172.268 249.446 172.533 249.743 173.068C249.975 173.488 250.094 174.031 250.098 174.699ZM249.26 174.701C249.256 174.283 249.206 173.932 249.109 173.647C248.959 173.221 248.719 173.009 248.388 173.013C248.047 173.015 247.81 173.228 247.671 173.652C247.574 173.938 247.528 174.292 247.53 174.714C247.538 175.854 247.833 176.42 248.416 176.414C248.751 176.412 248.988 176.194 249.127 175.763C249.218 175.481 249.264 175.129 249.26 174.701Z" fill="white"/>
<path d="M203.743 162.511L185.836 162.649C185.061 162.655 184.423 162.027 184.418 161.253C184.412 160.478 185.04 159.84 185.814 159.834L203.721 159.695C204.496 159.689 205.134 160.317 205.14 161.092C205.146 161.867 204.516 162.505 203.743 162.511Z" fill="white"/>
<path d="M255.001 160.708C254.997 160.197 254.815 159.727 254.516 159.359C254.428 159.252 254.266 159.244 254.171 159.345L254.088 159.43C254.008 159.513 254.001 159.642 254.072 159.731C254.288 160.001 254.419 160.339 254.423 160.712C254.425 161.082 254.3 161.425 254.088 161.696C254.016 161.788 254.026 161.916 254.107 161.998L254.193 162.083C254.29 162.18 254.452 162.172 254.537 162.063C254.831 161.691 255.005 161.219 255.001 160.708Z" fill="white"/>
<path d="M256.161 160.7C256.155 159.86 255.836 159.093 255.315 158.512C255.226 158.413 255.071 158.413 254.98 158.508L254.933 158.558C254.847 158.645 254.847 158.782 254.929 158.873C255.362 159.36 255.628 160.002 255.634 160.704C255.64 161.407 255.384 162.051 254.958 162.546C254.879 162.637 254.881 162.774 254.968 162.861L255.016 162.909C255.109 163.002 255.263 163 255.351 162.899C255.86 162.31 256.167 161.54 256.161 160.7Z" fill="white"/>
<path d="M257.178 160.693C257.17 159.569 256.732 158.547 256.023 157.778C255.934 157.681 255.781 157.681 255.69 157.776C255.605 157.863 255.605 158.002 255.686 158.091C256.322 158.777 256.712 159.69 256.72 160.695C256.728 161.699 256.352 162.618 255.728 163.314C255.646 163.405 255.65 163.544 255.735 163.629C255.829 163.722 255.981 163.72 256.068 163.621C256.766 162.846 257.186 161.816 257.178 160.693Z" fill="white"/>
<path d="M258.278 160.681C258.266 159.249 257.702 157.949 256.786 156.984C256.695 156.889 256.545 156.887 256.453 156.982L256.372 157.068C256.287 157.157 256.287 157.295 256.37 157.385C257.187 158.248 257.69 159.408 257.7 160.687C257.71 161.965 257.224 163.134 256.422 164.01C256.339 164.101 256.343 164.24 256.428 164.327L256.511 164.41C256.604 164.503 256.757 164.499 256.844 164.402C257.743 163.424 258.288 162.114 258.278 160.681Z" fill="white"/>
<path d="M186.336 196.737C186.338 197.058 186.284 197.324 186.173 197.53C186.035 197.789 185.817 197.922 185.522 197.924C185.226 197.926 185.008 197.799 184.864 197.54C184.751 197.336 184.691 197.072 184.69 196.751C184.688 196.43 184.739 196.167 184.848 195.963C184.987 195.701 185.205 195.57 185.502 195.568C185.799 195.566 186.019 195.693 186.162 195.953C186.277 196.153 186.334 196.416 186.336 196.737ZM185.932 196.739C185.93 196.537 185.906 196.369 185.858 196.232C185.787 196.026 185.67 195.925 185.51 195.925C185.345 195.927 185.23 196.03 185.163 196.234C185.115 196.371 185.094 196.543 185.096 196.745C185.1 197.294 185.242 197.567 185.522 197.566C185.684 197.564 185.797 197.459 185.864 197.25C185.91 197.116 185.932 196.945 185.932 196.739Z" fill="white"/>
<path d="M188.147 196.724C188.149 197.045 188.096 197.31 187.985 197.516C187.846 197.776 187.628 197.908 187.335 197.91C187.04 197.912 186.822 197.786 186.677 197.526C186.564 197.322 186.505 197.059 186.503 196.738C186.501 196.417 186.553 196.153 186.661 195.949C186.8 195.687 187.018 195.557 187.315 195.555C187.612 195.553 187.832 195.68 187.975 195.939C188.088 196.139 188.145 196.401 188.147 196.724ZM187.743 196.726C187.741 196.524 187.718 196.355 187.67 196.218C187.599 196.012 187.482 195.911 187.321 195.911C187.157 195.913 187.042 196.016 186.975 196.22C186.927 196.357 186.905 196.529 186.907 196.732C186.911 197.28 187.054 197.554 187.333 197.552C187.496 197.55 187.609 197.445 187.676 197.237C187.723 197.102 187.745 196.93 187.743 196.726Z" fill="white"/>
<path d="M189.506 195.69C189.506 195.719 189.496 195.755 189.474 195.799L188.545 197.758C188.499 197.855 188.44 197.903 188.365 197.903C188.319 197.903 188.279 197.889 188.248 197.857C188.216 197.826 188.198 197.788 188.198 197.742C188.198 197.705 188.206 197.667 188.226 197.629L189.161 195.672C189.207 195.579 189.264 195.531 189.337 195.531C189.385 195.531 189.425 195.545 189.458 195.573C189.49 195.603 189.506 195.642 189.506 195.69Z" fill="white"/>
<path d="M191.201 196.698C191.203 197.019 191.149 197.285 191.038 197.491C190.9 197.752 190.682 197.883 190.386 197.885C190.091 197.887 189.873 197.76 189.729 197.501C189.616 197.297 189.556 197.033 189.554 196.71C189.552 196.389 189.604 196.126 189.713 195.922C189.851 195.66 190.069 195.529 190.367 195.527C190.664 195.525 190.884 195.652 191.026 195.912C191.139 196.114 191.197 196.375 191.201 196.698ZM190.795 196.7C190.793 196.498 190.769 196.33 190.721 196.193C190.65 195.987 190.533 195.886 190.373 195.886C190.208 195.888 190.093 195.989 190.026 196.195C189.978 196.332 189.956 196.504 189.958 196.708C189.962 197.257 190.105 197.53 190.384 197.528C190.547 197.526 190.66 197.421 190.727 197.213C190.775 197.077 190.797 196.906 190.795 196.7Z" fill="white"/>
<path d="M193.01 196.685C193.012 197.006 192.959 197.271 192.848 197.477C192.709 197.739 192.491 197.869 192.196 197.871C191.901 197.873 191.683 197.747 191.538 197.487C191.425 197.283 191.366 197.019 191.364 196.698C191.362 196.378 191.413 196.114 191.522 195.91C191.661 195.648 191.879 195.518 192.176 195.516C192.473 195.514 192.693 195.64 192.836 195.9C192.951 196.1 193.008 196.362 193.01 196.685ZM192.606 196.687C192.604 196.484 192.58 196.316 192.533 196.179C192.461 195.973 192.345 195.872 192.184 195.872C192.02 195.874 191.905 195.975 191.837 196.181C191.79 196.318 191.768 196.49 191.77 196.695C191.774 197.243 191.917 197.517 192.196 197.515C192.358 197.513 192.471 197.408 192.539 197.2C192.586 197.063 192.608 196.891 192.606 196.687Z" fill="white"/>
<path d="M194.824 196.671C194.826 196.992 194.773 197.257 194.662 197.463C194.523 197.723 194.305 197.856 194.01 197.858C193.715 197.86 193.497 197.733 193.352 197.473C193.239 197.269 193.18 197.006 193.178 196.685C193.176 196.364 193.227 196.1 193.336 195.896C193.475 195.635 193.693 195.504 193.99 195.502C194.287 195.5 194.507 195.627 194.65 195.886C194.765 196.086 194.82 196.348 194.824 196.671ZM194.418 196.671C194.416 196.469 194.392 196.3 194.345 196.164C194.273 195.958 194.157 195.857 193.996 195.857C193.832 195.859 193.717 195.962 193.649 196.166C193.602 196.302 193.58 196.475 193.582 196.679C193.586 197.228 193.729 197.501 194.008 197.499C194.17 197.497 194.283 197.392 194.351 197.184C194.398 197.047 194.42 196.877 194.418 196.671Z" fill="white"/>
<path d="M196.635 196.657C196.637 196.978 196.584 197.244 196.473 197.45C196.334 197.709 196.116 197.842 195.821 197.844C195.526 197.846 195.308 197.719 195.163 197.46C195.05 197.256 194.991 196.992 194.989 196.671C194.987 196.35 195.038 196.087 195.147 195.883C195.286 195.621 195.504 195.49 195.801 195.488C196.098 195.486 196.318 195.613 196.461 195.873C196.576 196.073 196.633 196.334 196.635 196.657ZM196.231 196.657C196.229 196.455 196.205 196.287 196.158 196.15C196.086 195.944 195.97 195.843 195.809 195.843C195.645 195.845 195.53 195.948 195.462 196.152C195.415 196.289 195.393 196.461 195.395 196.663C195.399 197.212 195.542 197.485 195.821 197.483C195.983 197.481 196.096 197.376 196.164 197.168C196.211 197.034 196.233 196.863 196.231 196.657Z" fill="white"/>
<path d="M255.796 223.993C255.859 223.86 255.937 223.738 256.028 223.627C256.095 223.545 256.17 223.468 256.252 223.399L256.59 223.056L256.68 223.121C258.413 222.273 261.993 223.173 265.615 225.537C269.992 228.394 272.801 232.328 271.991 234.419L272.114 234.51L271.626 234.995C271.602 235.019 271.579 235.045 271.555 235.066L271.541 235.08L271.537 235.082C271.414 235.195 271.274 235.292 271.115 235.376L271.113 235.378C269.401 236.275 265.783 235.381 262.122 232.992C257.664 230.08 254.833 226.052 255.796 223.993Z" fill="#88ADD8"/>
<path d="M266.136 225.014C261.678 222.103 257.281 221.412 256.316 223.47C255.352 225.529 258.185 229.559 262.645 232.469C267.103 235.38 271.499 236.071 272.464 234.013C273.429 231.954 270.594 227.926 266.136 225.014Z" fill="#AFCDFB"/>
<path d="M262.892 231.887C261.025 230.664 259.417 229.192 258.365 227.738C257.287 226.252 256.914 224.95 257.317 224.073C257.521 223.627 257.907 223.318 258.464 223.157C260.108 222.684 263.025 223.589 265.891 225.467C267.758 226.69 269.367 228.162 270.419 229.616C271.497 231.102 271.869 232.404 271.467 233.282C271.263 233.727 270.876 234.036 270.32 234.197C270.03 234.28 269.699 234.322 269.339 234.322C267.647 234.322 265.254 233.434 262.892 231.887ZM258.553 223.474C258.093 223.607 257.776 223.855 257.614 224.211C257.269 224.964 257.639 226.181 258.63 227.548C259.66 228.968 261.239 230.413 263.072 231.613C265.359 233.109 267.732 233.993 269.349 233.993C269.676 233.993 269.971 233.957 270.228 233.882C270.688 233.749 271.005 233.502 271.168 233.145C271.512 232.392 271.142 231.176 270.151 229.808C269.121 228.388 267.544 226.944 265.709 225.743C263.423 224.247 261.049 223.363 259.433 223.363C259.108 223.363 258.81 223.401 258.553 223.474Z" fill="#98B9EA"/>
<path d="M266.519 229.91C266.62 229.927 266.705 229.923 266.774 229.9C266.844 229.876 266.897 229.832 266.931 229.767C266.965 229.702 266.976 229.614 266.967 229.503C266.957 229.406 266.929 229.303 266.883 229.194C266.838 229.085 266.762 228.972 266.663 228.857C266.562 228.743 266.432 228.63 266.273 228.519C266.115 228.408 265.917 228.299 265.685 228.198L265.586 227.175C265.978 227.348 266.321 227.538 266.61 227.748C266.899 227.958 267.145 228.172 267.343 228.396C267.541 228.62 267.7 228.844 267.815 229.07C267.931 229.295 268.013 229.513 268.062 229.721L269.035 230.149L269.09 230.712L268.112 230.282C268.104 230.482 268.056 230.645 267.971 230.775C267.886 230.904 267.767 230.993 267.61 231.043C267.456 231.092 267.266 231.1 267.044 231.067C266.822 231.033 266.564 230.954 266.277 230.827C265.96 230.688 265.681 230.53 265.441 230.353C265.201 230.177 264.987 229.983 264.799 229.771C264.611 229.559 264.44 229.331 264.288 229.083C264.135 228.836 263.985 228.57 263.834 228.285C263.741 228.109 263.654 227.956 263.571 227.829C263.487 227.7 263.402 227.589 263.313 227.496C263.224 227.403 263.129 227.322 263.028 227.255C262.927 227.187 262.816 227.128 262.695 227.074C262.574 227.021 262.461 226.983 262.36 226.961C262.257 226.94 262.17 226.936 262.099 226.952C262.027 226.967 261.972 227.003 261.934 227.06C261.896 227.118 261.885 227.199 261.895 227.306C261.914 227.502 262.027 227.7 262.233 227.905C262.439 228.107 262.739 228.295 263.133 228.467L263.232 229.49C262.905 229.345 262.606 229.184 262.336 229.006C262.067 228.828 261.829 228.638 261.625 228.437C261.421 228.237 261.251 228.027 261.112 227.809C260.973 227.591 260.876 227.372 260.817 227.152L259.751 226.684L259.695 226.117L260.747 226.579C260.755 226.379 260.805 226.218 260.896 226.094C260.987 225.969 261.11 225.884 261.268 225.836C261.427 225.789 261.617 225.783 261.841 225.816C262.065 225.85 262.315 225.929 262.594 226.052C262.915 226.193 263.196 226.351 263.436 226.528C263.676 226.704 263.89 226.898 264.076 227.108C264.262 227.318 264.431 227.548 264.583 227.796C264.734 228.043 264.88 228.309 265.025 228.592C265.106 228.756 265.187 228.901 265.269 229.026C265.35 229.151 265.435 229.262 265.526 229.357C265.617 229.452 265.716 229.537 265.823 229.61C265.93 229.684 266.053 229.749 266.19 229.809C266.309 229.858 266.42 229.892 266.519 229.91Z" fill="#98B9EA"/>
<path d="M167.581 235.423C167.644 235.29 167.721 235.167 167.812 235.056C167.88 234.975 167.955 234.898 168.036 234.828L168.375 234.486L168.464 234.551C170.198 233.703 173.778 234.603 177.4 236.966C181.776 239.823 184.586 243.758 183.775 245.848L183.898 245.939L183.411 246.425C183.387 246.449 183.363 246.474 183.34 246.496L183.326 246.51L183.322 246.512C183.199 246.625 183.058 246.722 182.9 246.805L182.898 246.807C181.186 247.705 177.568 246.811 173.907 244.422C169.449 241.509 166.618 237.481 167.581 235.423Z" fill="#88ADD8"/>
<path d="M177.92 236.443C173.462 233.533 169.066 232.841 168.101 234.9C167.136 236.959 169.97 240.988 174.429 243.899C178.887 246.809 183.284 247.501 184.249 245.442C185.211 243.384 182.378 239.356 177.92 236.443Z" fill="#AFCDFB"/>
<path d="M174.677 243.318C172.81 242.096 171.201 240.624 170.149 239.17C169.071 237.684 168.699 236.382 169.101 235.504C169.305 235.058 169.692 234.749 170.248 234.589C171.893 234.115 174.809 235.021 177.674 236.899C179.541 238.122 181.149 239.594 182.201 241.048C183.279 242.534 183.652 243.836 183.249 244.713C183.045 245.159 182.659 245.468 182.102 245.629C181.813 245.712 181.482 245.753 181.122 245.753C179.432 245.751 177.038 244.864 174.677 243.318ZM170.338 234.904C169.878 235.037 169.561 235.284 169.398 235.641C169.054 236.394 169.424 237.61 170.415 238.977C171.445 240.398 173.024 241.842 174.857 243.043C177.143 244.539 179.517 245.423 181.133 245.423C181.46 245.423 181.756 245.387 182.013 245.312C182.473 245.179 182.79 244.931 182.952 244.575C183.297 243.822 182.928 242.605 181.936 241.238C180.906 239.818 179.329 238.373 177.494 237.173C175.207 235.677 172.834 234.793 171.217 234.793C170.892 234.793 170.595 234.831 170.338 234.904Z" fill="#98B9EA"/>
<path d="M178.302 241.339C178.403 241.357 178.488 241.353 178.557 241.329C178.626 241.306 178.68 241.262 178.714 241.197C178.747 241.131 178.759 241.044 178.749 240.933C178.739 240.836 178.712 240.733 178.666 240.624C178.619 240.515 178.545 240.402 178.446 240.287C178.347 240.172 178.216 240.059 178.056 239.948C177.895 239.835 177.699 239.728 177.467 239.627L177.368 238.605C177.761 238.777 178.103 238.968 178.393 239.178C178.682 239.386 178.928 239.602 179.126 239.826C179.324 240.049 179.482 240.273 179.597 240.499C179.714 240.725 179.795 240.943 179.845 241.151L180.818 241.579L180.871 242.142L179.892 241.712C179.885 241.912 179.837 242.074 179.752 242.205C179.667 242.334 179.548 242.423 179.391 242.473C179.237 242.522 179.046 242.53 178.825 242.496C178.603 242.463 178.347 242.383 178.058 242.257C177.741 242.116 177.461 241.959 177.222 241.783C176.982 241.607 176.768 241.413 176.58 241.201C176.392 240.989 176.221 240.761 176.069 240.513C175.916 240.267 175.766 240 175.615 239.717C175.522 239.54 175.435 239.388 175.351 239.261C175.268 239.134 175.183 239.021 175.094 238.928C175.005 238.833 174.91 238.754 174.809 238.686C174.707 238.619 174.597 238.559 174.476 238.506C174.355 238.452 174.242 238.415 174.141 238.393C174.038 238.371 173.951 238.367 173.879 238.383C173.808 238.399 173.753 238.435 173.717 238.492C173.679 238.55 173.667 238.631 173.677 238.738C173.697 238.934 173.808 239.132 174.016 239.336C174.224 239.54 174.521 239.726 174.916 239.899L175.015 240.921C174.688 240.777 174.389 240.616 174.119 240.438C173.85 240.259 173.612 240.069 173.408 239.869C173.204 239.669 173.033 239.459 172.895 239.241C172.758 239.023 172.659 238.803 172.599 238.583L171.533 238.116L171.478 237.549L172.53 238.011C172.538 237.811 172.588 237.65 172.679 237.525C172.768 237.4 172.893 237.315 173.051 237.268C173.21 237.22 173.4 237.214 173.624 237.248C173.848 237.282 174.097 237.361 174.377 237.484C174.698 237.624 174.979 237.783 175.219 237.959C175.458 238.135 175.672 238.33 175.859 238.54C176.045 238.75 176.213 238.98 176.366 239.227C176.516 239.475 176.665 239.74 176.808 240.024C176.889 240.188 176.97 240.333 177.051 240.458C177.133 240.582 177.218 240.693 177.309 240.79C177.4 240.887 177.499 240.971 177.606 241.044C177.713 241.117 177.836 241.183 177.973 241.242C178.091 241.288 178.2 241.321 178.302 241.339Z" fill="#98B9EA"/>
<path d="M257.674 303.093C257.74 302.952 257.821 302.823 257.918 302.706C257.989 302.619 258.069 302.54 258.154 302.467L258.51 302.104L258.603 302.173C260.428 301.28 264.199 302.227 268.013 304.717C272.621 307.727 275.581 311.87 274.727 314.073L274.858 314.168L274.345 314.679C274.321 314.705 274.295 314.731 274.269 314.755L274.256 314.768L274.252 314.772C274.121 314.891 273.974 314.994 273.808 315.081L273.806 315.083C272.003 316.029 268.193 315.087 264.337 312.571C259.642 309.504 256.658 305.26 257.674 303.093Z" fill="#88ADD8"/>
<path d="M268.563 304.17C263.868 301.105 259.237 300.378 258.223 302.545C257.209 304.713 260.19 308.956 264.886 312.021C269.582 315.087 274.212 315.814 275.226 313.646C276.241 311.479 273.259 307.235 268.563 304.17Z" fill="#AFCDFB"/>
<path d="M265.145 311.408C263.179 310.12 261.486 308.569 260.376 307.039C259.241 305.474 258.848 304.103 259.272 303.18C259.488 302.71 259.895 302.385 260.481 302.217C262.215 301.717 265.284 302.672 268.303 304.65C270.268 305.938 271.962 307.489 273.072 309.018C274.207 310.584 274.6 311.955 274.176 312.878C273.96 313.35 273.553 313.673 272.969 313.841C272.664 313.928 272.317 313.972 271.935 313.972C270.154 313.972 267.631 313.037 265.145 311.408ZM260.576 302.548C260.091 302.688 259.758 302.948 259.585 303.324C259.221 304.119 259.611 305.399 260.655 306.839C261.741 308.335 263.403 309.857 265.333 311.121C267.74 312.698 270.241 313.627 271.945 313.627C272.289 313.627 272.6 313.589 272.872 313.51C273.357 313.369 273.69 313.11 273.863 312.733C274.227 311.941 273.837 310.659 272.793 309.219C271.707 307.723 270.045 306.201 268.115 304.937C265.708 303.36 263.207 302.431 261.503 302.431C261.159 302.433 260.848 302.47 260.576 302.548Z" fill="#98B9EA"/>
<path d="M268.966 309.325C269.071 309.343 269.162 309.339 269.235 309.315C269.309 309.289 269.364 309.244 269.4 309.175C269.435 309.105 269.449 309.014 269.437 308.897C269.428 308.796 269.398 308.687 269.348 308.57C269.299 308.455 269.221 308.336 269.116 308.216C269.011 308.095 268.873 307.976 268.704 307.859C268.536 307.742 268.33 307.629 268.084 307.52L267.979 306.442C268.393 306.625 268.754 306.825 269.059 307.045C269.364 307.265 269.622 307.492 269.832 307.726C270.042 307.962 270.206 308.198 270.329 308.436C270.452 308.673 270.537 308.903 270.589 309.123L271.613 309.573L271.67 310.165L270.64 309.713C270.63 309.923 270.581 310.096 270.491 310.233C270.402 310.367 270.276 310.462 270.113 310.514C269.951 310.565 269.75 310.573 269.517 310.54C269.283 310.506 269.013 310.421 268.708 310.286C268.374 310.139 268.08 309.973 267.827 309.787C267.575 309.601 267.349 309.396 267.151 309.175C266.953 308.953 266.773 308.711 266.612 308.451C266.452 308.192 266.293 307.912 266.135 307.611C266.038 307.425 265.944 307.265 265.857 307.132C265.77 306.997 265.679 306.88 265.586 306.781C265.493 306.682 265.392 306.597 265.287 306.526C265.182 306.454 265.065 306.393 264.936 306.335C264.807 306.278 264.69 306.24 264.581 306.217C264.474 306.193 264.381 306.189 264.306 306.207C264.231 306.222 264.173 306.262 264.134 306.322C264.094 306.381 264.08 306.468 264.092 306.579C264.112 306.785 264.231 306.995 264.449 307.209C264.667 307.423 264.982 307.619 265.396 307.802L265.501 308.879C265.156 308.729 264.841 308.558 264.558 308.37C264.274 308.182 264.023 307.982 263.809 307.772C263.593 307.56 263.412 307.34 263.27 307.11C263.125 306.88 263.022 306.648 262.959 306.417L261.835 305.923L261.778 305.327L262.885 305.814C262.895 305.604 262.947 305.434 263.042 305.303C263.137 305.172 263.268 305.081 263.434 305.032C263.601 304.982 263.803 304.974 264.036 305.012C264.27 305.048 264.536 305.131 264.829 305.26C265.168 305.408 265.463 305.575 265.715 305.761C265.966 305.947 266.192 306.151 266.388 306.373C266.584 306.595 266.763 306.837 266.921 307.096C267.08 307.356 267.236 307.637 267.387 307.936C267.472 308.111 267.559 308.263 267.644 308.394C267.73 308.525 267.821 308.642 267.916 308.743C268.011 308.844 268.116 308.933 268.229 309.008C268.342 309.083 268.471 309.153 268.615 309.218C268.744 309.27 268.861 309.307 268.966 309.325Z" fill="#98B9EA"/>
<path d="M199.524 322.971C199.615 322.777 199.728 322.6 199.858 322.44L199.86 322.438C199.958 322.319 200.067 322.208 200.185 322.107L200.677 321.61L200.806 321.705C203.322 320.473 208.517 321.778 213.773 325.21C220.125 329.357 224.204 335.067 223.027 338.102L223.208 338.235L222.5 338.938C222.467 338.974 222.431 339.007 222.395 339.043L222.376 339.063L222.37 339.067C222.191 339.231 221.987 339.372 221.759 339.493L221.756 339.495C219.271 340.796 214.021 339.501 208.707 336.031C202.236 331.805 198.125 325.959 199.524 322.971Z" fill="#88ADD8"/>
<path d="M214.53 324.453C208.059 320.229 201.678 319.227 200.279 322.215C198.88 325.202 202.991 331.051 209.462 335.275C215.933 339.499 222.315 340.502 223.714 337.514C225.114 334.526 221.001 328.68 214.53 324.453Z" fill="#AFCDFB"/>
<path d="M209.82 334.428C207.112 332.655 204.778 330.517 203.248 328.407C201.683 326.25 201.142 324.36 201.727 323.088C202.024 322.44 202.584 321.992 203.391 321.76C205.778 321.073 210.01 322.388 214.171 325.113C216.879 326.886 219.213 329.024 220.743 331.134C222.308 333.291 222.849 335.181 222.264 336.453C221.967 337.101 221.407 337.549 220.6 337.781C220.178 337.902 219.701 337.961 219.176 337.961C216.723 337.961 213.248 336.673 209.82 334.428ZM203.524 322.218C202.856 322.41 202.396 322.771 202.158 323.288C201.657 324.381 202.194 326.147 203.633 328.13C205.128 330.192 207.419 332.289 210.08 334.032C213.396 336.204 216.844 337.486 219.189 337.486C219.663 337.486 220.093 337.434 220.467 337.325C221.135 337.133 221.595 336.772 221.832 336.255C222.334 335.162 221.797 333.396 220.358 331.413C218.863 329.35 216.572 327.254 213.911 325.511C210.595 323.339 207.147 322.057 204.801 322.057C204.326 322.057 203.898 322.111 203.524 322.218Z" fill="#98B9EA"/>
<path d="M215.088 331.559C215.234 331.585 215.357 331.579 215.458 331.545C215.559 331.511 215.636 331.446 215.686 331.353C215.735 331.258 215.753 331.131 215.737 330.97C215.724 330.83 215.684 330.681 215.615 330.521C215.547 330.362 215.44 330.2 215.294 330.033C215.147 329.867 214.959 329.702 214.727 329.54C214.495 329.377 214.21 329.221 213.873 329.074L213.728 327.59C214.299 327.842 214.794 328.117 215.216 328.42C215.638 328.724 215.993 329.037 216.28 329.36C216.57 329.683 216.797 330.009 216.966 330.336C217.134 330.665 217.253 330.98 217.324 331.283L218.737 331.904L218.816 332.72L217.396 332.096C217.382 332.385 217.315 332.623 217.192 332.811C217.069 332.997 216.895 333.128 216.669 333.199C216.443 333.271 216.169 333.282 215.846 333.233C215.523 333.183 215.153 333.069 214.733 332.884C214.271 332.682 213.867 332.452 213.518 332.197C213.17 331.941 212.859 331.66 212.585 331.353C212.312 331.046 212.064 330.713 211.842 330.356C211.62 329.998 211.402 329.613 211.184 329.199C211.05 328.944 210.923 328.724 210.802 328.537C210.681 328.351 210.556 328.191 210.428 328.054C210.299 327.917 210.16 327.8 210.014 327.703C209.867 327.606 209.706 327.519 209.53 327.442C209.354 327.364 209.191 327.309 209.043 327.277C208.894 327.244 208.767 327.24 208.662 327.261C208.557 327.285 208.478 327.337 208.425 327.42C208.371 327.503 208.351 327.622 208.367 327.777C208.395 328.06 208.557 328.349 208.858 328.644C209.158 328.938 209.594 329.211 210.164 329.461L210.309 330.945C209.833 330.737 209.399 330.501 209.007 330.243C208.615 329.984 208.272 329.708 207.975 329.419C207.678 329.128 207.43 328.825 207.23 328.508C207.032 328.191 206.889 327.872 206.802 327.553L205.255 326.873L205.175 326.051L206.703 326.723C206.715 326.433 206.788 326.197 206.919 326.017C207.05 325.837 207.23 325.712 207.46 325.643C207.69 325.573 207.967 325.563 208.29 325.613C208.613 325.663 208.977 325.777 209.382 325.956C209.847 326.16 210.255 326.392 210.602 326.647C210.951 326.903 211.26 327.184 211.531 327.491C211.803 327.796 212.046 328.129 212.266 328.488C212.486 328.846 212.7 329.233 212.908 329.645C213.027 329.885 213.146 330.095 213.263 330.275C213.38 330.457 213.505 330.618 213.637 330.756C213.77 330.895 213.913 331.018 214.069 331.123C214.226 331.228 214.402 331.323 214.602 331.412C214.78 331.483 214.941 331.533 215.088 331.559Z" fill="#98B9EA"/>
<path d="M268.363 288.911C268.466 288.691 268.593 288.491 268.742 288.309L268.744 288.307C268.855 288.172 268.978 288.047 269.112 287.935L269.669 287.372L269.816 287.479C272.661 286.086 278.537 287.562 284.481 291.443C291.665 296.133 296.278 302.592 294.946 306.024L295.148 306.172L294.35 306.969C294.312 307.008 294.273 307.048 294.231 307.086L294.207 307.107L294.199 307.111C293.997 307.298 293.765 307.456 293.508 307.593L293.504 307.595C290.694 309.067 284.757 307.601 278.747 303.678C271.43 298.903 266.78 292.289 268.363 288.911Z" fill="#88ADD8"/>
<path d="M285.335 290.588C278.016 285.809 270.801 284.676 269.217 288.056C267.634 291.436 272.284 298.048 279.603 302.826C286.922 307.605 294.138 308.739 295.721 305.359C297.302 301.98 292.654 295.367 285.335 290.588Z" fill="#AFCDFB"/>
<path d="M280.011 301.871C276.948 299.864 274.309 297.446 272.58 295.063C270.81 292.622 270.198 290.486 270.858 289.048C271.195 288.315 271.827 287.809 272.74 287.546C275.441 286.767 280.225 288.255 284.931 291.336C287.994 293.343 290.633 295.76 292.363 298.144C294.132 300.585 294.744 302.721 294.084 304.159C293.747 304.892 293.115 305.397 292.202 305.661C291.727 305.797 291.186 305.865 290.591 305.865C287.818 305.867 283.887 304.409 280.011 301.871ZM272.889 288.061C272.134 288.279 271.615 288.685 271.345 289.27C270.779 290.506 271.387 292.503 273.013 294.746C274.705 297.078 277.295 299.449 280.305 301.421C284.057 303.878 287.954 305.326 290.607 305.326C291.144 305.326 291.629 305.266 292.051 305.146C292.806 304.928 293.325 304.522 293.595 303.937C294.162 302.701 293.553 300.704 291.927 298.461C290.235 296.129 287.645 293.757 284.636 291.786C280.883 289.329 276.986 287.881 274.333 287.881C273.798 287.881 273.313 287.94 272.889 288.061Z" fill="#98B9EA"/>
<path d="M149.313 261.903C149.416 261.684 149.542 261.483 149.691 261.301L149.693 261.299C149.804 261.164 149.927 261.04 150.062 260.927L150.618 260.364L150.765 260.471C153.61 259.078 159.487 260.554 165.43 264.436C172.614 269.125 177.227 275.584 175.895 279.016L176.098 279.164L175.299 279.961C175.261 280 175.222 280.04 175.18 280.078L175.158 280.099L175.15 280.103C174.948 280.29 174.717 280.448 174.459 280.585L174.455 280.587C171.646 282.059 165.708 280.593 159.699 276.67C152.38 271.895 147.73 265.282 149.313 261.903Z" fill="#88ADD8"/>
<path d="M166.282 263.58C158.963 258.802 151.747 257.668 150.164 261.048C148.581 264.428 153.231 271.04 160.55 275.819C167.869 280.598 175.085 281.731 176.668 278.351C178.251 274.973 173.601 268.359 166.282 263.58Z" fill="#AFCDFB"/>
<path d="M160.959 274.863C157.896 272.856 155.256 270.439 153.527 268.055C151.758 265.614 151.145 263.478 151.805 262.04C152.142 261.307 152.774 260.802 153.687 260.538C156.388 259.76 161.173 261.247 165.878 264.328C168.941 266.335 171.58 268.753 173.31 271.136C175.079 273.577 175.691 275.713 175.032 277.151C174.695 277.884 174.063 278.389 173.149 278.653C172.674 278.79 172.133 278.857 171.539 278.857C168.763 278.859 164.834 277.401 160.959 274.863ZM153.836 261.053C153.081 261.271 152.562 261.677 152.292 262.262C151.726 263.498 152.334 265.495 153.961 267.738C155.653 270.07 158.242 272.442 161.252 274.413C165.004 276.87 168.902 278.318 171.554 278.318C172.091 278.318 172.577 278.259 172.999 278.138C173.754 277.92 174.273 277.514 174.542 276.929C175.109 275.693 174.503 273.696 172.874 271.453C171.182 269.121 168.592 266.749 165.583 264.778C161.83 262.321 157.933 260.873 155.28 260.873C154.743 260.873 154.258 260.932 153.836 261.053Z" fill="#98B9EA"/>
<path d="M185.096 320.987C185.024 320.834 184.935 320.696 184.832 320.569L184.83 320.567C184.753 320.474 184.668 320.387 184.575 320.307L184.188 319.915L184.087 319.99C182.11 319.022 178.024 320.048 173.892 322.746C168.897 326.008 165.691 330.497 166.614 332.885L166.474 332.99L167.028 333.542C167.054 333.57 167.082 333.598 167.11 333.624L167.125 333.639L167.129 333.643C167.27 333.772 167.431 333.883 167.609 333.978L167.611 333.98C169.564 335.005 173.693 333.984 177.872 331.258C182.964 327.935 186.197 323.337 185.096 320.987Z" fill="#88ADD8"/>
<path d="M173.298 322.154C178.386 318.831 183.402 318.042 184.502 320.392C185.602 322.742 182.37 327.339 177.282 330.661C172.194 333.984 167.178 334.772 166.078 332.422C164.977 330.073 168.21 325.474 173.298 322.154Z" fill="#AFCDFB"/>
<path d="M169.645 332.774C169.232 332.774 168.856 332.728 168.525 332.631C167.891 332.449 167.451 332.096 167.217 331.587C166.758 330.587 167.184 329.101 168.414 327.405C169.617 325.746 171.451 324.066 173.581 322.671C176.852 320.53 180.179 319.495 182.057 320.036C182.691 320.219 183.131 320.571 183.365 321.08C183.825 322.081 183.399 323.567 182.168 325.263C180.966 326.921 179.131 328.601 177.001 329.996C174.306 331.761 171.572 332.774 169.645 332.774ZM180.948 320.27C179.103 320.27 176.393 321.277 173.785 322.984C171.693 324.355 169.892 326.002 168.715 327.625C167.584 329.184 167.162 330.573 167.556 331.433C167.743 331.839 168.103 332.122 168.628 332.273C168.921 332.358 169.26 332.397 169.633 332.397C171.477 332.397 174.188 331.391 176.795 329.683C178.887 328.312 180.688 326.664 181.865 325.043C182.996 323.484 183.418 322.095 183.024 321.235C182.838 320.829 182.477 320.545 181.952 320.395C181.657 320.312 181.32 320.27 180.948 320.27Z" fill="#98B9EA"/>
<path d="M173.24 327.617C173.396 327.548 173.537 327.472 173.66 327.391C173.783 327.31 173.896 327.213 173.999 327.102C174.102 326.991 174.201 326.866 174.294 326.723C174.387 326.581 174.48 326.416 174.573 326.228C174.738 325.903 174.906 325.6 175.078 325.319C175.251 325.037 175.443 324.776 175.657 324.534C175.871 324.294 176.113 324.073 176.388 323.87C176.662 323.668 176.982 323.488 177.349 323.328C177.666 323.189 177.953 323.098 178.207 323.058C178.461 323.018 178.678 323.026 178.861 323.08C179.041 323.135 179.184 323.232 179.287 323.375C179.39 323.518 179.445 323.702 179.455 323.93L180.656 323.403L180.592 324.049L179.376 324.584C179.308 324.835 179.196 325.085 179.039 325.335C178.883 325.584 178.686 325.822 178.455 326.052C178.221 326.282 177.951 326.498 177.642 326.7C177.335 326.904 176.992 327.088 176.62 327.252L176.733 326.085C177.181 325.887 177.523 325.673 177.759 325.444C177.995 325.212 178.124 324.986 178.145 324.762C178.157 324.641 178.142 324.548 178.1 324.483C178.058 324.417 177.995 324.376 177.914 324.358C177.83 324.34 177.731 324.344 177.615 324.37C177.498 324.395 177.369 324.439 177.232 324.498C177.095 324.558 176.967 324.627 176.852 324.705C176.737 324.78 176.628 324.873 176.527 324.98C176.426 325.087 176.327 325.216 176.232 325.36C176.136 325.507 176.037 325.679 175.93 325.881C175.76 326.206 175.588 326.509 175.413 326.791C175.239 327.072 175.045 327.334 174.831 327.575C174.615 327.817 174.371 328.039 174.098 328.239C173.824 328.441 173.505 328.622 173.143 328.78C172.814 328.925 172.523 329.016 172.267 329.053C172.013 329.091 171.797 329.083 171.619 329.026C171.443 328.97 171.304 328.867 171.209 328.721C171.114 328.574 171.058 328.386 171.049 328.158L169.933 328.647L169.995 328.005L171.106 327.518C171.162 327.28 171.255 327.031 171.387 326.773C171.52 326.515 171.7 326.258 171.926 326.004C172.154 325.751 172.431 325.503 172.762 325.265C173.093 325.028 173.484 324.81 173.931 324.611L173.818 325.778C173.553 325.895 173.329 326.018 173.147 326.145C172.964 326.272 172.816 326.402 172.701 326.533C172.586 326.664 172.503 326.791 172.449 326.916C172.396 327.04 172.364 327.159 172.354 327.268C172.342 327.395 172.356 327.496 172.394 327.569C172.433 327.643 172.493 327.694 172.572 327.72C172.651 327.748 172.749 327.75 172.863 327.732C172.974 327.718 173.101 327.678 173.24 327.617Z" fill="#98B9EA"/>
<path d="M251.589 227.986V314.796L248.619 313.405L245.27 314.796L243.907 313.482L239.737 314.796L236.911 313.964L231.948 314.796L227.356 313.964L222.107 314.796L218.61 313.482L213.766 314.796L209.863 313.964L205.423 314.796L200.712 313.964L197.619 314.796L194.253 313.964L190.457 314.796V227.986H251.589Z" fill="white"/>
<path d="M240.685 240.698H199.809C199.421 240.698 199.102 240.379 199.102 239.991C199.102 239.602 199.421 239.283 199.809 239.283H240.685C241.073 239.283 241.392 239.602 241.392 239.991C241.392 240.379 241.075 240.698 240.685 240.698Z" fill="#699FF0"/>
<path d="M240.685 246.659H199.809C199.421 246.659 199.102 246.34 199.102 245.951C199.102 245.563 199.421 245.244 199.809 245.244H240.685C241.073 245.244 241.392 245.563 241.392 245.951C241.392 246.342 241.075 246.659 240.685 246.659Z" fill="#699FF0"/>
<path d="M232.417 252.624H208.079C207.778 252.624 207.53 252.376 207.53 252.075V251.758C207.53 251.457 207.778 251.209 208.079 251.209H232.417C232.718 251.209 232.966 251.457 232.966 251.758V252.075C232.966 252.378 232.718 252.624 232.417 252.624Z" fill="#699FF0"/>
<path d="M232.417 258.587H208.079C207.778 258.587 207.53 258.339 207.53 258.038V257.721C207.53 257.42 207.778 257.172 208.079 257.172H232.417C232.718 257.172 232.966 257.42 232.966 257.721V258.038C232.966 258.339 232.718 258.587 232.417 258.587Z" fill="#699FF0"/>
<path d="M232.417 264.549H208.079C207.778 264.549 207.53 264.302 207.53 264.001V263.684C207.53 263.382 207.778 263.135 208.079 263.135H232.417C232.718 263.135 232.966 263.382 232.966 263.684V264.001C232.966 264.302 232.718 264.549 232.417 264.549Z" fill="#699FF0"/>
<path d="M220.292 300.048C213.302 300.048 207.616 294.361 207.616 287.372C207.616 280.382 213.302 274.695 220.292 274.695C227.282 274.695 232.968 280.382 232.968 287.372C232.968 294.361 227.282 300.048 220.292 300.048ZM220.292 275.714C213.865 275.714 208.634 280.942 208.634 287.372C208.634 293.799 213.863 299.029 220.292 299.029C226.719 299.029 231.95 293.801 231.95 287.372C231.95 280.944 226.719 275.714 220.292 275.714Z" fill="#699FF0"/>
<path d="M212.918 284.414L220.53 294.32L226.529 279.633L219.391 287.241L212.918 284.414Z" fill="#F99746"/>
<path d="M373.329 211.348C377.312 211.348 380.54 208.119 380.54 204.136C380.54 200.153 377.312 196.924 373.329 196.924C369.346 196.924 366.117 200.153 366.117 204.136C366.117 208.119 369.346 211.348 373.329 211.348Z" fill="white"/>
<path d="M374.183 205.852C374.185 205.705 374.167 205.574 374.125 205.461C374.085 205.349 374.018 205.246 373.925 205.152C373.832 205.059 373.711 204.974 373.562 204.895C373.414 204.816 373.234 204.736 373.018 204.661C372.649 204.526 372.314 204.384 372.013 204.237C371.712 204.09 371.456 203.922 371.242 203.734C371.03 203.544 370.866 203.324 370.749 203.074C370.634 202.822 370.579 202.525 370.583 202.181C370.587 201.881 370.644 201.61 370.753 201.366C370.862 201.123 371.016 200.911 371.217 200.73C371.417 200.55 371.654 200.405 371.93 200.294C372.205 200.183 372.514 200.116 372.855 200.088L372.871 198.961L373.778 198.975L373.763 200.118C374.087 200.166 374.381 200.255 374.644 200.389C374.908 200.524 375.13 200.695 375.312 200.905C375.494 201.115 375.633 201.362 375.73 201.646C375.825 201.931 375.871 202.248 375.867 202.599L374.226 202.575C374.232 202.153 374.143 201.836 373.959 201.624C373.774 201.412 373.525 201.305 373.212 201.299C373.041 201.297 372.895 201.319 372.772 201.364C372.649 201.41 372.546 201.473 372.465 201.554C372.384 201.636 372.324 201.733 372.284 201.844C372.245 201.957 372.225 202.077 372.223 202.206C372.221 202.337 372.239 202.454 372.275 202.561C372.31 202.668 372.374 202.765 372.467 202.856C372.558 202.947 372.681 203.032 372.831 203.114C372.984 203.195 373.172 203.28 373.398 203.367C373.763 203.51 374.095 203.655 374.393 203.803C374.692 203.952 374.947 204.122 375.159 204.312C375.371 204.503 375.536 204.724 375.653 204.976C375.768 205.228 375.823 205.523 375.819 205.864C375.815 206.173 375.758 206.45 375.645 206.694C375.534 206.938 375.377 207.15 375.179 207.326C374.979 207.502 374.741 207.643 374.46 207.748C374.181 207.853 373.87 207.918 373.529 207.946L373.513 208.994L372.611 208.98L372.627 207.936C372.314 207.9 372.011 207.827 371.72 207.718C371.429 207.609 371.171 207.453 370.947 207.251C370.723 207.048 370.545 206.795 370.414 206.492C370.283 206.189 370.22 205.824 370.226 205.404L371.866 205.428C371.863 205.677 371.894 205.885 371.962 206.054C372.029 206.222 372.12 206.357 372.237 206.458C372.352 206.559 372.485 206.632 372.633 206.674C372.782 206.718 372.934 206.739 373.089 206.741C373.267 206.743 373.424 206.724 373.558 206.68C373.693 206.636 373.806 206.575 373.899 206.496C373.99 206.416 374.06 206.321 374.107 206.212C374.157 206.101 374.181 205.983 374.183 205.852Z" fill="#AFCDFB"/>
<path d="M394.283 183.92C400.048 183.92 404.722 179.246 404.722 173.48C404.722 167.715 400.048 163.041 394.283 163.041C388.517 163.041 383.843 167.715 383.843 173.48C383.843 179.246 388.517 183.92 394.283 183.92Z" fill="white"/>
<path d="M395.518 175.964C395.522 175.75 395.494 175.562 395.437 175.397C395.379 175.233 395.282 175.084 395.147 174.952C395.013 174.817 394.838 174.692 394.622 174.577C394.408 174.462 394.145 174.349 393.834 174.238C393.301 174.042 392.815 173.838 392.381 173.626C391.946 173.414 391.575 173.17 391.266 172.897C390.957 172.624 390.721 172.305 390.553 171.94C390.386 171.577 390.305 171.146 390.313 170.646C390.319 170.214 390.402 169.822 390.561 169.467C390.719 169.115 390.943 168.808 391.23 168.546C391.52 168.287 391.862 168.077 392.263 167.916C392.663 167.758 393.109 167.657 393.602 167.619L393.626 165.986L394.939 166.006L394.915 167.661C395.385 167.728 395.811 167.859 396.191 168.053C396.572 168.247 396.895 168.495 397.158 168.8C397.422 169.105 397.624 169.461 397.763 169.874C397.901 170.286 397.967 170.745 397.961 171.253L395.587 171.219C395.595 170.609 395.466 170.151 395.201 169.844C394.933 169.537 394.573 169.38 394.119 169.374C393.873 169.37 393.659 169.402 393.481 169.467C393.303 169.533 393.154 169.626 393.037 169.743C392.92 169.862 392.833 170 392.776 170.163C392.718 170.325 392.689 170.5 392.687 170.688C392.685 170.876 392.708 171.046 392.762 171.199C392.813 171.352 392.906 171.494 393.039 171.627C393.172 171.758 393.348 171.883 393.568 172.001C393.788 172.118 394.062 172.241 394.388 172.368C394.917 172.574 395.397 172.784 395.829 173C396.261 173.214 396.631 173.462 396.938 173.737C397.245 174.014 397.483 174.333 397.652 174.698C397.818 175.063 397.899 175.491 397.891 175.984C397.885 176.432 397.8 176.832 397.64 177.184C397.479 177.539 397.253 177.842 396.966 178.098C396.677 178.353 396.332 178.558 395.926 178.708C395.522 178.861 395.072 178.956 394.579 178.993L394.557 180.511L393.251 180.491L393.273 178.981C392.819 178.93 392.381 178.823 391.959 178.664C391.537 178.506 391.165 178.28 390.84 177.989C390.515 177.698 390.258 177.331 390.067 176.891C389.877 176.451 389.786 175.926 389.794 175.316L392.167 175.35C392.162 175.71 392.209 176.014 392.306 176.255C392.403 176.499 392.536 176.693 392.704 176.842C392.871 176.988 393.063 177.093 393.279 177.155C393.495 177.216 393.715 177.248 393.939 177.252C394.196 177.256 394.422 177.226 394.618 177.163C394.814 177.099 394.977 177.01 395.112 176.895C395.244 176.78 395.345 176.644 395.413 176.483C395.48 176.323 395.516 176.152 395.518 175.964Z" fill="#AFCDFB"/>
<path d="M380.541 149.053C391.26 149.053 399.95 140.364 399.95 129.645C399.95 118.926 391.26 110.236 380.541 110.236C369.822 110.236 361.133 118.926 361.133 129.645C361.133 140.364 369.822 149.053 380.541 149.053Z" fill="white"/>
<path d="M382.843 134.262C382.849 133.865 382.798 133.515 382.691 133.209C382.584 132.904 382.403 132.629 382.154 132.379C381.902 132.13 381.577 131.898 381.179 131.684C380.781 131.47 380.291 131.26 379.715 131.054C378.722 130.689 377.823 130.309 377.014 129.915C376.206 129.52 375.514 129.069 374.942 128.557C374.369 128.048 373.927 127.456 373.616 126.78C373.305 126.105 373.157 125.302 373.171 124.377C373.182 123.573 373.335 122.843 373.63 122.186C373.925 121.528 374.34 120.957 374.876 120.474C375.413 119.99 376.051 119.6 376.794 119.303C377.537 119.006 378.367 118.821 379.283 118.75L379.326 115.715L381.769 115.751L381.724 118.827C382.598 118.954 383.388 119.198 384.095 119.557C384.803 119.917 385.401 120.379 385.892 120.943C386.382 121.508 386.758 122.174 387.016 122.939C387.273 123.703 387.396 124.559 387.382 125.504L382.97 125.441C382.986 124.306 382.746 123.454 382.251 122.885C381.755 122.316 381.086 122.023 380.24 122.011C379.782 122.005 379.386 122.063 379.053 122.186C378.72 122.309 378.445 122.479 378.229 122.699C378.013 122.919 377.85 123.178 377.743 123.479C377.636 123.781 377.581 124.106 377.577 124.456C377.571 124.807 377.619 125.124 377.716 125.409C377.813 125.695 377.985 125.96 378.231 126.204C378.476 126.447 378.803 126.679 379.213 126.899C379.624 127.117 380.131 127.345 380.739 127.581C381.72 127.963 382.613 128.355 383.418 128.754C384.22 129.154 384.91 129.61 385.482 130.125C386.055 130.64 386.497 131.234 386.808 131.91C387.119 132.585 387.267 133.382 387.253 134.299C387.242 135.131 387.085 135.876 386.786 136.534C386.487 137.192 386.069 137.758 385.532 138.232C384.995 138.708 384.351 139.086 383.598 139.367C382.845 139.649 382.011 139.827 381.094 139.898L381.052 142.72L378.625 142.684L378.667 139.876C377.823 139.779 377.008 139.583 376.224 139.288C375.439 138.993 374.746 138.575 374.141 138.03C373.539 137.487 373.06 136.805 372.705 135.987C372.35 135.169 372.182 134.192 372.198 133.059L376.61 133.122C376.6 133.794 376.685 134.355 376.868 134.806C377.05 135.258 377.296 135.621 377.607 135.896C377.918 136.171 378.274 136.364 378.675 136.479C379.075 136.594 379.483 136.653 379.901 136.659C380.379 136.667 380.8 136.611 381.163 136.492C381.526 136.376 381.831 136.209 382.078 135.995C382.326 135.781 382.512 135.526 382.639 135.23C382.772 134.935 382.839 134.612 382.843 134.262Z" fill="#AFCDFB"/>
<path d="M442.594 276.988C442.594 276.988 446.471 279.566 447.065 280.654C447.66 281.741 449.041 285.742 449.041 285.742C449.041 285.742 448.052 285.89 447.065 284.16C446.079 282.431 442.817 282.579 441.73 281.64C440.642 280.701 439.378 277.951 439.378 277.951L442.594 276.988Z" fill="#FFB27D"/>
<path d="M439.801 278.803C439.801 278.803 440.445 281.838 441.235 282.728C442.026 283.617 443.111 285.099 443.557 284.703C444.001 284.309 443.064 280.998 443.064 280.998L439.801 278.803Z" fill="#FFB27D"/>
<path d="M446.521 280.998C446.621 281.147 450.028 284.768 450.028 284.768C450.028 284.768 448.794 285.327 448.447 284.768C448.103 284.21 446.521 280.998 446.521 280.998Z" fill="#FFB27D"/>
</svg>
