<svg width="719" height="411" viewBox="0 0 719 411" fill="none" xmlns="http://www.w3.org/2000/svg">
<path d="M37.0406 408.733C37.0406 408.733 -43.1963 331.953 38.1929 220.773C110.898 121.426 56.601 73.9583 131.217 25.5632C206.648 -23.3658 270.838 6.42443 343.037 44.2524C415.236 82.0803 514.949 -8.47068 622.699 39.6714C730.422 87.8136 714.937 161.39 688.294 237.046C665.811 300.898 734.216 347.045 696.894 408.845C696.894 408.845 34.7361 406.428 37.0406 408.733Z" fill="#EBF3FA"/>
<path d="M717.579 409.97H0.815018C0.365354 409.97 0 409.605 0 409.155V408.846C0 408.397 0.365354 408.031 0.815018 408.031H717.579C718.029 408.031 718.394 408.397 718.394 408.846V409.155C718.422 409.605 718.029 409.97 717.579 409.97Z" fill="#2E3552"/>
<path d="M540.719 132.969L551.249 133.52C556.458 133.79 560.539 138.105 560.515 143.326L559.455 393.259C559.431 398.953 554.78 403.532 549.086 403.472L476.761 402.687L540.719 132.969Z" fill="url(#paint0_linear_185_891)"/>
<path d="M414.434 134.499L547.858 126.647C550.615 126.485 552.929 128.709 552.869 131.478L547.33 389.065C547.211 394.561 542.637 398.913 537.141 398.745L443.275 395.958L414.434 134.499Z" fill="url(#paint1_linear_185_891)"/>
<path d="M421.614 139.837L538.867 123.625C541.882 123.205 544.561 125.567 544.525 128.611L541.534 388.386C541.492 392.048 538.585 395.039 534.929 395.183L448.579 398.611L421.614 139.837Z" fill="url(#paint2_linear_185_891)"/>
<path d="M390.621 127.251L519.262 117.889C525.675 117.422 531.147 122.463 531.213 128.888L533.988 394.105C534.042 399.481 529.732 403.887 524.35 403.947L405.671 405.187C400.073 405.247 395.404 400.914 395.044 395.328L378.675 140.953C378.226 133.88 383.554 127.767 390.621 127.251Z" fill="url(#paint3_linear_185_891)"/>
<path d="M536.337 222.173L528.042 222.263C524.805 222.299 522.156 219.704 522.12 216.467L521.413 149.039C521.377 145.803 523.972 143.153 527.209 143.117L535.504 143.034C538.74 142.998 541.39 145.593 541.426 148.829L542.133 216.258C542.169 219.488 539.574 222.137 536.337 222.173Z" fill="url(#paint4_linear_185_891)"/>
<path d="M483.923 267.766C483.252 291.812 481.064 374.758 482.107 404.151C482.215 407.267 485.038 409.767 488.556 409.868C505.95 410.372 569.722 411.649 598.174 410.594C604.101 410.372 608.812 406.122 608.938 400.872C609.531 375.633 610.832 304.645 607.733 272.123C607.362 268.227 603.909 265.123 599.51 264.733C580.564 263.055 516.523 258.955 491.937 260.364C487.507 260.615 484.037 263.828 483.923 267.766Z" fill="url(#paint5_linear_185_891)"/>
<path d="M491.685 273.364C490.75 278.986 487.795 297.681 488.73 304.597C488.868 305.61 491.972 306.425 495.91 306.485C512.123 306.731 567.432 307.264 591.209 306.779C595.488 306.689 598.85 305.802 599.084 304.705C600.289 298.969 603.747 281.564 602.848 274.725C602.704 273.634 599.408 272.741 595.17 272.645C577.633 272.244 518.86 271.279 498.649 271.566C494.867 271.614 491.847 272.394 491.685 273.364Z" fill="url(#paint6_linear_185_891)"/>
<path opacity="0.2" d="M595.47 278.248C594.607 277.361 593.432 276.846 592.191 276.828L501.089 275.377C498.655 275.342 496.599 277.182 496.372 279.603L494.478 299.813C494.322 301.468 497.043 302.864 500.519 302.906L590.088 303.991C593.552 304.033 596.417 302.708 596.447 301.06L596.783 281.569C596.801 280.334 596.327 279.135 595.47 278.248Z" fill="white"/>
<path opacity="0.63" d="M513.602 326.677C513.602 330.273 510.689 333.186 507.093 333.186H499.134C495.537 333.186 492.625 330.273 492.625 326.677V326.509C492.625 322.913 495.537 320 499.134 320H507.093C510.689 320 513.602 322.913 513.602 326.509V326.677Z" fill="url(#paint7_linear_185_891)"/>
<path opacity="0.63" d="M542.971 326.677C542.971 330.273 540.058 333.186 536.462 333.186H528.503C524.907 333.186 521.994 330.273 521.994 326.677V326.509C521.994 322.913 524.907 320 528.503 320H536.462C540.058 320 542.971 322.913 542.971 326.509V326.677Z" fill="url(#paint8_linear_185_891)"/>
<path opacity="0.63" d="M571.143 326.677C571.143 330.273 568.23 333.186 564.634 333.186H556.674C553.078 333.186 550.165 330.273 550.165 326.677V326.509C550.165 322.913 553.078 320 556.674 320H564.634C568.23 320 571.143 322.913 571.143 326.509V326.677Z" fill="url(#paint9_linear_185_891)"/>
<path d="M599.908 327.193C599.908 330.837 596.959 333.786 593.315 333.786H585.524C581.88 333.786 578.931 330.837 578.931 327.193C578.931 323.548 581.88 320.6 585.524 320.6H593.315C596.959 320.6 599.908 323.548 599.908 327.193Z" fill="url(#paint10_linear_185_891)"/>
<path opacity="0.63" d="M513.602 347.054C513.602 350.65 510.689 353.563 507.093 353.563H499.134C495.537 353.563 492.625 350.65 492.625 347.054V346.886C492.625 343.29 495.537 340.377 499.134 340.377H507.093C510.689 340.377 513.602 343.29 513.602 346.886V347.054Z" fill="url(#paint11_linear_185_891)"/>
<path opacity="0.63" d="M542.971 347.054C542.971 350.65 540.058 353.563 536.462 353.563H528.503C524.907 353.563 521.994 350.65 521.994 347.054V346.886C521.994 343.29 524.907 340.377 528.503 340.377H536.462C540.058 340.377 542.971 343.29 542.971 346.886V347.054Z" fill="url(#paint12_linear_185_891)"/>
<path opacity="0.63" d="M571.143 347.054C571.143 350.65 568.23 353.563 564.634 353.563H556.674C553.078 353.563 550.165 350.65 550.165 347.054V346.886C550.165 343.29 553.078 340.377 556.674 340.377H564.634C568.23 340.377 571.143 343.29 571.143 346.886V347.054Z" fill="url(#paint13_linear_185_891)"/>
<path d="M600.508 347.054C600.508 350.65 597.595 353.563 593.999 353.563H586.039C582.443 353.563 579.53 350.65 579.53 347.054V346.886C579.53 343.29 582.443 340.377 586.039 340.377H593.999C597.595 340.377 600.508 343.29 600.508 346.886V347.054Z" fill="url(#paint14_linear_185_891)"/>
<path opacity="0.63" d="M513.602 366.235C513.602 369.832 510.689 372.745 507.093 372.745H499.134C495.537 372.745 492.625 369.832 492.625 366.235V366.068C492.625 362.471 495.537 359.559 499.134 359.559H507.093C510.689 359.559 513.602 362.471 513.602 366.068V366.235Z" fill="url(#paint15_linear_185_891)"/>
<path opacity="0.63" d="M542.971 366.235C542.971 369.832 540.058 372.745 536.462 372.745H528.503C524.907 372.745 521.994 369.832 521.994 366.235V366.068C521.994 362.471 524.907 359.559 528.503 359.559H536.462C540.058 359.559 542.971 362.471 542.971 366.068V366.235Z" fill="url(#paint16_linear_185_891)"/>
<path opacity="0.63" d="M571.143 366.235C571.143 369.832 568.23 372.745 564.634 372.745H556.674C553.078 372.745 550.165 369.832 550.165 366.235V366.068C550.165 362.471 553.078 359.559 556.674 359.559H564.634C568.23 359.559 571.143 362.471 571.143 366.068V366.235Z" fill="url(#paint17_linear_185_891)"/>
<path opacity="0.63" d="M513.602 386.015C513.602 389.611 510.689 392.524 507.093 392.524H499.134C495.537 392.524 492.625 389.611 492.625 386.015V385.847C492.625 382.251 495.537 379.338 499.134 379.338H507.093C510.689 379.338 513.602 382.251 513.602 385.847V386.015Z" fill="url(#paint18_linear_185_891)"/>
<path opacity="0.63" d="M542.971 386.015C542.971 389.611 540.058 392.524 536.462 392.524H528.503C524.907 392.524 521.994 389.611 521.994 386.015V385.847C521.994 382.251 524.907 379.338 528.503 379.338H536.462C540.058 379.338 542.971 382.251 542.971 385.847V386.015Z" fill="url(#paint19_linear_185_891)"/>
<path opacity="0.63" d="M571.143 386.015C571.143 389.611 568.23 392.524 564.634 392.524H556.674C553.078 392.524 550.165 389.611 550.165 386.015V385.847C550.165 382.251 553.078 379.338 556.674 379.338H564.634C568.23 379.338 571.143 382.251 571.143 385.847V386.015Z" fill="url(#paint20_linear_185_891)"/>
<path d="M597.513 384.281C597.513 388.83 593.821 392.522 589.271 392.522H588.972C584.423 392.522 580.73 388.83 580.73 384.281V368.397C580.73 363.848 584.423 360.156 588.972 360.156H589.271C593.821 360.156 597.513 363.848 597.513 368.397V384.281Z" fill="url(#paint21_linear_185_891)"/>
<g opacity="0.7">
<path d="M586.124 281.424C586.124 282.203 585.489 282.839 584.71 282.839H580.946C580.167 282.839 579.531 282.203 579.531 281.424V281.256C579.531 280.477 580.167 279.842 580.946 279.842H584.71C585.489 279.842 586.124 280.477 586.124 281.256V281.424Z" fill="white"/>
<path d="M586.124 300.604C586.124 301.383 585.489 302.018 584.71 302.018H580.946C580.167 302.018 579.531 301.383 579.531 300.604V300.436C579.531 299.657 580.167 299.021 580.946 299.021H584.71C585.489 299.021 586.124 299.657 586.124 300.436V300.604Z" fill="white"/>
<path d="M580.729 288.616C580.729 289.395 580.094 290.03 579.315 290.03H579.147C578.368 290.03 577.732 289.395 577.732 288.616V284.852C577.732 284.073 578.368 283.438 579.147 283.438H579.315C580.094 283.438 580.729 284.073 580.729 284.852V288.616Z" fill="white"/>
<path d="M580.729 297.009C580.729 297.788 580.094 298.423 579.315 298.423H579.147C578.368 298.423 577.732 297.788 577.732 297.009V293.245C577.732 292.465 578.368 291.83 579.147 291.83H579.315C580.094 291.83 580.729 292.465 580.729 293.245V297.009Z" fill="white"/>
<path d="M590.32 288.616C590.32 289.395 589.685 290.03 588.906 290.03H588.738C587.959 290.03 587.323 289.395 587.323 288.616V284.852C587.323 284.073 587.959 283.438 588.738 283.438H588.906C589.685 283.438 590.32 284.073 590.32 284.852V288.616Z" fill="white"/>
<path d="M590.32 297.009C590.32 297.788 589.685 298.423 588.906 298.423H588.738C587.959 298.423 587.323 297.788 587.323 297.009V293.245C587.323 292.465 587.959 291.83 588.738 291.83H588.906C589.685 291.83 590.32 292.465 590.32 293.245V297.009Z" fill="white"/>
</g>
<path d="M232.362 80.3329L430.973 84.2467C441.929 84.4625 450.794 93.2251 451.135 104.181L460.12 392.414C460.389 400.985 453.503 408.076 444.926 408.064L217.217 407.716C209.161 407.704 202.676 401.081 202.838 393.026L208.55 103.228C208.802 90.3302 219.464 80.0752 232.362 80.3329Z" fill="url(#paint22_linear_185_891)"/>
<path d="M250.594 403.533C250.588 403.533 250.582 403.533 250.576 403.533L225.11 402.7C216.563 402.418 209.748 395.238 209.922 386.691L210.683 348.236C210.689 347.906 210.959 347.648 211.282 347.648C211.288 347.648 211.288 347.648 211.294 347.648C211.624 347.654 211.888 347.93 211.882 348.26L211.12 386.715C210.965 394.608 217.258 401.243 225.151 401.501L250.618 402.334C250.948 402.346 251.206 402.622 251.2 402.952C251.182 403.275 250.912 403.533 250.594 403.533Z" fill="white"/>
<path d="M233.022 78.0061C260.072 82.2196 353.11 95.4356 430.338 91.0362C433.862 90.8385 436.859 93.5596 436.979 97.0838L446.647 386.617C446.779 390.585 443.686 393.917 439.712 394.073C407.245 395.356 273.533 400.139 225.998 394.211C223.103 393.852 220.951 391.364 220.993 388.451L225.195 84.6231C225.249 80.4935 228.941 77.3708 233.022 78.0061Z" fill="url(#paint23_linear_185_891)"/>
<path opacity="0.6" d="M235.778 85.5714C261.808 89.6231 351.347 102.342 425.662 98.1101C429.048 97.9183 431.937 100.537 432.051 103.93L441.359 382.561C441.485 386.379 438.506 389.585 434.688 389.735C403.443 390.964 274.766 395.573 229.017 389.867C226.23 389.52 224.162 387.128 224.198 384.323L228.244 91.9366C228.298 87.9629 231.852 84.9601 235.778 85.5714Z" fill="white"/>
<path d="M344.759 43.2738C337.681 38.1433 331.441 38.1193 327.024 39.324C322.996 40.4268 320.323 44.2448 320.623 48.4103L322.109 69.1183L344.603 71.5637C344.603 71.5637 358.634 53.3371 344.759 43.2738ZM334.522 59.7502C331.417 59.6903 328.954 57.125 329.014 54.0204C329.074 50.9157 331.639 48.4523 334.744 48.5122C337.849 48.5722 340.312 51.1374 340.252 54.2421C340.186 57.3468 337.621 59.8162 334.522 59.7502Z" fill="url(#paint24_linear_185_891)"/>
<path d="M324.141 60.9678C323.751 60.8179 323.464 60.4523 323.434 60.0088L323.2 56.7123C323.158 56.095 323.619 55.5615 324.231 55.5196C324.842 55.4716 325.382 55.9391 325.424 56.5505L325.657 59.847C325.699 60.4643 325.238 60.9977 324.626 61.0397C324.453 61.0517 324.291 61.0217 324.141 60.9678ZM323.673 54.5007C323.284 54.3508 322.996 53.9852 322.966 53.5417L322.786 51.0364C322.481 46.7929 325.226 42.909 329.307 41.7882C332.1 41.021 334.971 40.9611 337.824 41.6084C338.418 41.7522 338.801 42.3396 338.669 42.945C338.532 43.5443 337.938 43.9219 337.333 43.7901C334.834 43.2267 332.334 43.2806 329.895 43.9459C326.838 44.785 324.782 47.6979 325.01 50.8805L325.19 53.3858C325.232 54.0032 324.77 54.5366 324.159 54.5786C323.991 54.5846 323.823 54.5606 323.673 54.5007Z" fill="white"/>
<path d="M291.094 81.8674L291.298 71.4745C291.369 67.8843 294.396 65.0733 297.98 65.2651L369.58 69.131C372.757 69.3048 375.286 71.8641 375.412 75.0407L375.813 85.038L291.094 81.8674Z" fill="url(#paint25_linear_185_891)"/>
<path d="M318.071 69.6396C318.065 69.6396 318.065 69.6396 318.059 69.6396L314.979 69.5797C314.649 69.5737 314.385 69.298 314.391 68.9683C314.397 68.6387 314.697 68.375 315.003 68.381L318.083 68.4409C318.413 68.4469 318.677 68.7226 318.671 69.0522C318.665 69.3759 318.395 69.6396 318.071 69.6396Z" fill="white"/>
<path d="M294.641 79.1811C294.216 79.0133 293.922 78.5997 293.928 78.1202L294.012 73.9187C294.048 72.1925 294.749 70.5803 295.996 69.3875C297.242 68.1888 298.879 67.5475 300.605 67.5835L311.933 67.8052C312.544 67.8172 313.041 68.3267 313.023 68.944C313.011 69.5614 312.502 70.0528 311.885 70.0409L300.557 69.8191C298.225 69.7711 296.289 71.6351 296.241 73.9667L296.157 78.1682C296.145 78.7855 295.636 79.277 295.019 79.265C294.887 79.253 294.761 79.2231 294.641 79.1811Z" fill="white"/>
<path d="M268.72 77.6225L394.011 80.0918C398.518 80.1817 402.306 83.4962 402.983 87.9555L403.079 88.5728C403.822 93.4516 399.993 97.8269 395.06 97.725L266.515 95.1897C263.56 95.1298 261.258 92.6185 261.456 89.6696L261.846 83.9217C262.092 80.3196 265.112 77.5505 268.72 77.6225Z" fill="url(#paint26_linear_185_891)"/>
<g opacity="0.9">
<path d="M413.509 114.868C413.509 116.936 411.831 118.614 409.763 118.614H262.021C259.953 118.614 258.275 116.936 258.275 114.868V114.568C258.275 112.5 259.953 110.822 262.021 110.822H409.763C411.831 110.822 413.509 112.5 413.509 114.568V114.868Z" fill="white"/>
<path d="M413.509 128.653C413.509 130.721 411.831 132.399 409.763 132.399H262.021C259.953 132.399 258.275 130.721 258.275 128.653V128.353C258.275 126.286 259.953 124.607 262.021 124.607H409.763C411.831 124.607 413.509 126.286 413.509 128.353V128.653Z" fill="white"/>
<path d="M308.999 153.377C308.999 155.421 306.853 156.974 304.204 156.974H250.861C248.212 156.974 246.066 155.421 246.066 153.377C246.066 151.334 248.212 149.781 250.861 149.781H304.204C306.853 149.781 308.999 151.334 308.999 153.377Z" fill="white"/>
<path d="M332.974 169.859C332.974 171.765 330.829 173.155 328.18 173.155H274.836C272.187 173.155 270.042 171.765 270.042 169.859C270.042 167.953 272.187 166.562 274.836 166.562H328.18C330.829 166.562 332.974 167.953 332.974 169.859Z" fill="white"/>
<path d="M332.974 182.447C332.974 184.353 330.829 185.743 328.18 185.743H274.836C272.187 185.743 270.042 184.353 270.042 182.447C270.042 180.541 272.187 179.15 274.836 179.15H328.18C330.829 179.15 332.974 180.541 332.974 182.447Z" fill="white"/>
<path d="M332.974 195.632C332.974 197.538 330.829 198.929 328.18 198.929H274.836C272.187 198.929 270.042 197.538 270.042 195.632C270.042 193.726 272.187 192.336 274.836 192.336H328.18C330.829 192.336 332.974 193.726 332.974 195.632Z" fill="white"/>
<path d="M407.516 169.859C407.516 171.681 406.042 173.155 404.219 173.155H388.037C386.215 173.155 384.74 171.681 384.74 169.859C384.74 168.037 386.215 166.562 388.037 166.562H404.219C406.042 166.562 407.516 168.037 407.516 169.859Z" fill="white"/>
<path d="M407.516 182.447C407.516 184.269 406.042 185.743 404.219 185.743H388.037C386.215 185.743 384.74 184.269 384.74 182.447C384.74 180.625 386.215 179.15 388.037 179.15H404.219C406.042 179.15 407.516 180.625 407.516 182.447Z" fill="white"/>
<path d="M407.516 195.632C407.516 197.454 406.042 198.929 404.219 198.929H388.037C386.215 198.929 384.74 197.454 384.74 195.632C384.74 193.81 386.215 192.336 388.037 192.336H404.219C406.042 192.336 407.516 193.81 407.516 195.632Z" fill="white"/>
<path d="M416.506 213.314C416.506 213.973 415.966 214.513 415.307 214.513H329.598C328.939 214.513 328.399 213.973 328.399 213.314C328.399 212.655 328.939 212.115 329.598 212.115H415.307C415.966 212.115 416.506 212.655 416.506 213.314Z" fill="white"/>
<path d="M308.999 233.692C308.999 235.736 306.853 237.288 304.204 237.288H250.861C248.212 237.288 246.066 235.736 246.066 233.692C246.066 231.648 248.212 230.096 250.861 230.096H304.204C306.853 230.096 308.999 231.648 308.999 233.692Z" fill="white"/>
<path d="M332.974 250.173C332.974 252.079 330.829 253.47 328.18 253.47H274.836C272.187 253.47 270.042 252.079 270.042 250.173C270.042 248.267 272.187 246.877 274.836 246.877H328.18C330.829 246.877 332.974 248.267 332.974 250.173Z" fill="white"/>
<path d="M332.974 262.761C332.974 264.667 330.829 266.058 328.18 266.058H274.836C272.187 266.058 270.042 264.667 270.042 262.761C270.042 260.855 272.187 259.465 274.836 259.465H328.18C330.829 259.465 332.974 260.855 332.974 262.761Z" fill="white"/>
<path d="M332.974 275.947C332.974 277.853 330.829 279.243 328.18 279.243H274.836C272.187 279.243 270.042 277.853 270.042 275.947C270.042 274.041 272.187 272.65 274.836 272.65H328.18C330.829 272.65 332.974 274.041 332.974 275.947Z" fill="white"/>
<path d="M407.516 250.173C407.516 251.995 406.042 253.47 404.219 253.47H388.037C386.215 253.47 384.74 251.995 384.74 250.173C384.74 248.351 386.215 246.877 388.037 246.877H404.219C406.042 246.877 407.516 248.351 407.516 250.173Z" fill="white"/>
<path d="M407.516 262.761C407.516 264.583 406.042 266.058 404.219 266.058H388.037C386.215 266.058 384.74 264.583 384.74 262.761C384.74 260.939 386.215 259.465 388.037 259.465H404.219C406.042 259.465 407.516 260.939 407.516 262.761Z" fill="white"/>
<path d="M407.516 275.947C407.516 277.769 406.042 279.243 404.219 279.243H388.037C386.215 279.243 384.74 277.769 384.74 275.947C384.74 274.125 386.215 272.65 388.037 272.65H404.219C406.042 272.65 407.516 274.125 407.516 275.947Z" fill="white"/>
<path d="M416.506 293.628C416.506 294.288 415.966 294.827 415.307 294.827H329.598C328.939 294.827 328.399 294.288 328.399 293.628C328.399 292.969 328.939 292.43 329.598 292.43H415.307C415.966 292.43 416.506 292.969 416.506 293.628Z" fill="white"/>
<path d="M308.999 312.807C308.999 314.851 306.853 316.403 304.204 316.403H250.861C248.212 316.403 246.066 314.851 246.066 312.807C246.066 310.763 248.212 309.211 250.861 309.211H304.204C306.853 309.211 308.999 310.763 308.999 312.807Z" fill="white"/>
<path d="M332.974 329.289C332.974 331.195 330.829 332.585 328.18 332.585H274.836C272.187 332.585 270.042 331.195 270.042 329.289C270.042 327.383 272.187 325.992 274.836 325.992H328.18C330.829 325.992 332.974 327.383 332.974 329.289Z" fill="white"/>
<path d="M332.974 341.877C332.974 343.783 330.829 345.173 328.18 345.173H274.836C272.187 345.173 270.042 343.783 270.042 341.877C270.042 339.971 272.187 338.58 274.836 338.58H328.18C330.829 338.58 332.974 339.971 332.974 341.877Z" fill="white"/>
<path d="M332.974 355.062C332.974 356.968 330.829 358.359 328.18 358.359H274.836C272.187 358.359 270.042 356.968 270.042 355.062C270.042 353.156 272.187 351.766 274.836 351.766H328.18C330.829 351.766 332.974 353.156 332.974 355.062Z" fill="white"/>
<path d="M407.516 330.488C407.516 332.31 406.042 333.784 404.219 333.784H388.037C386.215 333.784 384.74 332.31 384.74 330.488C384.74 328.666 386.215 327.191 388.037 327.191H404.219C406.042 327.191 407.516 328.666 407.516 330.488Z" fill="white"/>
<path d="M407.516 343.076C407.516 344.898 406.042 346.372 404.219 346.372H388.037C386.215 346.372 384.74 344.898 384.74 343.076C384.74 341.254 386.215 339.779 388.037 339.779H404.219C406.042 339.779 407.516 341.254 407.516 343.076Z" fill="white"/>
<path d="M407.516 356.261C407.516 358.083 406.042 359.558 404.219 359.558H388.037C386.215 359.558 384.74 358.083 384.74 356.261C384.74 354.439 386.215 352.965 388.037 352.965H404.219C406.042 352.965 407.516 354.439 407.516 356.261Z" fill="white"/>
<path d="M416.506 373.941C416.506 374.6 415.966 375.14 415.307 375.14H329.598C328.939 375.14 328.399 374.6 328.399 373.941C328.399 373.282 328.939 372.742 329.598 372.742H415.307C415.966 372.742 416.506 373.282 416.506 373.941Z" fill="white"/>
</g>
<path d="M100.391 161.14C108.544 161.14 115.153 154.53 115.153 146.378C115.153 138.225 108.544 131.615 100.391 131.615C92.2382 131.615 85.6289 138.225 85.6289 146.378C85.6289 154.53 92.2382 161.14 100.391 161.14Z" fill="url(#paint27_linear_185_891)"/>
<path d="M100.39 160.647C108.272 160.647 114.661 154.258 114.661 146.376C114.661 138.495 108.272 132.105 100.39 132.105C92.5089 132.105 86.1196 138.495 86.1196 146.376C86.1196 154.258 92.5089 160.647 100.39 160.647Z" fill="url(#paint28_linear_185_891)"/>
<path d="M88.6254 141.049C88.5355 141.049 88.4396 141.031 88.3557 140.983C88.062 140.833 87.9422 140.473 88.092 140.179C90.4475 135.51 95.1645 132.604 100.391 132.604C101.224 132.604 102.063 132.681 102.872 132.825C103.196 132.885 103.412 133.197 103.352 133.521C103.292 133.844 102.98 134.06 102.656 134C101.913 133.862 101.152 133.796 100.385 133.796C95.608 133.796 91.3046 136.445 89.1529 140.713C89.057 140.929 88.8412 141.049 88.6254 141.049Z" fill="white"/>
<path opacity="0.78" d="M100.705 158.766C107.375 158.766 112.782 153.358 112.782 146.688C112.782 140.018 107.375 134.611 100.705 134.611C94.0346 134.611 88.6274 140.018 88.6274 146.688C88.6274 153.358 94.0346 158.766 100.705 158.766Z" fill="white"/>
<path d="M99.5173 155.668V154.355C98.1448 154.301 96.7902 153.978 95.8312 153.558C95.4896 153.408 95.3098 153.025 95.4117 152.659L95.7473 151.436C95.8672 150.987 96.3587 150.753 96.7902 150.933C97.7432 151.335 98.9239 151.652 100.195 151.652C101.513 151.652 102.496 151.203 102.496 150.286C102.496 149.459 101.735 148.967 99.9009 148.476C97.2877 147.762 95.4057 146.618 95.4057 144.316C95.4057 142.236 96.9281 140.648 99.5653 140.222V138.91C99.5653 138.484 99.9069 138.143 100.332 138.143H101.106C101.531 138.143 101.873 138.484 101.873 138.91V140.091C103.137 140.138 104.06 140.36 104.798 140.618C105.175 140.75 105.379 141.151 105.271 141.535L104.966 142.668C104.846 143.105 104.378 143.345 103.959 143.183C103.287 142.925 102.334 142.662 101.094 142.662C99.5293 142.662 99.0798 143.309 99.0798 143.89C99.0798 144.604 100.021 145.095 102.053 145.725C104.96 146.594 106.164 147.804 106.164 149.974C106.164 151.964 104.69 153.75 101.825 154.199V155.668C101.825 156.093 101.483 156.435 101.058 156.435H100.284C99.8589 156.429 99.5173 156.087 99.5173 155.668Z" fill="url(#paint29_linear_185_891)"/>
<path d="M142.406 154.571C156.597 154.571 168.101 143.067 168.101 128.876C168.101 114.686 156.597 103.182 142.406 103.182C128.215 103.182 116.711 114.686 116.711 128.876C116.711 143.067 128.215 154.571 142.406 154.571Z" fill="url(#paint30_linear_185_891)"/>
<path d="M142.405 153.714C156.123 153.714 167.243 142.594 167.243 128.877C167.243 115.159 156.123 104.039 142.405 104.039C128.688 104.039 117.568 115.159 117.568 128.877C117.568 142.594 128.688 153.714 142.405 153.714Z" fill="url(#paint31_linear_185_891)"/>
<path d="M121.919 119.155C121.829 119.155 121.734 119.137 121.65 119.089C121.356 118.939 121.236 118.58 121.386 118.286C125.414 110.302 133.469 105.346 142.406 105.346C143.832 105.346 145.259 105.472 146.649 105.729C146.973 105.789 147.188 106.101 147.129 106.425C147.069 106.748 146.763 106.964 146.433 106.904C145.115 106.664 143.76 106.544 142.406 106.544C133.925 106.544 126.283 111.249 122.459 118.825C122.351 119.035 122.141 119.155 121.919 119.155Z" fill="white"/>
<path opacity="0.78" d="M142.946 150.442C154.559 150.442 163.972 141.028 163.972 129.416C163.972 117.804 154.559 108.391 142.946 108.391C131.334 108.391 121.921 117.804 121.921 129.416C121.921 141.028 131.334 150.442 142.946 150.442Z" fill="white"/>
<path d="M140.881 145.047V142.757C138.496 142.661 136.14 142.098 134.462 141.367C133.863 141.103 133.557 140.432 133.731 139.802L134.312 137.675C134.528 136.895 135.373 136.488 136.122 136.799C137.783 137.495 139.839 138.046 142.05 138.046C144.346 138.046 146.06 137.267 146.06 135.673C146.06 134.234 144.735 133.377 141.547 132.52C136.992 131.273 133.725 129.289 133.725 125.28C133.725 121.66 136.374 118.897 140.965 118.153V115.864C140.965 115.127 141.565 114.533 142.296 114.533H143.638C144.376 114.533 144.969 115.133 144.969 115.864V117.92C147.175 118.009 148.781 118.387 150.058 118.831C150.711 119.058 151.065 119.766 150.885 120.431L150.351 122.403C150.148 123.164 149.332 123.578 148.595 123.302C147.42 122.858 145.76 122.397 143.609 122.397C140.881 122.397 140.108 123.524 140.108 124.537C140.108 125.783 141.745 126.64 145.287 127.731C150.345 129.248 152.449 131.351 152.449 135.127C152.449 138.592 149.878 141.708 144.897 142.481V145.041C144.897 145.778 144.298 146.371 143.567 146.371H142.224C141.481 146.377 140.881 145.778 140.881 145.047Z" fill="url(#paint32_linear_185_891)"/>
<path d="M160.121 212.702C174.723 212.702 186.559 200.865 186.559 186.264C186.559 171.663 174.723 159.826 160.121 159.826C145.52 159.826 133.684 171.663 133.684 186.264C133.684 200.865 145.52 212.702 160.121 212.702Z" fill="url(#paint33_linear_185_891)"/>
<path d="M160.123 211.827C174.241 211.827 185.686 200.382 185.686 186.264C185.686 172.146 174.241 160.701 160.123 160.701C146.005 160.701 134.56 172.146 134.56 186.264C134.56 200.382 146.005 211.827 160.123 211.827Z" fill="url(#paint34_linear_185_891)"/>
<path d="M139.047 176.243C138.957 176.243 138.861 176.225 138.777 176.177C138.483 176.027 138.364 175.668 138.513 175.374C142.655 167.169 150.938 162.068 160.126 162.068C161.595 162.068 163.063 162.2 164.49 162.458C164.813 162.518 165.029 162.83 164.969 163.153C164.909 163.477 164.598 163.693 164.274 163.633C162.913 163.387 161.517 163.261 160.126 163.261C151.394 163.261 143.524 168.11 139.586 175.908C139.478 176.123 139.263 176.243 139.047 176.243Z" fill="white"/>
<path opacity="0.78" d="M160.679 208.453C172.626 208.453 182.31 198.769 182.31 186.822C182.31 174.876 172.626 165.191 160.679 165.191C148.733 165.191 139.048 174.876 139.048 186.822C139.048 198.769 148.733 208.453 160.679 208.453Z" fill="white"/>
<path d="M158.558 202.902V200.547C156.107 200.451 153.68 199.87 151.953 199.115C151.336 198.845 151.024 198.156 151.198 197.508L151.798 195.315C152.019 194.511 152.894 194.092 153.662 194.416C155.37 195.135 157.485 195.698 159.757 195.698C162.119 195.698 163.881 194.895 163.881 193.253C163.881 191.772 162.52 190.891 159.236 190.01C154.549 188.728 151.186 186.684 151.186 182.56C151.186 178.832 153.907 175.991 158.636 175.23V172.874C158.636 172.119 159.248 171.502 160.009 171.502H161.393C162.148 171.502 162.766 172.113 162.766 172.874V174.99C165.037 175.08 166.692 175.47 167.998 175.931C168.67 176.165 169.035 176.89 168.849 177.579L168.298 179.605C168.088 180.384 167.249 180.816 166.494 180.528C165.289 180.073 163.581 179.593 161.357 179.593C158.552 179.593 157.755 180.756 157.755 181.799C157.755 183.082 159.439 183.963 163.083 185.083C168.292 186.648 170.456 188.806 170.456 192.695C170.456 196.262 167.812 199.462 162.688 200.265V202.896C162.688 203.652 162.077 204.269 161.315 204.269H159.931C159.176 204.275 158.558 203.658 158.558 202.902Z" fill="url(#paint35_linear_185_891)"/>
<path d="M194.04 169.622C204.739 169.622 213.412 160.949 213.412 150.25C213.412 139.552 204.739 130.879 194.04 130.879C183.342 130.879 174.669 139.552 174.669 150.25C174.669 160.949 183.342 169.622 194.04 169.622Z" fill="url(#paint36_linear_185_891)"/>
<path d="M194.042 168.98C204.386 168.98 212.772 160.594 212.772 150.25C212.772 139.905 204.386 131.52 194.042 131.52C183.697 131.52 175.312 139.905 175.312 150.25C175.312 160.594 183.697 168.98 194.042 168.98Z" fill="url(#paint37_linear_185_891)"/>
<path d="M178.601 143.07C178.511 143.07 178.415 143.052 178.331 143.004C178.038 142.854 177.918 142.494 178.068 142.201C181.13 136.135 187.25 132.365 194.047 132.365C195.131 132.365 196.216 132.461 197.271 132.653C197.595 132.713 197.811 133.025 197.751 133.348C197.691 133.672 197.379 133.888 197.055 133.828C196.066 133.648 195.053 133.558 194.047 133.558C187.711 133.558 181.999 137.076 179.14 142.734C179.033 142.95 178.817 143.07 178.601 143.07Z" fill="white"/>
<path opacity="0.78" d="M194.446 166.511C203.202 166.511 210.299 159.413 210.299 150.658C210.299 141.902 203.202 134.805 194.446 134.805C185.691 134.805 178.593 141.902 178.593 150.658C178.593 159.413 185.691 166.511 194.446 166.511Z" fill="white"/>
<path d="M192.897 162.441V160.715C191.099 160.643 189.319 160.218 188.06 159.666C187.611 159.468 187.377 158.965 187.509 158.485L187.946 156.879C188.108 156.292 188.749 155.986 189.313 156.22C190.566 156.747 192.112 157.161 193.778 157.161C195.51 157.161 196.799 156.574 196.799 155.369C196.799 154.284 195.804 153.637 193.394 152.989C189.96 152.048 187.497 150.556 187.497 147.529C187.497 144.802 189.493 142.716 192.957 142.159V140.433C192.957 139.875 193.406 139.426 193.964 139.426H194.977C195.534 139.426 195.984 139.875 195.984 140.433V141.991C197.65 142.057 198.861 142.345 199.82 142.68C200.311 142.854 200.581 143.382 200.443 143.885L200.041 145.371C199.886 145.947 199.274 146.258 198.717 146.049C197.83 145.713 196.583 145.365 194.953 145.365C192.897 145.365 192.31 146.217 192.31 146.978C192.31 147.919 193.544 148.56 196.212 149.387C200.029 150.532 201.612 152.114 201.612 154.961C201.612 157.574 199.676 159.924 195.918 160.505V162.435C195.918 162.993 195.468 163.442 194.911 163.442H193.898C193.347 163.442 192.897 162.993 192.897 162.441Z" fill="url(#paint38_linear_185_891)"/>
<path d="M431.584 168.296C430.206 167.822 430.403 165.808 431.848 165.616C438.441 164.759 448.103 162.182 451.267 154.444C456.23 142.307 445.951 95.5211 493.187 87.154C536.76 79.4342 561.028 93.2195 560.477 133.485C559.949 172.515 497.226 190.814 431.584 168.296Z" fill="url(#paint39_linear_185_891)"/>
<g opacity="0.6">
<path d="M469.434 124.146H464.993V158.915H469.434V124.146Z" fill="white"/>
<path d="M476.858 136.098H472.417V158.915H476.858V136.098Z" fill="white"/>
<path d="M484.279 106.561H479.838V158.915H484.279V106.561Z" fill="white"/>
<path d="M491.705 146.34H487.264V158.914H491.705V146.34Z" fill="white"/>
<path d="M499.133 113.562H494.692V158.916H499.133V113.562Z" fill="white"/>
<path d="M506.559 121.412H502.118V158.914H506.559V121.412Z" fill="white"/>
<path d="M513.978 129.947H509.537V158.914H513.978V129.947Z" fill="white"/>
<path d="M521.403 95.9766H516.961V158.915H521.403V95.9766Z" fill="white"/>
<path d="M528.83 102.635H524.389V158.915H528.83V102.635Z" fill="white"/>
<path d="M536.249 112.711H531.808V158.916H536.249V112.711Z" fill="white"/>
<path d="M543.676 147.504H539.234V158.916H543.676V147.504Z" fill="white"/>
</g>
<path d="M153.395 397.484C153.395 397.484 152.814 400.601 152.514 403.694C152.395 404.898 153.318 405.959 154.528 406.019C158.646 406.229 167.45 406.649 170.609 406.535C171.083 406.517 171.4 406.037 171.226 405.594C171.083 405.222 170.801 404.922 170.441 404.749L155.955 397.922L153.395 397.484Z" fill="url(#paint40_linear_185_891)"/>
<path d="M152.957 395.645L153.365 399.385C153.365 399.385 155.9 400.596 157.656 399.277L156.643 395.105L152.957 395.645Z" fill="url(#paint41_linear_185_891)"/>
<path d="M153.964 325.411C153.766 326.382 152.472 374.085 157.368 395.518C157.446 395.866 157.267 396.225 156.937 396.357C156.152 396.669 154.611 397.118 152.777 397.16C152.208 397.172 151.698 396.801 151.549 396.249C150.14 391.274 143.391 366.353 142.708 342.6C141.941 316.061 142.714 341.695 142.714 341.695L143.469 325.303L153.964 325.411Z" fill="url(#paint42_linear_185_891)"/>
<path d="M136.642 398.953C136.642 398.953 135.749 400.523 134.856 404.701C134.694 405.456 135.215 406.187 135.982 406.265C137.343 406.409 139.435 406.601 141.107 406.607C141.88 406.607 142.492 405.942 142.402 405.174C142.228 403.646 141.676 401.129 139.908 399.157L136.642 398.953Z" fill="url(#paint43_linear_185_891)"/>
<path d="M135.915 394.141L136.898 399.799C136.898 399.799 137.917 400.572 139.949 400.039L139.511 393.955L135.915 394.141Z" fill="url(#paint44_linear_185_891)"/>
<path d="M133.765 326.682C129.354 351.813 134.077 388.907 135.719 396.172C135.821 396.615 136.175 396.963 136.624 397.041C137.386 397.173 138.644 397.292 139.891 396.939C140.317 396.819 140.622 396.435 140.646 395.992C140.934 390.13 140.862 354.144 144.884 339.958C145.087 339.238 145.531 338.615 146.148 338.189L153.742 332.897L154.401 324.236L133.765 326.682Z" fill="url(#paint45_linear_185_891)"/>
<path d="M160.796 279.242C148.299 278.919 134.472 282.275 134.472 282.275C130.54 303.978 133.375 329.085 133.375 329.085C143.025 331.716 153.981 327.731 153.981 327.731C155.677 318.656 163.427 293.159 163.427 293.159C169.54 292.458 174.587 290.744 178.752 288.454C175.63 284.762 174.179 280.087 173.562 277.324C169.127 278.649 164.649 279.338 160.796 279.242Z" fill="url(#paint46_linear_185_891)"/>
<path d="M197.888 261.184C196.671 259.692 195.113 260.375 195.113 260.375C193.201 268.125 183.497 274.334 173.554 277.319C174.177 280.082 175.622 284.757 178.744 288.449C195.281 279.363 197.888 261.184 197.888 261.184Z" fill="url(#paint47_linear_185_891)"/>
<path d="M197.588 261.556C197.713 261.963 196.221 262.575 195.358 260.896C195.334 260.093 194.878 256.659 195.364 256.012C197.947 252.559 202.928 248.256 202.928 248.256C203.755 249.089 203.06 249.892 203.06 249.892L200.638 252.367C201.13 253.279 201.735 254.046 202.011 255.149C202.221 255.982 202.077 256.869 201.651 257.618C201.226 258.373 200.638 259.35 200.093 260.117C199.05 261.562 197.588 261.556 197.588 261.556Z" fill="url(#paint48_linear_185_891)"/>
<path d="M199.579 253.973L197.379 255.801L196.678 257.635L198.602 259.81C198.602 259.81 199.291 256.16 199.782 255.375C200.28 254.59 200.028 254.206 199.579 253.973Z" fill="url(#paint49_linear_185_891)"/>
<path d="M139.152 294.419L134.471 282.27C134.471 282.27 122.718 290.091 120.704 300.13C122.91 300.316 126.919 300.928 130.827 302.947C131.738 298.207 139.152 294.419 139.152 294.419Z" fill="url(#paint50_linear_185_891)"/>
<path d="M149.246 305.909C149.246 305.909 136.066 313.191 131.703 306.826C130.798 305.501 130.588 304.194 130.828 302.954C126.92 300.934 122.91 300.323 120.704 300.137C120.099 303.163 120.375 306.394 122.125 309.667C129.737 323.913 150.948 309.157 150.948 309.157L149.246 305.909Z" fill="url(#paint51_linear_185_891)"/>
<path d="M148.235 268.969L144.147 280.435C144.081 280.626 144.153 280.836 144.333 280.938C145.412 281.549 149.302 283.317 154.037 280.381C154.528 280.075 154.87 279.571 154.948 278.996L156.332 269.053L148.235 268.969Z" fill="url(#paint52_linear_185_891)"/>
<path d="M156.985 258.404C156.985 258.404 161.276 266.669 160.683 269.984C160.09 273.298 154.683 273.011 149.978 270.266L146.76 261.359L156.985 258.404Z" fill="url(#paint53_linear_185_891)"/>
<path d="M150.229 265.907C150.421 265.823 150.493 265.589 150.379 265.41C150.032 264.87 149.39 263.773 149.187 262.82C149.187 262.82 148.407 262.311 151.194 261.67C153.981 261.028 158.147 260.033 159.04 257.672C159.915 255.37 157.733 249.539 154.125 254.136C153.987 254.309 153.724 254.309 153.586 254.136C153.01 253.368 151.488 251.774 149.342 252.715C147.335 253.59 147.101 255.053 147.119 255.79C147.125 256.006 146.927 256.173 146.717 256.131C145.71 255.928 143.289 255.742 142.132 258.217C141.179 260.255 141.778 261.418 142.324 261.993C142.504 262.179 142.42 262.479 142.174 262.551C141.509 262.748 140.646 263.3 140.718 264.858C140.813 267.01 143.223 266.842 143.906 266.752C144.02 266.74 144.134 266.776 144.206 266.86C144.787 267.513 147.4 270.294 150.259 270.654C150.505 270.684 150.703 270.444 150.625 270.205L149.42 266.596C149.366 266.429 149.444 266.249 149.606 266.177L150.229 265.907Z" fill="url(#paint54_linear_185_891)"/>
<path d="M150.727 266.422C150.727 266.422 147.641 264.258 147.395 266.05C147.149 267.842 150.17 268.681 151.674 268.022L150.727 266.422Z" fill="url(#paint55_linear_185_891)"/>
<path d="M146.554 317.417L153.734 292.345C153.818 292.064 154.058 291.854 154.352 291.818C155.652 291.668 159.422 291.243 163.774 290.871C169.018 290.427 175.101 290.068 178.74 290.373C179.255 290.415 179.567 290.967 179.339 291.428C177.271 295.612 168.76 312.64 164.499 318.214C164.355 318.4 164.139 318.508 163.905 318.502L147.249 318.346C146.764 318.352 146.416 317.884 146.554 317.417Z" fill="url(#paint56_linear_185_891)"/>
<path d="M148.285 311.364C148.285 311.364 147.284 307.252 147.686 305.79C148.087 304.333 148.873 302.457 151.474 302.871C154.081 303.29 157.15 304.387 157.15 304.387C157.15 304.387 156.994 306.287 155.016 305.676L156.245 306.629C156.245 306.629 156.071 308.151 154.399 307.336L155.543 308.595C155.543 308.595 154.824 309.847 153.596 309.044C152.367 308.241 151.774 311.855 148.285 311.364Z" fill="url(#paint57_linear_185_891)"/>
<path d="M154.561 299.753L156.024 294.796C156.203 294.197 156.683 293.742 157.288 293.616C161.867 292.663 174.406 292.459 174.532 292.453L174.52 291.854C174.005 291.86 161.802 292.057 157.162 293.028C156.341 293.196 155.688 293.813 155.448 294.623L153.986 299.579L154.561 299.753Z" fill="white"/>
<path d="M136.04 209.518L134.38 210.166L134.362 210.172C134.08 210.28 133.763 210.142 133.655 209.86C133.547 209.578 133.685 209.261 133.967 209.153L135.663 208.5C135.944 208.392 136.262 208.53 136.37 208.811C136.478 209.093 136.34 209.411 136.058 209.518H136.04Z" fill="white"/>
<path d="M129.553 212.431L127.994 213.294L127.976 213.3C127.707 213.45 127.371 213.354 127.221 213.085C127.071 212.815 127.167 212.479 127.437 212.329L129.025 211.454C129.295 211.304 129.631 211.406 129.78 211.67C129.93 211.94 129.828 212.275 129.565 212.425L129.553 212.431Z" fill="white"/>
<path d="M123.507 216.184L122.069 217.239L122.057 217.251C121.805 217.437 121.452 217.383 121.272 217.131C121.086 216.879 121.14 216.526 121.392 216.346L122.86 215.273C123.112 215.087 123.459 215.147 123.645 215.393C123.825 215.645 123.771 215.992 123.525 216.178L123.507 216.184Z" fill="white"/>
<path d="M117.957 220.649L116.657 221.866L116.645 221.878C116.417 222.094 116.051 222.082 115.841 221.848C115.626 221.62 115.638 221.254 115.871 221.045L117.202 219.81C117.43 219.594 117.789 219.612 118.005 219.84C118.221 220.068 118.203 220.427 117.975 220.643L117.957 220.649Z" fill="white"/>
<path d="M112.952 225.719L111.789 227.067L111.777 227.079C111.567 227.319 111.208 227.349 110.962 227.139C110.716 226.93 110.692 226.564 110.902 226.324L112.089 224.952C112.299 224.712 112.658 224.688 112.898 224.892C113.138 225.102 113.162 225.461 112.958 225.701L112.952 225.719Z" fill="white"/>
<path d="M108.504 231.292L107.485 232.755L107.479 232.767C107.293 233.03 106.927 233.096 106.664 232.911C106.4 232.725 106.334 232.359 106.52 232.095L107.563 230.609C107.748 230.345 108.108 230.279 108.372 230.465C108.636 230.651 108.701 231.011 108.516 231.274L108.504 231.292Z" fill="white"/>
<path d="M104.64 237.287L103.765 238.839L103.759 238.851C103.597 239.133 103.238 239.235 102.956 239.079C102.674 238.917 102.572 238.557 102.728 238.276L103.621 236.699C103.783 236.418 104.143 236.316 104.424 236.477C104.706 236.639 104.808 236.999 104.646 237.281L104.64 237.287Z" fill="white"/>
<path d="M101.362 243.622L100.636 245.253L100.63 245.265C100.498 245.564 100.145 245.702 99.8391 245.564C99.5395 245.432 99.4016 245.079 99.5395 244.773L100.283 243.119C100.415 242.819 100.768 242.681 101.068 242.819C101.368 242.951 101.505 243.305 101.368 243.604L101.362 243.622Z" fill="white"/>
<path d="M98.6749 250.234L98.0995 251.924L98.0935 251.936C97.9856 252.254 97.644 252.421 97.3263 252.314C97.0086 252.206 96.8408 251.864 96.9487 251.546L97.5361 249.832C97.644 249.514 97.9856 249.347 98.3033 249.455C98.6209 249.562 98.7887 249.904 98.6808 250.222L98.6749 250.234Z" fill="white"/>
<path d="M96.6072 257.059L96.1877 258.791L96.1817 258.803C96.1038 259.133 95.7741 259.337 95.4445 259.253C95.1148 259.175 94.9111 258.845 94.995 258.516L95.4205 256.754C95.4984 256.424 95.8281 256.226 96.1577 256.304C96.4874 256.382 96.6852 256.712 96.6072 257.041V257.059Z" fill="white"/>
<path d="M95.1755 264.05L94.9178 265.818V265.83C94.8698 266.165 94.5522 266.405 94.2165 266.351C93.8809 266.303 93.6411 265.986 93.6951 265.65L93.9588 263.858C94.0068 263.522 94.3244 263.288 94.6601 263.336C94.9957 263.384 95.2295 263.702 95.1815 264.038L95.1755 264.05Z" fill="white"/>
<path d="M94.4066 271.139L94.3227 272.919V272.937C94.3048 273.285 94.0111 273.548 93.6694 273.53C93.3218 273.512 93.0581 273.219 93.0761 272.877L93.166 271.067C93.1839 270.725 93.4776 270.456 93.8193 270.474C94.1609 270.491 94.4306 270.785 94.4126 271.127L94.4066 271.139Z" fill="white"/>
<path d="M94.324 278.265L94.4139 280.045V280.057C94.4318 280.404 94.1621 280.704 93.8145 280.722C93.4669 280.74 93.1672 280.47 93.1492 280.123L93.0653 278.312C93.0473 277.965 93.317 277.671 93.6647 277.653C94.0123 277.635 94.306 277.905 94.324 278.253V278.265Z" fill="white"/>
<path d="M94.9179 285.374L95.1696 287.142V287.154C95.2175 287.502 94.9778 287.825 94.6242 287.879C94.2765 287.927 93.9529 287.688 93.8989 287.334L93.6472 285.536C93.5993 285.188 93.839 284.865 94.1926 284.817C94.5403 284.769 94.8639 285.008 94.9119 285.362L94.9179 285.374Z" fill="white"/>
<path d="M96.1587 292.398L96.5663 294.136L96.5723 294.148C96.6562 294.496 96.4404 294.844 96.0928 294.927C95.7452 295.011 95.3975 294.796 95.3136 294.442L94.906 292.674C94.8281 292.326 95.0439 291.979 95.3915 291.901C95.7392 291.823 96.0868 292.039 96.1647 292.386L96.1587 292.398Z" fill="white"/>
<path d="M98.01 299.29L98.5674 300.987L98.5734 300.999C98.6873 301.34 98.5015 301.712 98.1539 301.826C97.8123 301.94 97.4407 301.754 97.3268 301.406L96.7634 299.686C96.6495 299.344 96.8413 298.973 97.1829 298.865C97.5246 298.751 97.8962 298.943 98.0041 299.284L98.01 299.29Z" fill="white"/>
<path d="M100.449 305.992L101.144 307.634L101.15 307.646C101.294 307.982 101.138 308.372 100.802 308.516C100.467 308.659 100.077 308.504 99.9332 308.168L99.226 306.502C99.0821 306.166 99.244 305.776 99.5796 305.639C99.9152 305.495 100.305 305.657 100.443 305.992H100.449Z" fill="white"/>
<path d="M103.438 312.471L104.271 314.048L104.277 314.06C104.451 314.383 104.325 314.791 103.996 314.965C103.672 315.139 103.264 315.013 103.091 314.683L102.251 313.077C102.078 312.753 102.204 312.346 102.533 312.178C102.857 312.004 103.264 312.13 103.432 312.459L103.438 312.471Z" fill="white"/>
<path d="M106.958 318.682L107.917 320.186L107.923 320.198C108.121 320.51 108.031 320.929 107.72 321.133C107.408 321.331 106.988 321.241 106.785 320.929L105.814 319.401C105.616 319.089 105.706 318.67 106.023 318.472C106.335 318.274 106.755 318.364 106.952 318.682H106.958Z" fill="white"/>
<path d="M110.979 324.571L112.058 325.992L112.064 326.004C112.292 326.303 112.232 326.729 111.932 326.963C111.633 327.19 111.207 327.13 110.973 326.831L109.883 325.386C109.655 325.087 109.715 324.661 110.014 324.433C110.314 324.206 110.74 324.265 110.967 324.565L110.979 324.571Z" fill="white"/>
<path d="M115.468 330.115L116.661 331.44L116.673 331.452C116.931 331.733 116.907 332.171 116.619 332.423C116.337 332.674 115.9 332.656 115.648 332.369L114.437 331.02C114.186 330.738 114.21 330.301 114.491 330.049C114.773 329.797 115.21 329.821 115.462 330.103L115.468 330.115Z" fill="white"/>
<path d="M120.409 335.264L121.709 336.481L121.721 336.493C122.003 336.757 122.015 337.194 121.751 337.476C121.488 337.758 121.05 337.77 120.768 337.506L119.45 336.265C119.168 336.002 119.156 335.564 119.42 335.282C119.684 335.001 120.121 334.989 120.403 335.252L120.409 335.264Z" fill="white"/>
<path d="M125.767 339.964L127.169 341.061L127.181 341.073C127.487 341.313 127.541 341.756 127.301 342.062C127.062 342.368 126.618 342.422 126.312 342.182L124.886 341.061C124.58 340.821 124.526 340.378 124.766 340.078C125.006 339.773 125.449 339.719 125.749 339.958L125.767 339.964Z" fill="white"/>
<path d="M131.519 344.166L133.017 345.131L133.029 345.143C133.359 345.353 133.455 345.796 133.239 346.126C133.029 346.455 132.586 346.551 132.256 346.336L130.734 345.347C130.404 345.137 130.314 344.693 130.524 344.364C130.74 344.034 131.177 343.944 131.507 344.154L131.519 344.166Z" fill="white"/>
<path d="M137.641 347.81L139.223 348.631L139.235 348.637C139.589 348.817 139.727 349.254 139.541 349.602C139.361 349.955 138.924 350.093 138.576 349.907L136.964 349.068C136.616 348.889 136.478 348.451 136.658 348.103C136.838 347.756 137.275 347.618 137.623 347.798L137.641 347.81Z" fill="white"/>
<path d="M144.077 350.866L145.725 351.538L145.743 351.544C146.114 351.694 146.294 352.119 146.138 352.485C145.988 352.856 145.563 353.036 145.197 352.88L143.519 352.191C143.147 352.041 142.974 351.616 143.124 351.25C143.273 350.878 143.699 350.705 144.065 350.854L144.077 350.866Z" fill="white"/>
<path d="M150.764 353.329L152.466 353.851L152.484 353.857C152.868 353.977 153.089 354.384 152.97 354.768C152.85 355.151 152.442 355.373 152.059 355.253L150.326 354.72C149.943 354.6 149.727 354.192 149.841 353.809C149.955 353.425 150.368 353.209 150.752 353.323L150.764 353.329Z" fill="white"/>
<path d="M157.642 355.188L159.386 355.559L159.404 355.565C159.805 355.649 160.057 356.045 159.973 356.44C159.889 356.842 159.494 357.094 159.098 357.01L157.324 356.632C156.928 356.548 156.671 356.153 156.761 355.757C156.845 355.362 157.24 355.104 157.636 355.194L157.642 355.188Z" fill="white"/>
<path d="M164.658 356.441L166.427 356.663H166.445C166.852 356.711 167.146 357.088 167.092 357.496C167.044 357.903 166.666 358.197 166.259 358.143L164.461 357.915C164.053 357.861 163.765 357.49 163.813 357.082C163.867 356.675 164.239 356.387 164.646 356.435L164.658 356.441Z" fill="white"/>
<path d="M171.755 357.106L173.535 357.178H173.553C173.967 357.196 174.291 357.544 174.273 357.963C174.255 358.377 173.907 358.701 173.488 358.683L171.677 358.605C171.264 358.587 170.94 358.239 170.958 357.82C170.976 357.406 171.324 357.082 171.743 357.1L171.755 357.106Z" fill="white"/>
<path d="M178.881 357.178L180.661 357.106H180.679C181.099 357.088 181.452 357.418 181.47 357.837C181.488 358.257 181.159 358.611 180.739 358.629L178.929 358.694C178.509 358.712 178.162 358.383 178.144 357.963C178.126 357.544 178.455 357.196 178.875 357.178H178.881Z" fill="white"/>
<path d="M185.995 356.686L187.763 356.476H187.775C188.195 356.428 188.572 356.727 188.62 357.141C188.668 357.561 188.368 357.938 187.955 357.986L186.157 358.196C185.737 358.244 185.36 357.944 185.312 357.531C185.264 357.111 185.563 356.733 185.977 356.686H185.995Z" fill="white"/>
<path d="M193.049 355.642L194.799 355.295H194.811C195.225 355.211 195.626 355.48 195.71 355.894C195.794 356.308 195.524 356.709 195.111 356.793L193.331 357.147C192.917 357.231 192.516 356.961 192.438 356.547C192.354 356.134 192.623 355.732 193.037 355.654L193.049 355.642Z" fill="white"/>
<path d="M200.004 354.061L201.725 353.581L201.737 353.575C202.144 353.461 202.564 353.701 202.678 354.109C202.791 354.516 202.552 354.936 202.144 355.05L200.4 355.535C199.992 355.649 199.573 355.409 199.459 355.002C199.345 354.594 199.585 354.175 199.992 354.061H200.004Z" fill="white"/>
<path d="M206.818 351.95L208.496 351.345L208.508 351.339C208.904 351.195 209.347 351.399 209.491 351.801C209.635 352.196 209.431 352.64 209.03 352.784L207.327 353.401C206.932 353.545 206.488 353.341 206.344 352.939C206.201 352.544 206.404 352.1 206.806 351.956L206.818 351.95Z" fill="white"/>
<path d="M213.451 349.332L215.075 348.601L215.087 348.595C215.477 348.421 215.926 348.595 216.1 348.978C216.274 349.362 216.1 349.818 215.717 349.991L214.062 350.735C213.679 350.908 213.223 350.735 213.049 350.351C212.876 349.967 213.049 349.512 213.433 349.338L213.451 349.332Z" fill="white"/>
<path d="M219.878 346.227L221.448 345.382L221.46 345.376C221.832 345.172 222.299 345.316 222.503 345.688C222.707 346.059 222.563 346.527 222.191 346.731L220.597 347.588C220.225 347.786 219.758 347.648 219.554 347.276C219.356 346.904 219.494 346.437 219.866 346.233L219.878 346.227Z" fill="white"/>
<path d="M226.087 342.697L227.603 341.756L227.615 341.75C227.975 341.528 228.454 341.636 228.676 341.996C228.898 342.355 228.79 342.835 228.43 343.056L226.89 344.009C226.53 344.231 226.051 344.123 225.829 343.764C225.607 343.404 225.715 342.925 226.075 342.703L226.087 342.697Z" fill="white"/>
<path d="M232.074 338.795L233.536 337.764L233.542 337.758C233.89 337.512 234.375 337.596 234.621 337.944C234.867 338.292 234.783 338.777 234.435 339.023L232.955 340.066C232.607 340.311 232.127 340.228 231.882 339.88C231.636 339.532 231.72 339.047 232.068 338.807L232.074 338.795Z" fill="white"/>
<path d="M237.835 334.557L239.243 333.448L239.249 333.442C239.585 333.178 240.07 333.238 240.334 333.574C240.598 333.909 240.538 334.395 240.202 334.659L238.782 335.773C238.446 336.037 237.961 335.977 237.697 335.642C237.433 335.306 237.493 334.82 237.829 334.557H237.835Z" fill="white"/>
<path d="M243.372 330.033L244.727 328.864L244.733 328.858C245.056 328.576 245.548 328.612 245.829 328.936C246.111 329.26 246.075 329.751 245.751 330.033L244.385 331.214C244.061 331.495 243.57 331.459 243.294 331.136C243.012 330.812 243.048 330.32 243.372 330.045V330.033Z" fill="white"/>
<path d="M248.712 325.261L250.018 324.032L250.024 324.026C250.336 323.732 250.828 323.75 251.121 324.062C251.415 324.374 251.397 324.865 251.085 325.159L249.767 326.393C249.455 326.687 248.964 326.669 248.67 326.357C248.382 326.052 248.394 325.56 248.712 325.261Z" fill="white"/>
<path d="M253.868 320.288L255.132 319.017L255.138 319.011C255.444 318.706 255.935 318.706 256.241 319.005C256.547 319.311 256.547 319.802 256.247 320.108L254.976 321.391C254.671 321.696 254.179 321.696 253.874 321.397C253.562 321.091 253.562 320.6 253.868 320.288Z" fill="white"/>
<path d="M258.861 315.144L260.084 313.838L260.09 313.832C260.384 313.514 260.881 313.502 261.193 313.796C261.51 314.089 261.522 314.587 261.229 314.898L259.994 316.217C259.7 316.529 259.209 316.547 258.891 316.253C258.58 315.953 258.568 315.462 258.861 315.144Z" fill="white"/>
<path d="M263.715 309.858L264.908 308.522V308.516C265.195 308.192 265.687 308.162 266.011 308.45C266.334 308.737 266.358 309.229 266.076 309.552L264.878 310.895C264.59 311.219 264.099 311.243 263.775 310.955C263.451 310.679 263.421 310.182 263.715 309.858Z" fill="white"/>
<path d="M268.45 304.464L269.619 303.103C269.901 302.774 270.398 302.738 270.722 303.02C271.052 303.301 271.088 303.799 270.806 304.122L269.631 305.489C269.349 305.819 268.858 305.855 268.528 305.573C268.199 305.291 268.163 304.794 268.45 304.464Z" fill="white"/>
<path d="M273.088 298.985L274.239 297.606C274.515 297.271 275.012 297.223 275.342 297.504C275.677 297.78 275.725 298.277 275.444 298.607L274.293 299.992C274.017 300.327 273.52 300.369 273.19 300.094C272.854 299.818 272.813 299.32 273.088 298.985Z" fill="white"/>
<path d="M277.662 293.447L278.801 292.056C279.077 291.72 279.568 291.667 279.91 291.942C280.246 292.218 280.3 292.709 280.024 293.051L278.885 294.448C278.609 294.783 278.118 294.831 277.776 294.561C277.441 294.28 277.393 293.782 277.662 293.447Z" fill="white"/>
<path d="M282.194 287.868L283.32 286.471C283.596 286.13 284.088 286.082 284.429 286.351C284.771 286.627 284.819 287.119 284.549 287.46L283.416 288.857C283.141 289.192 282.649 289.246 282.307 288.977C281.966 288.707 281.924 288.209 282.194 287.868Z" fill="white"/>
<path d="M286.705 282.269L287.832 280.866C288.108 280.525 288.605 280.471 288.941 280.746C289.283 281.022 289.337 281.52 289.061 281.855L287.934 283.258C287.658 283.599 287.161 283.653 286.825 283.378C286.484 283.108 286.43 282.61 286.705 282.269Z" fill="white"/>
<path d="M291.22 276.67L292.353 275.274C292.629 274.932 293.126 274.884 293.468 275.154C293.809 275.43 293.857 275.927 293.587 276.269L292.455 277.665C292.179 278.007 291.682 278.055 291.34 277.785C290.998 277.51 290.95 277.006 291.22 276.67Z" fill="white"/>
<path d="M295.762 271.084L296.906 269.694C297.182 269.358 297.686 269.304 298.021 269.586C298.357 269.862 298.411 270.365 298.129 270.701L296.99 272.085C296.715 272.427 296.211 272.475 295.875 272.199C295.534 271.923 295.486 271.426 295.762 271.084Z" fill="white"/>
<path d="M300.362 265.542L301.518 264.163C301.8 263.828 302.304 263.786 302.639 264.067C302.975 264.349 303.017 264.852 302.735 265.188L301.578 266.561C301.297 266.896 300.793 266.944 300.458 266.663C300.122 266.381 300.08 265.877 300.362 265.542Z" fill="white"/>
<path d="M305.028 260.057L306.209 258.696C306.496 258.367 307 258.331 307.33 258.618C307.659 258.906 307.695 259.409 307.407 259.739L306.227 261.094C305.939 261.423 305.436 261.459 305.106 261.172C304.776 260.89 304.74 260.386 305.028 260.057Z" fill="white"/>
<path d="M309.802 254.651L311.013 253.315C311.307 252.991 311.816 252.961 312.14 253.261C312.463 253.554 312.493 254.064 312.194 254.387L312.188 254.393L310.983 255.724V255.73C310.689 256.054 310.186 256.084 309.856 255.784C309.532 255.478 309.508 254.975 309.802 254.651Z" fill="white"/>
<path d="M314.69 249.351L315.937 248.045C316.242 247.727 316.746 247.715 317.069 248.021C317.387 248.326 317.399 248.83 317.093 249.154L317.087 249.16L315.853 250.454L315.847 250.46C315.541 250.778 315.038 250.79 314.72 250.484C314.396 250.172 314.384 249.669 314.69 249.351Z" fill="white"/>
<path d="M319.725 244.185L321.007 242.92C321.325 242.609 321.829 242.615 322.14 242.926C322.452 243.244 322.446 243.747 322.134 244.059L322.128 244.065L320.852 245.324L320.846 245.33C320.528 245.641 320.025 245.635 319.713 245.324C319.407 245 319.413 244.491 319.725 244.185Z" fill="white"/>
<path d="M324.934 239.181L326.265 237.959C326.589 237.659 327.098 237.683 327.398 238.007C327.698 238.33 327.674 238.84 327.35 239.139L327.344 239.145L326.025 240.356L326.019 240.362C325.696 240.662 325.186 240.638 324.887 240.314C324.587 239.984 324.605 239.481 324.934 239.181Z" fill="white"/>
<path d="M330.323 234.367L331.701 233.199C332.043 232.911 332.547 232.953 332.834 233.295C333.122 233.636 333.08 234.14 332.738 234.427L332.732 234.433L331.366 235.59L331.36 235.596C331.018 235.884 330.515 235.842 330.227 235.5C329.945 235.165 329.987 234.655 330.323 234.367Z" fill="white"/>
<path d="M335.918 229.794L337.351 228.691C337.704 228.421 338.208 228.487 338.484 228.841C338.753 229.195 338.687 229.698 338.334 229.974L338.328 229.98L336.913 231.071L336.907 231.077C336.554 231.346 336.05 231.28 335.78 230.927C335.499 230.567 335.565 230.064 335.918 229.794Z" fill="white"/>
<path d="M341.74 225.497L343.233 224.472C343.598 224.221 344.102 224.311 344.353 224.682C344.605 225.048 344.515 225.551 344.144 225.803L344.138 225.809L342.663 226.822L342.657 226.828C342.292 227.08 341.788 226.99 341.536 226.618C341.279 226.252 341.375 225.749 341.74 225.497Z" fill="white"/>
<path d="M347.78 221.517L349.326 220.576C349.71 220.343 350.207 220.463 350.441 220.846C350.675 221.23 350.555 221.727 350.171 221.961L350.159 221.967L348.637 222.896L348.625 222.902C348.241 223.136 347.744 223.016 347.516 222.632C347.282 222.249 347.402 221.751 347.78 221.517Z" fill="white"/>
<path d="M354.033 217.868L355.621 217.005C356.016 216.789 356.508 216.939 356.718 217.335C356.933 217.73 356.784 218.222 356.388 218.432L356.376 218.438L354.806 219.289L354.794 219.295C354.398 219.504 353.907 219.361 353.697 218.965C353.487 218.575 353.637 218.084 354.033 217.868Z" fill="white"/>
<path d="M360.458 214.553L362.095 213.779C362.502 213.588 362.982 213.761 363.173 214.163C363.365 214.57 363.191 215.05 362.79 215.242L362.778 215.248L361.166 216.015L361.154 216.021C360.746 216.213 360.267 216.039 360.075 215.637C359.883 215.23 360.057 214.744 360.458 214.553Z" fill="white"/>
<path d="M367.056 211.58L368.728 210.891C369.141 210.717 369.621 210.915 369.789 211.335C369.962 211.748 369.765 212.228 369.345 212.396L369.333 212.402L367.679 213.079L367.667 213.085C367.253 213.259 366.774 213.055 366.606 212.641C366.438 212.228 366.636 211.754 367.056 211.58Z" fill="white"/>
<path d="M373.795 208.955L375.503 208.355C375.928 208.206 376.396 208.427 376.54 208.853C376.69 209.278 376.468 209.746 376.042 209.89L376.03 209.896L374.346 210.489L374.334 210.495C373.909 210.645 373.447 210.423 373.297 209.998C373.153 209.572 373.375 209.105 373.795 208.955Z" fill="white"/>
<path d="M380.664 206.683L382.396 206.168C382.828 206.042 383.283 206.288 383.409 206.719C383.535 207.151 383.289 207.606 382.858 207.732L382.846 207.738L381.131 208.242H381.119C380.688 208.367 380.232 208.122 380.106 207.69C379.987 207.265 380.232 206.809 380.664 206.683Z" fill="white"/>
<path d="M387.64 204.772L389.397 204.346C389.834 204.238 390.278 204.508 390.386 204.951C390.493 205.389 390.224 205.832 389.78 205.94H389.768L388.03 206.36H388.018C387.58 206.468 387.137 206.192 387.029 205.755C386.933 205.317 387.203 204.873 387.64 204.772Z" fill="white"/>
<path d="M394.704 203.213L396.484 202.878C396.928 202.794 397.359 203.087 397.443 203.531C397.527 203.974 397.233 204.406 396.79 204.49H396.778L395.022 204.82H395.01C394.566 204.903 394.135 204.61 394.051 204.166C393.967 203.723 394.254 203.297 394.704 203.213Z" fill="white"/>
<path d="M401.838 202.015L403.63 201.775C404.079 201.715 404.493 202.027 404.553 202.476C404.613 202.926 404.301 203.339 403.851 203.399H403.839L402.065 203.639H402.053C401.604 203.699 401.19 203.387 401.13 202.938C401.07 202.488 401.388 202.075 401.838 202.015Z" fill="white"/>
<path d="M409.025 201.182L410.829 201.032C411.285 200.996 411.68 201.332 411.716 201.781C411.752 202.237 411.417 202.632 410.967 202.668H410.955L409.175 202.818H409.163C408.708 202.854 408.312 202.518 408.276 202.069C408.234 201.619 408.57 201.218 409.025 201.182Z" fill="white"/>
<path d="M416.241 200.715L418.051 200.655C418.507 200.637 418.89 200.997 418.902 201.452C418.92 201.908 418.561 202.291 418.105 202.303H418.093L416.307 202.363H416.295C415.84 202.375 415.462 202.021 415.444 201.566C415.426 201.11 415.786 200.727 416.241 200.715Z" fill="white"/>
<path d="M423.475 200.612L425.285 200.642C425.741 200.648 426.106 201.025 426.094 201.481C426.082 201.936 425.711 202.302 425.255 202.29H425.243L423.457 202.26H423.445C422.99 202.254 422.624 201.876 422.636 201.421C422.642 200.965 423.014 200.6 423.475 200.612Z" fill="white"/>
<path d="M430.697 200.869L432.502 200.989C432.957 201.019 433.305 201.414 433.269 201.87C433.239 202.325 432.843 202.673 432.388 202.637H432.376L430.59 202.517H430.578C430.122 202.487 429.78 202.092 429.81 201.636C429.852 201.181 430.242 200.839 430.697 200.869Z" fill="white"/>
<path d="M437.908 201.5L439.706 201.716C440.162 201.77 440.486 202.183 440.432 202.639C440.378 203.094 439.964 203.418 439.509 203.364H439.497L437.723 203.154H437.711C437.255 203.1 436.931 202.687 436.985 202.231C437.039 201.77 437.453 201.446 437.908 201.5Z" fill="white"/>
<path d="M445.07 202.495L446.85 202.8C447.3 202.878 447.606 203.31 447.528 203.759C447.45 204.209 447.018 204.514 446.569 204.436H446.557L444.795 204.131H444.783C444.333 204.053 444.027 203.621 444.105 203.172C444.189 202.722 444.621 202.417 445.07 202.495Z" fill="white"/>
<path d="M452.177 203.855L453.939 204.25C454.389 204.352 454.67 204.796 454.569 205.245C454.467 205.695 454.023 205.977 453.574 205.875H453.562L451.817 205.479H451.805C451.356 205.377 451.074 204.934 451.176 204.484C451.284 204.035 451.728 203.753 452.177 203.855Z" fill="white"/>
<path d="M459.202 205.581L460.946 206.066C461.39 206.192 461.647 206.654 461.521 207.097C461.396 207.541 460.934 207.798 460.491 207.673H460.479L458.758 207.187H458.746C458.303 207.061 458.045 206.6 458.171 206.156C458.297 205.713 458.758 205.455 459.202 205.581Z" fill="white"/>
<path d="M466.127 207.672L467.841 208.254C468.278 208.404 468.512 208.877 468.368 209.315C468.218 209.752 467.745 209.986 467.307 209.836L467.295 209.83L465.605 209.255L465.593 209.249C465.156 209.099 464.922 208.625 465.072 208.188C465.216 207.756 465.689 207.523 466.127 207.672Z" fill="white"/>
<path d="M472.933 210.124L474.611 210.795C475.043 210.969 475.253 211.454 475.079 211.88C474.905 212.311 474.42 212.521 473.994 212.347L473.982 212.341L472.322 211.682L472.31 211.676C471.878 211.502 471.669 211.017 471.842 210.591C472.016 210.16 472.508 209.95 472.933 210.124Z" fill="white"/>
<path d="M479.605 212.93L481.247 213.685C481.667 213.877 481.853 214.375 481.661 214.8C481.469 215.22 480.972 215.406 480.546 215.214L480.534 215.208L478.91 214.459L478.898 214.453C478.478 214.261 478.293 213.763 478.49 213.338C478.688 212.918 479.186 212.738 479.605 212.93Z" fill="white"/>
<path d="M486.113 216.087L487.714 216.932C488.121 217.148 488.283 217.658 488.067 218.065C487.852 218.473 487.342 218.634 486.935 218.419L486.923 218.413L485.34 217.58L485.328 217.574C484.921 217.358 484.759 216.848 484.981 216.441C485.196 216.027 485.706 215.871 486.113 216.087Z" fill="white"/>
<path d="M492.444 219.595L493.996 220.524C494.398 220.763 494.524 221.279 494.284 221.68C494.044 222.082 493.529 222.208 493.127 221.968L493.115 221.962L491.581 221.045L491.569 221.039C491.167 220.799 491.041 220.284 491.281 219.882C491.527 219.487 492.048 219.355 492.444 219.595Z" fill="white"/>
<path d="M498.575 223.441L500.073 224.454C500.457 224.718 500.559 225.24 500.301 225.623C500.037 226.007 499.516 226.109 499.132 225.851L499.12 225.845L497.64 224.844L497.628 224.838C497.244 224.574 497.142 224.053 497.4 223.669C497.67 223.28 498.191 223.178 498.575 223.441Z" fill="white"/>
<path d="M504.496 227.583L505.953 228.65C506.33 228.925 506.408 229.453 506.132 229.831C505.857 230.208 505.329 230.286 504.952 230.01L504.946 230.004L503.501 228.943L503.495 228.937C503.118 228.662 503.04 228.134 503.315 227.757C503.591 227.385 504.125 227.307 504.496 227.583Z" fill="white"/>
<path d="M510.261 231.916L511.687 233.019C512.059 233.307 512.125 233.834 511.837 234.206C511.55 234.577 511.022 234.643 510.651 234.356L509.23 233.259C508.859 232.971 508.793 232.444 509.08 232.072C509.362 231.701 509.895 231.635 510.261 231.916Z" fill="white"/>
<path d="M515.945 236.346L517.359 237.455C517.725 237.742 517.791 238.276 517.503 238.647C517.215 239.013 516.682 239.079 516.31 238.791L514.896 237.676C514.53 237.389 514.464 236.855 514.752 236.484C515.04 236.118 515.573 236.058 515.945 236.346Z" fill="white"/>
<path d="M521.596 240.782L523.017 241.885C523.388 242.173 523.46 242.706 523.172 243.078C522.885 243.449 522.351 243.521 521.98 243.233L520.559 242.131C520.188 241.843 520.122 241.309 520.409 240.938C520.691 240.56 521.231 240.494 521.596 240.782Z" fill="white"/>
<path d="M527.295 245.144L528.734 246.211L528.74 246.217C529.117 246.499 529.195 247.032 528.914 247.41C528.632 247.787 528.098 247.865 527.721 247.584L526.27 246.505C525.893 246.223 525.815 245.69 526.097 245.312C526.378 244.941 526.912 244.863 527.295 245.144Z" fill="white"/>
<path d="M533.099 249.346L534.573 250.359L534.579 250.365C534.969 250.635 535.065 251.162 534.801 251.552C534.531 251.941 534.004 252.037 533.614 251.773L532.128 250.748C531.738 250.479 531.643 249.951 531.906 249.562C532.176 249.172 532.703 249.076 533.093 249.34L533.099 249.346Z" fill="white"/>
<path d="M539.063 253.284L540.586 254.213L540.598 254.219C540.999 254.465 541.125 254.992 540.879 255.394C540.634 255.795 540.106 255.927 539.705 255.675L538.158 254.729C537.757 254.483 537.631 253.955 537.877 253.554C538.122 253.152 538.65 253.026 539.051 253.272L539.063 253.284Z" fill="white"/>
<path d="M545.248 256.839L546.83 257.648L546.848 257.654C547.268 257.87 547.436 258.385 547.22 258.805C547.004 259.224 546.488 259.392 546.069 259.176L544.451 258.349C544.031 258.133 543.863 257.618 544.079 257.198C544.295 256.779 544.81 256.611 545.23 256.827L545.248 256.839Z" fill="white"/>
<path d="M551.686 259.854L553.334 260.507L553.358 260.513C553.801 260.687 554.017 261.184 553.843 261.628C553.67 262.071 553.172 262.287 552.729 262.113L551.032 261.442C550.595 261.268 550.373 260.771 550.553 260.327C550.727 259.89 551.224 259.668 551.668 259.848L551.686 259.854Z" fill="white"/>
<path d="M558.386 262.171L560.1 262.621L560.124 262.627C560.586 262.747 560.855 263.22 560.736 263.676C560.616 264.137 560.142 264.407 559.687 264.287L557.919 263.82C557.457 263.7 557.187 263.226 557.307 262.771C557.427 262.309 557.901 262.039 558.356 262.159L558.386 262.171Z" fill="white"/>
<path d="M565.303 263.622L567.059 263.832L567.089 263.838C567.563 263.898 567.898 264.324 567.838 264.797C567.778 265.271 567.353 265.606 566.879 265.546L565.063 265.324C564.59 265.265 564.254 264.839 564.314 264.366C564.374 263.892 564.8 263.556 565.273 263.616L565.303 263.622Z" fill="white"/>
<path d="M572.346 264.072L574.108 264.012H574.144C574.617 263.994 575.019 264.366 575.037 264.845C575.055 265.319 574.683 265.721 574.204 265.739L572.37 265.804C571.896 265.822 571.495 265.451 571.477 264.971C571.459 264.498 571.83 264.096 572.31 264.078L572.346 264.072Z" fill="white"/>
<path d="M579.362 263.414L581.094 263.078L581.124 263.072C581.592 262.982 582.047 263.288 582.137 263.756C582.227 264.223 581.922 264.679 581.454 264.769L579.656 265.116C579.189 265.206 578.733 264.9 578.643 264.433C578.553 263.965 578.859 263.51 579.326 263.42L579.362 263.414Z" fill="white"/>
<path d="M586.208 261.694L587.874 261.112L587.904 261.1C588.353 260.944 588.851 261.184 589.007 261.634C589.162 262.083 588.923 262.581 588.473 262.737L586.747 263.336C586.298 263.492 585.8 263.252 585.644 262.802C585.488 262.353 585.728 261.856 586.178 261.7L586.208 261.694Z" fill="white"/>
<path d="M592.759 259.032L594.335 258.235L594.359 258.223C594.785 258.007 595.306 258.175 595.528 258.606C595.744 259.032 595.576 259.553 595.144 259.775L593.514 260.602C593.088 260.818 592.567 260.65 592.351 260.219C592.135 259.793 592.303 259.272 592.735 259.056L592.759 259.032Z" fill="white"/>
<path d="M598.921 255.538L600.395 254.549L600.419 254.537C600.815 254.268 601.36 254.375 601.624 254.777C601.894 255.173 601.786 255.718 601.384 255.982L599.868 256.995C599.472 257.264 598.927 257.156 598.663 256.755C598.393 256.359 598.501 255.82 598.903 255.55L598.921 255.538Z" fill="white"/>
<path d="M604.632 251.342L605.986 250.191L606.004 250.173C606.37 249.861 606.921 249.909 607.233 250.275C607.545 250.64 607.497 251.192 607.131 251.504L605.74 252.684C605.375 252.996 604.823 252.948 604.512 252.582C604.2 252.217 604.248 251.665 604.614 251.354L604.632 251.342Z" fill="white"/>
<path d="M609.847 246.529L611.07 245.241L611.088 245.223C611.417 244.875 611.969 244.857 612.322 245.193C612.67 245.522 612.688 246.08 612.352 246.427L611.1 247.746C610.77 248.094 610.219 248.106 609.865 247.776C609.517 247.446 609.505 246.895 609.835 246.541L609.847 246.529Z" fill="white"/>
<path d="M614.54 241.201L615.624 239.798L615.636 239.78C615.93 239.396 616.481 239.331 616.865 239.624C617.249 239.918 617.315 240.469 617.021 240.853L615.906 242.291C615.612 242.675 615.061 242.741 614.683 242.447C614.3 242.154 614.234 241.602 614.528 241.225L614.54 241.201Z" fill="white"/>
<path d="M618.679 235.428L619.62 233.924L619.632 233.906C619.89 233.498 620.429 233.372 620.837 233.63C621.244 233.888 621.37 234.427 621.113 234.835L620.148 236.375C619.89 236.783 619.351 236.909 618.943 236.651C618.535 236.393 618.409 235.854 618.667 235.446L618.679 235.428Z" fill="white"/>
<path d="M622.229 229.279L623.02 227.691L623.032 227.673C623.248 227.241 623.775 227.061 624.207 227.277C624.638 227.493 624.818 228.02 624.602 228.452L623.793 230.082C623.577 230.514 623.05 230.693 622.618 230.478C622.187 230.262 622.007 229.734 622.223 229.303L622.229 229.279Z" fill="white"/>
<path d="M625.146 222.807L625.776 221.146L625.782 221.128C625.956 220.673 626.459 220.445 626.915 220.619C627.37 220.793 627.598 221.296 627.424 221.752L626.777 223.454C626.603 223.909 626.099 224.137 625.644 223.963C625.188 223.789 624.961 223.286 625.134 222.831L625.146 222.807Z" fill="white"/>
<path d="M627.409 216.069L627.865 214.349L627.871 214.331C627.996 213.864 628.476 213.582 628.949 213.708C629.417 213.834 629.699 214.313 629.573 214.787L629.105 216.543C628.979 217.01 628.5 217.292 628.026 217.166C627.559 217.04 627.277 216.561 627.403 216.087L627.409 216.069Z" fill="white"/>
<path d="M629.009 209.141L629.314 207.391L629.32 207.373C629.404 206.894 629.86 206.57 630.339 206.654C630.819 206.738 631.142 207.193 631.059 207.673L630.747 209.465C630.663 209.944 630.208 210.268 629.728 210.184C629.249 210.1 628.931 209.645 629.009 209.165V209.141Z" fill="white"/>
<path d="M630.009 202.099L630.165 200.324V200.306C630.207 199.821 630.639 199.461 631.124 199.503C631.61 199.545 631.969 199.977 631.927 200.462L631.765 202.272C631.724 202.758 631.292 203.117 630.807 203.076C630.321 203.034 629.961 202.602 630.003 202.117L630.009 202.099Z" fill="white"/>
<path d="M630.423 194.99L630.441 193.21V193.192C630.447 192.7 630.843 192.31 631.334 192.316C631.826 192.322 632.215 192.718 632.209 193.21L632.191 195.026C632.185 195.511 631.79 195.907 631.298 195.901C630.813 195.895 630.417 195.499 630.423 195.008V194.99Z" fill="white"/>
<path d="M630.277 187.87L630.157 186.09V186.072C630.127 185.58 630.493 185.161 630.984 185.125C631.47 185.095 631.895 185.46 631.931 185.952L632.051 187.762C632.081 188.247 631.715 188.673 631.224 188.703C630.738 188.733 630.313 188.367 630.283 187.876L630.277 187.87Z" fill="white"/>
<path d="M629.608 180.774L629.362 179.012V178.994C629.296 178.508 629.632 178.059 630.117 177.993C630.603 177.927 631.052 178.262 631.118 178.748L631.37 180.546C631.436 181.031 631.1 181.481 630.615 181.547C630.129 181.613 629.68 181.277 629.614 180.792L629.608 180.774Z" fill="white"/>
<path d="M628.427 173.743L628.055 171.999L628.049 171.987C627.947 171.507 628.253 171.034 628.733 170.932C629.212 170.83 629.686 171.135 629.788 171.615L630.165 173.389C630.267 173.869 629.961 174.342 629.482 174.444C629.002 174.546 628.529 174.24 628.427 173.761V173.743Z" fill="white"/>
<path d="M626.771 166.807L626.286 165.093L626.28 165.081C626.148 164.608 626.424 164.116 626.897 163.978C627.371 163.846 627.862 164.122 628 164.596L628.492 166.34C628.623 166.813 628.348 167.305 627.874 167.437C627.401 167.568 626.909 167.293 626.777 166.819L626.771 166.807Z" fill="white"/>
<path d="M624.662 159.995L624.069 158.316L624.063 158.304C623.901 157.837 624.141 157.327 624.609 157.166C625.076 157.004 625.586 157.244 625.747 157.711L626.353 159.419C626.515 159.887 626.275 160.396 625.807 160.558C625.34 160.72 624.83 160.48 624.668 160.013L624.662 159.995Z" fill="white"/>
<path d="M622.121 153.328L621.42 151.686L621.414 151.674C621.222 151.218 621.432 150.697 621.881 150.499C622.337 150.307 622.858 150.517 623.056 150.966L623.769 152.633C623.961 153.088 623.751 153.609 623.296 153.807C622.84 153.999 622.319 153.789 622.121 153.334V153.328Z" fill="white"/>
<path d="M619.16 146.837L618.357 145.243L618.351 145.231C618.129 144.787 618.303 144.248 618.747 144.026C619.19 143.804 619.73 143.978 619.951 144.421L620.767 146.04C620.988 146.483 620.814 147.023 620.371 147.244C619.927 147.466 619.388 147.292 619.166 146.849L619.16 146.837Z" fill="white"/>
<path d="M615.792 140.544L614.887 139.003L614.881 138.991C614.629 138.566 614.773 138.014 615.199 137.763C615.624 137.511 616.176 137.655 616.427 138.08L617.344 139.645C617.596 140.07 617.452 140.622 617.027 140.873C616.601 141.125 616.05 140.981 615.798 140.556L615.792 140.544Z" fill="white"/>
<path d="M612.028 134.485L611.027 133.011L611.015 132.993C610.739 132.585 610.841 132.022 611.255 131.746C611.668 131.47 612.226 131.572 612.502 131.986L613.521 133.484C613.802 133.892 613.694 134.455 613.281 134.731C612.873 135.013 612.31 134.905 612.034 134.491L612.028 134.485Z" fill="white"/>
<path d="M607.855 128.713L606.746 127.317L606.74 127.305C606.435 126.921 606.501 126.364 606.878 126.064C607.262 125.758 607.813 125.818 608.119 126.202L609.252 127.616C609.557 128 609.497 128.557 609.114 128.863C608.73 129.169 608.173 129.109 607.867 128.725L607.855 128.713Z" fill="white"/>
<path d="M603.291 123.229L602.104 121.892L602.098 121.886C601.781 121.527 601.811 120.975 602.17 120.658C602.53 120.34 603.081 120.364 603.399 120.724L604.604 122.066C604.927 122.426 604.897 122.977 604.538 123.301C604.178 123.625 603.627 123.595 603.303 123.235L603.291 123.229Z" fill="white"/>
<path d="M598.439 117.967L597.192 116.678L597.186 116.672C596.857 116.331 596.869 115.785 597.204 115.456C597.546 115.126 598.085 115.132 598.415 115.474L599.674 116.768C600.003 117.11 599.997 117.655 599.656 117.985C599.314 118.315 598.769 118.309 598.439 117.967Z" fill="white"/>
<path d="M593.4 112.885L592.111 111.638L592.105 111.632C591.769 111.308 591.763 110.769 592.087 110.433C592.411 110.098 592.944 110.086 593.28 110.409L594.58 111.662C594.916 111.986 594.928 112.525 594.604 112.861C594.281 113.196 593.741 113.208 593.406 112.885H593.4Z" fill="white"/>
<path d="M588.196 107.951L586.871 106.741L586.865 106.735C586.524 106.423 586.506 105.896 586.811 105.56C587.123 105.218 587.644 105.194 587.986 105.506L589.323 106.717C589.664 107.028 589.688 107.556 589.377 107.897C589.065 108.239 588.537 108.263 588.196 107.951Z" fill="white"/>
<path d="M582.864 103.156L581.515 101.975L581.509 101.969C581.168 101.67 581.132 101.154 581.431 100.813C581.731 100.471 582.247 100.435 582.588 100.735L583.949 101.915C584.29 102.215 584.332 102.731 584.033 103.078C583.733 103.42 583.212 103.456 582.864 103.156Z" fill="white"/>
<path d="M577.421 98.4807L576.048 97.33H576.042C575.706 97.0483 575.665 96.5448 575.946 96.2092C576.228 95.8735 576.725 95.8316 577.055 96.1073L578.446 97.252C578.787 97.5337 578.835 98.0372 578.553 98.3848C578.272 98.7265 577.768 98.7744 577.421 98.4927V98.4807Z" fill="white"/>
<path d="M571.89 93.908L570.493 92.7812H570.487C570.164 92.5175 570.11 92.044 570.373 91.7203C570.631 91.3967 571.105 91.3427 571.428 91.6004L572.843 92.7152C573.172 92.979 573.232 93.4585 572.969 93.7881C572.705 94.1178 572.225 94.1777 571.896 93.914L571.89 93.908Z" fill="white"/>
<path d="M566.267 89.4491L564.847 88.3523C564.535 88.1125 564.475 87.657 564.715 87.3453C564.955 87.0337 565.404 86.9737 565.716 87.2135L567.154 88.2983C567.478 88.5381 567.538 88.9996 567.298 89.3172C567.058 89.6409 566.597 89.7008 566.279 89.4611L566.267 89.4491Z" fill="white"/>
<path d="M560.548 85.109L559.103 84.0421C558.804 83.8204 558.738 83.3888 558.96 83.0891C559.181 82.7894 559.607 82.7235 559.907 82.9393L561.369 83.9942C561.681 84.2159 561.747 84.6475 561.525 84.9591C561.303 85.2708 560.872 85.3367 560.56 85.115L560.548 85.109Z" fill="white"/>
<path d="M554.741 80.8896L553.272 79.8527H553.266C552.978 79.6489 552.907 79.2473 553.11 78.9537C553.314 78.666 553.71 78.594 554.003 78.7978L555.484 79.8227C555.783 80.0265 555.855 80.4341 555.652 80.7338C555.448 81.0334 555.04 81.1054 554.741 80.9016V80.8896Z" fill="white"/>
<path d="M548.851 76.7894L547.364 75.7885H547.358C547.089 75.6087 547.017 75.2431 547.203 74.9734C547.382 74.7097 547.742 74.6377 548.012 74.8115L549.522 75.7945C549.804 75.9743 549.882 76.3519 549.702 76.6276C549.522 76.9093 549.145 76.9872 548.869 76.8074C548.863 76.7954 548.857 76.7954 548.851 76.7894Z" fill="white"/>
<path d="M542.86 72.8343L541.344 71.8754H541.338C541.092 71.7195 541.02 71.3959 541.176 71.1441C541.332 70.8984 541.65 70.8265 541.895 70.9763L543.436 71.9173C543.693 72.0732 543.771 72.4088 543.615 72.6665C543.46 72.9242 543.124 73.0022 542.866 72.8463C542.866 72.8463 542.86 72.8463 542.86 72.8403V72.8343Z" fill="white"/>
<path d="M536.753 69.0707L535.207 68.1656H535.201C534.979 68.0338 534.901 67.7461 535.033 67.5243C535.165 67.3026 535.447 67.2306 535.668 67.3505L537.239 68.2316C537.473 68.3634 537.556 68.6571 537.425 68.8909C537.293 69.1246 536.999 69.2085 536.765 69.0767H536.759L536.753 69.0707Z" fill="white"/>
<path d="M530.503 65.546L528.915 64.7189H528.909C528.717 64.617 528.645 64.3832 528.747 64.1914C528.843 64.0056 529.077 63.9277 529.262 64.0236L530.881 64.8208C531.084 64.9227 531.168 65.1684 531.066 65.3662C530.965 65.57 530.719 65.6539 530.521 65.552C530.521 65.552 530.515 65.552 530.515 65.546H530.503Z" fill="white"/>
<path d="M524.249 49.082L521.696 59.6608L515.63 53.3795L524.249 49.082Z" fill="url(#paint58_linear_185_891)"/>
<path d="M478.146 31.5273L500.664 63.4793C501.096 64.0906 501.755 64.4982 502.498 64.6121C503.236 64.726 503.991 64.5342 504.59 64.0786L535.823 40.26C536.183 39.9843 536.338 39.5228 536.219 39.0913C536.099 38.6597 535.733 38.3361 535.284 38.2881L478.146 31.5273Z" fill="url(#paint59_linear_185_891)"/>
<path d="M524.249 49.0826L478.146 31.5273L519.221 52.9425L518.633 55.9034L524.249 49.0826Z" fill="url(#paint60_linear_185_891)"/>
<path d="M516.216 55.2089L521.694 59.6622L519.219 52.9434L516.216 55.2089Z" fill="url(#paint61_linear_185_891)"/>
<path d="M489.507 286.742C489.549 286.724 512.001 247.406 515.034 243.702C515.544 243.078 516.335 242.761 517.132 242.857L523.401 243.606L530.761 259.537L518.499 252.393C519.709 260.79 503.952 273.262 498.552 277.811C498 278.273 497.958 279.1 498.456 279.622L500.614 281.881C497.071 285.471 492.984 287.779 488.369 288.846L489.507 286.742Z" fill="url(#paint62_linear_185_891)"/>
<path d="M499.368 280.658C499.368 280.658 500.746 281.102 501.214 282.33C501.435 282.918 501.196 283.583 500.686 283.949C498.421 285.573 490.941 290.817 487.488 291.842C487.207 291.926 486.937 291.668 487.003 291.381C487.183 290.578 487.752 288.977 489.598 286.634L489.43 286.969C489.22 287.395 489.682 287.833 490.095 287.605C492.397 286.304 497.102 283.451 499.368 280.658Z" fill="url(#paint63_linear_185_891)"/>
<path d="M498.257 296.391C498.293 296.367 501.662 288.251 501.704 288.228C504.791 269.42 512.33 253.315 514.548 249.077C514.92 248.364 515.633 247.897 516.436 247.825L522.723 247.285L533.158 261.394L519.703 256.881C522.592 264.858 509.681 280.262 505.312 285.812C504.868 286.376 504.994 287.197 505.582 287.604L508.153 289.378C505.408 293.61 501.878 296.696 497.574 298.674L498.257 296.391Z" fill="url(#paint64_linear_185_891)"/>
<path d="M506.681 288.443C506.681 288.443 508.119 288.599 508.827 289.708C509.162 290.235 509.06 290.937 508.635 291.398C506.741 293.448 500.477 300.095 497.307 301.803C497.049 301.941 496.731 301.749 496.737 301.45C496.749 300.628 496.983 298.944 498.32 296.277L498.224 296.637C498.104 297.092 498.643 297.434 499.003 297.122C500.999 295.378 505.027 291.632 506.681 288.443Z" fill="url(#paint65_linear_185_891)"/>
<path d="M552.161 244.318C552.161 244.318 557.849 252.781 558.316 256.641C558.784 260.501 556.746 261.838 550.788 262.329C533.071 263.792 524.332 258.481 524.332 258.481C523.122 250.756 522.258 248.79 512.135 244.582C512.135 244.582 524.938 245.601 527.515 244.6C530.092 243.599 552.161 244.318 552.161 244.318Z" fill="url(#paint66_linear_185_891)"/>
<path d="M529.475 196.909C529.475 196.909 533.436 192.222 537.65 197.969C538.411 199.012 541.342 198.149 542.415 200.331C542.972 201.458 544.165 202.099 545.4 201.871C548.474 201.302 553.497 201.254 555.978 206.073C557.872 209.747 556.41 211.899 554.516 213.127C553.125 214.026 552.628 215.86 553.473 217.287C554.282 218.653 554.432 220.511 552.346 222.741C547.683 227.74 538.447 219.57 538.447 219.57L531.117 202.243L529.475 196.909Z" fill="url(#paint67_linear_185_891)"/>
<path d="M536.775 243.197C536.775 243.197 530.152 236.892 526.891 232.708C525.129 230.449 524.578 227.476 525.393 224.731C526.879 219.714 529.528 214.518 529.768 213.709C530.14 212.468 537.566 212.522 537.566 212.522C537.566 212.522 552.184 222.01 557.926 238.079L551.477 240.086C551.477 240.086 547.659 233.685 543.889 229.61C543.889 229.61 550.416 238.228 550.644 241.759L536.775 243.197Z" fill="url(#paint68_linear_185_891)"/>
<path d="M524.151 245.684L529.132 240.266L534.879 241.812C534.879 241.812 541.58 242.849 545.416 241.812C549.252 240.775 549.252 240.775 549.252 240.775L557.919 238.078L559.279 241.926C559.627 242.903 559.279 243.988 558.434 244.587C557.685 245.121 556.804 245.708 556.247 245.954C555.108 246.451 529.947 246.11 529.947 246.11L524.151 245.684Z" fill="url(#paint69_linear_185_891)"/>
<path d="M532.459 203.597L537.452 212.881C537.122 214.907 532.016 214.967 531.23 213.756C531.153 213.631 531.105 213.493 531.075 213.349L528.09 207.146C527.964 206.54 529.618 204.502 530.164 204.215L532.148 203.16C532.909 202.746 529.72 202.71 532.459 203.597Z" fill="url(#paint70_linear_185_891)"/>
<path d="M522.357 201.416C522.357 201.416 521.793 204.55 524.257 208.542C526.72 212.528 529.178 212.348 530.424 210.928C531.671 209.507 533.163 207.14 532.486 203.16C531.809 199.18 523.208 197.418 522.357 201.416Z" fill="url(#paint71_linear_185_891)"/>
<path d="M529.5 203.591C529.5 203.591 525.508 198.347 522.445 202.92L522.499 204.496C522.499 204.496 518.513 204.31 518.945 200.636C519.376 196.962 522.631 194.451 527.144 195.709C531.657 196.962 534.288 198.394 534.798 201.523C535.307 204.658 532.748 204.142 532.748 204.142C532.748 204.142 531.771 201.979 530.59 201.835C529.41 201.685 529.835 203.399 529.835 203.399L529.5 203.591Z" fill="url(#paint72_linear_185_891)"/>
<path d="M530.417 203.448C530.417 203.448 528.349 200.763 530.231 200.205C532.113 199.648 532.041 202.837 531.921 204.017L530.417 203.448Z" fill="url(#paint73_linear_185_891)"/>
<path d="M540.627 247.83C540.609 247.83 540.591 247.83 540.573 247.83L517.678 247.806C517.114 247.806 516.653 247.344 516.653 246.781C516.653 246.218 517.114 245.744 517.678 245.756L540.573 245.78C541.137 245.78 541.598 246.242 541.598 246.805C541.598 247.356 541.173 247.806 540.627 247.83Z" fill="url(#paint74_linear_185_891)"/>
<path d="M497.096 227.045H516.162C517.571 227.045 518.847 227.854 519.446 229.131L528.263 247.825H504.564C503.659 247.825 502.844 247.273 502.509 246.428L495.676 229.131C495.286 228.124 496.023 227.045 497.096 227.045Z" fill="url(#paint75_linear_185_891)"/>
<defs>
<linearGradient id="paint0_linear_185_891" x1="660.05" y1="117.241" x2="338.14" y2="549.186" gradientUnits="userSpaceOnUse">
<stop stop-color="#FDF53F"/>
<stop offset="1" stop-color="#D93C65"/>
</linearGradient>
<linearGradient id="paint1_linear_185_891" x1="632.578" y1="253.434" x2="375.547" y2="275.107" gradientUnits="userSpaceOnUse">
<stop stop-color="#53D8FF"/>
<stop offset="1" stop-color="#3840F7"/>
</linearGradient>
<linearGradient id="paint2_linear_185_891" x1="566.168" y1="257.647" x2="351.455" y2="270.504" gradientUnits="userSpaceOnUse">
<stop stop-color="#53D8FF"/>
<stop offset="1" stop-color="#3840F7"/>
</linearGradient>
<linearGradient id="paint3_linear_185_891" x1="552.72" y1="238.398" x2="282.326" y2="315.735" gradientUnits="userSpaceOnUse">
<stop stop-color="#FDF53F"/>
<stop offset="1" stop-color="#D93C65"/>
</linearGradient>
<linearGradient id="paint4_linear_185_891" x1="536.363" y1="181.33" x2="267.751" y2="258.158" gradientUnits="userSpaceOnUse">
<stop stop-color="#FDF53F"/>
<stop offset="1" stop-color="#D93C65"/>
</linearGradient>
<linearGradient id="paint5_linear_185_891" x1="547.122" y1="237.496" x2="543.725" y2="551.69" gradientUnits="userSpaceOnUse">
<stop stop-color="#53D8FF"/>
<stop offset="1" stop-color="#3840F7"/>
</linearGradient>
<linearGradient id="paint6_linear_185_891" x1="536.811" y1="324.582" x2="548.859" y2="274.64" gradientUnits="userSpaceOnUse">
<stop stop-color="#2B3582"/>
<stop offset="1" stop-color="#150E42"/>
</linearGradient>
<linearGradient id="paint7_linear_185_891" x1="492.625" y1="326.593" x2="513.602" y2="326.593" gradientUnits="userSpaceOnUse">
<stop stop-color="#2B3582"/>
<stop offset="1" stop-color="#150E42"/>
</linearGradient>
<linearGradient id="paint8_linear_185_891" x1="521.994" y1="326.593" x2="542.971" y2="326.593" gradientUnits="userSpaceOnUse">
<stop stop-color="#2B3582"/>
<stop offset="1" stop-color="#150E42"/>
</linearGradient>
<linearGradient id="paint9_linear_185_891" x1="550.165" y1="326.593" x2="571.143" y2="326.593" gradientUnits="userSpaceOnUse">
<stop stop-color="#2B3582"/>
<stop offset="1" stop-color="#150E42"/>
</linearGradient>
<linearGradient id="paint10_linear_185_891" x1="595.897" y1="319.554" x2="549.138" y2="374.689" gradientUnits="userSpaceOnUse">
<stop stop-color="#E40045"/>
<stop offset="1" stop-color="#5C0E16"/>
</linearGradient>
<linearGradient id="paint11_linear_185_891" x1="492.625" y1="346.97" x2="513.602" y2="346.97" gradientUnits="userSpaceOnUse">
<stop stop-color="#2B3582"/>
<stop offset="1" stop-color="#150E42"/>
</linearGradient>
<linearGradient id="paint12_linear_185_891" x1="521.994" y1="346.97" x2="542.971" y2="346.97" gradientUnits="userSpaceOnUse">
<stop stop-color="#2B3582"/>
<stop offset="1" stop-color="#150E42"/>
</linearGradient>
<linearGradient id="paint13_linear_185_891" x1="550.165" y1="346.97" x2="571.143" y2="346.97" gradientUnits="userSpaceOnUse">
<stop stop-color="#2B3582"/>
<stop offset="1" stop-color="#150E42"/>
</linearGradient>
<linearGradient id="paint14_linear_185_891" x1="579.53" y1="346.97" x2="600.508" y2="346.97" gradientUnits="userSpaceOnUse">
<stop stop-color="#2B3582"/>
<stop offset="1" stop-color="#150E42"/>
</linearGradient>
<linearGradient id="paint15_linear_185_891" x1="492.625" y1="366.152" x2="513.602" y2="366.152" gradientUnits="userSpaceOnUse">
<stop stop-color="#2B3582"/>
<stop offset="1" stop-color="#150E42"/>
</linearGradient>
<linearGradient id="paint16_linear_185_891" x1="521.994" y1="366.152" x2="542.971" y2="366.152" gradientUnits="userSpaceOnUse">
<stop stop-color="#2B3582"/>
<stop offset="1" stop-color="#150E42"/>
</linearGradient>
<linearGradient id="paint17_linear_185_891" x1="550.165" y1="366.152" x2="571.143" y2="366.152" gradientUnits="userSpaceOnUse">
<stop stop-color="#2B3582"/>
<stop offset="1" stop-color="#150E42"/>
</linearGradient>
<linearGradient id="paint18_linear_185_891" x1="492.625" y1="385.931" x2="513.602" y2="385.931" gradientUnits="userSpaceOnUse">
<stop stop-color="#2B3582"/>
<stop offset="1" stop-color="#150E42"/>
</linearGradient>
<linearGradient id="paint19_linear_185_891" x1="521.994" y1="385.931" x2="542.971" y2="385.931" gradientUnits="userSpaceOnUse">
<stop stop-color="#2B3582"/>
<stop offset="1" stop-color="#150E42"/>
</linearGradient>
<linearGradient id="paint20_linear_185_891" x1="550.165" y1="385.931" x2="571.143" y2="385.931" gradientUnits="userSpaceOnUse">
<stop stop-color="#2B3582"/>
<stop offset="1" stop-color="#150E42"/>
</linearGradient>
<linearGradient id="paint21_linear_185_891" x1="580.73" y1="376.339" x2="597.513" y2="376.339" gradientUnits="userSpaceOnUse">
<stop stop-color="#2B3582"/>
<stop offset="1" stop-color="#150E42"/>
</linearGradient>
<linearGradient id="paint22_linear_185_891" x1="423.262" y1="113.717" x2="142.615" y2="534.498" gradientUnits="userSpaceOnUse">
<stop stop-color="#2B3582"/>
<stop offset="1" stop-color="#150E42"/>
</linearGradient>
<linearGradient id="paint23_linear_185_891" x1="175.096" y1="463.346" x2="413.462" y2="126.171" gradientUnits="userSpaceOnUse">
<stop stop-color="#A737D5"/>
<stop offset="1" stop-color="#EF497A"/>
</linearGradient>
<linearGradient id="paint24_linear_185_891" x1="367.906" y1="14.3438" x2="273.063" y2="131.942" gradientUnits="userSpaceOnUse">
<stop stop-color="#2B3582"/>
<stop offset="1" stop-color="#150E42"/>
</linearGradient>
<linearGradient id="paint25_linear_185_891" x1="377.372" y1="21.8785" x2="283.652" y2="140.25" gradientUnits="userSpaceOnUse">
<stop stop-color="#2B3582"/>
<stop offset="1" stop-color="#150E42"/>
</linearGradient>
<linearGradient id="paint26_linear_185_891" x1="365.716" y1="29.0013" x2="300.358" y2="143.579" gradientUnits="userSpaceOnUse">
<stop stop-color="#2B3582"/>
<stop offset="1" stop-color="#150E42"/>
</linearGradient>
<linearGradient id="paint27_linear_185_891" x1="80.1943" y1="169.82" x2="99.9918" y2="146.841" gradientUnits="userSpaceOnUse">
<stop stop-color="#FDF53F"/>
<stop offset="1" stop-color="#D93C65"/>
</linearGradient>
<linearGradient id="paint28_linear_185_891" x1="111.178" y1="130.08" x2="52.6362" y2="218.519" gradientUnits="userSpaceOnUse">
<stop stop-color="#FDF53F"/>
<stop offset="1" stop-color="#D93C65"/>
</linearGradient>
<linearGradient id="paint29_linear_185_891" x1="109.434" y1="132.615" x2="78.2613" y2="184.948" gradientUnits="userSpaceOnUse">
<stop stop-color="#FDF53F"/>
<stop offset="1" stop-color="#D93C65"/>
</linearGradient>
<linearGradient id="paint30_linear_185_891" x1="107.245" y1="169.684" x2="141.709" y2="129.682" gradientUnits="userSpaceOnUse">
<stop stop-color="#FDF53F"/>
<stop offset="1" stop-color="#D93C65"/>
</linearGradient>
<linearGradient id="paint31_linear_185_891" x1="161.183" y1="100.505" x2="59.2719" y2="254.464" gradientUnits="userSpaceOnUse">
<stop stop-color="#FDF53F"/>
<stop offset="1" stop-color="#D93C65"/>
</linearGradient>
<linearGradient id="paint32_linear_185_891" x1="158.141" y1="104.916" x2="103.876" y2="196.019" gradientUnits="userSpaceOnUse">
<stop stop-color="#FDF53F"/>
<stop offset="1" stop-color="#D93C65"/>
</linearGradient>
<linearGradient id="paint33_linear_185_891" x1="123.945" y1="228.256" x2="159.408" y2="187.093" gradientUnits="userSpaceOnUse">
<stop stop-color="#FDF53F"/>
<stop offset="1" stop-color="#D93C65"/>
</linearGradient>
<linearGradient id="paint34_linear_185_891" x1="179.448" y1="157.071" x2="74.5828" y2="315.492" gradientUnits="userSpaceOnUse">
<stop stop-color="#FDF53F"/>
<stop offset="1" stop-color="#D93C65"/>
</linearGradient>
<linearGradient id="paint35_linear_185_891" x1="176.32" y1="161.61" x2="120.481" y2="255.354" gradientUnits="userSpaceOnUse">
<stop stop-color="#FDF53F"/>
<stop offset="1" stop-color="#D93C65"/>
</linearGradient>
<linearGradient id="paint36_linear_185_891" x1="167.534" y1="181.017" x2="193.518" y2="150.858" gradientUnits="userSpaceOnUse">
<stop stop-color="#FDF53F"/>
<stop offset="1" stop-color="#D93C65"/>
</linearGradient>
<linearGradient id="paint37_linear_185_891" x1="208.201" y1="128.86" x2="131.368" y2="244.934" gradientUnits="userSpaceOnUse">
<stop stop-color="#FDF53F"/>
<stop offset="1" stop-color="#D93C65"/>
</linearGradient>
<linearGradient id="paint38_linear_185_891" x1="205.91" y1="132.187" x2="164.997" y2="200.872" gradientUnits="userSpaceOnUse">
<stop stop-color="#FDF53F"/>
<stop offset="1" stop-color="#D93C65"/>
</linearGradient>
<linearGradient id="paint39_linear_185_891" x1="508.606" y1="90.1784" x2="486.163" y2="196.205" gradientUnits="userSpaceOnUse">
<stop stop-color="#53D8FF"/>
<stop offset="1" stop-color="#3840F7"/>
</linearGradient>
<linearGradient id="paint40_linear_185_891" x1="170.275" y1="393.328" x2="116.454" y2="450.766" gradientUnits="userSpaceOnUse">
<stop stop-color="#2B3582"/>
<stop offset="1" stop-color="#150E42"/>
</linearGradient>
<linearGradient id="paint41_linear_185_891" x1="152.942" y1="397.468" x2="157.675" y2="397.513" gradientUnits="userSpaceOnUse">
<stop stop-color="#F9B776"/>
<stop offset="1" stop-color="#F47960"/>
</linearGradient>
<linearGradient id="paint42_linear_185_891" x1="175.095" y1="327.835" x2="129.179" y2="388.845" gradientUnits="userSpaceOnUse">
<stop stop-color="#FDF53F"/>
<stop offset="1" stop-color="#D93C65"/>
</linearGradient>
<linearGradient id="paint43_linear_185_891" x1="158.428" y1="382.226" x2="104.604" y2="439.667" gradientUnits="userSpaceOnUse">
<stop stop-color="#2B3582"/>
<stop offset="1" stop-color="#150E42"/>
</linearGradient>
<linearGradient id="paint44_linear_185_891" x1="135.889" y1="397.063" x2="139.974" y2="397.102" gradientUnits="userSpaceOnUse">
<stop stop-color="#F9B776"/>
<stop offset="1" stop-color="#F47960"/>
</linearGradient>
<linearGradient id="paint45_linear_185_891" x1="167.072" y1="321.798" x2="121.157" y2="382.808" gradientUnits="userSpaceOnUse">
<stop stop-color="#FDF53F"/>
<stop offset="1" stop-color="#D93C65"/>
</linearGradient>
<linearGradient id="paint46_linear_185_891" x1="158.731" y1="308.653" x2="125.467" y2="274.19" gradientUnits="userSpaceOnUse">
<stop stop-color="#53D8FF"/>
<stop offset="1" stop-color="#3840F7"/>
</linearGradient>
<linearGradient id="paint47_linear_185_891" x1="173.589" y1="274.202" x2="197.764" y2="274.432" gradientUnits="userSpaceOnUse">
<stop stop-color="#F9B776"/>
<stop offset="1" stop-color="#F47960"/>
</linearGradient>
<linearGradient id="paint48_linear_185_891" x1="192.417" y1="270.329" x2="175.845" y2="307.083" gradientUnits="userSpaceOnUse">
<stop stop-color="#F9B776"/>
<stop offset="1" stop-color="#F47960"/>
</linearGradient>
<linearGradient id="paint49_linear_185_891" x1="197.805" y1="258.086" x2="204.672" y2="247.743" gradientUnits="userSpaceOnUse">
<stop stop-color="#F9B776"/>
<stop offset="1" stop-color="#F47960"/>
</linearGradient>
<linearGradient id="paint50_linear_185_891" x1="151.329" y1="315.798" x2="118.065" y2="281.335" gradientUnits="userSpaceOnUse">
<stop stop-color="#53D8FF"/>
<stop offset="1" stop-color="#3840F7"/>
</linearGradient>
<linearGradient id="paint51_linear_185_891" x1="120.365" y1="307.94" x2="150.959" y2="308.231" gradientUnits="userSpaceOnUse">
<stop stop-color="#F9B776"/>
<stop offset="1" stop-color="#F47960"/>
</linearGradient>
<linearGradient id="paint52_linear_185_891" x1="144.17" y1="275.457" x2="156.266" y2="275.572" gradientUnits="userSpaceOnUse">
<stop stop-color="#F9B776"/>
<stop offset="1" stop-color="#F47960"/>
</linearGradient>
<linearGradient id="paint53_linear_185_891" x1="159.216" y1="267.906" x2="145.994" y2="259.669" gradientUnits="userSpaceOnUse">
<stop stop-color="#F9B776"/>
<stop offset="1" stop-color="#F47960"/>
</linearGradient>
<linearGradient id="paint54_linear_185_891" x1="139.035" y1="251.05" x2="156.087" y2="264.783" gradientUnits="userSpaceOnUse">
<stop stop-color="#2B3582"/>
<stop offset="1" stop-color="#150E42"/>
</linearGradient>
<linearGradient id="paint55_linear_185_891" x1="155.694" y1="270.896" x2="143.798" y2="263.484" gradientUnits="userSpaceOnUse">
<stop stop-color="#F9B776"/>
<stop offset="1" stop-color="#F47960"/>
</linearGradient>
<linearGradient id="paint56_linear_185_891" x1="159.161" y1="288.502" x2="176.042" y2="358.841" gradientUnits="userSpaceOnUse">
<stop stop-color="#2B3582"/>
<stop offset="1" stop-color="#150E42"/>
</linearGradient>
<linearGradient id="paint57_linear_185_891" x1="147.592" y1="307.111" x2="157.157" y2="307.111" gradientUnits="userSpaceOnUse">
<stop stop-color="#F9B776"/>
<stop offset="1" stop-color="#F47960"/>
</linearGradient>
<linearGradient id="paint58_linear_185_891" x1="551.025" y1="74.7623" x2="515.78" y2="39.4962" gradientUnits="userSpaceOnUse">
<stop stop-color="#A737D5"/>
<stop offset="1" stop-color="#EF497A"/>
</linearGradient>
<linearGradient id="paint59_linear_185_891" x1="527.035" y1="63.1252" x2="490.242" y2="4.51227" gradientUnits="userSpaceOnUse">
<stop stop-color="#A737D5"/>
<stop offset="1" stop-color="#EF497A"/>
</linearGradient>
<linearGradient id="paint60_linear_185_891" x1="547.64" y1="74.0673" x2="514.715" y2="41.1235" gradientUnits="userSpaceOnUse">
<stop stop-color="#A737D5"/>
<stop offset="1" stop-color="#EF497A"/>
</linearGradient>
<linearGradient id="paint61_linear_185_891" x1="529.145" y1="59.5344" x2="509.095" y2="52.0724" gradientUnits="userSpaceOnUse">
<stop stop-color="#A737D5"/>
<stop offset="1" stop-color="#EF497A"/>
</linearGradient>
<linearGradient id="paint62_linear_185_891" x1="484.128" y1="253.803" x2="519.527" y2="274.008" gradientUnits="userSpaceOnUse">
<stop stop-color="#F9B776"/>
<stop offset="1" stop-color="#F47960"/>
</linearGradient>
<linearGradient id="paint63_linear_185_891" x1="488.756" y1="274.006" x2="504.702" y2="312.598" gradientUnits="userSpaceOnUse">
<stop stop-color="#CB236D"/>
<stop offset="1" stop-color="#4C246D"/>
</linearGradient>
<linearGradient id="paint64_linear_185_891" x1="487.552" y1="258.841" x2="366.43" y2="183.018" gradientUnits="userSpaceOnUse">
<stop stop-color="#F9B776"/>
<stop offset="1" stop-color="#F47960"/>
</linearGradient>
<linearGradient id="paint65_linear_185_891" x1="494.942" y1="284.074" x2="518.366" y2="318.636" gradientUnits="userSpaceOnUse">
<stop stop-color="#CB236D"/>
<stop offset="1" stop-color="#4C246D"/>
</linearGradient>
<linearGradient id="paint66_linear_185_891" x1="1086.65" y1="1267.8" x2="1115.8" y2="1321.62" gradientUnits="userSpaceOnUse">
<stop stop-color="#A737D5"/>
<stop offset="1" stop-color="#EF497A"/>
</linearGradient>
<linearGradient id="paint67_linear_185_891" x1="523.408" y1="185.146" x2="538.799" y2="202.914" gradientUnits="userSpaceOnUse">
<stop stop-color="#2B3582"/>
<stop offset="1" stop-color="#150E42"/>
</linearGradient>
<linearGradient id="paint68_linear_185_891" x1="3058.86" y1="-3220.62" x2="3042.67" y2="-3198.45" gradientUnits="userSpaceOnUse">
<stop stop-color="#A737D5"/>
<stop offset="1" stop-color="#EF497A"/>
</linearGradient>
<linearGradient id="paint69_linear_185_891" x1="546.13" y1="242.154" x2="581.393" y2="242.154" gradientUnits="userSpaceOnUse">
<stop stop-color="#F9B776"/>
<stop offset="1" stop-color="#F47960"/>
</linearGradient>
<linearGradient id="paint70_linear_185_891" x1="531.779" y1="225.301" x2="532.594" y2="212.599" gradientUnits="userSpaceOnUse">
<stop stop-color="#F9B776"/>
<stop offset="1" stop-color="#F47960"/>
</linearGradient>
<linearGradient id="paint71_linear_185_891" x1="532.982" y1="214.554" x2="517.637" y2="185.188" gradientUnits="userSpaceOnUse">
<stop stop-color="#F9B776"/>
<stop offset="1" stop-color="#F47960"/>
</linearGradient>
<linearGradient id="paint72_linear_185_891" x1="513.808" y1="197.899" x2="535.294" y2="202.21" gradientUnits="userSpaceOnUse">
<stop stop-color="#2B3582"/>
<stop offset="1" stop-color="#150E42"/>
</linearGradient>
<linearGradient id="paint73_linear_185_891" x1="536.492" y1="212.718" x2="521.148" y2="183.353" gradientUnits="userSpaceOnUse">
<stop stop-color="#F9B776"/>
<stop offset="1" stop-color="#F47960"/>
</linearGradient>
<linearGradient id="paint74_linear_185_891" x1="4349.45" y1="-136.551" x2="4333.72" y2="-134.973" gradientUnits="userSpaceOnUse">
<stop stop-color="#2B3582"/>
<stop offset="1" stop-color="#150E42"/>
</linearGradient>
<linearGradient id="paint75_linear_185_891" x1="496.635" y1="238.779" x2="662.55" y2="224.819" gradientUnits="userSpaceOnUse">
<stop stop-color="#2B3582"/>
<stop offset="1" stop-color="#150E42"/>
</linearGradient>
</defs>
</svg>
