<svg width="719" height="410" viewBox="0 0 719 410" fill="none" xmlns="http://www.w3.org/2000/svg">
<path d="M37.0406 408.733C37.0406 408.733 -43.1963 331.953 38.1929 220.773C110.898 121.426 56.601 73.9583 131.217 25.5632C206.648 -23.3658 270.838 6.42443 343.037 44.2524C415.236 82.0803 514.949 -8.47068 622.699 39.6714C730.422 87.8136 714.937 161.39 688.294 237.046C665.811 300.898 734.216 347.045 696.894 408.845C696.894 408.845 34.7361 406.428 37.0406 408.733Z" fill="#EBF3FA"/>
<path d="M717.579 409.97H0.815018C0.365354 409.97 0 409.605 0 409.155V408.846C0 408.397 0.365354 408.031 0.815018 408.031H717.579C718.029 408.031 718.394 408.397 718.394 408.846V409.155C718.422 409.605 718.029 409.97 717.579 409.97Z" fill="#2E3552"/>
<path d="M356.642 31.4705L336.242 35.7705C333.492 36.3505 330.792 34.5905 330.212 31.8405L325.912 11.4405C325.332 8.69054 327.092 5.99054 329.842 5.41054L350.242 1.11054C352.992 0.530539 355.692 2.29054 356.272 5.04054L360.572 25.4405C361.152 28.1905 359.392 30.8905 356.642 31.4705Z" stroke="#263238" stroke-miterlimit="10" stroke-linecap="round" stroke-linejoin="round"/>
<path d="M341.942 12.25L344.542 24.63" stroke="#263238" stroke-miterlimit="10" stroke-linecap="round" stroke-linejoin="round"/>
<path d="M349.432 17.1309L337.052 19.7409" stroke="#263238" stroke-miterlimit="10" stroke-linecap="round" stroke-linejoin="round"/>
<path d="M562.312 249.611L541.912 253.911C539.162 254.491 536.462 252.731 535.882 249.981L531.582 229.581C531.002 226.831 532.762 224.131 535.512 223.551L555.912 219.251C558.662 218.671 561.362 220.431 561.942 223.181L566.242 243.581C566.822 246.331 565.062 249.031 562.312 249.611Z" stroke="#263238" stroke-miterlimit="10" stroke-linecap="round" stroke-linejoin="round"/>
<path d="M552.372 231.271L545.462 241.871" stroke="#263238" stroke-miterlimit="10" stroke-linecap="round" stroke-linejoin="round"/>
<path d="M554.212 240.031L543.612 233.111" stroke="#263238" stroke-miterlimit="10" stroke-linecap="round" stroke-linejoin="round"/>
<path d="M279.302 381.941L258.482 380.741C255.672 380.581 253.532 378.171 253.692 375.361L254.892 354.541C255.052 351.731 257.462 349.591 260.272 349.751L281.092 350.951C283.902 351.111 286.042 353.521 285.882 356.331L284.682 377.151C284.522 379.951 282.112 382.101 279.302 381.941Z" stroke="#263238" stroke-miterlimit="10" stroke-linecap="round" stroke-linejoin="round"/>
<path d="M276.112 366.21L263.472 365.48" stroke="#263238" stroke-miterlimit="10" stroke-linecap="round" stroke-linejoin="round"/>
<path d="M146.282 236.401L126.492 229.841C123.822 228.961 122.372 226.081 123.262 223.411L129.822 203.621C130.702 200.951 133.582 199.501 136.252 200.391L156.042 206.951C158.712 207.831 160.162 210.711 159.272 213.381L152.712 233.171C151.832 235.841 148.952 237.291 146.282 236.401Z" stroke="#263238" stroke-miterlimit="10" stroke-linecap="round" stroke-linejoin="round"/>
<path d="M149.182 214.422L133.352 222.372" stroke="#263238" stroke-miterlimit="10" stroke-linecap="round" stroke-linejoin="round"/>
<path d="M138.122 214.352C139.343 214.352 140.332 213.362 140.332 212.142C140.332 210.921 139.343 209.932 138.122 209.932C136.902 209.932 135.912 210.921 135.912 212.142C135.912 213.362 136.902 214.352 138.122 214.352Z" stroke="#263238" stroke-miterlimit="10" stroke-linecap="round" stroke-linejoin="round"/>
<path d="M144.412 226.861C145.633 226.861 146.622 225.872 146.622 224.651C146.622 223.431 145.633 222.441 144.412 222.441C143.192 222.441 142.202 223.431 142.202 224.651C142.202 225.872 143.192 226.861 144.412 226.861Z" stroke="#263238" stroke-miterlimit="10" stroke-linecap="round" stroke-linejoin="round"/>
<path d="M351.533 345.989C345.753 354.359 334.273 356.449 325.903 350.669C322.673 348.429 320.383 345.349 319.103 341.929C317.093 336.479 317.673 330.169 321.223 325.029C323.703 321.449 327.223 319.019 331.093 317.869C336.273 316.309 342.073 317.049 346.863 320.359C355.233 326.139 357.323 337.619 351.533 345.989Z" fill="#EBB3DB"/>
<path opacity="0.3" d="M336.383 351.01C344.943 351.01 351.883 344.07 351.883 335.51C351.883 326.949 344.943 320.01 336.383 320.01C327.822 320.01 320.883 326.949 320.883 335.51C320.883 344.07 327.822 351.01 336.383 351.01Z" fill="black" fill-opacity="0.7"/>
<path d="M336.383 351.01C344.943 351.01 351.883 344.07 351.883 335.51C351.883 326.949 344.943 320.01 336.383 320.01C327.822 320.01 320.883 326.949 320.883 335.51C320.883 344.07 327.822 351.01 336.383 351.01Z" stroke="#263238" stroke-miterlimit="10" stroke-linecap="round" stroke-linejoin="round"/>
<path d="M340.352 327.769L341.092 326.689L342.952 327.979L342.212 329.059C343.602 330.509 343.562 332.319 342.212 334.279L341.892 334.739L339.742 333.249L340.152 332.649C340.872 331.619 340.722 330.939 340.002 330.439C339.282 329.939 338.592 330.049 337.882 331.079C337.172 332.109 337.082 333.119 337.772 335.399C338.602 338.179 338.462 339.759 337.312 341.409C335.952 343.369 334.232 344.049 332.392 343.259L331.662 344.319L329.802 343.029L330.532 341.969C329.122 340.509 329.172 338.679 330.532 336.709L331.222 335.719L333.372 337.209L332.582 338.349C331.862 339.379 332.062 340.069 332.792 340.569C333.512 341.069 334.232 341.009 334.942 339.979C335.652 338.949 335.762 337.919 335.052 335.659C334.202 332.899 334.362 331.299 335.512 329.649C336.852 327.709 338.522 327.019 340.352 327.769Z" fill="#EBB3DB" stroke="#263238" stroke-miterlimit="10" stroke-linecap="round" stroke-linejoin="round"/>
<path opacity="0.2" d="M331.243 320.579C331.243 329.659 326.373 337.599 319.103 341.929C317.093 336.479 317.673 330.169 321.223 325.029C323.703 321.449 327.223 319.019 331.093 317.869C331.193 318.759 331.243 319.659 331.243 320.579Z" fill="black" fill-opacity="0.7"/>
<path d="M351.533 345.989C345.753 354.359 334.273 356.449 325.903 350.669C322.673 348.429 320.383 345.349 319.103 341.929C317.093 336.479 317.673 330.169 321.223 325.029C323.703 321.449 327.223 319.019 331.093 317.869C336.273 316.309 342.073 317.049 346.863 320.359C355.233 326.139 357.323 337.619 351.533 345.989Z" stroke="#263238" stroke-miterlimit="10" stroke-linecap="round" stroke-linejoin="round"/>
<path d="M310.073 338.44C320.251 338.44 328.503 330.189 328.503 320.01C328.503 309.831 320.251 301.58 310.073 301.58C299.894 301.58 291.643 309.831 291.643 320.01C291.643 330.189 299.894 338.44 310.073 338.44Z" fill="#EBB3DB" stroke="#263238" stroke-miterlimit="10" stroke-linecap="round" stroke-linejoin="round"/>
<path opacity="0.3" d="M310.073 335.51C318.633 335.51 325.573 328.57 325.573 320.01C325.573 311.449 318.633 304.51 310.073 304.51C301.512 304.51 294.573 311.449 294.573 320.01C294.573 328.57 301.512 335.51 310.073 335.51Z" fill="black" fill-opacity="0.7"/>
<path d="M310.073 335.51C318.633 335.51 325.573 328.57 325.573 320.01C325.573 311.449 318.633 304.51 310.073 304.51C301.512 304.51 294.573 311.449 294.573 320.01C294.573 328.57 301.512 335.51 310.073 335.51Z" stroke="#263238" stroke-miterlimit="10" stroke-linecap="round" stroke-linejoin="round"/>
<path d="M308.943 311.38V310.07H311.203V311.38C313.163 311.78 314.173 313.29 314.173 315.68V316.23H311.553V315.5C311.553 314.24 311.053 313.76 310.173 313.76C309.293 313.76 308.793 314.24 308.793 315.5C308.793 316.76 309.293 317.64 311.153 319.12C313.413 320.93 314.193 322.31 314.193 324.32C314.193 326.71 313.163 328.24 311.203 328.64V329.92H308.943V328.64C306.953 328.24 305.953 326.7 305.953 324.32V323.11H308.573V324.49C308.573 325.75 309.123 326.2 310.003 326.2C310.883 326.2 311.433 325.75 311.433 324.49C311.433 323.23 310.933 322.33 309.073 320.87C306.813 319.08 306.033 317.68 306.033 315.66C306.023 313.32 307.003 311.81 308.943 311.38Z" fill="#EBB3DB" stroke="#263238" stroke-miterlimit="10" stroke-linecap="round" stroke-linejoin="round"/>
<path d="M397.983 343.991C408.161 343.991 416.413 335.739 416.413 325.561C416.413 315.382 408.161 307.131 397.983 307.131C387.804 307.131 379.553 315.382 379.553 325.561C379.553 335.739 387.804 343.991 397.983 343.991Z" fill="#EBB3DB" stroke="#263238" stroke-miterlimit="10" stroke-linecap="round" stroke-linejoin="round"/>
<path opacity="0.3" d="M397.983 341.061C406.543 341.061 413.483 334.121 413.483 325.561C413.483 317 406.543 310.061 397.983 310.061C389.422 310.061 382.483 317 382.483 325.561C382.483 334.121 389.422 341.061 397.983 341.061Z" fill="black" fill-opacity="0.7"/>
<path d="M397.983 341.061C406.543 341.061 413.483 334.121 413.483 325.561C413.483 317 406.543 310.061 397.983 310.061C389.422 310.061 382.483 317 382.483 325.561C382.483 334.121 389.422 341.061 397.983 341.061Z" stroke="#263238" stroke-miterlimit="10" stroke-linecap="round" stroke-linejoin="round"/>
<path d="M391.293 320.012L390.403 319.052L392.063 317.512L392.953 318.472C394.663 317.432 396.423 317.852 398.053 319.602L398.433 320.012L396.513 321.792L396.013 321.262C395.153 320.342 394.463 320.332 393.823 320.932C393.183 321.532 393.133 322.222 393.993 323.142C394.853 324.062 395.813 324.362 398.193 324.182C401.083 323.972 402.593 324.452 403.963 325.922C405.593 327.672 405.873 329.502 404.713 331.122L405.583 332.062L403.923 333.602L403.053 332.662C401.323 333.722 399.543 333.282 397.923 331.532L397.103 330.652L399.023 328.872L399.963 329.882C400.823 330.802 401.533 330.762 402.173 330.162C402.813 329.562 402.913 328.852 402.063 327.932C401.203 327.012 400.223 326.692 397.863 326.892C394.993 327.122 393.463 326.622 392.093 325.152C390.473 323.412 390.163 321.642 391.293 320.012Z" fill="#EBB3DB" stroke="#263238" stroke-miterlimit="10" stroke-linecap="round" stroke-linejoin="round"/>
<path opacity="0.2" d="M390.402 245.451C390.402 245.451 390.322 283.691 390.402 285.921C390.482 288.151 393.372 301.581 393.372 301.581L384.092 318.691L392.082 325.131L407.632 309.841C407.632 309.841 420.872 318.021 423.292 329.721C425.712 341.421 440.122 349.941 455.072 382.341C470.022 414.741 487.072 309.841 487.072 309.841L440.942 251.761L390.402 245.451Z" fill="black" fill-opacity="0.7"/>
<path d="M531.422 40.0116L517.292 177.892L508.602 262.712L387.162 250.272L363.532 247.852L348.402 246.302L361.812 115.402L371.222 23.6016L531.422 40.0116Z" fill="white"/>
<path d="M484.892 45.1606L415.742 38.0706C414.442 37.9406 413.282 38.8806 413.152 40.1806C413.022 41.4806 413.962 42.6406 415.262 42.7706L484.412 49.8606C485.712 49.9906 486.872 49.0506 487.002 47.7506C487.142 46.4506 486.192 45.2906 484.892 45.1606Z" fill="#263238"/>
<path d="M466.622 53.0507L432.042 49.5107C431.392 49.4407 430.812 49.9207 430.742 50.5607C430.672 51.2107 431.152 51.7907 431.792 51.8607L466.372 55.4007C467.022 55.4707 467.602 54.9907 467.672 54.3507C467.742 53.6907 467.262 53.1107 466.622 53.0507Z" fill="#263238"/>
<path d="M504.662 154.811L392.422 143.311C391.772 143.241 391.193 143.721 391.123 144.361C391.053 145.011 391.532 145.591 392.172 145.661L504.412 157.161C505.062 157.231 505.643 156.751 505.713 156.111C505.783 155.471 505.312 154.871 504.662 154.811Z" fill="#263238"/>
<path d="M503.792 163.262L373.282 149.892C372.632 149.822 372.052 150.302 371.982 150.942C371.912 151.592 372.392 152.172 373.032 152.242L503.542 165.612C504.192 165.682 504.772 165.202 504.842 164.562C504.912 163.912 504.442 163.332 503.792 163.262Z" fill="#263238"/>
<path d="M466.382 167.971L372.422 158.341C371.772 158.271 371.193 158.751 371.123 159.391C371.053 160.041 371.532 160.621 372.172 160.691L466.132 170.321C466.782 170.391 467.363 169.911 467.433 169.271C467.503 168.631 467.032 168.031 466.382 167.971Z" fill="#263238"/>
<path d="M370.934 167.45L367.117 204.715L498.689 218.192L502.506 180.927L370.934 167.45Z" fill="#BFBFBF" stroke="#263238" stroke-miterlimit="10"/>
<path d="M412.532 131.143C428.709 131.143 441.822 118.029 441.822 101.852C441.822 85.6761 428.709 72.5625 412.532 72.5625C396.356 72.5625 383.242 85.6761 383.242 101.852C383.242 118.029 396.356 131.143 412.532 131.143Z" fill="#EFB4D6"/>
<path opacity="0.5" d="M412.532 131.143C428.709 131.143 441.822 118.029 441.822 101.852C441.822 85.6761 428.709 72.5625 412.532 72.5625C396.356 72.5625 383.242 85.6761 383.242 101.852C383.242 118.029 396.356 131.143 412.532 131.143Z" fill="white"/>
<path d="M412.532 131.143C428.709 131.143 441.822 118.029 441.822 101.852C441.822 85.6761 428.709 72.5625 412.532 72.5625C396.356 72.5625 383.242 85.6761 383.242 101.852C383.242 118.029 396.356 131.143 412.532 131.143Z" stroke="#263238" stroke-miterlimit="10"/>
<path d="M413.372 101.762L437.732 114.023C439.112 111.173 440.022 108.042 440.362 104.712C441.132 97.1925 438.842 90.0625 434.512 84.5625L413.372 101.762Z" fill="white"/>
<path d="M413.532 100.443L433.932 83.8427C430.922 80.2727 427.032 77.4427 422.542 75.7227L418.862 85.8226L413.532 100.443Z" fill="#EFB4D6"/>
<path d="M415.842 74.082L413.372 98.222L421.682 75.412C419.822 74.772 417.872 74.322 415.842 74.082Z" fill="#757575"/>
<path d="M412.102 101.542L414.922 73.9818C399.742 72.6718 386.252 83.7818 384.692 98.9918C384.182 103.952 385.012 108.732 386.862 112.992L412.102 101.542Z" fill="#999999"/>
<path d="M409.682 129.681C421.402 130.881 432.162 124.661 437.312 114.831L412.522 102.361L387.252 113.841C391.312 122.371 399.592 128.651 409.682 129.681Z" fill="#BFBFBF"/>
<path d="M459.062 87.4227L455.722 87.0827C455.382 87.0427 455.132 86.7427 455.162 86.3927L455.502 83.0527C455.542 82.7127 455.842 82.4627 456.192 82.4927L459.532 82.8327C459.872 82.8727 460.122 83.1727 460.092 83.5227L459.752 86.8627C459.712 87.2027 459.412 87.4527 459.062 87.4227Z" fill="#EFB4D6" stroke="#263238" stroke-miterlimit="10"/>
<path d="M505.962 89.2832L462.902 84.8732C462.612 84.8432 462.402 84.5832 462.432 84.2932C462.462 84.0032 462.722 83.7932 463.012 83.8232L506.062 88.2332C506.352 88.2632 506.562 88.5232 506.532 88.8132C506.512 89.1032 506.252 89.3132 505.962 89.2832Z" fill="#263238"/>
<path d="M501.512 91.1422L462.672 87.1622C462.382 87.1322 462.172 86.8722 462.202 86.5822C462.232 86.2922 462.492 86.0822 462.782 86.1122L501.622 90.0922C501.912 90.1222 502.122 90.3822 502.092 90.6722C502.062 90.9622 501.802 91.1722 501.512 91.1422Z" fill="#263238"/>
<path d="M458.012 97.6922L454.672 97.3522C454.332 97.3122 454.082 97.0122 454.112 96.6622L454.452 93.3222C454.492 92.9822 454.792 92.7322 455.142 92.7622L458.482 93.1022C458.822 93.1422 459.072 93.4422 459.042 93.7922L458.702 97.1322C458.662 97.4822 458.352 97.7322 458.012 97.6922Z" fill="#757575" stroke="#263238" stroke-miterlimit="10" stroke-linecap="round" stroke-linejoin="round"/>
<path d="M504.912 99.5527L461.863 95.1427C461.573 95.1127 461.363 94.8527 461.393 94.5627C461.423 94.2727 461.683 94.0627 461.973 94.0927L505.023 98.5027C505.313 98.5327 505.523 98.7927 505.493 99.0827C505.463 99.3727 505.202 99.5827 504.912 99.5527Z" fill="#263238"/>
<path d="M500.452 101.423L461.613 97.4435C461.323 97.4135 461.113 97.1535 461.143 96.8635C461.173 96.5735 461.433 96.3635 461.723 96.3935L500.563 100.373C500.853 100.403 501.063 100.663 501.033 100.953C501.013 101.233 500.752 101.453 500.452 101.423Z" fill="#263238"/>
<path d="M456.962 107.962L453.622 107.622C453.282 107.582 453.032 107.282 453.062 106.932L453.402 103.592C453.442 103.252 453.742 103.002 454.092 103.032L457.432 103.372C457.772 103.412 458.022 103.712 457.992 104.062L457.652 107.402C457.612 107.752 457.302 108.002 456.962 107.962Z" fill="#999999" stroke="#263238" stroke-miterlimit="10" stroke-linecap="round" stroke-linejoin="round"/>
<path d="M503.852 109.832L460.802 105.422C460.512 105.392 460.302 105.132 460.332 104.842C460.362 104.552 460.622 104.342 460.912 104.372L503.962 108.782C504.252 108.812 504.462 109.072 504.432 109.362C504.402 109.652 504.142 109.862 503.852 109.832Z" fill="#263238"/>
<path d="M499.402 111.691L460.562 107.711C460.272 107.681 460.062 107.421 460.092 107.131C460.122 106.841 460.382 106.631 460.672 106.661L499.512 110.641C499.802 110.671 500.012 110.931 499.982 111.221C499.952 111.511 499.692 111.721 499.402 111.691Z" fill="#263238"/>
<path d="M455.902 118.243L452.562 117.903C452.222 117.863 451.972 117.563 452.002 117.213L452.342 113.873C452.382 113.533 452.682 113.283 453.032 113.313L456.372 113.653C456.712 113.693 456.962 113.993 456.932 114.343L456.592 117.683C456.562 118.023 456.252 118.273 455.902 118.243Z" fill="#BFBFBF" stroke="#263238" stroke-miterlimit="10"/>
<path d="M502.802 120.103L459.752 115.693C459.462 115.663 459.252 115.403 459.282 115.113C459.312 114.823 459.572 114.613 459.862 114.643L502.912 119.053C503.202 119.083 503.412 119.343 503.382 119.633C503.352 119.923 503.092 120.133 502.802 120.103Z" fill="#263238"/>
<path d="M498.352 121.963L459.512 117.983C459.222 117.953 459.012 117.693 459.042 117.403C459.072 117.113 459.332 116.903 459.622 116.933L498.462 120.913C498.752 120.943 498.962 121.203 498.932 121.493C498.902 121.783 498.642 121.993 498.352 121.963Z" fill="#263238"/>
<path d="M454.852 128.513L451.512 128.173C451.172 128.133 450.922 127.833 450.952 127.483L451.292 124.143C451.332 123.803 451.632 123.553 451.982 123.583L455.322 123.923C455.662 123.963 455.912 124.263 455.882 124.613L455.542 127.953C455.502 128.303 455.202 128.553 454.852 128.513Z" fill="white" stroke="#263238" stroke-miterlimit="10" stroke-linecap="round" stroke-linejoin="round"/>
<path d="M501.752 130.373L458.702 125.963C458.412 125.933 458.202 125.673 458.232 125.383C458.262 125.093 458.522 124.883 458.812 124.913L501.862 129.323C502.152 129.353 502.362 129.613 502.332 129.903C502.302 130.193 502.042 130.403 501.752 130.373Z" fill="#263238"/>
<path d="M497.302 132.232L458.462 128.252C458.172 128.222 457.962 127.962 457.992 127.672C458.022 127.382 458.282 127.172 458.572 127.202L497.412 131.182C497.702 131.212 497.912 131.472 497.882 131.762C497.852 132.052 497.592 132.262 497.302 132.232Z" fill="#263238"/>
<path d="M482.606 205.609L485.063 205.861L486.505 191.805L484.048 191.553L482.606 205.609Z" fill="#757575" stroke="#263238" stroke-miterlimit="10" stroke-linecap="round" stroke-linejoin="round"/>
<path d="M482.806 203.518L485.263 203.77L485.941 197.154L483.484 196.902L482.806 203.518Z" fill="#EFB4D6" stroke="#263238" stroke-miterlimit="10"/>
<path d="M488.489 202.655L490.946 202.906L492.386 188.85L489.928 188.598L488.489 202.655Z" fill="#757575" stroke="#263238" stroke-miterlimit="10" stroke-linecap="round" stroke-linejoin="round"/>
<path d="M488.881 198.916L491.338 199.168L492.016 192.553L489.559 192.301L488.881 198.916Z" fill="#EFB4D6" stroke="#263238" stroke-miterlimit="10"/>
<path d="M493.745 205.91L496.202 206.162L497.642 192.106L495.185 191.854L493.745 205.91Z" fill="#757575" stroke="#263238" stroke-miterlimit="10" stroke-linecap="round" stroke-linejoin="round"/>
<path d="M494.303 200.596L496.76 200.848L497.438 194.232L494.981 193.98L494.303 200.596Z" fill="#EFB4D6" stroke="#263238" stroke-miterlimit="10"/>
<path d="M477.358 202.262L479.815 202.514L481.256 188.457L478.799 188.205L477.358 202.262Z" fill="#757575" stroke="#263238" stroke-miterlimit="10" stroke-linecap="round" stroke-linejoin="round"/>
<path d="M477.557 200.168L480.015 200.42L480.692 193.804L478.235 193.553L477.557 200.168Z" fill="#EFB4D6" stroke="#263238" stroke-miterlimit="10"/>
<path d="M471.385 205.877L473.842 206.129L475.282 192.072L472.824 191.821L471.385 205.877Z" fill="#757575" stroke="#263238" stroke-miterlimit="10" stroke-linecap="round" stroke-linejoin="round"/>
<path d="M471.563 204.264L474.021 204.516L474.699 197.9L472.242 197.648L471.563 204.264Z" fill="#EFB4D6" stroke="#263238" stroke-miterlimit="10"/>
<path d="M466.221 201.684L468.678 201.936L470.118 187.879L467.661 187.627L466.221 201.684Z" fill="#757575" stroke="#263238" stroke-miterlimit="10" stroke-linecap="round" stroke-linejoin="round"/>
<path d="M466.292 201.131L468.749 201.383L469.427 194.767L466.97 194.515L466.292 201.131Z" fill="#EFB4D6" stroke="#263238" stroke-miterlimit="10"/>
<path d="M459.95 208.434L462.407 208.686L463.848 194.629L461.391 194.377L459.95 208.434Z" fill="#757575" stroke="#263238" stroke-miterlimit="10" stroke-linecap="round" stroke-linejoin="round"/>
<path d="M459.998 207.91L462.455 208.162L463.133 201.547L460.676 201.295L459.998 207.91Z" fill="#EFB4D6" stroke="#263238" stroke-miterlimit="10"/>
<path d="M455.303 199.041L457.76 199.293L459.2 185.236L456.742 184.985L455.303 199.041Z" fill="#757575" stroke="#263238" stroke-miterlimit="10" stroke-linecap="round" stroke-linejoin="round"/>
<path d="M455.526 196.924L457.983 197.176L458.661 190.56L456.204 190.309L455.526 196.924Z" fill="#EFB4D6" stroke="#263238" stroke-miterlimit="10"/>
<path d="M449.866 197.633L452.323 197.885L453.764 183.828L451.307 183.576L449.866 197.633Z" fill="#757575" stroke="#263238" stroke-miterlimit="10" stroke-linecap="round" stroke-linejoin="round"/>
<path d="M450.397 192.358L452.854 192.609L453.532 185.994L451.075 185.742L450.397 192.358Z" fill="#EFB4D6" stroke="#263238" stroke-miterlimit="10"/>
<path d="M443.417 205.912L445.874 206.164L447.314 192.108L444.857 191.856L443.417 205.912Z" fill="#757575" stroke="#263238" stroke-miterlimit="10" stroke-linecap="round" stroke-linejoin="round"/>
<path d="M444.018 200.086L446.476 200.338L447.153 193.722L444.696 193.471L444.018 200.086Z" fill="#EFB4D6" stroke="#263238" stroke-miterlimit="10"/>
<path d="M438.515 199.164L440.972 199.416L442.412 185.36L439.955 185.108L438.515 199.164Z" fill="#757575" stroke="#263238" stroke-miterlimit="10" stroke-linecap="round" stroke-linejoin="round"/>
<path d="M438.785 196.52L441.242 196.771L441.92 190.156L439.463 189.904L438.785 196.52Z" fill="#EFB4D6" stroke="#263238" stroke-miterlimit="10"/>
<path d="M432.617 202.242L435.074 202.494L436.515 188.438L434.058 188.186L432.617 202.242Z" fill="#757575" stroke="#263238" stroke-miterlimit="10" stroke-linecap="round" stroke-linejoin="round"/>
<path d="M432.827 200.149L435.284 200.4L435.961 193.785L433.504 193.533L432.827 200.149Z" fill="#EFB4D6" stroke="#263238" stroke-miterlimit="10"/>
<path d="M426.437 207.988L428.894 208.24L430.335 194.184L427.878 193.932L426.437 207.988Z" fill="#757575" stroke="#263238" stroke-miterlimit="10" stroke-linecap="round" stroke-linejoin="round"/>
<path d="M426.432 208.008L428.889 208.26L429.567 201.644L427.11 201.393L426.432 208.008Z" fill="#EFB4D6" stroke="#263238" stroke-miterlimit="10"/>
<path d="M421.81 198.543L424.267 198.795L425.707 184.738L423.25 184.487L421.81 198.543Z" fill="#757575" stroke="#263238" stroke-miterlimit="10" stroke-linecap="round" stroke-linejoin="round"/>
<path d="M421.964 196.946L424.421 197.197L425.099 190.582L422.642 190.33L421.964 196.946Z" fill="#EFB4D6" stroke="#263238" stroke-miterlimit="10"/>
<path d="M416.92 191.775L419.377 192.027L420.819 177.971L418.362 177.719L416.92 191.775Z" fill="#757575" stroke="#263238" stroke-miterlimit="10" stroke-linecap="round" stroke-linejoin="round"/>
<path d="M417.071 190.209L419.528 190.461L420.206 183.846L417.749 183.594L417.071 190.209Z" fill="#EFB4D6" stroke="#263238" stroke-miterlimit="10"/>
<path d="M410.604 198.67L413.061 198.922L414.501 184.865L412.044 184.614L410.604 198.67Z" fill="#757575" stroke="#263238" stroke-miterlimit="10" stroke-linecap="round" stroke-linejoin="round"/>
<path d="M411.162 193.35L413.619 193.602L414.297 186.986L411.84 186.734L411.162 193.35Z" fill="#EFB4D6" stroke="#263238" stroke-miterlimit="10"/>
<path d="M404.258 206.045L406.715 206.297L408.155 192.24L405.698 191.989L404.258 206.045Z" fill="#757575" stroke="#263238" stroke-miterlimit="10" stroke-linecap="round" stroke-linejoin="round"/>
<path d="M404.909 199.69L407.366 199.941L408.044 193.326L405.587 193.074L404.909 199.69Z" fill="#EFB4D6" stroke="#263238" stroke-miterlimit="10"/>
<path d="M399.538 197.532L401.995 197.783L403.435 183.727L400.978 183.475L399.538 197.532Z" fill="#757575" stroke="#263238" stroke-miterlimit="10" stroke-linecap="round" stroke-linejoin="round"/>
<path d="M399.774 195.396L402.231 195.648L402.909 189.033L400.452 188.781L399.774 195.396Z" fill="#EFB4D6" stroke="#263238" stroke-miterlimit="10"/>
<path d="M394.263 194.611L396.72 194.863L398.161 180.807L395.704 180.555L394.263 194.611Z" fill="#757575" stroke="#263238" stroke-miterlimit="10" stroke-linecap="round" stroke-linejoin="round"/>
<path d="M394.842 188.805L397.299 189.057L397.976 182.441L395.519 182.19L394.842 188.805Z" fill="#EFB4D6" stroke="#263238" stroke-miterlimit="10"/>
<path d="M388.275 198.426L390.732 198.678L392.174 184.621L389.717 184.369L388.275 198.426Z" fill="#757575" stroke="#263238" stroke-miterlimit="10" stroke-linecap="round" stroke-linejoin="round"/>
<path d="M388.262 198.442L390.719 198.693L391.397 192.078L388.94 191.826L388.262 198.442Z" fill="#EFB4D6" stroke="#263238" stroke-miterlimit="10"/>
<path d="M383.174 193.49L385.631 193.742L387.071 179.686L384.614 179.434L383.174 193.49Z" fill="#757575" stroke="#263238" stroke-miterlimit="10" stroke-linecap="round" stroke-linejoin="round"/>
<path d="M383.303 192.412L385.76 192.664L386.439 186.049L383.981 185.797L383.303 192.412Z" fill="#EFB4D6" stroke="#263238" stroke-miterlimit="10"/>
<path d="M377.446 194.819L379.903 195.07L381.343 181.014L378.886 180.762L377.446 194.819Z" fill="#757575" stroke="#263238" stroke-miterlimit="10" stroke-linecap="round" stroke-linejoin="round"/>
<path d="M377.504 194.287L379.961 194.539L380.639 187.924L378.182 187.672L377.504 194.287Z" fill="#EFB4D6" stroke="#263238" stroke-miterlimit="10"/>
<path d="M372.099 192.444L374.557 192.695L375.996 178.639L373.539 178.387L372.099 192.444Z" fill="#757575" stroke="#263238" stroke-miterlimit="10" stroke-linecap="round" stroke-linejoin="round"/>
<path d="M372.808 185.569L375.265 185.82L375.943 179.205L373.486 178.953L372.808 185.569Z" fill="#EFB4D6" stroke="#263238" stroke-miterlimit="10"/>
<path d="M497.683 222.882L385.443 211.382C384.793 211.312 384.213 211.792 384.143 212.432C384.073 213.082 384.553 213.662 385.193 213.732L497.433 225.232C498.083 225.302 498.663 224.822 498.733 224.182C498.803 223.522 498.333 222.942 497.683 222.882Z" fill="#263238"/>
<path d="M496.823 231.332L366.313 217.962C365.663 217.892 365.083 218.372 365.013 219.012C364.943 219.662 365.423 220.242 366.063 220.312L496.573 233.682C497.223 233.752 497.803 233.272 497.873 232.632C497.943 231.972 497.473 231.392 496.823 231.332Z" fill="#263238"/>
<path d="M441.133 234.161L365.443 226.401C364.793 226.331 364.213 226.811 364.143 227.451C364.073 228.101 364.553 228.681 365.193 228.751L440.883 236.511C441.533 236.581 442.113 236.101 442.183 235.461C442.253 234.811 441.783 234.231 441.133 234.161Z" fill="#263238"/>
<path opacity="0.2" d="M510.062 158.692C506.192 158.382 504.852 164.552 504.852 164.552C504.852 164.552 498.732 156.532 499.702 137.672C499.702 137.672 496.712 129.312 488.702 134.362C480.702 139.412 472.392 157.212 474.372 176.602L458.802 124.912C453.422 126.052 442.492 133.282 445.372 168.192L428.382 150.232C428.382 150.232 423.782 148.752 421.182 152.822C418.582 156.902 419.822 186.042 421.972 196.942C424.132 207.852 418.642 229.742 418.642 229.742C418.642 229.742 412.782 204.942 402.182 198.662L361.812 115.402L348.402 246.302L363.532 247.852L387.832 236.022C387.692 241.492 387.562 246.522 387.162 250.272L508.602 262.712L517.292 177.892C514.342 167.322 511.522 158.802 510.062 158.692Z" fill="black" fill-opacity="0.7"/>
<path d="M531.422 40.0116L517.292 177.892L508.602 262.712L387.162 250.272L363.532 247.852L348.402 246.302L361.812 115.402L371.222 23.6016L531.422 40.0116Z" stroke="#263238" stroke-miterlimit="10" stroke-linecap="round" stroke-linejoin="round"/>
<path d="M529.422 394.972L458.422 407.052C458.422 407.052 446.062 341.402 438.692 331.062C431.322 320.712 432.672 316.462 429.092 309.492C426.932 305.282 416.102 297.432 407.602 289.682H407.592C406.852 289.012 406.132 288.342 405.442 287.672C405.142 287.402 404.862 287.112 404.582 286.842C403.452 285.722 402.402 284.632 401.472 283.562C401.132 283.182 400.812 282.802 400.512 282.422C398.742 280.232 397.492 278.182 397.072 276.332C397.042 276.232 397.022 276.132 397.012 276.022C396.982 275.892 396.962 275.772 396.952 275.652C396.762 274.102 396.562 272.332 396.362 270.412C396.322 270.032 396.282 269.632 396.232 269.232C396.212 269.072 396.192 268.922 396.172 268.752C396.002 267.152 395.812 265.452 395.592 263.702C395.372 261.872 395.132 259.972 394.852 258.062C394.762 257.402 394.672 256.742 394.562 256.072C394.562 256.062 394.562 256.052 394.552 256.052C394.442 255.312 394.322 254.572 394.202 253.822C394.092 253.182 393.982 252.542 393.872 251.902C393.852 251.792 393.822 251.692 393.812 251.602C393.672 250.852 393.532 250.122 393.392 249.382C393.362 249.302 393.352 249.222 393.342 249.132C393.202 248.482 393.072 247.842 392.922 247.192C392.612 245.742 392.262 244.322 391.882 242.942C391.132 240.192 390.252 237.622 389.232 235.342C384.112 223.912 390.772 228.042 386.762 198.632C386.762 198.632 389.712 191.812 398.122 197.262C398.772 197.682 399.392 198.142 400.002 198.632H400.012C401.702 199.992 403.202 201.602 404.482 203.412C406.152 205.762 407.452 208.452 408.342 211.372C409.672 215.722 410.102 220.592 409.482 225.672C409.482 225.672 415.802 247.332 419.132 252.262C422.472 257.192 436.232 228.872 435.342 225.572C435.162 224.912 434.912 223.302 434.632 221.092C434.572 220.602 434.512 220.082 434.442 219.532C434.382 218.982 434.312 218.412 434.252 217.822C434.212 217.542 434.182 217.242 434.142 216.952C434.132 216.832 434.122 216.712 434.102 216.602C433.982 215.472 433.842 214.272 433.712 213.032C433.682 212.682 433.642 212.352 433.602 212.012C433.542 211.422 433.482 210.812 433.422 210.212C433.402 210.122 433.402 210.022 433.392 209.912C433.352 209.572 433.312 209.222 433.282 208.862C433.202 208.162 433.132 207.452 433.062 206.742C432.992 206.132 432.942 205.522 432.882 204.912C432.762 203.762 432.652 202.612 432.542 201.502C432.462 200.672 432.382 199.852 432.312 199.052C432.292 198.872 432.272 198.692 432.262 198.522C431.842 194.122 431.512 190.502 431.392 188.962C431.392 188.962 421.382 174.142 420.352 167.162C419.322 160.172 419.412 152.832 423.602 149.842C433.522 142.782 430.622 154.162 435.062 158.872C439.502 163.602 446.312 171.302 450.172 173.712C453.732 175.972 456.912 184.752 457.362 186.032C456.852 184.112 451.762 165.232 451.652 161.432C451.522 157.422 448.462 136.272 453.662 128.682C458.852 121.102 465.772 126.982 466.412 128.482C467.052 129.982 467.242 150.472 469.072 156.182C470.912 161.882 478.562 185.652 478.562 185.652C478.562 185.652 478.882 162.532 480.612 152.182C482.332 141.842 486.832 133.742 491.232 133.282C495.632 132.822 499.702 137.672 499.702 137.672C499.702 137.672 497.962 154.172 498.462 157.982C498.952 161.782 497.742 175.552 499.832 182.952C499.832 182.952 499.592 163.242 502.652 160.722C505.722 158.202 508.342 156.992 510.062 158.692C511.772 160.392 512.152 172.062 513.902 179.082C515.662 186.112 515.432 195.642 516.582 206.592C517.732 217.542 522.262 232.742 521.362 241.432C520.462 250.102 517.692 271.672 515.462 284.322C513.232 296.982 507.542 314.302 507.542 314.302C507.542 314.302 510.132 323.552 509.632 331.802C509.122 340.052 529.422 394.972 529.422 394.972Z" fill="white"/>
<path opacity="0.4" d="M469.072 156.183C470.432 160.403 474.972 174.523 477.242 181.573C477.242 181.573 467.312 188.873 467.562 195.643C467.822 202.413 465.742 216.103 461.292 215.713C456.842 215.333 457.242 186.853 455.782 182.073C456.682 184.123 457.272 185.803 457.392 186.133C457.062 184.903 451.762 165.313 451.652 161.433C451.622 160.523 451.442 158.703 451.232 156.353V156.303C451.232 156.303 461.092 146.863 468.342 152.643V152.653C468.562 154.093 468.802 155.303 469.072 156.183Z" fill="#EFB4D6"/>
<path opacity="0.4" d="M498.562 164.322C493.943 168.702 486.972 176.452 486.092 183.922C486.092 183.922 488.672 204.772 487.572 213.872L478.562 185.662C478.562 185.662 478.882 162.542 480.612 152.192C480.662 151.912 480.712 151.622 480.762 151.332C485.182 149.072 491.242 147.052 498.852 146.912C498.502 151.372 498.222 156.152 498.462 157.982C498.612 159.222 498.602 161.522 498.562 164.322Z" fill="#EFB4D6"/>
<path opacity="0.4" d="M502.652 160.722C502.632 160.742 502.622 160.752 502.612 160.752C502.502 160.832 502.232 161.042 501.842 161.372C502.092 160.912 502.352 160.472 502.632 160.072L502.652 160.722Z" fill="#EFB4D6"/>
<path opacity="0.4" d="M505.002 218.393C505.002 218.393 499.062 196.113 498.962 178.173C498.922 171.533 499.682 165.483 501.832 161.393L501.842 161.383C502.092 160.923 502.352 160.483 502.632 160.083L502.652 160.733C503.922 159.693 505.102 158.873 506.192 158.393C504.522 160.993 502.602 166.083 504.822 174.353C508.312 187.303 505.272 203.133 505.002 218.393Z" fill="#EFB4D6"/>
<path opacity="0.4" d="M423.072 260.852C423.072 260.852 424.672 282.082 407.602 289.692H407.592C406.852 289.022 406.142 288.352 405.442 287.682C405.142 287.402 404.862 287.122 404.582 286.852C403.452 285.732 402.402 284.642 401.472 283.572C401.132 283.182 400.812 282.802 400.512 282.432C398.742 280.242 397.492 278.192 397.072 276.342C397.042 276.242 397.022 276.132 397.012 276.032C396.982 275.902 396.962 275.782 396.952 275.662C396.762 274.112 396.562 272.342 396.362 270.422C396.322 270.042 396.282 269.642 396.232 269.242C396.212 269.082 396.192 268.922 396.182 268.762C396.002 267.162 395.812 265.462 395.602 263.712C395.382 261.882 395.142 259.982 394.862 258.072C394.762 257.412 394.672 256.742 394.572 256.082C394.572 256.072 394.572 256.062 394.562 256.062C394.452 255.322 394.332 254.572 394.212 253.832C394.102 253.192 393.992 252.552 393.882 251.902C393.862 251.802 393.842 251.702 393.822 251.602C393.682 250.862 393.542 250.122 393.392 249.382C393.372 249.302 393.352 249.212 393.342 249.132C393.212 248.482 393.072 247.832 392.932 247.192C392.602 245.742 392.262 244.322 391.882 242.942C398.632 236.442 414.212 240.522 406.672 225.472C406.672 225.472 410.472 212.592 400.002 198.622H400.012C407.172 204.402 410.842 214.542 409.482 225.672C409.482 225.672 415.802 247.322 419.132 252.262C422.472 257.192 436.232 228.872 435.332 225.572C435.162 224.922 434.912 223.302 434.632 221.092C434.572 220.602 434.512 220.082 434.442 219.532C434.372 218.982 434.312 218.412 434.242 217.822C434.202 217.542 434.172 217.252 434.142 216.962C434.132 216.842 434.122 216.722 434.102 216.612C433.982 215.472 433.852 214.282 433.712 213.032C433.682 212.692 433.642 212.352 433.602 212.012C433.542 211.422 433.482 210.822 433.422 210.212C433.412 210.122 433.402 210.022 433.392 209.912C433.362 209.572 433.312 209.222 433.282 208.852C433.202 208.152 433.142 207.442 433.062 206.732C433.002 206.122 432.942 205.512 432.882 204.902C432.772 203.752 432.652 202.602 432.552 201.492C432.472 200.662 432.392 199.832 432.312 199.052C432.292 198.872 432.282 198.692 432.262 198.512C432.542 199.822 437.612 223.962 440.502 229.582C443.472 235.382 430.862 265.852 423.072 260.852Z" fill="#EFB4D6"/>
<path opacity="0.4" d="M515.462 284.323C513.232 296.983 507.552 314.303 507.552 314.303C507.552 314.303 510.142 323.553 509.632 331.803C509.492 334.023 510.872 339.623 512.932 346.623C512.332 345.083 505.962 328.563 506.062 322.803C506.182 316.753 504.462 315.083 501.092 307.653C497.732 300.213 492.582 301.043 492.582 301.043C492.582 301.043 490.602 319.583 485.942 307.403C481.292 295.213 480.392 281.053 492.122 231.853C492.122 231.853 493.892 238.023 492.412 256.353C490.922 274.693 495.312 280.233 495.312 280.233C495.312 280.233 504.792 264.623 510.902 243.873C510.902 243.873 509.392 265.263 508.032 275.013C506.682 284.753 512.842 263.723 517.142 250.723C521.182 238.533 521.332 233.893 519.792 225.213C520.932 231.333 521.792 237.163 521.352 241.423C520.462 250.103 517.692 271.673 515.462 284.323Z" fill="#EFB4D6"/>
<path opacity="0.4" d="M435.232 325.562C438.692 331.062 447.162 338.333 452.212 358.443C457.262 378.553 454.082 400.562 454.082 400.562L435.232 325.562Z" fill="#EFB4D6"/>
<path opacity="0.2" d="M408.342 211.372C408.342 211.372 390.632 220.342 389.232 235.342C384.112 223.912 390.772 228.042 386.762 198.632C386.762 198.632 389.712 191.812 398.122 197.262C398.772 197.682 399.392 198.142 400.002 198.632H400.012C401.702 199.992 403.202 201.602 404.482 203.412L408.342 211.372Z" fill="black" fill-opacity="0.7"/>
<path d="M458.422 407.052C458.422 407.052 446.072 341.402 438.692 331.062C431.322 320.722 432.672 316.462 429.092 309.492C425.512 302.522 398.162 285.562 396.952 275.652C395.742 265.752 394.352 246.772 389.232 235.342C384.112 223.902 390.772 228.042 386.752 198.632C386.752 198.632 389.722 191.822 398.122 197.262C406.522 202.712 410.952 213.612 409.482 225.682C409.482 225.682 415.802 247.332 419.132 252.262C422.472 257.202 436.222 228.872 435.332 225.562C434.442 222.252 431.802 194.092 431.392 188.962C431.392 188.962 421.382 174.132 420.352 167.162C419.322 160.182 419.412 152.832 423.602 149.852C433.522 142.792 430.622 154.172 435.062 158.892C439.502 163.612 446.312 171.312 450.172 173.732C454.032 176.152 457.412 186.202 457.412 186.202C457.412 186.202 451.772 165.462 451.652 161.452C451.532 157.442 448.462 136.292 453.662 128.712C458.862 121.132 465.782 127.012 466.412 128.502C467.052 130.002 467.252 150.492 469.082 156.192C470.912 161.902 478.562 185.672 478.562 185.672C478.562 185.672 478.892 162.552 480.612 152.202C482.342 141.852 486.842 133.752 491.232 133.302C495.632 132.842 499.702 137.692 499.702 137.692C499.702 137.692 497.962 154.192 498.452 158.002C498.942 161.812 497.742 175.572 499.832 182.972C499.832 182.972 499.582 163.262 502.652 160.742C505.722 158.222 508.342 157.012 510.052 158.712C511.772 160.412 512.142 172.082 513.902 179.102C515.652 186.122 515.432 195.662 516.582 206.612C517.732 217.562 522.262 232.762 521.362 241.442C520.462 250.122 517.682 271.682 515.452 284.342C513.222 297.002 507.542 314.322 507.542 314.322C507.542 314.322 510.132 323.572 509.622 331.822C509.112 340.072 529.412 394.992 529.412 394.992" stroke="#263238" stroke-miterlimit="10" stroke-linecap="round" stroke-linejoin="round"/>
<path d="M478.552 185.652C480.622 190.512 485.732 211.032 487.562 213.872C489.392 216.712 491.462 217.572 491.462 217.572" stroke="#263238" stroke-miterlimit="10" stroke-linecap="round" stroke-linejoin="round"/>
<path d="M499.832 182.953C499.832 182.953 499.392 187.153 501.662 200.563C503.932 213.963 505.042 219.673 506.312 222.663" stroke="#263238" stroke-miterlimit="10" stroke-linecap="round" stroke-linejoin="round"/>
<path d="M457.413 186.182C460.193 194.352 461.753 207.372 463.333 211.292C464.913 215.212 466.323 216.022 466.323 216.022" stroke="#263238" stroke-miterlimit="10" stroke-linecap="round" stroke-linejoin="round"/>
<path d="M461.902 205.783C461.902 205.783 464.812 207.943 465.742 210.633" stroke="#263238" stroke-miterlimit="10" stroke-linecap="round" stroke-linejoin="round"/>
<path d="M419.143 252.262C419.143 252.262 420.663 263.092 427.453 262.232" stroke="#263238" stroke-miterlimit="10" stroke-linecap="round" stroke-linejoin="round"/>
<path d="M435.333 225.562C435.333 225.562 437.093 238.433 434.203 243.903" stroke="#263238" stroke-miterlimit="10" stroke-linecap="round" stroke-linejoin="round"/>
<path d="M489.572 225.682C489.572 225.682 494.132 228.472 491.082 236.662C488.032 244.852 482.732 277.892 482.732 277.892" stroke="#263238" stroke-miterlimit="10" stroke-linecap="round" stroke-linejoin="round"/>
<path d="M509.422 234.322C511.332 241.722 511.502 241.912 508.402 251.002C505.292 260.092 500.292 282.352 500.292 282.352" stroke="#263238" stroke-miterlimit="10" stroke-linecap="round" stroke-linejoin="round"/>
<path d="M507.553 314.302C507.553 314.302 504.573 308.282 507.033 303.332" stroke="#263238" stroke-miterlimit="10" stroke-linecap="round" stroke-linejoin="round"/>
<path d="M438.692 331.062C438.692 331.062 446.232 341.653 449.512 353.503" stroke="#263238" stroke-miterlimit="10" stroke-linecap="round" stroke-linejoin="round"/>
<path d="M494.172 145.432L496.212 143.422L497.132 143.152L497.072 144.152L495.192 146.542L494.172 145.432Z" fill="#757575" stroke="#263238" stroke-miterlimit="10" stroke-linecap="round" stroke-linejoin="round"/>
<path d="M495.822 146.552L492.512 154.082L403.312 273.012L393.372 266.682L406.862 249.762L486.982 149.262L494.052 144.772C494.042 144.762 495.552 145.152 495.822 146.552Z" fill="#ECB3DA"/>
<path opacity="0.3" d="M495.822 146.552L492.512 154.082L403.312 273.012L393.372 266.682L406.862 249.762C413.062 249.122 414.092 252.782 414.092 252.782L490.942 152.482C490.192 149.782 486.982 149.262 486.982 149.262L494.052 144.772C494.042 144.762 495.552 145.152 495.822 146.552Z" fill="black" fill-opacity="0.7"/>
<path d="M495.822 146.552L492.512 154.082L403.312 273.012L393.372 266.682L406.862 249.762L486.982 149.262L494.052 144.772C494.042 144.762 495.552 145.152 495.822 146.552Z" stroke="#263238" stroke-miterlimit="10" stroke-linecap="round" stroke-linejoin="round"/>
<path d="M432.402 237.792C432.402 237.792 422.452 257.552 412.872 271.532L406.032 273.302C406.032 273.302 390.332 288.902 380.752 296.692C380.752 296.692 378.292 295.262 376.072 292.762C376.072 292.762 389.672 266.642 404.722 250.112C404.722 250.112 406.912 250.782 409.662 252.732C411.292 253.892 413.132 255.492 414.812 257.672L431.582 236.572L432.402 237.792Z" fill="#ECB3DA"/>
<path opacity="0.3" d="M432.402 237.792C432.402 237.792 422.452 257.552 412.872 271.532L406.032 273.302C406.032 273.302 390.332 288.902 380.752 296.692L381.012 292.452C391.402 276.582 404.602 259.272 409.652 252.732C411.282 253.892 413.122 255.492 414.802 257.672L405.482 270.112L410.822 269.152L431.572 236.572L432.402 237.792Z" fill="black" fill-opacity="0.7"/>
<path d="M432.402 237.792C432.402 237.792 422.452 257.552 412.872 271.532L406.032 273.302C406.032 273.302 390.332 288.902 380.752 296.692C380.752 296.692 378.292 295.262 376.072 292.762C376.072 292.762 389.672 266.642 404.722 250.112C404.722 250.112 406.912 250.782 409.662 252.732C411.292 253.892 413.132 255.492 414.812 257.672L431.582 236.572L432.402 237.792Z" stroke="#263238" stroke-miterlimit="10" stroke-linecap="round" stroke-linejoin="round"/>
<path d="M466.313 216.022L438.453 243.042L434.003 247.362C437.053 239.522 435.573 227.412 435.383 225.932C435.383 225.922 435.383 225.912 435.383 225.912C435.373 225.832 435.363 225.782 435.363 225.782C435.363 225.712 435.353 225.622 435.343 225.572C435.173 224.922 434.923 223.302 434.643 221.092C434.583 220.602 434.523 220.082 434.453 219.532C434.383 218.982 434.323 218.412 434.253 217.822C434.213 217.542 434.183 217.252 434.153 216.962C434.143 216.842 434.133 216.722 434.113 216.612C433.993 215.482 433.853 214.282 433.723 213.032C433.693 212.692 433.653 212.352 433.613 212.012C433.553 211.422 433.493 210.822 433.433 210.212C433.423 210.122 433.413 210.022 433.403 209.912C433.373 209.572 433.323 209.222 433.293 208.852C433.213 208.152 433.153 207.442 433.073 206.732C433.013 206.122 432.953 205.512 432.893 204.902C432.783 203.752 432.663 202.602 432.563 201.492C432.473 200.662 432.393 199.842 432.323 199.052C432.303 198.872 432.293 198.692 432.273 198.512C431.853 194.112 431.523 190.502 431.403 188.952C431.403 188.952 421.403 174.132 420.363 167.152C419.333 160.172 419.423 152.822 423.613 149.842C433.533 142.772 430.623 154.152 435.063 158.872C439.503 163.602 446.323 171.292 450.173 173.712C454.023 176.142 457.413 186.182 457.413 186.182C460.183 194.352 461.753 207.362 463.333 211.292C464.913 215.212 466.313 216.022 466.313 216.022Z" fill="white"/>
<path d="M461.902 205.783C461.902 205.783 464.812 207.943 465.742 210.633" stroke="#263238" stroke-miterlimit="10" stroke-linecap="round" stroke-linejoin="round"/>
<path opacity="0.4" d="M435.062 158.872C439.482 163.592 446.272 171.242 450.132 173.692C449.592 173.422 442.482 169.952 438.512 173.812C434.382 177.832 431.392 188.962 431.392 188.962C431.392 188.962 421.392 174.142 420.352 167.162C419.322 160.182 419.412 152.832 423.602 149.852C433.522 142.782 430.622 154.162 435.062 158.872Z" fill="#EFB4D6"/>
<path opacity="0.4" d="M438.452 243.044L434.002 247.364C437.052 239.524 435.572 227.414 435.382 225.934C435.382 225.924 435.382 225.914 435.382 225.914C435.382 225.774 435.362 225.664 435.342 225.574C435.172 224.924 434.922 223.304 434.642 221.094C434.582 220.604 434.522 220.084 434.452 219.534C434.382 218.984 434.322 218.414 434.252 217.824C434.212 217.544 434.182 217.254 434.152 216.964C434.142 216.844 434.132 216.724 434.112 216.614C433.992 215.474 433.862 214.284 433.722 213.034C433.692 212.694 433.652 212.354 433.612 212.014C433.552 211.424 433.492 210.824 433.432 210.214C433.422 210.124 433.412 210.024 433.402 209.914C433.372 209.574 433.322 209.224 433.292 208.854C433.212 208.154 433.152 207.444 433.072 206.734C433.012 206.124 432.952 205.514 432.892 204.904C432.782 203.754 432.662 202.604 432.562 201.494C432.482 200.664 432.402 199.834 432.322 199.054C432.302 198.874 432.292 198.694 432.272 198.514C432.552 199.824 437.622 223.964 440.512 229.584C441.592 231.724 440.572 237.214 438.452 243.044Z" fill="#EFB4D6"/>
<path d="M466.312 216.023C466.312 216.023 464.902 215.213 463.322 211.293C461.742 207.373 460.172 194.353 457.402 186.183C457.402 186.183 454.012 176.133 450.162 173.713C446.302 171.293 439.502 163.593 435.052 158.873C430.612 154.153 433.512 142.773 423.592 149.833C419.402 152.813 419.322 160.163 420.342 167.143C421.372 174.123 431.382 188.943 431.382 188.943C431.792 194.083 434.432 222.243 435.322 225.543" stroke="#263238" stroke-miterlimit="10" stroke-linecap="round" stroke-linejoin="round"/>
<path d="M435.333 225.562C435.333 225.562 437.093 238.433 434.203 243.903" stroke="#263238" stroke-miterlimit="10" stroke-linecap="round" stroke-linejoin="round"/>
<path opacity="0.2" d="M264.303 241.31C264.303 241.31 270.633 270.7 256.923 292.09C243.213 313.47 232.663 319.18 227.913 325.56C223.163 331.94 204.593 367.61 204.593 367.61L182.893 303.34L204.593 223.83L264.303 241.31Z" fill="black" fill-opacity="0.7"/>
<path d="M392.202 218.84L257.642 275.47L243.772 281.31L217.632 219.2L156.932 74.97L305.362 12.5L392.202 218.84Z" fill="white"/>
<path d="M267.012 39.3505L202.942 66.3105C201.742 66.8205 201.172 68.2005 201.682 69.4005C202.192 70.6005 203.572 71.1705 204.772 70.6605L268.842 43.7005C270.042 43.1905 270.612 41.8105 270.102 40.6105C269.602 39.4005 268.212 38.8405 267.012 39.3505Z" fill="#263238"/>
<path d="M254.762 55.0409L222.722 68.5209C222.122 68.7709 221.842 69.4709 222.092 70.0709C222.342 70.6709 223.042 70.9509 223.642 70.7009L255.682 57.2209C256.282 56.9709 256.562 56.2709 256.312 55.6709C256.052 55.0709 255.362 54.7809 254.762 55.0409Z" fill="#263238"/>
<path d="M307.472 137.17C307.472 137.17 308.822 147.78 304.872 149.45C301.262 150.97 296.512 145.27 292.362 147.02C288.212 148.77 291.482 163.81 287.482 165.5C283.482 167.18 278.662 161 275.212 162.45C271.762 163.9 273.852 171.64 270.292 173.14C267.352 174.38 263.152 168.22 259.792 166.87C259.082 166.58 258.402 166.51 257.792 166.77C254.272 168.25 256.022 184.42 252.982 185.69C251.972 186.12 251.092 186.19 250.282 186.13C249.082 186.05 248.022 185.69 246.852 185.81C246.442 185.85 246.022 185.95 245.572 186.14C242.982 187.23 243.332 195.74 240.962 196.74C238.592 197.74 236.252 196.5 233.722 197.57C231.192 198.64 231.232 203.06 227.462 204.65L229.062 208.44L321.172 169.68" fill="#BFBFBF"/>
<path d="M307.472 137.17C307.472 137.17 308.822 147.78 304.872 149.45C301.262 150.97 296.512 145.27 292.362 147.02C288.212 148.77 291.482 163.81 287.482 165.5C283.482 167.18 278.662 161 275.212 162.45C271.762 163.9 273.852 171.64 270.292 173.14C267.352 174.38 263.152 168.22 259.792 166.87C259.082 166.58 258.402 166.51 257.792 166.77C254.272 168.25 256.022 184.42 252.982 185.69C251.972 186.12 251.092 186.19 250.282 186.13C249.082 186.05 248.022 185.69 246.852 185.81C246.442 185.85 246.022 185.95 245.572 186.14C242.982 187.23 243.332 195.74 240.962 196.74C238.592 197.74 236.252 196.5 233.722 197.57C231.192 198.64 231.232 203.06 227.462 204.65L229.062 208.44L321.172 169.68" stroke="#263238" stroke-miterlimit="10"/>
<path d="M210.392 164.119L229.042 208.429L325.482 167.849" stroke="#263238" stroke-miterlimit="10" stroke-linecap="round" stroke-linejoin="round"/>
<path d="M314.882 154.78C314.882 154.78 314.432 154.22 313.742 153.56C312.552 152.41 310.662 150.95 309.222 151.55C307.812 152.14 307.692 154.48 307.722 156.97C307.752 160.01 308.022 163.27 306.492 163.92C305.192 164.47 304.032 163.64 302.832 162.75C301.462 161.73 300.062 160.61 298.372 161.32C295.532 162.52 296.392 166.22 295.392 169.39C294.882 171.01 293.882 172.49 291.652 173.43C289.192 174.46 286.702 173.45 284.362 171.85C280.402 169.15 276.842 164.77 274.532 165.74C270.862 167.28 274.912 177.21 270.962 178.87C268.762 179.8 264.202 172.85 259.772 166.88C256.272 162.15 252.852 158.04 250.742 158.92C245.982 160.92 253.822 184.65 250.362 186.11C250.332 186.12 250.292 186.14 250.252 186.15C248.812 186.72 247.752 186.36 246.822 185.83C245.572 185.12 244.562 184.12 243.182 184.7C240.632 185.77 242.132 195.07 239.322 196.26C236.512 197.44 234.832 195.73 231.672 197.06C229.002 198.18 227.412 204.66 227.412 204.66L229.012 208.45L321.122 169.69" fill="#757575"/>
<path d="M314.882 154.78C314.882 154.78 314.432 154.22 313.742 153.56C312.552 152.41 310.662 150.95 309.222 151.55C307.812 152.14 307.692 154.48 307.722 156.97C307.752 160.01 308.022 163.27 306.492 163.92C305.192 164.47 304.032 163.64 302.832 162.75C301.462 161.73 300.062 160.61 298.372 161.32C295.532 162.52 296.392 166.22 295.392 169.39C294.882 171.01 293.882 172.49 291.652 173.43C289.192 174.46 286.702 173.45 284.362 171.85C280.402 169.15 276.842 164.77 274.532 165.74C270.862 167.28 274.912 177.21 270.962 178.87C268.762 179.8 264.202 172.85 259.772 166.88C256.272 162.15 252.852 158.04 250.742 158.92C245.982 160.92 253.822 184.65 250.362 186.11C250.332 186.12 250.292 186.14 250.252 186.15C248.812 186.72 247.752 186.36 246.822 185.83C245.572 185.12 244.562 184.12 243.182 184.7C240.632 185.77 242.132 195.07 239.322 196.26C236.512 197.44 234.832 195.73 231.672 197.06C229.002 198.18 227.412 204.66 227.412 204.66L229.012 208.45L321.122 169.69" stroke="#263238" stroke-miterlimit="10" stroke-linecap="round" stroke-linejoin="round"/>
<path d="M295.382 186.41L263.342 199.89C262.742 200.14 262.462 200.84 262.712 201.44C262.962 202.04 263.662 202.32 264.262 202.07L296.302 188.59C296.902 188.34 297.182 187.64 296.932 187.04C296.682 186.44 295.992 186.16 295.382 186.41Z" fill="#263238"/>
<path d="M322.552 137.57L319.452 138.87C319.132 139 318.762 138.85 318.632 138.54L317.332 135.44C317.202 135.12 317.352 134.75 317.662 134.62L320.762 133.32C321.082 133.19 321.452 133.34 321.582 133.65L322.882 136.75C323.022 137.06 322.872 137.43 322.552 137.57Z" fill="#BFBFBF" stroke="#263238" stroke-miterlimit="10"/>
<path d="M337.502 128.1L324.702 133.49C324.432 133.6 324.122 133.48 324.012 133.21C323.902 132.94 324.022 132.63 324.292 132.52L337.092 127.13C337.362 127.02 337.672 127.14 337.782 127.41C337.892 127.68 337.772 127.98 337.502 128.1Z" fill="#263238"/>
<path d="M334.492 131.87L325.592 135.61C325.322 135.72 325.012 135.6 324.902 135.33C324.792 135.06 324.912 134.75 325.182 134.64L334.082 130.9C334.352 130.79 334.662 130.91 334.772 131.18C334.882 131.44 334.762 131.75 334.492 131.87Z" fill="#263238"/>
<path d="M326.562 147.08L323.462 148.38C323.142 148.51 322.772 148.36 322.642 148.05L321.342 144.95C321.212 144.63 321.362 144.26 321.672 144.13L324.772 142.83C325.092 142.7 325.462 142.85 325.592 143.16L326.892 146.26C327.022 146.58 326.872 146.95 326.562 147.08Z" fill="#757575" stroke="#263238" stroke-miterlimit="10" stroke-linecap="round" stroke-linejoin="round"/>
<path d="M341.502 137.62L328.702 143.01C328.432 143.12 328.122 143 328.012 142.73C327.902 142.46 328.022 142.15 328.292 142.04L341.092 136.65C341.362 136.54 341.672 136.66 341.782 136.93C341.902 137.19 341.772 137.5 341.502 137.62Z" fill="#263238"/>
<path d="M338.492 141.38L329.592 145.12C329.322 145.23 329.012 145.11 328.902 144.84C328.792 144.57 328.912 144.26 329.182 144.15L338.082 140.41C338.352 140.3 338.662 140.42 338.772 140.69C338.892 140.96 338.762 141.27 338.492 141.38Z" fill="#263238"/>
<path d="M358.342 176.859L254.352 220.619C253.752 220.869 253.472 221.569 253.722 222.169C253.972 222.769 254.672 223.049 255.272 222.799L359.262 179.039C359.862 178.789 360.142 178.089 359.892 177.489C359.632 176.889 358.942 176.599 358.342 176.859Z" fill="#263238"/>
<path d="M361.642 184.689L240.722 235.579C240.122 235.829 239.842 236.529 240.092 237.129C240.342 237.729 241.042 238.009 241.642 237.759L362.562 186.869C363.162 186.619 363.442 185.919 363.192 185.319C362.932 184.719 362.242 184.429 361.642 184.689Z" fill="#263238"/>
<path d="M364.932 192.519L244.012 243.409C243.412 243.659 243.132 244.359 243.382 244.959C243.632 245.559 244.332 245.839 244.932 245.589L365.852 194.699C366.452 194.449 366.732 193.749 366.482 193.149C366.232 192.549 365.532 192.259 364.932 192.519Z" fill="#263238"/>
<path d="M368.232 200.35L247.312 251.24C246.712 251.49 246.432 252.19 246.682 252.79C246.932 253.39 247.632 253.67 248.232 253.42L369.152 202.53C369.752 202.28 370.032 201.58 369.782 200.98C369.522 200.38 368.832 200.09 368.232 200.35Z" fill="#263238"/>
<path d="M320.732 229.548L250.602 259.058C250.002 259.308 249.722 260.008 249.972 260.608C250.222 261.208 250.922 261.488 251.522 261.238L321.652 231.728C322.252 231.478 322.532 230.778 322.282 230.178C322.022 229.578 321.332 229.298 320.732 229.548Z" fill="#263238"/>
<path d="M282.112 76.8984C282.112 76.8984 283.462 87.5084 279.512 89.1784C275.902 90.6984 271.152 84.9984 267.002 86.7484C262.852 88.4984 266.122 103.538 262.122 105.228C258.122 106.908 253.302 100.728 249.852 102.178C246.402 103.628 248.492 111.368 244.932 112.868C241.992 114.108 237.792 107.948 234.432 106.598C233.722 106.308 233.042 106.238 232.432 106.498C228.912 107.978 230.662 124.148 227.622 125.418C226.612 125.848 225.732 125.918 224.922 125.858C223.722 125.778 222.662 125.418 221.492 125.538C221.082 125.578 220.662 125.678 220.212 125.868C217.622 126.958 217.972 135.468 215.602 136.468C213.232 137.468 210.892 136.228 208.362 137.298C205.832 138.368 205.872 142.788 202.102 144.378L203.702 148.168L295.812 109.408" fill="#BFBFBF"/>
<path d="M282.112 76.8984C282.112 76.8984 283.462 87.5084 279.512 89.1784C275.902 90.6984 271.152 84.9984 267.002 86.7484C262.852 88.4984 266.122 103.538 262.122 105.228C258.122 106.908 253.302 100.728 249.852 102.178C246.402 103.628 248.492 111.368 244.932 112.868C241.992 114.108 237.792 107.948 234.432 106.598C233.722 106.308 233.042 106.238 232.432 106.498C228.912 107.978 230.662 124.148 227.622 125.418C226.612 125.848 225.732 125.918 224.922 125.858C223.722 125.778 222.662 125.418 221.492 125.538C221.082 125.578 220.662 125.678 220.212 125.868C217.622 126.958 217.972 135.468 215.602 136.468C213.232 137.468 210.892 136.228 208.362 137.298C205.832 138.368 205.872 142.788 202.102 144.378L203.702 148.168L295.812 109.408" stroke="#263238" stroke-miterlimit="10"/>
<path d="M288.062 91.0488C288.062 91.0488 288.902 96.1888 286.872 97.0488C285.182 97.7588 284.142 96.7688 282.362 96.7088C281.652 96.6788 280.822 96.7988 279.782 97.2388C278.152 97.9188 277.762 100.119 277.472 102.489C277.112 105.399 276.932 108.549 274.802 109.449C273.312 110.079 271.702 109.709 270.042 109.129C267.402 108.209 264.612 106.749 261.932 107.879C260.632 108.429 259.722 109.839 259.012 111.589C257.342 115.719 256.822 121.699 255.012 122.459C252.442 123.539 247.732 119.119 245.452 120.079C243.172 121.039 244.102 125.009 242.252 125.789C240.402 126.569 239.342 124.269 236.082 125.639C232.822 127.009 234.412 131.829 229.812 133.759C225.212 135.689 223.202 132.139 218.752 134.009C214.302 135.879 215.112 139.249 211.982 140.569C208.852 141.889 207.522 139.599 205.282 140.539C203.102 141.459 202.512 145.029 202.472 145.259L203.702 148.179L295.812 109.419" fill="#EBB3DB"/>
<path d="M288.062 91.0488C288.062 91.0488 288.902 96.1888 286.872 97.0488C285.182 97.7588 284.142 96.7688 282.362 96.7088C281.652 96.6788 280.822 96.7988 279.782 97.2388C278.152 97.9188 277.762 100.119 277.472 102.489C277.112 105.399 276.932 108.549 274.802 109.449C273.312 110.079 271.702 109.709 270.042 109.129C267.402 108.209 264.612 106.749 261.932 107.879C260.632 108.429 259.722 109.839 259.012 111.589C257.342 115.719 256.822 121.699 255.012 122.459C252.442 123.539 247.732 119.119 245.452 120.079C243.172 121.039 244.102 125.009 242.252 125.789C240.402 126.569 239.342 124.269 236.082 125.639C232.822 127.009 234.412 131.829 229.812 133.759C225.212 135.689 223.202 132.139 218.752 134.009C214.302 135.879 215.112 139.249 211.982 140.569C208.852 141.889 207.522 139.599 205.282 140.539C203.102 141.459 202.512 145.029 202.472 145.259L203.702 148.179L295.812 109.419" stroke="#263238" stroke-miterlimit="10"/>
<path d="M185.032 103.859L203.682 148.169L300.122 107.589" stroke="#263238" stroke-miterlimit="10" stroke-linecap="round" stroke-linejoin="round"/>
<path d="M269.732 125.459L237.692 138.939C237.092 139.189 236.812 139.889 237.062 140.489C237.312 141.089 238.012 141.369 238.612 141.119L270.652 127.639C271.252 127.389 271.532 126.689 271.282 126.089C271.032 125.489 270.342 125.209 269.732 125.459Z" fill="#263238"/>
<path d="M295.572 73.459L292.472 74.759C292.152 74.889 291.782 74.739 291.652 74.429L290.352 71.329C290.222 71.009 290.372 70.639 290.682 70.509L293.782 69.209C294.102 69.079 294.472 69.229 294.602 69.539L295.902 72.639C296.042 72.959 295.892 73.319 295.572 73.459Z" fill="#BFBFBF" stroke="#263238" stroke-miterlimit="10"/>
<path d="M310.522 63.9891L297.722 69.3791C297.452 69.4891 297.142 69.3691 297.032 69.0991C296.922 68.8291 297.042 68.5191 297.312 68.4091L310.112 63.0191C310.382 62.9091 310.692 63.0291 310.802 63.2991C310.922 63.5691 310.792 63.8791 310.522 63.9891Z" fill="#263238"/>
<path d="M307.512 67.7587L298.612 71.4987C298.342 71.6087 298.032 71.4887 297.922 71.2187C297.812 70.9487 297.932 70.6387 298.202 70.5287L307.102 66.7887C307.372 66.6787 307.682 66.7987 307.792 67.0687C307.902 67.3287 307.782 67.6387 307.512 67.7587Z" fill="#263238"/>
<path d="M299.582 82.9785L296.482 84.2785C296.162 84.4085 295.792 84.2585 295.662 83.9485L294.362 80.8485C294.232 80.5285 294.382 80.1585 294.692 80.0285L297.792 78.7285C298.112 78.5985 298.482 78.7485 298.612 79.0585L299.912 82.1585C300.042 82.4685 299.892 82.8385 299.582 82.9785Z" fill="#EBB3DB" stroke="#263238" stroke-miterlimit="10"/>
<path d="M314.522 73.5087L301.722 78.8987C301.452 79.0087 301.142 78.8887 301.032 78.6187C300.922 78.3487 301.042 78.0387 301.312 77.9287L314.112 72.5387C314.382 72.4287 314.692 72.5487 314.802 72.8187C314.912 73.0887 314.792 73.3887 314.522 73.5087Z" fill="#263238"/>
<path d="M311.512 77.2782L302.612 81.0182C302.342 81.1282 302.032 81.0082 301.922 80.7382C301.812 80.4682 301.932 80.1582 302.202 80.0482L311.102 76.3082C311.372 76.1982 311.682 76.3182 311.792 76.5882C311.912 76.8482 311.782 77.1582 311.512 77.2782Z" fill="#263238"/>
<path opacity="0.2" d="M257.642 275.471L243.772 281.311L217.632 219.201C219.272 217.641 221.192 214.971 222.002 210.631C223.562 202.311 222.462 175.561 243.292 172.801C264.112 170.041 246.552 216.881 247.512 225.811C248.392 233.941 260.262 257.571 257.642 275.471Z" fill="black" fill-opacity="0.7"/>
<path d="M392.202 218.84L257.642 275.47L243.772 281.31L217.632 219.2L156.932 74.97L305.362 12.5L392.202 218.84Z" stroke="#263238" stroke-miterlimit="10" stroke-linecap="round" stroke-linejoin="round"/>
<path d="M249.262 229.2C251.592 221.22 260.712 195.59 259.522 184.26C259.412 183.24 259.192 182.32 258.882 181.5C255.682 173.04 242.602 173.86 237.572 180.87C232.052 188.58 227.552 202.46 227.162 210.9C226.952 215.57 224.952 219.85 223.202 222.76C223.192 222.78 223.192 222.79 223.182 222.8C221.772 225.14 220.532 226.56 220.532 226.56L190.682 155.74C190.682 155.74 185.862 159.64 182.872 164.46C181.662 166.39 180.762 168.49 180.582 170.53C179.972 177.5 172.072 206.16 168.782 218.26C168.722 218.52 168.642 218.76 168.582 219C165.422 230.62 173.762 273.78 171.382 286.32C168.992 298.85 167.512 298.58 167.172 307.48C166.922 313.98 157.622 333.74 147.202 354.03C141.232 365.66 134.882 377.45 129.652 387L205.972 383.83C207.292 374.56 208.652 364.77 209.892 355.3C210.402 351.4 211.232 347.39 212.172 343.59C212.172 343.59 212.172 343.59 212.172 343.58C213.852 336.78 215.912 330.63 217.152 327.03C219.102 321.41 221.132 310.93 221.132 310.93C230.012 301.53 241.652 286.77 245.022 276.76C245.032 276.74 245.042 276.71 245.042 276.69C245.892 274.16 246.202 271.94 245.802 270.2C245.462 268.76 245.282 266.89 245.202 264.74C245.212 264.73 245.212 264.73 245.202 264.72C244.832 253.88 247.302 235.85 249.262 229.2Z" fill="white"/>
<path opacity="0.4" d="M223.193 222.79C220.823 227.54 217.973 232.15 216.153 237.48C214.333 242.8 212.383 243.56 207.033 247.72C201.693 251.89 197.793 245.02 197.793 245.02C197.793 245.02 204.863 237.68 202.513 233.59C200.153 229.5 191.373 219.33 191.893 213.72C192.403 208.11 186.563 195.53 186.563 195.53C186.563 195.53 199.893 187.71 197.303 178.57C195.893 173.56 188.913 168.24 182.893 164.45C185.883 159.63 190.703 155.73 190.703 155.73L220.553 226.55C220.543 226.55 221.783 225.12 223.193 222.79Z" fill="#EBB3DB"/>
<path opacity="0.4" d="M174.792 266.23C174.972 266.83 179.312 281.16 175.652 287.13C171.902 293.23 168.232 301.02 170.022 309.12C171.452 315.6 159.452 339 147.212 354.02C157.632 333.73 166.932 313.97 167.182 307.47C167.532 298.57 169.002 298.84 171.392 286.31C173.772 273.77 165.442 230.61 168.592 218.99C168.652 218.75 168.732 218.51 168.792 218.25C171.122 231.42 176.552 257.65 178.042 266.08C179.942 276.81 174.992 266.65 174.792 266.23Z" fill="#EBB3DB"/>
<path opacity="0.4" d="M202.272 352.7C211.142 314.51 240.992 285.23 245.032 276.75C241.662 286.75 230.022 301.52 221.142 310.92C221.142 310.92 219.112 321.39 217.162 327.02C215.912 330.62 213.862 336.77 212.182 343.57C212.182 343.58 212.182 343.58 212.182 343.58C203.512 353.79 202.272 352.7 202.272 352.7Z" fill="#EBB3DB"/>
<path opacity="0.4" d="M249.262 229.2C247.302 235.85 244.823 253.88 245.213 264.71C243.643 257.91 240.622 249.27 240.122 237.24C239.272 216.84 250.832 224.16 246.802 214.11C242.772 204.07 231.282 216.94 236.942 195.67C241.072 180.14 252.843 180.28 258.883 181.49C259.193 182.31 259.413 183.23 259.523 184.25C260.723 195.58 251.602 221.21 249.262 229.2Z" fill="#EBB3DB"/>
<path d="M141.272 365.93C150.842 348.44 160.152 330.45 166.852 311.05C167.652 308.26 166.582 304.63 167.392 301.84C176.462 276.64 166.172 250.41 167.862 224.61C169.282 214.44 172.532 204.19 175.782 193.95C177.312 186.53 177.892 178.24 180.332 170.78C182.852 165.16 185.342 158.62 190.702 155.74C200.902 179.12 211.072 202.59 220.552 226.56C224.832 224.08 225.522 218.54 226.252 213.91C228.552 202.78 230.882 192.58 235.092 183.21C239.372 175.68 250.272 172.47 256.962 178.62C258.872 180.38 259.902 183.09 260.022 185.85C258.722 198.77 254.662 211.81 250.572 223.93C248.962 229.51 247.322 234.18 246.632 239.72C246.712 241.56 246.742 242.47 246.822 244.31C244.452 253.6 246.632 261.78 246.092 271C244.022 287.63 230.722 299.22 221.122 311.56C218.752 320.85 216.382 330.14 213.092 339.47C209.072 353.43 207.812 367.27 206.442 380.72" stroke="#263238" stroke-miterlimit="10" stroke-linecap="round" stroke-linejoin="round"/>
<path d="M220.552 226.551C220.552 226.551 217.412 232.581 216.162 237.481C214.912 242.381 208.582 241.671 205.312 244.721" stroke="#263238" stroke-miterlimit="10" stroke-linecap="round" stroke-linejoin="round"/>
<path d="M196.672 217.92C196.672 217.92 205.282 220.96 210.292 224.87C215.302 228.78 219.012 229.74 219.012 229.74" stroke="#263238" stroke-miterlimit="10" stroke-linecap="round" stroke-linejoin="round"/>
<path d="M191.183 196.57C191.183 196.57 198.133 198.52 203.283 196.07C203.283 196.07 203.663 191.81 204.593 188.68" stroke="#263238" stroke-miterlimit="10" stroke-linecap="round" stroke-linejoin="round"/>
<path d="M204.942 197.08C204.942 197.08 205.012 198.05 208.562 198.09" stroke="#263238" stroke-miterlimit="10" stroke-linecap="round" stroke-linejoin="round"/>
<path d="M221.143 310.92C221.143 310.92 214.363 317.07 210.223 328.15" stroke="#263238" stroke-miterlimit="10" stroke-linecap="round" stroke-linejoin="round"/>
<path d="M168.193 221.121C167.883 227.111 174.913 248.401 177.053 258.971C179.193 269.551 179.983 277.031 179.983 277.031" stroke="#263238" stroke-miterlimit="10" stroke-linecap="round" stroke-linejoin="round"/>
</svg>
