<svg width="739" height="496" viewBox="0 0 739 496" fill="none" xmlns="http://www.w3.org/2000/svg">
<path d="M37.0406 494.733C37.0406 494.733 -43.1963 417.953 38.1929 306.773C110.898 207.426 56.601 159.958 131.217 111.563C206.648 62.6342 270.838 92.4244 343.037 130.252C415.236 168.08 514.949 77.5293 622.699 125.671C730.422 173.814 714.937 247.39 688.294 323.046C665.811 386.898 734.216 433.045 696.894 494.845C696.894 494.845 34.7361 492.428 37.0406 494.733Z" fill="#EBF3FA"/>
<path d="M717.579 495.97H0.815018C0.365354 495.97 0 495.605 0 495.155V494.846C0 494.397 0.365354 494.031 0.815018 494.031H717.579C718.029 494.031 718.394 494.397 718.394 494.846V495.155C718.422 495.605 718.029 495.97 717.579 495.97Z" fill="#2E3552"/>
<g opacity="0.5">
<path d="M573.856 94.7157L595.394 177.105C596.344 180.739 594.146 184.495 590.511 185.445L445.978 223.227C442.343 224.177 438.591 221.978 437.638 218.344L416.1 135.951C415.15 132.317 417.349 128.562 420.983 127.612L565.517 89.8293C569.151 88.8826 572.903 91.0811 573.856 94.7157Z" fill="#AAC9F5"/>
<path d="M486.621 193.31L448.098 203.379C446.468 203.804 444.787 202.819 444.359 201.19L444.263 200.821C443.838 199.191 444.822 197.51 446.452 197.082L484.975 187.013C486.605 186.588 488.285 187.572 488.714 189.202L488.81 189.571C489.235 191.204 488.25 192.885 486.621 193.31Z" fill="#CDE0FB"/>
<path d="M537.384 180.044L498.862 190.112C497.232 190.538 495.551 189.553 495.122 187.923L495.027 187.551C494.601 185.922 495.586 184.241 497.216 183.812L535.738 173.744C537.368 173.318 539.049 174.303 539.478 175.933L539.573 176.301C539.999 177.934 539.014 179.618 537.384 180.044Z" fill="#CDE0FB"/>
<path d="M493.772 150.264C494.141 151.668 494.194 152.882 493.94 153.908C493.619 155.201 492.816 156.017 491.532 156.354C490.245 156.691 489.146 156.373 488.234 155.401C487.51 154.632 486.967 153.546 486.598 152.141C486.229 150.737 486.172 149.53 486.42 148.513C486.741 147.22 487.548 146.403 488.844 146.063C490.141 145.724 491.243 146.041 492.155 147.013C492.863 147.776 493.403 148.859 493.772 150.264ZM492.002 150.718C491.774 149.838 491.478 149.123 491.122 148.577C490.579 147.757 489.959 147.439 489.26 147.623C488.546 147.811 488.155 148.389 488.088 149.355C488.037 150.009 488.126 150.781 488.358 151.671C488.984 154.067 489.909 155.106 491.132 154.785C491.837 154.6 492.222 154.016 492.285 153.028C492.333 152.386 492.237 151.617 492.002 150.718Z" fill="#CDE0FB"/>
<path d="M501.68 148.195C502.049 149.6 502.103 150.813 501.849 151.839C501.528 153.133 500.724 153.949 499.44 154.283C498.154 154.619 497.054 154.302 496.142 153.329C495.418 152.561 494.872 151.474 494.506 150.07C494.138 148.665 494.081 147.458 494.328 146.445C494.649 145.152 495.456 144.335 496.752 143.995C498.049 143.655 499.151 143.973 500.063 144.945C500.775 145.708 501.315 146.791 501.68 148.195ZM499.911 148.65C499.682 147.77 499.386 147.055 499.03 146.508C498.487 145.689 497.868 145.371 497.169 145.555C496.454 145.743 496.063 146.321 495.996 147.287C495.945 147.941 496.034 148.713 496.266 149.603C496.892 151.998 497.817 153.037 499.04 152.716C499.745 152.532 500.13 151.947 500.193 150.959C500.241 150.318 500.146 149.549 499.911 148.65Z" fill="#CDE0FB"/>
<path d="M513.666 145.062C514.034 146.466 514.088 147.68 513.834 148.706C513.513 149.999 512.709 150.815 511.423 151.149C510.136 151.486 509.037 151.168 508.125 150.196C507.4 149.427 506.854 148.341 506.489 146.936C506.12 145.532 506.063 144.325 506.311 143.308C506.632 142.015 507.439 141.198 508.735 140.858C510.031 140.518 511.134 140.836 512.045 141.808C512.757 142.574 513.297 143.657 513.666 145.062ZM511.896 145.516C511.667 144.636 511.372 143.921 511.016 143.375C510.473 142.555 509.853 142.237 509.154 142.422C508.439 142.609 508.049 143.187 507.982 144.153C507.931 144.808 508.02 145.58 508.252 146.469C508.878 148.865 509.802 149.904 511.026 149.586C511.731 149.402 512.115 148.817 512.179 147.829C512.227 147.184 512.131 146.415 511.896 145.516Z" fill="#CDE0FB"/>
<path d="M521.575 142.993C521.943 144.398 521.997 145.611 521.743 146.638C521.422 147.931 520.618 148.747 519.335 149.081C518.048 149.417 516.949 149.1 516.037 148.128C515.313 147.359 514.766 146.272 514.401 144.868C514.032 143.464 513.975 142.256 514.223 141.24C514.544 139.947 515.351 139.13 516.647 138.79C517.943 138.45 519.046 138.768 519.958 139.74C520.669 140.506 521.209 141.589 521.575 142.993ZM519.808 143.448C519.579 142.568 519.284 141.853 518.928 141.306C518.385 140.487 517.765 140.169 517.066 140.353C516.352 140.541 515.961 141.119 515.894 142.085C515.843 142.739 515.932 143.511 516.164 144.401C516.79 146.796 517.714 147.835 518.938 147.514C519.643 147.33 520.027 146.746 520.091 145.757C520.135 145.116 520.043 144.347 519.808 143.448Z" fill="#CDE0FB"/>
<path d="M529.487 140.926C529.855 142.33 529.909 143.544 529.655 144.57C529.334 145.863 528.531 146.679 527.247 147.013C525.96 147.35 524.861 147.032 523.949 146.06C523.225 145.291 522.678 144.205 522.313 142.8C521.944 141.396 521.887 140.189 522.135 139.175C522.456 137.882 523.263 137.066 524.559 136.726C525.855 136.386 526.958 136.703 527.87 137.676C528.578 138.438 529.118 139.521 529.487 140.926ZM527.717 141.38C527.488 140.5 527.193 139.785 526.837 139.239C526.294 138.419 525.674 138.101 524.975 138.286C524.26 138.473 523.87 139.051 523.803 140.017C523.752 140.672 523.841 141.444 524.073 142.333C524.699 144.729 525.623 145.768 526.847 145.447C527.552 145.263 527.936 144.678 528 143.69C528.048 143.051 527.952 142.279 527.717 141.38Z" fill="#CDE0FB"/>
<path d="M537.394 138.857C537.763 140.262 537.817 141.475 537.563 142.502C537.242 143.795 536.438 144.611 535.151 144.945C533.865 145.282 532.765 144.964 531.853 143.992C531.129 143.223 530.583 142.136 530.217 140.732C529.849 139.328 529.791 138.12 530.039 137.107C530.36 135.814 531.167 134.997 532.463 134.657C533.76 134.317 534.862 134.635 535.774 135.607C536.489 136.37 537.029 137.453 537.394 138.857ZM535.628 139.315C535.399 138.435 535.104 137.72 534.748 137.174C534.204 136.354 533.585 136.036 532.886 136.22C532.171 136.408 531.78 136.986 531.714 137.952C531.663 138.606 531.752 139.378 531.984 140.268C532.61 142.664 533.534 143.702 534.757 143.382C535.463 143.197 535.847 142.613 535.911 141.625C535.955 140.983 535.863 140.211 535.628 139.315Z" fill="#CDE0FB"/>
<path d="M549.381 135.724C549.75 137.128 549.804 138.342 549.55 139.368C549.229 140.661 548.425 141.478 547.141 141.811C545.855 142.148 544.755 141.83 543.844 140.858C543.119 140.089 542.573 139.003 542.207 137.598C541.839 136.194 541.782 134.987 542.029 133.97C542.35 132.677 543.157 131.86 544.454 131.521C545.75 131.181 546.852 131.498 547.764 132.47C548.476 133.236 549.016 134.32 549.381 135.724ZM547.612 136.178C547.383 135.298 547.087 134.583 546.732 134.037C546.188 133.217 545.569 132.899 544.87 133.084C544.155 133.271 543.764 133.849 543.697 134.815C543.647 135.47 543.736 136.242 543.968 137.131C544.593 139.527 545.518 140.566 546.741 140.245C547.446 140.061 547.831 139.476 547.894 138.488C547.942 137.849 547.847 137.077 547.612 136.178Z" fill="#CDE0FB"/>
<path d="M557.291 133.656C557.66 135.06 557.714 136.274 557.46 137.3C557.139 138.593 556.335 139.41 555.052 139.744C553.765 140.08 552.666 139.763 551.754 138.79C551.029 138.022 550.486 136.935 550.118 135.531C549.749 134.126 549.692 132.919 549.94 131.906C550.261 130.613 551.068 129.796 552.364 129.456C553.66 129.116 554.762 129.434 555.674 130.406C556.383 131.169 556.923 132.252 557.291 133.656ZM555.522 134.114C555.293 133.234 554.998 132.519 554.642 131.972C554.098 131.153 553.479 130.835 552.78 131.019C552.065 131.207 551.674 131.785 551.608 132.751C551.557 133.405 551.646 134.177 551.878 135.067C552.504 137.462 553.428 138.501 554.651 138.18C555.357 137.996 555.741 137.412 555.805 136.423C555.852 135.782 555.757 135.01 555.522 134.114Z" fill="#CDE0FB"/>
<path d="M565.201 131.592C565.569 132.996 565.623 134.21 565.369 135.236C565.048 136.529 564.245 137.346 562.958 137.679C561.671 138.016 560.572 137.698 559.66 136.726C558.936 135.957 558.389 134.871 558.024 133.466C557.655 132.062 557.598 130.855 557.846 129.841C558.167 128.548 558.974 127.732 560.27 127.392C561.566 127.052 562.669 127.369 563.581 128.342C564.295 129.104 564.836 130.187 565.201 131.592ZM563.431 132.046C563.203 131.166 562.907 130.451 562.551 129.905C562.008 129.085 561.388 128.767 560.689 128.952C559.975 129.139 559.584 129.717 559.517 130.683C559.466 131.338 559.555 132.11 559.787 132.999C560.413 135.395 561.338 136.434 562.561 136.113C563.266 135.929 563.65 135.344 563.714 134.356C563.762 133.714 563.666 132.945 563.431 132.046Z" fill="#CDE0FB"/>
<path d="M573.11 129.523C573.478 130.927 573.532 132.141 573.278 133.167C572.957 134.46 572.154 135.276 570.87 135.61C569.583 135.947 568.484 135.629 567.572 134.657C566.848 133.888 566.301 132.801 565.936 131.397C565.567 129.993 565.51 128.786 565.758 127.769C566.079 126.476 566.886 125.659 568.182 125.319C569.478 124.979 570.581 125.297 571.493 126.269C572.201 127.035 572.741 128.118 573.11 129.523ZM571.34 129.977C571.111 129.097 570.816 128.382 570.46 127.836C569.917 127.016 569.297 126.698 568.598 126.882C567.884 127.07 567.493 127.648 567.426 128.614C567.375 129.268 567.464 130.041 567.696 130.93C568.322 133.326 569.246 134.365 570.47 134.044C571.175 133.859 571.559 133.275 571.623 132.287C571.671 131.645 571.575 130.876 571.34 129.977Z" fill="#CDE0FB"/>
<path d="M468.816 128.565L431.12 138.42C429.49 138.846 427.809 137.861 427.38 136.231C426.955 134.601 427.94 132.921 429.569 132.492L467.266 122.636C468.896 122.211 470.576 123.195 471.005 124.825C471.431 126.458 470.446 128.139 468.816 128.565Z" fill="#CDE0FB"/>
<path d="M560.014 111.465C559.735 110.388 559.099 109.499 558.27 108.879C558.029 108.698 557.686 108.771 557.536 109.032L557.406 109.257C557.282 109.473 557.336 109.753 557.536 109.902C558.137 110.354 558.594 111.002 558.798 111.783C559.001 112.565 558.921 113.353 558.616 114.039C558.515 114.268 558.604 114.535 558.82 114.665L559.042 114.798C559.3 114.954 559.636 114.846 559.757 114.573C560.18 113.629 560.297 112.543 560.014 111.465Z" fill="#CDE0FB"/>
<path d="M562.458 110.826C561.994 109.056 560.914 107.614 559.503 106.664C559.265 106.502 558.938 106.584 558.795 106.835L558.722 106.962C558.591 107.191 558.661 107.48 558.881 107.629C560.056 108.427 560.958 109.637 561.346 111.118C561.734 112.595 561.537 114.092 560.904 115.366C560.787 115.601 560.866 115.89 561.092 116.023L561.219 116.1C561.467 116.246 561.791 116.16 561.921 115.903C562.684 114.384 562.919 112.595 562.458 110.826Z" fill="#CDE0FB"/>
<path d="M564.596 110.267C563.976 107.9 562.508 105.978 560.602 104.739C560.364 104.584 560.04 104.666 559.897 104.914C559.763 105.143 559.836 105.438 560.059 105.581C561.765 106.687 563.077 108.406 563.63 110.522C564.183 112.637 563.881 114.779 562.934 116.577C562.81 116.812 562.893 117.101 563.118 117.238C563.363 117.384 563.684 117.298 563.817 117.044C564.875 115.03 565.215 112.634 564.596 110.267Z" fill="#CDE0FB"/>
<path d="M566.915 109.66C566.127 106.645 564.24 104.205 561.794 102.658C561.552 102.505 561.231 102.585 561.088 102.832L560.961 103.055C560.828 103.287 560.901 103.582 561.126 103.725C563.309 105.11 564.993 107.29 565.695 109.981C566.397 112.672 565.997 115.395 564.77 117.673C564.643 117.908 564.726 118.2 564.955 118.337L565.174 118.467C565.419 118.613 565.74 118.524 565.873 118.273C567.252 115.728 567.703 112.675 566.915 109.66Z" fill="#CDE0FB"/>
<path d="M450.377 210.054C450.555 210.73 450.58 211.318 450.459 211.811C450.304 212.433 449.916 212.827 449.296 212.989C448.677 213.151 448.146 212.999 447.705 212.529C447.355 212.157 447.092 211.633 446.917 210.956C446.739 210.279 446.71 209.695 446.831 209.205C446.987 208.583 447.374 208.189 448 208.024C448.626 207.862 449.157 208.014 449.598 208.481C449.938 208.853 450.199 209.377 450.377 210.054ZM449.525 210.273C449.414 209.847 449.274 209.504 449.099 209.24C448.839 208.846 448.537 208.691 448.2 208.78C447.854 208.869 447.667 209.148 447.635 209.615C447.609 209.93 447.654 210.302 447.765 210.73C448.067 211.887 448.512 212.386 449.103 212.233C449.443 212.144 449.63 211.861 449.659 211.385C449.684 211.077 449.636 210.705 449.525 210.273Z" fill="#CDE0FB"/>
<path d="M454.193 209.056C454.371 209.732 454.396 210.32 454.276 210.813C454.12 211.435 453.732 211.829 453.113 211.991C452.493 212.153 451.963 212.001 451.521 211.531C451.172 211.159 450.908 210.635 450.733 209.958C450.555 209.281 450.527 208.697 450.647 208.207C450.803 207.585 451.191 207.191 451.817 207.025C452.443 206.863 452.973 207.016 453.415 207.483C453.755 207.855 454.015 208.379 454.193 209.056ZM453.338 209.275C453.227 208.849 453.087 208.506 452.916 208.242C452.655 207.848 452.354 207.693 452.017 207.782C451.67 207.871 451.483 208.15 451.451 208.617C451.426 208.932 451.47 209.303 451.582 209.732C451.883 210.889 452.328 211.388 452.919 211.235C453.259 211.146 453.446 210.863 453.475 210.387C453.497 210.079 453.453 209.707 453.338 209.275Z" fill="#CDE0FB"/>
<path d="M456.51 206.153C456.526 206.213 456.522 206.296 456.5 206.401L455.585 211.033C455.541 211.258 455.442 211.392 455.283 211.433C455.188 211.459 455.096 211.446 455.013 211.398C454.927 211.351 454.873 211.277 454.848 211.182C454.829 211.103 454.826 211.02 454.845 210.931L455.773 206.305C455.817 206.083 455.916 205.953 456.068 205.911C456.17 205.886 456.262 205.892 456.344 205.937C456.427 205.981 456.481 206.051 456.51 206.153Z" fill="#CDE0FB"/>
<path d="M460.617 207.376C460.795 208.053 460.82 208.64 460.699 209.133C460.544 209.756 460.156 210.15 459.537 210.312C458.917 210.474 458.387 210.321 457.945 209.851C457.595 209.479 457.332 208.955 457.157 208.278C456.979 207.602 456.951 207.017 457.071 206.528C457.227 205.905 457.615 205.511 458.24 205.346C458.866 205.184 459.397 205.336 459.839 205.803C460.178 206.178 460.439 206.699 460.617 207.376ZM459.762 207.595C459.651 207.169 459.511 206.826 459.34 206.563C459.079 206.169 458.777 206.013 458.441 206.102C458.094 206.191 457.907 206.471 457.875 206.938C457.85 207.252 457.894 207.624 458.005 208.053C458.307 209.209 458.755 209.708 459.343 209.555C459.683 209.467 459.87 209.184 459.899 208.707C459.921 208.402 459.877 208.03 459.762 207.595Z" fill="#CDE0FB"/>
<path d="M464.433 206.382C464.611 207.059 464.637 207.646 464.516 208.139C464.36 208.761 463.973 209.155 463.353 209.317C462.734 209.48 462.203 209.327 461.761 208.857C461.412 208.485 461.148 207.961 460.973 207.284C460.796 206.607 460.767 206.023 460.888 205.534C461.043 204.911 461.431 204.517 462.057 204.352C462.683 204.19 463.213 204.342 463.655 204.809C463.995 205.181 464.255 205.702 464.433 206.382ZM463.579 206.601C463.467 206.175 463.328 205.832 463.156 205.569C462.892 205.175 462.594 205.019 462.257 205.108C461.911 205.197 461.723 205.476 461.691 205.943C461.666 206.258 461.711 206.63 461.822 207.059C462.124 208.215 462.568 208.714 463.159 208.561C463.499 208.472 463.687 208.19 463.715 207.713C463.738 207.405 463.693 207.033 463.579 206.601Z" fill="#CDE0FB"/>
<path d="M468.245 205.384C468.423 206.061 468.448 206.648 468.324 207.141C468.169 207.763 467.781 208.157 467.162 208.319C466.542 208.481 466.012 208.329 465.57 207.859C465.22 207.487 464.957 206.963 464.782 206.286C464.604 205.609 464.576 205.025 464.696 204.536C464.852 203.913 465.24 203.519 465.865 203.354C466.491 203.192 467.022 203.344 467.464 203.811C467.807 204.183 468.067 204.704 468.245 205.384ZM467.394 205.603C467.282 205.177 467.143 204.834 466.971 204.57C466.711 204.176 466.409 204.021 466.072 204.11C465.726 204.199 465.538 204.478 465.506 204.945C465.481 205.26 465.525 205.632 465.637 206.061C465.938 207.217 466.383 207.716 466.974 207.563C467.314 207.474 467.502 207.192 467.53 206.715C467.552 206.407 467.505 206.035 467.394 205.603Z" fill="#CDE0FB"/>
<path d="M472.06 204.386C472.238 205.062 472.264 205.65 472.143 206.143C471.987 206.765 471.6 207.159 470.98 207.321C470.36 207.483 469.83 207.331 469.388 206.861C469.039 206.489 468.775 205.965 468.6 205.288C468.422 204.611 468.394 204.027 468.515 203.537C468.67 202.915 469.058 202.521 469.684 202.356C470.31 202.194 470.84 202.346 471.282 202.813C471.622 203.185 471.882 203.709 472.06 204.386ZM471.206 204.605C471.094 204.179 470.955 203.836 470.783 203.572C470.519 203.178 470.221 203.023 469.884 203.112C469.538 203.201 469.35 203.48 469.318 203.947C469.293 204.262 469.337 204.634 469.449 205.062C469.751 206.219 470.198 206.718 470.786 206.565C471.126 206.476 471.314 206.194 471.342 205.717C471.364 205.409 471.32 205.037 471.206 204.605Z" fill="#CDE0FB"/>
</g>
<path d="M377.286 191.749L300.752 274.475L190.468 172.442V172.439L144 129.449L220.533 46.7266L307.297 126.996L377.286 191.749Z" fill="#DCEAFF"/>
<path d="M359.768 192.709L300.349 256.931L159.457 126.578L218.872 62.3555L359.768 192.709ZM305.684 247.241L350.494 198.809C353.534 195.521 353.337 190.39 350.049 187.349L225.083 71.7343C221.738 68.6366 216.515 68.84 213.417 72.1886L168.785 120.424C165.716 123.744 165.916 128.922 169.236 131.991L294.284 247.683C297.553 250.711 302.656 250.51 305.684 247.241Z" fill="#C0D8FB"/>
<path d="M259.612 183.184C272.612 183.184 283.151 172.645 283.151 159.645C283.151 146.644 272.612 136.105 259.612 136.105C246.611 136.105 236.072 146.644 236.072 159.645C236.072 172.645 246.611 183.184 259.612 183.184Z" fill="#C0D8FB"/>
<path d="M381.286 365.023L304.752 447.748L194.468 345.715V345.712L148 302.722L224.533 220L311.297 300.27L381.286 365.023Z" fill="#DCEAFF"/>
<path d="M363.768 365.983L304.349 430.205L163.457 299.851L222.872 235.629L363.768 365.983ZM309.684 420.515L354.494 372.083C357.534 368.794 357.337 363.663 354.049 360.623L229.083 245.008C225.738 241.91 220.515 242.113 217.417 245.462L172.785 293.697C169.716 297.017 169.916 302.196 173.236 305.265L298.284 420.956C301.553 423.984 306.656 423.784 309.684 420.515Z" fill="#C0D8FB"/>
<path d="M263.612 356.457C276.612 356.457 287.151 345.919 287.151 332.918C287.151 319.918 276.612 309.379 263.612 309.379C250.611 309.379 240.072 319.918 240.072 332.918C240.072 345.919 250.611 356.457 263.612 356.457Z" fill="#C0D8FB"/>
<path d="M342.999 372.023L419.533 454.748L529.817 352.715V352.712L576.285 309.722L499.752 227L412.988 307.27L342.999 372.023Z" fill="#DCEAFF"/>
<path d="M360.517 372.983L419.936 437.205L560.828 306.851L501.413 242.629L360.517 372.983ZM414.601 427.515L369.792 379.083C366.751 375.794 366.948 370.663 370.236 367.623L495.202 252.008C498.547 248.91 503.77 249.113 506.868 252.462L551.5 300.697C554.569 304.017 554.369 309.196 551.049 312.265L426.001 427.956C422.732 430.984 417.629 430.784 414.601 427.515Z" fill="#C0D8FB"/>
<path d="M460.674 363.457C447.673 363.457 437.134 352.919 437.134 339.918C437.134 326.918 447.673 316.379 460.674 316.379C473.674 316.379 484.213 326.918 484.213 339.918C484.213 352.919 473.674 363.457 460.674 363.457Z" fill="#C0D8FB"/>
<path d="M384.045 212.994L271.639 221.108L260.827 71.2531V71.2499L256.271 8.11117L368.671 0L377.183 117.893L384.045 212.994Z" fill="#DCEAFF"/>
<path d="M370.599 201.724L283.334 208.021L269.52 16.5744L356.785 10.2773L370.599 201.724ZM293.847 204.59L359.657 199.84C364.124 199.519 367.486 195.633 367.162 191.166L354.911 21.3623C354.584 16.8158 350.631 13.3941 346.082 13.7213L280.535 18.4521C276.026 18.7761 272.633 22.6967 272.957 27.205L285.218 197.12C285.539 201.568 289.402 204.91 293.847 204.59Z" fill="#C0D8FB"/>
<path d="M320.055 132.69C333.055 132.69 343.594 122.151 343.594 109.151C343.594 96.1502 333.055 85.6113 320.055 85.6113C307.055 85.6113 296.516 96.1502 296.516 109.151C296.516 122.151 307.055 132.69 320.055 132.69Z" fill="#C0D8FB"/>
<path d="M474.035 109.153V483.366C474.035 489.228 469.232 494.029 463.363 494.029H276.238C270.37 494.029 265.572 489.228 265.572 483.366V109.153C265.572 103.285 270.37 98.4844 276.238 98.4844H463.363C469.232 98.4844 474.035 103.285 474.035 109.153Z" fill="#2B478B"/>
<path opacity="0.4" d="M400.353 113.457H346.164C345.005 113.457 344.055 112.508 344.055 111.348C344.055 110.188 345.005 109.238 346.164 109.238H400.353C401.513 109.238 402.463 110.188 402.463 111.348C402.463 112.508 401.513 113.457 400.353 113.457Z" fill="#5E92DD"/>
<path opacity="0.4" d="M336.541 113.457C335.382 113.457 334.432 112.508 334.432 111.348C334.432 110.188 335.382 109.238 336.541 109.238C337.701 109.238 338.651 110.188 338.651 111.348C338.648 112.508 337.701 113.457 336.541 113.457Z" fill="#5E92DD"/>
<path d="M385.981 472.173C385.981 475.907 384.475 479.29 382.038 481.746C379.573 484.234 376.158 485.772 372.383 485.772C364.873 485.772 358.785 479.681 358.785 472.17C358.785 467.341 361.301 463.106 365.095 460.691C367.198 459.351 369.702 458.572 372.383 458.572C379.894 458.579 385.981 464.663 385.981 472.173Z" fill="#2B478B"/>
<path d="M462.912 122.854H278.055V451.894H462.912V122.854Z" fill="#DCEAFF"/>
<path d="M382.038 481.746C379.573 484.234 376.158 485.772 372.383 485.772C364.873 485.772 358.785 479.681 358.785 472.17C358.785 467.341 361.301 463.106 365.095 460.691C366.426 466.486 370.378 476.17 382.038 481.746Z" fill="#233862"/>
<path d="M462.56 122.852H278.059V247.188H462.56V122.852Z" fill="#F99746"/>
<path d="M434.113 227.281H306.86C304.083 227.281 301.824 225.022 301.824 222.245V149.883C301.824 147.107 304.083 144.848 306.86 144.848H434.113C436.89 144.848 439.149 147.107 439.149 149.883V222.245C439.149 225.022 436.89 227.281 434.113 227.281ZM306.86 145.798C304.607 145.798 302.774 147.631 302.774 149.883V222.245C302.774 224.498 304.607 226.331 306.86 226.331H434.113C436.365 226.331 438.199 224.498 438.199 222.245V149.883C438.199 147.631 436.365 145.798 434.113 145.798H306.86V145.798Z" fill="#EBF3FA"/>
<path d="M345.044 210.651L315.704 210.88C314.462 210.889 313.439 209.882 313.429 208.64L313.426 208.357C313.416 207.115 314.423 206.092 315.666 206.082L345.006 205.854C346.249 205.844 347.272 206.851 347.281 208.093L347.284 208.376C347.294 209.618 346.287 210.642 345.044 210.651Z" fill="white"/>
<path d="M383.712 210.35L354.372 210.579C353.13 210.589 352.107 209.581 352.097 208.339L352.094 208.056C352.084 206.814 353.091 205.791 354.334 205.782L383.674 205.553C384.917 205.543 385.94 206.55 385.949 207.793L385.952 208.075C385.962 209.318 384.952 210.341 383.712 210.35Z" fill="white"/>
<path d="M318.684 181.496C318.693 182.566 318.512 183.443 318.144 184.129C317.68 184.997 316.959 185.432 315.98 185.442C315.001 185.448 314.271 185.022 313.797 184.164C313.419 183.484 313.225 182.608 313.219 181.54C313.21 180.469 313.388 179.596 313.747 178.916C314.21 178.048 314.935 177.613 315.92 177.604C316.908 177.597 317.638 178.023 318.115 178.881C318.487 179.554 318.674 180.425 318.684 181.496ZM317.337 181.499C317.33 180.828 317.251 180.266 317.095 179.809C316.854 179.125 316.469 178.785 315.939 178.792C315.392 178.795 315.011 179.138 314.789 179.818C314.633 180.276 314.56 180.844 314.563 181.521C314.576 183.348 315.049 184.256 315.983 184.247C316.52 184.244 316.901 183.894 317.124 183.202C317.27 182.754 317.343 182.185 317.337 181.499Z" fill="white"/>
<path d="M324.708 181.447C324.717 182.517 324.536 183.394 324.171 184.081C323.707 184.948 322.986 185.383 322.007 185.393C321.029 185.399 320.298 184.973 319.825 184.115C319.447 183.436 319.253 182.559 319.246 181.491C319.237 180.42 319.415 179.547 319.774 178.867C320.238 178 320.962 177.564 321.947 177.555C322.935 177.548 323.666 177.974 324.142 178.832C324.511 179.505 324.702 180.376 324.708 181.447ZM323.364 181.453C323.358 180.783 323.278 180.22 323.123 179.763C322.884 179.08 322.497 178.74 321.966 178.746C321.42 178.749 321.038 179.092 320.816 179.772C320.66 180.23 320.587 180.799 320.59 181.475C320.603 183.302 321.076 184.211 322.011 184.201C322.547 184.198 322.929 183.849 323.151 183.156C323.297 182.705 323.367 182.136 323.364 181.453Z" fill="white"/>
<path d="M330.731 181.4C330.74 182.471 330.559 183.347 330.191 184.034C329.727 184.901 329.005 185.336 328.027 185.346C327.048 185.352 326.318 184.926 325.844 184.069C325.466 183.389 325.272 182.512 325.266 181.444C325.256 180.374 325.434 179.5 325.793 178.82C326.257 177.953 326.982 177.517 327.967 177.508C328.955 177.502 329.685 177.927 330.162 178.785C330.534 179.459 330.724 180.332 330.731 181.4ZM329.387 181.406C329.38 180.736 329.301 180.173 329.145 179.716C328.904 179.033 328.519 178.693 327.989 178.699C327.442 178.702 327.061 179.046 326.839 179.726C326.683 180.183 326.61 180.752 326.613 181.428C326.626 183.255 327.099 184.164 328.033 184.154C328.57 184.151 328.951 183.802 329.174 183.109C329.32 182.658 329.39 182.089 329.387 181.406Z" fill="white"/>
<path d="M336.76 181.353C336.769 182.424 336.588 183.301 336.22 183.987C335.756 184.854 335.035 185.289 334.056 185.299C333.078 185.308 332.347 184.88 331.874 184.022C331.495 183.342 331.302 182.465 331.295 181.397C331.286 180.327 331.464 179.453 331.823 178.773C332.287 177.906 333.011 177.471 333.996 177.461C334.984 177.455 335.715 177.88 336.191 178.738C336.56 179.415 336.75 180.285 336.76 181.353ZM335.413 181.359C335.406 180.689 335.327 180.127 335.171 179.669C334.93 178.986 334.545 178.646 334.015 178.652C333.468 178.656 333.087 178.999 332.865 179.679C332.709 180.136 332.636 180.705 332.639 181.382C332.652 183.208 333.125 184.117 334.059 184.108C334.596 184.104 334.978 183.755 335.2 183.062C335.346 182.611 335.419 182.046 335.413 181.359Z" fill="white"/>
<path d="M345.887 181.283C345.896 182.353 345.715 183.23 345.347 183.916C344.883 184.784 344.162 185.219 343.183 185.229C342.205 185.235 341.474 184.809 341 183.951C340.622 183.272 340.429 182.395 340.422 181.327C340.413 180.256 340.591 179.383 340.95 178.703C341.414 177.835 342.138 177.4 343.123 177.391C344.111 177.384 344.842 177.81 345.318 178.668C345.69 179.341 345.881 180.212 345.887 181.283ZM344.543 181.289C344.537 180.619 344.457 180.056 344.301 179.602C344.06 178.919 343.676 178.579 343.145 178.585C342.599 178.588 342.217 178.932 341.995 179.611C341.839 180.069 341.766 180.638 341.769 181.314C341.782 183.141 342.255 184.05 343.189 184.04C343.726 184.037 344.108 183.688 344.33 182.995C344.476 182.541 344.549 181.972 344.543 181.289Z" fill="white"/>
<path d="M351.913 181.236C351.923 182.306 351.741 183.183 351.376 183.87C350.912 184.737 350.191 185.172 349.212 185.182C348.234 185.188 347.503 184.762 347.03 183.905C346.652 183.225 346.458 182.348 346.452 181.28C346.442 180.21 346.62 179.336 346.979 178.656C347.443 177.789 348.167 177.353 349.152 177.344C350.14 177.337 350.871 177.763 351.347 178.621C351.713 179.295 351.903 180.168 351.913 181.236ZM350.566 181.242C350.56 180.572 350.48 180.009 350.324 179.552C350.086 178.869 349.699 178.529 349.168 178.535C348.622 178.538 348.24 178.882 348.018 179.561C347.862 180.019 347.789 180.588 347.792 181.264C347.805 183.091 348.278 184 349.212 183.99C349.749 183.987 350.131 183.638 350.353 182.945C350.499 182.494 350.572 181.928 350.566 181.242Z" fill="white"/>
<path d="M357.938 181.191C357.947 182.262 357.766 183.138 357.398 183.825C356.934 184.692 356.213 185.127 355.234 185.137C354.255 185.143 353.525 184.717 353.051 183.86C352.673 183.18 352.479 182.303 352.473 181.235C352.463 180.165 352.641 179.291 353 178.611C353.464 177.744 354.189 177.308 355.174 177.299C356.162 177.293 356.892 177.718 357.369 178.576C357.741 179.25 357.928 180.12 357.938 181.191ZM356.591 181.194C356.584 180.524 356.505 179.961 356.349 179.504C356.111 178.821 355.723 178.481 355.193 178.487C354.646 178.49 354.265 178.833 354.043 179.513C353.887 179.971 353.814 180.54 353.817 181.216C353.83 183.043 354.303 183.952 355.237 183.942C355.774 183.939 356.155 183.59 356.378 182.897C356.527 182.446 356.597 181.88 356.591 181.194Z" fill="white"/>
<path d="M363.961 181.142C363.971 182.213 363.79 183.09 363.421 183.776C362.957 184.643 362.236 185.078 361.257 185.088C360.279 185.094 359.548 184.669 359.075 183.811C358.697 183.131 358.503 182.254 358.496 181.187C358.487 180.116 358.665 179.242 359.024 178.562C359.488 177.695 360.212 177.26 361.197 177.25C362.185 177.244 362.916 177.669 363.392 178.527C363.764 179.201 363.955 180.071 363.961 181.142ZM362.617 181.148C362.611 180.478 362.531 179.916 362.376 179.458C362.137 178.775 361.75 178.435 361.219 178.441C360.673 178.445 360.292 178.788 360.069 179.468C359.913 179.925 359.84 180.494 359.844 181.171C359.856 182.997 360.33 183.906 361.264 183.897C361.801 183.893 362.182 183.544 362.404 182.851C362.55 182.4 362.62 181.831 362.617 181.148Z" fill="white"/>
<path d="M373.093 181.07C373.102 182.14 372.921 183.017 372.556 183.704C372.092 184.571 371.371 185.006 370.392 185.016C369.414 185.022 368.683 184.596 368.209 183.739C367.831 183.059 367.638 182.182 367.631 181.114C367.622 180.044 367.8 179.17 368.159 178.49C368.622 177.623 369.347 177.187 370.332 177.178C371.32 177.171 372.051 177.597 372.527 178.455C372.896 179.129 373.083 180.002 373.093 181.07ZM371.746 181.076C371.739 180.406 371.66 179.843 371.504 179.386C371.266 178.703 370.878 178.363 370.348 178.369C369.801 178.372 369.42 178.716 369.198 179.395C369.042 179.853 368.969 180.422 368.972 181.098C368.985 182.925 369.458 183.834 370.392 183.824C370.929 183.821 371.31 183.472 371.533 182.779C371.682 182.328 371.752 181.762 371.746 181.076Z" fill="white"/>
<path d="M379.115 181.025C379.125 182.096 378.944 182.972 378.575 183.659C378.111 184.526 377.39 184.961 376.412 184.971C375.433 184.98 374.702 184.551 374.229 183.694C373.851 183.014 373.657 182.137 373.651 181.069C373.641 179.999 373.819 179.125 374.178 178.445C374.642 177.578 375.366 177.142 376.351 177.133C377.339 177.127 378.07 177.552 378.547 178.41C378.918 179.084 379.109 179.954 379.115 181.025ZM377.771 181.028C377.765 180.358 377.686 179.795 377.53 179.338C377.292 178.655 376.904 178.315 376.374 178.321C375.827 178.324 375.446 178.667 375.22 179.347C375.065 179.805 374.991 180.374 374.995 181.05C375.007 182.877 375.481 183.786 376.415 183.776C376.952 183.773 377.333 183.424 377.555 182.731C377.705 182.283 377.775 181.714 377.771 181.028Z" fill="white"/>
<path d="M385.143 180.978C385.152 182.049 384.971 182.926 384.603 183.612C384.139 184.479 383.418 184.914 382.439 184.924C381.46 184.93 380.73 184.505 380.256 183.647C379.878 182.967 379.684 182.09 379.678 181.022C379.669 179.952 379.846 179.078 380.206 178.398C380.669 177.531 381.394 177.096 382.379 177.086C383.367 177.08 384.097 177.505 384.574 178.363C384.943 179.037 385.133 179.907 385.143 180.978ZM383.796 180.984C383.789 180.314 383.71 179.752 383.554 179.294C383.313 178.611 382.928 178.271 382.398 178.277C381.851 178.281 381.47 178.624 381.244 179.304C381.089 179.761 381.016 180.33 381.019 181.007C381.032 182.833 381.505 183.742 382.439 183.733C382.976 183.729 383.357 183.38 383.58 182.687C383.729 182.236 383.802 181.667 383.796 180.984Z" fill="white"/>
<path d="M391.166 180.929C391.176 182 390.995 182.877 390.626 183.563C390.162 184.43 389.441 184.866 388.462 184.875C387.484 184.881 386.753 184.456 386.28 183.598C385.902 182.918 385.708 182.041 385.702 180.974C385.692 179.903 385.87 179.029 386.229 178.349C386.693 177.482 387.417 177.047 388.402 177.037C389.39 177.031 390.121 177.457 390.597 178.314C390.969 178.988 391.157 179.862 391.166 180.929ZM389.819 180.935C389.813 180.265 389.733 179.703 389.578 179.245C389.336 178.562 388.952 178.222 388.421 178.229C387.875 178.232 387.493 178.575 387.268 179.255C387.112 179.712 387.039 180.281 387.042 180.958C387.055 182.785 387.528 183.693 388.462 183.684C388.999 183.681 389.381 183.331 389.603 182.638C389.752 182.187 389.825 181.619 389.819 180.935Z" fill="white"/>
<path d="M400.297 180.861C400.307 181.931 400.125 182.808 399.757 183.495C399.293 184.362 398.572 184.797 397.593 184.807C396.615 184.813 395.884 184.387 395.411 183.53C395.033 182.85 394.839 181.973 394.832 180.905C394.823 179.835 395.001 178.961 395.36 178.281C395.824 177.414 396.548 176.978 397.533 176.969C398.521 176.962 399.252 177.388 399.728 178.246C400.097 178.92 400.287 179.79 400.297 180.861ZM398.95 180.867C398.944 180.197 398.864 179.634 398.708 179.177C398.467 178.494 398.083 178.154 397.552 178.16C397.006 178.163 396.624 178.507 396.399 179.186C396.243 179.644 396.17 180.213 396.173 180.889C396.186 182.716 396.659 183.625 397.593 183.615C398.13 183.612 398.512 183.263 398.734 182.57C398.883 182.119 398.956 181.55 398.95 180.867Z" fill="white"/>
<path d="M406.32 180.812C406.33 181.883 406.149 182.76 405.78 183.446C405.316 184.313 404.595 184.748 403.617 184.758C402.638 184.764 401.907 184.339 401.434 183.481C401.056 182.801 400.862 181.924 400.856 180.856C400.846 179.786 401.024 178.912 401.383 178.232C401.847 177.365 402.571 176.93 403.556 176.92C404.544 176.914 405.275 177.339 405.752 178.197C406.123 178.871 406.311 179.741 406.32 180.812ZM404.973 180.818C404.967 180.148 404.888 179.586 404.732 179.128C404.49 178.445 404.106 178.105 403.575 178.111C403.029 178.115 402.648 178.458 402.422 179.138C402.266 179.595 402.193 180.164 402.197 180.841C402.209 182.667 402.683 183.576 403.617 183.567C404.154 183.563 404.535 183.214 404.757 182.521C404.907 182.07 404.98 181.501 404.973 180.818Z" fill="white"/>
<path d="M412.346 180.765C412.355 181.836 412.174 182.713 411.806 183.399C411.342 184.266 410.621 184.702 409.642 184.711C408.664 184.717 407.933 184.292 407.459 183.434C407.081 182.754 406.888 181.877 406.881 180.81C406.872 179.739 407.05 178.865 407.409 178.185C407.872 177.318 408.597 176.883 409.582 176.873C410.57 176.867 411.301 177.293 411.777 178.15C412.149 178.824 412.34 179.698 412.346 180.765ZM411.002 180.771C410.996 180.101 410.916 179.539 410.761 179.081C410.519 178.398 410.135 178.058 409.604 178.065C409.058 178.068 408.676 178.411 408.451 179.091C408.295 179.548 408.222 180.117 408.225 180.794C408.238 182.621 408.711 183.529 409.645 183.52C410.182 183.516 410.564 183.167 410.786 182.474C410.935 182.023 411.005 181.455 411.002 180.771Z" fill="white"/>
<path d="M418.369 180.72C418.379 181.791 418.198 182.668 417.829 183.354C417.365 184.221 416.644 184.657 415.666 184.666C414.687 184.673 413.956 184.247 413.483 183.389C413.105 182.709 412.911 181.832 412.905 180.765C412.895 179.694 413.073 178.82 413.432 178.14C413.896 177.273 414.62 176.838 415.605 176.828C416.593 176.822 417.324 177.248 417.801 178.105C418.172 178.779 418.363 179.649 418.369 180.72ZM417.025 180.723C417.019 180.053 416.94 179.491 416.784 179.033C416.542 178.35 416.158 178.01 415.627 178.016C415.081 178.02 414.7 178.363 414.477 179.043C414.322 179.5 414.249 180.069 414.252 180.746C414.264 182.572 414.738 183.481 415.672 183.472C416.209 183.468 416.59 183.119 416.812 182.426C416.959 181.975 417.032 181.41 417.025 180.723Z" fill="white"/>
<path d="M344.035 161.175L315.32 161.397C314.078 161.407 313.055 160.4 313.045 159.157C313.035 157.915 314.043 156.892 315.285 156.883L344 156.66C345.242 156.651 346.265 157.658 346.274 158.9C346.284 160.142 345.274 161.165 344.035 161.175Z" fill="white"/>
<path d="M426.231 158.283C426.224 157.463 425.932 156.71 425.452 156.119C425.312 155.947 425.052 155.935 424.899 156.097L424.766 156.233C424.639 156.367 424.626 156.573 424.741 156.716C425.087 157.148 425.297 157.692 425.303 158.289C425.306 158.883 425.106 159.433 424.766 159.868C424.652 160.014 424.667 160.221 424.798 160.351L424.934 160.488C425.09 160.643 425.351 160.63 425.487 160.456C425.957 159.858 426.237 159.102 426.231 158.283Z" fill="white"/>
<path d="M428.091 158.27C428.081 156.923 427.57 155.693 426.734 154.763C426.591 154.604 426.343 154.604 426.197 154.756L426.121 154.836C425.984 154.975 425.984 155.195 426.114 155.341C426.81 156.122 427.236 157.152 427.246 158.276C427.255 159.404 426.845 160.437 426.162 161.231C426.035 161.377 426.038 161.596 426.178 161.736L426.254 161.813C426.404 161.962 426.651 161.959 426.791 161.797C427.608 160.853 428.1 159.617 428.091 158.27Z" fill="white"/>
<path d="M429.722 158.257C429.709 156.456 429.007 154.817 427.869 153.584C427.726 153.428 427.482 153.428 427.336 153.581C427.199 153.721 427.199 153.943 427.329 154.086C428.349 155.185 428.975 156.65 428.988 158.261C429.001 159.871 428.397 161.346 427.396 162.461C427.266 162.607 427.272 162.829 427.409 162.966C427.558 163.115 427.803 163.112 427.943 162.953C429.061 161.711 429.734 160.059 429.722 158.257Z" fill="white"/>
<path d="M431.487 158.242C431.468 155.945 430.563 153.86 429.095 152.313C428.949 152.161 428.707 152.158 428.561 152.31L428.431 152.447C428.294 152.59 428.294 152.812 428.428 152.955C429.737 154.34 430.544 156.199 430.56 158.251C430.576 160.301 429.797 162.175 428.51 163.579C428.377 163.725 428.383 163.948 428.52 164.088L428.653 164.221C428.803 164.37 429.047 164.364 429.187 164.208C430.63 162.639 431.503 160.539 431.487 158.242Z" fill="white"/>
<path d="M316.123 216.058C316.126 216.573 316.04 216.999 315.862 217.329C315.64 217.745 315.29 217.958 314.817 217.961C314.344 217.964 313.994 217.761 313.762 217.345C313.581 217.018 313.486 216.595 313.483 216.08C313.479 215.566 313.562 215.143 313.737 214.816C313.959 214.396 314.309 214.187 314.785 214.184C315.262 214.18 315.614 214.384 315.843 214.8C316.027 215.121 316.12 215.543 316.123 216.058ZM315.475 216.061C315.471 215.737 315.433 215.467 315.357 215.248C315.243 214.918 315.055 214.756 314.798 214.756C314.534 214.759 314.35 214.924 314.242 215.251C314.166 215.47 314.131 215.747 314.134 216.071C314.14 216.951 314.369 217.389 314.817 217.386C315.077 217.383 315.259 217.215 315.367 216.881C315.44 216.665 315.475 216.392 315.475 216.061Z" fill="white"/>
<path d="M319.028 216.037C319.031 216.551 318.945 216.977 318.767 217.307C318.545 217.724 318.195 217.937 317.725 217.94C317.252 217.943 316.902 217.74 316.67 217.323C316.489 216.996 316.394 216.574 316.391 216.059C316.388 215.544 316.47 215.122 316.645 214.794C316.867 214.375 317.217 214.165 317.693 214.162C318.17 214.159 318.523 214.362 318.751 214.779C318.932 215.099 319.025 215.519 319.028 216.037ZM318.38 216.04C318.376 215.716 318.338 215.446 318.262 215.226C318.148 214.896 317.96 214.734 317.703 214.734C317.439 214.737 317.255 214.902 317.147 215.23C317.071 215.449 317.036 215.725 317.039 216.049C317.045 216.929 317.274 217.368 317.722 217.365C317.982 217.362 318.164 217.193 318.272 216.86C318.348 216.643 318.383 216.367 318.38 216.04Z" fill="white"/>
<path d="M321.206 214.381C321.206 214.429 321.19 214.486 321.155 214.556L319.665 217.698C319.592 217.854 319.497 217.93 319.376 217.93C319.303 217.93 319.24 217.908 319.189 217.857C319.138 217.806 319.109 217.746 319.109 217.673C319.109 217.612 319.122 217.552 319.154 217.492L320.653 214.353C320.727 214.203 320.819 214.127 320.936 214.127C321.012 214.127 321.076 214.149 321.13 214.194C321.181 214.241 321.206 214.305 321.206 214.381Z" fill="white"/>
<path d="M323.923 215.999C323.927 216.514 323.841 216.939 323.663 217.27C323.441 217.689 323.091 217.899 322.618 217.902C322.144 217.905 321.795 217.702 321.563 217.286C321.382 216.958 321.286 216.536 321.283 216.018C321.28 215.503 321.363 215.081 321.537 214.753C321.76 214.334 322.109 214.124 322.586 214.121C323.062 214.118 323.415 214.321 323.644 214.737C323.825 215.062 323.917 215.481 323.923 215.999ZM323.272 216.002C323.269 215.678 323.231 215.408 323.155 215.189C323.04 214.858 322.853 214.696 322.595 214.696C322.332 214.699 322.147 214.861 322.039 215.192C321.963 215.411 321.928 215.687 321.931 216.015C321.938 216.895 322.167 217.333 322.614 217.33C322.875 217.327 323.056 217.158 323.164 216.825C323.24 216.606 323.275 216.332 323.272 216.002Z" fill="white"/>
<path d="M326.826 215.976C326.829 216.491 326.743 216.917 326.565 217.247C326.343 217.666 325.993 217.876 325.52 217.879C325.047 217.882 324.697 217.679 324.465 217.263C324.284 216.936 324.189 216.513 324.186 215.998C324.182 215.484 324.265 215.061 324.44 214.734C324.662 214.314 325.012 214.105 325.488 214.102C325.965 214.098 326.317 214.302 326.546 214.718C326.73 215.039 326.823 215.458 326.826 215.976ZM326.178 215.979C326.175 215.655 326.136 215.385 326.06 215.166C325.946 214.836 325.758 214.673 325.501 214.673C325.237 214.677 325.053 214.839 324.945 215.169C324.869 215.388 324.834 215.665 324.837 215.992C324.843 216.872 325.072 217.31 325.52 217.307C325.781 217.304 325.962 217.136 326.07 216.802C326.146 216.583 326.181 216.307 326.178 215.979Z" fill="white"/>
<path d="M329.734 215.953C329.737 216.467 329.651 216.893 329.474 217.224C329.251 217.64 328.902 217.853 328.428 217.856C327.955 217.859 327.605 217.656 327.373 217.239C327.192 216.912 327.097 216.49 327.094 215.975C327.091 215.46 327.173 215.038 327.348 214.71C327.57 214.291 327.92 214.081 328.396 214.078C328.873 214.075 329.226 214.278 329.454 214.695C329.639 215.015 329.728 215.435 329.734 215.953ZM329.083 215.953C329.08 215.629 329.041 215.359 328.965 215.139C328.851 214.809 328.663 214.647 328.406 214.647C328.142 214.65 327.958 214.815 327.85 215.143C327.774 215.362 327.739 215.638 327.742 215.965C327.748 216.845 327.977 217.284 328.425 217.281C328.686 217.278 328.867 217.109 328.975 216.776C329.051 216.556 329.086 216.283 329.083 215.953Z" fill="white"/>
<path d="M332.638 215.931C332.642 216.446 332.556 216.872 332.378 217.202C332.155 217.618 331.806 217.831 331.333 217.834C330.859 217.837 330.51 217.634 330.278 217.218C330.097 216.891 330.001 216.468 329.998 215.953C329.995 215.439 330.078 215.016 330.252 214.689C330.475 214.27 330.824 214.06 331.301 214.057C331.777 214.054 332.13 214.257 332.359 214.673C332.543 214.994 332.635 215.413 332.638 215.931ZM331.99 215.931C331.987 215.607 331.949 215.337 331.873 215.118C331.758 214.787 331.571 214.625 331.313 214.625C331.05 214.629 330.865 214.794 330.757 215.121C330.681 215.34 330.646 215.617 330.649 215.941C330.656 216.821 330.885 217.259 331.333 217.256C331.593 217.253 331.774 217.084 331.882 216.751C331.958 216.535 331.993 216.262 331.99 215.931Z" fill="white"/>
<path d="M427.506 259.767C427.608 259.554 427.732 259.357 427.878 259.179C427.986 259.049 428.107 258.925 428.237 258.814L428.781 258.264L428.923 258.369C431.703 257.009 437.445 258.451 443.252 262.242C450.271 266.823 454.776 273.133 453.476 276.485L453.673 276.631L452.892 277.409C452.854 277.447 452.815 277.489 452.777 277.524L452.755 277.546L452.749 277.549C452.552 277.73 452.326 277.886 452.072 278.019L452.069 278.022C449.324 279.462 443.522 278.029 437.651 274.197C430.503 269.527 425.962 263.068 427.506 259.767Z" fill="#88ADD8"/>
<path d="M444.087 261.403C436.939 256.736 429.889 255.627 428.341 258.928C426.794 262.229 431.337 268.691 438.489 273.358C445.638 278.025 452.688 279.134 454.235 275.833C455.782 272.532 451.236 266.073 444.087 261.403Z" fill="#AFCDFB"/>
<path d="M438.885 272.424C435.892 270.464 433.312 268.103 431.625 265.771C429.897 263.388 429.3 261.301 429.945 259.893C430.272 259.179 430.891 258.683 431.784 258.426C434.421 257.666 439.098 259.118 443.695 262.13C446.688 264.09 449.268 266.451 450.955 268.783C452.683 271.166 453.28 273.253 452.635 274.661C452.308 275.375 451.689 275.871 450.796 276.128C450.332 276.262 449.801 276.329 449.223 276.329C446.51 276.329 442.672 274.905 438.885 272.424ZM431.927 258.934C431.19 259.147 430.682 259.544 430.421 260.116C429.868 261.323 430.462 263.274 432.051 265.466C433.703 267.744 436.235 270.06 439.174 271.985C442.84 274.384 446.647 275.801 449.239 275.801C449.763 275.801 450.237 275.744 450.65 275.623C451.387 275.41 451.895 275.013 452.156 274.441C452.709 273.234 452.114 271.283 450.526 269.091C448.874 266.813 446.345 264.497 443.403 262.572C439.736 260.173 435.93 258.756 433.338 258.756C432.817 258.756 432.34 258.816 431.927 258.934Z" fill="#98B9EA"/>
<path d="M444.702 269.254C444.864 269.283 445 269.277 445.112 269.238C445.223 269.2 445.309 269.13 445.363 269.026C445.417 268.921 445.436 268.781 445.42 268.603C445.404 268.447 445.359 268.282 445.286 268.107C445.213 267.933 445.093 267.752 444.934 267.567C444.772 267.383 444.562 267.202 444.308 267.024C444.054 266.846 443.736 266.671 443.364 266.509L443.205 264.87C443.834 265.146 444.384 265.451 444.848 265.788C445.312 266.125 445.706 266.468 446.023 266.827C446.341 267.186 446.595 267.545 446.78 267.907C446.967 268.269 447.097 268.619 447.177 268.953L448.737 269.639L448.826 270.541L447.256 269.852C447.243 270.173 447.167 270.433 447.031 270.643C446.894 270.849 446.703 270.992 446.452 271.072C446.205 271.151 445.9 271.164 445.544 271.11C445.188 271.056 444.775 270.929 444.314 270.725C443.806 270.503 443.358 270.249 442.973 269.966C442.589 269.683 442.246 269.372 441.944 269.032C441.642 268.692 441.369 268.327 441.124 267.93C440.88 267.532 440.638 267.107 440.397 266.649C440.247 266.366 440.108 266.122 439.974 265.918C439.841 265.712 439.704 265.534 439.561 265.385C439.418 265.235 439.266 265.105 439.104 264.997C438.942 264.889 438.764 264.794 438.57 264.708C438.376 264.622 438.195 264.562 438.033 264.527C437.868 264.492 437.728 264.486 437.614 264.511C437.499 264.536 437.41 264.594 437.35 264.686C437.29 264.778 437.27 264.908 437.286 265.08C437.318 265.394 437.499 265.712 437.83 266.039C438.16 266.363 438.64 266.665 439.272 266.941L439.431 268.581C438.907 268.349 438.427 268.092 437.995 267.806C437.563 267.52 437.182 267.215 436.854 266.894C436.527 266.573 436.254 266.236 436.031 265.887C435.809 265.537 435.653 265.184 435.558 264.832L433.849 264.082L433.76 263.173L435.447 263.914C435.46 263.593 435.539 263.335 435.685 263.135C435.831 262.935 436.028 262.798 436.282 262.722C436.537 262.646 436.842 262.636 437.201 262.69C437.56 262.744 437.96 262.872 438.408 263.069C438.923 263.294 439.374 263.548 439.758 263.831C440.143 264.114 440.486 264.425 440.784 264.762C441.083 265.099 441.353 265.467 441.598 265.864C441.839 266.262 442.074 266.687 442.306 267.142C442.436 267.405 442.567 267.637 442.697 267.837C442.827 268.038 442.964 268.215 443.11 268.368C443.256 268.52 443.415 268.657 443.587 268.775C443.758 268.892 443.955 268.997 444.174 269.092C444.365 269.172 444.543 269.226 444.702 269.254Z" fill="#98B9EA"/>
<path d="M286.046 278.095C286.147 277.882 286.271 277.685 286.417 277.507C286.525 277.377 286.646 277.253 286.776 277.142L287.32 276.592L287.463 276.697C290.243 275.337 295.984 276.78 301.791 280.57C308.81 285.151 313.315 291.461 312.015 294.813L312.212 294.959L311.431 295.737C311.393 295.775 311.354 295.817 311.316 295.852L311.294 295.874L311.288 295.877C311.091 296.058 310.865 296.214 310.611 296.347L310.608 296.351C307.863 297.79 302.061 296.357 296.19 292.525C289.042 287.855 284.501 281.396 286.046 278.095Z" fill="#88ADD8"/>
<path d="M302.626 279.731C295.478 275.064 288.428 273.955 286.88 277.256C285.333 280.557 289.877 287.019 297.028 291.686C304.177 296.354 311.227 297.462 312.774 294.161C314.318 290.86 309.775 284.401 302.626 279.731Z" fill="#AFCDFB"/>
<path d="M297.424 290.756C294.431 288.796 291.851 286.435 290.164 284.103C288.436 281.72 287.839 279.633 288.484 278.225C288.811 277.511 289.43 277.015 290.323 276.758C292.96 275.998 297.637 277.45 302.231 280.462C305.224 282.422 307.804 284.783 309.491 287.115C311.219 289.498 311.816 291.585 311.171 292.993C310.844 293.707 310.225 294.203 309.332 294.46C308.868 294.594 308.337 294.661 307.759 294.661C305.049 294.657 301.211 293.234 297.424 290.756ZM290.466 277.263C289.729 277.476 289.221 277.873 288.96 278.445C288.407 279.652 289.001 281.603 290.59 283.795C292.242 286.073 294.774 288.389 297.713 290.314C301.379 292.713 305.186 294.13 307.778 294.13C308.302 294.13 308.776 294.073 309.189 293.952C309.926 293.739 310.434 293.342 310.695 292.77C311.248 291.563 310.657 289.612 309.065 287.42C307.413 285.142 304.884 282.826 301.942 280.901C298.275 278.502 294.469 277.085 291.877 277.085C291.356 277.085 290.879 277.145 290.466 277.263Z" fill="#98B9EA"/>
<path d="M303.239 287.581C303.401 287.61 303.537 287.603 303.649 287.565C303.76 287.527 303.846 287.457 303.9 287.352C303.954 287.248 303.973 287.108 303.957 286.93C303.941 286.774 303.896 286.609 303.823 286.434C303.747 286.26 303.63 286.078 303.471 285.894C303.312 285.71 303.102 285.529 302.845 285.351C302.588 285.17 302.273 284.998 301.901 284.836L301.742 283.197C302.371 283.473 302.921 283.778 303.385 284.115C303.849 284.449 304.243 284.795 304.561 285.154C304.878 285.513 305.132 285.872 305.317 286.234C305.504 286.596 305.634 286.946 305.714 287.279L307.274 287.966L307.36 288.868L305.79 288.179C305.777 288.499 305.701 288.76 305.565 288.97C305.428 289.176 305.237 289.319 304.986 289.399C304.738 289.478 304.433 289.491 304.078 289.437C303.722 289.383 303.312 289.256 302.848 289.052C302.34 288.827 301.892 288.576 301.507 288.293C301.123 288.01 300.78 287.699 300.478 287.359C300.176 287.019 299.903 286.654 299.658 286.256C299.414 285.862 299.172 285.434 298.931 284.979C298.781 284.696 298.642 284.452 298.508 284.248C298.375 284.045 298.238 283.864 298.095 283.715C297.952 283.562 297.8 283.435 297.638 283.327C297.476 283.219 297.298 283.124 297.104 283.038C296.91 282.952 296.729 282.892 296.567 282.857C296.402 282.822 296.262 282.816 296.148 282.841C296.033 282.866 295.944 282.924 295.887 283.016C295.827 283.108 295.808 283.238 295.823 283.41C295.855 283.724 296.033 284.042 296.367 284.369C296.7 284.696 297.177 284.995 297.809 285.271L297.968 286.911C297.444 286.679 296.964 286.422 296.532 286.136C296.1 285.85 295.719 285.545 295.391 285.224C295.064 284.903 294.791 284.566 294.568 284.217C294.349 283.867 294.19 283.515 294.095 283.162L292.386 282.412L292.297 281.503L293.984 282.244C293.997 281.923 294.076 281.665 294.222 281.465C294.365 281.265 294.565 281.129 294.819 281.052C295.074 280.976 295.379 280.967 295.738 281.021C296.097 281.075 296.497 281.202 296.945 281.399C297.46 281.624 297.911 281.878 298.295 282.161C298.68 282.444 299.023 282.755 299.321 283.092C299.62 283.429 299.89 283.797 300.135 284.194C300.376 284.592 300.615 285.017 300.843 285.472C300.974 285.735 301.104 285.967 301.234 286.167C301.364 286.368 301.501 286.545 301.647 286.701C301.793 286.857 301.952 286.99 302.124 287.108C302.295 287.225 302.492 287.33 302.711 287.426C302.902 287.499 303.077 287.553 303.239 287.581Z" fill="#98B9EA"/>
<path d="M430.52 386.61C430.625 386.385 430.755 386.178 430.911 385.991C431.025 385.851 431.152 385.724 431.289 385.606L431.86 385.025L432.01 385.136C434.936 383.703 440.982 385.222 447.098 389.216C454.488 394.042 459.234 400.685 457.865 404.218L458.075 404.37L457.252 405.19C457.214 405.231 457.173 405.273 457.131 405.311L457.109 405.333L457.103 405.339C456.893 405.53 456.658 405.695 456.391 405.835L456.388 405.838C453.497 407.354 447.387 405.845 441.204 401.81C433.675 396.891 428.89 390.086 430.52 386.61Z" fill="#88ADD8"/>
<path d="M447.981 388.335C440.451 383.42 433.026 382.254 431.4 385.73C429.773 389.206 434.555 396.011 442.084 400.926C449.614 405.841 457.039 407.007 458.666 403.531C460.292 400.056 455.511 393.25 447.981 388.335Z" fill="#AFCDFB"/>
<path d="M442.5 399.941C439.349 397.875 436.632 395.388 434.853 392.935C433.033 390.425 432.403 388.227 433.083 386.746C433.43 385.993 434.081 385.472 435.021 385.202C437.801 384.401 442.723 385.933 447.565 389.103C450.716 391.169 453.433 393.656 455.212 396.109C457.032 398.619 457.662 400.818 456.982 402.298C456.635 403.054 455.984 403.572 455.047 403.842C454.557 403.982 454.001 404.052 453.388 404.052C450.532 404.052 446.488 402.552 442.5 399.941ZM435.174 385.733C434.396 385.958 433.862 386.374 433.585 386.978C433.001 388.252 433.627 390.304 435.301 392.614C437.042 395.013 439.708 397.453 442.802 399.48C446.662 402.009 450.672 403.499 453.404 403.499C453.957 403.499 454.456 403.439 454.891 403.312C455.669 403.086 456.203 402.67 456.48 402.066C457.064 400.795 456.438 398.74 454.764 396.43C453.023 394.031 450.357 391.591 447.263 389.564C443.403 387.035 439.393 385.545 436.661 385.545C436.108 385.548 435.609 385.609 435.174 385.733Z" fill="#98B9EA"/>
<path d="M448.626 396.603C448.795 396.631 448.941 396.625 449.058 396.587C449.176 396.546 449.265 396.473 449.322 396.361C449.379 396.25 449.401 396.104 449.382 395.917C449.366 395.755 449.319 395.58 449.239 395.392C449.16 395.208 449.036 395.017 448.868 394.824C448.699 394.63 448.477 394.439 448.207 394.252C447.937 394.064 447.606 393.883 447.212 393.709L447.044 391.98C447.708 392.272 448.286 392.593 448.775 392.946C449.265 393.299 449.678 393.664 450.015 394.039C450.351 394.417 450.615 394.795 450.812 395.176C451.009 395.558 451.146 395.926 451.228 396.279L452.871 397L452.963 397.95L451.311 397.226C451.295 397.562 451.216 397.839 451.073 398.058C450.93 398.274 450.726 398.427 450.466 398.509C450.205 398.592 449.884 398.604 449.509 398.55C449.135 398.496 448.702 398.36 448.213 398.144C447.676 397.909 447.206 397.642 446.799 397.343C446.396 397.045 446.034 396.717 445.716 396.361C445.398 396.006 445.109 395.618 444.852 395.202C444.594 394.786 444.34 394.338 444.086 393.855C443.93 393.556 443.781 393.299 443.641 393.086C443.502 392.87 443.355 392.682 443.206 392.523C443.057 392.365 442.895 392.228 442.726 392.114C442.558 391.999 442.37 391.901 442.164 391.809C441.957 391.716 441.77 391.656 441.595 391.618C441.424 391.58 441.274 391.574 441.154 391.602C441.033 391.628 440.941 391.691 440.877 391.786C440.814 391.882 440.791 392.021 440.81 392.199C440.842 392.53 441.033 392.867 441.382 393.21C441.732 393.553 442.237 393.867 442.901 394.16L443.069 395.888C442.517 395.647 442.011 395.373 441.557 395.072C441.103 394.77 440.699 394.449 440.356 394.112C440.01 393.772 439.721 393.419 439.492 393.051C439.26 392.682 439.095 392.311 438.993 391.939L437.192 391.148L437.1 390.191L438.876 390.973C438.892 390.636 438.974 390.363 439.127 390.153C439.279 389.944 439.489 389.798 439.756 389.718C440.023 389.639 440.347 389.626 440.722 389.686C441.096 389.743 441.522 389.877 441.992 390.083C442.536 390.322 443.009 390.589 443.413 390.887C443.816 391.186 444.178 391.513 444.493 391.869C444.807 392.225 445.093 392.612 445.347 393.029C445.602 393.445 445.853 393.896 446.094 394.376C446.231 394.655 446.37 394.9 446.507 395.11C446.644 395.319 446.79 395.507 446.942 395.669C447.095 395.831 447.263 395.974 447.444 396.095C447.625 396.215 447.832 396.326 448.064 396.431C448.27 396.514 448.458 396.574 448.626 396.603Z" fill="#98B9EA"/>
<path d="M337.27 418.486C337.416 418.175 337.597 417.892 337.807 417.635L337.81 417.632C337.966 417.441 338.141 417.263 338.331 417.101L339.119 416.303L339.326 416.456C343.361 414.48 351.691 416.574 360.12 422.076C370.306 428.726 376.847 437.882 374.96 442.75L375.249 442.963L374.115 444.09C374.061 444.148 374.004 444.202 373.947 444.259L373.915 444.291L373.905 444.297C373.619 444.561 373.292 444.786 372.927 444.98L372.92 444.983C368.936 447.071 360.517 444.993 351.996 439.43C341.62 432.653 335.027 423.277 337.27 418.486Z" fill="#88ADD8"/>
<path d="M361.334 420.863C350.957 414.089 340.724 412.482 338.481 417.273C336.238 422.064 342.83 431.443 353.207 438.216C363.583 444.99 373.817 446.597 376.06 441.806C378.306 437.015 371.71 427.64 361.334 420.863Z" fill="#AFCDFB"/>
<path d="M353.782 436.859C349.439 434.016 345.696 430.588 343.244 427.204C340.734 423.744 339.866 420.713 340.804 418.673C341.28 417.634 342.179 416.916 343.472 416.545C347.301 415.442 354.087 417.552 360.759 421.92C365.102 424.764 368.845 428.192 371.297 431.576C373.807 435.035 374.675 438.066 373.737 440.106C373.261 441.145 372.362 441.863 371.069 442.235C370.392 442.429 369.626 442.524 368.784 442.524C364.851 442.524 359.278 440.459 353.782 436.859ZM343.685 417.279C342.614 417.587 341.877 418.165 341.496 418.994C340.692 420.748 341.553 423.579 343.86 426.759C346.259 430.066 349.931 433.428 354.198 436.224C359.517 439.706 365.045 441.761 368.807 441.761C369.566 441.761 370.255 441.679 370.856 441.504C371.927 441.196 372.664 440.618 373.045 439.788C373.849 438.035 372.988 435.204 370.681 432.024C368.282 428.716 364.61 425.355 360.343 422.559C355.024 419.077 349.496 417.021 345.734 417.021C344.972 417.021 344.286 417.107 343.685 417.279Z" fill="#98B9EA"/>
<path d="M362.227 432.256C362.462 432.297 362.659 432.288 362.821 432.234C362.983 432.18 363.107 432.075 363.187 431.926C363.266 431.773 363.295 431.57 363.269 431.312C363.247 431.087 363.183 430.849 363.072 430.591C362.964 430.337 362.793 430.077 362.558 429.81C362.322 429.543 362.021 429.279 361.649 429.019C361.277 428.758 360.82 428.507 360.28 428.272L360.048 425.892C360.963 426.296 361.757 426.737 362.434 427.223C363.11 427.71 363.679 428.212 364.14 428.729C364.604 429.247 364.969 429.772 365.239 430.296C365.509 430.823 365.7 431.328 365.814 431.814L368.079 432.809L368.206 434.118L365.928 433.117C365.906 433.581 365.798 433.962 365.601 434.264C365.404 434.563 365.125 434.772 364.762 434.887C364.4 435.001 363.962 435.02 363.444 434.941C362.926 434.861 362.332 434.677 361.658 434.382C360.918 434.057 360.27 433.689 359.711 433.279C359.152 432.869 358.653 432.418 358.214 431.926C357.776 431.433 357.379 430.899 357.023 430.328C356.667 429.752 356.318 429.136 355.968 428.472C355.752 428.062 355.549 427.71 355.355 427.411C355.161 427.112 354.961 426.855 354.755 426.636C354.548 426.416 354.326 426.229 354.091 426.073C353.855 425.918 353.598 425.778 353.315 425.654C353.033 425.53 352.772 425.441 352.534 425.39C352.295 425.336 352.092 425.33 351.924 425.365C351.755 425.403 351.628 425.486 351.543 425.619C351.457 425.752 351.425 425.943 351.45 426.191C351.495 426.645 351.755 427.109 352.238 427.582C352.718 428.053 353.417 428.491 354.332 428.891L354.564 431.271C353.801 430.938 353.106 430.559 352.477 430.146C351.847 429.73 351.298 429.289 350.821 428.825C350.345 428.358 349.948 427.872 349.627 427.363C349.309 426.855 349.08 426.343 348.94 425.832L346.459 424.742L346.332 423.424L348.782 424.501C348.801 424.037 348.918 423.659 349.128 423.37C349.338 423.081 349.627 422.88 349.995 422.769C350.364 422.658 350.809 422.642 351.326 422.722C351.844 422.801 352.429 422.985 353.077 423.271C353.824 423.598 354.478 423.97 355.034 424.38C355.593 424.79 356.089 425.241 356.524 425.733C356.959 426.223 357.35 426.756 357.703 427.331C358.056 427.907 358.399 428.526 358.732 429.187C358.923 429.571 359.114 429.908 359.301 430.197C359.488 430.49 359.689 430.747 359.901 430.969C360.114 431.192 360.343 431.389 360.594 431.557C360.845 431.725 361.128 431.878 361.449 432.021C361.735 432.135 361.992 432.215 362.227 432.256Z" fill="#98B9EA"/>
<path d="M447.66 363.867C447.825 363.515 448.029 363.194 448.267 362.902L448.27 362.898C448.448 362.682 448.645 362.482 448.861 362.301L449.754 361.399L449.989 361.57C454.551 359.337 463.974 361.704 473.506 367.928C485.026 375.448 492.422 385.805 490.287 391.308L490.611 391.546L489.331 392.824C489.271 392.887 489.207 392.951 489.14 393.011L489.102 393.046L489.09 393.052C488.765 393.351 488.394 393.605 487.981 393.824L487.974 393.828C483.469 396.188 473.947 393.837 464.311 387.546C452.578 379.89 445.121 369.284 447.66 363.867Z" fill="#88ADD8"/>
<path d="M474.875 366.555C463.139 358.892 451.568 357.075 449.029 362.495C446.491 367.915 453.947 378.517 465.684 386.18C477.42 393.843 488.991 395.661 491.529 390.24C494.065 384.823 486.611 374.218 474.875 366.555Z" fill="#AFCDFB"/>
<path d="M466.337 384.646C461.425 381.427 457.194 377.551 454.42 373.729C451.583 369.815 450.601 366.39 451.659 364.083C452.199 362.908 453.213 362.098 454.677 361.675C459.008 360.426 466.68 362.812 474.226 367.753C479.138 370.971 483.37 374.847 486.143 378.669C488.981 382.584 489.962 386.009 488.904 388.315C488.364 389.491 487.351 390.301 485.886 390.723C485.124 390.943 484.256 391.051 483.303 391.051C478.855 391.054 472.552 388.715 466.337 384.646ZM454.916 362.501C453.705 362.851 452.873 363.502 452.441 364.439C451.532 366.422 452.507 369.624 455.116 373.221C457.829 376.96 461.981 380.763 466.807 383.924C472.825 387.864 479.074 390.186 483.328 390.186C484.189 390.186 484.968 390.091 485.645 389.897C486.855 389.548 487.687 388.897 488.12 387.959C489.028 385.977 488.053 382.774 485.444 379.178C482.731 375.438 478.579 371.635 473.753 368.474C467.735 364.534 461.486 362.212 457.232 362.212C456.374 362.212 455.595 362.307 454.916 362.501Z" fill="#98B9EA"/>
<path d="M256.754 320.561C256.919 320.208 257.122 319.887 257.361 319.595L257.364 319.592C257.542 319.376 257.739 319.175 257.955 318.994L258.847 318.092L259.083 318.264C263.645 316.03 273.068 318.397 282.6 324.621C294.12 332.141 301.516 342.499 299.381 348.001L299.705 348.24L298.425 349.517C298.364 349.58 298.301 349.644 298.234 349.704L298.199 349.739L298.186 349.746C297.862 350.044 297.491 350.299 297.078 350.518L297.071 350.521C292.566 352.882 283.044 350.53 273.408 344.24C261.672 336.583 254.215 325.978 256.754 320.561Z" fill="#88ADD8"/>
<path d="M283.965 323.248C272.229 315.585 260.657 313.768 258.119 319.188C255.58 324.608 263.037 335.21 274.773 342.873C286.51 350.537 298.081 352.354 300.619 346.934C303.158 341.517 295.701 330.912 283.965 323.248Z" fill="#AFCDFB"/>
<path d="M275.429 341.339C270.517 338.121 266.285 334.244 263.512 330.422C260.675 326.508 259.693 323.083 260.751 320.777C261.291 319.601 262.304 318.791 263.769 318.368C268.099 317.12 275.772 319.506 283.318 324.446C288.23 327.665 292.462 331.541 295.235 335.363C298.072 339.277 299.054 342.702 297.996 345.008C297.456 346.184 296.442 346.994 294.978 347.417C294.215 347.636 293.348 347.744 292.395 347.744C287.944 347.747 281.643 345.409 275.429 341.339ZM264.007 319.194C262.797 319.544 261.964 320.195 261.532 321.133C260.624 323.115 261.599 326.318 264.207 329.914C266.921 333.653 271.073 337.457 275.899 340.618C281.917 344.557 288.166 346.88 292.42 346.88C293.281 346.88 294.06 346.784 294.736 346.591C295.947 346.241 296.779 345.59 297.211 344.653C298.12 342.67 297.148 339.468 294.536 335.871C291.823 332.132 287.67 328.329 282.844 325.167C276.827 321.228 270.578 318.905 266.323 318.905C265.462 318.905 264.684 319.001 264.007 319.194Z" fill="#98B9EA"/>
<path d="M314.134 415.302C314.02 415.058 313.877 414.835 313.711 414.632L313.708 414.629C313.584 414.48 313.448 414.34 313.298 414.213L312.679 413.584L312.517 413.704C309.346 412.151 302.795 413.796 296.167 418.124C288.158 423.353 283.017 430.553 284.498 434.381L284.272 434.549L285.162 435.436C285.203 435.48 285.248 435.525 285.292 435.566L285.318 435.591L285.324 435.598C285.55 435.804 285.807 435.982 286.093 436.135L286.096 436.138C289.229 437.78 295.85 436.144 302.55 431.773C310.715 426.445 315.901 419.07 314.134 415.302Z" fill="#88ADD8"/>
<path d="M295.216 417.174C303.374 411.846 311.419 410.581 313.182 414.349C314.946 418.118 309.764 425.488 301.605 430.816C293.446 436.144 285.402 437.409 283.638 433.641C281.872 429.873 287.057 422.499 295.216 417.174Z" fill="#AFCDFB"/>
<path d="M289.357 434.204C288.696 434.204 288.092 434.131 287.562 433.975C286.545 433.683 285.84 433.117 285.465 432.301C284.728 430.696 285.411 428.313 287.384 425.594C289.312 422.935 292.255 420.24 295.67 418.004C300.915 414.569 306.25 412.911 309.262 413.778C310.278 414.07 310.984 414.636 311.358 415.452C312.096 417.057 311.412 419.44 309.44 422.159C307.511 424.819 304.569 427.513 301.154 429.749C296.833 432.58 292.448 434.204 289.357 434.204ZM307.482 414.153C304.525 414.153 300.178 415.767 295.997 418.506C292.642 420.704 289.754 423.344 287.867 425.946C286.053 428.447 285.376 430.674 286.008 432.053C286.307 432.704 286.885 433.159 287.727 433.4C288.197 433.537 288.741 433.6 289.338 433.6C292.296 433.6 296.642 431.986 300.823 429.247C304.178 427.049 307.066 424.406 308.953 421.807C310.768 419.306 311.444 417.079 310.812 415.7C310.513 415.049 309.935 414.595 309.093 414.353C308.62 414.22 308.08 414.153 307.482 414.153Z" fill="#98B9EA"/>
<path d="M295.123 425.936C295.374 425.825 295.599 425.704 295.796 425.574C295.993 425.444 296.175 425.288 296.34 425.11C296.505 424.932 296.664 424.732 296.813 424.504C296.962 424.275 297.112 424.011 297.261 423.709C297.525 423.188 297.795 422.702 298.071 422.251C298.348 421.8 298.656 421.38 298.999 420.993C299.342 420.608 299.73 420.253 300.171 419.928C300.61 419.604 301.124 419.315 301.712 419.058C302.221 418.836 302.681 418.689 303.088 418.626C303.495 418.562 303.844 418.575 304.136 418.661C304.426 418.75 304.654 418.905 304.819 419.134C304.985 419.363 305.074 419.658 305.09 420.024L307.015 419.179L306.913 420.214L304.962 421.072C304.854 421.476 304.673 421.876 304.422 422.276C304.171 422.677 303.857 423.058 303.485 423.426C303.11 423.795 302.678 424.141 302.182 424.465C301.69 424.793 301.14 425.088 300.543 425.352L300.724 423.48C301.442 423.163 301.992 422.82 302.37 422.451C302.748 422.079 302.954 421.717 302.989 421.358C303.008 421.164 302.983 421.015 302.916 420.91C302.85 420.805 302.748 420.739 302.618 420.71C302.484 420.681 302.325 420.688 302.138 420.729C301.951 420.77 301.744 420.84 301.525 420.936C301.306 421.031 301.099 421.142 300.915 421.266C300.731 421.387 300.556 421.536 300.394 421.708C300.232 421.879 300.073 422.086 299.92 422.318C299.768 422.553 299.609 422.829 299.437 423.153C299.164 423.674 298.888 424.16 298.608 424.612C298.329 425.063 298.017 425.482 297.674 425.87C297.328 426.257 296.937 426.613 296.499 426.934C296.06 427.258 295.549 427.547 294.967 427.801C294.44 428.033 293.973 428.179 293.563 428.24C293.156 428.3 292.81 428.287 292.524 428.195C292.241 428.106 292.019 427.941 291.866 427.706C291.714 427.471 291.625 427.169 291.609 426.804L289.82 427.589L289.919 426.559L291.701 425.778C291.79 425.396 291.939 424.996 292.152 424.583C292.365 424.17 292.654 423.757 293.017 423.35C293.382 422.944 293.827 422.546 294.357 422.165C294.888 421.784 295.514 421.434 296.232 421.117L296.051 422.988C295.625 423.176 295.266 423.372 294.974 423.576C294.681 423.779 294.443 423.989 294.259 424.199C294.074 424.408 293.941 424.612 293.855 424.812C293.769 425.012 293.719 425.203 293.703 425.377C293.684 425.581 293.706 425.743 293.766 425.86C293.83 425.978 293.925 426.06 294.052 426.102C294.179 426.146 294.335 426.149 294.519 426.121C294.697 426.098 294.901 426.035 295.123 425.936Z" fill="#98B9EA"/>
<path d="M420.76 266.172V405.377L415.998 403.147L410.628 405.377L408.443 403.271L401.755 405.377L397.224 404.043L389.266 405.377L381.901 404.043L373.485 405.377L367.877 403.271L360.109 405.377L353.85 404.043L346.73 405.377L339.175 404.043L334.216 405.377L328.818 404.043L322.73 405.377V266.172H420.76Z" fill="white"/>
<path d="M403.277 286.556H337.73C337.107 286.556 336.596 286.044 336.596 285.421C336.596 284.799 337.107 284.287 337.73 284.287H403.277C403.9 284.287 404.411 284.799 404.411 285.421C404.411 286.044 403.903 286.556 403.277 286.556Z" fill="#699FF0"/>
<path d="M403.277 296.116H337.73C337.107 296.116 336.596 295.605 336.596 294.982C336.596 294.359 337.107 293.848 337.73 293.848H403.277C403.9 293.848 404.411 294.359 404.411 294.982C404.411 295.608 403.903 296.116 403.277 296.116Z" fill="#699FF0"/>
<path d="M390.019 305.679H350.991C350.508 305.679 350.111 305.281 350.111 304.799V304.29C350.111 303.807 350.508 303.41 350.991 303.41H390.019C390.502 303.41 390.899 303.807 390.899 304.29V304.799C390.899 305.285 390.502 305.679 390.019 305.679Z" fill="#699FF0"/>
<path d="M390.019 315.241H350.991C350.508 315.241 350.111 314.844 350.111 314.361V313.853C350.111 313.37 350.508 312.973 350.991 312.973H390.019C390.502 312.973 390.899 313.37 390.899 313.853V314.361C390.899 314.844 390.502 315.241 390.019 315.241Z" fill="#699FF0"/>
<path d="M390.019 324.806H350.991C350.508 324.806 350.111 324.408 350.111 323.926V323.417C350.111 322.934 350.508 322.537 350.991 322.537H390.019C390.502 322.537 390.899 322.934 390.899 323.417V323.926C390.899 324.408 390.502 324.806 390.019 324.806Z" fill="#699FF0"/>
<path d="M370.571 381.727C359.362 381.727 350.244 372.608 350.244 361.399C350.244 350.191 359.362 341.072 370.571 341.072C381.78 341.072 390.898 350.191 390.898 361.399C390.898 372.608 381.78 381.727 370.571 381.727ZM370.571 342.705C360.265 342.705 351.877 351.09 351.877 361.399C351.877 371.706 360.262 380.094 370.571 380.094C380.878 380.094 389.265 371.709 389.265 361.399C389.265 351.093 380.878 342.705 370.571 342.705Z" fill="#699FF0"/>
<path d="M358.748 356.657L370.955 372.542L380.575 348.99L369.128 361.19L358.748 356.657Z" fill="#F99746"/>
<path d="M615.979 239.491C622.366 239.491 627.543 234.313 627.543 227.926C627.543 221.539 622.366 216.361 615.979 216.361C609.592 216.361 604.414 221.539 604.414 227.926C604.414 234.313 609.592 239.491 615.979 239.491Z" fill="white"/>
<path d="M617.349 230.677C617.352 230.442 617.324 230.232 617.257 230.051C617.194 229.87 617.085 229.705 616.936 229.555C616.787 229.406 616.593 229.269 616.355 229.142C616.116 229.015 615.827 228.888 615.481 228.768C614.89 228.551 614.353 228.323 613.87 228.088C613.387 227.853 612.977 227.582 612.634 227.281C612.294 226.976 612.031 226.623 611.843 226.223C611.659 225.819 611.57 225.343 611.576 224.79C611.583 224.31 611.675 223.875 611.85 223.484C612.024 223.093 612.272 222.753 612.593 222.464C612.914 222.175 613.295 221.943 613.737 221.765C614.178 221.587 614.674 221.479 615.221 221.435L615.246 219.627L616.701 219.649L616.676 221.482C617.197 221.559 617.667 221.702 618.089 221.918C618.512 222.134 618.868 222.407 619.16 222.744C619.452 223.08 619.675 223.478 619.831 223.932C619.983 224.389 620.056 224.898 620.05 225.46L617.419 225.422C617.429 224.745 617.286 224.237 616.99 223.897C616.695 223.557 616.294 223.385 615.792 223.376C615.519 223.373 615.284 223.408 615.087 223.481C614.89 223.554 614.725 223.656 614.595 223.786C614.464 223.916 614.369 224.072 614.306 224.25C614.242 224.431 614.21 224.625 614.207 224.831C614.204 225.041 614.232 225.228 614.29 225.4C614.347 225.571 614.449 225.727 614.598 225.873C614.744 226.019 614.941 226.156 615.182 226.286C615.427 226.416 615.729 226.553 616.091 226.693C616.676 226.922 617.209 227.154 617.686 227.392C618.166 227.63 618.576 227.903 618.915 228.208C619.255 228.513 619.519 228.869 619.707 229.273C619.891 229.676 619.98 230.15 619.974 230.696C619.967 231.192 619.875 231.636 619.694 232.027C619.516 232.418 619.265 232.758 618.947 233.041C618.626 233.323 618.245 233.549 617.794 233.717C617.346 233.886 616.847 233.991 616.301 234.035L616.275 235.716L614.83 235.694L614.855 234.019C614.353 233.962 613.867 233.845 613.4 233.67C612.933 233.495 612.52 233.244 612.161 232.92C611.802 232.596 611.516 232.189 611.306 231.703C611.097 231.217 610.995 230.632 611.005 229.959L613.635 229.997C613.629 230.397 613.68 230.731 613.788 231.001C613.896 231.271 614.042 231.487 614.229 231.649C614.414 231.811 614.626 231.929 614.865 231.995C615.103 232.065 615.348 232.1 615.595 232.103C615.881 232.107 616.132 232.075 616.348 232.005C616.564 231.935 616.746 231.837 616.895 231.71C617.041 231.582 617.152 231.43 617.228 231.255C617.308 231.077 617.346 230.887 617.349 230.677Z" fill="#AFCDFB"/>
<path d="M649.58 195.508C658.825 195.508 666.32 188.013 666.32 178.768C666.32 169.522 658.825 162.027 649.58 162.027C640.335 162.027 632.84 169.522 632.84 178.768C632.84 188.013 640.335 195.508 649.58 195.508Z" fill="white"/>
<path d="M651.562 182.748C651.569 182.405 651.524 182.103 651.432 181.839C651.34 181.576 651.184 181.337 650.968 181.124C650.752 180.908 650.472 180.708 650.126 180.524C649.783 180.34 649.36 180.159 648.862 179.981C648.007 179.666 647.229 179.339 646.533 178.999C645.834 178.659 645.24 178.268 644.744 177.83C644.249 177.391 643.87 176.88 643.6 176.295C643.333 175.714 643.203 175.021 643.216 174.221C643.225 173.528 643.359 172.899 643.613 172.33C643.867 171.765 644.226 171.272 644.687 170.853C645.151 170.437 645.7 170.1 646.342 169.843C646.984 169.588 647.699 169.426 648.49 169.366L648.528 166.748L650.635 166.78L650.596 169.433C651.349 169.541 652.032 169.75 652.642 170.062C653.252 170.373 653.77 170.77 654.193 171.26C654.615 171.749 654.94 172.321 655.162 172.982C655.384 173.642 655.489 174.379 655.48 175.193L651.673 175.139C651.686 174.16 651.48 173.426 651.054 172.934C650.625 172.441 650.047 172.19 649.319 172.181C648.925 172.175 648.582 172.225 648.296 172.33C648.01 172.435 647.772 172.584 647.584 172.772C647.397 172.962 647.257 173.185 647.165 173.445C647.073 173.706 647.025 173.986 647.022 174.287C647.019 174.589 647.057 174.862 647.143 175.107C647.225 175.352 647.375 175.58 647.588 175.793C647.801 176.003 648.083 176.203 648.436 176.394C648.789 176.581 649.227 176.778 649.751 176.982C650.6 177.312 651.368 177.649 652.061 177.995C652.754 178.338 653.348 178.735 653.84 179.177C654.333 179.622 654.714 180.133 654.984 180.718C655.251 181.302 655.381 181.989 655.368 182.78C655.359 183.498 655.222 184.14 654.965 184.705C654.708 185.274 654.345 185.76 653.885 186.17C653.421 186.58 652.868 186.907 652.217 187.148C651.569 187.393 650.847 187.545 650.056 187.606L650.021 190.039L647.928 190.008L647.963 187.587C647.235 187.504 646.533 187.333 645.856 187.078C645.179 186.824 644.582 186.462 644.061 185.995C643.54 185.528 643.127 184.94 642.822 184.235C642.517 183.53 642.371 182.688 642.384 181.709L646.19 181.763C646.18 182.341 646.256 182.827 646.412 183.215C646.568 183.606 646.781 183.917 647.051 184.155C647.318 184.391 647.626 184.559 647.972 184.657C648.318 184.756 648.671 184.807 649.03 184.813C649.443 184.819 649.805 184.772 650.12 184.67C650.434 184.568 650.695 184.426 650.911 184.241C651.124 184.057 651.286 183.838 651.394 183.58C651.502 183.323 651.559 183.05 651.562 182.748Z" fill="#AFCDFB"/>
<path d="M627.543 139.596C644.732 139.596 658.666 125.661 658.666 108.473C658.666 91.2839 644.732 77.3496 627.543 77.3496C610.354 77.3496 596.42 91.2839 596.42 108.473C596.42 125.661 610.354 139.596 627.543 139.596Z" fill="white"/>
<path d="M631.232 115.876C631.242 115.24 631.159 114.678 630.988 114.189C630.816 113.699 630.527 113.258 630.127 112.857C629.723 112.457 629.202 112.085 628.564 111.742C627.925 111.399 627.14 111.062 626.216 110.732C624.624 110.147 623.182 109.537 621.885 108.905C620.589 108.273 619.48 107.548 618.562 106.729C617.644 105.912 616.935 104.962 616.437 103.879C615.938 102.796 615.699 101.509 615.722 100.025C615.741 98.7352 615.985 97.566 616.459 96.5112C616.932 95.4564 617.596 94.5414 618.457 93.7662C619.318 92.991 620.341 92.3651 621.533 91.8885C622.724 91.412 624.055 91.1165 625.523 91.0021L625.593 86.1348L629.51 86.192L629.437 91.126C630.838 91.3293 632.106 91.7201 633.24 92.2952C634.375 92.8734 635.334 93.6137 636.122 94.5192C636.907 95.4246 637.51 96.4922 637.923 97.7185C638.336 98.9449 638.533 100.317 638.511 101.833L631.436 101.731C631.461 99.9107 631.077 98.5446 630.282 97.6327C629.488 96.7209 628.414 96.2507 627.058 96.2316C626.324 96.2221 625.688 96.3142 625.155 96.5112C624.621 96.7082 624.179 96.9814 623.833 97.3341C623.487 97.6868 623.226 98.103 623.055 98.5859C622.883 99.0688 622.794 99.5898 622.788 100.152C622.778 100.715 622.854 101.223 623.01 101.68C623.166 102.138 623.442 102.564 623.836 102.954C624.23 103.345 624.754 103.717 625.412 104.07C626.07 104.419 626.883 104.784 627.858 105.162C629.431 105.776 630.864 106.405 632.154 107.043C633.441 107.685 634.546 108.416 635.464 109.242C636.383 110.068 637.091 111.021 637.59 112.104C638.089 113.188 638.327 114.465 638.305 115.936C638.286 117.27 638.035 118.465 637.555 119.52C637.075 120.575 636.405 121.483 635.544 122.243C634.683 123.005 633.65 123.612 632.443 124.063C631.236 124.514 629.898 124.8 628.427 124.915L628.36 129.439L624.468 129.382L624.535 124.88C623.182 124.724 621.876 124.409 620.618 123.936C619.36 123.463 618.248 122.792 617.279 121.919C616.313 121.048 615.544 119.955 614.975 118.643C614.406 117.331 614.136 115.765 614.162 113.947L621.237 114.049C621.221 115.126 621.358 116.025 621.65 116.749C621.943 117.474 622.337 118.055 622.835 118.497C623.334 118.938 623.906 119.247 624.548 119.431C625.19 119.615 625.844 119.71 626.514 119.72C627.28 119.733 627.957 119.644 628.538 119.453C629.12 119.266 629.609 118.999 630.006 118.656C630.403 118.313 630.702 117.903 630.905 117.429C631.118 116.956 631.226 116.438 631.232 115.876Z" fill="#AFCDFB"/>
<path d="M727.049 344.748C727.049 344.748 733.267 348.881 734.22 350.626C735.173 352.37 737.387 358.785 737.387 358.785C737.387 358.785 735.802 359.023 734.22 356.249C732.638 353.476 727.408 353.714 725.664 352.208C723.92 350.702 721.893 346.292 721.893 346.292L727.049 344.748Z" fill="#FFB27D"/>
<path d="M722.57 347.658C722.57 347.658 723.603 352.526 724.871 353.952C726.138 355.379 727.879 357.755 728.594 357.12C729.306 356.487 727.803 351.178 727.803 351.178L722.57 347.658Z" fill="#FFB27D"/>
<path d="M733.348 351.18C733.507 351.418 738.971 357.226 738.971 357.226C738.971 357.226 736.992 358.122 736.436 357.226C735.883 356.33 733.348 351.18 733.348 351.18Z" fill="#FFB27D"/>
</svg>
