<svg width="461" height="360" viewBox="0 0 461 360" fill="none" xmlns="http://www.w3.org/2000/svg">
<path d="M259.45 282.777C370.222 261.234 449.407 189.2 436.316 121.885C423.225 54.5704 322.814 17.4645 212.042 39.0072C101.271 60.5499 22.0853 132.583 35.1766 199.898C48.2679 267.213 148.679 304.319 259.45 282.777Z" fill="#F9F9FF"/>
<path d="M43.2678 359.017C43.2678 359.017 403.674 359.272 407.727 359.272C409.966 359.272 475.75 280.677 439.159 172.011C438.082 168.78 436.665 165.776 435.248 162.857C434.568 161.468 433.887 160.079 433.15 158.747C430.996 154.751 428.701 150.981 426.32 147.495C425.129 145.766 423.911 144.094 422.692 142.478C387.122 95.9111 331.287 96.8748 311.588 107.021C289.821 118.245 275.82 91.8581 243.764 91.4896C241.44 91.4613 239.229 91.518 237.075 91.6314C236.509 91.6597 235.942 91.7164 235.403 91.7447C190.026 95.2592 185.35 131.538 148.476 128.279C109.448 124.821 73.9347 100.474 31.9591 150.981C-46.0401 244.852 43.2678 359.017 43.2678 359.017Z" fill="#E9E9E9"/>
<path d="M20.5933 359.641H431.676C431.988 359.641 432.243 359.386 432.243 359.074V358.592C432.243 358.28 431.988 358.025 431.676 358.025H20.5933C20.2815 358.025 20.0264 358.28 20.0264 358.592V359.074C20.0264 359.386 20.2815 359.641 20.5933 359.641Z" fill="#151F2C"/>
<path d="M111.497 222.489L215.585 160.175C221.326 156.738 228.491 156.738 234.23 160.175L338.318 222.489V324.052L111.499 312.68V222.489H111.497Z" fill="#ED7D2B"/>
<path d="M318.793 177.49H131.021V339.762H318.793V177.49Z" fill="#E6EFFD"/>
<path d="M138.683 186.501C139.749 186.501 140.613 185.637 140.613 184.571C140.613 183.505 139.749 182.641 138.683 182.641C137.617 182.641 136.753 183.505 136.753 184.571C136.753 185.637 137.617 186.501 138.683 186.501Z" fill="#EFCBAB"/>
<path d="M311.015 186.501C312.081 186.501 312.945 185.637 312.945 184.571C312.945 183.505 312.081 182.641 311.015 182.641C309.949 182.641 309.085 183.505 309.085 184.571C309.085 185.637 309.949 186.501 311.015 186.501Z" fill="#EFCBAB"/>
<path d="M311.014 184.361H138.682V184.781H311.014V184.361Z" fill="#EFCBAB"/>
<path d="M138.895 183.803H138.476V356.135H138.895V183.803Z" fill="#EFCBAB"/>
<path d="M311.292 183.803H310.872V356.135H311.292V183.803Z" fill="#EFCBAB"/>
<path d="M338.319 222.211V358.001H111.498V222.211L224.907 290.107L338.319 222.211Z" fill="#FF9843"/>
<path d="M111.498 358.001L215.387 283.52C221.078 279.439 228.736 279.439 234.428 283.52L338.317 358.001H111.498Z" fill="#ED7D2B"/>
<path d="M259.529 199.971H191.068C190.073 199.971 189.26 199.157 189.26 198.163C189.26 197.169 190.073 196.355 191.068 196.355H259.529C260.523 196.355 261.337 197.169 261.337 198.163C261.337 199.157 260.523 199.971 259.529 199.971Z" fill="#EFCBAB"/>
<path d="M277.164 207.223H173.432C172.438 207.223 171.624 206.409 171.624 205.415C171.624 204.421 172.438 203.607 173.432 203.607H277.164C278.158 203.607 278.972 204.421 278.972 205.415C278.972 206.409 278.158 207.223 277.164 207.223Z" fill="#EFCBAB"/>
<path d="M263.715 229.717H188.662C187.944 229.717 187.354 229.128 187.354 228.41C187.354 227.691 187.944 227.102 188.662 227.102H263.715C264.433 227.102 265.023 227.691 265.023 228.41C265.023 229.128 264.433 229.717 263.715 229.717Z" fill="#EFCBAB"/>
<path d="M196.197 236.548H175.035C174.316 236.548 173.727 235.958 173.727 235.24C173.727 234.521 174.316 233.932 175.035 233.932H196.197C196.916 233.932 197.505 234.521 197.505 235.24C197.505 235.958 196.916 236.548 196.197 236.548Z" fill="#EFCBAB"/>
<path d="M228.113 236.548H202.545C201.827 236.548 201.237 235.958 201.237 235.24C201.237 234.521 201.827 233.932 202.545 233.932H228.111C228.83 233.932 229.419 234.521 229.419 235.24C229.421 235.958 228.832 236.548 228.113 236.548Z" fill="#EFCBAB"/>
<path d="M277.337 236.548H233.139C232.42 236.548 231.831 235.958 231.831 235.24C231.831 234.521 232.42 233.932 233.139 233.932H277.337C278.056 233.932 278.645 234.521 278.645 235.24C278.645 235.958 278.056 236.548 277.337 236.548Z" fill="#EFCBAB"/>
<path d="M228.283 244.487H187.173C186.454 244.487 185.865 243.898 185.865 243.179C185.865 242.46 186.454 241.871 187.173 241.871H228.283C229.002 241.871 229.591 242.46 229.591 243.179C229.591 243.9 229.002 244.487 228.283 244.487Z" fill="#EFCBAB"/>
<path d="M265.206 244.487H232.827C232.108 244.487 231.519 243.898 231.519 243.179C231.519 242.46 232.108 241.871 232.827 241.871H265.206C265.924 241.871 266.514 242.46 266.514 243.179C266.514 243.9 265.924 244.487 265.206 244.487Z" fill="#EFCBAB"/>
<path d="M239.829 260.636C237.357 262.688 234.71 264.399 231.923 265.96C232.158 265.222 232.355 264.454 232.319 263.771C232.269 262.83 231.518 262.418 230.766 262.028C230.58 261.931 230.407 261.829 230.234 261.727C230.526 261.44 230.675 261.044 230.482 260.612C230.164 259.899 229.274 260.014 228.973 260.674C228.917 260.796 228.886 260.915 228.871 261.03C228.751 260.966 228.658 260.897 228.577 260.8C229.035 259.944 229.468 259.072 229.865 258.182C229.955 257.981 229.842 257.746 229.681 257.624C229.021 257.126 228.119 257.286 227.589 257.912C226.959 258.655 227.118 259.784 227.419 260.627C227.441 260.685 227.463 260.745 227.488 260.804C226.905 261.858 226.27 262.881 225.589 263.877C225.525 263.813 225.462 263.75 225.398 263.688C225.221 263.514 225.031 263.294 224.867 263.049C225.179 262.237 225.378 261.384 225.453 260.497C225.485 260.101 225.089 259.906 224.757 260.028C223.842 260.368 223.349 261.298 223.468 262.256C223.508 262.584 223.616 262.898 223.765 263.19C223.561 263.633 223.318 264.063 223.032 264.477C222.846 264.746 222.979 265.019 223.198 265.147C222.897 266.147 222.494 267.168 221.804 267.889C221.24 268.476 220.19 268.923 219.504 268.224C219.07 267.783 219.015 267.044 218.955 266.46C218.809 265.021 218.699 263.527 218.752 262.079C218.778 261.393 218.851 260.696 219.084 260.048C219.23 259.645 219.435 259.036 219.63 259.729C219.726 260.07 219.593 260.597 219.559 260.944C219.497 261.562 220.456 261.634 220.518 261.019C220.591 260.293 220.916 258.771 220.095 258.317C219.414 257.94 218.789 258.481 218.473 259.047C217.339 261.083 217.791 263.877 217.961 266.09C218.097 267.854 218.756 270.019 221.009 269.457C223.129 268.93 223.907 266.258 224.394 264.419C224.425 264.304 224.415 264.2 224.38 264.111C224.387 264.096 224.396 264.08 224.405 264.065C224.493 264.155 224.581 264.24 224.67 264.33C224.796 264.441 224.914 264.558 225.029 264.678C224.807 264.986 224.581 265.293 224.347 265.596C224.216 265.767 224.254 266.024 224.385 266.183C225.099 267.042 226.381 266.406 226.355 265.349C226.35 265.105 226.29 264.888 226.195 264.689C226.864 263.726 227.49 262.733 228.07 261.716C228.371 262.011 228.756 262.201 229.227 262.179C229.26 262.177 229.291 262.173 229.323 262.17C229.57 262.431 229.88 262.648 230.163 262.808C230.436 262.962 230.752 263.058 230.998 263.259C231.456 263.633 231.319 264.06 231.219 264.591C231.086 265.289 230.865 265.986 230.661 266.668C229.692 267.225 228.736 267.931 228.41 269.047C228.112 270.065 228.377 271.136 229.249 271.767C229.511 271.957 229.86 271.803 229.971 271.528C230.518 270.183 231.013 268.817 231.436 267.429C231.449 267.385 231.463 267.34 231.478 267.296C232.333 266.809 233.229 266.38 234.075 265.88C236.321 264.55 238.452 263.034 240.46 261.367C240.942 260.962 240.305 260.238 239.829 260.636ZM228.13 259.353C228.121 258.968 228.326 258.262 228.769 258.272C228.568 258.706 228.36 259.136 228.145 259.561C228.138 259.49 228.132 259.421 228.13 259.353ZM229.353 270.477C228.948 269.718 229.528 268.782 230.19 268.164C229.931 268.941 229.65 269.713 229.353 270.477Z" fill="#F99746"/>
<g opacity="0.5">
<path d="M165.679 78.8496L175.457 100.422L139.422 116.756L129.645 95.1833L152.551 97.8029L165.679 78.8496Z" fill="#84A3D0"/>
<path d="M129.645 95.1833L165.679 78.8496L154.906 97.0075C154.056 98.4395 152.408 99.1965 150.769 98.9065L129.645 95.1833Z" fill="#B1CFF2"/>
</g>
<g opacity="0.5">
<path d="M103.995 257.143L109.14 270.937L86.0984 279.529L80.9561 265.734L95.0479 268.336L103.995 257.143Z" fill="#88A1C9"/>
<path d="M80.9561 265.734L103.997 257.143L96.5437 267.944C95.9563 268.795 94.9019 269.193 93.8968 268.945L80.9561 265.734Z" fill="#B1CFF2"/>
</g>
<g opacity="0.5">
<path d="M387.289 191.328L380.06 218.414L334.818 206.341L342.046 179.256L361.054 198.835L387.289 191.328Z" fill="#78A6E6"/>
<path d="M342.045 179.256L387.286 191.328L363.804 199.873C361.952 200.546 359.876 200.004 358.592 198.508L342.045 179.256Z" fill="#B1CFF2"/>
</g>
<path d="M94.0672 318.132C92.9727 318.128 91.9129 318.114 90.9132 318.086C90.7965 318.083 90.7052 317.986 90.7089 317.871C90.7125 317.754 90.8056 317.665 90.9241 317.667C91.9201 317.694 92.9782 317.709 94.0672 317.712C94.184 317.712 94.277 317.807 94.277 317.922C94.277 318.037 94.1821 318.132 94.0672 318.132ZM97.2194 318.108C97.1045 318.108 97.0114 318.017 97.0096 317.902C97.0078 317.787 97.1008 317.691 97.2158 317.689C98.2245 317.672 99.2844 317.645 100.364 317.61C100.485 317.601 100.578 317.698 100.581 317.813C100.585 317.929 100.494 318.026 100.379 318.03C99.2953 318.066 98.2336 318.092 97.223 318.11C97.223 318.108 97.2212 318.108 97.2194 318.108ZM87.7738 317.95C87.7701 317.95 87.7647 317.95 87.761 317.95C86.6501 317.882 85.5921 317.796 84.6143 317.692C84.4994 317.68 84.4155 317.577 84.4282 317.461C84.441 317.346 84.545 317.262 84.6599 317.275C85.6322 317.379 86.6847 317.464 87.7884 317.532C87.9033 317.539 87.9927 317.638 87.9854 317.754C87.9763 317.864 87.8832 317.95 87.7738 317.95ZM103.524 317.902C103.412 317.902 103.319 317.815 103.314 317.701C103.309 317.587 103.398 317.488 103.515 317.483C104.525 317.435 105.583 317.38 106.661 317.318C106.776 317.315 106.877 317.4 106.884 317.515C106.891 317.63 106.802 317.731 106.687 317.736C105.609 317.798 104.547 317.853 103.537 317.9C103.529 317.902 103.526 317.902 103.524 317.902ZM109.819 317.541C109.71 317.541 109.617 317.457 109.609 317.346C109.602 317.231 109.689 317.13 109.804 317.121C110.839 317.052 111.886 316.975 112.947 316.895C113.062 316.886 113.165 316.974 113.172 317.089C113.181 317.203 113.093 317.306 112.979 317.313C111.917 317.393 110.868 317.47 109.832 317.539C109.828 317.541 109.823 317.541 109.819 317.541ZM81.5187 317.256C81.5059 317.256 81.4931 317.256 81.4822 317.253C80.3238 317.045 79.2859 316.797 78.3957 316.514C78.2844 316.479 78.2242 316.361 78.2589 316.249C78.2935 316.138 78.4121 316.078 78.5234 316.113C79.3953 316.39 80.4169 316.634 81.557 316.839C81.6719 316.859 81.7467 316.968 81.7266 317.083C81.7066 317.185 81.6172 317.256 81.5187 317.256ZM116.105 317.063C115.998 317.063 115.904 316.981 115.895 316.871C115.886 316.757 115.972 316.654 116.087 316.645C117.123 316.558 118.17 316.466 119.226 316.37C119.343 316.359 119.443 316.445 119.454 316.56C119.465 316.674 119.38 316.777 119.265 316.788C118.207 316.884 117.16 316.975 116.123 317.063C116.118 317.063 116.111 317.063 116.105 317.063ZM122.384 316.492C122.276 316.492 122.185 316.41 122.176 316.302C122.165 316.187 122.249 316.083 122.364 316.072C123.402 315.972 124.447 315.866 125.5 315.759C125.615 315.75 125.719 315.83 125.73 315.947C125.74 316.062 125.658 316.165 125.542 316.176C124.489 316.284 123.442 316.39 122.404 316.49C122.397 316.492 122.391 316.492 122.384 316.492ZM128.656 315.85C128.55 315.85 128.459 315.77 128.448 315.662C128.435 315.547 128.519 315.443 128.634 315.43C129.672 315.319 130.717 315.202 131.766 315.084C131.881 315.071 131.985 315.153 131.997 315.268C132.01 315.383 131.928 315.487 131.813 315.5C130.762 315.618 129.719 315.733 128.679 315.846C128.67 315.848 128.663 315.85 128.656 315.85ZM75.6211 315.191C75.5791 315.191 75.5354 315.179 75.497 315.151C74.8896 314.708 74.45 314.206 74.1928 313.661C74.0049 313.263 73.848 312.864 73.7258 312.473C73.6911 312.362 73.7531 312.245 73.8644 312.211C73.9739 312.176 74.0924 312.238 74.1271 312.349C74.242 312.72 74.3916 313.101 74.5722 313.482C74.8002 313.964 75.1942 314.411 75.7451 314.812C75.8382 314.879 75.8601 315.011 75.7907 315.106C75.7506 315.162 75.6868 315.191 75.6211 315.191ZM134.92 315.144C134.814 315.144 134.725 315.065 134.712 314.958C134.699 314.843 134.781 314.739 134.896 314.724C135.936 314.602 136.977 314.478 138.025 314.352C138.139 314.339 138.243 314.42 138.258 314.535C138.273 314.65 138.191 314.755 138.076 314.768C137.029 314.896 135.985 315.02 134.945 315.14C134.936 315.142 134.927 315.144 134.92 315.144ZM141.177 314.383C141.073 314.383 140.982 314.305 140.969 314.199C140.954 314.084 141.036 313.978 141.151 313.966C142.187 313.836 143.227 313.705 144.267 313.57C144.382 313.557 144.488 313.637 144.502 313.752C144.517 313.867 144.437 313.973 144.322 313.987C143.28 314.121 142.242 314.254 141.204 314.383C141.195 314.383 141.186 314.383 141.177 314.383ZM147.414 313.582C147.31 313.582 147.22 313.506 147.206 313.4C147.191 313.285 147.271 313.179 147.386 313.165C148.428 313.028 149.469 312.887 150.511 312.747C150.628 312.732 150.732 312.813 150.746 312.928C150.763 313.042 150.681 313.148 150.566 313.163C149.524 313.303 148.481 313.444 147.439 313.581C147.432 313.581 147.423 313.582 147.414 313.582ZM153.669 312.736C153.565 312.736 153.475 312.659 153.461 312.555C153.444 312.441 153.525 312.335 153.639 312.318C154.681 312.174 155.721 312.028 156.761 311.882C156.874 311.866 156.981 311.946 156.998 312.061C157.014 312.176 156.934 312.282 156.819 312.298C155.779 312.444 154.738 312.59 153.698 312.734C153.689 312.734 153.68 312.736 153.669 312.736ZM159.911 311.853C159.809 311.853 159.719 311.778 159.703 311.673C159.687 311.558 159.767 311.452 159.882 311.435C160.923 311.286 161.963 311.134 163.001 310.983C163.116 310.965 163.222 311.045 163.24 311.16C163.257 311.275 163.178 311.381 163.063 311.397C162.025 311.548 160.985 311.7 159.944 311.849C159.931 311.853 159.92 311.853 159.911 311.853ZM166.148 310.941C166.046 310.941 165.956 310.866 165.94 310.762C165.924 310.647 166.002 310.542 166.117 310.523C167.16 310.368 168.198 310.211 169.233 310.054C169.348 310.036 169.453 310.117 169.472 310.231C169.49 310.346 169.41 310.452 169.296 310.47C168.262 310.627 167.222 310.784 166.179 310.939C166.168 310.939 166.159 310.941 166.148 310.941ZM172.381 309.996C172.279 309.996 172.19 309.921 172.173 309.817C172.155 309.702 172.233 309.595 172.348 309.578C173.392 309.418 174.432 309.257 175.462 309.097C175.577 309.08 175.685 309.157 175.701 309.272C175.719 309.387 175.641 309.494 175.526 309.511C174.494 309.671 173.456 309.832 172.41 309.992C172.403 309.996 172.392 309.996 172.381 309.996ZM73.7203 309.518C73.7057 309.518 73.6929 309.516 73.6783 309.515C73.5652 309.491 73.4904 309.381 73.5142 309.268C73.7166 308.267 74.1891 307.302 74.9206 306.402C74.9936 306.311 75.1267 306.298 75.2161 306.371C75.3055 306.444 75.3201 306.576 75.2471 306.667C74.5594 307.515 74.1143 308.418 73.9264 309.352C73.9064 309.451 73.8188 309.518 73.7203 309.518ZM178.611 309.026C178.509 309.026 178.419 308.953 178.403 308.849C178.385 308.734 178.463 308.626 178.578 308.608C179.623 308.442 180.661 308.278 181.69 308.112C181.803 308.093 181.912 308.172 181.931 308.285C181.949 308.4 181.871 308.508 181.757 308.526C180.729 308.69 179.689 308.856 178.644 309.022C178.631 309.026 178.62 309.026 178.611 309.026ZM184.835 308.028C184.735 308.028 184.645 307.955 184.629 307.851C184.61 307.736 184.687 307.628 184.802 307.61C185.849 307.44 186.887 307.271 187.912 307.103C188.027 307.085 188.135 307.161 188.153 307.276C188.171 307.391 188.095 307.499 187.98 307.517C186.953 307.685 185.917 307.855 184.868 308.024C184.857 308.028 184.846 308.028 184.835 308.028ZM191.057 307.008C190.957 307.008 190.867 306.935 190.851 306.833C190.833 306.718 190.909 306.61 191.024 306.592C192.075 306.417 193.111 306.244 194.135 306.072C194.251 306.052 194.357 306.131 194.377 306.246C194.395 306.361 194.319 306.468 194.206 306.486C193.182 306.658 192.146 306.831 191.095 307.006C191.079 307.006 191.068 307.008 191.057 307.008ZM197.276 305.963C197.175 305.963 197.086 305.89 197.07 305.788C197.05 305.673 197.128 305.565 197.241 305.545C198.295 305.366 199.332 305.189 200.35 305.014C200.464 304.994 200.572 305.071 200.592 305.186C200.612 305.301 200.536 305.408 200.421 305.428C199.403 305.603 198.367 305.78 197.312 305.959C197.299 305.963 197.287 305.963 197.276 305.963ZM203.491 304.898C203.39 304.898 203.303 304.826 203.285 304.724C203.265 304.609 203.341 304.502 203.456 304.482C204.516 304.297 205.554 304.117 206.563 303.94C206.678 303.92 206.785 303.996 206.805 304.109C206.825 304.224 206.749 304.332 206.636 304.352C205.625 304.529 204.589 304.71 203.527 304.894C203.516 304.896 203.504 304.898 203.491 304.898ZM77.4088 304.644C77.3431 304.644 77.2774 304.613 77.2373 304.555C77.1716 304.46 77.1935 304.328 77.2902 304.263C78.0837 303.71 79.0086 303.174 80.0429 302.67C80.1469 302.619 80.2728 302.663 80.3238 302.767C80.3749 302.871 80.3311 302.997 80.2271 303.048C79.2129 303.542 78.3063 304.068 77.531 304.607C77.4927 304.631 77.4507 304.644 77.4088 304.644ZM209.706 303.808C209.605 303.808 209.518 303.737 209.5 303.635C209.48 303.52 209.556 303.413 209.669 303.393C210.742 303.203 211.778 303.019 212.776 302.84C212.889 302.818 212.998 302.895 213.018 303.009C213.038 303.124 212.964 303.232 212.849 303.252C211.851 303.431 210.815 303.615 209.742 303.805C209.729 303.807 209.718 303.808 209.706 303.808ZM215.919 302.698C215.819 302.698 215.731 302.626 215.713 302.524C215.693 302.409 215.767 302.302 215.882 302.28C216.979 302.081 218.015 301.893 218.989 301.716C219.104 301.694 219.212 301.771 219.233 301.884C219.253 301.997 219.179 302.107 219.064 302.128C218.09 302.307 217.054 302.495 215.957 302.694C215.943 302.696 215.93 302.698 215.919 302.698ZM83.0346 301.833C82.9488 301.833 82.8686 301.78 82.8376 301.696C82.7974 301.587 82.8521 301.466 82.9616 301.426C83.8919 301.08 84.9025 300.742 85.9678 300.425C86.0791 300.392 86.1959 300.454 86.2287 300.565C86.2615 300.676 86.1995 300.793 86.0882 300.826C85.032 301.142 84.0306 301.475 83.1094 301.818C83.0838 301.829 83.0583 301.833 83.0346 301.833ZM222.132 301.561C222.034 301.561 221.944 301.49 221.926 301.39C221.904 301.275 221.981 301.167 222.094 301.145C223.278 300.926 224.319 300.733 225.202 300.567C225.315 300.545 225.427 300.62 225.447 300.735C225.468 300.85 225.394 300.959 225.279 300.979C224.394 301.145 223.352 301.339 222.169 301.557C222.158 301.561 222.145 301.561 222.132 301.561ZM228.356 300.394C228.258 300.394 228.17 300.324 228.15 300.224C228.128 300.111 228.203 300 228.316 299.978C228.529 299.938 228.65 299.914 228.675 299.908C228.799 299.879 228.933 299.981 228.933 300.113C228.933 300.286 228.913 300.29 228.394 300.39C228.382 300.394 228.369 300.394 228.356 300.394ZM89.0726 300.012C88.9777 300.012 88.892 299.949 88.8683 299.852C88.8409 299.739 88.9103 299.626 89.0215 299.598C90.0029 299.357 91.0409 299.124 92.1099 298.905C92.223 298.881 92.3342 298.954 92.358 299.069C92.3817 299.182 92.3087 299.294 92.1938 299.317C91.1303 299.534 90.0978 299.766 89.1219 300.007C89.1073 300.011 89.0908 300.012 89.0726 300.012ZM95.2566 298.737C95.1562 298.737 95.0669 298.664 95.0504 298.562C95.0304 298.447 95.107 298.34 95.2219 298.32C96.2289 298.146 97.2796 297.98 98.3449 297.825C98.4617 297.807 98.5656 297.887 98.5821 298.002C98.5985 298.117 98.5182 298.223 98.4051 298.239C97.3434 298.392 96.2964 298.558 95.2931 298.732C95.2803 298.737 95.2675 298.737 95.2566 298.737ZM101.504 297.829C101.4 297.829 101.309 297.75 101.296 297.645C101.282 297.53 101.364 297.426 101.479 297.411C102.513 297.287 103.571 297.17 104.622 297.066C104.737 297.057 104.841 297.139 104.852 297.254C104.863 297.369 104.779 297.473 104.664 297.484C103.615 297.588 102.561 297.703 101.53 297.829C101.521 297.829 101.512 297.829 101.504 297.829ZM107.789 297.209C107.679 297.209 107.588 297.125 107.579 297.015C107.57 296.9 107.657 296.798 107.772 296.789C109.722 296.639 110.935 296.587 110.948 296.587C111.065 296.577 111.162 296.672 111.167 296.787C111.173 296.902 111.081 297.001 110.966 297.006C110.955 297.006 109.748 297.057 107.805 297.207C107.8 297.209 107.794 297.209 107.789 297.209Z" fill="white"/>
<path d="M235.373 311.449L261.231 296.795L237.643 298.189L239.463 302.173L234.591 307.57L235.373 311.449Z" fill="#AFCDFB"/>
<path d="M261.232 296.795L234.135 301.76L214.399 315.467L261.232 296.795Z" fill="white"/>
<path d="M237.643 298.189L261.231 296.796L236.558 289.564L237.643 298.189Z" fill="white"/>
<path d="M280.249 113.49L309.604 118.136L290.286 104.531L289.228 108.782L282.053 109.967L280.249 113.49Z" fill="#AFCDFB"/>
<path d="M309.604 118.136L285.317 105.139L261.34 103.566L309.604 118.136Z" fill="white"/>
<path d="M290.286 104.532L309.604 118.137L294.81 97.1094L290.286 104.532Z" fill="white"/>
<path d="M126.497 196.581C126.497 196.581 129.574 195.415 129.923 194.611C130.273 193.806 131.287 193.456 132.511 192.896C133.735 192.336 134.471 191.322 134.646 191.462C134.821 191.603 134.855 192.302 134.367 192.827C133.876 193.352 131.802 197.024 131.021 197.444C130.238 197.863 126.497 196.581 126.497 196.581Z" fill="#FFB27D"/>
<path d="M165.515 349.987H126.436C124.254 349.987 122.484 348.218 122.484 346.036V335.379C122.484 333.197 124.254 331.428 126.436 331.428H165.515C167.697 331.428 169.466 333.197 169.466 335.379V346.036C169.466 348.218 167.699 349.987 165.515 349.987Z" fill="#FCECDB"/>
<path d="M157.566 336.038H128.128C127.799 336.038 127.529 335.77 127.529 335.44C127.529 335.112 127.797 334.842 128.128 334.842H157.566C157.895 334.842 158.165 335.11 158.165 335.44C158.165 335.77 157.895 336.038 157.566 336.038Z" fill="#EFCBAB"/>
<path d="M133.351 338.619H128.131C127.802 338.619 127.532 338.35 127.532 338.02C127.532 337.692 127.8 337.422 128.131 337.422H133.351C133.68 337.422 133.95 337.69 133.95 338.02C133.948 338.349 133.68 338.619 133.351 338.619Z" fill="#EFCBAB"/>
<path d="M149.796 338.619H135.413C135.084 338.619 134.814 338.35 134.814 338.02C134.814 337.692 135.083 337.422 135.413 337.422H149.796C150.125 337.422 150.395 337.69 150.395 338.02C150.393 338.349 150.125 338.619 149.796 338.619Z" fill="#EFCBAB"/>
<path d="M157.566 343.392H128.128C127.799 343.392 127.529 343.124 127.529 342.794C127.529 342.465 127.797 342.195 128.128 342.195H157.566C157.895 342.195 158.165 342.463 158.165 342.794C158.165 343.122 157.895 343.392 157.566 343.392Z" fill="#EFCBAB"/>
<path d="M138.815 345.97H128.131C127.802 345.97 127.532 345.702 127.532 345.372C127.532 345.043 127.8 344.773 128.131 344.773H138.815C139.143 344.773 139.413 345.042 139.413 345.372C139.411 345.7 139.143 345.97 138.815 345.97Z" fill="#EFCBAB"/>
<path d="M151.813 345.97H141.129C140.8 345.97 140.53 345.702 140.53 345.372C140.53 345.043 140.798 344.773 141.129 344.773H151.813C152.141 344.773 152.411 345.042 152.411 345.372C152.411 345.7 152.143 345.97 151.813 345.97Z" fill="#EFCBAB"/>
</svg>
