<svg width="719" height="447" viewBox="0 0 719 447" fill="none" xmlns="http://www.w3.org/2000/svg">
<path d="M37.0406 408.733C37.0406 408.733 -43.1963 331.953 38.1929 220.773C110.898 121.426 56.601 73.9583 131.217 25.5632C206.648 -23.3658 270.838 6.42443 343.037 44.2524C415.236 82.0803 514.949 -8.47068 622.699 39.6714C730.422 87.8136 714.937 161.39 688.294 237.046C665.811 300.898 734.216 347.045 696.894 408.845C696.894 408.845 34.7361 406.428 37.0406 408.733Z" fill="#EBF3FA"/>
<path d="M717.579 409.97H0.815018C0.365354 409.97 0 409.605 0 409.155V408.846C0 408.397 0.365354 408.031 0.815018 408.031H717.579C718.029 408.031 718.394 408.397 718.394 408.846V409.155C718.422 409.605 718.029 409.97 717.579 409.97Z" fill="#2E3552"/>
<path opacity="0.7" d="M518.917 5.89999C518.917 2.63999 516.277 0 513.017 0H393.447C390.187 0 387.547 2.63999 387.547 5.89999V23.99H518.927V5.89999H518.917Z" fill="#EF9A9A"/>
<path opacity="0.4" d="M387.547 23.9902V96.7602C387.547 100.02 390.187 102.66 393.447 102.66H513.027C516.287 102.66 518.927 100.02 518.927 96.7602V23.9902H387.547V23.9902Z" fill="#6E8FFF"/>
<path opacity="0.5" d="M441.997 42.9399H430.877C429.997 42.9399 429.277 42.2199 429.277 41.3399V30.7699C429.277 29.8899 429.997 29.1699 430.877 29.1699H441.997C442.877 29.1699 443.597 29.8899 443.597 30.7699V41.3399C443.587 42.2299 442.877 42.9399 441.997 42.9399ZM461.367 41.3399V30.7699C461.367 29.8899 460.647 29.1699 459.767 29.1699H448.647C447.767 29.1699 447.047 29.8899 447.047 30.7699V41.3399C447.047 42.2199 447.767 42.9399 448.647 42.9399H459.767C460.657 42.9399 461.367 42.2299 461.367 41.3399ZM479.147 41.3399V30.7699C479.147 29.8899 478.427 29.1699 477.547 29.1699H466.427C465.547 29.1699 464.827 29.8899 464.827 30.7699V41.3399C464.827 42.2199 465.547 42.9399 466.427 42.9399H477.547C478.427 42.9399 479.147 42.2299 479.147 41.3399ZM496.927 41.3399V30.7699C496.927 29.8899 496.207 29.1699 495.327 29.1699H484.207C483.327 29.1699 482.607 29.8899 482.607 30.7699V41.3399C482.607 42.2199 483.327 42.9399 484.207 42.9399H495.327C496.207 42.9399 496.927 42.2299 496.927 41.3399ZM514.697 41.3399V30.7699C514.697 29.8899 513.977 29.1699 513.097 29.1699H501.977C501.097 29.1699 500.377 29.8899 500.377 30.7699V41.3399C500.377 42.2199 501.097 42.9399 501.977 42.9399H513.097C513.987 42.9399 514.697 42.2299 514.697 41.3399ZM408.037 59.1899V48.6199C408.037 47.7399 407.317 47.0199 406.437 47.0199H395.317C394.437 47.0199 393.717 47.7399 393.717 48.6199V59.1899C393.717 60.0699 394.437 60.7899 395.317 60.7899H406.437C407.317 60.7899 408.037 60.0699 408.037 59.1899ZM425.817 59.1899V48.6199C425.817 47.7399 425.097 47.0199 424.217 47.0199H413.097C412.217 47.0199 411.497 47.7399 411.497 48.6199V59.1899C411.497 60.0699 412.217 60.7899 413.097 60.7899H424.217C425.097 60.7899 425.817 60.0699 425.817 59.1899ZM443.587 59.1899V48.6199C443.587 47.7399 442.867 47.0199 441.987 47.0199H430.867C429.987 47.0199 429.267 47.7399 429.267 48.6199V59.1899C429.267 60.0699 429.987 60.7899 430.867 60.7899H441.987C442.877 60.7899 443.587 60.0699 443.587 59.1899ZM479.147 59.1899V48.6199C479.147 47.7399 478.427 47.0199 477.547 47.0199H466.427C465.547 47.0199 464.827 47.7399 464.827 48.6199V59.1899C464.827 60.0699 465.547 60.7899 466.427 60.7899H477.547C478.427 60.7899 479.147 60.0699 479.147 59.1899ZM496.927 59.1899V48.6199C496.927 47.7399 496.207 47.0199 495.327 47.0199H484.207C483.327 47.0199 482.607 47.7399 482.607 48.6199V59.1899C482.607 60.0699 483.327 60.7899 484.207 60.7899H495.327C496.207 60.7899 496.927 60.0699 496.927 59.1899ZM514.697 59.1899V48.6199C514.697 47.7399 513.977 47.0199 513.097 47.0199H501.977C501.097 47.0199 500.377 47.7399 500.377 48.6199V59.1899C500.377 60.0699 501.097 60.7899 501.977 60.7899H513.097C513.987 60.7899 514.697 60.0699 514.697 59.1899ZM408.037 77.0399V66.4699C408.037 65.5899 407.317 64.8699 406.437 64.8699H395.317C394.437 64.8699 393.717 65.5899 393.717 66.4699V77.0399C393.717 77.9199 394.437 78.6399 395.317 78.6399H406.437C407.317 78.6399 408.037 77.9199 408.037 77.0399ZM425.817 77.0399V66.4699C425.817 65.5899 425.097 64.8699 424.217 64.8699H413.097C412.217 64.8699 411.497 65.5899 411.497 66.4699V77.0399C411.497 77.9199 412.217 78.6399 413.097 78.6399H424.217C425.097 78.6399 425.817 77.9199 425.817 77.0399ZM443.587 77.0399V66.4699C443.587 65.5899 442.867 64.8699 441.987 64.8699H430.867C429.987 64.8699 429.267 65.5899 429.267 66.4699V77.0399C429.267 77.9199 429.987 78.6399 430.867 78.6399H441.987C442.877 78.6399 443.587 77.9199 443.587 77.0399ZM461.367 77.0399V66.4699C461.367 65.5899 460.647 64.8699 459.767 64.8699H448.647C447.767 64.8699 447.047 65.5899 447.047 66.4699V77.0399C447.047 77.9199 447.767 78.6399 448.647 78.6399H459.767C460.657 78.6399 461.367 77.9199 461.367 77.0399ZM479.147 77.0399V66.4699C479.147 65.5899 478.427 64.8699 477.547 64.8699H466.427C465.547 64.8699 464.827 65.5899 464.827 66.4699V77.0399C464.827 77.9199 465.547 78.6399 466.427 78.6399H477.547C478.427 78.6399 479.147 77.9199 479.147 77.0399ZM496.927 77.0399V66.4699C496.927 65.5899 496.207 64.8699 495.327 64.8699H484.207C483.327 64.8699 482.607 65.5899 482.607 66.4699V77.0399C482.607 77.9199 483.327 78.6399 484.207 78.6399H495.327C496.207 78.6399 496.927 77.9199 496.927 77.0399ZM514.697 77.0399V66.4699C514.697 65.5899 513.977 64.8699 513.097 64.8699H501.977C501.097 64.8699 500.377 65.5899 500.377 66.4699V77.0399C500.377 77.9199 501.097 78.6399 501.977 78.6399H513.097C513.987 78.6399 514.697 77.9199 514.697 77.0399ZM408.037 94.8899V84.3199C408.037 83.4399 407.317 82.7199 406.437 82.7199H395.317C394.437 82.7199 393.717 83.4399 393.717 84.3199V94.8899C393.717 95.7699 394.437 96.4899 395.317 96.4899H406.437C407.317 96.4799 408.037 95.7699 408.037 94.8899ZM425.817 94.8899V84.3199C425.817 83.4399 425.097 82.7199 424.217 82.7199H413.097C412.217 82.7199 411.497 83.4399 411.497 84.3199V94.8899C411.497 95.7699 412.217 96.4899 413.097 96.4899H424.217C425.097 96.4799 425.817 95.7699 425.817 94.8899ZM443.587 94.8899V84.3199C443.587 83.4399 442.867 82.7199 441.987 82.7199H430.867C429.987 82.7199 429.267 83.4399 429.267 84.3199V94.8899C429.267 95.7699 429.987 96.4899 430.867 96.4899H441.987C442.877 96.4799 443.587 95.7699 443.587 94.8899ZM461.367 94.8899V84.3199C461.367 83.4399 460.647 82.7199 459.767 82.7199H448.647C447.767 82.7199 447.047 83.4399 447.047 84.3199V94.8899C447.047 95.7699 447.767 96.4899 448.647 96.4899H459.767C460.657 96.4799 461.367 95.7699 461.367 94.8899Z" fill="url(#paint0_linear_184_885)"/>
<path opacity="0.7" d="M461.367 59.1895V48.6195C461.367 47.7395 460.647 47.0195 459.767 47.0195H448.647C447.767 47.0195 447.047 47.7395 447.047 48.6195V59.1895C447.047 60.0695 447.767 60.7895 448.647 60.7895H459.767C460.657 60.7895 461.367 60.0695 461.367 59.1895Z" fill="#EF9A9A"/>
<path d="M326.707 82.6699H439.047C446.637 82.6699 452.877 89.5399 452.987 98.1199C452.987 98.2399 452.987 98.3699 452.987 98.4999C452.987 111.17 452.987 204.8 452.987 204.8C452.987 205.58 452.987 206.19 452.987 206.61C452.987 218.14 460.977 222.89 460.977 222.89H348.637C341.047 222.89 334.807 216.02 334.697 207.44C334.697 207.32 334.697 207.19 334.697 207.06C334.697 194.39 334.697 100.76 334.697 100.76C334.697 99.9799 334.697 99.3699 334.697 98.9499C334.697 87.4199 326.707 82.6699 326.707 82.6699Z" fill="url(#paint1_linear_184_885)"/>
<path d="M439.387 82.668C439.387 82.668 431.407 87.428 431.407 98.958V100.768C431.407 100.768 431.407 213.058 431.407 225.728V226.098C431.297 234.688 425.057 241.548 417.467 241.548H305.137C305.137 241.548 313.127 236.798 313.127 225.268V223.458H313.117C313.117 223.458 313.117 111.168 313.117 98.498C313.117 98.368 313.117 98.248 313.127 98.128C313.227 89.538 319.477 82.668 327.057 82.668H439.387Z" fill="url(#paint2_linear_184_885)"/>
<path d="M414.257 82.668H391.607V241.548H414.257V82.668Z" fill="url(#paint3_linear_184_885)"/>
<path d="M281.547 72.7988H393.887C401.477 72.7988 407.717 79.6688 407.827 88.2488C407.827 88.3688 407.827 88.4988 407.827 88.6288C407.827 101.299 407.827 223.459 407.827 223.459C407.827 224.239 407.827 224.849 407.827 225.269C407.827 236.799 415.817 241.549 415.817 241.549H303.477C295.887 241.549 289.647 234.679 289.537 226.099C289.537 225.979 289.537 225.849 289.537 225.719C289.537 213.049 289.537 90.8888 289.537 90.8888C289.537 90.1088 289.537 89.4988 289.537 89.0788C289.547 77.5488 281.547 72.7988 281.547 72.7988Z" fill="url(#paint4_linear_184_885)"/>
<path d="M390.247 72.7991C390.247 72.7991 381.347 77.5491 381.347 89.0791C381.347 100.609 381.347 259.529 381.347 259.529H380.977L375.537 265.759L370.097 259.529H370.027L364.587 265.759L359.147 259.529H359.077L353.637 265.759L348.197 259.529H348.127L342.687 265.759L337.247 259.529H337.167L331.727 265.759L326.287 259.529H326.207L320.767 265.759L315.327 259.529H315.267L309.827 265.759L304.387 259.529H304.307L298.867 265.759L293.427 259.529H293.347L287.907 265.759L282.467 259.529H282.387L276.947 265.759L271.507 259.529H271.427L265.987 265.759L260.547 259.529H260.467L255.027 265.759L249.587 259.529H249.557C249.557 259.529 249.557 169.399 249.557 119.729V88.2391C249.677 79.6491 256.627 72.7891 265.087 72.7891H390.247V72.7991Z" fill="url(#paint5_linear_184_885)"/>
<path opacity="0.4" d="M364.048 101.928H267.148C265.688 101.928 264.508 100.748 264.508 99.2884C264.508 97.8284 265.688 96.6484 267.148 96.6484H364.048C365.508 96.6484 366.688 97.8284 366.688 99.2884C366.688 100.738 365.498 101.928 364.048 101.928ZM366.688 118.408C366.688 116.948 365.508 115.768 364.048 115.768H267.148C265.688 115.768 264.508 116.948 264.508 118.408C264.508 119.868 265.688 121.048 267.148 121.048H364.048C365.498 121.058 366.688 119.868 366.688 118.408ZM366.688 137.538C366.688 136.078 365.508 134.898 364.048 134.898H267.148C265.688 134.898 264.508 136.078 264.508 137.538C264.508 138.998 265.688 140.178 267.148 140.178H364.048C365.498 140.178 366.688 138.998 366.688 137.538ZM366.688 156.668C366.688 155.208 365.508 154.028 364.048 154.028H267.148C265.688 154.028 264.508 155.208 264.508 156.668C264.508 158.128 265.688 159.308 267.148 159.308H364.048C365.498 159.308 366.688 158.128 366.688 156.668ZM366.688 175.798C366.688 174.338 365.508 173.158 364.048 173.158H267.148C265.688 173.158 264.508 174.338 264.508 175.798C264.508 177.258 265.688 178.438 267.148 178.438H364.048C365.498 178.438 366.688 177.248 366.688 175.798ZM366.688 194.918C366.688 193.458 365.508 192.278 364.048 192.278H267.148C265.688 192.278 264.508 193.458 264.508 194.918C264.508 196.378 265.688 197.558 267.148 197.558H364.048C365.498 197.568 366.688 196.378 366.688 194.918Z" fill="url(#paint6_linear_184_885)"/>
<path opacity="0.6" d="M289.998 218.669C291.328 214.069 292.858 209.359 295.888 206.629C297.568 205.109 299.608 204.469 301.518 205.289C305.058 206.829 306.138 212.279 306.508 217.149C307.168 225.639 306.618 234.319 304.898 242.489C304.668 243.569 304.018 244.399 303.238 244.459C301.798 244.579 301.418 242.329 301.418 240.569C301.428 237.789 301.748 235.009 302.358 232.379C302.768 230.619 303.338 228.869 304.468 227.839C304.978 227.379 305.588 227.119 306.188 227.209C308.028 227.489 308.678 230.389 308.488 232.779C308.268 235.519 307.288 238.099 307.788 240.969C307.998 242.179 308.568 243.249 309.388 243.659C311.158 244.549 312.518 242.129 313.258 239.909C315.258 233.949 315.958 227.089 315.218 220.559C315.128 219.799 314.978 218.949 314.508 218.589C314.008 218.199 313.348 218.599 313.008 219.259C312.668 219.929 312.578 220.779 312.528 221.599C312.228 225.979 312.578 230.439 313.558 234.609C314.008 236.529 314.628 238.469 315.938 239.519C316.338 239.839 316.788 240.029 317.248 240.019C318.938 239.989 319.688 237.849 320.178 235.889C321.928 228.929 322.438 221.339 321.648 214.029C317.828 217.889 317.108 227.029 320.918 231.569C321.888 232.719 323.198 233.239 324.398 232.689C326.898 231.559 327.158 227.299 327.108 223.819C327.078 221.299 327.048 218.769 327.018 216.249C325.148 221.859 325.078 228.649 326.868 234.319C327.198 235.349 327.808 236.179 328.578 236.399C330.028 236.809 330.828 234.949 331.318 233.289C333.058 227.449 333.748 220.989 333.378 214.669C333.158 210.859 329.368 210.489 328.858 214.239C328.138 219.499 328.518 225.089 330.078 229.969C330.788 232.179 331.908 234.479 333.888 234.109C334.818 233.939 335.628 233.149 336.198 232.089C337.598 229.509 337.618 226.269 338.078 223.239C338.458 220.789 339.278 218.219 340.868 217.209C342.898 215.919 345.178 217.649 347.188 219.009C351.918 222.219 357.268 223.519 362.478 222.729" stroke="#E3F2FD" stroke-miterlimit="10" stroke-linecap="round" stroke-linejoin="round"/>
<path d="M300.397 72.7988C294.737 97.2688 274.477 116.139 249.287 119.739V88.2488C249.407 79.6588 256.357 72.7988 264.817 72.7988H300.397Z" fill="url(#paint7_linear_184_885)"/>
<path d="M278.697 171.641H210.938V305.031H278.697V171.641Z" fill="url(#paint8_linear_184_885)"/>
<path d="M270.067 171.641H202.307V305.031H270.067V171.641Z" fill="url(#paint9_linear_184_885)"/>
<path opacity="0.4" d="M270.067 304.781H202.307V438.171H270.067V304.781Z" fill="url(#paint10_linear_184_885)"/>
<path d="M209.668 174.541H262.718C262.718 176.971 264.688 178.941 267.118 178.941V297.731C264.688 297.731 262.718 299.701 262.718 302.131H209.668C209.668 299.701 207.698 297.731 205.268 297.731V178.941C207.698 178.941 209.668 176.971 209.668 174.541Z" stroke="url(#paint11_linear_184_885)" stroke-miterlimit="10"/>
<path opacity="0.3" d="M236.187 261.241C248.834 261.241 259.087 250.989 259.087 238.341C259.087 225.694 248.834 215.441 236.187 215.441C223.54 215.441 213.287 225.694 213.287 238.341C213.287 250.989 223.54 261.241 236.187 261.241Z" fill="url(#paint12_linear_184_885)"/>
<g opacity="0.8">
<path d="M250.547 239.631C250.097 244.571 247.387 248.131 242.807 248.131V243.191C244.837 243.031 246.327 241.891 246.737 239.621H237.827C236.817 243.671 235.677 248.121 229.967 248.121C225.427 248.121 222.317 244.641 221.867 239.621H218.547V236.991H221.827C222.227 232.331 224.787 229.171 229.357 228.811V233.751C227.737 233.911 226.237 235.051 225.757 236.991H234.497C235.467 232.941 236.567 228.521 242.267 228.521C246.197 228.521 250.007 231.521 250.487 236.991H253.807V239.621H250.547V239.631ZM233.817 239.631H225.637C225.917 241.861 227.257 243.441 229.727 243.441C232.077 243.441 233.127 241.821 233.817 239.631ZM238.517 237.001H246.737C246.327 234.571 244.627 233.191 242.527 233.191C240.217 233.201 239.207 234.811 238.517 237.001Z" fill="white"/>
</g>
<path d="M271.836 172.021V305.001" stroke="url(#paint13_linear_184_885)" stroke-width="0.5" stroke-miterlimit="10"/>
<path d="M273.256 172.021V305.001" stroke="url(#paint14_linear_184_885)" stroke-width="0.5" stroke-miterlimit="10"/>
<path d="M274.666 172.021V305.001" stroke="url(#paint15_linear_184_885)" stroke-width="0.5" stroke-miterlimit="10"/>
<path d="M276.086 172.021V305.001" stroke="url(#paint16_linear_184_885)" stroke-width="0.5" stroke-miterlimit="10"/>
<path d="M277.496 172.021V305.001" stroke="url(#paint17_linear_184_885)" stroke-width="0.5" stroke-miterlimit="10"/>
<path d="M240.508 108.221C267.752 108.221 289.838 86.1348 289.838 58.8905C289.838 31.6463 267.752 9.56055 240.508 9.56055C213.264 9.56055 191.178 31.6463 191.178 58.8905C191.178 86.1348 213.264 108.221 240.508 108.221Z" fill="#EF9A9A"/>
<path d="M240.508 99.4705C262.919 99.4705 281.088 81.3023 281.088 58.8905C281.088 36.4788 262.919 18.3105 240.508 18.3105C218.096 18.3105 199.928 36.4788 199.928 58.8905C199.928 81.3023 218.096 99.4705 240.508 99.4705Z" fill="#FBE8E8"/>
<path d="M240.508 102.911C264.82 102.911 284.528 83.2027 284.528 58.8911C284.528 34.5795 264.82 14.8711 240.508 14.8711C216.197 14.8711 196.488 34.5795 196.488 58.8911C196.488 83.2027 216.197 102.911 240.508 102.911Z" fill="#FBE8E8"/>
<path d="M284.528 58.9011C284.528 59.7611 284.508 60.6111 284.458 61.4611C283.138 38.3511 263.958 20.0111 240.518 20.0111C217.058 20.0111 197.888 38.3511 196.568 61.4611C196.518 60.6111 196.498 59.7611 196.498 58.9011C196.498 34.5811 216.208 14.8711 240.528 14.8711C264.818 14.8711 284.528 34.5811 284.528 58.9011Z" fill="url(#paint18_linear_184_885)"/>
<path d="M240.509 62.7595C242.646 62.7595 244.379 61.0269 244.379 58.8895C244.379 56.7522 242.646 55.0195 240.509 55.0195C238.371 55.0195 236.639 56.7522 236.639 58.8895C236.639 61.0269 238.371 62.7595 240.509 62.7595Z" fill="#EF9A9A"/>
<path d="M242.157 29.9199H238.857V56.7399H242.157V29.9199Z" fill="#EF9A9A"/>
<path d="M218.002 75.9119L220.17 78.4004L240.395 60.785L238.227 58.2965L218.002 75.9119Z" fill="#EF9A9A"/>
<path d="M380.747 8.93067C380.747 8.93067 325.247 -9.94934 269.377 12.7107" stroke="#D2D9FF" stroke-miterlimit="10" stroke-linecap="round" stroke-linejoin="round" stroke-dasharray="4 4"/>
<path d="M198.697 89.5898C188.467 96.6098 181.097 107.69 178.597 119.85C177.377 125.77 177.307 132.1 179.657 137.67C182.007 143.24 187.107 147.87 193.107 148.51C201.337 149.4 209.347 141.5 208.557 133.25C207.767 125.01 198.417 118.76 190.497 121.18C185.317 122.77 181.537 127.16 178.357 131.55C166.007 148.61 158.097 169.71 160.397 190.64C162.697 211.58 176.687 231.8 196.867 237.81" stroke="#D2D9FF" stroke-miterlimit="10" stroke-linecap="round" stroke-linejoin="round" stroke-dasharray="4 4"/>
<g opacity="0.5">
<path opacity="0.2" d="M443.738 338.449C489.749 338.449 527.048 335.969 527.048 332.909C527.048 329.849 489.749 327.369 443.738 327.369C397.727 327.369 360.428 329.849 360.428 332.909C360.428 335.969 397.727 338.449 443.738 338.449Z" fill="#6E8FFF"/>
<path opacity="0.2" d="M443.738 336.668C474.981 336.668 500.308 334.985 500.308 332.908C500.308 330.832 474.981 329.148 443.738 329.148C412.495 329.148 387.168 330.832 387.168 332.908C387.168 334.985 412.495 336.668 443.738 336.668Z" fill="#6E8FFF"/>
</g>
<path opacity="0.3" d="M513.707 438.44L524.847 361.19C525.607 355.91 521.947 351.01 516.657 350.25L385.447 331.34C380.167 330.58 375.267 334.24 374.507 339.52L363.367 416.77C362.607 422.05 366.267 426.95 371.547 427.71L502.757 446.63C508.047 447.38 512.947 443.72 513.707 438.44Z" fill="url(#paint19_linear_184_885)"/>
<path d="M513.707 224.55L524.847 301.8C525.607 307.08 521.947 311.98 516.657 312.74L385.447 331.65C380.167 332.41 375.267 328.75 374.507 323.47L363.367 246.22C362.607 240.94 366.267 236.04 371.547 235.28L502.767 216.37C508.047 215.6 512.947 219.27 513.707 224.55Z" fill="#EF9A9A"/>
<path d="M364.165 251.766L366.668 269.127L517.019 247.451L514.516 230.09L364.165 251.766Z" fill="#EF9A9A"/>
<path opacity="0.7" d="M506.928 273.671L458.748 280.621C455.358 281.111 452.218 278.761 451.728 275.371L451.508 273.871C451.018 270.481 453.368 267.341 456.758 266.851L504.938 259.901C508.328 259.411 511.468 261.761 511.958 265.151L512.178 266.651C512.668 270.041 510.318 273.181 506.928 273.671Z" fill="#EF9A9A"/>
<path d="M525.748 46.9004C525.748 46.9004 604.558 122.16 543.528 229.42" stroke="#D2D9FF" stroke-miterlimit="10" stroke-linecap="round" stroke-linejoin="round" stroke-dasharray="4 4"/>
<defs>
<linearGradient id="paint0_linear_184_885" x1="450.85" y1="34.298" x2="459.157" y2="104.798" gradientUnits="userSpaceOnUse">
<stop stop-color="#BAC7FF"/>
<stop offset="1" stop-color="#859DFF" stop-opacity="0.2127"/>
</linearGradient>
<linearGradient id="paint1_linear_184_885" x1="464.584" y1="162.217" x2="415.12" y2="155.622" gradientUnits="userSpaceOnUse">
<stop stop-color="#98ACFF"/>
<stop offset="0.5" stop-color="#7792FF"/>
<stop offset="0.9807" stop-color="#4D70FF"/>
</linearGradient>
<linearGradient id="paint2_linear_184_885" x1="372.262" y1="241.549" x2="372.262" y2="82.6665" gradientUnits="userSpaceOnUse">
<stop stop-color="#9FB5FF"/>
<stop offset="0.9365" stop-color="#B9C9FF"/>
</linearGradient>
<linearGradient id="paint3_linear_184_885" x1="417.694" y1="160.711" x2="399.07" y2="162.473" gradientUnits="userSpaceOnUse">
<stop stop-color="#98ACFF" stop-opacity="0"/>
<stop offset="1" stop-color="#7792FF"/>
</linearGradient>
<linearGradient id="paint4_linear_184_885" x1="397.766" y1="194.509" x2="300.444" y2="120.482" gradientUnits="userSpaceOnUse">
<stop stop-color="#98ACFF"/>
<stop offset="0.9807" stop-color="#4D70FF"/>
</linearGradient>
<linearGradient id="paint5_linear_184_885" x1="319.904" y1="265.767" x2="319.904" y2="72.7975" gradientUnits="userSpaceOnUse">
<stop stop-color="#9FB5FF"/>
<stop offset="0.9365" stop-color="#B9C9FF"/>
</linearGradient>
<linearGradient id="paint6_linear_184_885" x1="346.454" y1="206.963" x2="276.323" y2="70.9209" gradientUnits="userSpaceOnUse">
<stop stop-color="#98ACFF"/>
<stop offset="0.5" stop-color="#7792FF"/>
<stop offset="0.9807" stop-color="#4D70FF"/>
</linearGradient>
<linearGradient id="paint7_linear_184_885" x1="271.523" y1="125.388" x2="275.801" y2="67.2509" gradientUnits="userSpaceOnUse">
<stop stop-color="#98ACFF" stop-opacity="0"/>
<stop offset="1" stop-color="#7792FF"/>
</linearGradient>
<linearGradient id="paint8_linear_184_885" x1="279.093" y1="304.828" x2="201.195" y2="153.719" gradientUnits="userSpaceOnUse">
<stop stop-color="#98ACFF"/>
<stop offset="1" stop-color="#7792FF"/>
</linearGradient>
<linearGradient id="paint9_linear_184_885" x1="270.465" y1="304.828" x2="192.567" y2="153.719" gradientUnits="userSpaceOnUse">
<stop stop-color="#B8C8FF"/>
<stop offset="1" stop-color="#D2DCFF"/>
</linearGradient>
<linearGradient id="paint10_linear_184_885" x1="236.69" y1="331.938" x2="237.067" y2="302.114" gradientUnits="userSpaceOnUse">
<stop stop-color="#728EFF" stop-opacity="0"/>
<stop offset="1" stop-color="#5F7FFF"/>
</linearGradient>
<linearGradient id="paint11_linear_184_885" x1="268.052" y1="300.145" x2="204.328" y2="176.532" gradientUnits="userSpaceOnUse">
<stop stop-color="#98ACFF"/>
<stop offset="1" stop-color="#7792FF"/>
</linearGradient>
<linearGradient id="paint12_linear_184_885" x1="246.686" y1="258.7" x2="225.693" y2="217.977" gradientUnits="userSpaceOnUse">
<stop stop-color="#98ACFF"/>
<stop offset="1" stop-color="#7792FF"/>
</linearGradient>
<linearGradient id="paint13_linear_184_885" x1="-nan" y1="-nan" x2="-nan" y2="-nan" gradientUnits="userSpaceOnUse">
<stop stop-color="#98ACFF" stop-opacity="0"/>
<stop offset="1" stop-color="#7D97FF" stop-opacity="0.6271"/>
</linearGradient>
<linearGradient id="paint14_linear_184_885" x1="-nan" y1="-nan" x2="-nan" y2="-nan" gradientUnits="userSpaceOnUse">
<stop stop-color="#98ACFF" stop-opacity="0"/>
<stop offset="1" stop-color="#7D97FF" stop-opacity="0.6271"/>
</linearGradient>
<linearGradient id="paint15_linear_184_885" x1="-nan" y1="-nan" x2="-nan" y2="-nan" gradientUnits="userSpaceOnUse">
<stop stop-color="#98ACFF" stop-opacity="0"/>
<stop offset="1" stop-color="#7D97FF" stop-opacity="0.6271"/>
</linearGradient>
<linearGradient id="paint16_linear_184_885" x1="-nan" y1="-nan" x2="-nan" y2="-nan" gradientUnits="userSpaceOnUse">
<stop stop-color="#98ACFF" stop-opacity="0"/>
<stop offset="1" stop-color="#7D97FF" stop-opacity="0.6271"/>
</linearGradient>
<linearGradient id="paint17_linear_184_885" x1="-nan" y1="-nan" x2="-nan" y2="-nan" gradientUnits="userSpaceOnUse">
<stop stop-color="#98ACFF" stop-opacity="0"/>
<stop offset="1" stop-color="#7D97FF" stop-opacity="0.6271"/>
</linearGradient>
<linearGradient id="paint18_linear_184_885" x1="238.596" y1="8.75379" x2="241.63" y2="88.5553" gradientUnits="userSpaceOnUse">
<stop stop-color="#E8DBDB" stop-opacity="0.6"/>
<stop offset="0.7485" stop-color="#E4D8DD" stop-opacity="0"/>
</linearGradient>
<linearGradient id="paint19_linear_184_885" x1="444.105" y1="399.492" x2="444.105" y2="323.492" gradientUnits="userSpaceOnUse">
<stop stop-color="#728EFF" stop-opacity="0"/>
<stop offset="0.6399" stop-color="#6786FF" stop-opacity="0.6399"/>
<stop offset="1" stop-color="#5F7FFF"/>
</linearGradient>
</defs>
</svg>
