<svg width="543" height="497" viewBox="0 0 543 497" fill="none" xmlns="http://www.w3.org/2000/svg">
<path d="M299.763 341.829C433.668 315.787 529.39 228.711 513.564 147.338C497.739 65.9656 376.359 21.1109 242.455 47.1524C108.551 73.1939 12.8289 160.27 28.6541 241.643C44.4793 323.015 165.859 367.87 299.763 341.829Z" fill="#F9F9FF"/>
<path d="M91.915 417.955H449.059C452.367 417.955 455.051 420.64 455.051 423.947V426.008C455.051 429.316 452.367 432 449.059 432H91.915C88.6073 432 85.923 429.316 85.923 426.008V423.947C85.9057 420.64 88.6073 417.955 91.915 417.955Z" fill="#6E9AFA"/>
<path d="M417.458 417.999H116.8C107.654 409.669 97.3958 401.988 92.2027 390.761C87.0095 379.535 87.0255 364.947 95.5634 355.993C105.87 345.191 123.105 346.663 137.597 343.095C154.312 338.974 169.516 325.547 171.66 308.463C174.421 286.41 155.953 266.254 157.105 244.057C158.009 226.557 172.868 210.834 190.288 208.929C202.067 207.641 214.277 211.954 225.656 208.657C236.202 205.592 243.804 196.647 252.974 190.597C263.728 183.5 277.459 180.411 289.862 183.94C302.257 187.468 312.747 198.191 314.419 210.97C316.196 224.557 308.802 239.992 316.644 251.234C322.485 259.604 334.136 261.221 344.338 260.893C354.54 260.565 365.423 259.196 374.393 264.077C382.73 268.614 387.691 278 388.62 287.45C389.548 296.9 386.915 306.383 383.026 315.04C379.626 322.61 375.249 329.764 372.688 337.653C370.128 345.543 369.599 354.609 373.768 361.779C378.153 369.332 386.659 373.253 393.597 378.558C405.831 387.944 416.538 402.596 417.458 417.999Z" fill="#BCDFEB"/>
<path d="M392.292 125.816L409.656 169.97L446.656 149.086L392.292 125.816Z" fill="#FAFAFA"/>
<path d="M392.292 125.816L426.419 160.504L435.71 155.263L392.292 125.816Z" fill="#D9D9D9"/>
<path d="M435.71 155.264L429.245 171.275L426.42 160.505L435.71 155.264Z" fill="#D9D9D9"/>
<path d="M429.244 171.274L421.258 163.425L426.419 160.504L429.244 171.274Z" fill="#B0B0B0"/>
<path d="M165.146 404.301C125.985 393.987 91.842 366.036 73.9821 329.692C66.6125 314.697 61.8835 298.046 62.9957 281.37C64.1079 264.694 71.5736 248.035 84.9605 238.032C98.3474 228.03 117.856 225.862 132.011 234.744C145.686 243.322 152.199 259.781 164.058 270.744C178.221 283.85 200.698 287.675 217.774 278.689C234.849 269.703 244.451 247.859 238.218 229.599C232.449 212.699 216.149 202.185 201.986 191.302C187.823 180.42 173.74 165.12 175.772 147.381C177.517 132.129 190.944 120.671 205.091 114.717C232.177 103.331 267.112 108.396 285.572 131.257C305.433 155.854 301.616 191.742 292.662 222.061C283.708 252.38 270.497 283.074 274.954 314.377C278.659 340.383 294.783 363.772 316.171 379.023C337.56 394.275 363.806 401.828 390.027 403.437C416.193 405.045 444.279 400.18 463.628 382.496C482.984 364.812 489.521 331.845 472.405 311.985C463.548 301.71 450.321 296.501 437.606 291.772C424.891 287.051 411.616 282.106 402.398 272.152C393.18 262.198 389.611 245.562 398.277 235.128C408.319 223.037 435.069 221.717 444.527 209.17C451.273 200.216 443.391 182.972 435.733 174.506" stroke="#52BFDE" stroke-width="2.5409" stroke-miterlimit="10" stroke-dasharray="7.62 7.62"/>
<path d="M367.286 417.999H144.349C139.572 417.999 135.699 414.126 135.699 409.349V266.326C135.699 261.549 139.572 257.676 144.349 257.676H367.286C372.063 257.676 375.936 261.549 375.936 266.326V409.349C375.936 414.126 372.063 417.999 367.286 417.999Z" fill="#101439"/>
<path d="M365.822 345.142C369.857 345.142 373.128 341.872 373.128 337.837C373.128 333.802 369.857 330.531 365.822 330.531C361.787 330.531 358.517 333.802 358.517 337.837C358.517 341.872 361.787 345.142 365.822 345.142Z" fill="#1C2363"/>
<path d="M140.82 364.948C139.54 364.948 138.508 363.908 138.508 362.636V313.057C138.508 311.776 139.54 310.744 140.82 310.744C142.101 310.744 143.133 311.784 143.133 313.057V362.636C143.133 363.908 142.101 364.948 140.82 364.948Z" fill="#1C2363"/>
<path d="M355.715 263.598H146.421V412.078H355.715V263.598Z" fill="#DCE8F4"/>
<path d="M355.715 263.598H146.421V273.576H355.715V263.598Z" fill="#A6AFB8"/>
<path d="M152.501 268.998H149.853V272.367H152.501V268.998Z" fill="#FC6047"/>
<path d="M155.943 266.654H153.294V272.368H155.943V266.654Z" fill="#FC6047"/>
<path d="M159.582 265.029H156.934V272.367H159.582V265.029Z" fill="#FC6047"/>
<path d="M339.086 265.638V266.126C339.086 266.51 338.774 266.83 338.382 266.83H337.598C337.214 266.83 336.894 267.142 336.894 267.534V269.663C336.894 270.047 337.206 270.367 337.598 270.367H338.382C338.766 270.367 339.086 270.679 339.086 271.071V271.559C339.086 271.943 339.398 272.263 339.79 272.263H350.697C351.081 272.263 351.401 271.951 351.401 271.559V265.654C351.401 265.27 351.089 264.95 350.697 264.95H339.79C339.398 264.934 339.086 265.246 339.086 265.638Z" fill="#DCE8F4"/>
<path d="M350.72 271.872H348.776C348.632 271.872 348.52 271.76 348.52 271.616V265.559C348.52 265.415 348.632 265.303 348.776 265.303H350.72C350.864 265.303 350.976 265.423 350.976 265.559V271.616C350.976 271.76 350.856 271.872 350.72 271.872Z" fill="#B7FC47"/>
<path d="M347.703 271.872H345.759C345.615 271.872 345.503 271.76 345.503 271.616V265.559C345.503 265.415 345.623 265.303 345.759 265.303H347.703C347.847 265.303 347.959 265.423 347.959 265.559V271.616C347.959 271.76 347.847 271.872 347.703 271.872Z" fill="#B7FC47"/>
<path d="M344.688 271.872H342.743C342.599 271.872 342.487 271.76 342.487 271.616V265.559C342.487 265.415 342.607 265.303 342.743 265.303H344.688C344.832 265.303 344.944 265.423 344.944 265.559V271.616C344.944 271.76 344.832 271.872 344.688 271.872Z" fill="#B7FC47"/>
<path d="M330.806 271.398C332.357 271.398 333.614 270.141 333.614 268.59C333.614 267.039 332.357 265.781 330.806 265.781C329.255 265.781 327.997 267.039 327.997 268.59C327.997 270.141 329.255 271.398 330.806 271.398Z" fill="#DCE8F4"/>
<path d="M342.48 284.785H159.656V400.635H342.48V284.785Z" fill="#C3CED9"/>
<path d="M342.48 284.785H159.656V294.771H342.48V284.785Z" fill="#A7B1BA"/>
<path d="M338.784 299.949H219.094V304.702H338.784V299.949Z" fill="#E0EDFA"/>
<path d="M285.148 309H219.094V313.753H285.148V309Z" fill="#E0EDFA"/>
<path d="M254.638 318.041H219.094V322.794H254.638V318.041Z" fill="#E0EDFA"/>
<path d="M338.784 333.725H219.094V338.478H338.784V333.725Z" fill="#E0EDFA"/>
<path d="M285.148 342.775H219.094V347.528H285.148V342.775Z" fill="#E0EDFA"/>
<path d="M254.638 351.816H219.094V356.569H254.638V351.816Z" fill="#E0EDFA"/>
<path d="M338.784 366.707H219.094V371.46H338.784V366.707Z" fill="#E0EDFA"/>
<path d="M285.148 375.758H219.094V380.511H285.148V375.758Z" fill="#E0EDFA"/>
<path d="M254.638 384.799H219.094V389.552H254.638V384.799Z" fill="#E0EDFA"/>
<path d="M213.244 299.949H166.826V326.083H213.244V299.949Z" fill="#E0EDFA"/>
<path d="M166.826 326.083L190.039 313.016L213.244 326.083H166.826Z" fill="#CEDAE6"/>
<path d="M213.244 299.949L190.039 313.016L166.826 299.949H213.244Z" fill="#CEDAE6"/>
<path d="M213.244 333.572H166.826V359.706H213.244V333.572Z" fill="#E0EDFA"/>
<path d="M166.826 359.706L190.039 346.639L213.244 359.706H166.826Z" fill="#CEDAE6"/>
<path d="M213.244 333.572L190.039 346.639L166.826 333.572H213.244Z" fill="#CEDAE6"/>
<path d="M213.244 367.195H166.826V393.329H213.244V367.195Z" fill="#E0EDFA"/>
<path d="M166.826 393.329L190.039 380.262L213.244 393.329H166.826Z" fill="#CEDAE6"/>
<path d="M213.244 367.195L190.039 380.262L166.826 367.195H213.244Z" fill="#CEDAE6"/>
<g opacity="0.44">
<path d="M221.206 263.598L146.422 338.39V273.032L155.864 263.598H221.206Z" fill="white"/>
<path d="M266.6 263.598L146.422 383.776V350.345L233.169 263.598H266.6Z" fill="white"/>
</g>
<g opacity="0.44">
<path d="M355.714 279.752V345.11L288.74 412.077H223.397L355.714 279.752Z" fill="white"/>
<path d="M355.714 357.057V390.496L334.126 412.077H300.694L355.714 357.057Z" fill="white"/>
</g>
<path d="M181.733 259.533L243.787 211.45C247.708 208.41 253.189 208.41 257.11 211.45L319.164 259.533V340.111H181.733V259.533Z" fill="#EE8F23"/>
<path d="M303.265 216.82H197.634V332.99H303.265V216.82Z" fill="#FAFAFA"/>
<path d="M296.903 223.814H203.986V227.359H296.903V223.814Z" fill="#DBDBDB"/>
<path d="M282.948 230.936H203.986V234.48H282.948V230.936Z" fill="#DBDBDB"/>
<path d="M270.137 238.049H203.986V241.594H270.137V238.049Z" fill="#DBDBDB"/>
<path d="M270.137 251.717H203.986V255.262H270.137V251.717Z" fill="#DBDBDB"/>
<path d="M253.053 258.549H203.986V262.094H253.053V258.549Z" fill="#DBDBDB"/>
<path d="M299.512 272.873H250.445V276.418H299.512V272.873Z" fill="#DBDBDB"/>
<path d="M299.519 279.842H259.606V283.387H299.519V279.842Z" fill="#DBDBDB"/>
<path d="M250.444 299.845L181.733 259.58V340.11L250.444 299.845Z" fill="#FFAC42"/>
<path d="M250.445 299.845L319.156 259.58V340.11L250.445 299.845Z" fill="#FFAC42"/>
<path d="M243.779 292.027L181.726 340.109H319.156L257.102 292.027C253.189 288.986 247.708 288.986 243.779 292.027Z" fill="#FFBE6E"/>
<path d="M319.157 270.327C325.092 270.327 329.903 265.515 329.903 259.58C329.903 253.645 325.092 248.834 319.157 248.834C313.221 248.834 308.41 253.645 308.41 259.58C308.41 265.515 313.221 270.327 319.157 270.327Z" fill="#FC6D5F"/>
<path d="M316.74 254.131V264.493H313.811V256.395H311.883V254.131H316.74V254.131Z" fill="white"/>
<path d="M325.397 258.796C326.093 259.388 326.437 260.18 326.437 261.164C326.437 261.804 326.269 262.396 325.941 262.933C325.613 263.469 325.109 263.901 324.429 264.221C323.757 264.541 322.916 264.701 321.916 264.701C321.188 264.701 320.46 264.613 319.748 264.437C319.035 264.261 318.419 264.005 317.907 263.685L318.955 261.476C319.372 261.756 319.828 261.964 320.324 262.116C320.82 262.26 321.324 262.34 321.828 262.34C322.332 262.34 322.732 262.244 323.036 262.052C323.34 261.86 323.484 261.588 323.484 261.244C323.484 260.9 323.34 260.636 323.044 260.46C322.748 260.284 322.228 260.196 321.476 260.196H318.659L319.18 254.139H325.781V256.403H321.604L321.468 257.915H322.164C323.62 257.907 324.701 258.204 325.397 258.796Z" fill="white"/>
<path d="M471.068 217.917C470.94 217.869 470.812 217.829 470.684 217.789C470.652 217.661 470.612 217.541 470.564 217.413C470.355 216.909 470.091 216.405 469.555 215.893C469.019 216.397 468.747 216.901 468.547 217.413C468.499 217.541 468.459 217.669 468.419 217.797C468.291 217.829 468.163 217.877 468.035 217.925C467.531 218.133 467.027 218.397 466.515 218.933C467.019 219.469 467.523 219.741 468.035 219.941C468.163 219.989 468.283 220.029 468.411 220.061C468.443 220.19 468.491 220.318 468.539 220.446C468.739 220.95 469.011 221.454 469.555 221.966C470.099 221.462 470.363 220.958 470.572 220.446C470.62 220.318 470.66 220.19 470.692 220.069C470.82 220.037 470.948 219.997 471.068 219.949C471.572 219.749 472.076 219.477 472.588 218.933C472.084 218.389 471.58 218.125 471.068 217.917Z" fill="#DBF6FF"/>
<path d="M104.492 243.339C104.364 243.291 104.236 243.251 104.108 243.211C104.076 243.083 104.036 242.963 103.988 242.835C103.78 242.331 103.516 241.827 102.98 241.314C102.444 241.819 102.172 242.323 101.972 242.835C101.924 242.963 101.884 243.091 101.844 243.219C101.716 243.251 101.588 243.299 101.46 243.347C100.956 243.555 100.452 243.819 99.9395 244.355C100.444 244.891 100.948 245.163 101.46 245.363C101.588 245.411 101.708 245.451 101.836 245.483C101.868 245.611 101.908 245.739 101.964 245.867C102.164 246.372 102.436 246.876 102.98 247.388C103.524 246.884 103.788 246.38 103.996 245.867C104.044 245.739 104.084 245.611 104.116 245.491C104.244 245.459 104.372 245.419 104.492 245.371C104.997 245.171 105.501 244.899 106.013 244.355C105.501 243.811 104.997 243.539 104.492 243.339Z" fill="#BCDFEB"/>
<path d="M281.074 194.976C280.946 194.928 280.818 194.888 280.69 194.848C280.658 194.72 280.618 194.6 280.57 194.472C280.362 193.967 280.098 193.463 279.562 192.951C279.026 193.455 278.754 193.959 278.554 194.472C278.506 194.6 278.466 194.728 278.426 194.856C278.298 194.888 278.17 194.936 278.042 194.984C277.538 195.192 277.034 195.456 276.521 195.992C277.026 196.528 277.53 196.8 278.042 197C278.17 197.048 278.29 197.088 278.418 197.12C278.45 197.248 278.498 197.376 278.546 197.504C278.746 198.008 279.018 198.512 279.562 199.024C280.106 198.52 280.37 198.016 280.578 197.504C280.626 197.376 280.666 197.248 280.698 197.128C280.826 197.096 280.954 197.056 281.074 197.008C281.579 196.808 282.083 196.536 282.595 195.992C282.083 195.448 281.579 195.184 281.074 194.976Z" fill="#DBF6FF"/>
</svg>
