<svg width="543" height="423" viewBox="0 0 543 423" fill="none" xmlns="http://www.w3.org/2000/svg">
<path d="M299.763 341.829C433.668 315.787 529.39 228.711 513.564 147.338C497.739 65.9656 376.36 21.1109 242.455 47.1524C108.551 73.1939 12.8289 160.27 28.6541 241.643C44.4793 323.015 165.859 367.87 299.763 341.829Z" fill="#F9F9FF"/>
<path d="M290.449 369.709L296.88 364.387L280.686 349.021L273.778 354.921L290.449 369.709Z" fill="#CB7A63"/>
<path d="M302.085 362.333C301.653 362.063 300.77 362.189 299.861 362.441C299.428 362.567 298.978 362.711 298.582 362.855C298.266 362.972 297.978 363.09 297.735 363.189C297.375 363.342 297.114 363.459 297.023 363.504C296.942 363.522 296.888 363.612 296.879 363.693C296.87 363.72 296.888 363.756 296.906 363.783C296.933 363.828 296.978 363.864 297.032 363.873C297.942 364.116 298.879 364.269 299.824 364.341C300.284 364.404 300.761 364.368 301.202 364.242C301.23 364.233 301.248 364.233 301.266 364.224C301.518 364.143 301.77 364.035 301.995 363.9C302.292 363.657 302.454 363.288 302.418 362.9C302.409 362.675 302.292 362.459 302.085 362.333ZM301.995 362.927C302.04 363.189 301.923 363.45 301.707 363.603C301.536 363.747 301.293 363.837 300.977 363.9C300.671 363.963 300.302 363.981 299.879 363.954C299.383 363.936 298.807 363.855 298.167 363.738C298.032 363.711 297.888 363.684 297.744 363.657C298.51 363.288 299.311 363.008 300.14 362.819C300.581 362.72 301.022 362.648 301.473 362.603C301.608 362.603 301.734 362.63 301.851 362.693C301.95 362.747 302.004 362.828 301.995 362.927Z" fill="#407BFF"/>
<path d="M299.14 358.946C298.725 359.009 298.347 359.261 298.113 359.603C298.041 359.711 297.978 359.819 297.933 359.945C297.392 361.107 297.672 362.863 297.735 363.188C297.744 363.215 297.744 363.224 297.744 363.233C297.753 363.305 297.807 363.368 297.879 363.386C297.915 363.404 297.96 363.413 298.005 363.395C298.032 363.395 298.059 363.377 298.086 363.35C298.239 363.224 298.401 363.053 298.581 362.845C298.842 362.539 299.113 362.17 299.347 361.765C299.905 360.855 300.301 359.828 300.058 359.297C299.959 359.09 299.725 358.856 299.14 358.946ZM299.68 359.486C299.833 359.837 299.536 360.639 299.077 361.431C298.779 361.936 298.437 362.422 298.095 362.782C298.023 362.215 297.951 361.134 298.23 360.333C298.284 360.152 298.365 359.981 298.464 359.846C298.617 359.63 298.833 359.459 299.086 359.387L299.212 359.369C299.59 359.297 299.662 359.441 299.68 359.486Z" fill="#407BFF"/>
<path d="M296.042 364.008L287.973 368.079C287.648 368.232 287.495 368.592 287.594 368.926L289.972 376.473C290.233 377.212 291.044 377.599 291.791 377.338C291.836 377.32 291.89 377.302 291.935 377.275C305.76 372.42 309.993 368.98 311.444 368.196C315.56 365.953 313.245 363.035 311.714 363.396C304.824 365.044 302.509 364.621 299.528 363.846C297.934 363.612 296.529 363.765 296.042 364.008Z" fill="#263238"/>
<path opacity="0.2" d="M280.686 349.029L288.891 356.298L281.974 362.188L273.778 354.929L280.686 349.029Z" fill="black"/>
<path d="M278.138 362.134L288.45 352.632L286.18 348.643L274.256 358.883L278.138 362.134Z" fill="#407BFF"/>
<path opacity="0.5" d="M278.138 362.134L288.45 352.632L286.18 348.643L274.256 358.883L278.138 362.134Z" fill="white"/>
<path d="M284.567 350.038L283.189 351.227L281.126 353.001L279.892 354.046L276.299 357.135L275.605 357.721C275.605 357.721 260.915 349.444 252.738 342.373C247.135 337.528 246.631 335.727 246.046 336.177C238.147 342.184 214.766 362.953 201.517 373.761C201.085 373.806 200.662 373.851 200.221 373.878C193.141 374.401 187.575 373.617 183.252 371.969C183.207 366.223 188.125 352.803 188.53 351.506C188.53 351.506 208.083 332.07 239.759 315.642C240.074 315.48 240.399 315.354 240.714 315.219C241.128 315.039 241.533 314.868 241.957 314.714C243.614 314.084 245.235 313.697 246.811 313.616C248.225 313.544 249.603 313.796 250.927 314.264C251.675 314.525 252.413 314.85 253.125 315.228C253.755 315.543 254.368 315.912 254.962 316.291C255.944 316.912 256.89 317.606 257.781 318.29C259.799 319.848 275.101 339.563 283.333 348.66C283.333 348.669 283.333 348.669 283.333 348.669C283.765 349.182 284.179 349.633 284.567 350.038Z" fill="#407BFF"/>
<g opacity="0.1">
<path d="M284.567 350.038L283.189 351.227L281.126 353.001L279.892 354.046L276.299 357.135L275.605 357.721C275.605 357.721 260.915 349.444 252.738 342.373C247.135 337.528 246.631 335.727 246.046 336.177C238.147 342.184 214.766 362.953 201.517 373.761C201.085 373.806 200.662 373.851 200.221 373.878C193.141 374.401 187.575 373.617 183.252 371.969C183.207 366.223 188.125 352.803 188.53 351.506C188.53 351.506 208.083 332.07 239.759 315.642C240.074 315.48 240.399 315.354 240.714 315.219C241.128 315.039 241.533 314.868 241.957 314.714C243.614 314.084 245.235 313.697 246.811 313.616C248.225 313.544 249.603 313.796 250.927 314.264C251.675 314.525 252.413 314.85 253.125 315.228C253.755 315.543 254.368 315.912 254.962 316.291C255.944 316.912 256.89 317.606 257.781 318.29C259.799 319.848 275.101 339.563 283.333 348.66C283.333 348.669 283.333 348.669 283.333 348.669C283.765 349.182 284.179 349.633 284.567 350.038Z" fill="black"/>
</g>
<path d="M180.22 267.07C181.454 272.681 182.751 280.868 178.905 284.714C183.679 293.126 189.416 300.953 196 308.041C204.439 293.369 196.441 284.3 196.441 284.3C190.118 282.949 190.217 280.4 191.208 276.005L180.22 267.07Z" fill="#CB7A63"/>
<path d="M174.997 285.426C175.465 283.904 176.429 282.589 177.735 281.679C178.996 280.706 192.109 280.562 195.523 281.679C197.513 282.309 199.207 283.642 200.287 285.435L174.997 285.426Z" fill="#407BFF"/>
<path d="M235.493 307.762L238.888 306.213L239.059 311.743C239.059 311.743 237.474 313.157 235.736 313.697C234.07 314.211 232.484 312.68 232.899 310.986C233.232 309.572 234.187 308.392 235.493 307.762Z" fill="#CB7A63"/>
<path d="M243.221 307.772L243.041 309.799C242.996 310.429 242.536 310.951 241.924 311.087L239.024 311.735L238.853 306.205L241.798 306.25C242.581 306.241 243.212 306.863 243.221 307.646C243.221 307.691 243.221 307.736 243.221 307.772Z" fill="#CB7A63"/>
<path d="M192.432 323.488C197.53 326.001 203.781 327.442 209.914 326.406C217.137 325.19 229.719 317.94 235.195 313.779L233.349 311.032C230.62 311.618 208.32 322.948 193.91 312.698C191.226 310.789 180.688 302.926 176.959 303.088C170.916 303.359 171.438 309.69 174.032 312.329C177.085 315.418 188.262 321.435 192.432 323.488Z" fill="#CB7A63"/>
<g opacity="0.2">
<path d="M243.04 309.808C242.986 310.429 242.536 310.961 241.923 311.096L239.041 311.744V311.753C239.041 311.753 237.456 313.167 235.727 313.708C235.547 313.762 235.367 313.798 235.195 313.798L235.186 313.807C229.71 317.968 217.137 325.209 209.914 326.425C203.781 327.452 197.53 326.02 192.432 323.498C188.262 321.444 177.067 315.419 174.032 312.339C171.438 309.7 170.916 303.377 176.959 303.098C180.679 302.936 191.226 310.799 193.91 312.708C207.653 322.48 228.567 312.627 232.845 311.186C232.854 311.123 232.863 311.051 232.881 310.988C233.052 310.285 233.367 309.637 233.817 309.078C234.25 308.529 234.826 308.07 235.475 307.755L238.834 306.223L238.87 306.214L241.788 306.25C242.563 306.241 243.202 306.872 243.202 307.655C243.202 307.691 243.202 307.737 243.202 307.773L243.04 309.808Z" fill="black"/>
<path d="M238.881 306.215L238.853 306.224V306.215H238.881Z" fill="black"/>
</g>
<path d="M211.321 294.477C218.968 311.329 201.234 316.138 209.358 343.77L170.81 344.698C171.071 329.891 176.331 333.07 169.396 305.231C168.811 302.871 167.829 296.108 170.342 289.947C171.323 287.551 173.062 285.516 175.34 284.282C178.186 282.742 190.723 283.949 196.443 284.327C202.639 283.453 210.187 292.37 211.321 294.477Z" fill="#407BFF"/>
<path opacity="0.5" d="M211.321 294.477C218.968 311.329 201.234 316.138 209.358 343.77L170.81 344.698C171.071 329.891 176.331 333.07 169.396 305.231C168.811 302.871 167.829 296.108 170.342 289.947C171.323 287.551 173.062 285.516 175.34 284.282C178.186 282.742 190.723 283.949 196.443 284.327C202.639 283.453 210.187 292.37 211.321 294.477Z" fill="white"/>
<path d="M203.955 261.046C203.847 261.784 204.144 262.388 204.603 262.451C205.063 262.514 205.531 262.001 205.63 261.289C205.738 260.578 205.441 259.947 204.982 259.884C204.522 259.821 204.054 260.343 203.955 261.046Z" fill="#263238"/>
<path d="M204.771 259.892L206.537 259.648C206.537 259.648 205.474 260.855 204.771 259.892Z" fill="#263238"/>
<path d="M204.069 262.018C204.069 262.018 204.826 265.242 205.942 266.89C204.88 267.629 203.349 266.998 203.349 266.998L204.069 262.018Z" fill="#A02724"/>
<path d="M206.5 256.093C206.635 256.039 206.735 255.912 206.762 255.768C206.798 255.543 206.635 255.327 206.41 255.291C205.077 255.057 203.708 255.489 202.754 256.444C202.583 256.606 202.574 256.867 202.727 257.038C202.889 257.209 203.15 257.218 203.321 257.065C203.339 257.047 203.357 257.029 203.375 257.002C204.15 256.264 205.23 255.94 206.284 256.129C206.356 256.129 206.437 256.12 206.5 256.093Z" fill="#263238"/>
<path d="M180.626 255.21C179.896 263.991 179.401 267.684 183.148 272.79C188.786 280.473 199.738 279.464 203.061 271.07C206.069 263.523 206.763 250.436 198.747 245.735C193.037 242.348 185.669 244.231 182.274 249.932C181.319 251.544 180.752 253.354 180.626 255.21Z" fill="#CB7A63"/>
<path d="M203.26 270.548C202.593 269.989 202.089 269.251 201.801 268.404C201.774 268.314 201.828 268.215 201.927 268.179C202.017 268.152 202.116 268.206 202.143 268.305C202.404 269.034 202.837 269.674 203.395 270.187L203.26 270.548Z" fill="#263238"/>
<path d="M174.367 243.798C171.016 248.337 169.494 249.517 173.637 261.595C175.303 266.449 180.14 272.88 182.49 273.465C186.705 274.528 190.803 271.565 193.974 268.584C196.748 265.972 199.405 263.153 201.089 259.739C202.773 256.326 203.395 252.237 202.008 248.697C200.494 244.852 195.154 241.42 191.155 240.573C186.453 239.574 177.15 240.024 174.367 243.798Z" fill="#263238"/>
<path d="M200.629 260.486C200.629 260.486 201.683 262.297 200.35 263.648L200.377 261.234L200.629 260.486Z" fill="#263238"/>
<path d="M200.612 260.486C200.612 260.486 200.999 263.26 198.676 264.296L199.928 261.297L200.612 260.486Z" fill="#263238"/>
<path d="M185.149 272.439C185.149 272.439 182.591 273.601 182.96 276.114L184.825 273.457L185.149 272.439Z" fill="#263238"/>
<path d="M185.249 272.492C185.249 272.492 183.304 274.51 184.583 276.716L185.33 273.555L185.249 272.492Z" fill="#263238"/>
<path d="M204.133 256.857C205.043 255.921 205.97 254.966 206.637 253.84C207.312 252.714 207.718 251.381 207.519 250.093C207.258 248.418 205.997 247.04 204.529 246.193C203.061 245.356 201.377 244.978 199.72 244.608C198.909 244.428 198 244.257 197.288 244.689C196.594 245.104 196.297 245.977 196.342 246.779C196.378 247.58 196.703 248.337 196.991 249.085C198.135 252.012 198.855 255.02 199.405 258.1C199.684 259.658 199.468 260.685 201.008 260.091C202.034 259.685 203.349 257.677 204.133 256.857Z" fill="#263238"/>
<path d="M192.011 261.197C191.92 263.233 192.632 265.214 194.001 266.718C195.829 268.7 198.153 267.403 198.819 264.935C199.432 262.72 199.198 259.018 196.802 257.955C194.406 256.892 192.137 258.721 192.011 261.197Z" fill="#CB7A63"/>
<path d="M294.162 373.753L301.115 366.98L287.659 350.057L279.247 355.019L294.162 373.753Z" fill="#CB7A63"/>
<path d="M308.212 364.89C307.437 364.62 305.852 365.485 304.654 366.25C304.348 366.44 304.078 366.629 303.844 366.791L303.826 366.8C303.781 366.836 303.745 366.863 303.709 366.89C303.438 367.079 303.24 367.223 303.168 367.277C303.078 367.322 303.042 367.412 303.06 367.502C303.087 367.592 303.168 367.655 303.258 367.664C304.087 367.7 304.915 367.673 305.744 367.583C305.933 367.565 306.113 367.547 306.294 367.52C306.897 367.475 307.473 367.277 307.969 366.944C308.149 366.827 308.32 366.701 308.464 366.557C308.725 366.241 308.815 365.809 308.689 365.413C308.635 365.188 308.455 364.98 308.212 364.89ZM308.266 365.539C308.356 365.8 308.311 366.097 308.122 366.313C307.888 366.602 307.419 366.836 306.753 366.998C306.239 367.124 305.618 367.214 304.888 367.25C304.6 367.259 304.294 367.277 303.979 367.268C304.078 367.187 304.177 367.115 304.285 367.043C304.357 366.989 304.429 366.944 304.501 366.89C305.465 366.214 306.528 365.683 307.653 365.314C307.789 365.278 307.933 365.278 308.077 365.323C308.167 365.35 308.239 365.431 308.266 365.539Z" fill="#407BFF"/>
<path d="M304.358 362.018C303.934 362.18 303.601 362.522 303.439 362.937C302.872 364.324 303.709 366.458 303.853 366.791C303.853 366.8 303.853 366.8 303.862 366.8C303.862 366.819 303.862 366.828 303.871 366.828C303.907 366.9 303.97 366.954 304.051 366.963C304.097 366.972 304.142 366.963 304.187 366.945C304.214 366.936 304.25 366.909 304.259 366.891C304.268 366.873 304.277 366.873 304.286 366.864C304.412 366.701 304.547 366.494 304.664 366.251C305.33 364.999 305.952 362.91 305.402 362.189C305.24 361.973 304.943 361.775 304.358 362.018ZM304.133 366.269C303.889 365.558 303.457 364.045 303.853 363.108C303.961 362.847 304.151 362.621 304.403 362.486L304.529 362.423C304.916 362.27 305.015 362.405 305.051 362.45C305.439 362.982 304.835 365.116 304.133 366.269Z" fill="#407BFF"/>
<path opacity="0.2" d="M286.947 349.021L293.287 357.127L284.713 361.91L278.273 354.011L286.947 349.021Z" fill="black"/>
<path d="M170.459 341.753L169.568 345.247C169.432 345.527 169.766 345.788 170.207 345.779L209.908 344.842C210.259 344.824 210.538 344.653 210.556 344.437L209.565 340.771C209.592 340.537 209.277 340.339 208.899 340.348L171.099 341.456C170.846 341.438 170.603 341.555 170.459 341.753Z" fill="#263238"/>
<path d="M205.781 345.255L204.736 345.363C204.529 345.354 204.358 345.3 204.358 345.174L204.34 340.662C204.34 340.536 204.511 340.41 204.718 340.383L205.763 340.266C205.97 340.275 206.141 340.329 206.141 340.464L206.159 344.976C206.15 345.111 205.988 345.237 205.781 345.255Z" fill="#407BFF"/>
<path d="M191.569 345.445L190.524 345.553C190.317 345.544 190.155 345.49 190.146 345.364L190.137 340.851C190.137 340.725 190.308 340.599 190.515 340.572L191.551 340.455C191.758 340.464 191.929 340.518 191.929 340.653L191.947 345.165C191.947 345.31 191.776 345.418 191.569 345.445Z" fill="#407BFF"/>
<path d="M191.569 345.445L190.524 345.553C190.317 345.544 190.155 345.49 190.146 345.364L190.137 340.851C190.137 340.725 190.308 340.599 190.515 340.572L191.551 340.455C191.758 340.464 191.929 340.518 191.929 340.653L191.947 345.165C191.947 345.31 191.776 345.418 191.569 345.445Z" fill="#407BFF"/>
<path d="M292.271 352.65L290.515 353.641L290.506 353.65L287.488 355.352L284.777 356.874L284.768 356.883L281.985 358.45V358.459L280.923 359.063C280.923 359.063 280.679 358.892 280.256 358.576C280.094 358.459 279.905 358.324 279.689 358.162C279.031 357.667 278.104 356.973 277.032 356.118C277.032 356.118 277.032 356.118 277.032 356.109C271.43 351.686 261.46 342.977 258.496 335.069C256.578 337.357 254.281 340.221 251.651 343.391C240.33 357.054 222.722 376.337 201.566 378.85C201.134 378.913 200.711 378.949 200.269 378.985C193.199 379.598 187.624 378.886 183.283 377.292C172.304 373.275 169.242 363.62 169.998 355.415V355.388C170.061 351.551 170.818 344.706 170.818 344.706L210.87 344.751C216.517 337.897 227.838 327.162 239.421 320.389C239.691 320.218 239.97 320.056 240.249 319.911C240.591 319.704 240.943 319.524 241.285 319.335C245.05 317.272 248.814 315.678 252.381 314.814C253.174 314.625 253.957 314.462 254.732 314.345C255.542 314.219 256.344 314.147 257.127 314.111V314.12C262.612 313.868 267.377 315.912 270.61 321.388L291.685 351.794L292.271 352.65Z" fill="#407BFF"/>
<path d="M270.654 311.032L226.396 312.861L227.693 284.697L271.951 282.869L270.654 311.032Z" fill="#407BFF"/>
<path d="M270.143 313.247L226.524 315.049C225.29 315.103 224.327 314.13 224.39 312.896L225.678 284.913C225.732 283.67 226.785 282.625 228.019 282.571L271.638 280.77C272.872 280.716 273.835 281.688 273.772 282.922L272.484 310.906C272.43 312.148 271.377 313.202 270.143 313.247Z" fill="#263238"/>
<path d="M270.655 311.032L226.397 312.861L227.694 284.697L271.952 282.869L270.655 311.032Z" fill="#407BFF"/>
<path opacity="0.9" d="M270.655 311.032L226.397 312.861L227.694 284.697L271.952 282.869L270.655 311.032Z" fill="white"/>
<path opacity="0.1" d="M243.403 281.949L236.09 314.643L238.999 314.526L246.213 281.832L243.403 281.949Z" fill="white"/>
<path opacity="0.1" d="M247.889 281.76L240.576 314.453L246.349 314.219L253.564 281.525L247.889 281.76Z" fill="white"/>
<path d="M256.289 313.598L271.024 313.184C271.276 314.895 270.546 315.534 269.61 315.561L264.899 315.678L261.756 315.75L256.865 315.886L226.522 316.768L226.279 314.634L256.289 313.598Z" fill="#407BFF"/>
<path d="M256.289 313.598L271.024 313.184C271.276 314.895 270.547 315.534 269.61 315.561L264.9 315.678L261.756 315.75L256.866 315.886L219.309 317.038C218.876 317.047 218.48 316.813 218.291 316.417C217.958 315.714 218.453 314.886 219.237 314.859L256.289 313.598Z" fill="#407BFF"/>
<path opacity="0.2" d="M256.289 313.598L271.024 313.184C271.276 314.895 270.547 315.534 269.61 315.561L264.9 315.678L261.756 315.75L256.866 315.886L219.309 317.038C218.876 317.047 218.48 316.813 218.291 316.417C217.958 315.714 218.453 314.886 219.237 314.859L256.289 313.598Z" fill="black"/>
<path opacity="0.2" d="M271.022 313.184L271.112 313.778C271.247 314.697 270.545 315.534 269.608 315.561L264.898 315.678L256.152 315.994L256.296 313.598L271.022 313.184Z" fill="black"/>
<path opacity="0.2" d="M194.703 295.307C194.703 295.307 192.622 299.549 198.63 310.753L201.143 315.319C201.971 316.823 207.483 313.752 209.122 310.933C209.122 310.933 198.594 304.61 194.703 295.307Z" fill="black"/>
<path d="M245.654 308.365L249.842 307.131L249.167 313.607C249.167 313.607 243.321 317.515 241.295 313.778L242.106 311.688C242.736 310.103 244.033 308.878 245.654 308.365Z" fill="#CB7A63"/>
<path d="M254.651 309.671L254.128 312.004C253.975 312.724 253.363 313.256 252.624 313.319L249.139 313.589L249.814 307.113L253.237 307.654C254.146 307.771 254.795 308.608 254.669 309.518C254.669 309.581 254.66 309.626 254.651 309.671Z" fill="#CB7A63"/>
<path d="M210.78 319.308C213.699 323.271 217.805 326.576 222.642 327.522C228.334 328.639 239.286 320.587 244.42 315.372C244.159 313.175 244.312 311.986 242.114 311.68C242.114 311.68 236.467 315.823 225.803 318.308C222.363 319.11 220.066 315.588 217.058 310.464C215.563 307.906 210.717 297.431 208.889 295.099C205.962 291.352 197.613 294.036 200.927 303.051C202.323 306.852 208.394 316.075 210.78 319.308Z" fill="#CB7A63"/>
<path d="M207.663 288.974C213.589 294.414 216.471 304.033 216.471 304.033L202.637 312.463C202.637 312.463 192.523 298.269 194.324 293.324C195.747 289.488 198.386 286.966 201.854 286.75C204.006 286.615 206.078 287.515 207.663 288.974Z" fill="#407BFF"/>
<path d="M175.942 345.986L174.897 346.013C174.69 345.986 174.527 345.914 174.536 345.779L174.915 341.285C174.933 341.15 175.104 341.042 175.311 341.033L176.356 341.006C176.563 341.033 176.725 341.114 176.716 341.24L176.338 345.743C176.329 345.878 176.149 346.013 175.942 345.986Z" fill="#407BFF"/>
<path d="M279.221 360.972L292.695 354.235L291.542 349.443L276.177 356.459L279.221 360.972Z" fill="#407BFF"/>
<path opacity="0.5" d="M279.221 360.972L292.695 354.235L291.542 349.443L276.177 356.459L279.221 360.972Z" fill="white"/>
<path d="M300.574 366.242L291.28 369.061C290.91 369.16 290.676 369.511 290.721 369.89L291.838 378.32C291.982 379.148 292.766 379.716 293.594 379.572C293.648 379.563 293.702 379.554 293.757 379.536C309.284 376.951 314.408 374.105 316.075 373.537C320.839 371.925 318.939 368.403 317.246 368.512C309.644 368.98 307.275 368.106 304.258 366.737C302.646 366.17 301.133 366.071 300.574 366.242Z" fill="#263238"/>
<path d="M175.592 255.109C172.8 255.55 170.035 253.407 169.161 250.723C168.287 248.039 169.008 245.04 170.44 242.599C171.494 240.798 178.402 236.529 180.968 241.338C186.066 250.903 175.592 255.109 175.592 255.109Z" fill="#263238"/>
<path d="M270.252 292.522L243.007 293.675L243.133 290.973L270.378 289.82L270.252 292.522Z" fill="#407BFF"/>
<g opacity="0.7">
<path d="M270.252 292.522L243.007 293.675L243.133 290.973L270.378 289.82L270.252 292.522Z" fill="white"/>
</g>
<path d="M270.094 296.268L242.85 297.43L242.967 294.728L270.211 293.566L270.094 296.268Z" fill="#407BFF"/>
<g opacity="0.7">
<path d="M270.094 296.268L242.85 297.43L242.967 294.728L270.211 293.566L270.094 296.268Z" fill="white"/>
</g>
<path d="M269.926 300.024L242.682 301.186L242.808 298.475L270.052 297.322L269.926 300.024Z" fill="#407BFF"/>
<g opacity="0.7">
<path d="M269.926 300.024L242.682 301.186L242.808 298.475L270.052 297.322L269.926 300.024Z" fill="white"/>
</g>
<path d="M269.755 303.77L242.511 304.932L242.637 302.23L269.882 301.068L269.755 303.77Z" fill="#407BFF"/>
<g opacity="0.7">
<path d="M269.755 303.77L242.511 304.932L242.637 302.23L269.882 301.068L269.755 303.77Z" fill="white"/>
</g>
<path d="M269.592 307.526L242.348 308.688L242.465 305.986L269.709 304.824L269.592 307.526Z" fill="#407BFF"/>
<g opacity="0.7">
<path d="M269.592 307.526L242.348 308.688L242.465 305.986L269.709 304.824L269.592 307.526Z" fill="white"/>
</g>
<path d="M232.042 296.105L232.003 295.205L229.816 295.299L229.855 296.199L232.042 296.105Z" fill="#407BFF"/>
<g opacity="0.5">
<path d="M232.042 296.105L232.003 295.205L229.816 295.299L229.855 296.199L232.042 296.105Z" fill="white"/>
</g>
<path d="M231.941 298.706L231.902 297.807L229.716 297.901L229.754 298.801L231.941 298.706Z" fill="#407BFF"/>
<g opacity="0.5">
<path d="M231.941 298.706L231.902 297.807L229.716 297.901L229.754 298.801L231.941 298.706Z" fill="white"/>
</g>
<path d="M231.835 301.31L231.796 300.41L229.609 300.504L229.648 301.404L231.835 301.31Z" fill="#407BFF"/>
<g opacity="0.5">
<path d="M231.835 301.31L231.796 300.41L229.609 300.504L229.648 301.404L231.835 301.31Z" fill="white"/>
</g>
<path d="M231.734 303.904L231.695 303.004L229.509 303.098L229.547 303.998L231.734 303.904Z" fill="#407BFF"/>
<g opacity="0.5">
<path d="M231.734 303.904L231.695 303.004L229.509 303.098L229.547 303.998L231.734 303.904Z" fill="white"/>
</g>
<path d="M231.628 306.503L231.589 305.604L229.402 305.697L229.441 306.597L231.628 306.503Z" fill="#407BFF"/>
<g opacity="0.5">
<path d="M229.448 306.58L229.529 305.679L231.709 305.58L231.628 306.49L229.448 306.58Z" fill="white"/>
</g>
<path d="M231.542 309.093L231.504 308.193L229.317 308.285L229.355 309.185L231.542 309.093Z" fill="#407BFF"/>
<g opacity="0.5">
<path d="M231.541 309.093L231.503 308.193L229.316 308.285L229.354 309.185L231.541 309.093Z" fill="white"/>
</g>
<path d="M234.286 292.711L229.765 294.387L229.81 293.207L232.313 292.801L229.837 292.63L229.882 291.441L234.286 292.711Z" fill="#407BFF"/>
<path d="M261.884 288.414L243.007 289.216L243.097 287.343L261.975 286.541L261.884 288.414Z" fill="#407BFF"/>
<g opacity="0.7">
<path d="M261.884 288.414L243.007 289.216L243.097 287.343L261.975 286.541L261.884 288.414Z" fill="white"/>
</g>
<path d="M236.417 289.378L233.652 289.504L234.769 288.792L235.075 289.071L235.409 288.783L236.417 289.378Z" fill="#407BFF"/>
<path d="M234.662 288.702L233.545 289.423L233.626 287.766L234.662 288.702Z" fill="#407BFF"/>
<path d="M236.599 287.721L236.509 289.288L235.491 288.684L236.599 287.721Z" fill="#407BFF"/>
<path d="M235.116 288.426L235.109 288.42L235.047 288.486L235.054 288.492L235.116 288.426Z" fill="white"/>
<path d="M235.112 288.476L235.05 288.41L235.043 288.416L235.105 288.482L235.112 288.476Z" fill="white"/>
<path d="M236.597 287.559L235.409 288.639L235.075 288.937L234.769 288.648L233.733 287.712L233.652 287.64L236.597 287.559Z" fill="#407BFF"/>
<path d="M232.038 288.143L232.026 287.873L229.84 287.966L229.851 288.236L232.038 288.143Z" fill="#407BFF"/>
<path d="M232.036 288.834L232.024 288.564L229.838 288.657L229.849 288.927L232.036 288.834Z" fill="#407BFF"/>
<path d="M232.038 289.52L232.026 289.25L229.84 289.343L229.851 289.613L232.038 289.52Z" fill="#407BFF"/>
<path d="M340.898 161.432H327.776C326.587 161.432 325.623 160.468 325.623 159.28C325.623 158.091 326.587 157.127 327.776 157.127H340.898C342.087 157.127 343.051 158.091 343.051 159.28C343.051 160.468 342.087 161.432 340.898 161.432Z" fill="#407BFF"/>
<g opacity="0.7">
<path d="M340.898 161.432H327.776C326.587 161.432 325.623 160.468 325.623 159.28C325.623 158.091 326.587 157.127 327.776 157.127H340.898C342.087 157.127 343.051 158.091 343.051 159.28C343.051 160.468 342.087 161.432 340.898 161.432Z" fill="white"/>
</g>
<path d="M389.041 205.663L338.731 298.25C338.082 299.439 336.587 299.88 335.398 299.232L249.792 252.713C248.603 252.065 248.161 250.57 248.81 249.381L314.242 128.955C314.891 127.766 316.386 127.324 317.575 127.973L375.261 159.316L389.041 205.663Z" fill="#407BFF"/>
<g opacity="0.2">
<path d="M389.041 205.663L338.731 298.25C338.082 299.439 336.587 299.88 335.398 299.232L249.792 252.713C248.603 252.065 248.161 250.57 248.81 249.381L314.242 128.955C314.891 127.766 316.386 127.324 317.575 127.973L375.261 159.316L389.041 205.663Z" fill="white"/>
</g>
<path d="M360.811 226.444L296.875 191.951L294.737 195.914L358.673 230.407L360.811 226.444Z" fill="#407BFF"/>
<path d="M352.075 242.637L288.139 208.145L286.001 212.108L349.937 246.6L352.075 242.637Z" fill="#407BFF"/>
<path d="M343.342 258.83L279.406 224.338L277.268 228.301L341.204 262.794L343.342 258.83Z" fill="#407BFF"/>
<path d="M375.333 159.271L360.158 187.201C359.509 188.39 359.95 189.885 361.139 190.533L388.978 205.664L375.333 159.271Z" fill="#407BFF"/>
<path opacity="0.7" d="M375.333 159.271L360.158 187.201C359.509 188.39 359.95 189.885 361.139 190.533L388.978 205.664L375.333 159.271Z" fill="white"/>
<path d="M402.153 202.546L351.842 295.133C351.194 296.322 349.699 296.763 348.51 296.115L262.903 249.596C261.714 248.947 261.273 247.452 261.921 246.264L327.354 125.837C328.002 124.649 329.497 124.207 330.686 124.856L388.373 156.198L402.153 202.546Z" fill="#407BFF"/>
<g opacity="0.5">
<path d="M402.153 202.546L351.842 295.133C351.194 296.322 349.699 296.763 348.51 296.115L262.903 249.596C261.714 248.947 261.273 247.452 261.921 246.264L327.354 125.837C328.002 124.649 329.497 124.207 330.686 124.856L388.373 156.198L402.153 202.546Z" fill="white"/>
</g>
<path d="M372.222 222.404L311.699 189.756C310.753 189.251 309.582 189.603 309.069 190.539L308.771 191.089C308.267 192.034 308.618 193.205 309.555 193.719L370.079 226.367C371.024 226.872 372.195 226.52 372.709 225.584L373.006 225.034C373.519 224.089 373.168 222.909 372.222 222.404Z" fill="#407BFF"/>
<path d="M363.488 238.6L302.964 205.951C302.019 205.447 300.848 205.798 300.334 206.735L300.037 207.284C299.533 208.23 299.884 209.401 300.821 209.914L361.344 242.563C362.29 243.067 363.461 242.716 363.974 241.779L364.272 241.23C364.785 240.284 364.434 239.104 363.488 238.6Z" fill="#407BFF"/>
<path d="M354.751 254.793L294.227 222.144C293.281 221.64 292.11 221.991 291.597 222.928L291.3 223.477C290.795 224.423 291.147 225.594 292.083 226.107L352.607 258.756C353.553 259.26 354.724 258.909 355.237 257.972L355.534 257.423C356.048 256.477 355.696 255.306 354.751 254.793Z" fill="#407BFF"/>
<path d="M388.455 156.162L373.279 184.091C372.63 185.28 373.071 186.775 374.26 187.424L402.099 202.555L388.455 156.162Z" fill="#407BFF"/>
<path opacity="0.7" d="M388.455 156.162L373.279 184.091C372.63 185.28 373.071 186.775 374.26 187.424L402.099 202.555L388.455 156.162Z" fill="white"/>
<path d="M384.972 113.715L389.205 132.511C373.174 136.916 358.79 152.776 348.442 167.772C344.362 173.689 340.903 180.561 338.318 187.829C338.318 187.829 370.643 158.585 388.467 156.874L387.62 187.947C387.62 187.947 406.101 151.947 442.001 138.771C441.992 138.762 411.929 117.11 384.972 113.715Z" fill="#407BFF"/>
<path d="M184.904 310.057L193.073 403.428H179.906L171.115 302.951H177.15C181.194 302.951 184.553 306.04 184.904 310.057Z" fill="#407BFF"/>
<path opacity="0.2" d="M184.986 310.905L193.083 403.438H179.915L171.125 302.961H176.313C180.825 302.952 184.59 306.41 184.986 310.905Z" fill="black"/>
<path d="M176.347 309.04L184.606 403.438H106.213L98.0534 310.202C97.7112 306.311 100.782 302.961 104.691 302.961H169.7C173.168 302.952 176.05 305.6 176.347 309.04Z" fill="#407BFF"/>
<path opacity="0.2" d="M176.436 310.067L184.605 403.438H106.213L98.1608 311.427C97.7645 306.879 101.349 302.961 105.915 302.961H168.673C172.717 302.952 176.085 306.041 176.436 310.067Z" fill="white"/>
<path d="M314.308 403.437H106.573L104.312 377.543H303.726C308.328 377.543 312.381 381.272 312.777 385.874L314.308 403.437Z" fill="#407BFF"/>
<path opacity="0.2" d="M314.308 403.437H106.573L104.312 377.543H303.726C308.328 377.543 312.381 381.272 312.777 385.874L314.308 403.437Z" fill="white"/>
<path d="M323.835 413.353H104.13C101.284 413.353 98.9697 411.047 98.9697 408.192C98.9697 405.346 101.275 403.031 104.13 403.031H323.835C326.681 403.031 328.996 405.337 328.996 408.192C328.996 411.038 326.681 413.353 323.835 413.353Z" fill="#407BFF"/>
<path opacity="0.2" d="M323.836 413.353H196.295C193.448 413.353 191.134 411.047 191.134 408.192C191.134 405.346 193.439 403.031 196.295 403.031H323.836C326.682 403.031 328.996 405.337 328.996 408.192C328.996 411.038 326.682 413.353 323.836 413.353Z" fill="black"/>
<path d="M107.012 413.354L109.615 422.207H114.82L117.684 413.354H107.012Z" fill="#263238"/>
<path opacity="0.5" d="M107.012 413.354L109.615 422.207H114.82L117.684 413.354H107.012Z" fill="white"/>
<path d="M181.613 413.354L184.216 422.207H189.422L192.286 413.354H181.613Z" fill="#263238"/>
<path opacity="0.5" d="M181.613 413.354L184.216 422.207H189.422L192.286 413.354H181.613Z" fill="white"/>
<path d="M238.715 413.354L241.318 422.207H246.523L249.388 413.354H238.715Z" fill="#263238"/>
<path opacity="0.5" d="M238.715 413.354L241.318 422.207H246.523L249.388 413.354H238.715Z" fill="white"/>
<path d="M313.316 413.354L315.919 422.207H321.125L323.989 413.354H313.316Z" fill="#263238"/>
<path opacity="0.5" d="M313.316 413.354L315.919 422.207H321.125L323.989 413.354H313.316Z" fill="white"/>
</svg>
