<svg width="551" height="370" viewBox="0 0 551 370" fill="none" xmlns="http://www.w3.org/2000/svg">
<path d="M254.884 0C114.284 0 0.314453 113.98 0.314453 254.57C0.314453 295.92 10.1745 334.98 27.6745 369.5H482.094C499.594 334.98 509.454 295.92 509.454 254.57C509.454 113.98 395.474 0 254.884 0Z" fill="#F9F9FF"/>
<path d="M83.6845 39.5794C94.2386 39.5794 102.794 31.0235 102.794 20.4694C102.794 9.91521 94.2386 1.35938 83.6845 1.35938C73.1303 1.35938 64.5745 9.91521 64.5745 20.4694C64.5745 31.0235 73.1303 39.5794 83.6845 39.5794Z" fill="#F9F9FF"/>
<path d="M539.684 314.56C545.87 314.56 550.884 309.546 550.884 303.36C550.884 297.175 545.87 292.16 539.684 292.16C533.499 292.16 528.484 297.175 528.484 303.36C528.484 309.546 533.499 314.56 539.684 314.56Z" fill="#F9F9FF"/>
<path d="M453.424 59.1802C456.329 59.1802 458.684 56.8252 458.684 53.9202C458.684 51.0151 456.329 48.6602 453.424 48.6602C450.519 48.6602 448.164 51.0151 448.164 53.9202C448.164 56.8252 450.519 59.1802 453.424 59.1802Z" fill="#F9F9FF"/>
<path fill-rule="evenodd" clip-rule="evenodd" d="M60.1342 127.671C60.1342 142.058 48.4712 153.721 34.0842 153.721C19.6972 153.721 8.03418 142.058 8.03418 127.671C8.03418 113.284 19.6972 101.621 34.0842 101.621C48.4712 101.621 60.1342 113.284 60.1342 127.671ZM496.545 192.321C506.668 192.321 514.875 184.115 514.875 173.991C514.875 163.868 506.668 155.661 496.545 155.661C486.421 155.661 478.215 163.868 478.215 173.991C478.215 184.115 486.421 192.321 496.545 192.321ZM18.3948 359.381C26.6405 359.381 33.3248 352.697 33.3248 344.451C33.3248 336.205 26.6405 329.521 18.3948 329.521C10.1492 329.521 3.46484 336.205 3.46484 344.451C3.46484 352.697 10.1492 359.381 18.3948 359.381Z" fill="white"/>
<path d="M514.134 343.469H510.424V339.759C510.424 339.219 509.984 338.779 509.444 338.779C508.904 338.779 508.464 339.219 508.464 339.759V343.469H504.754C504.214 343.469 503.774 343.909 503.774 344.449C503.774 344.989 504.214 345.429 504.754 345.429H508.464V349.139C508.464 349.679 508.904 350.119 509.444 350.119C509.984 350.119 510.424 349.679 510.424 349.139V345.429H514.134C514.674 345.429 515.114 344.989 515.114 344.449C515.114 343.909 514.684 343.469 514.134 343.469Z" fill="url(#paint0_linear_154_63139)"/>
<path d="M432.827 292.396C435.277 288.33 437.098 283.99 438.297 279.521L447.978 277.67L448.076 266.965L448.175 256.26L438.532 254.226C437.417 249.735 435.679 245.357 433.305 241.253L438.836 233.105L431.34 225.464L423.844 217.824L415.597 223.196C411.53 220.745 407.19 218.925 402.722 217.726L400.871 208.045L390.165 207.946L379.46 207.848L377.427 217.491C372.936 218.606 368.558 220.343 364.453 222.718L356.305 217.187L348.665 224.683L341.025 232.179L346.396 240.426C343.946 244.492 342.125 248.832 340.926 253.301L331.245 255.152L331.147 265.857L331.048 276.562L340.691 278.596C341.806 283.087 343.544 287.465 345.918 291.569L340.388 299.718L347.884 307.358L355.379 314.998L363.626 309.626C367.693 312.077 372.033 313.898 376.501 315.096L378.353 324.777L389.058 324.876L399.763 324.975L401.796 315.332C406.288 314.216 410.665 312.479 414.77 310.104L422.918 315.635L430.558 308.139L438.198 300.643L432.827 292.396ZM370.872 284.802C360.721 274.453 360.872 257.838 371.221 247.687C381.569 237.535 398.185 237.687 408.336 248.036C418.487 258.384 418.336 274.999 407.987 285.151C397.646 295.302 381.023 295.143 370.872 284.802Z" fill="url(#paint1_linear_154_63139)"/>
<path d="M178.613 205.965C180.122 202.756 181.139 199.395 181.693 195.981L188.741 193.864L187.998 185.905L187.254 177.947L179.94 177.173C178.772 173.918 177.141 170.807 175.069 167.932L178.552 161.46L172.399 156.354L166.246 151.248L160.525 155.869C157.316 154.359 153.955 153.342 150.541 152.788L148.424 145.74L140.466 146.484L132.507 147.227L131.733 154.549C128.478 155.717 125.368 157.348 122.492 159.419L116.02 155.937L110.914 162.09L105.808 168.243L110.429 173.964C108.919 177.173 107.902 180.534 107.349 183.948L100.3 186.065L101.044 194.023L101.787 201.982L109.101 202.756C110.27 206.011 111.901 209.121 113.972 211.997L110.49 218.468L116.643 223.574L122.796 228.68L128.516 224.06C131.725 225.57 135.086 226.586 138.5 227.14L140.617 234.189L148.576 233.445L156.535 232.702L157.308 225.38C160.563 224.212 163.674 222.581 166.549 220.509L173.021 223.992L178.127 217.839L183.233 211.686L178.613 205.965ZM132.014 205.047C123.683 198.136 122.53 185.784 129.442 177.446C136.353 169.116 148.705 167.962 157.043 174.874C165.373 181.786 166.527 194.137 159.622 202.475C152.703 210.806 140.344 211.959 132.014 205.047Z" fill="url(#paint2_linear_154_63139)"/>
<path d="M414.799 366.938H414.131V319.247C414.131 308.633 405.497 299.999 394.883 299.999H345.811C334.825 299.999 325.895 291.062 325.895 280.083V190.929C325.895 180.315 317.261 171.681 306.647 171.681H181.516V171.014H306.647C317.633 171.014 326.563 179.951 326.563 190.929V280.083C326.563 290.697 335.197 299.331 345.811 299.331H394.883C405.869 299.331 414.799 308.269 414.799 319.247V366.938V366.938Z" fill="#64A4FF"/>
<path d="M213.602 140.801C213.602 140.801 221.173 170.959 202.995 179.198C184.809 187.445 188.292 172.347 188.292 172.347C188.292 172.347 180.834 170.276 201.129 158.767C210.696 153.35 213.602 140.801 213.602 140.801Z" fill="#BBD070"/>
<path d="M261.212 143.434C261.212 143.434 264.937 169.722 230.531 181.08C196.117 192.445 191.215 206.853 191.215 206.853C191.215 206.853 190.184 148.593 261.212 143.434Z" fill="#97A43C"/>
<path d="M191.062 196.147C180.857 192.255 205.113 171.368 223.754 171.937C242.395 172.499 255.027 179.403 267.508 176.482C267.508 176.482 241.302 215.327 191.062 196.147Z" fill="#48753A"/>
<path d="M225.34 213.598C225.924 205.669 226.334 198.257 226.569 191.345C224.657 190.329 222.358 189.145 220.515 188.273C214.817 185.564 206.888 181.907 201.79 179.57C198.808 178.197 195.887 177.203 195.887 177.203C195.887 177.203 175.539 175.253 173.885 175.36C173.362 175.39 170.82 176.278 167.482 177.545C160.267 180.284 146.352 185.86 144.137 187.446C140.89 189.775 129.267 246.753 128.956 250.622C128.652 254.377 144.767 259.521 159.683 263.467C159.675 269.24 159.554 277.335 159.425 284.725C159.402 285.985 159.379 287.229 159.356 288.428H224.634C224.543 287.161 224.467 285.909 224.407 284.725C224.399 284.566 224.391 284.414 224.384 284.255C224.133 279.255 223.162 270.287 223.413 261.562C223.413 261.562 223.253 252.359 224.171 248.399C224.285 230.911 225.34 213.598 225.34 213.598ZM142.567 247.102C142.673 239.682 152.551 225.889 152.551 225.889C152.551 225.889 153.006 225.691 153.014 225.714C153.021 225.722 153.522 225.646 153.522 225.653C153.53 225.653 155.055 224.197 155.07 224.197C155.434 225.517 158.704 244.15 159.508 255C150.229 253.171 142.513 250.637 142.567 247.102Z" fill="#DBD8E3"/>
<path d="M226.554 284.717C226.121 281.629 225.719 278.541 225.355 275.514C225.355 275.499 225.347 275.484 225.347 275.469C225.226 274.46 225.112 273.466 224.998 272.479C224.991 272.434 224.991 272.381 224.983 272.32C224.505 268.155 224.111 264.164 223.822 260.5C223.61 257.7 223.8 254.961 224.187 252.283C225.325 233.581 225.886 213.855 225.886 213.855C226.485 205.783 226.827 198.241 227.054 191.208C227.054 191.208 201.502 179.13 199.188 178.439C199.188 178.439 204.036 189.82 207.67 215.259C209.066 225.031 211.653 241.472 213.535 258.261C214.551 267.32 216.456 276.546 217.905 284.709C218.125 285.969 218.337 287.206 218.534 288.412H227.085C226.895 287.19 226.721 285.954 226.554 284.717Z" fill="#323657"/>
<path d="M184.006 254.675C185.015 245.214 185.918 235.776 185.486 230.609C181.958 189.033 171.988 178.024 170.539 176.416C169.424 176.841 165.168 178.442 163.924 178.935C157.103 181.621 143.204 186.552 141.33 187.895C138.082 190.224 125.276 249.956 124.889 253.818C124.631 256.428 141.345 261.883 158.4 266.753C158.241 271.427 158.689 278.02 157.133 284.909C156.86 286.13 156.458 286.904 156.397 288.52L180.167 288.429C180.311 287.2 180.463 285.971 180.615 284.727C181.07 281.009 181.54 277.208 182.011 273.164C189.142 275.008 193.983 276.199 193.983 276.199C193.983 276.199 200.682 264.88 202.624 260.297C202.951 259.5 194.332 257.429 184.006 254.675ZM153.272 240.366C153.044 231.854 153.089 225.913 153.089 225.913C153.932 228.826 155.1 237.164 156.124 245.449C152.665 243.704 153.309 242.081 153.272 240.366Z" fill="#323657"/>
<path d="M172.829 176.006C172.829 176.006 175.416 171.113 174.703 157.229C174.506 153.382 194.907 166.348 194.907 166.348C194.907 166.348 194.839 167.676 194.793 169.467C194.771 170.21 194.755 171.029 194.755 171.864C194.755 172.099 194.755 172.327 194.755 172.562C194.755 172.941 194.763 173.321 194.771 173.692C194.778 174.155 194.801 174.618 194.824 175.058C194.846 175.559 194.884 176.029 194.93 176.462C195.013 177.304 195.507 178.783 195.689 179.185C196.614 181.348 180.469 181.477 172.829 176.006Z" fill="#EEA987"/>
<path d="M189.931 184.836L193.694 189.889C193.694 189.889 191.494 192.84 187.579 190.663L189.931 184.836Z" fill="#E8734D"/>
<path d="M192.686 190.094C192.686 190.094 206.463 223.742 203.52 266.479L199.172 274.362L194.271 267.647C194.271 267.647 193.482 210.882 189.567 189.957L192.686 190.094Z" fill="#E8734D"/>
<path d="M193.961 180.132L189.933 184.844C189.933 184.844 183.469 183.592 181.572 180.216C179.675 176.84 193.961 180.132 193.961 180.132Z" fill="#EEA987"/>
<path d="M194.884 176.006C194.884 176.006 194.413 179.594 189.937 184.837L194.831 191.407L197.478 177.774L194.884 176.006Z" fill="#C4C1CC"/>
<path d="M174.061 171.689C174.061 171.689 183.4 182.258 189.94 184.838L186.905 192.356L171.997 175.908L174.061 171.689Z" fill="#C4C1CC"/>
<path d="M270.102 267.299C270.102 267.299 257.697 255.274 249.564 253.271C245.801 252.346 240.854 247.156 236.143 241.056C234.595 239.046 233.07 236.937 231.621 234.85C231.621 234.843 231.621 234.843 231.621 234.843C225.847 226.505 221.326 218.515 221.326 218.515C221.326 218.515 204.255 198.516 217.957 189.602C217.957 189.602 223.829 189.473 227.046 191.225C230.354 193.023 237.418 207.757 238.616 210.367C239.815 212.969 252.781 237.21 253.654 237.756C254.526 238.302 255.968 240.29 261.157 243.09C267.507 246.511 277.492 256.526 277.492 256.526L270.102 267.299Z" fill="#323657"/>
<path d="M210.577 281.214C210.577 281.214 208.847 281.145 208.104 280.743C208.104 280.743 206.806 279.909 205.85 279.378C205.547 279.211 205.274 279.067 205.092 278.998C204.325 278.695 202.558 278.255 200.926 277.011C199.295 275.766 193.977 270.797 193.977 270.797L197.414 265.516L198.999 260.289C198.999 260.289 211.396 261.526 213.05 262.504C213.21 262.603 213.369 262.702 213.505 262.808C214.826 263.779 215.402 265.054 216.032 265.638C216.26 265.858 218.422 268.164 218.3 269.105C218.133 270.402 217.489 271.245 216.684 271.639C216.684 271.639 216.244 274.173 214.939 275.304C214.939 275.304 214.613 277.656 212.58 278.596C212.587 278.589 211.988 280.933 210.577 281.214Z" fill="#EFAA88"/>
<path d="M190.842 121.409C190.842 121.409 213.246 116.007 208.527 144.375C203.808 172.742 198.437 175.041 184.788 169.389C171.139 163.736 172.087 145.588 171.275 136.712C170.456 127.835 183.672 121.826 190.842 121.409Z" fill="#EEA886"/>
<path d="M179.068 141.053C178.734 138.564 173.787 137.722 173.446 141.47C173.105 145.218 175.836 151.743 177.702 151.075C179.569 150.4 179.531 144.49 179.068 141.053Z" fill="#EEA886"/>
<path d="M172.579 151.211C172.579 151.211 173.027 142.289 176.282 141.962C179.537 141.636 180.09 145.217 180.09 145.217L183.383 145.786C183.383 145.786 182.23 137.987 185.462 136.576C188.694 135.165 206.584 140.566 209.163 138.237C211.735 135.908 210.279 120.074 205.529 117.98C200.78 115.879 187.677 111.213 178.224 117.813C178.224 117.813 170.766 117.077 169.749 123.094C168.725 129.125 170.493 146.773 172.579 151.211Z" fill="#16202E"/>
<path d="M203.233 260.28L193.985 276.183C193.985 276.183 169.479 269.87 163.766 268.254L176.838 252.701C176.831 252.701 196.101 257.109 203.233 260.28Z" fill="#323657"/>
<path d="M194.826 175.058C182.808 173.836 178.15 164.58 178.15 164.58C185.707 172.068 194.758 171.864 194.758 171.864C194.758 172.099 194.758 172.326 194.758 172.562C194.758 172.941 194.765 173.32 194.773 173.692C194.78 174.162 194.803 174.618 194.826 175.058Z" fill="#A77860"/>
<path d="M360.758 316.029C360.098 315.157 359.059 314.588 357.883 314.573C356.259 314.55 354.863 315.597 354.37 317.054C354.249 317.41 354.181 317.782 354.181 318.176C354.173 318.632 354.257 319.072 354.401 319.481C354.636 320.134 355.053 320.695 355.592 321.113C356.13 321.53 356.783 321.795 357.496 321.864C357.595 321.871 357.686 321.879 357.784 321.879C357.845 321.879 357.906 321.879 357.967 321.879C357.989 321.879 358.012 321.879 358.027 321.879C358.391 321.856 358.748 321.788 359.074 321.666C360.463 321.166 361.464 319.838 361.479 318.275C361.502 317.433 361.229 316.651 360.758 316.029ZM358.771 320.801C358.52 320.893 358.255 320.946 357.982 320.961C357.921 320.961 357.86 320.961 357.8 320.961C357.542 320.961 357.291 320.915 357.049 320.847C356.722 320.748 356.419 320.597 356.153 320.392C356.055 320.316 355.964 320.232 355.88 320.149C355.387 319.648 355.083 318.95 355.091 318.192C355.091 317.994 355.121 317.797 355.159 317.615C355.182 317.524 355.205 317.433 355.235 317.349C355.607 316.257 356.646 315.475 357.868 315.491C358.74 315.498 359.522 315.923 360.015 316.568C360.372 317.038 360.584 317.63 360.576 318.267C360.561 319.436 359.81 320.422 358.771 320.801Z" fill="#4DA8F2"/>
<path d="M220.622 247.224C234.551 261.564 252.95 279.613 252.95 279.613L260.142 265.956C260.142 265.956 243.8 246.799 232.715 234.008C229.324 235.677 223.088 239.652 220.622 247.224Z" fill="#EEA886"/>
<path d="M212.017 266.502C212.017 266.502 215.765 268.315 216.743 269.119C217.722 269.924 221.69 272.898 222.653 273.596C223.617 274.294 221.204 276.282 214.111 273.209C207.017 270.136 212.017 266.502 212.017 266.502Z" fill="#EEA886"/>
<path d="M212.343 225.465L205.811 286.228H291.824L298.364 225.465H212.343Z" fill="#FFC955"/>
<path d="M296.732 283.422H210.044L216.652 221.99H303.341L296.732 283.422ZM210.788 282.746H296.133L302.597 222.658H217.252L210.788 282.746Z" fill="#FFC955"/>
<path d="M213.33 280.758H198.96V286.228H213.33V280.758Z" fill="#FFC955"/>
<path d="M64.3521 286.1H60.7559V289.802H64.3521V286.1Z" fill="#96CBFF"/>
<path d="M67.9486 286.1H64.3524V289.802H67.9486V286.1Z" fill="#95CAFF"/>
<path d="M71.545 286.1H67.9488V289.802H71.545V286.1Z" fill="#94C9FF"/>
<path d="M75.1405 286.1H71.5443V289.802H75.1405V286.1Z" fill="#93C9FF"/>
<path d="M78.7369 286.1H75.1407V289.802H78.7369V286.1Z" fill="#92C8FF"/>
<path d="M82.3333 286.1H78.7371V289.802H82.3333V286.1Z" fill="#91C7FF"/>
<path d="M85.9298 286.1H82.3336V289.802H85.9298V286.1Z" fill="#90C6FF"/>
<path d="M89.5262 286.1H85.93V289.802H89.5262V286.1Z" fill="#8FC6FF"/>
<path d="M93.1226 286.1H89.5264V289.802H93.1226V286.1Z" fill="#8EC5FF"/>
<path d="M96.7181 286.1H93.1219V289.802H96.7181V286.1Z" fill="#8DC4FF"/>
<path d="M100.315 286.1H96.7183V289.802H100.315V286.1Z" fill="#8CC3FF"/>
<path d="M103.911 286.1H100.315V289.802H103.911V286.1Z" fill="#8BC2FF"/>
<path d="M107.507 286.1H103.911V289.802H107.507V286.1Z" fill="#8AC2FF"/>
<path d="M111.103 286.1H107.507V289.802H111.103V286.1Z" fill="#89C1FF"/>
<path d="M114.7 286.1H111.104V289.802H114.7V286.1Z" fill="#88C0FF"/>
<path d="M118.296 286.1H114.7V289.802H118.296V286.1Z" fill="#87BFFF"/>
<path d="M121.892 286.1H118.296V289.802H121.892V286.1Z" fill="#86BFFF"/>
<path d="M125.489 286.1H121.892V289.802H125.489V286.1Z" fill="#85BEFF"/>
<path d="M129.085 286.1H125.489V289.802H129.085V286.1Z" fill="#84BDFF"/>
<path d="M132.68 286.1H129.083V289.802H132.68V286.1Z" fill="#83BCFF"/>
<path d="M136.276 286.1H132.68V289.802H136.276V286.1Z" fill="#82BBFF"/>
<path d="M139.872 286.1H136.276V289.802H139.872V286.1Z" fill="#81BBFF"/>
<path d="M143.476 286.1H139.88V289.802H143.476V286.1Z" fill="#80BAFF"/>
<path d="M147.073 286.1H143.477V289.802H147.073V286.1Z" fill="#7FB9FF"/>
<path d="M150.668 286.1H147.072V289.802H150.668V286.1Z" fill="#7EB8FF"/>
<path d="M154.265 286.1H150.668V289.802H154.265V286.1Z" fill="#7DB7FF"/>
<path d="M157.861 286.1H154.265V289.802H157.861V286.1Z" fill="#7CB7FF"/>
<path d="M161.458 286.1H157.862V289.802H161.458V286.1Z" fill="#7BB6FF"/>
<path d="M165.055 286.1H161.459V289.802H165.055V286.1Z" fill="#7AB5FF"/>
<path d="M168.65 286.1H165.054V289.802H168.65V286.1Z" fill="#79B4FF"/>
<path d="M172.247 286.1H168.651V289.802H172.247V286.1Z" fill="#78B4FF"/>
<path d="M175.843 286.1H172.247V289.802H175.843V286.1Z" fill="#77B3FF"/>
<path d="M179.44 286.1H175.843V289.802H179.44V286.1Z" fill="#76B2FF"/>
<path d="M183.034 286.1H179.438V289.802H183.034V286.1Z" fill="#74B1FF"/>
<path d="M186.631 286.1H183.034V289.802H186.631V286.1Z" fill="#73B0FF"/>
<path d="M190.227 286.1H186.631V289.802H190.227V286.1Z" fill="#72B0FF"/>
<path d="M193.824 286.1H190.228V289.802H193.824V286.1Z" fill="#71AFFF"/>
<path d="M197.42 286.1H193.824V289.802H197.42V286.1Z" fill="#70AEFF"/>
<path d="M201.015 286.1H197.419V289.802H201.015V286.1Z" fill="#6FADFF"/>
<path d="M204.612 286.1H201.016V289.802H204.612V286.1Z" fill="#6EADFF"/>
<path d="M208.208 286.1H204.612V289.802H208.208V286.1Z" fill="#6DACFF"/>
<path d="M211.804 286.1H208.208V289.802H211.804V286.1Z" fill="#6CABFF"/>
<path d="M215.4 286.1H211.804V289.802H215.4V286.1Z" fill="#6BAAFF"/>
<path d="M218.997 286.1H215.4V289.802H218.997V286.1Z" fill="#6AA9FF"/>
<path d="M222.593 286.1H218.997V289.802H222.593V286.1Z" fill="#69A9FF"/>
<path d="M226.188 286.1H222.591V289.802H226.188V286.1Z" fill="#68A8FF"/>
<path d="M229.785 286.1H226.189V289.802H229.785V286.1Z" fill="#67A7FF"/>
<path d="M233.381 286.1H229.785V289.802H233.381V286.1Z" fill="#66A6FF"/>
<path d="M236.978 286.1H233.382V289.802H236.978V286.1Z" fill="#65A6FF"/>
<path d="M240.574 286.1H236.978V289.802H240.574V286.1Z" fill="#64A5FF"/>
<path d="M244.171 286.1H240.574V289.802H244.171V286.1Z" fill="#63A4FF"/>
<path d="M247.767 286.1H244.171V289.802H247.767V286.1Z" fill="#62A3FF"/>
<path d="M251.362 286.1H247.765V289.802H251.362V286.1Z" fill="#61A2FF"/>
<path d="M254.966 286.1H251.37V289.802H254.966V286.1Z" fill="#60A2FF"/>
<path d="M258.563 286.1H254.967V289.802H258.563V286.1Z" fill="#5FA1FF"/>
<path d="M262.158 286.1H258.562V289.802H262.158V286.1Z" fill="#5EA0FF"/>
<path d="M265.755 286.1H262.159V289.802H265.755V286.1Z" fill="#5D9FFF"/>
<path d="M269.35 286.1H265.754V289.802H269.35V286.1Z" fill="#5C9EFF"/>
<path d="M272.948 286.1H269.351V289.802H272.948V286.1Z" fill="#5B9EFF"/>
<path d="M276.543 286.1H272.947V289.802H276.543V286.1Z" fill="#5A9DFF"/>
<path d="M280.139 286.1H276.543V289.802H280.139V286.1Z" fill="#599CFF"/>
<path d="M283.736 286.1H280.14V289.802H283.736V286.1Z" fill="#589BFF"/>
<path d="M287.332 286.1H283.736V289.802H287.332V286.1Z" fill="#579BFF"/>
<path d="M290.929 286.1H287.333V289.802H290.929V286.1Z" fill="#569AFF"/>
<path d="M294.525 286.1H290.929V289.802H294.525V286.1Z" fill="#5599FF"/>
<path d="M437.38 365.086H234.84V368.788H437.38V365.086Z" fill="#FFC955"/>
<path d="M253.34 249.7C250.7 249.161 248 251.466 247.308 254.849C246.617 258.232 248.197 261.412 250.837 261.951C253.476 262.49 256.177 260.185 256.868 256.802C257.559 253.419 255.98 250.24 253.34 249.7Z" fill="#CFA345"/>
<path d="M411.353 230.783C411.353 230.783 413.341 234.144 414.176 234.697C415.314 235.441 414.6 236.2 414.062 236.2C413.523 236.2 410.761 236.397 410.155 235.707C409.548 235.016 409.244 232.953 408.683 232.406C408.114 231.868 407.537 229.72 408.956 229.197C410.215 228.734 411.353 230.783 411.353 230.783Z" fill="#6069A8"/>
<path d="M410.501 229.303C410.501 229.303 412.777 233.241 413.164 233.825C413.558 234.409 412.428 234.409 411.73 234.129C411.032 233.855 409.272 231.026 409.014 230.51C408.71 229.895 408.961 229.189 408.961 229.189L410.501 229.303Z" fill="#202338"/>
<path d="M408.203 231.428L408.726 235.464L408.999 235.479L408.916 232.573L408.203 231.428Z" fill="#6069A8"/>
<path d="M391.68 230.782C391.68 230.782 393.668 234.143 394.502 234.697C395.64 235.44 394.927 236.199 394.388 236.199C393.85 236.199 391.088 236.396 390.481 235.706C389.874 235.015 389.571 232.952 389.009 232.405C388.44 231.867 387.841 229.659 389.282 229.196C390.549 228.786 391.68 230.782 391.68 230.782Z" fill="#6069A8"/>
<path d="M390.946 229.309C390.946 229.309 393.101 233.239 393.488 233.823C393.883 234.407 392.752 234.407 392.054 234.127C391.356 233.853 389.596 231.024 389.338 230.508C389.035 229.893 389.285 229.188 389.285 229.188L390.946 229.309Z" fill="#202338"/>
<path d="M388.519 231.428L389.051 235.464L389.324 235.479L389.24 232.573L388.519 231.428Z" fill="#6069A8"/>
<path d="M382.881 200.177L400.839 208.356C400.839 208.356 402.842 209.009 403.07 211.232C403.768 218.181 408.965 229.197 408.965 229.197C410.634 230.009 410.505 229.304 410.505 229.304C409.458 225.935 408.176 212.036 407.721 206.444C407.622 205.261 407.561 204.449 407.554 204.191C407.546 204.016 407.349 203.781 407.015 203.516C404.549 201.52 394.413 197.378 394.413 197.378C386.796 197.188 382.881 200.177 382.881 200.177Z" fill="#202338"/>
<path d="M379.502 203.691C380.056 208.547 386.983 207.986 386.983 207.986H395.381C395.381 207.986 393.174 212.894 392.324 217.029C391.421 221.422 389.289 229.199 389.289 229.199C389.289 229.199 389.426 229.464 390.951 229.312C390.951 229.312 397.544 216.179 400.063 212.872C400.601 212.158 402.164 208.304 402.43 206.005C402.521 205.231 402.468 204.632 402.179 204.389C401.891 204.147 401.216 203.684 400.328 203.122C397.695 201.461 393.128 198.912 390.586 198.335C387.18 197.569 381.786 196.135 381.786 196.135C381.786 196.135 378.941 198.836 379.502 203.691Z" fill="#202338"/>
<path d="M385.211 166.31C385.211 166.31 383.952 163.92 384.567 161.386C385.181 158.844 387.541 156.31 390.985 157.479C394.437 158.639 397.229 161.325 395.158 164.421C393.087 167.524 397.032 168.92 396.023 170.399C395.014 171.871 395.401 173.419 395.826 173.76C396.25 174.102 397.624 175.331 397.472 176.772C397.32 178.221 390.773 172.554 390.773 172.554C390.773 172.554 387.214 165.377 385.211 166.31Z" fill="#464240"/>
<path d="M395.736 196.802C395.736 196.802 395.212 199.328 381.806 196.141C381.806 196.141 386.297 194.647 395.736 196.802Z" fill="#EB4747"/>
<path d="M381.652 196.847C381.448 197.241 381.235 197.644 381.03 198.038C385.931 198.182 390.833 198.326 395.734 198.463C394.96 195.868 395.21 192.348 395.347 189.685C395.514 186.423 397.312 184.162 397.122 180.861C398.093 181.021 398.26 181.051 399.231 181.195C397.744 176.962 397.236 174.868 392.623 173.236C391.121 172.705 390.135 172.599 388.511 172.736C383.17 173.176 381.554 173.236 378.929 178.085C383.033 178.737 382.358 180.216 383.61 184.298C384.217 186.294 384.854 188.517 384.528 190.618C384.194 192.689 381.652 194.958 381.652 196.847Z" fill="#5F8CC9"/>
<path d="M390.183 174.261C387.998 173.851 388.46 172.63 388.46 172.63C388.46 172.63 388.559 171.939 388.605 171.075C388.612 170.854 388.62 170.619 388.62 170.384C388.62 170.02 388.605 169.656 388.559 169.307C388.377 167.842 392.527 168.715 392.527 168.715C392.527 168.715 392.284 171.689 392.861 172.577C393.43 173.472 392.368 174.678 390.183 174.261Z" fill="#EEA886"/>
<path d="M386.009 172.629C386.009 172.629 390.417 177.72 392.049 178.904C392.049 178.904 393.923 177.212 392.769 172.736C392.769 172.736 390.637 171.673 386.009 172.629Z" fill="#EEA886"/>
<path d="M386.122 160.369C386.122 160.369 383.831 164.784 386.107 168.965C388.383 173.145 392.844 167.144 393.133 166.438C393.421 165.733 394.954 161.75 391.904 160.543C388.861 159.329 386.775 159.17 386.122 160.369Z" fill="#EEA886"/>
<path d="M386.887 161.932C386.887 161.932 385.309 164.003 385.127 165.535C385.127 165.535 384.497 162.645 386.272 159.86C388.048 157.084 392.562 159.731 393.169 160.839C393.776 161.947 395.544 162.926 392.57 167.705C392.562 167.705 387.213 163.988 386.887 161.932Z" fill="#464240"/>
<path d="M390.544 169.404C390.544 169.404 390.15 170.277 388.594 171.081C388.602 170.861 388.609 170.626 388.609 170.391C388.609 170.383 389.664 170.262 390.544 169.404Z" fill="#A77860"/>
<path d="M367.398 192.879C367.398 192.879 366.306 193.364 365.79 193.144C365.274 192.924 364.477 192.879 364.219 192.879C363.885 192.879 362.831 192.499 362.846 192.917C362.861 193.326 364.561 193.615 364.902 193.744C365.251 193.872 363.863 194.631 363.734 194.973C363.605 195.314 365.168 197.529 366.048 196.9C366.928 196.27 367.406 195.003 367.588 194.927C367.77 194.844 368.248 194.495 368.248 194.495L367.398 192.879Z" fill="#EEA886"/>
<path d="M363.908 194.768C363.908 194.768 361.351 196.884 361.313 197.173C361.275 197.461 361.404 197.59 361.655 197.408C361.905 197.218 364.189 195.435 364.189 195.435C364.189 195.435 361.632 198.455 361.541 198.682C361.488 198.811 361.738 199.085 361.882 199.001C362.026 198.918 364.75 196.065 364.75 196.065C364.75 196.065 362.368 198.895 362.353 199.1C362.345 199.282 362.626 199.487 362.823 199.289C363.013 199.092 365.387 196.596 365.387 196.596C365.387 196.596 363.794 198.766 363.893 198.956C363.953 199.069 364.151 199.32 364.545 198.743C364.94 198.167 366.017 196.922 366.017 196.922L363.908 194.768Z" fill="#EEA886"/>
<path d="M394.497 207.986H386.978C386.978 207.986 380.051 208.54 379.497 203.692C378.944 198.836 381.774 196.143 381.774 196.143C381.774 196.143 385.43 197.114 388.632 197.888C390.233 197.546 392.16 197.326 394.413 197.387C394.413 197.387 407.956 201.863 407.554 204.223C407.546 204.215 401.879 201.188 394.497 207.986Z" fill="#FFC955"/>
<path d="M389.605 199.585L403.944 199.373L396.706 203.045L389.605 199.585Z" fill="#5E5853"/>
<path d="M394.057 197.749C394.057 197.749 390.833 199.001 386.88 197.87L386.698 196.391L394.839 196.846L394.057 197.749Z" fill="#5F8CC9"/>
<path d="M396.706 203.046L389.605 200.299V199.586L397.268 202.348L396.706 203.046Z" fill="#91887F"/>
<path d="M394.011 198.432C393.973 198.963 394.511 199.342 394.997 199.137L395.831 198.781C396.082 198.675 396.226 198.409 396.18 198.143C395.831 195.974 395.088 187.529 396.18 186.088C396.583 185.549 396.833 185.086 396.977 184.677C397.698 186.528 398.585 188.91 398.942 190.192L405.717 199.206L407.986 199.782C405.148 192.954 402.872 189.335 402.872 189.335C402.432 188.144 401.157 184.54 400.035 181.331C399.321 179.305 398.669 177.439 398.32 176.43C398.145 175.921 397.789 175.489 397.326 175.216C396.279 174.586 394.527 173.6 392.941 172.833C392.933 172.833 392.926 172.826 392.918 172.826C392.865 172.803 392.819 172.78 392.766 172.75C395.778 177.31 394.602 190.192 394.011 198.432C394.011 198.424 394.011 198.424 394.011 198.432Z" fill="#EDDAD3"/>
<path d="M382.822 173.122C381.859 173.274 379.461 175.595 378.194 177.94C376.745 180.618 375.266 183.668 374.158 184.669C372.125 186.513 366.427 193.03 366.154 192.878C366.047 192.818 367.717 194.828 367.929 194.919C368.035 194.965 377.291 186.938 378.187 185.716C379.029 184.555 381.282 179.692 381.957 179.798C382.01 179.912 382.83 181.688 383.604 184.29C383.619 184.335 383.626 184.373 383.642 184.419C384.18 186.232 384.127 188.197 383.839 190.412C383.619 192.082 382.374 194.813 381.623 196.141C381.532 196.3 381.555 196.603 381.654 196.839C381.714 196.975 381.798 197.089 381.904 197.127L384.62 198.136L385.258 198.371C385.72 198.546 386.198 198.455 386.562 198.189C386.858 197.977 387.071 197.643 387.124 197.241C387.731 192.59 388.49 187.841 389.104 186.05C391.782 178.198 388.057 172.295 388.057 172.295C388.057 172.295 383.664 172.811 382.822 173.122Z" fill="#EDDAD3"/>
<path d="M396.706 203.044L400.97 191.398L414.717 191.626L410.651 202.354L396.706 203.044Z" fill="#6E6760"/>
<path d="M407.171 195.551C406.594 195.262 405.786 195.708 405.366 196.548C404.946 197.387 405.073 198.302 405.65 198.59C406.227 198.879 407.035 198.433 407.455 197.593C407.875 196.754 407.748 195.84 407.171 195.551Z" fill="#807066"/>
<path d="M390.872 164.763C390.872 164.763 391.752 166.136 390.941 167.312C390.129 168.496 391.145 169.657 391.32 170.908C391.494 172.16 387.921 175.483 391.897 177.16C395.872 178.837 397.132 176.068 396.122 174.543C395.106 173.018 394.393 171.789 394.302 169.611C394.218 167.449 393.505 164.065 390.872 164.763Z" fill="#464240"/>
<path d="M371.456 159.072H379.741V165.081V166.348L378.481 165.081H371.456V159.072Z" fill="#FFCB55"/>
<path d="M324.919 251.275C324.919 251.275 306.854 268.467 315.64 281.858C324.425 295.242 328.545 283.52 328.545 283.52C328.545 283.52 334.486 285.318 325.67 268.809C321.512 261.025 324.919 251.275 324.919 251.275Z" fill="#BBD070"/>
<path d="M291.515 232.633C291.515 232.633 277.714 248.854 296.166 271.311C314.617 293.776 311.757 305.642 311.757 305.642C311.757 305.642 337.446 266.599 291.515 232.633Z" fill="#97A43C"/>
<path d="M315.918 298.867C324.506 300.604 317.557 275.636 304.682 268.026C291.807 260.416 280.282 259.673 273.075 252.344C273.067 252.344 273.628 290.316 315.918 298.867Z" fill="#48753A"/>
<path d="M259.801 309.825C259.801 309.825 260.195 308.846 260.256 308.702C260.316 308.558 260.696 308.315 261.159 308.08C261.621 307.845 262.342 307.731 262.426 307.769C262.502 307.814 262.6 307.822 262.706 308.027C262.805 308.232 262.775 308.459 262.775 308.459C262.775 308.459 263.017 308.657 262.964 308.937C262.964 308.937 263.184 309.135 263.071 309.438C263.071 309.438 263.283 309.635 263.177 309.848C263.177 309.848 262.797 310.09 262.684 310.219C262.57 310.348 261.743 310.796 260.893 311.107C260.885 311.1 259.975 311.115 259.801 309.825Z" fill="#EEA886"/>
<path d="M261.198 309.291C261.198 309.291 261.205 309.822 261.137 309.966C261.069 310.118 262.207 310.452 262.207 310.452C262.207 310.452 261.843 309.291 261.198 309.291Z" fill="#CF8C6C"/>
<path d="M239.862 360.915L240.363 359.359L242.472 359.701L242.161 361.104L239.862 360.915Z" fill="#3B3F66"/>
<path d="M257.176 360.732L257.297 361.589L259.611 361.202L259.482 359.92L257.176 360.732Z" fill="#555C94"/>
<path d="M252.168 336.781C252.168 336.781 251.826 338.639 251.432 340.695C251.363 341.052 251.295 341.416 251.219 341.78C250.832 343.768 250.445 345.672 250.301 346.067C249.975 346.962 242.896 359.936 242.896 359.936C242.896 359.936 239.998 359.716 239.892 359.344C239.892 359.344 245.825 345.255 245.795 344.747C245.764 344.231 246.523 329.793 246.523 329.793C246.523 329.793 252.016 335.946 252.168 336.781Z" fill="#354C70"/>
<path d="M255.408 328.976C255.408 328.976 258.177 343.163 258.412 344.248C258.648 345.333 259.702 359.862 259.702 359.862C259.702 359.862 259.08 361.144 256.781 360.666C256.781 360.666 253.648 345.052 253.382 344.529C252.358 342.495 247.32 332.663 246.835 331.259C246.349 329.856 246.493 328.217 246.493 328.217C246.493 328.217 250.226 326.115 255.408 328.976Z" fill="#354C70"/>
<path d="M254.239 310.598C254.239 310.598 255.453 313.625 255.757 313.541C256.06 313.45 259.55 309.354 259.55 309.354C259.55 309.354 261.151 311.349 260.931 311.576C260.635 311.895 256.508 318.754 255.939 318.625C255.37 318.503 252.836 314.308 252.836 314.308C252.836 314.308 252.707 311.144 254.239 310.598Z" fill="#DEB135"/>
<path d="M249.044 304.818C249.044 304.818 252.193 307.223 253.065 308.179C253.938 309.135 256.335 313.096 256.161 314.287C255.501 318.854 255.182 322.746 255.159 325.864C255.144 328.581 256.009 329.271 255.47 329.309C254.848 329.354 246.92 332.23 245.751 332.579C245.751 332.579 246.518 323.019 246.912 321.912C247.299 320.819 245.66 309.257 249.044 304.818Z" fill="#F2C344"/>
<path d="M269.339 300.25L270.044 303.808L270.75 307.374C270.75 307.374 266.706 306.107 262.116 307.018L261.805 305.447L261.494 303.869C266.084 302.951 269.339 300.25 269.339 300.25Z" fill="#D9D0C4"/>
<path d="M257.296 361.59C257.296 361.59 259.041 361.248 259.102 361.203C259.163 361.15 259.535 360.459 259.808 360.581C260.081 360.702 260.081 361.537 260.346 361.681C260.612 361.825 262.691 363.229 262.949 363.486C263.207 363.744 264.785 363.593 264.967 364.04C265.149 364.488 265.164 365.535 262.812 365.292C260.46 365.042 257.774 365.429 257.266 365.148C256.75 364.86 257.13 362.265 257.296 361.59Z" fill="#84BDFF"/>
<path d="M239.836 360.876C239.836 360.876 241.611 360.823 241.68 360.777C241.748 360.732 242.226 360.117 242.476 360.276C242.727 360.436 242.59 361.27 242.833 361.452C243.068 361.634 244.904 363.357 245.117 363.652C245.329 363.948 246.907 364.047 247.013 364.517C247.119 364.988 246.968 366.027 244.684 365.405C242.4 364.783 239.684 364.73 239.229 364.373C238.774 364.017 239.563 361.521 239.836 360.876Z" fill="#84BDFF"/>
<path d="M253.643 329.635C253.643 329.635 253.856 330.5 254.197 330.689C254.539 330.879 252.604 332.723 252.604 332.723C252.604 332.723 251.823 331.008 251.845 330.841C251.861 330.659 253.643 329.635 253.643 329.635Z" fill="#EEA987"/>
<path d="M247.642 308.55C247.642 308.55 245.382 319.309 245.199 320.409C245.025 321.448 251.83 331.402 251.83 331.402L254.091 330.059C254.091 330.059 248.598 320.075 248.606 319.62C248.614 319.165 251.239 310.493 251.239 310.493C251.239 310.493 252.339 308.604 250.389 307.686C248.439 306.775 247.642 308.55 247.642 308.55Z" fill="#FFD255"/>
<path d="M254.959 330.369C254.959 330.369 255.695 334.026 255.65 335.149C255.604 336.272 251.431 333.389 251.636 332.273L254.959 330.369Z" fill="#3C5780"/>
<path d="M249.041 304.817C249.041 304.817 254.777 311.084 254.428 310.394C253.168 307.913 252.288 307.495 252.303 307.033C252.319 306.676 252.455 305.644 252.478 305.303C252.523 304.643 252.569 304.112 252.569 304.112C252.569 304.112 249.716 300.106 249.845 301.471C249.974 302.837 249.041 304.817 249.041 304.817Z" fill="#EEA886"/>
<path d="M254.511 297.435C254.511 297.435 255.3 299.286 255.308 299.718C255.315 300.151 255.209 300.485 255.277 300.985C255.346 301.501 255.778 302.586 255.725 302.89C255.664 303.254 254.898 303.064 254.792 303.664C254.686 304.263 254.132 305.386 253.851 305.409C253.138 305.469 250.422 304.354 250.247 303.785C250.073 303.216 249.086 300.045 248.783 299.438C248.48 298.831 253.578 295.523 254.041 296.479C254.511 297.435 254.511 297.435 254.511 297.435Z" fill="#EEA886"/>
<path d="M247.578 298.807C247.221 297.236 249.027 297.039 249.027 297.039C249.027 297.039 250.203 295.666 253.018 295.832C255.832 295.992 255.4 299.671 255.4 299.671C255.4 299.671 253.45 299.383 252.608 299.596C252.608 299.596 252.502 301.166 252.593 301.553L251.531 301.454C251.531 301.454 251.652 300.066 251.136 299.998C250.628 299.929 250.453 302.941 249.505 303.609C249.505 303.609 249.497 303.397 249.376 303.192C249.186 302.858 248.89 302.304 248.64 301.652C248.23 300.741 247.76 299.611 247.578 298.807Z" fill="#16202E"/>
<path d="M251.851 300.341C251.851 300.341 251.457 299.279 250.524 299.97C249.841 300.47 250.547 302.268 251.207 302.253C251.859 302.246 252.132 301.267 251.851 300.341Z" fill="#EEA886"/>
<path d="M250.098 303.283C250.098 303.283 250.235 303.845 250.387 303.981C250.538 304.11 251.252 304.694 252.496 305.081L252.39 306.197C252.39 306.197 249.977 305.263 250.098 303.283Z" fill="#C48A6F"/>
<path d="M260.339 306.826H260.293V311.09H260.339V306.826Z" fill="#96CBFF"/>
<path d="M260.383 306.826H260.338V311.09H260.383V306.826Z" fill="#95CAFF"/>
<path d="M260.43 306.826H260.384V311.09H260.43V306.826Z" fill="#94C9FF"/>
<path d="M260.475 306.826H260.43V311.09H260.475V306.826Z" fill="#93C9FF"/>
<path d="M260.513 306.826H260.468V311.09H260.513V306.826Z" fill="#92C8FF"/>
<path d="M260.559 306.826H260.513V311.09H260.559V306.826Z" fill="#91C7FF"/>
<path d="M260.603 306.826H260.558V311.09H260.603V306.826Z" fill="#90C6FF"/>
<path d="M260.65 306.826H260.605V311.09H260.65V306.826Z" fill="#8FC6FF"/>
<path d="M260.696 306.826H260.65V311.09H260.696V306.826Z" fill="#8EC5FF"/>
<path d="M260.733 306.826H260.687V311.09H260.733V306.826Z" fill="#8DC4FF"/>
<path d="M260.778 306.826H260.733V311.09H260.778V306.826Z" fill="#8CC3FF"/>
<path d="M260.825 306.826H260.779V311.09H260.825V306.826Z" fill="#8BC2FF"/>
<path d="M260.87 306.826H260.825V311.09H260.87V306.826Z" fill="#8AC2FF"/>
<path d="M260.915 306.826H260.869V311.09H260.915V306.826Z" fill="#89C1FF"/>
<path d="M260.961 306.826H260.915V311.09H260.961V306.826Z" fill="#88C0FF"/>
<path d="M260.999 306.826H260.953V311.09H260.999V306.826Z" fill="#87BFFF"/>
<path d="M261.044 306.826H260.999V311.09H261.044V306.826Z" fill="#86BFFF"/>
<path d="M261.092 306.826H261.046V311.09H261.092V306.826Z" fill="#85BEFF"/>
<path d="M261.135 306.826H261.09V311.09H261.135V306.826Z" fill="#84BDFF"/>
<path d="M261.182 306.826H261.136V311.09H261.182V306.826Z" fill="#83BCFF"/>
<path d="M261.22 306.826H261.174V311.09H261.22V306.826Z" fill="#82BBFF"/>
<path d="M261.264 306.826H261.219V311.09H261.264V306.826Z" fill="#81BBFF"/>
<path d="M261.31 306.826H261.265V311.09H261.31V306.826Z" fill="#80BAFF"/>
<path d="M261.356 306.826H261.31V311.09H261.356V306.826Z" fill="#7FB9FF"/>
<path d="M261.402 306.826H261.357V311.09H261.402V306.826Z" fill="#7EB8FF"/>
<path d="M261.439 306.826H261.394V311.09H261.439V306.826Z" fill="#7DB7FF"/>
<path d="M261.484 306.826H261.438V311.09H261.484V306.826Z" fill="#7CB7FF"/>
<path d="M261.53 306.826H261.485V311.09H261.53V306.826Z" fill="#7BB6FF"/>
<path d="M261.575 306.826H261.529V311.09H261.575V306.826Z" fill="#7AB5FF"/>
<path d="M261.621 306.826H261.575V311.09H261.621V306.826Z" fill="#79B4FF"/>
<path d="M261.659 306.826H261.613V311.09H261.659V306.826Z" fill="#78B4FF"/>
<path d="M261.705 306.826H261.66V311.09H261.705V306.826Z" fill="#77B3FF"/>
<path d="M261.751 306.826H261.705V311.09H261.751V306.826Z" fill="#76B2FF"/>
<path d="M261.795 306.826H261.75V311.09H261.795V306.826Z" fill="#74B1FF"/>
<path d="M261.842 306.826H261.796V311.09H261.842V306.826Z" fill="#73B0FF"/>
<path d="M261.887 306.826H261.841V311.09H261.887V306.826Z" fill="#72B0FF"/>
<path d="M261.924 306.826H261.878V311.09H261.924V306.826Z" fill="#71AFFF"/>
<path d="M261.969 306.826H261.924V311.09H261.969V306.826Z" fill="#70AEFF"/>
<path d="M262.016 306.826H261.97V311.09H262.016V306.826Z" fill="#6FADFF"/>
<path d="M262.06 306.826H262.015V311.09H262.06V306.826Z" fill="#6EADFF"/>
<path d="M262.106 306.826H262.06V311.09H262.106V306.826Z" fill="#6DACFF"/>
<path d="M262.145 306.826H262.099V311.09H262.145V306.826Z" fill="#6CABFF"/>
<path d="M262.191 306.826H262.145V311.09H262.191V306.826Z" fill="#6BAAFF"/>
<path d="M262.236 306.826H262.191V311.09H262.236V306.826Z" fill="#6AA9FF"/>
<path d="M262.281 306.826H262.235V311.09H262.281V306.826Z" fill="#69A9FF"/>
<path d="M262.327 306.826H262.282V311.09H262.327V306.826Z" fill="#68A8FF"/>
<path d="M262.364 306.826H262.319V311.09H262.364V306.826Z" fill="#67A7FF"/>
<path d="M262.41 306.826H262.364V311.09H262.41V306.826Z" fill="#66A6FF"/>
<path d="M262.455 306.826H262.41V311.09H262.455V306.826Z" fill="#65A6FF"/>
<path d="M262.501 306.826H262.456V311.09H262.501V306.826Z" fill="#64A5FF"/>
<path d="M262.547 306.826H262.501V311.09H262.547V306.826Z" fill="#63A4FF"/>
<path d="M262.586 306.826H262.54V311.09H262.586V306.826Z" fill="#62A3FF"/>
<path d="M262.63 306.826H262.585V311.09H262.63V306.826Z" fill="#61A2FF"/>
<path d="M262.676 306.826H262.63V311.09H262.676V306.826Z" fill="#60A2FF"/>
<path d="M262.721 306.826H262.676V311.09H262.721V306.826Z" fill="#5FA1FF"/>
<path d="M262.767 306.826H262.721V311.09H262.767V306.826Z" fill="#5EA0FF"/>
<path d="M262.805 306.826H262.759V311.09H262.805V306.826Z" fill="#5D9FFF"/>
<path d="M262.85 306.826H262.804V311.09H262.85V306.826Z" fill="#5C9EFF"/>
<path d="M262.896 306.826H262.851V311.09H262.896V306.826Z" fill="#5B9EFF"/>
<path d="M262.941 306.826H262.895V311.09H262.941V306.826Z" fill="#5A9DFF"/>
<path d="M262.986 306.826H262.941V311.09H262.986V306.826Z" fill="#599CFF"/>
<path d="M263.033 306.826H262.987V311.09H263.033V306.826Z" fill="#589BFF"/>
<path d="M263.07 306.826H263.024V311.09H263.07V306.826Z" fill="#579BFF"/>
<path d="M263.116 306.826H263.07V311.09H263.116V306.826Z" fill="#569AFF"/>
<path d="M263.161 306.826H263.116V311.09H263.161V306.826Z" fill="#5599FF"/>
<path d="M262.307 307.822C262.307 307.822 261.161 308.452 261.237 308.649C261.313 308.846 261.464 308.869 261.464 308.869L261.108 309.34C261.108 309.34 261.047 309.787 261.555 309.719C261.555 309.719 261.457 310.129 261.935 310.007C261.935 310.007 261.995 310.311 262.223 310.288C262.458 310.273 263.179 309.833 263.179 309.833C263.179 309.833 263.293 309.673 263.073 309.423C263.073 309.423 263.202 309.135 262.967 308.922C262.967 308.922 263.035 308.679 262.777 308.444C262.777 308.444 262.883 307.883 262.428 307.754C262.428 307.769 262.352 307.799 262.307 307.822Z" fill="#DB9C7C"/>
<path d="M258.386 303.596H258.318V307.67H258.386V303.596Z" fill="#96CBFF"/>
<path d="M258.455 303.596H258.386V307.67H258.455V303.596Z" fill="#95CAFF"/>
<path d="M258.538 303.596H258.462V307.67H258.538V303.596Z" fill="#94C9FF"/>
<path d="M258.599 303.596H258.531V307.67H258.599V303.596Z" fill="#93C9FF"/>
<path d="M258.675 303.596H258.607V307.67H258.675V303.596Z" fill="#92C8FF"/>
<path d="M258.743 303.596H258.675V307.67H258.743V303.596Z" fill="#91C7FF"/>
<path d="M258.819 303.596H258.751V307.67H258.819V303.596Z" fill="#90C6FF"/>
<path d="M258.886 303.596H258.818V307.67H258.886V303.596Z" fill="#8FC6FF"/>
<path d="M258.962 303.596H258.893V307.67H258.962V303.596Z" fill="#8EC5FF"/>
<path d="M259.03 303.596H258.962V307.67H259.03V303.596Z" fill="#8DC4FF"/>
<path d="M259.114 303.596H259.038V307.67H259.114V303.596Z" fill="#8CC3FF"/>
<path d="M259.175 303.596H259.106V307.67H259.175V303.596Z" fill="#8BC2FF"/>
<path d="M259.251 303.596H259.182V307.67H259.251V303.596Z" fill="#8AC2FF"/>
<path d="M259.319 303.596H259.251V307.67H259.319V303.596Z" fill="#89C1FF"/>
<path d="M259.394 303.596H259.326V307.67H259.394V303.596Z" fill="#88C0FF"/>
<path d="M259.463 303.596H259.395V307.67H259.463V303.596Z" fill="#87BFFF"/>
<path d="M259.539 303.596H259.471V307.67H259.539V303.596Z" fill="#86BFFF"/>
<path d="M259.608 303.596H259.539V307.67H259.608V303.596Z" fill="#85BEFF"/>
<path d="M259.691 303.596H259.615V307.67H259.691V303.596Z" fill="#84BDFF"/>
<path d="M259.752 303.596H259.684V307.67H259.752V303.596Z" fill="#83BCFF"/>
<path d="M259.828 303.596H259.76V307.67H259.828V303.596Z" fill="#82BBFF"/>
<path d="M259.897 303.596H259.829V307.67H259.897V303.596Z" fill="#81BBFF"/>
<path d="M259.971 303.596H259.903V307.67H259.971V303.596Z" fill="#80BAFF"/>
<path d="M260.039 303.596H259.97V307.67H260.039V303.596Z" fill="#7FB9FF"/>
<path d="M260.107 303.596H260.039V307.67H260.107V303.596Z" fill="#7EB8FF"/>
<path d="M260.183 303.596H260.115V307.67H260.183V303.596Z" fill="#7DB7FF"/>
<path d="M260.252 303.596H260.184V307.67H260.252V303.596Z" fill="#7CB7FF"/>
<path d="M260.328 303.596H260.26V307.67H260.328V303.596Z" fill="#7BB6FF"/>
<path d="M260.397 303.596H260.329V307.67H260.397V303.596Z" fill="#7AB5FF"/>
<path d="M260.48 303.596H260.404V307.67H260.48V303.596Z" fill="#79B4FF"/>
<path d="M260.541 303.596H260.473V307.67H260.541V303.596Z" fill="#78B4FF"/>
<path d="M260.616 303.596H260.548V307.67H260.616V303.596Z" fill="#77B3FF"/>
<path d="M260.686 303.596H260.617V307.67H260.686V303.596Z" fill="#76B2FF"/>
<path d="M260.761 303.596H260.692V307.67H260.761V303.596Z" fill="#74B1FF"/>
<path d="M260.829 303.596H260.761V307.67H260.829V303.596Z" fill="#73B0FF"/>
<path d="M260.905 303.596H260.837V307.67H260.905V303.596Z" fill="#72B0FF"/>
<path d="M260.974 303.596H260.906V307.67H260.974V303.596Z" fill="#71AFFF"/>
<path d="M261.057 303.596H260.981V307.67H261.057V303.596Z" fill="#70AEFF"/>
<path d="M261.117 303.596H261.048V307.67H261.117V303.596Z" fill="#6FADFF"/>
<path d="M261.194 303.596H261.126V307.67H261.194V303.596Z" fill="#6EADFF"/>
<path d="M261.262 303.596H261.194V307.67H261.262V303.596Z" fill="#6DACFF"/>
<path d="M261.337 303.596H261.269V307.67H261.337V303.596Z" fill="#6CABFF"/>
<path d="M261.406 303.596H261.338V307.67H261.406V303.596Z" fill="#6BAAFF"/>
<path d="M261.482 303.596H261.414V307.67H261.482V303.596Z" fill="#6AA9FF"/>
<path d="M261.549 303.596H261.481V307.67H261.549V303.596Z" fill="#69A9FF"/>
<path d="M261.626 303.596H261.557V307.67H261.626V303.596Z" fill="#68A8FF"/>
<path d="M261.702 303.596H261.626V307.67H261.702V303.596Z" fill="#67A7FF"/>
<path d="M261.769 303.596H261.701V307.67H261.769V303.596Z" fill="#66A6FF"/>
<path d="M261.839 303.596H261.77V307.67H261.839V303.596Z" fill="#65A6FF"/>
<path d="M261.914 303.596H261.845V307.67H261.914V303.596Z" fill="#64A5FF"/>
<path d="M261.982 303.596H261.914V307.67H261.982V303.596Z" fill="#63A4FF"/>
<path d="M262.058 303.596H261.99V307.67H262.058V303.596Z" fill="#62A3FF"/>
<path d="M262.126 303.596H262.058V307.67H262.126V303.596Z" fill="#61A2FF"/>
<path d="M262.194 303.596H262.125V307.67H262.194V303.596Z" fill="#60A2FF"/>
<path d="M262.279 303.596H262.203V307.67H262.279V303.596Z" fill="#5FA1FF"/>
<path d="M262.346 303.596H262.277V307.67H262.346V303.596Z" fill="#5EA0FF"/>
<path d="M262.413 303.596H262.345V307.67H262.413V303.596Z" fill="#5D9FFF"/>
<path d="M262.484 303.596H262.416V307.67H262.484V303.596Z" fill="#5C9EFF"/>
<path d="M262.558 303.596H262.49V307.67H262.558V303.596Z" fill="#5B9EFF"/>
<path d="M262.627 303.596H262.558V307.67H262.627V303.596Z" fill="#5A9DFF"/>
<path d="M262.703 303.596H262.634V307.67H262.703V303.596Z" fill="#599CFF"/>
<path d="M262.771 303.596H262.703V307.67H262.771V303.596Z" fill="#589BFF"/>
<path d="M262.847 303.596H262.779V307.67H262.847V303.596Z" fill="#579BFF"/>
<path d="M262.923 303.596H262.847V307.67H262.923V303.596Z" fill="#569AFF"/>
<path d="M262.992 303.596H262.923V307.67H262.992V303.596Z" fill="#5599FF"/>
<path d="M260.295 308.679C260.295 308.679 261.19 308.656 261.691 308.853C261.804 308.899 261.903 308.967 261.903 309.088C261.903 309.21 261.728 309.361 261.342 309.392C260.955 309.422 260.461 309.642 260.461 309.642C260.461 309.642 260.052 309.551 260.295 308.679Z" fill="#EEA886"/>
<path d="M251.431 340.695C251.363 341.052 251.295 341.416 251.219 341.78L248.92 335.695C249.223 336.31 251.431 340.695 251.431 340.695Z" fill="#293B57"/>
<path d="M124.888 268.179H88.6078C85.9296 268.179 83.7522 266.009 83.7522 263.323V206.004C83.7522 203.326 85.922 201.148 88.6078 201.148H124.888C127.567 201.148 129.744 203.318 129.744 206.004V263.323C129.744 266.001 127.567 268.179 124.888 268.179Z" fill="#FFC955"/>
<path d="M124.859 244.441H122.476V262.574H124.859V244.441Z" fill="#E3F2FF"/>
<path d="M120.149 246.473H117.766V262.572H120.149V246.473Z" fill="#E3F2FF"/>
<path d="M115.033 249.113H112.65V262.572H115.033V249.113Z" fill="#E3F2FF"/>
<path d="M109.784 252.443H107.402V262.572H109.784V252.443Z" fill="#E3F2FF"/>
<path d="M93.1824 250.297L92.6589 250.115L97.158 237.506L106.9 234.934L110.405 221.095L117.923 217.78L119.608 207.021L120.146 207.105L118.417 218.159L110.868 221.49L107.355 235.381L97.5753 237.969L93.1824 250.297Z" fill="#E3F2FF"/>
<path d="M107.129 236.616C107.938 236.616 108.594 235.96 108.594 235.152C108.594 234.343 107.938 233.688 107.129 233.688C106.321 233.688 105.665 234.343 105.665 235.152C105.665 235.96 106.321 236.616 107.129 236.616Z" fill="#FFC955"/>
<path d="M108.229 236.497C107.486 237.104 106.393 236.99 105.786 236.254C105.179 235.51 105.293 234.418 106.029 233.811C106.773 233.204 107.865 233.318 108.472 234.054C109.079 234.797 108.973 235.897 108.229 236.497ZM106.378 234.236C105.87 234.653 105.794 235.397 106.211 235.905C106.629 236.413 107.38 236.489 107.88 236.072C108.389 235.655 108.465 234.903 108.047 234.403C107.638 233.894 106.886 233.819 106.378 234.236Z" fill="#E3F2FF"/>
<path d="M110.68 222.839C111.489 222.839 112.144 222.183 112.144 221.374C112.144 220.566 111.489 219.91 110.68 219.91C109.871 219.91 109.216 220.566 109.216 221.374C109.216 222.183 109.871 222.839 110.68 222.839Z" fill="#FFC955"/>
<path d="M111.774 222.719C111.03 223.326 109.938 223.213 109.331 222.477C108.724 221.733 108.838 220.641 109.574 220.034C110.317 219.427 111.41 219.54 112.017 220.276C112.631 221.02 112.517 222.112 111.774 222.719ZM109.93 220.458C109.422 220.876 109.346 221.627 109.763 222.128C110.18 222.636 110.932 222.712 111.432 222.295C111.941 221.877 112.017 221.134 111.599 220.625C111.182 220.117 110.431 220.041 109.93 220.458Z" fill="#E3F2FF"/>
<path d="M118.085 219.427C118.893 219.427 119.549 218.771 119.549 217.962C119.549 217.154 118.893 216.498 118.085 216.498C117.276 216.498 116.62 217.154 116.62 217.962C116.62 218.771 117.276 219.427 118.085 219.427Z" fill="#FFC955"/>
<path d="M119.178 219.303C118.434 219.91 117.342 219.797 116.735 219.061C116.128 218.317 116.242 217.225 116.978 216.618C117.721 216.011 118.814 216.124 119.421 216.86C120.035 217.604 119.921 218.696 119.178 219.303ZM117.327 217.042C116.818 217.46 116.742 218.211 117.16 218.712C117.577 219.22 118.32 219.296 118.829 218.879C119.337 218.461 119.413 217.71 118.996 217.209C118.586 216.701 117.835 216.625 117.327 217.042Z" fill="#E3F2FF"/>
<path d="M97.4251 239.327C98.2338 239.327 98.8894 238.671 98.8894 237.863C98.8894 237.054 98.2338 236.398 97.4251 236.398C96.6164 236.398 95.9608 237.054 95.9608 237.863C95.9608 238.671 96.6164 239.327 97.4251 239.327Z" fill="#FFC955"/>
<path d="M98.5206 239.206C97.7771 239.813 96.6845 239.699 96.0776 238.963C95.4706 238.219 95.5844 237.127 96.3204 236.52C97.0639 235.913 98.1564 236.027 98.7634 236.763C99.3779 237.506 99.2641 238.599 98.5206 239.206ZM96.6694 236.945C96.1611 237.362 96.0852 238.106 96.5025 238.614C96.9197 239.122 97.6708 239.198 98.1716 238.781C98.6799 238.364 98.7558 237.612 98.3385 237.112C97.9288 236.603 97.1777 236.528 96.6694 236.945Z" fill="#E3F2FF"/>
<path d="M102.228 223.211H89.6873C89.1107 223.211 88.6403 222.74 88.6403 222.164V221.231C88.6403 220.654 89.1107 220.184 89.6873 220.184H102.228C102.805 220.184 103.275 220.654 103.275 221.231V222.164C103.283 222.74 102.813 223.211 102.228 223.211Z" fill="#EBEBEB"/>
<path d="M102.228 217.91H89.6873C89.1107 217.91 88.6403 217.44 88.6403 216.863V215.93C88.6403 215.353 89.1107 214.883 89.6873 214.883H102.228C102.805 214.883 103.275 215.353 103.275 215.93V216.863C103.283 217.44 102.813 217.91 102.228 217.91Z" fill="#EBEBEB"/>
<path d="M78.1311 225.654C78.1311 225.654 77.7063 229.842 78.4801 230.889C78.4801 230.889 76.4316 230.442 75.9613 229.736C75.4909 229.03 78.1311 225.654 78.1311 225.654Z" fill="#16202E"/>
<path d="M90.914 239.024C90.914 239.024 91.6575 238.523 91.7713 238.455C91.8851 238.379 92.2721 238.394 92.7045 238.447C93.1446 238.5 93.706 238.766 93.7439 238.834C93.7743 238.902 93.8426 238.955 93.8198 239.145C93.7895 239.335 93.6605 239.486 93.6605 239.486C93.6605 239.486 93.7364 239.737 93.5619 239.911C93.5619 239.911 93.6225 240.154 93.3949 240.313C93.3949 240.313 93.448 240.549 93.2735 240.655C93.2735 240.655 92.8942 240.64 92.75 240.678C92.6059 240.715 91.8169 240.64 91.0658 240.442C91.0733 240.442 90.2312 240.26 90.914 239.024Z" fill="#EEA886"/>
<path d="M92.1821 239.365C92.1821 239.365 91.9621 239.752 91.8407 239.836C91.7193 239.911 92.4097 240.655 92.4097 240.655C92.4097 240.655 92.6525 239.654 92.1821 239.365Z" fill="#CF8C6C"/>
<path d="M90.4754 239.091C90.4754 239.091 90.9458 239.038 91.2341 238.909C91.5224 238.772 91.181 240.365 91.181 240.365C91.181 240.365 90.483 239.88 90.0278 239.872C89.565 239.849 90.4754 239.091 90.4754 239.091Z" fill="#EEA886"/>
<path d="M71.1119 281.405C71.1119 281.405 72.5762 283.544 73.0845 283.992C73.0845 283.992 74.1011 284.523 74.1315 284.94C74.1922 285.737 74.2301 286.207 72.8948 286.245C71.5519 286.283 70.7174 286.245 70.467 285.426C70.2242 284.614 69.7993 283.977 69.7993 283.977L69.7007 286.094H69.3972C69.3972 286.094 69.2607 283.977 69.2455 283.673C69.2303 283.37 69.0255 282.209 69.6628 281.693C70.3001 281.185 71.1119 281.405 71.1119 281.405Z" fill="#162D40"/>
<path d="M73.2756 284.103C73.2756 284.103 72.5472 284.308 71.6899 284.088C70.825 283.868 69.998 281.804 69.7476 281.637L69.5276 280.803H71.2119C71.2119 280.803 71.2271 281.417 71.5002 281.948C71.7582 282.472 73.2756 284.103 73.2756 284.103Z" fill="#162D40"/>
<path d="M80.5954 280.609C80.5954 280.609 80.8154 281.124 81.2251 281.663C81.5286 282.058 82.4694 283.681 82.8866 283.795C83.3039 283.909 84.5861 284.136 84.6999 284.85C84.8137 285.57 84.8668 286.079 83.6074 286.132C82.3404 286.185 81.5134 286.261 80.9065 285.373C80.2995 284.485 79.336 283.841 79.336 283.841V286.155H78.8428C78.8428 286.155 78.6152 283.742 78.4862 283.575C78.3572 283.408 78.0158 281.557 79.1842 280.593C80.3602 279.645 80.5954 280.609 80.5954 280.609Z" fill="#162D40"/>
<path d="M82.8871 283.794C82.8871 283.794 81.7566 284.074 81.3166 283.794C80.8841 283.513 79.4047 281.017 78.9191 280.865C78.9191 280.865 79.3971 279.901 80.5958 280.599C80.5958 280.607 82.5684 283.384 82.8871 283.794Z" fill="#162D40"/>
<path d="M70.4659 245.92C70.4659 245.92 68.865 247.999 68.4326 250.464C68.0001 252.93 68.6905 261.2 68.6678 262.421C68.6526 263.643 67.5904 267.429 67.818 269.728C68.0456 272.019 69.2292 281.601 69.2292 281.601L71.9984 281.548C71.9984 281.548 71.4446 271.215 71.5887 270.251C71.7329 269.288 72.1805 265.191 72.2412 264.796C72.3019 264.402 75.3974 253.909 75.3974 252.134C75.3974 250.358 74.32 243.022 70.4659 245.92Z" fill="#1D3B54"/>
<path d="M78.4939 246.732C78.4939 246.732 81.1189 256.755 81.43 258.143C81.7411 259.531 82.3632 261.345 82.3404 261.603C82.3101 261.853 82.0066 266.132 82.0066 266.132L81.2631 280.691H78.4939C78.4939 280.691 77.6062 271.428 77.4621 269.561C77.3179 267.695 78.4787 264.804 78.198 264.008C77.9173 263.219 73.6382 254.061 73.6382 254.061C73.6382 254.061 70.3986 243.826 78.4939 246.732Z" fill="#1D3B54"/>
<path d="M77.6818 231.74C77.6818 231.74 78.7288 231.839 79.5255 232.689C80.3221 233.538 81.0656 234.896 81.2704 235.344C81.4753 235.799 84.3887 239.995 84.5404 240.093C84.6921 240.184 85.9667 239.851 86.9834 239.767C88.6449 239.631 91.1334 238.781 91.1334 238.781L91.5052 240.662C91.5052 240.662 85.3826 242.635 83.9714 242.294C82.2416 241.869 78.266 236.763 78.266 236.763C78.266 236.763 75.2995 233.288 77.6818 231.74Z" fill="#EDDAD3"/>
<path d="M75.8472 230.996C75.8472 230.996 77.2052 231.641 77.6756 231.732C78.146 231.823 79.9821 234.205 80.3007 235.077C80.6194 235.942 80.3007 237.247 79.6406 238.78C78.9806 240.312 79.6027 240.821 79.2992 242.353C78.9958 243.886 78.9958 248.051 79.0565 248.901C79.1096 249.751 70.3163 251.351 68.5562 249.804C68.5562 249.804 69.7473 245.881 71.1509 244.409C71.4544 244.091 71.424 241.966 71.2116 241.443C71.0067 240.912 68.6624 236.967 68.6624 236.967C68.6624 236.967 68.4879 232.961 69.5121 232.172C70.3998 231.481 72.82 231.238 73.2525 231.087C73.7001 230.935 74.9595 230.867 75.8472 230.996Z" fill="#EDDAD3"/>
<path d="M76.286 234.032L77.113 233.061L76.3922 230.512C76.3922 230.519 76.1494 231.938 76.286 234.032Z" fill="#D1C0BA"/>
<path d="M71.1046 231.74C71.1046 231.74 69.39 231.247 68.4112 233.136C67.4325 235.025 67.6753 236.041 67.4477 236.891C67.2201 237.741 66.3173 243.424 66.2566 243.674C66.1959 243.917 65.331 246.807 65.4448 247.695C65.5586 248.583 66.3704 255.305 66.3324 255.532C66.2945 255.76 67.9029 255.312 67.9029 255.312C67.9029 255.312 67.8346 248.446 67.8953 247.877C67.9484 247.308 68.0091 244.334 68.434 243.568C68.8589 242.801 69.9059 238.128 70.1335 237.65C70.3535 237.172 72.5461 232.347 71.1046 231.74Z" fill="#EEA886"/>
<path d="M76.4998 229.434C76.4998 229.434 76.2266 231.93 76.2873 232.742C76.2873 232.742 74.8762 234.16 73.2677 231.088C73.2677 231.088 73.943 229.821 73.4346 228.098C72.9263 226.376 76.4998 229.434 76.4998 229.434Z" fill="#EEA886"/>
<path d="M76.2887 232.741V234.03L74.7638 232.688L76.2887 232.741Z" fill="#EEA886"/>
<path d="M76.2874 234.031L75.6121 233.196L73.3361 230.928L72.4863 231.307L76.2874 234.031Z" fill="#D1C0BA"/>
<path d="M77.1123 233.059L78.1517 233.348L76.3915 230.518L77.1123 233.059Z" fill="#FAE6DE"/>
<path d="M75.6121 233.195L74.6561 234.72L72.4483 231.253L73.3967 230.768L75.6121 233.195Z" fill="#FAE6DE"/>
<path d="M80.4517 239.341C80.4517 239.341 80.7931 237.08 80.4289 235.707C80.4289 235.707 80.2317 236.815 79.7385 238.545L80.4517 239.341Z" fill="#D1C0BA"/>
<path d="M69.891 239.045C69.891 239.045 70.8318 235.934 70.8849 235.768C70.8849 235.768 70.8242 238.628 70.46 240.039C70.46 240.039 70.1186 239.432 69.891 239.045Z" fill="#D1C0BA"/>
<path d="M104.912 223.455L90.1172 242.096L90.6331 242.498L104.912 223.455Z" fill="#54281A"/>
<path d="M93.6294 238.812C93.6294 238.812 92.5217 238.706 92.4837 238.888C92.4458 239.062 92.5368 239.153 92.5368 239.153L92.0589 239.32C92.0589 239.32 91.8085 239.609 92.1878 239.798C92.1878 239.798 91.9223 240.041 92.3168 240.185C92.3168 240.185 92.2106 240.42 92.3851 240.519C92.5596 240.618 93.2728 240.656 93.2728 240.656C93.2728 240.656 93.4245 240.595 93.3942 240.314C93.3942 240.314 93.6218 240.17 93.5611 239.912C93.5611 239.912 93.728 239.768 93.6597 239.487C93.6597 239.487 94.0011 239.138 93.7432 238.835C93.7432 238.827 93.6825 238.812 93.6294 238.812Z" fill="#DB9C7C"/>
<path d="M91.8125 238.445C91.8125 238.445 92.4574 238.855 92.7154 239.234C92.7761 239.318 92.814 239.416 92.7533 239.5C92.6926 239.583 92.4953 239.614 92.207 239.447C91.9187 239.28 91.4711 239.204 91.4711 239.204C91.4711 239.204 91.2207 238.954 91.8125 238.445Z" fill="#EEA886"/>
<path d="M75.3548 220.942C75.3548 220.942 77.8585 220.874 78.3213 223.841C78.7841 226.807 77.7144 229.409 77.2971 229.827C76.8798 230.244 74.3761 229.925 73.7843 228.385C73.1925 226.845 72.3276 225.722 72.4566 224.402C72.5932 223.074 72.2745 220.889 75.3548 220.942Z" fill="#EEA886"/>
<path d="M78.4264 224.957C78.4264 224.957 79.0941 221.262 75.771 220.594C72.4479 219.934 71.2796 222.203 70.9685 223.561C70.6498 224.911 71.0292 228.728 71.0292 228.728C71.0292 228.728 73.2446 230.67 74.5647 231.171C74.5647 231.171 73.457 227.112 73.8743 224.206C73.8743 224.206 76.5752 224.631 78.3657 224.191C78.3657 224.198 78.4189 224.805 78.4264 224.957Z" fill="#16202E"/>
<path d="M76.4391 229.987C76.4391 229.987 75.5666 229.979 74.3906 229.213C74.3906 229.213 75.2252 230.26 76.386 230.639C76.386 230.639 76.4542 230.123 76.4391 229.987Z" fill="#A77860"/>
<path d="M71.5042 249.068L61.8378 250.646L63.0058 257.797L72.6722 256.218L71.5042 249.068Z" fill="#366E9C"/>
<path d="M66.003 257.679C66.003 257.679 65.8513 257.429 65.8361 257.292C65.8361 257.292 65.8285 257.034 65.8134 256.852C65.8058 256.791 65.8058 256.746 65.7982 256.716C65.7678 256.579 65.6692 256.298 65.6844 255.957C65.7071 255.615 66.1699 254.166 66.1699 254.166L67.0273 254.197L67.8315 254.113C67.8315 254.113 68.8026 255.972 68.8254 256.291C68.8254 256.321 68.8254 256.351 68.8254 256.382C68.8178 256.655 68.6888 256.852 68.666 256.996C68.6584 257.049 68.5371 257.565 68.4005 257.634C68.2032 257.732 68.0287 257.717 67.8998 257.641C67.8998 257.641 67.5052 257.816 67.2321 257.74C67.2321 257.74 66.8755 257.914 66.5569 257.717C66.5493 257.709 66.1699 257.846 66.003 257.679Z" fill="#EEA886"/>
<path d="M71.1061 231.74C71.1061 231.74 69.3915 231.247 68.4128 233.136C67.4341 235.025 67.4341 235.829 67.3051 236.755C67.1837 237.627 65.985 242.801 65.9243 243.044C65.8712 243.287 65.4766 246.519 65.4463 247.703C65.4235 248.598 65.636 254.462 65.598 254.69C65.5601 254.918 68.3141 254.296 68.3141 254.296C68.3141 254.296 68.0107 248.886 68.0638 248.317C68.1169 247.748 68.2383 244.926 68.519 244.099C68.8452 243.128 70.1274 238.211 70.355 237.726C70.5751 237.233 72.5476 232.347 71.1061 231.74Z" fill="#EDDAD3"/>
<path d="M159.69 282.586L159.864 280.924C159.864 280.924 157.52 280.909 157.247 281.106C157.247 281.106 157.444 282.502 157.467 282.707C157.497 282.919 159.69 282.586 159.69 282.586Z" fill="#5C544D"/>
<path d="M155.706 286.06C158.49 286.037 159.833 286.227 160.136 285.772C160.432 285.317 159.704 282.434 159.704 282.434C159.704 282.434 159.044 282.676 157.451 282.532C157.451 282.532 156.76 283.374 156.085 283.739C155.417 284.103 154.363 284.247 153.961 284.626C153.68 284.899 152.921 286.083 155.706 286.06Z" fill="#3C4145"/>
<path d="M144.002 282.586L144.176 280.924C144.176 280.924 141.832 280.909 141.559 281.106C141.559 281.106 141.756 282.502 141.779 282.707C141.817 282.919 144.002 282.586 144.002 282.586Z" fill="#5C544D"/>
<path d="M140.025 286.06C142.809 285.984 144.152 286.227 144.455 285.772C144.751 285.317 144.023 282.434 144.023 282.434C144.023 282.434 143.401 282.692 141.77 282.532C141.77 282.532 141.072 283.374 140.404 283.739C139.736 284.103 137.263 284.406 136.868 284.786C136.58 285.059 136.102 286.159 140.025 286.06Z" fill="#3C4145"/>
<path d="M156.473 245.107C156.473 245.107 157.642 248.567 157.482 251.549C157.331 254.53 158.082 257.793 158.393 260.911C158.734 264.386 160.145 272.602 160.198 274.461C160.252 276.32 159.978 282.253 159.978 282.253L157.156 282.321C157.156 282.321 154.789 267.944 154.174 266.48C153.56 265.015 150.517 254.553 150.411 253.385C150.313 252.201 156.473 245.107 156.473 245.107Z" fill="#DBD8E3"/>
<path d="M144.607 245.72C144.607 245.72 143.059 253.891 142.854 255.72C142.649 257.548 142.513 264.551 142.414 265.697C142.315 266.835 141.731 280.628 141.185 282.32H144.789C144.789 282.32 147.558 272.297 147.558 267.556C147.558 262.814 149.697 257.245 151.078 254.119C152.459 250.993 155.623 250.917 156.473 245.113C156.473 245.106 145.76 243.877 144.607 245.72Z" fill="#DBD8E3"/>
<path d="M151.943 217.786C151.943 217.786 149.098 216.724 147.786 218.886C146.473 221.049 146.602 225.381 148.036 225.919C149.47 226.451 151.624 226.177 152.353 224.819C153.089 223.461 153.749 221.504 153.718 220.199C153.688 218.886 152.687 218.166 151.943 217.786Z" fill="#EEA886"/>
<path d="M148.516 225.783C148.516 225.783 148.63 226.526 148.44 226.898C148.25 227.262 152.013 227.277 152.013 227.277C152.013 227.277 152.317 225.282 152.901 223.59C153.478 221.906 148.516 225.783 148.516 225.783Z" fill="#EEA886"/>
<path d="M152.9 223.591C152.9 223.591 152.642 224.016 151.58 223.856C150.518 223.689 149.22 222.278 148.78 222.127C148.34 221.975 148.333 221.709 148.333 221.709L148.052 222.111L147.581 222.142C147.581 222.142 148.014 220.882 147.361 220.366C146.717 219.85 148.037 216.277 151.436 217.468C151.436 217.468 153.871 217.946 154.023 219.433C154.182 221.004 153.484 222.847 152.9 223.591Z" fill="#FCCCA2"/>
<path d="M148.211 226.852C148.211 226.852 148.226 226.154 148.537 226.086C148.855 226.018 152.049 225.714 152.436 225.866V226.686C152.444 226.678 151.693 227.141 148.211 226.852Z" fill="#E2D2CA"/>
<path d="M148.4 221.163C148.461 220.913 149.09 220.2 149.333 220.966C149.576 221.732 148.969 222.757 148.628 222.666C148.294 222.575 148.248 221.793 148.4 221.163Z" fill="#EEA886"/>
<path d="M148.21 226.85C148.21 226.85 146.457 227.48 144.432 228.337C144.432 228.337 142.102 229.21 141.844 231.782C141.708 233.147 140.259 240.401 139.978 241.015C139.705 241.63 136.48 251.485 136.367 251.69C136.253 251.895 138.999 253.033 139.181 252.942C139.363 252.851 142.307 243.951 142.603 243.291C142.603 243.291 144.295 237.95 144.341 237.161C144.341 237.161 144.386 239.429 144.477 240.067C144.568 240.704 142.967 253.063 143.02 253.405C143.066 253.746 150.281 254.178 153.164 253.86C156.055 253.541 158.384 252.881 158.384 252.881C158.384 252.881 156.115 243.124 156.184 242.047C156.335 239.687 157.124 235.249 157.124 235.249L159.476 239.687L156.464 247.441L157.155 249.793C157.155 249.793 162.754 241.334 162.936 240.56C163.118 239.786 162.663 238.8 162.367 238.162C162.071 237.525 160.129 232.685 159.674 232.002C159.218 231.319 158.452 228.588 156.593 227.829C155.038 227.192 152.436 226.676 152.436 226.676L148.21 226.85Z" fill="#63A4FF"/>
<path d="M146.726 246.982L133.534 243.6L131.174 252.801L144.366 256.184L146.726 246.982Z" fill="#F25F54"/>
<path d="M135.229 253.711C135.229 253.711 134.849 254.318 134.713 254.492C134.576 254.667 135.054 254.773 135.252 254.599C135.456 254.432 135.229 253.711 135.229 253.711Z" fill="#C98462"/>
<path d="M137.976 255.798C137.976 255.798 138.196 255.563 138.249 255.419C138.249 255.419 138.317 255.138 138.378 254.948C138.401 254.887 138.416 254.834 138.431 254.796C138.492 254.66 138.674 254.372 138.735 253.992C138.795 253.613 138.955 251.929 138.955 251.929L137.93 251.671L137.111 251.496C137.111 251.496 135.336 253.264 135.245 253.613C135.237 253.643 135.229 253.681 135.222 253.711C135.169 254.007 135.26 254.258 135.245 254.417C135.245 254.478 135.252 255.062 135.389 255.176C135.578 255.327 135.768 255.358 135.927 255.305C135.927 255.305 136.314 255.585 136.633 255.57C136.633 255.57 136.982 255.843 137.369 255.707C137.369 255.699 137.748 255.942 137.976 255.798Z" fill="#DE9D7D"/>
<path d="M141.966 245.121C141.966 245.121 139.622 252.215 139.197 252.958C139.197 252.958 137.482 252.594 136.382 251.706L138.954 244.059L141.966 245.121Z" fill="#63A4FF"/>
<path d="M353.172 256.176C353.172 256.176 361.859 230.691 345.282 222.786C328.697 214.888 314.615 226.306 311.96 232.49C309.297 238.673 310.002 249.909 312.271 257.746C314.539 265.584 314.206 277.51 309.282 281.501C304.35 285.492 298.243 292.115 298.546 305.605C298.736 313.973 331.473 284.202 331.473 284.202L353.172 256.176Z" fill="#252E3B"/>
<path d="M329.866 286.493C329.866 286.493 316.232 289.513 310.822 292.677C305.413 295.84 293.395 310.384 293.395 316.636C293.395 322.888 345.942 328.73 345.942 328.73L355.904 365.086C355.904 365.086 382.466 358.607 385.622 353.228C388.786 347.856 375.539 309.33 373.27 301.53C370.956 293.579 361.435 288.033 350.373 286.478C339.304 284.945 329.866 286.493 329.866 286.493Z" fill="#FFD255"/>
<path d="M349.424 286.371C349.424 286.371 349.121 302.941 335.98 303.434C322.839 303.927 325.578 287.54 325.578 287.54C325.578 287.54 335.183 283.64 349.424 286.371Z" fill="#EEA886"/>
<path d="M354.987 236.375C354.987 236.375 359.637 263.02 346.398 282.268C332.689 302.207 354.987 236.375 354.987 236.375Z" fill="#252E3B"/>
<path d="M346.608 274.658C346.608 274.658 345.698 282.586 347.223 287.51C348.748 292.441 327.133 292.578 327.148 288.519C327.163 283.914 329.363 280.067 327.292 272.177C325.213 264.286 346.608 274.658 346.608 274.658Z" fill="#EEA886"/>
<path d="M329.842 275.666C329.842 275.666 336.671 282.775 345.396 276.41C345.396 276.41 344.675 280.954 338.4 281.538C332.118 282.122 329.842 275.666 329.842 275.666Z" fill="#A77860"/>
<path d="M338.386 227.133C338.386 227.133 355.631 232.239 353.173 256.175C350.707 280.112 339.448 278.883 338.386 279.058C337.332 279.232 323.956 280.112 319.73 251.069C315.504 222.027 338.386 227.133 338.386 227.133Z" fill="#EEA886"/>
<path d="M333.93 237.809C333.93 237.809 343.3 252.717 353.17 256.177C353.17 256.177 358.557 231.163 336.312 225.92C314.067 220.678 317.55 251.185 319.211 259.325C319.204 259.325 323.839 247.353 333.93 237.809Z" fill="#252E3B"/>
<path d="M321.362 235.562C321.362 235.562 326.293 226.01 334.623 225.577C342.954 225.152 347.908 232.375 347.908 232.375C347.908 232.375 344.653 224.234 334.631 224.234C324.616 224.242 321.362 235.562 321.362 235.562Z" fill="#88C0FF"/>
<path d="M355.281 310.713L361.13 365.088H284.138L278.289 310.713H355.281Z" fill="#5FA0FF"/>
<path d="M359.272 363.221H281.612L275.695 308.17H353.362L359.272 363.221ZM282.212 362.553H358.529L352.755 308.845H276.438L282.212 362.553Z" fill="#5FA0FF"/>
<path d="M320.945 344.11C323.585 343.571 325.164 340.391 324.472 337.008C323.781 333.626 321.081 331.321 318.441 331.861C315.801 332.4 314.222 335.58 314.914 338.963C315.605 342.345 318.306 344.65 320.945 344.11Z" fill="#5189DB"/>
<path d="M368.217 359.623H353.848V365.093H368.217V359.623Z" fill="#5FA0FF"/>
<path d="M309.183 201.807C302.651 201.807 297.34 196.497 297.34 189.964C297.34 183.432 302.651 178.121 309.183 178.121C315.715 178.121 321.026 183.432 321.026 189.964C321.026 196.489 315.708 201.807 309.183 201.807ZM309.183 178.789C303.023 178.789 298.008 183.804 298.008 189.964C298.008 196.125 303.023 201.14 309.183 201.14C315.344 201.14 320.359 196.125 320.359 189.964C320.351 183.804 315.344 178.789 309.183 178.789Z" fill="#64A4FF"/>
<path d="M100.301 322.221L100.293 321.211C102.304 321.196 104.322 321.136 106.31 321.045L106.355 322.054C104.36 322.152 102.326 322.205 100.301 322.221ZM94.2464 322.16C92.2586 322.107 90.2178 322.008 88.192 321.879L88.2527 320.878C90.2709 321.007 92.289 321.098 94.2692 321.151L94.2464 322.16ZM112.402 321.652L112.311 320.65C114.299 320.476 116.309 320.263 118.297 320.005L118.426 321.007C116.431 321.265 114.405 321.477 112.402 321.652ZM82.1529 321.401C80.0892 321.196 78.0635 320.931 76.1364 320.62L76.2958 319.626C78.2001 319.937 80.203 320.195 82.2515 320.4L82.1529 321.401ZM124.42 320.119L124.253 319.125C126.195 318.799 128.183 318.427 130.17 318.017L130.375 319.004C128.372 319.421 126.369 319.793 124.42 320.119ZM70.1807 319.421C68.155 318.928 66.19 318.359 64.3388 317.722L64.665 316.773C66.4783 317.395 68.4129 317.957 70.4159 318.442L70.1807 319.421ZM136.286 317.691L136.05 316.712C137.902 316.272 139.806 315.787 141.892 315.233L142.15 316.204C140.056 316.758 138.137 317.244 136.286 317.691ZM58.7017 315.43C56.8125 314.527 55.0296 313.526 53.3833 312.433L53.9371 311.591C55.5379 312.653 57.2829 313.632 59.1341 314.512L58.7017 315.43ZM147.977 314.596L147.704 313.625C148.546 313.389 149.381 313.154 150.208 312.919C151.323 312.6 152.43 312.289 153.515 311.986L153.789 312.957C152.704 313.26 151.596 313.571 150.481 313.89C149.654 314.125 148.827 314.361 147.977 314.596ZM200.471 313.754C198.612 312.873 196.753 312.1 194.94 311.455L195.281 310.506C197.125 311.166 199.014 311.955 200.903 312.843L200.471 313.754ZM159.608 311.386L159.357 310.408C161.527 309.854 163.454 309.406 165.26 309.027L165.465 310.013C163.682 310.393 161.762 310.84 159.608 311.386ZM189.204 309.763C187.262 309.315 185.274 308.981 183.309 308.784L183.408 307.783C185.411 307.987 187.437 308.321 189.424 308.777L189.204 309.763ZM171.383 309.019L171.254 308.018C173.363 307.745 175.351 307.593 177.323 307.547L177.346 308.557C175.411 308.61 173.461 308.754 171.383 309.019ZM48.5731 308.67C47.0633 307.267 45.6901 305.742 44.4838 304.118L45.288 303.519C46.4564 305.089 47.7917 306.569 49.256 307.934L48.5731 308.67ZM41.2973 298.898C40.4172 297.1 39.6737 295.181 39.0971 293.193L40.0606 292.912C40.6221 294.847 41.3428 296.713 42.2001 298.458L41.2973 298.898ZM37.8452 287.207C37.5873 285.257 37.4431 283.201 37.4355 281.115L38.4446 281.107C38.4522 283.155 38.5888 285.158 38.8467 287.07L37.8452 287.207ZM38.7405 275.136L37.739 275.037C37.9439 273.065 38.2473 271.039 38.6419 269.013L39.6282 269.211C39.2336 271.199 38.9378 273.194 38.7405 275.136ZM41.0469 263.376L40.0758 263.096C41.1 259.56 42.018 257.405 42.056 257.314L42.9816 257.709C42.974 257.732 42.0484 259.902 41.0469 263.376Z" fill="#C2BEBC"/>
<path d="M360.971 141.174C360.956 141.159 359.271 139.664 356.259 137.426L356.859 136.614C359.909 138.882 361.623 140.4 361.638 140.415L360.971 141.174ZM351.335 133.959C349.682 132.851 347.967 131.766 346.245 130.734L346.761 129.869C348.498 130.909 350.22 132.009 351.889 133.116L351.335 133.959ZM341.017 127.752C339.25 126.796 337.444 125.878 335.653 125.021L336.086 124.111C337.891 124.976 339.712 125.901 341.495 126.865L341.017 127.752ZM330.16 122.555C328.302 121.774 326.412 121.046 324.554 120.378L324.895 119.43C326.777 120.097 328.681 120.841 330.555 121.622L330.16 122.555ZM253.646 121.326L253.624 120.317C255.573 120.272 257.576 120.09 259.564 119.763L259.723 120.757C257.69 121.091 255.642 121.281 253.646 121.326ZM247.554 121.008C245.589 120.765 243.571 120.363 241.568 119.832L241.826 118.861C243.783 119.384 245.756 119.771 247.675 120.014L247.554 121.008ZM265.672 119.384L265.391 118.421C266.036 118.231 266.696 118.026 267.348 117.806C268.608 117.381 269.89 116.987 271.164 116.63L271.438 117.601C270.178 117.958 268.911 118.345 267.667 118.762C266.999 118.982 266.332 119.194 265.672 119.384ZM318.826 118.519C316.891 117.95 314.933 117.434 313.014 116.987L313.242 116.008C315.184 116.456 317.164 116.979 319.114 117.556L318.826 118.519ZM235.787 117.927C234.011 117.237 232.198 116.433 230.225 115.484L230.665 114.582C232.608 115.522 234.406 116.311 236.151 116.994L235.787 117.927ZM277.264 116.19L277.067 115.204C279.04 114.809 281.058 114.483 283.068 114.233L283.19 115.234C281.21 115.477 279.214 115.795 277.264 116.19ZM307.119 115.818C305.131 115.492 303.128 115.226 301.163 115.037L301.262 114.035C303.25 114.225 305.275 114.491 307.286 114.824L307.119 115.818ZM130.162 114.862L129.615 114.02C131.338 112.905 133.067 111.82 134.752 110.803L135.275 111.668C133.598 112.67 131.876 113.747 130.162 114.862ZM289.168 114.726L289.123 113.717C291.126 113.626 293.167 113.603 295.2 113.656L295.177 114.665C293.159 114.612 291.148 114.635 289.168 114.726ZM224.839 112.692C223.132 111.767 221.44 110.811 219.558 109.749L220.051 108.869C221.925 109.931 223.617 110.879 225.317 111.805L224.839 112.692ZM140.48 108.649L139.994 107.769C141.8 106.775 143.606 105.826 145.358 104.954L145.806 105.857C144.068 106.722 142.278 107.662 140.48 108.649ZM214.293 106.813C212.32 105.735 210.575 104.817 208.967 104.005L209.415 103.103C211.038 103.914 212.798 104.84 214.778 105.925L214.293 106.813ZM151.261 103.315L150.859 102.389C152.755 101.562 154.652 100.804 156.496 100.136L156.845 101.084C155.016 101.744 153.142 102.496 151.261 103.315ZM203.512 101.479C201.585 100.66 199.749 99.9767 197.898 99.3698L198.209 98.4138C200.083 99.0284 201.941 99.7264 203.899 100.553L203.512 101.479ZM162.543 99.2105L162.262 98.2393C164.25 97.6703 166.23 97.1772 168.164 96.7902L168.362 97.7765C166.465 98.1635 164.508 98.649 162.543 99.2105ZM192.132 97.7993C190.174 97.3744 188.194 97.0482 186.229 96.8357L186.335 95.8343C188.33 96.0467 190.356 96.3729 192.344 96.813L192.132 97.7993ZM174.287 96.8585L174.181 95.857C176.222 95.637 178.263 95.5232 180.258 95.5156V96.5247C178.301 96.5323 176.29 96.6461 174.287 96.8585Z" fill="#C2BEBC"/>
<path d="M235.505 324.807L210.195 317.448L217.782 315.156L235.505 324.807Z" fill="#D6D6D6"/>
<path d="M235.507 324.807L226.046 315.301L220.227 316.484L235.507 324.807Z" fill="#E8E8E8"/>
<path d="M216.023 319.139L216.22 322.067L235.506 324.806L216.023 319.139Z" fill="#C2C2C2"/>
<path d="M108.124 131.6L130.438 119.127L122.767 118.619L108.124 131.6Z" fill="#D6D6D6"/>
<path d="M108.125 131.601L114.991 120.562L120.749 120.41L108.125 131.601Z" fill="#E8E8E8"/>
<path d="M125.301 121.994L125.749 124.809L108.125 131.599L125.301 121.994Z" fill="#C2C2C2"/>
<defs>
<linearGradient id="paint0_linear_154_63139" x1="504.133" y1="350.131" x2="518.883" y2="334.381" gradientUnits="userSpaceOnUse">
<stop stop-color="#DFEDF2"/>
<stop offset="1" stop-color="#E8F8FF"/>
</linearGradient>
<linearGradient id="paint1_linear_154_63139" x1="331.036" y1="266.412" x2="448.172" y2="266.412" gradientUnits="userSpaceOnUse">
<stop stop-color="#96CBFF"/>
<stop offset="1" stop-color="#5599FF"/>
</linearGradient>
<linearGradient id="paint2_linear_154_63139" x1="101.018" y1="194.431" x2="188.028" y2="185.492" gradientUnits="userSpaceOnUse">
<stop stop-color="#96CBFF"/>
<stop offset="1" stop-color="#5599FF"/>
</linearGradient>
</defs>
</svg>
