<svg width="551" height="370" viewBox="0 0 551 370" fill="none" xmlns="http://www.w3.org/2000/svg">
<path d="M254.57 0C113.97 0 0 113.98 0 254.57C0 295.92 9.86 334.98 27.36 369.5H481.78C499.28 334.98 509.14 295.92 509.14 254.57C509.14 113.98 395.16 0 254.57 0Z" fill="#F9F9FF"/>
<path d="M83.37 39.5794C93.9242 39.5794 102.48 31.0235 102.48 20.4694C102.48 9.91521 93.9242 1.35938 83.37 1.35938C72.8158 1.35938 64.26 9.91521 64.26 20.4694C64.26 31.0235 72.8158 39.5794 83.37 39.5794Z" fill="#F9F9FF"/>
<path d="M539.37 314.56C545.556 314.56 550.57 309.546 550.57 303.36C550.57 297.175 545.556 292.16 539.37 292.16C533.184 292.16 528.17 297.175 528.17 303.36C528.17 309.546 533.184 314.56 539.37 314.56Z" fill="#F9F9FF"/>
<path d="M453.11 59.1802C456.015 59.1802 458.37 56.8252 458.37 53.9202C458.37 51.0151 456.015 48.6602 453.11 48.6602C450.205 48.6602 447.85 51.0151 447.85 53.9202C447.85 56.8252 450.205 59.1802 453.11 59.1802Z" fill="#F9F9FF"/>
<path fill-rule="evenodd" clip-rule="evenodd" d="M59.8197 127.671C59.8197 142.058 48.1567 153.721 33.7697 153.721C19.3827 153.721 7.71973 142.058 7.71973 127.671C7.71973 113.284 19.3827 101.621 33.7697 101.621C48.1567 101.621 59.8197 113.284 59.8197 127.671ZM496.23 192.321C506.354 192.321 514.56 184.115 514.56 173.991C514.56 163.868 506.354 155.661 496.23 155.661C486.107 155.661 477.9 163.868 477.9 173.991C477.9 184.115 486.107 192.321 496.23 192.321ZM18.0804 359.381C26.326 359.381 33.0104 352.697 33.0104 344.451C33.0104 336.205 26.326 329.521 18.0804 329.521C9.83478 329.521 3.15039 336.205 3.15039 344.451C3.15039 352.697 9.83478 359.381 18.0804 359.381Z" fill="white"/>
<path d="M513.82 343.469H510.11V339.759C510.11 339.219 509.67 338.779 509.13 338.779C508.59 338.779 508.15 339.219 508.15 339.759V343.469H504.44C503.9 343.469 503.46 343.909 503.46 344.449C503.46 344.989 503.9 345.429 504.44 345.429H508.15V349.139C508.15 349.679 508.59 350.119 509.13 350.119C509.67 350.119 510.11 349.679 510.11 349.139V345.429H513.82C514.36 345.429 514.8 344.989 514.8 344.449C514.8 343.909 514.37 343.469 513.82 343.469Z" fill="url(#paint0_linear_154_62835)"/>
<path d="M259.769 82.899C274.1 82.899 285.718 71.281 285.718 56.9495C285.718 42.618 274.1 31 259.769 31C245.437 31 233.819 42.618 233.819 56.9495C233.819 71.281 245.437 82.899 259.769 82.899Z" fill="#6C63FF"/>
<path d="M260.384 81.0599C273.699 81.0599 284.494 70.2655 284.494 56.9499C284.494 43.6343 273.699 32.8398 260.384 32.8398C247.068 32.8398 236.274 43.6343 236.274 56.9499C236.274 70.2655 247.068 81.0599 260.384 81.0599Z" fill="#6C63FF"/>
<path d="M259.769 339.128C274.1 339.128 285.718 327.51 285.718 313.178C285.718 298.847 274.1 287.229 259.769 287.229C245.437 287.229 233.819 298.847 233.819 313.178C233.819 327.51 245.437 339.128 259.769 339.128Z" fill="#6C63FF"/>
<path d="M260.384 337.288C273.699 337.288 284.494 326.494 284.494 313.178C284.494 299.863 273.699 289.068 260.384 289.068C247.068 289.068 236.274 299.863 236.274 313.178C236.274 326.494 247.068 337.288 260.384 337.288Z" fill="#6C63FF"/>
<path d="M259.844 116.586L229.811 146.471L259.696 176.504L289.729 146.619L259.844 116.586Z" fill="#27DEBF"/>
<path d="M259.836 119.039L232.263 146.48L259.701 174.053L287.277 146.615L259.836 119.039Z" fill="#27DEBF"/>
<path d="M366.541 219.532C366.541 228.673 359.132 236.082 349.992 236.082H328.538C319.398 236.082 311.988 228.673 311.988 219.532C311.988 210.392 319.398 202.982 328.538 202.982H349.992C359.132 202.982 366.541 210.392 366.541 219.532Z" fill="#EF069A"/>
<path d="M364.284 219.532C364.284 228.08 357.466 234.858 349.056 234.858H329.143C320.733 234.858 313.914 228.08 313.914 219.532C313.914 210.985 320.733 204.207 329.143 204.207H349.056C357.466 204.21 364.284 210.985 364.284 219.532Z" fill="#EF069A"/>
<path d="M287.468 219.532C287.468 228.673 280.059 236.082 270.918 236.082H249.465C240.324 236.082 232.915 228.673 232.915 219.532C232.915 210.392 240.324 202.982 249.465 202.982H270.918C280.056 202.982 287.468 210.392 287.468 219.532Z" fill="#EF069A"/>
<path d="M285.208 219.532C285.208 228.08 278.39 234.858 269.98 234.858H250.067C241.657 234.858 234.838 228.08 234.838 219.532C234.838 210.985 241.657 204.207 250.067 204.207H269.98C278.39 204.21 285.208 210.985 285.208 219.532Z" fill="#EF069A"/>
<path d="M206.553 219.532C206.553 228.673 199.144 236.082 190.003 236.082H168.55C159.409 236.082 152 228.673 152 219.532C152 210.392 159.409 202.982 168.55 202.982H190.003C199.144 202.982 206.553 210.392 206.553 219.532Z" fill="#EF069A"/>
<path d="M204.293 219.532C204.293 228.08 197.475 234.858 189.065 234.858H169.152C160.742 234.858 153.923 228.08 153.923 219.532C153.923 210.985 160.742 204.207 169.152 204.207H189.065C197.477 204.21 204.293 210.985 204.293 219.532Z" fill="#EF069A"/>
<path d="M260.189 110.728C259.682 110.728 259.27 110.315 259.27 109.808V86.5154C259.27 86.0084 259.682 85.5957 260.189 85.5957C260.696 85.5957 261.109 86.0084 261.109 86.5154V109.808C261.109 110.315 260.699 110.728 260.189 110.728Z" fill="url(#paint1_linear_154_62835)"/>
<path d="M263.534 106.129L259.768 112.653L256.003 106.129H263.534Z" fill="url(#paint2_linear_154_62835)"/>
<path d="M260.189 197.159C259.682 197.159 259.27 196.746 259.27 196.239V179.074C259.27 178.567 259.682 178.154 260.189 178.154C260.696 178.154 261.109 178.567 261.109 179.074V196.239C261.109 196.746 260.699 197.159 260.189 197.159Z" fill="url(#paint3_linear_154_62835)"/>
<path d="M263.534 192.561L259.768 199.082L256.003 192.561H263.534Z" fill="url(#paint4_linear_154_62835)"/>
<path d="M258.964 279.911C258.457 279.911 258.045 279.498 258.045 278.991V256.31C258.045 255.803 258.457 255.391 258.964 255.391C259.471 255.391 259.884 255.803 259.884 256.31V278.991C259.884 279.501 259.471 279.911 258.964 279.911Z" fill="url(#paint5_linear_154_62835)"/>
<path d="M262.592 275.314L258.827 281.836L255.062 275.314H262.592Z" fill="url(#paint6_linear_154_62835)"/>
<path d="M176.21 191.029C175.702 191.029 175.29 190.616 175.29 190.109V146.283C175.29 145.776 175.702 145.363 176.21 145.363H226.782C227.289 145.363 227.701 145.776 227.701 146.283C227.701 146.79 227.289 147.203 226.782 147.203H177.129V190.112C177.129 190.619 176.719 191.029 176.21 191.029Z" fill="url(#paint7_linear_154_62835)"/>
<path d="M179.557 189.498L175.789 196.02L172.023 189.498H179.557Z" fill="url(#paint8_linear_154_62835)"/>
<path d="M344.78 191.028C344.273 191.028 343.861 190.615 343.861 190.108V147.199H294.208C293.701 147.199 293.289 146.786 293.289 146.279C293.289 145.772 293.701 145.359 294.208 145.359H344.78C345.288 145.359 345.7 145.772 345.7 146.279V190.108C345.7 190.618 345.29 191.028 344.78 191.028Z" fill="url(#paint9_linear_154_62835)"/>
<path d="M341.12 189.496L344.885 196.018L348.651 189.496H341.12Z" fill="url(#paint10_linear_154_62835)"/>
<path d="M344.168 256.926H175.598C175.091 256.926 174.678 256.514 174.678 256.007V239.762C174.678 239.254 175.091 238.842 175.598 238.842C176.105 238.842 176.517 239.254 176.517 239.762V255.087H343.249V239.762C343.249 239.254 343.661 238.842 344.168 238.842C344.675 238.842 345.088 239.254 345.088 239.762V256.007C345.088 256.514 344.675 256.926 344.168 256.926Z" fill="url(#paint11_linear_154_62835)"/>
<defs>
<linearGradient id="paint0_linear_154_62835" x1="503.819" y1="350.131" x2="518.569" y2="334.381" gradientUnits="userSpaceOnUse">
<stop stop-color="#DFEDF2"/>
<stop offset="1" stop-color="#E8F8FF"/>
</linearGradient>
<linearGradient id="paint1_linear_154_62835" x1="265.103" y1="108.49" x2="255.277" y2="87.8337" gradientUnits="userSpaceOnUse">
<stop stop-color="#09005D"/>
<stop offset="1" stop-color="#1A0F91"/>
</linearGradient>
<linearGradient id="paint2_linear_154_62835" x1="257.616" y1="109.52" x2="263.757" y2="106.598" gradientUnits="userSpaceOnUse">
<stop stop-color="#09005D"/>
<stop offset="1" stop-color="#1A0F91"/>
</linearGradient>
<linearGradient id="paint3_linear_154_62835" x1="263.914" y1="195.486" x2="256.466" y2="179.828" gradientUnits="userSpaceOnUse">
<stop stop-color="#09005D"/>
<stop offset="1" stop-color="#1A0F91"/>
</linearGradient>
<linearGradient id="paint4_linear_154_62835" x1="257.616" y1="195.951" x2="263.757" y2="193.03" gradientUnits="userSpaceOnUse">
<stop stop-color="#09005D"/>
<stop offset="1" stop-color="#1A0F91"/>
</linearGradient>
<linearGradient id="paint5_linear_154_62835" x1="263.758" y1="277.73" x2="254.169" y2="257.573" gradientUnits="userSpaceOnUse">
<stop stop-color="#09005D"/>
<stop offset="1" stop-color="#1A0F91"/>
</linearGradient>
<linearGradient id="paint6_linear_154_62835" x1="256.673" y1="278.703" x2="262.815" y2="275.782" gradientUnits="userSpaceOnUse">
<stop stop-color="#09005D"/>
<stop offset="1" stop-color="#1A0F91"/>
</linearGradient>
<linearGradient id="paint7_linear_154_62835" x1="226.781" y1="144.14" x2="166.879" y2="172.635" gradientUnits="userSpaceOnUse">
<stop stop-color="#09005D"/>
<stop offset="1" stop-color="#1A0F91"/>
</linearGradient>
<linearGradient id="paint8_linear_154_62835" x1="173.637" y1="192.888" x2="179.778" y2="189.966" gradientUnits="userSpaceOnUse">
<stop stop-color="#09005D"/>
<stop offset="1" stop-color="#1A0F91"/>
</linearGradient>
<linearGradient id="paint9_linear_154_62835" x1="294.211" y1="144.139" x2="354.113" y2="172.634" gradientUnits="userSpaceOnUse">
<stop stop-color="#09005D"/>
<stop offset="1" stop-color="#1A0F91"/>
</linearGradient>
<linearGradient id="paint10_linear_154_62835" x1="347.039" y1="192.886" x2="340.898" y2="189.965" gradientUnits="userSpaceOnUse">
<stop stop-color="#09005D"/>
<stop offset="1" stop-color="#1A0F91"/>
</linearGradient>
<linearGradient id="paint11_linear_154_62835" x1="174.678" y1="247.884" x2="345.088" y2="247.884" gradientUnits="userSpaceOnUse">
<stop stop-color="#09005D"/>
<stop offset="1" stop-color="#1A0F91"/>
</linearGradient>
</defs>
</svg>
