<svg width="552" height="373" viewBox="0 0 552 373" fill="none" xmlns="http://www.w3.org/2000/svg">
<path d="M255.14 0C114.54 0 0.570068 113.98 0.570068 254.57C0.570068 295.92 10.4301 334.98 27.9301 369.5H482.35C499.85 334.98 509.71 295.92 509.71 254.57C509.71 113.98 395.73 0 255.14 0Z" fill="#F9F9FF"/>
<path d="M83.9401 39.5794C94.4942 39.5794 103.05 31.0235 103.05 20.4694C103.05 9.91521 94.4942 1.35938 83.9401 1.35938C73.3859 1.35938 64.8301 9.91521 64.8301 20.4694C64.8301 31.0235 73.3859 39.5794 83.9401 39.5794Z" fill="#F9F9FF"/>
<path d="M539.94 314.56C546.126 314.56 551.14 309.546 551.14 303.36C551.14 297.175 546.126 292.16 539.94 292.16C533.754 292.16 528.74 297.175 528.74 303.36C528.74 309.546 533.754 314.56 539.94 314.56Z" fill="#F9F9FF"/>
<path d="M453.68 59.1802C456.585 59.1802 458.94 56.8252 458.94 53.9202C458.94 51.0151 456.585 48.6602 453.68 48.6602C450.775 48.6602 448.42 51.0151 448.42 53.9202C448.42 56.8252 450.775 59.1802 453.68 59.1802Z" fill="#F9F9FF"/>
<path fill-rule="evenodd" clip-rule="evenodd" d="M60.3898 127.671C60.3898 142.058 48.7268 153.721 34.3398 153.721C19.9528 153.721 8.28979 142.058 8.28979 127.671C8.28979 113.284 19.9528 101.621 34.3398 101.621C48.7268 101.621 60.3898 113.284 60.3898 127.671ZM496.8 192.321C506.924 192.321 515.13 184.115 515.13 173.991C515.13 163.868 506.924 155.661 496.8 155.661C486.677 155.661 478.47 163.868 478.47 173.991C478.47 184.115 486.677 192.321 496.8 192.321ZM18.6505 359.381C26.8961 359.381 33.5805 352.697 33.5805 344.451C33.5805 336.205 26.8961 329.521 18.6505 329.521C10.4048 329.521 3.72046 336.205 3.72046 344.451C3.72046 352.697 10.4048 359.381 18.6505 359.381Z" fill="white"/>
<path d="M514.39 343.469H510.68V339.759C510.68 339.219 510.24 338.779 509.7 338.779C509.16 338.779 508.72 339.219 508.72 339.759V343.469H505.01C504.47 343.469 504.03 343.909 504.03 344.449C504.03 344.989 504.47 345.429 505.01 345.429H508.72V349.139C508.72 349.679 509.16 350.119 509.7 350.119C510.24 350.119 510.68 349.679 510.68 349.139V345.429H514.39C514.93 345.429 515.37 344.989 515.37 344.449C515.37 343.909 514.94 343.469 514.39 343.469Z" fill="url(#paint0_linear_154_62891)"/>
<path d="M291.509 107.483C289.786 110.106 288.629 112.994 288.009 115.965L283.269 116.411V125.589L288.009 126.035C288.629 129.006 289.786 131.894 291.509 134.518L288.485 138.177L294.972 144.663L298.631 141.639C301.254 143.363 304.142 144.519 307.113 145.139L307.559 149.879H316.737L317.183 145.139C320.162 144.519 323.042 143.363 325.666 141.639L329.325 144.663L335.811 138.177L332.787 134.518C334.511 131.894 335.667 129.006 336.287 126.035L341.027 125.589V116.411L336.287 115.965C335.667 112.994 334.511 110.106 332.787 107.483L335.811 103.824L329.325 97.3375L325.666 100.361C323.042 98.6378 320.154 97.4736 317.183 96.8612L316.737 92.1211H307.559L307.113 96.8612C304.142 97.4811 301.254 98.6378 298.631 100.361L294.972 97.3375L288.485 103.824L291.509 107.483ZM322.687 110.469C328.508 116.29 328.508 125.725 322.687 131.539C316.866 137.36 307.431 137.36 301.617 131.539C295.796 125.718 295.796 116.283 301.617 110.469C307.431 104.648 316.866 104.648 322.687 110.469Z" fill="#F0F0F0"/>
<path d="M265.723 112.442H200.926C198.862 112.442 197.191 110.772 197.191 108.708V59.1292C197.191 57.0653 198.862 55.3945 200.926 55.3945H265.723C267.787 55.3945 269.457 57.0653 269.457 59.1292V108.715C269.457 110.772 267.787 112.442 265.723 112.442Z" fill="#E6E6E6"/>
<path d="M269.457 65.3435H197.199V58.8948C197.199 56.9595 198.764 55.3945 200.699 55.3945H266.025C267.923 55.3945 269.465 56.9368 269.465 58.8343V65.3435H269.457Z" fill="#E0E0E0"/>
<path opacity="0.5" d="M263.456 63.2652C264.654 63.2652 265.625 62.2938 265.625 61.0955C265.625 59.8972 264.654 58.9258 263.456 58.9258C262.257 58.9258 261.286 59.8972 261.286 61.0955C261.286 62.2938 262.257 63.2652 263.456 63.2652Z" fill="#FAFAFA"/>
<path opacity="0.5" d="M257.279 63.2652C258.478 63.2652 259.449 62.2938 259.449 61.0955C259.449 59.8972 258.478 58.9258 257.279 58.9258C256.081 58.9258 255.109 59.8972 255.109 61.0955C255.109 62.2938 256.081 63.2652 257.279 63.2652Z" fill="#FAFAFA"/>
<path opacity="0.5" d="M251.11 63.2652C252.308 63.2652 253.28 62.2938 253.28 61.0955C253.28 59.8972 252.308 58.9258 251.11 58.9258C249.912 58.9258 248.94 59.8972 248.94 61.0955C248.94 62.2938 249.912 63.2652 251.11 63.2652Z" fill="#FAFAFA"/>
<path opacity="0.6" d="M252.448 73.6602H213.786V75.6862H252.448V73.6602Z" fill="white"/>
<path d="M242.045 78.0371H214.383V80.0632H242.045V78.0371Z" fill="#E0E0E0"/>
<path d="M262.934 73.6602H255.865V75.6862H262.934V73.6602Z" fill="#F0F0F0"/>
<path d="M211.102 73.6602H203.496V75.6862H211.102V73.6602Z" fill="#F0F0F0"/>
<path d="M252.448 82.9062H213.786V84.9323H252.448V82.9062Z" fill="#F0F0F0"/>
<path opacity="0.6" d="M262.934 82.9062H255.865V84.9323H262.934V82.9062Z" fill="white"/>
<path d="M211.102 82.9062H203.496V84.9323H211.102V82.9062Z" fill="#F0F0F0"/>
<path opacity="0.6" d="M252.448 102.184H213.786V104.21H252.448V102.184Z" fill="white"/>
<path opacity="0.6" d="M262.934 102.184H255.865V104.21H262.934V102.184Z" fill="white"/>
<path d="M252.448 87.7812H213.786V89.8073H252.448V87.7812Z" fill="#F0F0F0"/>
<path d="M262.934 87.7812H255.865V89.8073H262.934V87.7812Z" fill="#E0E0E0"/>
<path d="M211.102 87.7812H203.496V89.8073H211.102V87.7812Z" fill="#E0E0E0"/>
<path d="M263.455 78.1191H245.077V80.1452H263.455V78.1191Z" fill="#F0F0F0"/>
<path opacity="0.6" d="M241.448 92.0312H213.786V94.0573H241.448V92.0312Z" fill="white"/>
<path d="M262.85 92.1133H244.472V94.1394H262.85V92.1133Z" fill="#F0F0F0"/>
<path d="M227.621 96.4375H213.786V98.4636H227.621V96.4375Z" fill="#E0E0E0"/>
<path d="M364.32 95.4849L356.132 99.3102L364.32 103.136V106.22L353.381 100.913V97.7075L364.32 92.4004V95.4849Z" fill="#E0E0E0"/>
<path d="M389.245 97.7075V100.913L378.306 106.22V103.136L386.493 99.3102L378.306 95.4849V92.4004L389.245 97.7075Z" fill="#E0E0E0"/>
<path d="M373.226 90.2539L367.889 108.7H370.557L375.895 90.2539H373.226Z" fill="#E0E0E0"/>
<path d="M89.9374 194.204C88.9319 195.739 88.2515 197.425 87.8887 199.164L85.1217 199.421V204.781L87.8887 205.045C88.2515 206.784 88.9244 208.47 89.9374 210.005L88.1684 212.137L91.9559 215.924L94.0879 214.155C95.6225 215.161 97.3084 215.841 99.0472 216.196L99.3043 218.963H104.664L104.921 216.196C106.66 215.833 108.346 215.161 109.881 214.147L112.013 215.917L115.8 212.129L114.031 209.997C115.037 208.462 115.717 206.776 116.08 205.038L118.847 204.773V199.413L116.08 199.148C115.717 197.41 115.044 195.724 114.031 194.197L115.8 192.065L112.013 188.277L109.881 190.046C108.346 189.041 106.66 188.36 104.921 187.997L104.657 185.23H99.2967L99.0397 187.997C97.3009 188.36 95.615 189.033 94.0803 190.046L91.9484 188.277L88.1608 192.065L89.9374 194.204ZM108.142 195.951C111.536 199.353 111.544 204.856 108.142 208.258C104.74 211.66 99.2362 211.66 95.8342 208.258C92.4322 204.856 92.4322 199.353 95.8342 195.951C99.2362 192.549 104.74 192.549 108.142 195.951Z" fill="#E0E0E0"/>
<path d="M393.66 131.82C392.821 133.09 392.262 134.488 391.959 135.932L389.661 136.152V140.604L391.959 140.824C392.262 142.268 392.821 143.666 393.66 144.936L392.194 146.705L395.339 149.85L397.108 148.384C398.378 149.223 399.777 149.782 401.22 150.085L401.44 152.383H405.893L406.112 150.085C407.556 149.782 408.954 149.223 410.224 148.384L411.993 149.85L415.138 146.705L413.672 144.936C414.511 143.666 415.07 142.268 415.373 140.824L417.671 140.604V136.152L415.373 135.932C415.07 134.488 414.511 133.09 413.672 131.82L415.138 130.051L411.993 126.906L410.224 128.372C408.954 127.533 407.556 126.974 406.112 126.671L405.893 124.373H401.44L401.22 126.671C399.777 126.974 398.378 127.533 397.108 128.372L395.339 126.906L392.194 130.051L393.66 131.82ZM408.78 133.264C411.6 136.083 411.6 140.657 408.78 143.485C405.961 146.305 401.387 146.305 398.559 143.485C395.739 140.665 395.739 136.091 398.559 133.264C401.379 130.444 405.953 130.444 408.78 133.264Z" fill="#E0E0E0"/>
<path d="M417.474 351.93H391.127V352.126H417.474V351.93Z" fill="#EBEBEB"/>
<path d="M323.079 354.092H316.162V354.288H323.079V354.092Z" fill="#EBEBEB"/>
<path d="M390.326 344.543H375.062V344.74H390.326V344.543Z" fill="#EBEBEB"/>
<path d="M135.705 345.881H101.352V346.077H135.705V345.881Z" fill="#EBEBEB"/>
<path d="M147.823 345.881H142.788V346.077H147.823V345.881Z" fill="#EBEBEB"/>
<path d="M238.71 349.238H164.199V349.435H238.71V349.238Z" fill="#EBEBEB"/>
<path d="M397.295 293.467H260.648C258.206 293.467 256.218 291.478 256.218 289.036V90.0044C256.218 87.5625 258.206 85.5742 260.648 85.5742H397.295C399.737 85.5742 401.725 87.5625 401.725 90.0044V289.036C401.725 291.486 399.737 293.467 397.295 293.467ZM260.648 85.7632C258.312 85.7632 256.407 87.6683 256.407 90.0044V289.036C256.407 291.373 258.312 293.278 260.648 293.278H397.295C399.631 293.278 401.536 291.373 401.536 289.036V90.0044C401.536 87.6683 399.631 85.7632 397.295 85.7632H260.648Z" fill="#E0E0E0"/>
<path d="M239.722 293.467H103.083C100.641 293.467 98.6526 291.478 98.6526 289.036V90.0044C98.6526 87.5625 100.641 85.5742 103.083 85.5742H239.73C242.172 85.5742 244.16 87.5625 244.16 90.0044V289.036C244.152 291.486 242.172 293.467 239.722 293.467ZM103.083 85.7632C100.747 85.7632 98.8416 87.6683 98.8416 90.0044V289.036C98.8416 291.373 100.747 293.278 103.083 293.278H239.73C242.066 293.278 243.971 291.373 243.971 289.036V90.0044C243.971 87.6683 242.066 85.7632 239.73 85.7632H103.083Z" fill="#E0E0E0"/>
<path d="M439.693 339.637H61.6931V339.826H439.693V339.637Z" fill="#E0E0E0"/>
<path d="M247.806 372.454C335.019 372.454 405.72 370.379 405.72 367.82C405.72 365.26 335.019 363.186 247.806 363.186C160.593 363.186 89.8929 365.26 89.8929 367.82C89.8929 370.379 160.593 372.454 247.806 372.454Z" fill="#F5F5F5"/>
<path d="M151.007 296.793H131.79C128.736 296.793 126.256 294.313 126.256 291.259V127.887C126.256 124.084 129.34 121 133.143 121H151.007V296.793Z" fill="#263238"/>
<path d="M224.703 293.762L216.84 334.049H228.248L237.35 294.094L224.703 293.762Z" fill="#263238"/>
<path d="M213.022 333.572H207.246V339.348H213.022V333.572Z" fill="#263238"/>
<path opacity="0.5" d="M151.007 296.793H131.79C128.736 296.793 126.256 294.313 126.256 291.259V127.887C126.256 124.084 129.34 121 133.143 121H151.007V296.793Z" fill="white"/>
<path opacity="0.5" d="M224.703 293.762L216.84 334.049H228.248L237.35 294.094L224.703 293.762Z" fill="white"/>
<path opacity="0.5" d="M213.022 333.572H207.246V339.348H213.022V333.572Z" fill="white"/>
<path d="M296.341 339.348H223.069L233.479 278.293H282.241L296.341 339.348Z" fill="#263238"/>
<path opacity="0.7" d="M296.341 339.348H223.069L233.479 278.293H282.241L296.341 339.348Z" fill="white"/>
<path opacity="0.1" d="M286.483 296.793H230.297L228.248 308.821L288.123 303.877L286.483 296.793Z" fill="black"/>
<path d="M306.381 333.572H211.404V339.348H306.381V333.572Z" fill="#263238"/>
<g opacity="0.7">
<path d="M306.381 333.572H211.404V339.348H306.381V333.572Z" fill="white"/>
</g>
<path d="M138.224 121H143.258H370.754H375.789C379.146 121 381.867 123.767 381.867 127.177V290.609C381.867 294.018 379.146 296.785 375.789 296.785H370.754H143.258H138.224C134.867 296.785 132.145 294.018 132.145 290.609V127.177C132.145 123.767 134.867 121 138.224 121Z" fill="#263238"/>
<g opacity="0.7">
<path d="M138.224 121H143.258H370.754H375.789C379.146 121 381.867 123.767 381.867 127.177V290.609C381.867 294.018 379.146 296.785 375.789 296.785H370.754H143.258H138.224C134.867 296.785 132.145 294.018 132.145 290.609V127.177C132.145 123.767 134.867 121 138.224 121Z" fill="white"/>
</g>
<path d="M375.23 127.049H137.709V284.645H375.23V127.049Z" fill="#407BFF"/>
<path opacity="0.9" d="M375.23 127.049H137.709V284.645H375.23V127.049Z" fill="white"/>
<path d="M375.23 127.049H137.709V139.697H375.23V127.049Z" fill="#407BFF"/>
<path opacity="0.5" d="M369.378 136.068C370.864 136.068 372.069 134.863 372.069 133.377C372.069 131.891 370.864 130.686 369.378 130.686C367.891 130.686 366.686 131.891 366.686 133.377C366.686 134.863 367.891 136.068 369.378 136.068Z" fill="white"/>
<path opacity="0.5" d="M361.743 136.068C363.229 136.068 364.434 134.863 364.434 133.377C364.434 131.891 363.229 130.686 361.743 130.686C360.256 130.686 359.051 131.891 359.051 133.377C359.051 134.863 360.256 136.068 361.743 136.068Z" fill="white"/>
<path opacity="0.5" d="M354.099 136.068C355.585 136.068 356.79 134.863 356.79 133.377C356.79 131.891 355.585 130.686 354.099 130.686C352.613 130.686 351.408 131.891 351.408 133.377C351.408 134.863 352.613 136.068 354.099 136.068Z" fill="white"/>
<path d="M181.746 231.988C180.968 233.168 180.446 234.468 180.174 235.806L178.042 236.01V240.138L180.174 240.342C180.454 241.68 180.975 242.973 181.746 244.16L180.386 245.8L183.304 248.719L184.944 247.358C186.124 248.136 187.424 248.658 188.762 248.93L188.966 251.062H193.094L193.298 248.93C194.636 248.65 195.929 248.129 197.116 247.358L198.756 248.719L201.675 245.8L200.314 244.16C201.092 242.98 201.614 241.68 201.886 240.342L204.018 240.138V236.01L201.886 235.806C201.607 234.468 201.085 233.175 200.314 231.988L201.675 230.348L198.756 227.43L197.116 228.79C195.937 228.012 194.636 227.49 193.298 227.218L193.094 225.086H188.966L188.762 227.218C187.424 227.498 186.131 228.019 184.944 228.79L183.304 227.43L180.386 230.348L181.746 231.988ZM194.825 234.271C196.919 236.365 196.919 239.767 194.825 241.862C192.731 243.956 189.329 243.956 187.235 241.862C185.141 239.767 185.141 236.365 187.235 234.271C189.329 232.177 192.731 232.177 194.825 234.271Z" fill="#407BFF"/>
<path opacity="0.4" d="M181.746 231.988C180.968 233.168 180.446 234.468 180.174 235.806L178.042 236.01V240.138L180.174 240.342C180.454 241.68 180.975 242.973 181.746 244.16L180.386 245.8L183.304 248.719L184.944 247.358C186.124 248.136 187.424 248.658 188.762 248.93L188.966 251.062H193.094L193.298 248.93C194.636 248.65 195.929 248.129 197.116 247.358L198.756 248.719L201.675 245.8L200.314 244.16C201.092 242.98 201.614 241.68 201.886 240.342L204.018 240.138V236.01L201.886 235.806C201.607 234.468 201.085 233.175 200.314 231.988L201.675 230.348L198.756 227.43L197.116 228.79C195.937 228.012 194.636 227.49 193.298 227.218L193.094 225.086H188.966L188.762 227.218C187.424 227.498 186.131 228.019 184.944 228.79L183.304 227.43L180.386 230.348L181.746 231.988ZM194.825 234.271C196.919 236.365 196.919 239.767 194.825 241.862C192.731 243.956 189.329 243.956 187.235 241.862C185.141 239.767 185.141 236.365 187.235 234.271C189.329 232.177 192.731 232.177 194.825 234.271Z" fill="white"/>
<path d="M303.554 181.496C302.835 182.592 302.352 183.794 302.094 185.026L300.121 185.215V189.04L302.094 189.229C302.352 190.469 302.835 191.671 303.554 192.76L302.291 194.28L304.99 196.978L306.51 195.716C307.606 196.434 308.808 196.918 310.04 197.175L310.229 199.148H314.054L314.243 197.175C315.483 196.918 316.685 196.434 317.774 195.716L319.293 196.978L321.992 194.28L320.73 192.76C321.448 191.664 321.932 190.462 322.189 189.229L324.162 189.04V185.215L322.189 185.026C321.932 183.786 321.448 182.584 320.73 181.496L321.992 179.976L319.293 177.277L317.774 178.54C316.678 177.821 315.476 177.338 314.243 177.081L314.054 175.107H310.229L310.04 177.081C308.8 177.338 307.598 177.821 306.51 178.54L304.99 177.277L302.291 179.976L303.554 181.496ZM315.665 183.612C317.608 185.555 317.608 188.7 315.665 190.643C313.722 192.586 310.577 192.586 308.634 190.643C306.691 188.7 306.691 185.555 308.634 183.612C310.577 181.67 313.722 181.67 315.665 183.612Z" fill="#407BFF"/>
<path opacity="0.4" d="M303.554 181.496C302.835 182.592 302.352 183.794 302.094 185.026L300.121 185.215V189.04L302.094 189.229C302.352 190.469 302.835 191.671 303.554 192.76L302.291 194.28L304.99 196.978L306.51 195.716C307.606 196.434 308.808 196.918 310.04 197.175L310.229 199.148H314.054L314.243 197.175C315.483 196.918 316.685 196.434 317.774 195.716L319.293 196.978L321.992 194.28L320.73 192.76C321.448 191.664 321.932 190.462 322.189 189.229L324.162 189.04V185.215L322.189 185.026C321.932 183.786 321.448 182.584 320.73 181.496L321.992 179.976L319.293 177.277L317.774 178.54C316.678 177.821 315.476 177.338 314.243 177.081L314.054 175.107H310.229L310.04 177.081C308.8 177.338 307.598 177.821 306.51 178.54L304.99 177.277L302.291 179.976L303.554 181.496ZM315.665 183.612C317.608 185.555 317.608 188.7 315.665 190.643C313.722 192.586 310.577 192.586 308.634 190.643C306.691 188.7 306.691 185.555 308.634 183.612C310.577 181.67 313.722 181.67 315.665 183.612Z" fill="white"/>
<path d="M298.82 160.342C298.359 161.045 298.042 161.824 297.875 162.625L296.598 162.746V165.219L297.875 165.34C298.042 166.141 298.352 166.92 298.82 167.623L298.004 168.605L299.75 170.352L300.733 169.535C301.436 169.996 302.215 170.314 303.016 170.48L303.137 171.758H305.609L305.73 170.48C306.532 170.314 307.31 170.004 308.013 169.535L308.996 170.352L310.743 168.605L309.926 167.623C310.387 166.92 310.705 166.141 310.871 165.34L312.149 165.219V162.746L310.871 162.625C310.705 161.824 310.395 161.045 309.926 160.342L310.743 159.36L308.996 157.613L308.013 158.43C307.31 157.969 306.532 157.651 305.73 157.485L305.609 156.207H303.137L303.016 157.485C302.215 157.651 301.436 157.961 300.733 158.43L299.75 157.613L298.004 159.36L298.82 160.342ZM306.645 161.711C307.9 162.966 307.9 164.999 306.645 166.254C305.39 167.509 303.356 167.509 302.101 166.254C300.846 164.999 300.846 162.966 302.101 161.711C303.356 160.456 305.39 160.456 306.645 161.711Z" fill="#407BFF"/>
<path opacity="0.7" d="M298.82 160.342C298.359 161.045 298.042 161.824 297.875 162.625L296.598 162.746V165.219L297.875 165.34C298.042 166.141 298.352 166.92 298.82 167.623L298.004 168.605L299.75 170.352L300.733 169.535C301.436 169.996 302.215 170.314 303.016 170.48L303.137 171.758H305.609L305.73 170.48C306.532 170.314 307.31 170.004 308.013 169.535L308.996 170.352L310.743 168.605L309.926 167.623C310.387 166.92 310.705 166.141 310.871 165.34L312.149 165.219V162.746L310.871 162.625C310.705 161.824 310.395 161.045 309.926 160.342L310.743 159.36L308.996 157.613L308.013 158.43C307.31 157.969 306.532 157.651 305.73 157.485L305.609 156.207H303.137L303.016 157.485C302.215 157.651 301.436 157.961 300.733 158.43L299.75 157.613L298.004 159.36L298.82 160.342ZM306.645 161.711C307.9 162.966 307.9 164.999 306.645 166.254C305.39 167.509 303.356 167.509 302.101 166.254C300.846 164.999 300.846 162.966 302.101 161.711C303.356 160.456 305.39 160.456 306.645 161.711Z" fill="white"/>
<path d="M195.506 256.747C195.045 257.45 194.727 258.228 194.561 259.03L193.283 259.151V261.623L194.561 261.744C194.727 262.545 195.037 263.324 195.506 264.027L194.689 265.01L196.436 266.756L197.418 265.94C198.121 266.401 198.9 266.718 199.702 266.885L199.822 268.162H202.295L202.416 266.885C203.217 266.718 203.996 266.408 204.699 265.94L205.681 266.756L207.428 265.01L206.611 264.027C207.073 263.324 207.39 262.545 207.556 261.744L208.834 261.623V259.151L207.556 259.03C207.39 258.228 207.08 257.45 206.611 256.747L207.428 255.764L205.681 254.017L204.699 254.834C203.996 254.373 203.217 254.055 202.416 253.889L202.295 252.611H199.822L199.702 253.889C198.9 254.055 198.121 254.365 197.418 254.834L196.436 254.017L194.689 255.764L195.506 256.747ZM203.338 258.115C204.593 259.37 204.593 261.404 203.338 262.659C202.083 263.914 200.049 263.914 198.794 262.659C197.539 261.404 197.539 259.37 198.794 258.115C200.049 256.86 202.083 256.86 203.338 258.115Z" fill="#407BFF"/>
<path opacity="0.7" d="M195.506 256.747C195.045 257.45 194.727 258.228 194.561 259.03L193.283 259.151V261.623L194.561 261.744C194.727 262.545 195.037 263.324 195.506 264.027L194.689 265.01L196.436 266.756L197.418 265.94C198.121 266.401 198.9 266.718 199.702 266.885L199.822 268.162H202.295L202.416 266.885C203.217 266.718 203.996 266.408 204.699 265.94L205.681 266.756L207.428 265.01L206.611 264.027C207.073 263.324 207.39 262.545 207.556 261.744L208.834 261.623V259.151L207.556 259.03C207.39 258.228 207.08 257.45 206.611 256.747L207.428 255.764L205.681 254.017L204.699 254.834C203.996 254.373 203.217 254.055 202.416 253.889L202.295 252.611H199.822L199.702 253.889C198.9 254.055 198.121 254.365 197.418 254.834L196.436 254.017L194.689 255.764L195.506 256.747ZM203.338 258.115C204.593 259.37 204.593 261.404 203.338 262.659C202.083 263.914 200.049 263.914 198.794 262.659C197.539 261.404 197.539 259.37 198.794 258.115C200.049 256.86 202.083 256.86 203.338 258.115Z" fill="white"/>
<path d="M212.515 185.472C209.166 190.575 206.913 196.177 205.711 201.96L196.503 202.83V220.656L205.711 221.526C206.913 227.302 209.166 232.911 212.515 238.014L206.633 245.113L219.243 257.723L226.342 251.841C231.445 255.19 237.047 257.443 242.83 258.645L243.7 267.853H261.526L262.396 258.645C268.179 257.443 273.781 255.19 278.884 251.841L285.983 257.723L298.593 245.113L292.711 238.014C296.06 232.911 298.313 227.309 299.515 221.526L308.723 220.656V202.83L299.515 201.96C298.313 196.185 296.06 190.575 292.711 185.472L298.593 178.373L285.983 165.763L278.884 171.645C273.781 168.296 268.179 166.043 262.396 164.841L261.526 155.633H243.7L242.83 164.841C237.055 166.043 231.445 168.296 226.342 171.645L219.243 165.763L206.633 178.373L212.515 185.472ZM273.085 191.263C284.388 202.565 284.388 220.898 273.085 232.2C261.776 243.503 243.45 243.503 232.148 232.2C220.846 220.898 220.846 202.565 232.148 191.263C243.45 179.961 261.776 179.961 273.085 191.263Z" fill="#407BFF"/>
<path d="M226.343 215.403C226.154 215.403 225.988 215.259 225.965 215.063C225.164 207.162 227.462 199.595 232.444 193.759C232.58 193.6 232.822 193.585 232.973 193.713C233.132 193.849 233.147 194.084 233.018 194.242C228.173 199.92 225.927 207.283 226.713 214.972C226.736 215.176 226.585 215.365 226.373 215.388C226.366 215.403 226.351 215.403 226.343 215.403Z" fill="#407BFF"/>
<path d="M227.621 221.374C227.454 221.374 227.303 221.268 227.258 221.101C226.948 220.051 226.698 218.969 226.502 217.896C226.464 217.692 226.6 217.495 226.804 217.457C227.008 217.42 227.205 217.556 227.243 217.76C227.432 218.811 227.681 219.862 227.976 220.89C228.036 221.086 227.923 221.298 227.719 221.358C227.689 221.374 227.651 221.374 227.621 221.374Z" fill="#407BFF"/>
<path d="M158.711 172.25V210.095H191.03" stroke="#407BFF" stroke-miterlimit="10" stroke-linecap="round" stroke-linejoin="round"/>
<path d="M158.711 174.185C159.78 174.185 160.647 173.319 160.647 172.25C160.647 171.181 159.78 170.314 158.711 170.314C157.642 170.314 156.776 171.181 156.776 172.25C156.776 173.319 157.642 174.185 158.711 174.185Z" fill="#407BFF"/>
<path d="M355.929 241.937C356.998 241.937 357.864 241.071 357.864 240.002C357.864 238.933 356.998 238.066 355.929 238.066C354.86 238.066 353.994 238.933 353.994 240.002C353.994 241.071 354.86 241.937 355.929 241.937Z" fill="#407BFF"/>
<path d="M355.929 239.723V254.73H308.588V234.008H301.497" stroke="#407BFF" stroke-miterlimit="10"/>
<path d="M416.167 260.393H333.846V339.349H416.167V260.393Z" fill="#407BFF"/>
<path opacity="0.4" d="M416.167 260.393H333.846V339.349H416.167V260.393Z" fill="white"/>
<path opacity="0.4" d="M416.16 260.393H360.049V339.349H416.16V260.393Z" fill="white"/>
<path d="M413.355 264.43H362.854V274.205H413.355V264.43Z" fill="#407BFF"/>
<path d="M413.355 276.654H362.854V286.429H413.355V276.654Z" fill="#407BFF"/>
<path d="M413.355 288.871H362.854V298.646H413.355V288.871Z" fill="#407BFF"/>
<path d="M413.355 301.096H362.854V310.871H413.355V301.096Z" fill="#407BFF"/>
<path d="M413.355 313.32H362.854V323.095H413.355V313.32Z" fill="#407BFF"/>
<path d="M413.355 325.545H362.854V335.32H413.355V325.545Z" fill="#407BFF"/>
<path d="M357.116 264.43H336.787V274.205H357.116V264.43Z" fill="#407BFF"/>
<path d="M357.116 276.654H336.787V286.429H357.116V276.654Z" fill="#407BFF"/>
<path d="M357.116 288.871H336.787V298.646H357.116V288.871Z" fill="#407BFF"/>
<path d="M357.116 301.096H336.787V310.871H357.116V301.096Z" fill="#407BFF"/>
<path d="M357.116 313.32H336.787V323.095H357.116V313.32Z" fill="#407BFF"/>
<path d="M357.116 325.545H336.787V335.32H357.116V325.545Z" fill="#407BFF"/>
<path opacity="0.3" d="M410.883 265.699H409.703V272.934H410.883V265.699Z" fill="white"/>
<path opacity="0.3" d="M408.615 265.699H407.435V272.934H408.615V265.699Z" fill="white"/>
<path opacity="0.3" d="M406.347 265.699H405.167V272.934H406.347V265.699Z" fill="white"/>
<path opacity="0.3" d="M404.079 265.699H402.899V272.934H404.079V265.699Z" fill="white"/>
<path opacity="0.3" d="M401.811 265.699H400.631V272.934H401.811V265.699Z" fill="white"/>
<path opacity="0.3" d="M410.883 277.924H409.703V285.151H410.883V277.924Z" fill="white"/>
<path opacity="0.3" d="M408.615 277.924H407.435V285.151H408.615V277.924Z" fill="white"/>
<path opacity="0.3" d="M406.347 277.924H405.167V285.151H406.347V277.924Z" fill="white"/>
<path opacity="0.3" d="M404.079 277.924H402.899V285.151H404.079V277.924Z" fill="white"/>
<path opacity="0.3" d="M401.811 277.924H400.631V285.151H401.811V277.924Z" fill="white"/>
<path opacity="0.3" d="M410.883 290.148H409.703V297.376H410.883V290.148Z" fill="white"/>
<path opacity="0.3" d="M408.615 290.148H407.435V297.376H408.615V290.148Z" fill="white"/>
<path opacity="0.3" d="M406.347 290.148H405.167V297.376H406.347V290.148Z" fill="white"/>
<path opacity="0.3" d="M404.079 290.148H402.899V297.376H404.079V290.148Z" fill="white"/>
<path opacity="0.3" d="M401.811 290.148H400.631V297.376H401.811V290.148Z" fill="white"/>
<path opacity="0.3" d="M410.883 302.373H409.703V309.608H410.883V302.373Z" fill="white"/>
<path opacity="0.3" d="M408.615 302.373H407.435V309.608H408.615V302.373Z" fill="white"/>
<path opacity="0.3" d="M406.347 302.373H405.167V309.608H406.347V302.373Z" fill="white"/>
<path opacity="0.3" d="M404.079 302.373H402.899V309.608H404.079V302.373Z" fill="white"/>
<path opacity="0.3" d="M401.811 302.373H400.631V309.608H401.811V302.373Z" fill="white"/>
<path opacity="0.3" d="M410.883 314.598H409.703V321.825H410.883V314.598Z" fill="white"/>
<path opacity="0.3" d="M408.615 314.598H407.435V321.825H408.615V314.598Z" fill="white"/>
<path opacity="0.3" d="M406.347 314.598H405.167V321.825H406.347V314.598Z" fill="white"/>
<path opacity="0.3" d="M404.079 314.598H402.899V321.825H404.079V314.598Z" fill="white"/>
<path opacity="0.3" d="M401.811 314.598H400.631V321.825H401.811V314.598Z" fill="white"/>
<path opacity="0.3" d="M410.883 326.814H409.703V334.049H410.883V326.814Z" fill="white"/>
<path opacity="0.3" d="M408.615 326.814H407.435V334.049H408.615V326.814Z" fill="white"/>
<path opacity="0.3" d="M406.347 326.814H405.167V334.049H406.347V326.814Z" fill="white"/>
<path opacity="0.3" d="M404.079 326.814H402.899V334.049H404.079V326.814Z" fill="white"/>
<path opacity="0.3" d="M401.811 326.814H400.631V334.049H401.811V326.814Z" fill="white"/>
<path opacity="0.2" d="M368.728 269.313C368.728 269.979 368.191 270.515 367.526 270.515C366.861 270.515 366.324 269.979 366.324 269.313C366.324 268.648 366.861 268.111 367.526 268.111C368.191 268.111 368.728 268.648 368.728 269.313Z" fill="white"/>
<path opacity="0.2" d="M376.288 269.313C376.288 269.979 375.751 270.515 375.086 270.515C374.421 270.515 373.884 269.979 373.884 269.313C373.884 268.648 374.421 268.111 375.086 268.111C375.751 268.111 376.288 268.648 376.288 269.313Z" fill="white"/>
<path opacity="0.4" d="M383.848 269.313C383.848 269.979 383.311 270.515 382.646 270.515C381.981 270.515 381.444 269.979 381.444 269.313C381.444 268.648 381.981 268.111 382.646 268.111C383.311 268.111 383.848 268.648 383.848 269.313Z" fill="white"/>
<path opacity="0.4" d="M368.728 281.538C368.728 282.203 368.191 282.74 367.526 282.74C366.861 282.74 366.324 282.203 366.324 281.538C366.324 280.873 366.861 280.336 367.526 280.336C368.191 280.336 368.728 280.873 368.728 281.538Z" fill="white"/>
<path opacity="0.2" d="M376.288 281.538C376.288 282.203 375.751 282.74 375.086 282.74C374.421 282.74 373.884 282.203 373.884 281.538C373.884 280.873 374.421 280.336 375.086 280.336C375.751 280.336 376.288 280.873 376.288 281.538Z" fill="white"/>
<path opacity="0.4" d="M383.848 281.538C383.848 282.203 383.311 282.74 382.646 282.74C381.981 282.74 381.444 282.203 381.444 281.538C381.444 280.873 381.981 280.336 382.646 280.336C383.311 280.336 383.848 280.873 383.848 281.538Z" fill="white"/>
<path opacity="0.2" d="M368.728 293.763C368.728 294.428 368.191 294.965 367.526 294.965C366.861 294.965 366.324 294.428 366.324 293.763C366.324 293.097 366.861 292.561 367.526 292.561C368.191 292.561 368.728 293.097 368.728 293.763Z" fill="white"/>
<path opacity="0.4" d="M376.288 293.763C376.288 294.428 375.751 294.965 375.086 294.965C374.421 294.965 373.884 294.428 373.884 293.763C373.884 293.097 374.421 292.561 375.086 292.561C375.751 292.561 376.288 293.097 376.288 293.763Z" fill="white"/>
<path opacity="0.2" d="M383.848 293.763C383.848 294.428 383.311 294.965 382.646 294.965C381.981 294.965 381.444 294.428 381.444 293.763C381.444 293.097 381.981 292.561 382.646 292.561C383.311 292.561 383.848 293.097 383.848 293.763Z" fill="white"/>
<path opacity="0.4" d="M368.728 305.987C368.728 306.652 368.191 307.189 367.526 307.189C366.861 307.189 366.324 306.652 366.324 305.987C366.324 305.322 366.861 304.785 367.526 304.785C368.191 304.785 368.728 305.322 368.728 305.987Z" fill="white"/>
<path opacity="0.2" d="M376.288 305.987C376.288 306.652 375.751 307.189 375.086 307.189C374.421 307.189 373.884 306.652 373.884 305.987C373.884 305.322 374.421 304.785 375.086 304.785C375.751 304.785 376.288 305.322 376.288 305.987Z" fill="white"/>
<path opacity="0.2" d="M383.848 305.987C383.848 306.652 383.311 307.189 382.646 307.189C381.981 307.189 381.444 306.652 381.444 305.987C381.444 305.322 381.981 304.785 382.646 304.785C383.311 304.785 383.848 305.322 383.848 305.987Z" fill="white"/>
<path opacity="0.2" d="M368.728 318.212C368.728 318.877 368.191 319.414 367.526 319.414C366.861 319.414 366.324 318.877 366.324 318.212C366.324 317.547 366.861 317.01 367.526 317.01C368.191 317.01 368.728 317.547 368.728 318.212Z" fill="white"/>
<path opacity="0.4" d="M376.288 318.212C376.288 318.877 375.751 319.414 375.086 319.414C374.421 319.414 373.884 318.877 373.884 318.212C373.884 317.547 374.421 317.01 375.086 317.01C375.751 317.01 376.288 317.547 376.288 318.212Z" fill="white"/>
<path opacity="0.4" d="M383.848 318.212C383.848 318.877 383.311 319.414 382.646 319.414C381.981 319.414 381.444 318.877 381.444 318.212C381.444 317.547 381.981 317.01 382.646 317.01C383.311 317.01 383.848 317.547 383.848 318.212Z" fill="white"/>
<path opacity="0.4" d="M368.728 330.436C368.728 331.102 368.191 331.638 367.526 331.638C366.861 331.638 366.324 331.102 366.324 330.436C366.324 329.771 366.861 329.234 367.526 329.234C368.191 329.234 368.728 329.771 368.728 330.436Z" fill="white"/>
<path opacity="0.2" d="M376.288 330.436C376.288 331.102 375.751 331.638 375.086 331.638C374.421 331.638 373.884 331.102 373.884 330.436C373.884 329.771 374.421 329.234 375.086 329.234C375.751 329.234 376.288 329.771 376.288 330.436Z" fill="white"/>
<path opacity="0.4" d="M383.848 330.436C383.848 331.102 383.311 331.638 382.646 331.638C381.981 331.638 381.444 331.102 381.444 330.436C381.444 329.771 381.981 329.234 382.646 329.234C383.311 329.234 383.848 329.771 383.848 330.436Z" fill="white"/>
<path opacity="0.3" d="M360.049 260.393H333.846V339.349H360.049V260.393Z" fill="black"/>
<path d="M409.567 232.632H333.052C330.988 232.632 329.317 230.961 329.317 228.897V165.748C329.317 163.684 330.988 162.014 333.052 162.014H409.567C411.63 162.014 413.301 163.684 413.301 165.748V228.897C413.301 230.961 411.63 232.632 409.567 232.632Z" fill="#407BFF"/>
<path opacity="0.5" d="M409.567 232.632H333.052C330.988 232.632 329.317 230.961 329.317 228.897V165.748C329.317 163.684 330.988 162.014 333.052 162.014H409.567C411.63 162.014 413.301 163.684 413.301 165.748V228.897C413.301 230.961 411.63 232.632 409.567 232.632Z" fill="white"/>
<path d="M413.301 174.329H329.324V165.514C329.324 163.579 330.889 162.014 332.825 162.014H409.869C411.766 162.014 413.309 163.556 413.309 165.453V174.329H413.301Z" fill="#407BFF"/>
<path opacity="0.5" d="M405.869 171.758C407.356 171.758 408.561 170.553 408.561 169.066C408.561 167.58 407.356 166.375 405.869 166.375C404.383 166.375 403.178 167.58 403.178 169.066C403.178 170.553 404.383 171.758 405.869 171.758Z" fill="white"/>
<path opacity="0.5" d="M398.226 171.758C399.712 171.758 400.917 170.553 400.917 169.066C400.917 167.58 399.712 166.375 398.226 166.375C396.74 166.375 395.535 167.58 395.535 169.066C395.535 170.553 396.74 171.758 398.226 171.758Z" fill="white"/>
<path opacity="0.5" d="M390.591 171.758C392.077 171.758 393.282 170.553 393.282 169.066C393.282 167.58 392.077 166.375 390.591 166.375C389.104 166.375 387.899 167.58 387.899 169.066C387.899 170.553 389.104 171.758 390.591 171.758Z" fill="white"/>
<path opacity="0.6" d="M391.294 184.617H348.224V187.127H391.294V184.617Z" fill="white"/>
<path opacity="0.6" d="M379.712 190.047H348.89V192.557H379.712V190.047Z" fill="#263238"/>
<path d="M402.936 184.617H394.462V187.127H402.936V184.617Z" fill="#407BFF"/>
<path d="M345.231 184.617H336.756V187.127H345.231V184.617Z" fill="#407BFF"/>
<path d="M391.294 196.07H348.224V198.58H391.294V196.07Z" fill="#407BFF"/>
<path opacity="0.6" d="M402.936 196.07H394.462V198.58H402.936V196.07Z" fill="white"/>
<path d="M345.231 196.07H336.756V198.58H345.231V196.07Z" fill="#407BFF"/>
<path d="M391.294 219.93H348.224V222.44H391.294V219.93Z" fill="#407BFF"/>
<path opacity="0.6" d="M402.936 219.93H394.462V222.44H402.936V219.93Z" fill="white"/>
<path d="M391.294 202.104H348.224V204.613H391.294V202.104Z" fill="#407BFF"/>
<path opacity="0.6" d="M402.936 202.104H394.462V204.613H402.936V202.104Z" fill="#263238"/>
<path opacity="0.6" d="M345.231 202.104H336.756V204.613H345.231V202.104Z" fill="#263238"/>
<path d="M403.556 190.145H383.084V192.654H403.556V190.145Z" fill="#407BFF"/>
<path opacity="0.6" d="M379.047 207.365H348.224V209.875H379.047V207.365Z" fill="white"/>
<path d="M402.884 207.465H382.411V209.975H402.884V207.465Z" fill="#407BFF"/>
<path opacity="0.6" d="M363.632 212.816H348.224V215.326H363.632V212.816Z" fill="#263238"/>
<path d="M181.776 160.35H105.262C103.198 160.35 101.527 158.68 101.527 156.616V93.4671C101.527 91.4032 103.198 89.7324 105.262 89.7324H181.776C183.84 89.7324 185.511 91.4032 185.511 93.4671V156.616C185.504 158.68 183.833 160.35 181.776 160.35Z" fill="#407BFF"/>
<path opacity="0.5" d="M181.776 160.35H105.262C103.198 160.35 101.527 158.68 101.527 156.616V93.4671C101.527 91.4032 103.198 89.7324 105.262 89.7324H181.776C183.84 89.7324 185.511 91.4032 185.511 93.4671V156.616C185.504 158.68 183.833 160.35 181.776 160.35Z" fill="white"/>
<path d="M185.503 102.048H101.534V93.2327C101.534 91.2973 103.099 89.7324 105.035 89.7324H182.079C183.976 89.7324 185.518 91.2747 185.518 93.1722V102.048H185.503Z" fill="#407BFF"/>
<path opacity="0.5" d="M178.079 99.4843C179.566 99.4843 180.771 98.2793 180.771 96.7929C180.771 95.3065 179.566 94.1016 178.079 94.1016C176.593 94.1016 175.388 95.3065 175.388 96.7929C175.388 98.2793 176.593 99.4843 178.079 99.4843Z" fill="white"/>
<path opacity="0.5" d="M170.436 99.4843C171.922 99.4843 173.127 98.2793 173.127 96.7929C173.127 95.3065 171.922 94.1016 170.436 94.1016C168.949 94.1016 167.745 95.3065 167.745 96.7929C167.745 98.2793 168.949 99.4843 170.436 99.4843Z" fill="white"/>
<path opacity="0.5" d="M162.801 99.4843C164.287 99.4843 165.492 98.2793 165.492 96.7929C165.492 95.3065 164.287 94.1016 162.801 94.1016C161.314 94.1016 160.109 95.3065 160.109 96.7929C160.109 98.2793 161.314 99.4843 162.801 99.4843Z" fill="white"/>
<path d="M169.983 129.098C167.193 125.364 161.493 123.542 157.69 126.233C156.753 120.888 152.882 116.148 147.824 114.167C142.767 112.187 136.704 113.033 132.387 116.322C128.063 119.61 125.636 125.228 126.203 130.625C122.536 129.794 118.499 130.671 116.11 134.466C113.018 139.387 117.025 144.264 117.025 144.264L138.571 144.385V136.492H135.819C135.328 136.492 135.078 135.91 135.418 135.554L138.594 132.243L142.26 128.41C142.479 128.183 142.842 128.183 143.062 128.41L146.728 132.243L149.903 135.554C150.244 135.91 149.994 136.492 149.503 136.492H146.751V144.437L169.68 144.566C172.946 140.809 172.772 132.833 169.983 129.098Z" fill="white"/>
<defs>
<linearGradient id="paint0_linear_154_62891" x1="504.389" y1="350.131" x2="519.139" y2="334.381" gradientUnits="userSpaceOnUse">
<stop stop-color="#DFEDF2"/>
<stop offset="1" stop-color="#E8F8FF"/>
</linearGradient>
</defs>
</svg>
