<svg width="286" height="300" viewBox="0 0 286 300" fill="none" xmlns="http://www.w3.org/2000/svg">
<rect width="286" height="300" rx="10" fill="url(#paint0_linear_86_59072)"/>
<path d="M128.097 163.52C128.829 163.676 129.417 164.042 129.861 164.618C130.305 165.182 130.527 165.83 130.527 166.562C130.527 167.618 130.155 168.458 129.411 169.082C128.679 169.694 127.653 170 126.333 170H120.447V157.364H126.135C127.419 157.364 128.421 157.658 129.141 158.246C129.873 158.834 130.239 159.632 130.239 160.64C130.239 161.384 130.041 162.002 129.645 162.494C129.261 162.986 128.745 163.328 128.097 163.52ZM123.525 162.476H125.541C126.045 162.476 126.429 162.368 126.693 162.152C126.969 161.924 127.107 161.594 127.107 161.162C127.107 160.73 126.969 160.4 126.693 160.172C126.429 159.944 126.045 159.83 125.541 159.83H123.525V162.476ZM125.793 167.516C126.309 167.516 126.705 167.402 126.981 167.174C127.269 166.934 127.413 166.592 127.413 166.148C127.413 165.704 127.263 165.356 126.963 165.104C126.675 164.852 126.273 164.726 125.757 164.726H123.525V167.516H125.793ZM131.7 164.96C131.7 163.928 131.892 163.022 132.276 162.242C132.672 161.462 133.206 160.862 133.878 160.442C134.55 160.022 135.3 159.812 136.128 159.812C136.836 159.812 137.454 159.956 137.982 160.244C138.522 160.532 138.936 160.91 139.224 161.378V159.956H142.302V170H139.224V168.578C138.924 169.046 138.504 169.424 137.964 169.712C137.436 170 136.818 170.144 136.11 170.144C135.294 170.144 134.55 169.934 133.878 169.514C133.206 169.082 132.672 168.476 132.276 167.696C131.892 166.904 131.7 165.992 131.7 164.96ZM139.224 164.978C139.224 164.21 139.008 163.604 138.576 163.16C138.156 162.716 137.64 162.494 137.028 162.494C136.416 162.494 135.894 162.716 135.462 163.16C135.042 163.592 134.832 164.192 134.832 164.96C134.832 165.728 135.042 166.34 135.462 166.796C135.894 167.24 136.416 167.462 137.028 167.462C137.64 167.462 138.156 167.24 138.576 166.796C139.008 166.352 139.224 165.746 139.224 164.978ZM150.649 159.848C151.825 159.848 152.761 160.232 153.457 161C154.165 161.756 154.519 162.8 154.519 164.132V170H151.459V164.546C151.459 163.874 151.285 163.352 150.937 162.98C150.589 162.608 150.121 162.422 149.533 162.422C148.945 162.422 148.477 162.608 148.129 162.98C147.781 163.352 147.607 163.874 147.607 164.546V170H144.529V159.956H147.607V161.288C147.919 160.844 148.339 160.496 148.867 160.244C149.395 159.98 149.989 159.848 150.649 159.848ZM162.796 170L159.736 165.788V170H156.658V156.68H159.736V164.042L162.778 159.956H166.576L162.4 164.996L166.612 170H162.796Z" fill="white"/>
<path d="M31.816 213.256C32.2213 213.32 32.5893 213.485 32.92 213.752C33.2613 214.019 33.528 214.349 33.72 214.744C33.9227 215.139 34.024 215.56 34.024 216.008C34.024 216.573 33.88 217.085 33.592 217.544C33.304 217.992 32.8827 218.349 32.328 218.616C31.784 218.872 31.1387 219 30.392 219H26.232V207.848H30.232C30.9893 207.848 31.6347 207.976 32.168 208.232C32.7013 208.477 33.1013 208.813 33.368 209.24C33.6347 209.667 33.768 210.147 33.768 210.68C33.768 211.341 33.5867 211.891 33.224 212.328C32.872 212.755 32.4027 213.064 31.816 213.256ZM27.688 212.664H30.136C30.8187 212.664 31.3467 212.504 31.72 212.184C32.0933 211.864 32.28 211.421 32.28 210.856C32.28 210.291 32.0933 209.848 31.72 209.528C31.3467 209.208 30.808 209.048 30.104 209.048H27.688V212.664ZM30.264 217.8C30.9893 217.8 31.5547 217.629 31.96 217.288C32.3653 216.947 32.568 216.472 32.568 215.864C32.568 215.245 32.3547 214.76 31.928 214.408C31.5013 214.045 30.9307 213.864 30.216 213.864H27.688V217.8H30.264ZM35.5005 214.584C35.5005 213.688 35.6818 212.904 36.0445 212.232C36.4072 211.549 36.9032 211.021 37.5325 210.648C38.1725 210.275 38.8818 210.088 39.6605 210.088C40.4285 210.088 41.0952 210.253 41.6605 210.584C42.2258 210.915 42.6472 211.331 42.9245 211.832V210.232H44.3965V219H42.9245V217.368C42.6365 217.88 42.2045 218.307 41.6285 218.648C41.0632 218.979 40.4018 219.144 39.6445 219.144C38.8658 219.144 38.1618 218.952 37.5325 218.568C36.9032 218.184 36.4072 217.645 36.0445 216.952C35.6818 216.259 35.5005 215.469 35.5005 214.584ZM42.9245 214.6C42.9245 213.939 42.7912 213.363 42.5245 212.872C42.2578 212.381 41.8952 212.008 41.4365 211.752C40.9885 211.485 40.4925 211.352 39.9485 211.352C39.4045 211.352 38.9085 211.48 38.4605 211.736C38.0125 211.992 37.6552 212.365 37.3885 212.856C37.1218 213.347 36.9885 213.923 36.9885 214.584C36.9885 215.256 37.1218 215.843 37.3885 216.344C37.6552 216.835 38.0125 217.213 38.4605 217.48C38.9085 217.736 39.4045 217.864 39.9485 217.864C40.4925 217.864 40.9885 217.736 41.4365 217.48C41.8952 217.213 42.2578 216.835 42.5245 216.344C42.7912 215.843 42.9245 215.261 42.9245 214.6ZM51.129 210.072C52.1957 210.072 53.0597 210.397 53.721 211.048C54.3823 211.688 54.713 212.616 54.713 213.832V219H53.273V214.04C53.273 213.165 53.0543 212.499 52.617 212.04C52.1797 211.571 51.5823 211.336 50.825 211.336C50.057 211.336 49.4437 211.576 48.985 212.056C48.537 212.536 48.313 213.235 48.313 214.152V219H46.857V210.232H48.313V211.48C48.601 211.032 48.9903 210.685 49.481 210.44C49.9823 210.195 50.5317 210.072 51.129 210.072ZM61.9874 219L58.5474 215.128V219H57.0914V207.16H58.5474V214.12L61.9234 210.232H63.9554L59.8274 214.6L63.9714 219H61.9874ZM68.4298 219.144C67.7578 219.144 67.1551 219.032 66.6218 218.808C66.0884 218.573 65.6671 218.253 65.3578 217.848C65.0484 217.432 64.8778 216.957 64.8458 216.424H66.3498C66.3924 216.861 66.5951 217.219 66.9578 217.496C67.3311 217.773 67.8164 217.912 68.4138 217.912C68.9684 217.912 69.4058 217.789 69.7258 217.544C70.0458 217.299 70.2058 216.989 70.2058 216.616C70.2058 216.232 70.0351 215.949 69.6938 215.768C69.3524 215.576 68.8244 215.389 68.1098 215.208C67.4591 215.037 66.9258 214.867 66.5098 214.696C66.1044 214.515 65.7524 214.253 65.4538 213.912C65.1658 213.56 65.0218 213.101 65.0218 212.536C65.0218 212.088 65.1551 211.677 65.4218 211.304C65.6884 210.931 66.0671 210.637 66.5578 210.424C67.0484 210.2 67.6084 210.088 68.2378 210.088C69.2084 210.088 69.9924 210.333 70.5898 210.824C71.1871 211.315 71.5071 211.987 71.5498 212.84H70.0938C70.0618 212.381 69.8751 212.013 69.5338 211.736C69.2031 211.459 68.7551 211.32 68.1898 211.32C67.6671 211.32 67.2511 211.432 66.9418 211.656C66.6324 211.88 66.4778 212.173 66.4778 212.536C66.4778 212.824 66.5684 213.064 66.7498 213.256C66.9418 213.437 67.1764 213.587 67.4538 213.704C67.7418 213.811 68.1364 213.933 68.6378 214.072C69.2671 214.243 69.7791 214.413 70.1738 214.584C70.5684 214.744 70.9044 214.989 71.1818 215.32C71.4698 215.651 71.6191 216.083 71.6298 216.616C71.6298 217.096 71.4964 217.528 71.2298 217.912C70.9631 218.296 70.5844 218.6 70.0938 218.824C69.6138 219.037 69.0591 219.144 68.4298 219.144ZM77.4068 214.6C77.4068 213.693 77.5881 212.904 77.9508 212.232C78.3134 211.549 78.8148 211.021 79.4548 210.648C80.1054 210.275 80.8468 210.088 81.6788 210.088C82.7561 210.088 83.6414 210.349 84.3348 210.872C85.0388 211.395 85.5028 212.12 85.7268 213.048H84.1588C84.0094 212.515 83.7161 212.093 83.2788 211.784C82.8521 211.475 82.3188 211.32 81.6788 211.32C80.8468 211.32 80.1748 211.608 79.6628 212.184C79.1508 212.749 78.8948 213.555 78.8948 214.6C78.8948 215.656 79.1508 216.472 79.6628 217.048C80.1748 217.624 80.8468 217.912 81.6788 217.912C82.3188 217.912 82.8521 217.763 83.2788 217.464C83.7054 217.165 83.9988 216.739 84.1588 216.184H85.7268C85.4921 217.08 85.0228 217.8 84.3188 218.344C83.6148 218.877 82.7348 219.144 81.6788 219.144C80.8468 219.144 80.1054 218.957 79.4548 218.584C78.8148 218.211 78.3134 217.683 77.9508 217C77.5881 216.317 77.4068 215.517 77.4068 214.6ZM87.1255 214.584C87.1255 213.688 87.3068 212.904 87.6695 212.232C88.0322 211.549 88.5282 211.021 89.1575 210.648C89.7975 210.275 90.5068 210.088 91.2855 210.088C92.0535 210.088 92.7202 210.253 93.2855 210.584C93.8508 210.915 94.2722 211.331 94.5495 211.832V210.232H96.0215V219H94.5495V217.368C94.2615 217.88 93.8295 218.307 93.2535 218.648C92.6882 218.979 92.0268 219.144 91.2695 219.144C90.4908 219.144 89.7868 218.952 89.1575 218.568C88.5282 218.184 88.0322 217.645 87.6695 216.952C87.3068 216.259 87.1255 215.469 87.1255 214.584ZM94.5495 214.6C94.5495 213.939 94.4162 213.363 94.1495 212.872C93.8828 212.381 93.5202 212.008 93.0615 211.752C92.6135 211.485 92.1175 211.352 91.5735 211.352C91.0295 211.352 90.5335 211.48 90.0855 211.736C89.6375 211.992 89.2802 212.365 89.0135 212.856C88.7468 213.347 88.6135 213.923 88.6135 214.584C88.6135 215.256 88.7468 215.843 89.0135 216.344C89.2802 216.835 89.6375 217.213 90.0855 217.48C90.5335 217.736 91.0295 217.864 91.5735 217.864C92.1175 217.864 92.6135 217.736 93.0615 217.48C93.5202 217.213 93.8828 216.835 94.1495 216.344C94.4162 215.843 94.5495 215.261 94.5495 214.6ZM102.754 210.072C103.821 210.072 104.685 210.397 105.346 211.048C106.007 211.688 106.338 212.616 106.338 213.832V219H104.898V214.04C104.898 213.165 104.679 212.499 104.242 212.04C103.805 211.571 103.207 211.336 102.45 211.336C101.682 211.336 101.069 211.576 100.61 212.056C100.162 212.536 99.938 213.235 99.938 214.152V219H98.482V210.232H99.938V211.48C100.226 211.032 100.615 210.685 101.106 210.44C101.607 210.195 102.157 210.072 102.754 210.072ZM113.734 208.808C113.457 208.808 113.222 208.712 113.03 208.52C112.838 208.328 112.742 208.093 112.742 207.816C112.742 207.539 112.838 207.304 113.03 207.112C113.222 206.92 113.457 206.824 113.734 206.824C114.001 206.824 114.225 206.92 114.406 207.112C114.598 207.304 114.694 207.539 114.694 207.816C114.694 208.093 114.598 208.328 114.406 208.52C114.225 208.712 114.001 208.808 113.734 208.808ZM114.438 210.232V219H112.982V210.232H114.438ZM121.192 210.072C122.258 210.072 123.122 210.397 123.784 211.048C124.445 211.688 124.776 212.616 124.776 213.832V219H123.336V214.04C123.336 213.165 123.117 212.499 122.68 212.04C122.242 211.571 121.645 211.336 120.888 211.336C120.12 211.336 119.506 211.576 119.048 212.056C118.6 212.536 118.376 213.235 118.376 214.152V219H116.92V210.232H118.376V211.48C118.664 211.032 119.053 210.685 119.544 210.44C120.045 210.195 120.594 210.072 121.192 210.072ZM128.93 211.432V216.6C128.93 217.027 129.021 217.331 129.202 217.512C129.383 217.683 129.698 217.768 130.146 217.768H131.218V219H129.906C129.095 219 128.487 218.813 128.082 218.44C127.677 218.067 127.474 217.453 127.474 216.6V211.432H126.338V210.232H127.474V208.024H128.93V210.232H131.218V211.432H128.93ZM140.982 214.28C140.982 214.557 140.966 214.851 140.934 215.16H133.926C133.979 216.024 134.273 216.701 134.806 217.192C135.35 217.672 136.006 217.912 136.774 217.912C137.403 217.912 137.926 217.768 138.342 217.48C138.769 217.181 139.067 216.787 139.238 216.296H140.806C140.571 217.139 140.102 217.827 139.398 218.36C138.694 218.883 137.819 219.144 136.774 219.144C135.942 219.144 135.195 218.957 134.534 218.584C133.883 218.211 133.371 217.683 132.998 217C132.625 216.307 132.438 215.507 132.438 214.6C132.438 213.693 132.619 212.899 132.982 212.216C133.345 211.533 133.851 211.011 134.502 210.648C135.163 210.275 135.921 210.088 136.774 210.088C137.606 210.088 138.342 210.269 138.982 210.632C139.622 210.995 140.113 211.496 140.454 212.136C140.806 212.765 140.982 213.48 140.982 214.28ZM139.478 213.976C139.478 213.421 139.355 212.947 139.11 212.552C138.865 212.147 138.529 211.843 138.102 211.64C137.686 211.427 137.222 211.32 136.71 211.32C135.974 211.32 135.345 211.555 134.822 212.024C134.31 212.493 134.017 213.144 133.942 213.976H139.478ZM146.52 210.088C147.277 210.088 147.939 210.253 148.504 210.584C149.08 210.915 149.507 211.331 149.784 211.832V210.232H151.256V219.192C151.256 219.992 151.085 220.701 150.744 221.32C150.403 221.949 149.912 222.44 149.272 222.792C148.643 223.144 147.907 223.32 147.064 223.32C145.912 223.32 144.952 223.048 144.184 222.504C143.416 221.96 142.963 221.219 142.824 220.28H144.264C144.424 220.813 144.755 221.24 145.256 221.56C145.757 221.891 146.36 222.056 147.064 222.056C147.864 222.056 148.515 221.805 149.016 221.304C149.528 220.803 149.784 220.099 149.784 219.192V217.352C149.496 217.864 149.069 218.291 148.504 218.632C147.939 218.973 147.277 219.144 146.52 219.144C145.741 219.144 145.032 218.952 144.392 218.568C143.763 218.184 143.267 217.645 142.904 216.952C142.541 216.259 142.36 215.469 142.36 214.584C142.36 213.688 142.541 212.904 142.904 212.232C143.267 211.549 143.763 211.021 144.392 210.648C145.032 210.275 145.741 210.088 146.52 210.088ZM149.784 214.6C149.784 213.939 149.651 213.363 149.384 212.872C149.117 212.381 148.755 212.008 148.296 211.752C147.848 211.485 147.352 211.352 146.808 211.352C146.264 211.352 145.768 211.48 145.32 211.736C144.872 211.992 144.515 212.365 144.248 212.856C143.981 213.347 143.848 213.923 143.848 214.584C143.848 215.256 143.981 215.843 144.248 216.344C144.515 216.835 144.872 217.213 145.32 217.48C145.768 217.736 146.264 217.864 146.808 217.864C147.352 217.864 147.848 217.736 148.296 217.48C148.755 217.213 149.117 216.835 149.384 216.344C149.651 215.843 149.784 215.261 149.784 214.6ZM155.172 211.656C155.428 211.155 155.791 210.765 156.26 210.488C156.74 210.211 157.322 210.072 158.004 210.072V211.576H157.62C155.988 211.576 155.172 212.461 155.172 214.232V219H153.716V210.232H155.172V211.656ZM159.141 214.584C159.141 213.688 159.322 212.904 159.685 212.232C160.048 211.549 160.544 211.021 161.173 210.648C161.813 210.275 162.522 210.088 163.301 210.088C164.069 210.088 164.736 210.253 165.301 210.584C165.866 210.915 166.288 211.331 166.565 211.832V210.232H168.037V219H166.565V217.368C166.277 217.88 165.845 218.307 165.269 218.648C164.704 218.979 164.042 219.144 163.285 219.144C162.506 219.144 161.802 218.952 161.173 218.568C160.544 218.184 160.048 217.645 159.685 216.952C159.322 216.259 159.141 215.469 159.141 214.584ZM166.565 214.6C166.565 213.939 166.432 213.363 166.165 212.872C165.898 212.381 165.536 212.008 165.077 211.752C164.629 211.485 164.133 211.352 163.589 211.352C163.045 211.352 162.549 211.48 162.101 211.736C161.653 211.992 161.296 212.365 161.029 212.856C160.762 213.347 160.629 213.923 160.629 214.584C160.629 215.256 160.762 215.843 161.029 216.344C161.296 216.835 161.653 217.213 162.101 217.48C162.549 217.736 163.045 217.864 163.589 217.864C164.133 217.864 164.629 217.736 165.077 217.48C165.536 217.213 165.898 216.835 166.165 216.344C166.432 215.843 166.565 215.261 166.565 214.6ZM172.274 211.432V216.6C172.274 217.027 172.364 217.331 172.546 217.512C172.727 217.683 173.042 217.768 173.49 217.768H174.562V219H173.25C172.439 219 171.831 218.813 171.426 218.44C171.02 218.067 170.818 217.453 170.818 216.6V211.432H169.682V210.232H170.818V208.024H172.274V210.232H174.562V211.432H172.274ZM184.326 214.28C184.326 214.557 184.31 214.851 184.278 215.16H177.27C177.323 216.024 177.616 216.701 178.15 217.192C178.694 217.672 179.35 217.912 180.118 217.912C180.747 217.912 181.27 217.768 181.686 217.48C182.112 217.181 182.411 216.787 182.582 216.296H184.15C183.915 217.139 183.446 217.827 182.742 218.36C182.038 218.883 181.163 219.144 180.118 219.144C179.286 219.144 178.539 218.957 177.878 218.584C177.227 218.211 176.715 217.683 176.342 217C175.968 216.307 175.782 215.507 175.782 214.6C175.782 213.693 175.963 212.899 176.326 212.216C176.688 211.533 177.195 211.011 177.846 210.648C178.507 210.275 179.264 210.088 180.118 210.088C180.95 210.088 181.686 210.269 182.326 210.632C182.966 210.995 183.456 211.496 183.798 212.136C184.15 212.765 184.326 213.48 184.326 214.28ZM182.822 213.976C182.822 213.421 182.699 212.947 182.454 212.552C182.208 212.147 181.872 211.843 181.446 211.64C181.03 211.427 180.566 211.32 180.054 211.32C179.318 211.32 178.688 211.555 178.166 212.024C177.654 212.493 177.36 213.144 177.286 213.976H182.822ZM202.193 210.232L199.457 219H197.953L195.841 212.04L193.729 219H192.225L189.473 210.232H190.961L192.977 217.592L195.153 210.232H196.641L198.769 217.608L200.753 210.232H202.193ZM204.39 208.808C204.113 208.808 203.878 208.712 203.686 208.52C203.494 208.328 203.398 208.093 203.398 207.816C203.398 207.539 203.494 207.304 203.686 207.112C203.878 206.92 204.113 206.824 204.39 206.824C204.657 206.824 204.881 206.92 205.062 207.112C205.254 207.304 205.35 207.539 205.35 207.816C205.35 208.093 205.254 208.328 205.062 208.52C204.881 208.712 204.657 208.808 204.39 208.808ZM205.094 210.232V219H203.638V210.232H205.094ZM209.352 211.432V216.6C209.352 217.027 209.442 217.331 209.624 217.512C209.805 217.683 210.12 217.768 210.568 217.768H211.64V219H210.328C209.517 219 208.909 218.813 208.504 218.44C208.098 218.067 207.896 217.453 207.896 216.6V211.432H206.76V210.232H207.896V208.024H209.352V210.232H211.64V211.432H209.352ZM217.756 210.072C218.417 210.072 219.015 210.216 219.548 210.504C220.081 210.781 220.497 211.203 220.796 211.768C221.105 212.333 221.26 213.021 221.26 213.832V219H219.82V214.04C219.82 213.165 219.601 212.499 219.164 212.04C218.727 211.571 218.129 211.336 217.372 211.336C216.604 211.336 215.991 211.576 215.532 212.056C215.084 212.536 214.86 213.235 214.86 214.152V219H213.404V207.16H214.86V211.48C215.148 211.032 215.543 210.685 216.044 210.44C216.556 210.195 217.127 210.072 217.756 210.072ZM229.68 211.432V216.6C229.68 217.027 229.771 217.331 229.952 217.512C230.133 217.683 230.448 217.768 230.896 217.768H231.968V219H230.656C229.845 219 229.237 218.813 228.832 218.44C228.427 218.067 228.224 217.453 228.224 216.6V211.432H227.088V210.232H228.224V208.024H229.68V210.232H231.968V211.432H229.68ZM238.084 210.072C238.745 210.072 239.343 210.216 239.876 210.504C240.409 210.781 240.825 211.203 241.124 211.768C241.433 212.333 241.588 213.021 241.588 213.832V219H240.148V214.04C240.148 213.165 239.929 212.499 239.492 212.04C239.055 211.571 238.457 211.336 237.7 211.336C236.932 211.336 236.319 211.576 235.86 212.056C235.412 212.536 235.188 213.235 235.188 214.152V219H233.732V207.16H235.188V211.48C235.476 211.032 235.871 210.685 236.372 210.44C236.884 210.195 237.455 210.072 238.084 210.072ZM251.966 214.28C251.966 214.557 251.95 214.851 251.918 215.16H244.91C244.964 216.024 245.257 216.701 245.79 217.192C246.334 217.672 246.99 217.912 247.758 217.912C248.388 217.912 248.91 217.768 249.326 217.48C249.753 217.181 250.052 216.787 250.222 216.296H251.79C251.556 217.139 251.086 217.827 250.382 218.36C249.678 218.883 248.804 219.144 247.758 219.144C246.926 219.144 246.18 218.957 245.518 218.584C244.868 218.211 244.356 217.683 243.982 217C243.609 216.307 243.422 215.507 243.422 214.6C243.422 213.693 243.604 212.899 243.966 212.216C244.329 211.533 244.836 211.011 245.486 210.648C246.148 210.275 246.905 210.088 247.758 210.088C248.59 210.088 249.326 210.269 249.966 210.632C250.606 210.995 251.097 211.496 251.438 212.136C251.79 212.765 251.966 213.48 251.966 214.28ZM250.462 213.976C250.462 213.421 250.34 212.947 250.094 212.552C249.849 212.147 249.513 211.843 249.086 211.64C248.67 211.427 248.206 211.32 247.694 211.32C246.958 211.32 246.329 211.555 245.806 212.024C245.294 212.493 245.001 213.144 244.926 213.976H250.462ZM27.688 235.848C27.976 235.347 28.4027 234.931 28.968 234.6C29.544 234.259 30.2107 234.088 30.968 234.088C31.7467 234.088 32.4507 234.275 33.08 234.648C33.72 235.021 34.2213 235.549 34.584 236.232C34.9467 236.904 35.128 237.688 35.128 238.584C35.128 239.469 34.9467 240.259 34.584 240.952C34.2213 241.645 33.72 242.184 33.08 242.568C32.4507 242.952 31.7467 243.144 30.968 243.144C30.2213 243.144 29.56 242.979 28.984 242.648C28.4187 242.307 27.9867 241.885 27.688 241.384V247.16H26.232V234.232H27.688V235.848ZM33.64 238.584C33.64 237.923 33.5067 237.347 33.24 236.856C32.9733 236.365 32.6107 235.992 32.152 235.736C31.704 235.48 31.208 235.352 30.664 235.352C30.1307 235.352 29.6347 235.485 29.176 235.752C28.728 236.008 28.3653 236.387 28.088 236.888C27.8213 237.379 27.688 237.949 27.688 238.6C27.688 239.261 27.8213 239.843 28.088 240.344C28.3653 240.835 28.728 241.213 29.176 241.48C29.6347 241.736 30.1307 241.864 30.664 241.864C31.208 241.864 31.704 241.736 32.152 241.48C32.6107 241.213 32.9733 240.835 33.24 240.344C33.5067 239.843 33.64 239.256 33.64 238.584ZM38.5005 231.16V243H37.0445V231.16H38.5005ZM40.438 238.584C40.438 237.688 40.6193 236.904 40.982 236.232C41.3447 235.549 41.8407 235.021 42.47 234.648C43.11 234.275 43.8193 234.088 44.598 234.088C45.366 234.088 46.0327 234.253 46.598 234.584C47.1633 234.915 47.5847 235.331 47.862 235.832V234.232H49.334V243H47.862V241.368C47.574 241.88 47.142 242.307 46.566 242.648C46.0007 242.979 45.3393 243.144 44.582 243.144C43.8033 243.144 43.0993 242.952 42.47 242.568C41.8407 242.184 41.3447 241.645 40.982 240.952C40.6193 240.259 40.438 239.469 40.438 238.584ZM47.862 238.6C47.862 237.939 47.7287 237.363 47.462 236.872C47.1953 236.381 46.8327 236.008 46.374 235.752C45.926 235.485 45.43 235.352 44.886 235.352C44.342 235.352 43.846 235.48 43.398 235.736C42.95 235.992 42.5927 236.365 42.326 236.856C42.0593 237.347 41.926 237.923 41.926 238.584C41.926 239.256 42.0593 239.843 42.326 240.344C42.5927 240.835 42.95 241.213 43.398 241.48C43.846 241.736 44.342 241.864 44.886 241.864C45.43 241.864 45.926 241.736 46.374 241.48C46.8327 241.213 47.1953 240.835 47.462 240.344C47.7287 239.843 47.862 239.261 47.862 238.6ZM53.5705 235.432V240.6C53.5705 241.027 53.6612 241.331 53.8425 241.512C54.0238 241.683 54.3385 241.768 54.7865 241.768H55.8585V243H54.5465C53.7358 243 53.1278 242.813 52.7225 242.44C52.3172 242.067 52.1145 241.453 52.1145 240.6V235.432H50.9785V234.232H52.1145V232.024H53.5705V234.232H55.8585V235.432H53.5705ZM61.1906 235.432H59.3506V243H57.8946V235.432H56.7586V234.232H57.8946V233.608C57.8946 232.627 58.1453 231.912 58.6466 231.464C59.1586 231.005 59.9746 230.776 61.0946 230.776V231.992C60.4546 231.992 60.0013 232.12 59.7346 232.376C59.4786 232.621 59.3506 233.032 59.3506 233.608V234.232H61.1906V235.432ZM66.7123 243.144C65.8909 243.144 65.1443 242.957 64.4723 242.584C63.8109 242.211 63.2883 241.683 62.9043 241C62.5309 240.307 62.3443 239.507 62.3443 238.6C62.3443 237.704 62.5363 236.915 62.9203 236.232C63.3149 235.539 63.8483 235.011 64.5203 234.648C65.1923 234.275 65.9443 234.088 66.7763 234.088C67.6083 234.088 68.3603 234.275 69.0323 234.648C69.7043 235.011 70.2323 235.533 70.6163 236.216C71.0109 236.899 71.2083 237.693 71.2083 238.6C71.2083 239.507 71.0056 240.307 70.6003 241C70.2056 241.683 69.6669 242.211 68.9843 242.584C68.3016 242.957 67.5443 243.144 66.7123 243.144ZM66.7123 241.864C67.2349 241.864 67.7256 241.741 68.1843 241.496C68.6429 241.251 69.0109 240.883 69.2883 240.392C69.5763 239.901 69.7203 239.304 69.7203 238.6C69.7203 237.896 69.5816 237.299 69.3043 236.808C69.0269 236.317 68.6643 235.955 68.2163 235.72C67.7683 235.475 67.2829 235.352 66.7603 235.352C66.2269 235.352 65.7363 235.475 65.2883 235.72C64.8509 235.955 64.4989 236.317 64.2323 236.808C63.9656 237.299 63.8323 237.896 63.8323 238.6C63.8323 239.315 63.9603 239.917 64.2163 240.408C64.4829 240.899 64.8349 241.267 65.2723 241.512C65.7096 241.747 66.1896 241.864 66.7123 241.864ZM74.5786 235.656C74.8346 235.155 75.1973 234.765 75.6666 234.488C76.1466 234.211 76.728 234.072 77.4106 234.072V235.576H77.0266C75.3946 235.576 74.5786 236.461 74.5786 238.232V243H73.1226V234.232H74.5786V235.656ZM89.6354 234.072C90.318 234.072 90.926 234.216 91.4594 234.504C91.9927 234.781 92.414 235.203 92.7234 235.768C93.0327 236.333 93.1874 237.021 93.1874 237.832V243H91.7474V238.04C91.7474 237.165 91.5287 236.499 91.0914 236.04C90.6647 235.571 90.0834 235.336 89.3474 235.336C88.59 235.336 87.9874 235.581 87.5394 236.072C87.0914 236.552 86.8674 237.251 86.8674 238.168V243H85.4274V238.04C85.4274 237.165 85.2087 236.499 84.7714 236.04C84.3447 235.571 83.7634 235.336 83.0274 235.336C82.27 235.336 81.6674 235.581 81.2194 236.072C80.7714 236.552 80.5474 237.251 80.5474 238.168V243H79.0914V234.232H80.5474V235.496C80.8354 235.037 81.2194 234.685 81.6994 234.44C82.19 234.195 82.7287 234.072 83.3154 234.072C84.0514 234.072 84.702 234.237 85.2674 234.568C85.8327 234.899 86.254 235.384 86.5314 236.024C86.7767 235.405 87.182 234.925 87.7474 234.584C88.3127 234.243 88.942 234.072 89.6354 234.072ZM101.617 235.432V240.6C101.617 241.027 101.708 241.331 101.889 241.512C102.071 241.683 102.385 241.768 102.833 241.768H103.905V243H102.593C101.783 243 101.175 242.813 100.769 242.44C100.364 242.067 100.161 241.453 100.161 240.6V235.432H99.0254V234.232H100.161V232.024H101.617V234.232H103.905V235.432H101.617ZM109.494 243.144C108.672 243.144 107.926 242.957 107.254 242.584C106.592 242.211 106.07 241.683 105.686 241C105.312 240.307 105.126 239.507 105.126 238.6C105.126 237.704 105.318 236.915 105.702 236.232C106.096 235.539 106.63 235.011 107.302 234.648C107.974 234.275 108.726 234.088 109.558 234.088C110.39 234.088 111.142 234.275 111.814 234.648C112.486 235.011 113.014 235.533 113.398 236.216C113.792 236.899 113.99 237.693 113.99 238.6C113.99 239.507 113.787 240.307 113.382 241C112.987 241.683 112.448 242.211 111.766 242.584C111.083 242.957 110.326 243.144 109.494 243.144ZM109.494 241.864C110.016 241.864 110.507 241.741 110.966 241.496C111.424 241.251 111.792 240.883 112.07 240.392C112.358 239.901 112.502 239.304 112.502 238.6C112.502 237.896 112.363 237.299 112.086 236.808C111.808 236.317 111.446 235.955 110.998 235.72C110.55 235.475 110.064 235.352 109.542 235.352C109.008 235.352 108.518 235.475 108.07 235.72C107.632 235.955 107.28 236.317 107.014 236.808C106.747 237.299 106.614 237.896 106.614 238.6C106.614 239.315 106.742 239.917 106.998 240.408C107.264 240.899 107.616 241.267 108.054 241.512C108.491 241.747 108.971 241.864 109.494 241.864ZM121.946 235.432V240.6C121.946 241.027 122.036 241.331 122.218 241.512C122.399 241.683 122.714 241.768 123.161 241.768H124.234V243H122.922C122.111 243 121.503 242.813 121.098 242.44C120.692 242.067 120.49 241.453 120.49 240.6V235.432H119.354V234.232H120.49V232.024H121.946V234.232H124.234V235.432H121.946ZM127.454 235.656C127.71 235.155 128.072 234.765 128.542 234.488C129.022 234.211 129.603 234.072 130.286 234.072V235.576H129.902C128.27 235.576 127.454 236.461 127.454 238.232V243H125.998V234.232H127.454V235.656ZM131.422 238.584C131.422 237.688 131.604 236.904 131.966 236.232C132.329 235.549 132.825 235.021 133.454 234.648C134.094 234.275 134.804 234.088 135.582 234.088C136.35 234.088 137.017 234.253 137.582 234.584C138.148 234.915 138.569 235.331 138.846 235.832V234.232H140.318V243H138.846V241.368C138.558 241.88 138.126 242.307 137.55 242.648C136.985 242.979 136.324 243.144 135.566 243.144C134.788 243.144 134.084 242.952 133.454 242.568C132.825 242.184 132.329 241.645 131.966 240.952C131.604 240.259 131.422 239.469 131.422 238.584ZM138.846 238.6C138.846 237.939 138.713 237.363 138.446 236.872C138.18 236.381 137.817 236.008 137.358 235.752C136.91 235.485 136.414 235.352 135.87 235.352C135.326 235.352 134.83 235.48 134.382 235.736C133.934 235.992 133.577 236.365 133.31 236.856C133.044 237.347 132.91 237.923 132.91 238.584C132.91 239.256 133.044 239.843 133.31 240.344C133.577 240.835 133.934 241.213 134.382 241.48C134.83 241.736 135.326 241.864 135.87 241.864C136.414 241.864 136.91 241.736 137.358 241.48C137.817 241.213 138.18 240.835 138.446 240.344C138.713 239.843 138.846 239.261 138.846 238.6ZM142.235 238.6C142.235 237.693 142.416 236.904 142.779 236.232C143.142 235.549 143.643 235.021 144.283 234.648C144.934 234.275 145.675 234.088 146.507 234.088C147.584 234.088 148.47 234.349 149.163 234.872C149.867 235.395 150.331 236.12 150.555 237.048H148.987C148.838 236.515 148.544 236.093 148.107 235.784C147.68 235.475 147.147 235.32 146.507 235.32C145.675 235.32 145.003 235.608 144.491 236.184C143.979 236.749 143.723 237.555 143.723 238.6C143.723 239.656 143.979 240.472 144.491 241.048C145.003 241.624 145.675 241.912 146.507 241.912C147.147 241.912 147.68 241.763 148.107 241.464C148.534 241.165 148.827 240.739 148.987 240.184H150.555C150.32 241.08 149.851 241.8 149.147 242.344C148.443 242.877 147.563 243.144 146.507 243.144C145.675 243.144 144.934 242.957 144.283 242.584C143.643 242.211 143.142 241.683 142.779 241C142.416 240.317 142.235 239.517 142.235 238.6ZM157.394 243L153.954 239.128V243H152.498V231.16H153.954V238.12L157.33 234.232H159.362L155.234 238.6L159.378 243H157.394ZM161.196 243.096C160.919 243.096 160.684 243 160.492 242.808C160.3 242.616 160.204 242.381 160.204 242.104C160.204 241.827 160.3 241.592 160.492 241.4C160.684 241.208 160.919 241.112 161.196 241.112C161.463 241.112 161.687 241.208 161.868 241.4C162.06 241.592 162.156 241.827 162.156 242.104C162.156 242.381 162.06 242.616 161.868 242.808C161.687 243 161.463 243.096 161.196 243.096Z" fill="white"/>
<circle cx="143" cy="80" r="50" fill="white"/>
<path d="M140.37 54.9094C141.174 54.3184 142.143 54 143.138 54C144.133 54 145.102 54.3184 145.906 54.9094L165.809 69.538C168.429 71.4611 167.08 75.6341 163.84 75.6422H122.433C119.193 75.6341 117.847 71.4611 120.464 69.538L140.367 54.9094H140.37ZM145.82 65.5108C145.82 64.7944 145.537 64.1074 145.034 63.6009C144.531 63.0944 143.849 62.8098 143.138 62.8098C142.427 62.8098 141.744 63.0944 141.241 63.6009C140.739 64.1074 140.456 64.7944 140.456 65.5108C140.456 66.2271 140.739 66.9141 141.241 67.4207C141.744 67.9272 142.427 68.2118 143.138 68.2118C143.849 68.2118 144.531 67.9272 145.034 67.4207C145.537 66.9141 145.82 66.2271 145.82 65.5108ZM141.126 91.8455H135.762V78.3405H141.126V91.8455ZM150.513 91.8455H145.149V78.3405H150.513V91.8455ZM160.571 91.8455H154.536V78.3405H160.571V91.8455ZM161.241 94.5465H125.034C123.434 94.5465 121.899 95.1868 120.767 96.3265C119.636 97.4662 119 99.012 119 100.624V101.974C119 103.095 119.901 104 121.011 104H165.264C165.798 104 166.309 103.787 166.687 103.407C167.064 103.027 167.276 102.512 167.276 101.974V100.624C167.276 99.012 166.64 97.4662 165.508 96.3265C164.377 95.1868 162.842 94.5465 161.241 94.5465ZM131.739 91.8455H125.705V78.3405H131.739V91.8455Z" fill="#8353ED"/>
<defs>
<linearGradient id="paint0_linear_86_59072" x1="1.06543e-06" y1="150" x2="292.5" y2="150" gradientUnits="userSpaceOnUse">
<stop stop-color="#8353ED"/>
<stop offset="1" stop-color="#E70CA0"/>
</linearGradient>
</defs>
</svg>
