<svg width="286" height="300" viewBox="0 0 286 300" fill="none" xmlns="http://www.w3.org/2000/svg">
<rect width="286" height="300" rx="10" fill="#E70CA0"/>
<path d="M94.5304 161.36C94.3024 160.94 93.9724 160.622 93.5404 160.406C93.1204 160.178 92.6224 160.064 92.0464 160.064C91.0504 160.064 90.2524 160.394 89.6524 161.054C89.0524 161.702 88.7524 162.572 88.7524 163.664C88.7524 164.828 89.0644 165.74 89.6884 166.4C90.3244 167.048 91.1944 167.372 92.2984 167.372C93.0544 167.372 93.6904 167.18 94.2064 166.796C94.7344 166.412 95.1184 165.86 95.3584 165.14H91.4524V162.872H98.1484V165.734C97.9204 166.502 97.5304 167.216 96.9784 167.876C96.4384 168.536 95.7484 169.07 94.9084 169.478C94.0684 169.886 93.1204 170.09 92.0644 170.09C90.8164 170.09 89.7004 169.82 88.7164 169.28C87.7444 168.728 86.9824 167.966 86.4304 166.994C85.8904 166.022 85.6204 164.912 85.6204 163.664C85.6204 162.416 85.8904 161.306 86.4304 160.334C86.9824 159.35 87.7444 158.588 88.7164 158.048C89.6884 157.496 90.7984 157.22 92.0464 157.22C93.5584 157.22 94.8304 157.586 95.8624 158.318C96.9064 159.05 97.5964 160.064 97.9324 161.36H94.5304ZM104.425 170.144C103.441 170.144 102.553 169.934 101.761 169.514C100.981 169.094 100.363 168.494 99.9073 167.714C99.4633 166.934 99.2413 166.022 99.2413 164.978C99.2413 163.946 99.4693 163.04 99.9253 162.26C100.381 161.468 101.005 160.862 101.797 160.442C102.589 160.022 103.477 159.812 104.461 159.812C105.445 159.812 106.333 160.022 107.125 160.442C107.917 160.862 108.541 161.468 108.997 162.26C109.453 163.04 109.681 163.946 109.681 164.978C109.681 166.01 109.447 166.922 108.979 167.714C108.523 168.494 107.893 169.094 107.089 169.514C106.297 169.934 105.409 170.144 104.425 170.144ZM104.425 167.48C105.013 167.48 105.511 167.264 105.919 166.832C106.339 166.4 106.549 165.782 106.549 164.978C106.549 164.174 106.345 163.556 105.937 163.124C105.541 162.692 105.049 162.476 104.461 162.476C103.861 162.476 103.363 162.692 102.967 163.124C102.571 163.544 102.373 164.162 102.373 164.978C102.373 165.782 102.565 166.4 102.949 166.832C103.345 167.264 103.837 167.48 104.425 167.48ZM115.832 167.12L118.01 159.956H121.286L117.722 170H113.924L110.36 159.956H113.654L115.832 167.12ZM132.05 164.816C132.05 165.104 132.032 165.404 131.996 165.716H125.03C125.078 166.34 125.276 166.82 125.624 167.156C125.984 167.48 126.422 167.642 126.938 167.642C127.706 167.642 128.24 167.318 128.54 166.67H131.816C131.648 167.33 131.342 167.924 130.898 168.452C130.466 168.98 129.92 169.394 129.26 169.694C128.6 169.994 127.862 170.144 127.046 170.144C126.062 170.144 125.186 169.934 124.418 169.514C123.65 169.094 123.05 168.494 122.618 167.714C122.186 166.934 121.97 166.022 121.97 164.978C121.97 163.934 122.18 163.022 122.6 162.242C123.032 161.462 123.632 160.862 124.4 160.442C125.168 160.022 126.05 159.812 127.046 159.812C128.018 159.812 128.882 160.016 129.638 160.424C130.394 160.832 130.982 161.414 131.402 162.17C131.834 162.926 132.05 163.808 132.05 164.816ZM128.9 164.006C128.9 163.478 128.72 163.058 128.36 162.746C128 162.434 127.55 162.278 127.01 162.278C126.494 162.278 126.056 162.428 125.696 162.728C125.348 163.028 125.132 163.454 125.048 164.006H128.9ZM136.752 161.63C137.112 161.078 137.562 160.646 138.102 160.334C138.642 160.01 139.242 159.848 139.902 159.848V163.106H139.056C138.288 163.106 137.712 163.274 137.328 163.61C136.944 163.934 136.752 164.51 136.752 165.338V170H133.674V159.956H136.752V161.63ZM147.493 159.848C148.669 159.848 149.605 160.232 150.301 161C151.009 161.756 151.363 162.8 151.363 164.132V170H148.303V164.546C148.303 163.874 148.129 163.352 147.781 162.98C147.433 162.608 146.965 162.422 146.377 162.422C145.789 162.422 145.321 162.608 144.973 162.98C144.625 163.352 144.451 163.874 144.451 164.546V170H141.373V159.956H144.451V161.288C144.763 160.844 145.183 160.496 145.711 160.244C146.239 159.98 146.833 159.848 147.493 159.848ZM166.318 159.848C167.566 159.848 168.556 160.226 169.288 160.982C170.032 161.738 170.404 162.788 170.404 164.132V170H167.344V164.546C167.344 163.898 167.17 163.4 166.822 163.052C166.486 162.692 166.018 162.512 165.418 162.512C164.818 162.512 164.344 162.692 163.996 163.052C163.66 163.4 163.492 163.898 163.492 164.546V170H160.432V164.546C160.432 163.898 160.258 163.4 159.91 163.052C159.574 162.692 159.106 162.512 158.506 162.512C157.906 162.512 157.432 162.692 157.084 163.052C156.748 163.4 156.58 163.898 156.58 164.546V170H153.502V159.956H156.58V161.216C156.892 160.796 157.3 160.466 157.804 160.226C158.308 159.974 158.878 159.848 159.514 159.848C160.27 159.848 160.942 160.01 161.53 160.334C162.13 160.658 162.598 161.12 162.934 161.72C163.282 161.168 163.756 160.718 164.356 160.37C164.956 160.022 165.61 159.848 166.318 159.848ZM182.024 164.816C182.024 165.104 182.006 165.404 181.97 165.716H175.004C175.052 166.34 175.25 166.82 175.598 167.156C175.958 167.48 176.396 167.642 176.912 167.642C177.68 167.642 178.214 167.318 178.514 166.67H181.79C181.622 167.33 181.316 167.924 180.872 168.452C180.44 168.98 179.894 169.394 179.234 169.694C178.574 169.994 177.836 170.144 177.02 170.144C176.036 170.144 175.16 169.934 174.392 169.514C173.624 169.094 173.024 168.494 172.592 167.714C172.16 166.934 171.944 166.022 171.944 164.978C171.944 163.934 172.154 163.022 172.574 162.242C173.006 161.462 173.606 160.862 174.374 160.442C175.142 160.022 176.024 159.812 177.02 159.812C177.992 159.812 178.856 160.016 179.612 160.424C180.368 160.832 180.956 161.414 181.376 162.17C181.808 162.926 182.024 163.808 182.024 164.816ZM178.874 164.006C178.874 163.478 178.694 163.058 178.334 162.746C177.974 162.434 177.524 162.278 176.984 162.278C176.468 162.278 176.03 162.428 175.67 162.728C175.322 163.028 175.106 163.454 175.022 164.006H178.874ZM189.768 159.848C190.944 159.848 191.88 160.232 192.576 161C193.284 161.756 193.638 162.8 193.638 164.132V170H190.578V164.546C190.578 163.874 190.404 163.352 190.056 162.98C189.708 162.608 189.24 162.422 188.652 162.422C188.064 162.422 187.596 162.608 187.248 162.98C186.9 163.352 186.726 163.874 186.726 164.546V170H183.648V159.956H186.726V161.288C187.038 160.844 187.458 160.496 187.986 160.244C188.514 159.98 189.108 159.848 189.768 159.848ZM201.375 167.39V170H199.809C198.693 170 197.823 169.73 197.199 169.19C196.575 168.638 196.263 167.744 196.263 166.508V162.512H195.039V159.956H196.263V157.508H199.341V159.956H201.357V162.512H199.341V166.544C199.341 166.844 199.413 167.06 199.557 167.192C199.701 167.324 199.941 167.39 200.277 167.39H201.375Z" fill="white"/>
<path d="M34.68 211.08C34.3707 210.429 33.9227 209.928 33.336 209.576C32.7493 209.213 32.0667 209.032 31.288 209.032C30.5093 209.032 29.8053 209.213 29.176 209.576C28.5573 209.928 28.0667 210.44 27.704 211.112C27.352 211.773 27.176 212.541 27.176 213.416C27.176 214.291 27.352 215.059 27.704 215.72C28.0667 216.381 28.5573 216.893 29.176 217.256C29.8053 217.608 30.5093 217.784 31.288 217.784C32.376 217.784 33.272 217.459 33.976 216.808C34.68 216.157 35.0907 215.277 35.208 214.168H30.76V212.984H36.76V214.104C36.6747 215.021 36.3867 215.864 35.896 216.632C35.4053 217.389 34.76 217.992 33.96 218.44C33.16 218.877 32.2693 219.096 31.288 219.096C30.2533 219.096 29.3093 218.856 28.456 218.376C27.6027 217.885 26.9253 217.208 26.424 216.344C25.9333 215.48 25.688 214.504 25.688 213.416C25.688 212.328 25.9333 211.352 26.424 210.488C26.9253 209.613 27.6027 208.936 28.456 208.456C29.3093 207.965 30.2533 207.72 31.288 207.72C32.472 207.72 33.5173 208.013 34.424 208.6C35.3413 209.187 36.008 210.013 36.424 211.08H34.68ZM42.5091 219.144C41.6878 219.144 40.9411 218.957 40.2691 218.584C39.6078 218.211 39.0851 217.683 38.7011 217C38.3278 216.307 38.1411 215.507 38.1411 214.6C38.1411 213.704 38.3331 212.915 38.7171 212.232C39.1118 211.539 39.6451 211.011 40.3171 210.648C40.9891 210.275 41.7411 210.088 42.5731 210.088C43.4051 210.088 44.1571 210.275 44.8291 210.648C45.5011 211.011 46.0291 211.533 46.4131 212.216C46.8078 212.899 47.0051 213.693 47.0051 214.6C47.0051 215.507 46.8025 216.307 46.3971 217C46.0025 217.683 45.4638 218.211 44.7811 218.584C44.0985 218.957 43.3411 219.144 42.5091 219.144ZM42.5091 217.864C43.0318 217.864 43.5225 217.741 43.9811 217.496C44.4398 217.251 44.8078 216.883 45.0851 216.392C45.3731 215.901 45.5171 215.304 45.5171 214.6C45.5171 213.896 45.3785 213.299 45.1011 212.808C44.8238 212.317 44.4611 211.955 44.0131 211.72C43.5651 211.475 43.0798 211.352 42.5571 211.352C42.0238 211.352 41.5331 211.475 41.0851 211.72C40.6478 211.955 40.2958 212.317 40.0291 212.808C39.7625 213.299 39.6291 213.896 39.6291 214.6C39.6291 215.315 39.7571 215.917 40.0131 216.408C40.2798 216.899 40.6318 217.267 41.0691 217.512C41.5065 217.747 41.9865 217.864 42.5091 217.864ZM52.1835 217.656L54.9035 210.232H56.4555L53.0155 219H51.3195L47.8795 210.232H49.4475L52.1835 217.656ZM65.8883 214.28C65.8883 214.557 65.8723 214.851 65.8403 215.16H58.8323C58.8856 216.024 59.1789 216.701 59.7123 217.192C60.2563 217.672 60.9123 217.912 61.6803 217.912C62.3096 217.912 62.8323 217.768 63.2483 217.48C63.6749 217.181 63.9736 216.787 64.1443 216.296H65.7123C65.4776 217.139 65.0083 217.827 64.3043 218.36C63.6003 218.883 62.7256 219.144 61.6803 219.144C60.8483 219.144 60.1016 218.957 59.4403 218.584C58.7896 218.211 58.2776 217.683 57.9043 217C57.5309 216.307 57.3443 215.507 57.3443 214.6C57.3443 213.693 57.5256 212.899 57.8883 212.216C58.2509 211.533 58.7576 211.011 59.4083 210.648C60.0696 210.275 60.8269 210.088 61.6803 210.088C62.5123 210.088 63.2483 210.269 63.8883 210.632C64.5283 210.995 65.0189 211.496 65.3603 212.136C65.7123 212.765 65.8883 213.48 65.8883 214.28ZM64.3843 213.976C64.3843 213.421 64.2616 212.947 64.0163 212.552C63.7709 212.147 63.4349 211.843 63.0083 211.64C62.5923 211.427 62.1283 211.32 61.6163 211.32C60.8803 211.32 60.2509 211.555 59.7283 212.024C59.2163 212.493 58.9229 213.144 58.8483 213.976H64.3843ZM69.2661 211.656C69.5221 211.155 69.8848 210.765 70.3541 210.488C70.8341 210.211 71.4155 210.072 72.0981 210.072V211.576H71.7141C70.0821 211.576 69.2661 212.461 69.2661 214.232V219H67.8101V210.232H69.2661V211.656ZM78.0509 210.072C79.1175 210.072 79.9815 210.397 80.6429 211.048C81.3042 211.688 81.6349 212.616 81.6349 213.832V219H80.1949V214.04C80.1949 213.165 79.9762 212.499 79.5389 212.04C79.1015 211.571 78.5042 211.336 77.7469 211.336C76.9789 211.336 76.3655 211.576 75.9069 212.056C75.4589 212.536 75.2349 213.235 75.2349 214.152V219H73.7789V210.232H75.2349V211.48C75.5229 211.032 75.9122 210.685 76.4029 210.44C76.9042 210.195 77.4535 210.072 78.0509 210.072ZM94.5573 210.072C95.2399 210.072 95.8479 210.216 96.3813 210.504C96.9146 210.781 97.3359 211.203 97.6453 211.768C97.9546 212.333 98.1093 213.021 98.1093 213.832V219H96.6693V214.04C96.6693 213.165 96.4506 212.499 96.0133 212.04C95.5866 211.571 95.0053 211.336 94.2693 211.336C93.5119 211.336 92.9093 211.581 92.4613 212.072C92.0133 212.552 91.7893 213.251 91.7893 214.168V219H90.3493V214.04C90.3493 213.165 90.1306 212.499 89.6933 212.04C89.2666 211.571 88.6853 211.336 87.9493 211.336C87.1919 211.336 86.5893 211.581 86.1413 212.072C85.6933 212.552 85.4693 213.251 85.4693 214.168V219H84.0133V210.232H85.4693V211.496C85.7573 211.037 86.1413 210.685 86.6213 210.44C87.1119 210.195 87.6506 210.072 88.2373 210.072C88.9733 210.072 89.6239 210.237 90.1893 210.568C90.7546 210.899 91.1759 211.384 91.4533 212.024C91.6986 211.405 92.1039 210.925 92.6693 210.584C93.2346 210.243 93.8639 210.072 94.5573 210.072ZM108.498 214.28C108.498 214.557 108.482 214.851 108.45 215.16H101.442C101.495 216.024 101.788 216.701 102.322 217.192C102.866 217.672 103.522 217.912 104.29 217.912C104.919 217.912 105.442 217.768 105.858 217.48C106.284 217.181 106.583 216.787 106.754 216.296H108.322C108.087 217.139 107.618 217.827 106.914 218.36C106.21 218.883 105.335 219.144 104.29 219.144C103.458 219.144 102.711 218.957 102.05 218.584C101.399 218.211 100.887 217.683 100.514 217C100.14 216.307 99.9536 215.507 99.9536 214.6C99.9536 213.693 100.135 212.899 100.498 212.216C100.86 211.533 101.367 211.011 102.018 210.648C102.679 210.275 103.436 210.088 104.29 210.088C105.122 210.088 105.858 210.269 106.498 210.632C107.138 210.995 107.628 211.496 107.97 212.136C108.322 212.765 108.498 213.48 108.498 214.28ZM106.994 213.976C106.994 213.421 106.871 212.947 106.626 212.552C106.38 212.147 106.044 211.843 105.618 211.64C105.202 211.427 104.738 211.32 104.226 211.32C103.49 211.32 102.86 211.555 102.338 212.024C101.826 212.493 101.532 213.144 101.458 213.976H106.994ZM114.692 210.072C115.758 210.072 116.622 210.397 117.284 211.048C117.945 211.688 118.276 212.616 118.276 213.832V219H116.836V214.04C116.836 213.165 116.617 212.499 116.18 212.04C115.742 211.571 115.145 211.336 114.388 211.336C113.62 211.336 113.006 211.576 112.548 212.056C112.1 212.536 111.876 213.235 111.876 214.152V219H110.42V210.232H111.876V211.48C112.164 211.032 112.553 210.685 113.044 210.44C113.545 210.195 114.094 210.072 114.692 210.072ZM122.43 211.432V216.6C122.43 217.027 122.521 217.331 122.702 217.512C122.883 217.683 123.198 217.768 123.646 217.768H124.718V219H123.406C122.595 219 121.987 218.813 121.582 218.44C121.177 218.067 120.974 217.453 120.974 216.6V211.432H119.838V210.232H120.974V208.024H122.43V210.232H124.718V211.432H122.43ZM130.204 214.6C130.204 213.693 130.385 212.904 130.748 212.232C131.11 211.549 131.612 211.021 132.252 210.648C132.902 210.275 133.644 210.088 134.476 210.088C135.553 210.088 136.438 210.349 137.132 210.872C137.836 211.395 138.3 212.12 138.524 213.048H136.956C136.806 212.515 136.513 212.093 136.076 211.784C135.649 211.475 135.116 211.32 134.476 211.32C133.644 211.32 132.972 211.608 132.46 212.184C131.948 212.749 131.692 213.555 131.692 214.6C131.692 215.656 131.948 216.472 132.46 217.048C132.972 217.624 133.644 217.912 134.476 217.912C135.116 217.912 135.649 217.763 136.076 217.464C136.502 217.165 136.796 216.739 136.956 216.184H138.524C138.289 217.08 137.82 217.8 137.116 218.344C136.412 218.877 135.532 219.144 134.476 219.144C133.644 219.144 132.902 218.957 132.252 218.584C131.612 218.211 131.11 217.683 130.748 217C130.385 216.317 130.204 215.517 130.204 214.6ZM139.922 214.584C139.922 213.688 140.104 212.904 140.466 212.232C140.829 211.549 141.325 211.021 141.954 210.648C142.594 210.275 143.304 210.088 144.082 210.088C144.85 210.088 145.517 210.253 146.082 210.584C146.648 210.915 147.069 211.331 147.346 211.832V210.232H148.818V219H147.346V217.368C147.058 217.88 146.626 218.307 146.05 218.648C145.485 218.979 144.824 219.144 144.066 219.144C143.288 219.144 142.584 218.952 141.954 218.568C141.325 218.184 140.829 217.645 140.466 216.952C140.104 216.259 139.922 215.469 139.922 214.584ZM147.346 214.6C147.346 213.939 147.213 213.363 146.946 212.872C146.68 212.381 146.317 212.008 145.858 211.752C145.41 211.485 144.914 211.352 144.37 211.352C143.826 211.352 143.33 211.48 142.882 211.736C142.434 211.992 142.077 212.365 141.81 212.856C141.544 213.347 141.41 213.923 141.41 214.584C141.41 215.256 141.544 215.843 141.81 216.344C142.077 216.835 142.434 217.213 142.882 217.48C143.33 217.736 143.826 217.864 144.37 217.864C144.914 217.864 145.41 217.736 145.858 217.48C146.317 217.213 146.68 216.835 146.946 216.344C147.213 215.843 147.346 215.261 147.346 214.6ZM155.551 210.072C156.618 210.072 157.482 210.397 158.143 211.048C158.804 211.688 159.135 212.616 159.135 213.832V219H157.695V214.04C157.695 213.165 157.476 212.499 157.039 212.04C156.602 211.571 156.004 211.336 155.247 211.336C154.479 211.336 153.866 211.576 153.407 212.056C152.959 212.536 152.735 213.235 152.735 214.152V219H151.279V210.232H152.735V211.48C153.023 211.032 153.412 210.685 153.903 210.44C154.404 210.195 154.954 210.072 155.551 210.072ZM166.531 208.808C166.254 208.808 166.019 208.712 165.827 208.52C165.635 208.328 165.539 208.093 165.539 207.816C165.539 207.539 165.635 207.304 165.827 207.112C166.019 206.92 166.254 206.824 166.531 206.824C166.798 206.824 167.022 206.92 167.203 207.112C167.395 207.304 167.491 207.539 167.491 207.816C167.491 208.093 167.395 208.328 167.203 208.52C167.022 208.712 166.798 208.808 166.531 208.808ZM167.235 210.232V219H165.779V210.232H167.235ZM173.988 210.072C175.055 210.072 175.919 210.397 176.58 211.048C177.242 211.688 177.572 212.616 177.572 213.832V219H176.132V214.04C176.132 213.165 175.914 212.499 175.476 212.04C175.039 211.571 174.442 211.336 173.684 211.336C172.916 211.336 172.303 211.576 171.844 212.056C171.396 212.536 171.172 213.235 171.172 214.152V219H169.716V210.232H171.172V211.48C171.46 211.032 171.85 210.685 172.34 210.44C172.842 210.195 173.391 210.072 173.988 210.072ZM181.727 211.432V216.6C181.727 217.027 181.817 217.331 181.999 217.512C182.18 217.683 182.495 217.768 182.943 217.768H184.015V219H182.703C181.892 219 181.284 218.813 180.879 218.44C180.473 218.067 180.271 217.453 180.271 216.6V211.432H179.135V210.232H180.271V208.024H181.727V210.232H184.015V211.432H181.727ZM193.779 214.28C193.779 214.557 193.763 214.851 193.731 215.16H186.723C186.776 216.024 187.07 216.701 187.603 217.192C188.147 217.672 188.803 217.912 189.571 217.912C190.2 217.912 190.723 217.768 191.139 217.48C191.566 217.181 191.864 216.787 192.035 216.296H193.603C193.368 217.139 192.899 217.827 192.195 218.36C191.491 218.883 190.616 219.144 189.571 219.144C188.739 219.144 187.992 218.957 187.331 218.584C186.68 218.211 186.168 217.683 185.795 217C185.422 216.307 185.235 215.507 185.235 214.6C185.235 213.693 185.416 212.899 185.779 212.216C186.142 211.533 186.648 211.011 187.299 210.648C187.96 210.275 188.718 210.088 189.571 210.088C190.403 210.088 191.139 210.269 191.779 210.632C192.419 210.995 192.91 211.496 193.251 212.136C193.603 212.765 193.779 213.48 193.779 214.28ZM192.275 213.976C192.275 213.421 192.152 212.947 191.907 212.552C191.662 212.147 191.326 211.843 190.899 211.64C190.483 211.427 190.019 211.32 189.507 211.32C188.771 211.32 188.142 211.555 187.619 212.024C187.107 212.493 186.814 213.144 186.739 213.976H192.275ZM199.317 210.088C200.074 210.088 200.735 210.253 201.301 210.584C201.877 210.915 202.303 211.331 202.581 211.832V210.232H204.053V219.192C204.053 219.992 203.882 220.701 203.541 221.32C203.199 221.949 202.709 222.44 202.069 222.792C201.439 223.144 200.703 223.32 199.861 223.32C198.709 223.32 197.749 223.048 196.981 222.504C196.213 221.96 195.759 221.219 195.621 220.28H197.061C197.221 220.813 197.551 221.24 198.053 221.56C198.554 221.891 199.157 222.056 199.861 222.056C200.661 222.056 201.311 221.805 201.813 221.304C202.325 220.803 202.581 220.099 202.581 219.192V217.352C202.293 217.864 201.866 218.291 201.301 218.632C200.735 218.973 200.074 219.144 199.317 219.144C198.538 219.144 197.829 218.952 197.189 218.568C196.559 218.184 196.063 217.645 195.701 216.952C195.338 216.259 195.157 215.469 195.157 214.584C195.157 213.688 195.338 212.904 195.701 212.232C196.063 211.549 196.559 211.021 197.189 210.648C197.829 210.275 198.538 210.088 199.317 210.088ZM202.581 214.6C202.581 213.939 202.447 213.363 202.181 212.872C201.914 212.381 201.551 212.008 201.093 211.752C200.645 211.485 200.149 211.352 199.605 211.352C199.061 211.352 198.565 211.48 198.117 211.736C197.669 211.992 197.311 212.365 197.045 212.856C196.778 213.347 196.645 213.923 196.645 214.584C196.645 215.256 196.778 215.843 197.045 216.344C197.311 216.835 197.669 217.213 198.117 217.48C198.565 217.736 199.061 217.864 199.605 217.864C200.149 217.864 200.645 217.736 201.093 217.48C201.551 217.213 201.914 216.835 202.181 216.344C202.447 215.843 202.581 215.261 202.581 214.6ZM207.969 211.656C208.225 211.155 208.588 210.765 209.057 210.488C209.537 210.211 210.119 210.072 210.801 210.072V211.576H210.417C208.785 211.576 207.969 212.461 207.969 214.232V219H206.513V210.232H207.969V211.656ZM211.938 214.584C211.938 213.688 212.119 212.904 212.482 212.232C212.845 211.549 213.341 211.021 213.97 210.648C214.61 210.275 215.319 210.088 216.098 210.088C216.866 210.088 217.533 210.253 218.098 210.584C218.663 210.915 219.085 211.331 219.362 211.832V210.232H220.834V219H219.362V217.368C219.074 217.88 218.642 218.307 218.066 218.648C217.501 218.979 216.839 219.144 216.082 219.144C215.303 219.144 214.599 218.952 213.97 218.568C213.341 218.184 212.845 217.645 212.482 216.952C212.119 216.259 211.938 215.469 211.938 214.584ZM219.362 214.6C219.362 213.939 219.229 213.363 218.962 212.872C218.695 212.381 218.333 212.008 217.874 211.752C217.426 211.485 216.93 211.352 216.386 211.352C215.842 211.352 215.346 211.48 214.898 211.736C214.45 211.992 214.093 212.365 213.826 212.856C213.559 213.347 213.426 213.923 213.426 214.584C213.426 215.256 213.559 215.843 213.826 216.344C214.093 216.835 214.45 217.213 214.898 217.48C215.346 217.736 215.842 217.864 216.386 217.864C216.93 217.864 217.426 217.736 217.874 217.48C218.333 217.213 218.695 216.835 218.962 216.344C219.229 215.843 219.362 215.261 219.362 214.6ZM225.071 211.432V216.6C225.071 217.027 225.161 217.331 225.343 217.512C225.524 217.683 225.839 217.768 226.286 217.768H227.359V219H226.047C225.236 219 224.628 218.813 224.223 218.44C223.817 218.067 223.615 217.453 223.615 216.6V211.432H222.479V210.232H223.615V208.024H225.071V210.232H227.359V211.432H225.071ZM237.123 214.28C237.123 214.557 237.107 214.851 237.075 215.16H230.067C230.12 216.024 230.413 216.701 230.947 217.192C231.491 217.672 232.147 217.912 232.915 217.912C233.544 217.912 234.067 217.768 234.483 217.48C234.909 217.181 235.208 216.787 235.379 216.296H236.947C236.712 217.139 236.243 217.827 235.539 218.36C234.835 218.883 233.96 219.144 232.915 219.144C232.083 219.144 231.336 218.957 230.675 218.584C230.024 218.211 229.512 217.683 229.139 217C228.765 216.307 228.579 215.507 228.579 214.6C228.579 213.693 228.76 212.899 229.123 212.216C229.485 211.533 229.992 211.011 230.643 210.648C231.304 210.275 232.061 210.088 232.915 210.088C233.747 210.088 234.483 210.269 235.123 210.632C235.763 210.995 236.253 211.496 236.595 212.136C236.947 212.765 237.123 213.48 237.123 214.28ZM235.619 213.976C235.619 213.421 235.496 212.947 235.251 212.552C235.005 212.147 234.669 211.843 234.243 211.64C233.827 211.427 233.363 211.32 232.851 211.32C232.115 211.32 231.485 211.555 230.963 212.024C230.451 212.493 230.157 213.144 230.083 213.976H235.619ZM37.912 234.232L35.176 243H33.672L31.56 236.04L29.448 243H27.944L25.192 234.232H26.68L28.696 241.592L30.872 234.232H32.36L34.488 241.608L36.472 234.232H37.912ZM40.109 232.808C39.8317 232.808 39.597 232.712 39.405 232.52C39.213 232.328 39.117 232.093 39.117 231.816C39.117 231.539 39.213 231.304 39.405 231.112C39.597 230.92 39.8317 230.824 40.109 230.824C40.3757 230.824 40.5997 230.92 40.781 231.112C40.973 231.304 41.069 231.539 41.069 231.816C41.069 232.093 40.973 232.328 40.781 232.52C40.5997 232.712 40.3757 232.808 40.109 232.808ZM40.813 234.232V243H39.357V234.232H40.813ZM45.0705 235.432V240.6C45.0705 241.027 45.1612 241.331 45.3425 241.512C45.5238 241.683 45.8385 241.768 46.2865 241.768H47.3585V243H46.0465C45.2358 243 44.6278 242.813 44.2225 242.44C43.8172 242.067 43.6145 241.453 43.6145 240.6V235.432H42.4785V234.232H43.6145V232.024H45.0705V234.232H47.3585V235.432H45.0705ZM53.4746 234.072C54.136 234.072 54.7333 234.216 55.2666 234.504C55.8 234.781 56.216 235.203 56.5146 235.768C56.824 236.333 56.9786 237.021 56.9786 237.832V243H55.5386V238.04C55.5386 237.165 55.32 236.499 54.8826 236.04C54.4453 235.571 53.848 235.336 53.0906 235.336C52.3226 235.336 51.7093 235.576 51.2506 236.056C50.8026 236.536 50.5786 237.235 50.5786 238.152V243H49.1226V231.16H50.5786V235.48C50.8666 235.032 51.2613 234.685 51.7626 234.44C52.2746 234.195 52.8453 234.072 53.4746 234.072ZM65.3986 235.432V240.6C65.3986 241.027 65.4893 241.331 65.6706 241.512C65.852 241.683 66.1666 241.768 66.6146 241.768H67.6866V243H66.3746C65.564 243 64.956 242.813 64.5506 242.44C64.1453 242.067 63.9426 241.453 63.9426 240.6V235.432H62.8066V234.232H63.9426V232.024H65.3986V234.232H67.6866V235.432H65.3986ZM73.8028 234.072C74.4641 234.072 75.0614 234.216 75.5948 234.504C76.1281 234.781 76.5441 235.203 76.8428 235.768C77.1521 236.333 77.3068 237.021 77.3068 237.832V243H75.8668V238.04C75.8668 237.165 75.6481 236.499 75.2108 236.04C74.7734 235.571 74.1761 235.336 73.4188 235.336C72.6508 235.336 72.0374 235.576 71.5788 236.056C71.1308 236.536 70.9068 237.235 70.9068 238.152V243H69.4508V231.16H70.9068V235.48C71.1948 235.032 71.5894 234.685 72.0908 234.44C72.6028 234.195 73.1734 234.072 73.8028 234.072ZM87.6851 238.28C87.6851 238.557 87.6691 238.851 87.6371 239.16H80.6291C80.6825 240.024 80.9758 240.701 81.5091 241.192C82.0531 241.672 82.7091 241.912 83.4771 241.912C84.1065 241.912 84.6291 241.768 85.0451 241.48C85.4718 241.181 85.7705 240.787 85.9411 240.296H87.5091C87.2745 241.139 86.8051 241.827 86.1011 242.36C85.3971 242.883 84.5225 243.144 83.4771 243.144C82.6451 243.144 81.8985 242.957 81.2371 242.584C80.5865 242.211 80.0745 241.683 79.7011 241C79.3278 240.307 79.1411 239.507 79.1411 238.6C79.1411 237.693 79.3225 236.899 79.6851 236.216C80.0478 235.533 80.5545 235.011 81.2051 234.648C81.8665 234.275 82.6238 234.088 83.4771 234.088C84.3091 234.088 85.0451 234.269 85.6851 234.632C86.3251 234.995 86.8158 235.496 87.1571 236.136C87.5091 236.765 87.6851 237.48 87.6851 238.28ZM86.1811 237.976C86.1811 237.421 86.0585 236.947 85.8131 236.552C85.5678 236.147 85.2318 235.843 84.8051 235.64C84.3891 235.427 83.9251 235.32 83.4131 235.32C82.6771 235.32 82.0478 235.555 81.5251 236.024C81.0131 236.493 80.7198 237.144 80.6451 237.976H86.1811ZM95.3286 235.848C95.6166 235.347 96.0433 234.931 96.6086 234.6C97.1846 234.259 97.8513 234.088 98.6086 234.088C99.3873 234.088 100.091 234.275 100.721 234.648C101.361 235.021 101.862 235.549 102.225 236.232C102.587 236.904 102.769 237.688 102.769 238.584C102.769 239.469 102.587 240.259 102.225 240.952C101.862 241.645 101.361 242.184 100.721 242.568C100.091 242.952 99.3873 243.144 98.6086 243.144C97.862 243.144 97.2006 242.979 96.6246 242.648C96.0593 242.307 95.6273 241.885 95.3286 241.384V247.16H93.8726V234.232H95.3286V235.848ZM101.281 238.584C101.281 237.923 101.147 237.347 100.881 236.856C100.614 236.365 100.251 235.992 99.7926 235.736C99.3446 235.48 98.8486 235.352 98.3046 235.352C97.7713 235.352 97.2753 235.485 96.8166 235.752C96.3686 236.008 96.006 236.387 95.7286 236.888C95.462 237.379 95.3286 237.949 95.3286 238.6C95.3286 239.261 95.462 239.843 95.7286 240.344C96.006 240.835 96.3686 241.213 96.8166 241.48C97.2753 241.736 97.7713 241.864 98.3046 241.864C98.8486 241.864 99.3446 241.736 99.7926 241.48C100.251 241.213 100.614 240.835 100.881 240.344C101.147 239.843 101.281 239.256 101.281 238.584ZM106.141 231.16V243H104.685V231.16H106.141ZM108.079 238.584C108.079 237.688 108.26 236.904 108.623 236.232C108.985 235.549 109.481 235.021 110.111 234.648C110.751 234.275 111.46 234.088 112.239 234.088C113.007 234.088 113.673 234.253 114.239 234.584C114.804 234.915 115.225 235.331 115.503 235.832V234.232H116.975V243H115.503V241.368C115.215 241.88 114.783 242.307 114.207 242.648C113.641 242.979 112.98 243.144 112.223 243.144C111.444 243.144 110.74 242.952 110.111 242.568C109.481 242.184 108.985 241.645 108.623 240.952C108.26 240.259 108.079 239.469 108.079 238.584ZM115.503 238.6C115.503 237.939 115.369 237.363 115.103 236.872C114.836 236.381 114.473 236.008 114.015 235.752C113.567 235.485 113.071 235.352 112.527 235.352C111.983 235.352 111.487 235.48 111.039 235.736C110.591 235.992 110.233 236.365 109.967 236.856C109.7 237.347 109.567 237.923 109.567 238.584C109.567 239.256 109.7 239.843 109.967 240.344C110.233 240.835 110.591 241.213 111.039 241.48C111.487 241.736 111.983 241.864 112.527 241.864C113.071 241.864 113.567 241.736 114.015 241.48C114.473 241.213 114.836 240.835 115.103 240.344C115.369 239.843 115.503 239.261 115.503 238.6ZM121.211 235.432V240.6C121.211 241.027 121.302 241.331 121.483 241.512C121.664 241.683 121.979 241.768 122.427 241.768H123.499V243H122.187C121.376 243 120.768 242.813 120.363 242.44C119.958 242.067 119.755 241.453 119.755 240.6V235.432H118.619V234.232H119.755V232.024H121.211V234.232H123.499V235.432H121.211ZM128.831 235.432H126.991V243H125.535V235.432H124.399V234.232H125.535V233.608C125.535 232.627 125.786 231.912 126.287 231.464C126.799 231.005 127.615 230.776 128.735 230.776V231.992C128.095 231.992 127.642 232.12 127.375 232.376C127.119 232.621 126.991 233.032 126.991 233.608V234.232H128.831V235.432ZM134.353 243.144C133.532 243.144 132.785 242.957 132.113 242.584C131.452 242.211 130.929 241.683 130.545 241C130.172 240.307 129.985 239.507 129.985 238.6C129.985 237.704 130.177 236.915 130.561 236.232C130.956 235.539 131.489 235.011 132.161 234.648C132.833 234.275 133.585 234.088 134.417 234.088C135.249 234.088 136.001 234.275 136.673 234.648C137.345 235.011 137.873 235.533 138.257 236.216C138.652 236.899 138.849 237.693 138.849 238.6C138.849 239.507 138.646 240.307 138.241 241C137.846 241.683 137.308 242.211 136.625 242.584C135.942 242.957 135.185 243.144 134.353 243.144ZM134.353 241.864C134.876 241.864 135.366 241.741 135.825 241.496C136.284 241.251 136.652 240.883 136.929 240.392C137.217 239.901 137.361 239.304 137.361 238.6C137.361 237.896 137.222 237.299 136.945 236.808C136.668 236.317 136.305 235.955 135.857 235.72C135.409 235.475 134.924 235.352 134.401 235.352C133.868 235.352 133.377 235.475 132.929 235.72C132.492 235.955 132.14 236.317 131.873 236.808C131.606 237.299 131.473 237.896 131.473 238.6C131.473 239.315 131.601 239.917 131.857 240.408C132.124 240.899 132.476 241.267 132.913 241.512C133.35 241.747 133.83 241.864 134.353 241.864ZM142.219 235.656C142.475 235.155 142.838 234.765 143.307 234.488C143.787 234.211 144.369 234.072 145.051 234.072V235.576H144.667C143.035 235.576 142.219 236.461 142.219 238.232V243H140.763V234.232H142.219V235.656ZM157.276 234.072C157.959 234.072 158.567 234.216 159.1 234.504C159.633 234.781 160.055 235.203 160.364 235.768C160.673 236.333 160.828 237.021 160.828 237.832V243H159.388V238.04C159.388 237.165 159.169 236.499 158.732 236.04C158.305 235.571 157.724 235.336 156.988 235.336C156.231 235.336 155.628 235.581 155.18 236.072C154.732 236.552 154.508 237.251 154.508 238.168V243H153.068V238.04C153.068 237.165 152.849 236.499 152.412 236.04C151.985 235.571 151.404 235.336 150.668 235.336C149.911 235.336 149.308 235.581 148.86 236.072C148.412 236.552 148.188 237.251 148.188 238.168V243H146.732V234.232H148.188V235.496C148.476 235.037 148.86 234.685 149.34 234.44C149.831 234.195 150.369 234.072 150.956 234.072C151.692 234.072 152.343 234.237 152.908 234.568C153.473 234.899 153.895 235.384 154.172 236.024C154.417 235.405 154.823 234.925 155.388 234.584C155.953 234.243 156.583 234.072 157.276 234.072ZM163.68 243.096C163.403 243.096 163.168 243 162.976 242.808C162.784 242.616 162.688 242.381 162.688 242.104C162.688 241.827 162.784 241.592 162.976 241.4C163.168 241.208 163.403 241.112 163.68 241.112C163.947 241.112 164.171 241.208 164.352 241.4C164.544 241.592 164.64 241.827 164.64 242.104C164.64 242.381 164.544 242.616 164.352 242.808C164.171 243 163.947 243.096 163.68 243.096Z" fill="white"/>
<circle cx="143" cy="80" r="50" fill="white"/>
<path d="M164.857 84.1667V105H149.551V100.833H136.286V105H122V84.1667H164.857ZM155.621 80.3698C155.036 77.7562 153.714 75.4583 151.632 73.7021C149.614 71.9906 147.228 71.6667 144.459 70.625H144.449V64.0333L144.984 63.8865L146.154 63.4437C146.604 63.2885 147.011 63.1583 147.436 63.0667C147.852 62.9656 148.141 62.9229 148.339 62.9229C148.723 62.9229 149.21 62.9854 149.78 63.1125C150.359 63.2562 150.977 63.4115 151.604 63.5875C152.258 63.7896 152.842 63.9427 153.408 64.0729C153.948 64.199 154.4 64.251 154.774 64.251C155.37 64.2521 155.673 64.1677 156.694 63.9823V56.4385C155.673 56.6865 155.493 56.8229 154.773 56.8229C154.399 56.8229 153.936 56.7646 153.395 56.625C152.831 56.5146 152.249 56.3427 151.595 56.149C151.012 55.9702 150.422 55.8152 149.827 55.6844C149.272 55.55 148.912 55.4854 148.52 55.4854C147.221 55.4854 145.469 55.799 144.449 56.3771V55H142.408V70.625H142.344C139.597 71.6667 137.192 72.05 135.177 73.7615C133.134 75.5198 131.807 77.6687 131.18 80.2833C131.18 80.2833 129.223 80 129.223 82.0833H157.764C157.764 80 155.621 80.3698 155.621 80.3698Z" fill="#E70CA0"/>
</svg>
