<svg width="70" height="70" viewBox="0 0 70 70" fill="none" xmlns="http://www.w3.org/2000/svg">
<circle cx="35" cy="35" r="35" fill="#EF069A"/>
<path d="M51.3637 18.2727H36.6364V16.6364C36.6364 15.7327 35.9037 15 35 15C34.0964 15 33.3637 15.7327 33.3637 16.6364V18.2727H18.6364C17.7326 18.2727 17 19.0054 17 19.9091V46.0908C17 46.9944 17.7326 47.7272 18.6364 47.7272H25.807L23.7183 51.9047C23.3141 52.7131 23.6417 53.696 24.45 54.1001C25.2585 54.5043 26.2413 54.1766 26.6453 53.3682L29.4659 47.7272H40.5342L43.3547 53.3682C43.6414 53.9417 44.2192 54.2733 44.8195 54.2733C45.0654 54.2733 45.3151 54.2175 45.55 54.1001C46.3584 53.696 46.6859 52.7131 46.2817 51.9047L44.193 47.7272H51.3636C52.2674 47.7272 53 46.9944 53 46.0908V19.9091C53.0001 19.0054 52.2674 18.2727 51.3637 18.2727ZM46.1852 28.7575L38.4712 36.4714C38.1643 36.7782 37.748 36.9506 37.3142 36.9506C36.8801 36.9506 36.4639 36.7781 36.1571 36.4711L32.6859 32.9998L26.1291 39.5566C25.8096 39.8762 25.3908 40.0361 24.9721 40.0361C24.5533 40.0361 24.1345 39.8762 23.8151 39.5566C23.1758 38.9176 23.1758 37.8816 23.815 37.2425L31.529 29.5286C31.8359 29.2217 32.252 29.0493 32.686 29.0493C33.12 29.0493 33.5363 29.2217 33.8431 29.5286L37.3142 33L43.871 26.4432C44.5101 25.8042 45.5462 25.8042 46.1852 26.4432C46.8242 27.0823 46.8242 28.1183 46.1852 28.7575Z" fill="white"/>
</svg>
