<svg width="1550" height="69" viewBox="0 0 1550 69" fill="none" xmlns="http://www.w3.org/2000/svg">
<rect width="1550" height="50" fill="url(#paint0_linear_0_1)"/>
<path d="M229.758 23.432C229.758 24.164 229.59 24.836 229.254 25.448C228.918 26.048 228.402 26.534 227.706 26.906C227.01 27.278 226.146 27.464 225.114 27.464H223.206V32H220.128V19.364H225.114C226.122 19.364 226.974 19.538 227.67 19.886C228.366 20.234 228.888 20.714 229.236 21.326C229.584 21.938 229.758 22.64 229.758 23.432ZM224.88 25.016C225.468 25.016 225.906 24.878 226.194 24.602C226.482 24.326 226.626 23.936 226.626 23.432C226.626 22.928 226.482 22.538 226.194 22.262C225.906 21.986 225.468 21.848 224.88 21.848H223.206V25.016H224.88ZM234.438 23.63C234.798 23.078 235.248 22.646 235.788 22.334C236.328 22.01 236.928 21.848 237.588 21.848V25.106H236.742C235.974 25.106 235.398 25.274 235.014 25.61C234.63 25.934 234.438 26.51 234.438 27.338V32H231.36V21.956H234.438V23.63ZM243.631 32.144C242.647 32.144 241.759 31.934 240.967 31.514C240.187 31.094 239.569 30.494 239.113 29.714C238.669 28.934 238.447 28.022 238.447 26.978C238.447 25.946 238.675 25.04 239.131 24.26C239.587 23.468 240.211 22.862 241.003 22.442C241.795 22.022 242.683 21.812 243.667 21.812C244.651 21.812 245.539 22.022 246.331 22.442C247.123 22.862 247.747 23.468 248.203 24.26C248.659 25.04 248.887 25.946 248.887 26.978C248.887 28.01 248.653 28.922 248.185 29.714C247.729 30.494 247.099 31.094 246.295 31.514C245.503 31.934 244.615 32.144 243.631 32.144ZM243.631 29.48C244.219 29.48 244.717 29.264 245.125 28.832C245.545 28.4 245.755 27.782 245.755 26.978C245.755 26.174 245.551 25.556 245.143 25.124C244.747 24.692 244.255 24.476 243.667 24.476C243.067 24.476 242.569 24.692 242.173 25.124C241.777 25.544 241.579 26.162 241.579 26.978C241.579 27.782 241.771 28.4 242.155 28.832C242.551 29.264 243.043 29.48 243.631 29.48ZM255.038 29.12L257.216 21.956H260.492L256.928 32H253.13L249.566 21.956H252.86L255.038 29.12ZM263.336 20.912C262.796 20.912 262.352 20.756 262.004 20.444C261.668 20.12 261.5 19.724 261.5 19.256C261.5 18.776 261.668 18.38 262.004 18.068C262.352 17.744 262.796 17.582 263.336 17.582C263.864 17.582 264.296 17.744 264.632 18.068C264.98 18.38 265.154 18.776 265.154 19.256C265.154 19.724 264.98 20.12 264.632 20.444C264.296 20.756 263.864 20.912 263.336 20.912ZM264.866 21.956V32H261.788V21.956H264.866ZM266.484 26.96C266.484 25.928 266.676 25.022 267.06 24.242C267.456 23.462 267.99 22.862 268.662 22.442C269.334 22.022 270.084 21.812 270.912 21.812C271.572 21.812 272.172 21.95 272.712 22.226C273.264 22.502 273.696 22.874 274.008 23.342V18.68H277.086V32H274.008V30.56C273.72 31.04 273.306 31.424 272.766 31.712C272.238 32 271.62 32.144 270.912 32.144C270.084 32.144 269.334 31.934 268.662 31.514C267.99 31.082 267.456 30.476 267.06 29.696C266.676 28.904 266.484 27.992 266.484 26.96ZM274.008 26.978C274.008 26.21 273.792 25.604 273.36 25.16C272.94 24.716 272.424 24.494 271.812 24.494C271.2 24.494 270.678 24.716 270.246 25.16C269.826 25.592 269.616 26.192 269.616 26.96C269.616 27.728 269.826 28.34 270.246 28.796C270.678 29.24 271.2 29.462 271.812 29.462C272.424 29.462 272.94 29.24 273.36 28.796C273.792 28.352 274.008 27.746 274.008 26.978ZM288.781 26.816C288.781 27.104 288.763 27.404 288.727 27.716H281.761C281.809 28.34 282.007 28.82 282.355 29.156C282.715 29.48 283.153 29.642 283.669 29.642C284.437 29.642 284.971 29.318 285.271 28.67H288.547C288.379 29.33 288.073 29.924 287.629 30.452C287.197 30.98 286.651 31.394 285.991 31.694C285.331 31.994 284.593 32.144 283.777 32.144C282.793 32.144 281.917 31.934 281.149 31.514C280.381 31.094 279.781 30.494 279.349 29.714C278.917 28.934 278.701 28.022 278.701 26.978C278.701 25.934 278.911 25.022 279.331 24.242C279.763 23.462 280.363 22.862 281.131 22.442C281.899 22.022 282.781 21.812 283.777 21.812C284.749 21.812 285.613 22.016 286.369 22.424C287.125 22.832 287.713 23.414 288.133 24.17C288.565 24.926 288.781 25.808 288.781 26.816ZM285.631 26.006C285.631 25.478 285.451 25.058 285.091 24.746C284.731 24.434 284.281 24.278 283.741 24.278C283.225 24.278 282.787 24.428 282.427 24.728C282.079 25.028 281.863 25.454 281.779 26.006H285.631ZM293.483 23.63C293.843 23.078 294.293 22.646 294.833 22.334C295.373 22.01 295.973 21.848 296.633 21.848V25.106H295.787C295.019 25.106 294.443 25.274 294.059 25.61C293.675 25.934 293.483 26.51 293.483 27.338V32H290.405V21.956H293.483V23.63Z" fill="white"/>
<path d="M258 69L269.258 49.5H246.742L258 69Z" fill="#16A29F"/>
<path d="M741.166 32.126C740.242 32.126 739.414 31.976 738.682 31.676C737.95 31.376 737.362 30.932 736.918 30.344C736.486 29.756 736.258 29.048 736.234 28.22H739.51C739.558 28.688 739.72 29.048 739.996 29.3C740.272 29.54 740.632 29.66 741.076 29.66C741.532 29.66 741.892 29.558 742.156 29.354C742.42 29.138 742.552 28.844 742.552 28.472C742.552 28.16 742.444 27.902 742.228 27.698C742.024 27.494 741.766 27.326 741.454 27.194C741.154 27.062 740.722 26.912 740.158 26.744C739.342 26.492 738.676 26.24 738.16 25.988C737.644 25.736 737.2 25.364 736.828 24.872C736.456 24.38 736.27 23.738 736.27 22.946C736.27 21.77 736.696 20.852 737.548 20.192C738.4 19.52 739.51 19.184 740.878 19.184C742.27 19.184 743.392 19.52 744.244 20.192C745.096 20.852 745.552 21.776 745.612 22.964H742.282C742.258 22.556 742.108 22.238 741.832 22.01C741.556 21.77 741.202 21.65 740.77 21.65C740.398 21.65 740.098 21.752 739.87 21.956C739.642 22.148 739.528 22.43 739.528 22.802C739.528 23.21 739.72 23.528 740.104 23.756C740.488 23.984 741.088 24.23 741.904 24.494C742.72 24.77 743.38 25.034 743.884 25.286C744.4 25.538 744.844 25.904 745.216 26.384C745.588 26.864 745.774 27.482 745.774 28.238C745.774 28.958 745.588 29.612 745.216 30.2C744.856 30.788 744.328 31.256 743.632 31.604C742.936 31.952 742.114 32.126 741.166 32.126ZM757.586 21.956V32H754.508V30.632C754.196 31.076 753.77 31.436 753.23 31.712C752.702 31.976 752.114 32.108 751.466 32.108C750.698 32.108 750.02 31.94 749.432 31.604C748.844 31.256 748.388 30.758 748.064 30.11C747.74 29.462 747.578 28.7 747.578 27.824V21.956H750.638V27.41C750.638 28.082 750.812 28.604 751.16 28.976C751.508 29.348 751.976 29.534 752.564 29.534C753.164 29.534 753.638 29.348 753.986 28.976C754.334 28.604 754.508 28.082 754.508 27.41V21.956H757.586ZM762.875 23.378C763.175 22.91 763.589 22.532 764.117 22.244C764.645 21.956 765.263 21.812 765.971 21.812C766.799 21.812 767.549 22.022 768.221 22.442C768.893 22.862 769.421 23.462 769.805 24.242C770.201 25.022 770.399 25.928 770.399 26.96C770.399 27.992 770.201 28.904 769.805 29.696C769.421 30.476 768.893 31.082 768.221 31.514C767.549 31.934 766.799 32.144 765.971 32.144C765.275 32.144 764.657 32 764.117 31.712C763.589 31.424 763.175 31.052 762.875 30.596V36.788H759.797V21.956H762.875V23.378ZM767.267 26.96C767.267 26.192 767.051 25.592 766.619 25.16C766.199 24.716 765.677 24.494 765.053 24.494C764.441 24.494 763.919 24.716 763.487 25.16C763.067 25.604 762.857 26.21 762.857 26.978C762.857 27.746 763.067 28.352 763.487 28.796C763.919 29.24 764.441 29.462 765.053 29.462C765.665 29.462 766.187 29.24 766.619 28.796C767.051 28.34 767.267 27.728 767.267 26.96ZM775.091 23.378C775.391 22.91 775.805 22.532 776.333 22.244C776.861 21.956 777.479 21.812 778.187 21.812C779.015 21.812 779.765 22.022 780.437 22.442C781.109 22.862 781.637 23.462 782.021 24.242C782.417 25.022 782.615 25.928 782.615 26.96C782.615 27.992 782.417 28.904 782.021 29.696C781.637 30.476 781.109 31.082 780.437 31.514C779.765 31.934 779.015 32.144 778.187 32.144C777.491 32.144 776.873 32 776.333 31.712C775.805 31.424 775.391 31.052 775.091 30.596V36.788H772.013V21.956H775.091V23.378ZM779.483 26.96C779.483 26.192 779.267 25.592 778.835 25.16C778.415 24.716 777.893 24.494 777.269 24.494C776.657 24.494 776.135 24.716 775.703 25.16C775.283 25.604 775.073 26.21 775.073 26.978C775.073 27.746 775.283 28.352 775.703 28.796C776.135 29.24 776.657 29.462 777.269 29.462C777.881 29.462 778.403 29.24 778.835 28.796C779.267 28.34 779.483 27.728 779.483 26.96ZM787.308 18.68V32H784.23V18.68H787.308ZM791.087 20.912C790.547 20.912 790.103 20.756 789.755 20.444C789.419 20.12 789.251 19.724 789.251 19.256C789.251 18.776 789.419 18.38 789.755 18.068C790.103 17.744 790.547 17.582 791.087 17.582C791.615 17.582 792.047 17.744 792.383 18.068C792.731 18.38 792.905 18.776 792.905 19.256C792.905 19.724 792.731 20.12 792.383 20.444C792.047 20.756 791.615 20.912 791.087 20.912ZM792.617 21.956V32H789.539V21.956H792.617ZM804.315 26.816C804.315 27.104 804.297 27.404 804.261 27.716H797.295C797.343 28.34 797.541 28.82 797.889 29.156C798.249 29.48 798.687 29.642 799.203 29.642C799.971 29.642 800.505 29.318 800.805 28.67H804.081C803.913 29.33 803.607 29.924 803.163 30.452C802.731 30.98 802.185 31.394 801.525 31.694C800.865 31.994 800.127 32.144 799.311 32.144C798.327 32.144 797.451 31.934 796.683 31.514C795.915 31.094 795.315 30.494 794.883 29.714C794.451 28.934 794.235 28.022 794.235 26.978C794.235 25.934 794.445 25.022 794.865 24.242C795.297 23.462 795.897 22.862 796.665 22.442C797.433 22.022 798.315 21.812 799.311 21.812C800.283 21.812 801.147 22.016 801.903 22.424C802.659 22.832 803.247 23.414 803.667 24.17C804.099 24.926 804.315 25.808 804.315 26.816ZM801.165 26.006C801.165 25.478 800.985 25.058 800.625 24.746C800.265 24.434 799.815 24.278 799.275 24.278C798.759 24.278 798.321 24.428 797.961 24.728C797.613 25.028 797.397 25.454 797.313 26.006H801.165ZM809.017 23.63C809.377 23.078 809.827 22.646 810.367 22.334C810.907 22.01 811.507 21.848 812.167 21.848V25.106H811.321C810.553 25.106 809.977 25.274 809.593 25.61C809.209 25.934 809.017 26.51 809.017 27.338V32H805.939V21.956H809.017V23.63Z" fill="white"/>
<path d="M774 69L785.258 49.5H762.742L774 69Z" fill="#4B7BDA"/>
<path d="M1217.08 29.768H1212.37L1211.61 32H1208.39L1212.96 19.364H1216.53L1221.1 32H1217.84L1217.08 29.768ZM1216.29 27.392L1214.73 22.766L1213.18 27.392H1216.29ZM1226.31 21.812C1227.01 21.812 1227.63 21.956 1228.16 22.244C1228.7 22.532 1229.11 22.91 1229.4 23.378V21.956H1232.48V31.982C1232.48 32.906 1232.29 33.74 1231.92 34.484C1231.56 35.24 1231 35.84 1230.25 36.284C1229.5 36.728 1228.57 36.95 1227.46 36.95C1225.97 36.95 1224.76 36.596 1223.84 35.888C1222.92 35.192 1222.39 34.244 1222.26 33.044H1225.3C1225.39 33.428 1225.62 33.728 1225.98 33.944C1226.34 34.172 1226.79 34.286 1227.31 34.286C1227.95 34.286 1228.45 34.1 1228.83 33.728C1229.21 33.368 1229.4 32.786 1229.4 31.982V30.56C1229.1 31.028 1228.69 31.412 1228.16 31.712C1227.63 32 1227.01 32.144 1226.31 32.144C1225.48 32.144 1224.73 31.934 1224.06 31.514C1223.38 31.082 1222.85 30.476 1222.45 29.696C1222.07 28.904 1221.88 27.992 1221.88 26.96C1221.88 25.928 1222.07 25.022 1222.45 24.242C1222.85 23.462 1223.38 22.862 1224.06 22.442C1224.73 22.022 1225.48 21.812 1226.31 21.812ZM1229.4 26.978C1229.4 26.21 1229.19 25.604 1228.75 25.16C1228.33 24.716 1227.82 24.494 1227.21 24.494C1226.59 24.494 1226.07 24.716 1225.64 25.16C1225.22 25.592 1225.01 26.192 1225.01 26.96C1225.01 27.728 1225.22 28.34 1225.64 28.796C1226.07 29.24 1226.59 29.462 1227.21 29.462C1227.82 29.462 1228.33 29.24 1228.75 28.796C1229.19 28.352 1229.4 27.746 1229.4 26.978ZM1244.17 26.816C1244.17 27.104 1244.16 27.404 1244.12 27.716H1237.15C1237.2 28.34 1237.4 28.82 1237.75 29.156C1238.11 29.48 1238.55 29.642 1239.06 29.642C1239.83 29.642 1240.36 29.318 1240.66 28.67H1243.94C1243.77 29.33 1243.47 29.924 1243.02 30.452C1242.59 30.98 1242.04 31.394 1241.38 31.694C1240.72 31.994 1239.99 32.144 1239.17 32.144C1238.19 32.144 1237.31 31.934 1236.54 31.514C1235.77 31.094 1235.17 30.494 1234.74 29.714C1234.31 28.934 1234.09 28.022 1234.09 26.978C1234.09 25.934 1234.3 25.022 1234.72 24.242C1235.16 23.462 1235.76 22.862 1236.52 22.442C1237.29 22.022 1238.17 21.812 1239.17 21.812C1240.14 21.812 1241.01 22.016 1241.76 22.424C1242.52 22.832 1243.11 23.414 1243.53 24.17C1243.96 24.926 1244.17 25.808 1244.17 26.816ZM1241.02 26.006C1241.02 25.478 1240.84 25.058 1240.48 24.746C1240.12 24.434 1239.67 24.278 1239.13 24.278C1238.62 24.278 1238.18 24.428 1237.82 24.728C1237.47 25.028 1237.26 25.454 1237.17 26.006H1241.02ZM1245.19 26.96C1245.19 25.928 1245.38 25.022 1245.76 24.242C1246.16 23.462 1246.69 22.862 1247.36 22.442C1248.04 22.022 1248.79 21.812 1249.61 21.812C1250.27 21.812 1250.87 21.95 1251.41 22.226C1251.97 22.502 1252.4 22.874 1252.71 23.342V18.68H1255.79V32H1252.71V30.56C1252.42 31.04 1252.01 31.424 1251.47 31.712C1250.94 32 1250.32 32.144 1249.61 32.144C1248.79 32.144 1248.04 31.934 1247.36 31.514C1246.69 31.082 1246.16 30.476 1245.76 29.696C1245.38 28.904 1245.19 27.992 1245.19 26.96ZM1252.71 26.978C1252.71 26.21 1252.49 25.604 1252.06 25.16C1251.64 24.716 1251.13 24.494 1250.51 24.494C1249.9 24.494 1249.38 24.716 1248.95 25.16C1248.53 25.592 1248.32 26.192 1248.32 26.96C1248.32 27.728 1248.53 28.34 1248.95 28.796C1249.38 29.24 1249.9 29.462 1250.51 29.462C1251.13 29.462 1251.64 29.24 1252.06 28.796C1252.49 28.352 1252.71 27.746 1252.71 26.978ZM1261.31 25.664C1261.31 24.416 1261.58 23.306 1262.12 22.334C1262.66 21.35 1263.41 20.588 1264.37 20.048C1265.34 19.496 1266.44 19.22 1267.66 19.22C1269.16 19.22 1270.45 19.616 1271.51 20.408C1272.58 21.2 1273.3 22.28 1273.66 23.648H1270.27C1270.02 23.12 1269.66 22.718 1269.19 22.442C1268.74 22.166 1268.21 22.028 1267.63 22.028C1266.68 22.028 1265.91 22.358 1265.32 23.018C1264.73 23.678 1264.44 24.56 1264.44 25.664C1264.44 26.768 1264.73 27.65 1265.32 28.31C1265.91 28.97 1266.68 29.3 1267.63 29.3C1268.21 29.3 1268.74 29.162 1269.19 28.886C1269.66 28.61 1270.02 28.208 1270.27 27.68H1273.66C1273.3 29.048 1272.58 30.128 1271.51 30.92C1270.45 31.7 1269.16 32.09 1267.66 32.09C1266.44 32.09 1265.34 31.82 1264.37 31.28C1263.41 30.728 1262.66 29.966 1262.12 28.994C1261.58 28.022 1261.31 26.912 1261.31 25.664ZM1274.93 26.96C1274.93 25.928 1275.12 25.022 1275.5 24.242C1275.9 23.462 1276.43 22.862 1277.11 22.442C1277.78 22.022 1278.53 21.812 1279.36 21.812C1280.06 21.812 1280.68 21.956 1281.21 22.244C1281.75 22.532 1282.16 22.91 1282.45 23.378V21.956H1285.53V32H1282.45V30.578C1282.15 31.046 1281.73 31.424 1281.19 31.712C1280.66 32 1280.05 32.144 1279.34 32.144C1278.52 32.144 1277.78 31.934 1277.11 31.514C1276.43 31.082 1275.9 30.476 1275.5 29.696C1275.12 28.904 1274.93 27.992 1274.93 26.96ZM1282.45 26.978C1282.45 26.21 1282.24 25.604 1281.8 25.16C1281.38 24.716 1280.87 24.494 1280.26 24.494C1279.64 24.494 1279.12 24.716 1278.69 25.16C1278.27 25.592 1278.06 26.192 1278.06 26.96C1278.06 27.728 1278.27 28.34 1278.69 28.796C1279.12 29.24 1279.64 29.462 1280.26 29.462C1280.87 29.462 1281.38 29.24 1281.8 28.796C1282.24 28.352 1282.45 27.746 1282.45 26.978ZM1290.84 23.63C1291.2 23.078 1291.65 22.646 1292.19 22.334C1292.73 22.01 1293.33 21.848 1293.99 21.848V25.106H1293.14C1292.37 25.106 1291.8 25.274 1291.41 25.61C1291.03 25.934 1290.84 26.51 1290.84 27.338V32H1287.76V21.956H1290.84V23.63ZM1304.92 26.816C1304.92 27.104 1304.91 27.404 1304.87 27.716H1297.9C1297.95 28.34 1298.15 28.82 1298.5 29.156C1298.86 29.48 1299.3 29.642 1299.81 29.642C1300.58 29.642 1301.11 29.318 1301.41 28.67H1304.69C1304.52 29.33 1304.22 29.924 1303.77 30.452C1303.34 30.98 1302.79 31.394 1302.13 31.694C1301.47 31.994 1300.74 32.144 1299.92 32.144C1298.94 32.144 1298.06 31.934 1297.29 31.514C1296.52 31.094 1295.92 30.494 1295.49 29.714C1295.06 28.934 1294.84 28.022 1294.84 26.978C1294.84 25.934 1295.05 25.022 1295.47 24.242C1295.91 23.462 1296.51 22.862 1297.27 22.442C1298.04 22.022 1298.92 21.812 1299.92 21.812C1300.89 21.812 1301.76 22.016 1302.51 22.424C1303.27 22.832 1303.86 23.414 1304.28 24.17C1304.71 24.926 1304.92 25.808 1304.92 26.816ZM1301.77 26.006C1301.77 25.478 1301.59 25.058 1301.23 24.746C1300.87 24.434 1300.42 24.278 1299.88 24.278C1299.37 24.278 1298.93 24.428 1298.57 24.728C1298.22 25.028 1298.01 25.454 1297.92 26.006H1301.77ZM1319.99 23.432C1319.99 24.164 1319.83 24.836 1319.49 25.448C1319.15 26.048 1318.64 26.534 1317.94 26.906C1317.25 27.278 1316.38 27.464 1315.35 27.464H1313.44V32H1310.36V19.364H1315.35C1316.36 19.364 1317.21 19.538 1317.91 19.886C1318.6 20.234 1319.12 20.714 1319.47 21.326C1319.82 21.938 1319.99 22.64 1319.99 23.432ZM1315.12 25.016C1315.7 25.016 1316.14 24.878 1316.43 24.602C1316.72 24.326 1316.86 23.936 1316.86 23.432C1316.86 22.928 1316.72 22.538 1316.43 22.262C1316.14 21.986 1315.7 21.848 1315.12 21.848H1313.44V25.016H1315.12ZM1331.06 26.816C1331.06 27.104 1331.05 27.404 1331.01 27.716H1324.04C1324.09 28.34 1324.29 28.82 1324.64 29.156C1325 29.48 1325.44 29.642 1325.95 29.642C1326.72 29.642 1327.25 29.318 1327.55 28.67H1330.83C1330.66 29.33 1330.36 29.924 1329.91 30.452C1329.48 30.98 1328.93 31.394 1328.27 31.694C1327.61 31.994 1326.88 32.144 1326.06 32.144C1325.08 32.144 1324.2 31.934 1323.43 31.514C1322.66 31.094 1322.06 30.494 1321.63 29.714C1321.2 28.934 1320.98 28.022 1320.98 26.978C1320.98 25.934 1321.19 25.022 1321.61 24.242C1322.05 23.462 1322.65 22.862 1323.41 22.442C1324.18 22.022 1325.06 21.812 1326.06 21.812C1327.03 21.812 1327.9 22.016 1328.65 22.424C1329.41 22.832 1330 23.414 1330.42 24.17C1330.85 24.926 1331.06 25.808 1331.06 26.816ZM1327.91 26.006C1327.91 25.478 1327.73 25.058 1327.37 24.746C1327.01 24.434 1326.56 24.278 1326.02 24.278C1325.51 24.278 1325.07 24.428 1324.71 24.728C1324.36 25.028 1324.15 25.454 1324.06 26.006H1327.91ZM1335.77 23.63C1336.13 23.078 1336.58 22.646 1337.12 22.334C1337.66 22.01 1338.26 21.848 1338.92 21.848V25.106H1338.07C1337.3 25.106 1336.73 25.274 1336.34 25.61C1335.96 25.934 1335.77 26.51 1335.77 27.338V32H1332.69V21.956H1335.77V23.63ZM1344.47 32.144C1343.6 32.144 1342.82 31.994 1342.13 31.694C1341.45 31.394 1340.91 30.986 1340.51 30.47C1340.12 29.942 1339.89 29.354 1339.85 28.706H1342.89C1342.92 29.054 1343.09 29.336 1343.37 29.552C1343.66 29.768 1344.02 29.876 1344.44 29.876C1344.82 29.876 1345.11 29.804 1345.32 29.66C1345.53 29.504 1345.64 29.306 1345.64 29.066C1345.64 28.778 1345.49 28.568 1345.19 28.436C1344.89 28.292 1344.41 28.136 1343.73 27.968C1343.01 27.8 1342.41 27.626 1341.93 27.446C1341.45 27.254 1341.04 26.96 1340.69 26.564C1340.34 26.156 1340.17 25.61 1340.17 24.926C1340.17 24.35 1340.33 23.828 1340.64 23.36C1340.96 22.88 1341.43 22.502 1342.04 22.226C1342.67 21.95 1343.4 21.812 1344.26 21.812C1345.52 21.812 1346.51 22.124 1347.23 22.748C1347.96 23.372 1348.38 24.2 1348.49 25.232H1345.64C1345.59 24.884 1345.44 24.608 1345.17 24.404C1344.92 24.2 1344.59 24.098 1344.17 24.098C1343.81 24.098 1343.53 24.17 1343.34 24.314C1343.15 24.446 1343.05 24.632 1343.05 24.872C1343.05 25.16 1343.2 25.376 1343.5 25.52C1343.81 25.664 1344.29 25.808 1344.94 25.952C1345.68 26.144 1346.29 26.336 1346.76 26.528C1347.23 26.708 1347.63 27.008 1347.98 27.428C1348.34 27.836 1348.53 28.388 1348.54 29.084C1348.54 29.672 1348.37 30.2 1348.04 30.668C1347.71 31.124 1347.24 31.484 1346.61 31.748C1346 32.012 1345.29 32.144 1344.47 32.144ZM1355 32.144C1354.01 32.144 1353.12 31.934 1352.33 31.514C1351.55 31.094 1350.93 30.494 1350.48 29.714C1350.03 28.934 1349.81 28.022 1349.81 26.978C1349.81 25.946 1350.04 25.04 1350.5 24.26C1350.95 23.468 1351.58 22.862 1352.37 22.442C1353.16 22.022 1354.05 21.812 1355.03 21.812C1356.02 21.812 1356.9 22.022 1357.7 22.442C1358.49 22.862 1359.11 23.468 1359.57 24.26C1360.02 25.04 1360.25 25.946 1360.25 26.978C1360.25 28.01 1360.02 28.922 1359.55 29.714C1359.09 30.494 1358.46 31.094 1357.66 31.514C1356.87 31.934 1355.98 32.144 1355 32.144ZM1355 29.48C1355.58 29.48 1356.08 29.264 1356.49 28.832C1356.91 28.4 1357.12 27.782 1357.12 26.978C1357.12 26.174 1356.92 25.556 1356.51 25.124C1356.11 24.692 1355.62 24.476 1355.03 24.476C1354.43 24.476 1353.93 24.692 1353.54 25.124C1353.14 25.544 1352.94 26.162 1352.94 26.978C1352.94 27.782 1353.14 28.4 1353.52 28.832C1353.92 29.264 1354.41 29.48 1355 29.48ZM1368 21.848C1369.18 21.848 1370.12 22.232 1370.81 23C1371.52 23.756 1371.87 24.8 1371.87 26.132V32H1368.81V26.546C1368.81 25.874 1368.64 25.352 1368.29 24.98C1367.94 24.608 1367.48 24.422 1366.89 24.422C1366.3 24.422 1365.83 24.608 1365.48 24.98C1365.14 25.352 1364.96 25.874 1364.96 26.546V32H1361.88V21.956H1364.96V23.288C1365.27 22.844 1365.69 22.496 1366.22 22.244C1366.75 21.98 1367.34 21.848 1368 21.848Z" fill="white"/>
<path d="M1291 69L1302.26 49.5H1279.74L1291 69Z" fill="#9E3FD8"/>
<defs>
<linearGradient id="paint0_linear_0_1" x1="1550" y1="0" x2="0" y2="0" gradientUnits="userSpaceOnUse">
<stop stop-color="#EF069A"/>
<stop offset="0.270833" stop-color="#6C63FF"/>
<stop offset="0.973958" stop-color="#01B187"/>
</linearGradient>
</defs>
</svg>
