<svg width="70" height="70" viewBox="0 0 70 70" fill="none" xmlns="http://www.w3.org/2000/svg">
<circle cx="35" cy="34.9999" r="35" fill="#01B187"/>
<path d="M41.7143 52.1428C43.2923 52.1428 44.5715 50.8637 44.5715 49.2857C44.5715 47.7077 43.2923 46.4286 41.7143 46.4286C40.1364 46.4286 38.8572 47.7077 38.8572 49.2857C38.8572 50.8637 40.1364 52.1428 41.7143 52.1428Z" fill="white"/>
<path d="M41.7143 23.5714C43.2923 23.5714 44.5715 22.2922 44.5715 20.7143C44.5715 19.1363 43.2923 17.8571 41.7143 17.8571C40.1364 17.8571 38.8572 19.1363 38.8572 20.7143C38.8572 22.2922 40.1364 23.5714 41.7143 23.5714Z" fill="white"/>
<path d="M17.4286 37.8571C19.0065 37.8571 20.2857 36.578 20.2857 35C20.2857 33.422 19.0065 32.1429 17.4286 32.1429C15.8506 32.1429 14.5714 33.422 14.5714 35C14.5714 36.578 15.8506 37.8571 17.4286 37.8571Z" fill="white"/>
<path d="M51.7143 29.2857C50.4509 29.2896 49.2245 29.7124 48.2272 30.4879C47.2298 31.2635 46.5179 32.3479 46.203 33.5714H40.0827C39.8805 32.7657 39.5035 32.0143 38.9785 31.3705C38.4535 30.7267 37.7933 30.2063 37.0447 29.846C36.2961 29.4858 35.4775 29.2946 34.6468 29.286C33.8161 29.2774 32.9937 29.4516 32.2379 29.7963L27.7 24.1246C28.4467 23.1441 28.853 21.9467 28.8572 20.7143C28.8572 19.5841 28.522 18.4793 27.8941 17.5396C27.2662 16.5999 26.3738 15.8675 25.3296 15.435C24.2855 15.0025 23.1365 14.8893 22.0281 15.1098C20.9196 15.3303 19.9014 15.8745 19.1023 16.6737C18.3031 17.4728 17.7589 18.491 17.5384 19.5995C17.3179 20.7079 17.4311 21.8569 17.8636 22.901C18.2961 23.9452 19.0285 24.8376 19.9682 25.4655C20.9079 26.0934 22.0127 26.4286 23.1429 26.4286C23.9484 26.4265 24.7441 26.2524 25.4769 25.918L30.014 31.5894C29.2639 32.568 28.8573 33.7667 28.8573 34.9997C28.8573 36.2328 29.2639 37.4314 30.014 38.41L25.4772 44.0814C24.7442 43.7472 23.9484 43.5733 23.1429 43.5714C22.0127 43.5714 20.9079 43.9066 19.9682 44.5345C19.0285 45.1623 18.2961 46.0548 17.8636 47.0989C17.4311 48.1431 17.3179 49.292 17.5384 50.4005C17.7589 51.509 18.3031 52.5272 19.1023 53.3263C19.9014 54.1255 20.9196 54.6697 22.0281 54.8902C23.1365 55.1107 24.2855 54.9975 25.3296 54.565C26.3738 54.1325 27.2662 53.4001 27.8941 52.4604C28.522 51.5207 28.8572 50.4159 28.8572 49.2857C28.853 48.0533 28.4467 46.8559 27.7 45.8754L32.2369 40.204C32.9928 40.5488 33.8153 40.723 34.6461 40.7145C35.4769 40.7059 36.2957 40.5147 37.0443 40.1545C37.793 39.7942 38.4533 39.2737 38.9784 38.6298C39.5034 37.9859 39.8805 37.2344 40.0827 36.4286H46.203C46.4719 37.461 47.025 38.3973 47.7993 39.1312C48.5737 39.8651 49.5383 40.3672 50.5837 40.5804C51.6291 40.7935 52.7133 40.7093 53.7132 40.3373C54.7131 39.9652 55.5886 39.3202 56.2403 38.4755C56.8921 37.6309 57.2939 36.6204 57.4001 35.5588C57.5064 34.4972 57.3129 33.4271 56.8415 32.47C56.3701 31.5129 55.6398 30.7072 54.7335 30.1443C53.8272 29.5814 52.7812 29.284 51.7143 29.2857V29.2857ZM20.2857 20.7143C20.2857 20.1492 20.4533 19.5968 20.7672 19.1269C21.0812 18.6571 21.5274 18.2909 22.0495 18.0746C22.5716 17.8584 23.146 17.8018 23.7003 17.912C24.2545 18.0223 24.7636 18.2944 25.1632 18.694C25.5628 19.0936 25.8349 19.6027 25.9451 20.1569C26.0554 20.7111 25.9988 21.2856 25.7825 21.8077C25.5663 22.3297 25.2001 22.776 24.7302 23.0899C24.2604 23.4039 23.708 23.5714 23.1429 23.5714C22.3854 23.5706 21.6592 23.2693 21.1235 22.7336C20.5879 22.198 20.2866 21.4718 20.2857 20.7143ZM23.1429 52.1429C22.5778 52.1429 22.0254 51.9753 21.5555 51.6613C21.0857 51.3474 20.7195 50.9012 20.5032 50.3791C20.287 49.857 20.2304 49.2825 20.3406 48.7283C20.4509 48.1741 20.723 47.665 21.1226 47.2654C21.5221 46.8658 22.0312 46.5937 22.5855 46.4835C23.1397 46.3732 23.7142 46.4298 24.2363 46.6461C24.7583 46.8623 25.2046 47.2285 25.5185 47.6984C25.8324 48.1682 26 48.7206 26 49.2857C25.9991 50.0432 25.6978 50.7694 25.1622 51.3051C24.6266 51.8407 23.9004 52.142 23.1429 52.1429ZM34.5714 37.8571C34.0064 37.8571 33.454 37.6896 32.9841 37.3756C32.5142 37.0617 32.148 36.6155 31.9318 36.0934C31.7155 35.5713 31.659 34.9968 31.7692 34.4426C31.8794 33.8884 32.1516 33.3793 32.5511 32.9797C32.9507 32.5801 33.4598 32.308 34.014 32.1978C34.5683 32.0875 35.1428 32.1441 35.6648 32.3603C36.1869 32.5766 36.6331 32.9428 36.9471 33.4127C37.261 33.8825 37.4286 34.4349 37.4286 35C37.4277 35.7575 37.1264 36.4837 36.5908 37.0193C36.0552 37.555 35.3289 37.8563 34.5714 37.8571V37.8571ZM51.7143 37.8571C51.1492 37.8571 50.5968 37.6896 50.127 37.3756C49.6571 37.0617 49.2909 36.6155 49.0746 36.0934C48.8584 35.5713 48.8018 34.9968 48.9121 34.4426C49.0223 33.8884 49.2944 33.3793 49.694 32.9797C50.0936 32.5801 50.6027 32.308 51.1569 32.1978C51.7111 32.0875 52.2856 32.1441 52.8077 32.3603C53.3298 32.5766 53.776 32.9428 54.0899 33.4127C54.4039 33.8825 54.5714 34.4349 54.5714 35C54.5706 35.7575 54.2693 36.4837 53.7336 37.0193C53.198 37.555 52.4718 37.8563 51.7143 37.8571V37.8571Z" fill="white"/>
</svg>
