<svg width="70" height="70" viewBox="0 0 70 70" fill="none" xmlns="http://www.w3.org/2000/svg">
<circle cx="35" cy="35" r="35" fill="#6C63FF"/>
<path d="M59.1392 32.1605C59.1386 32.1605 59.138 32.1605 59.1373 32.1605L58.6672 32.1611C58.4735 29.2796 56.3063 26.9207 53.4624 26.3445C53.5422 25.5398 52.9106 24.8516 52.1118 24.8516C51.3148 24.8516 50.6817 25.5377 50.7612 26.3445C47.9119 26.9219 45.7416 29.2888 45.5552 32.1778L31.7938 32.1952L42.6967 28.6222C42.7971 28.5893 42.8793 28.5161 42.9236 28.4202C42.9679 28.3243 42.9702 28.2143 42.9304 28.1165C41.8433 25.4508 39.0548 23.8933 36.1801 24.2305C35.997 23.4033 35.1096 22.9385 34.3206 23.2753C34.5191 23.5073 34.6899 23.7658 34.8234 24.0488C35.6327 25.7644 34.9234 27.8654 33.1539 28.6998L30.3213 30.0361C30.2459 30.7457 30.2922 31.475 30.4733 32.1968L26.6482 32.2016V35.3404L59.1414 35.2992C60.0082 35.2982 60.71 34.5946 60.7089 33.7279C60.7076 32.8618 60.0052 32.1605 59.1392 32.1605Z" fill="white"/>
<path d="M20.6327 11.9861C18.4595 11.9964 16.7062 13.7666 16.7167 15.9398C16.7271 18.1211 18.5085 19.8662 20.6703 19.8558C22.8318 19.8455 24.5968 18.0838 24.5863 15.9021C24.576 13.729 22.8058 11.9757 20.6327 11.9861Z" fill="white"/>
<path d="M33.2758 24.7789C32.8578 23.8924 31.7948 23.5064 30.9028 23.9271L25.3255 26.5582L19.5221 23.0518L25.0384 24.6878L25.035 23.9147C25.0318 23.2096 24.7487 22.5346 24.2478 22.0383C23.7499 21.545 23.0775 21.276 22.3769 21.276C22.3726 21.276 22.3683 21.276 22.3642 21.276H17.6239C16.1562 21.283 14.9935 22.4934 15 23.961C15 26.3879 15 54.5325 15 55.9362C15 57.0831 15.9249 58.0128 17.0719 58.0128C18.2189 58.0128 19.1485 57.0831 19.1485 55.9362C19.1485 55.2054 19.1485 39.4226 19.1485 38.7311L20.8556 38.7229C20.9827 39.8426 21.5226 44.6004 21.6072 45.3463V55.9362C21.6072 57.0831 22.5369 58.0128 23.6838 58.0128C24.8307 58.0128 25.7604 57.0831 25.7604 55.9362V45.2291L25.0862 38.7029V32.0675C24.3251 32.0347 23.5159 31.7317 23.1031 31.328L17.8911 26.2323L24.2996 30.1044C24.8089 30.4122 25.4436 30.4448 25.9822 30.1908L32.4241 27.152C33.3163 26.7311 33.6947 25.6668 33.2758 24.7789Z" fill="white"/>
</svg>
