<svg width="22" height="22" viewBox="0 0 22 22" fill="none" xmlns="http://www.w3.org/2000/svg">
<path d="M11 0C13.9174 0 16.7153 1.15893 18.7782 3.22183C20.8411 5.28473 22 8.08262 22 11C22 13.9174 20.8411 16.7153 18.7782 18.7782C16.7153 20.8411 13.9174 22 11 22C8.08262 22 5.28473 20.8411 3.22183 18.7782C1.15893 16.7153 0 13.9174 0 11C0 8.08262 1.15893 5.28473 3.22183 3.22183C5.28473 1.15893 8.08262 0 11 0V0ZM9.62971 13.1701L7.18614 10.725C7.09854 10.6374 6.99454 10.5679 6.88009 10.5205C6.76563 10.4731 6.64296 10.4487 6.51907 10.4487C6.39518 10.4487 6.27251 10.4731 6.15805 10.5205C6.0436 10.5679 5.9396 10.6374 5.852 10.725C5.67508 10.9019 5.57569 11.1419 5.57569 11.3921C5.57569 11.6423 5.67508 11.8822 5.852 12.0591L8.96343 15.1706C9.05078 15.2586 9.1547 15.3285 9.26919 15.3762C9.38368 15.4239 9.50648 15.4484 9.6305 15.4484C9.75452 15.4484 9.87732 15.4239 9.99181 15.3762C10.1063 15.3285 10.2102 15.2586 10.2976 15.1706L16.7404 8.72614C16.8292 8.6389 16.8998 8.53495 16.9482 8.42029C16.9966 8.30562 17.0218 8.1825 17.0224 8.05804C17.023 7.93358 16.9989 7.81024 16.9516 7.69513C16.9043 7.58001 16.8346 7.47541 16.7467 7.38735C16.6587 7.29929 16.5542 7.22952 16.4391 7.18205C16.3241 7.13459 16.2007 7.11038 16.0763 7.11081C15.9518 7.11124 15.8287 7.13631 15.714 7.18457C15.5992 7.23283 15.4952 7.30333 15.4079 7.392L9.62971 13.1701Z" fill="#6C63FF"/>
</svg>
