<svg width="1489" height="1437" viewBox="0 0 1489 1437" fill="none" xmlns="http://www.w3.org/2000/svg">
<g opacity="0.6">
<path d="M123.868 1358.24C126.868 1358.24 129.3 1355.81 129.3 1352.81C129.3 1349.81 126.868 1347.38 123.868 1347.38C120.867 1347.38 118.435 1349.81 118.435 1352.81C118.435 1355.81 120.867 1358.24 123.868 1358.24Z" fill="#C4C4C4"/>
<path d="M123.868 1347.38C126.765 1347.38 129.3 1349.91 129.3 1352.81C129.3 1355.7 126.765 1358.24 123.868 1358.24C120.97 1358.24 118.435 1355.7 118.435 1352.81C118.435 1349.55 120.97 1347.38 123.868 1347.38ZM124.23 1343.76C119.521 1343.76 115.175 1347.74 115.175 1352.45C115.175 1357.15 119.159 1361.5 123.868 1361.5C128.938 1361.5 132.922 1357.51 132.922 1352.81C132.922 1348.1 128.938 1343.76 124.23 1343.76Z" fill="#231F20"/>
<path d="M226.366 1425.57C230.566 1425.57 233.972 1422.17 233.972 1417.97C233.972 1413.77 230.566 1410.37 226.366 1410.37C222.165 1410.37 218.76 1413.77 218.76 1417.97C218.76 1422.17 222.165 1425.57 226.366 1425.57Z" fill="#C4C4C4"/>
<path d="M226.366 1410.73C230.712 1410.73 233.972 1413.99 233.972 1418.33C233.972 1422.67 230.712 1425.93 226.366 1425.93C222.019 1425.93 218.76 1422.67 218.76 1418.33C219.122 1413.99 222.382 1410.37 226.366 1410.73ZM226.728 1407.11C220.571 1407.11 215.862 1411.81 215.862 1417.97C215.862 1424.12 220.571 1428.83 226.728 1428.83C232.885 1428.83 237.593 1424.12 237.593 1417.97C237.593 1412.18 232.523 1407.11 226.728 1407.11Z" fill="#231F20"/>
<path d="M1186.88 697.581C1193.08 697.581 1198.11 692.557 1198.11 686.359C1198.11 680.161 1193.08 675.137 1186.88 675.137C1180.68 675.137 1175.65 680.161 1175.65 686.359C1175.65 692.557 1180.68 697.581 1186.88 697.581Z" fill="#C4C4C4"/>
<path d="M1187.24 675.137C1193.4 675.137 1198.47 680.205 1198.47 686.359C1198.47 692.513 1193.4 697.581 1187.24 697.581C1181.09 697.581 1176.02 692.513 1176.02 686.359C1175.65 679.843 1180.73 675.137 1187.24 675.137ZM1187.24 671.517C1179.28 671.517 1172.4 678.033 1172.4 685.997C1172.4 693.961 1178.91 700.839 1186.88 700.839C1194.85 700.839 1201.73 694.323 1201.73 686.359C1201.73 678.395 1195.21 671.517 1187.24 671.517Z" fill="#231F20"/>
<path d="M1336.1 624.456C1338.7 624.456 1340.81 622.349 1340.81 619.75C1340.81 617.151 1338.7 615.044 1336.1 615.044C1333.5 615.044 1331.39 617.151 1331.39 619.75C1331.39 622.349 1333.5 624.456 1336.1 624.456Z" fill="#C4C4C4"/>
<path d="M1336.1 614.682C1338.64 614.682 1340.81 616.854 1340.81 619.388C1340.81 621.922 1338.64 624.094 1336.1 624.094C1333.57 624.094 1331.39 621.922 1331.39 619.388C1331.39 616.854 1333.21 614.682 1336.1 614.682ZM1336.1 611.424C1331.39 611.424 1327.77 615.044 1327.77 619.75C1327.77 624.456 1331.39 628.076 1336.1 628.076C1340.81 628.076 1344.43 624.456 1344.43 619.75C1344.43 615.044 1340.45 611.424 1336.1 611.424Z" fill="#231F20"/>
<path d="M1459.61 512.959C1465.81 512.959 1470.84 507.935 1470.84 501.737C1470.84 495.539 1465.81 490.515 1459.61 490.515C1453.41 490.515 1448.38 495.539 1448.38 501.737C1448.38 507.935 1453.41 512.959 1459.61 512.959Z" fill="#C4C4C4"/>
<path d="M1459.61 490.515C1465.76 490.515 1470.84 495.583 1470.47 501.737C1470.47 507.891 1465.4 512.959 1459.25 512.597C1453.09 512.597 1448.02 507.529 1448.38 501.375C1448.38 495.221 1453.45 490.515 1459.61 490.515ZM1459.61 486.895C1451.64 486.895 1445.12 493.411 1445.12 501.375C1445.12 509.339 1451.64 515.855 1459.61 515.855C1467.58 515.855 1474.09 509.339 1474.09 501.375C1474.09 493.773 1467.58 487.257 1459.61 486.895Z" fill="#231F20"/>
<path d="M955.446 970.531C961.047 970.531 965.587 965.993 965.587 960.395C965.587 954.797 961.047 950.259 955.446 950.259C949.845 950.259 945.304 954.797 945.304 960.395C945.304 965.993 949.845 970.531 955.446 970.531Z" fill="#C4C4C4"/>
<path d="M955.446 950.259C960.878 950.259 965.587 954.965 965.587 960.395C965.587 965.825 960.878 970.531 955.446 970.531C950.013 970.531 945.304 965.825 945.304 960.395C945.304 954.965 950.013 950.259 955.446 950.259ZM955.446 947.001C948.202 947.001 942.045 952.793 942.045 960.395C942.045 967.635 947.84 973.789 955.446 973.789C962.689 973.789 968.846 967.997 968.846 960.395C968.846 953.155 962.689 947.001 955.446 947.001Z" fill="#231F20"/>
<path d="M1108.65 1364.03C1113.45 1364.03 1117.34 1360.14 1117.34 1355.34C1117.34 1350.54 1113.45 1346.65 1108.65 1346.65C1103.85 1346.65 1099.96 1350.54 1099.96 1355.34C1099.96 1360.14 1103.85 1364.03 1108.65 1364.03Z" fill="#C4C4C4"/>
<path d="M1108.65 1346.65C1113.36 1346.65 1117.34 1350.63 1117.34 1355.34C1117.34 1360.05 1113.36 1364.03 1108.65 1364.03C1103.94 1364.03 1099.96 1360.05 1099.96 1355.34C1099.96 1350.63 1103.94 1346.65 1108.65 1346.65ZM1108.65 1343.39C1102.13 1343.39 1096.7 1348.82 1096.7 1355.34C1096.7 1361.86 1102.13 1367.29 1108.65 1367.29C1115.17 1367.29 1120.6 1361.86 1120.6 1355.34C1120.6 1348.82 1115.53 1343.39 1108.65 1343.39Z" fill="#231F20"/>
<path d="M1214.77 1404.21C1220.97 1404.21 1226 1399.19 1226 1392.99C1226 1386.79 1220.97 1381.77 1214.77 1381.77C1208.57 1381.77 1203.54 1386.79 1203.54 1392.99C1203.54 1399.19 1208.57 1404.21 1214.77 1404.21Z" fill="#C4C4C4"/>
<path d="M1214.77 1381.77C1220.93 1381.77 1226 1386.84 1226 1392.99C1226 1399.14 1220.93 1404.21 1214.77 1404.21C1208.61 1404.21 1203.54 1399.14 1203.54 1392.99C1203.54 1386.47 1208.61 1381.77 1214.77 1381.77ZM1214.77 1378.15C1206.8 1378.15 1200.28 1384.66 1200.28 1392.63C1200.28 1400.59 1206.8 1407.11 1214.77 1407.11C1222.74 1407.11 1229.26 1400.59 1229.26 1392.63C1229.26 1385.03 1222.74 1378.51 1214.77 1378.15Z" fill="#231F20"/>
<path d="M1265.11 1180.49C1268.52 1180.49 1271.27 1177.74 1271.27 1174.34C1271.27 1170.94 1268.52 1168.19 1265.11 1168.19C1261.71 1168.19 1258.96 1170.94 1258.96 1174.34C1258.96 1177.74 1261.71 1180.49 1265.11 1180.49Z" fill="#C4C4C4"/>
<path d="M1265.11 1167.82C1268.74 1167.82 1271.27 1170.72 1271.27 1173.98C1271.27 1177.6 1268.37 1180.13 1265.11 1180.13C1261.49 1180.13 1258.96 1177.24 1258.96 1173.98C1258.96 1170.72 1261.49 1167.82 1265.11 1167.82ZM1265.11 1164.57C1259.68 1164.57 1255.34 1168.91 1255.34 1174.34C1255.34 1179.77 1259.68 1184.11 1265.11 1184.11C1270.55 1184.11 1274.89 1179.77 1274.89 1174.34C1274.53 1168.91 1270.55 1164.57 1265.11 1164.57Z" fill="#231F20"/>
<path d="M1475.54 1077.68C1482.15 1077.68 1487.5 1072.34 1487.5 1065.74C1487.5 1059.14 1482.15 1053.79 1475.54 1053.79C1468.94 1053.79 1463.59 1059.14 1463.59 1065.74C1463.59 1072.34 1468.94 1077.68 1475.54 1077.68Z" fill="#C4C4C4"/>
<path d="M1475.91 1053.79C1482.43 1053.79 1487.86 1059.22 1487.86 1066.1C1487.86 1072.62 1482.43 1078.05 1475.54 1078.05C1469.02 1078.05 1463.59 1072.62 1463.59 1065.74C1463.59 1059.22 1469.02 1053.79 1475.91 1053.79ZM1475.91 1050.17C1467.21 1050.17 1460.33 1057.05 1460.33 1065.74C1460.33 1074.43 1467.21 1081.3 1475.91 1081.3C1484.6 1081.3 1491.48 1074.43 1491.48 1065.74C1491.12 1057.41 1484.24 1050.17 1475.91 1050.17Z" fill="#231F20"/>
<path d="M7.96809 1287.28C10.7685 1287.28 13.0387 1285.02 13.0387 1282.22C13.0387 1279.42 10.7685 1277.15 7.96809 1277.15C5.16768 1277.15 2.89746 1279.42 2.89746 1282.22C2.89746 1285.02 5.16768 1287.28 7.96809 1287.28Z" fill="#C4C4C4"/>
<path d="M8.33028 1277.15C11.2278 1277.15 13.4009 1279.32 13.4009 1282.22C13.4009 1285.11 11.2278 1287.28 8.33028 1287.28C5.4328 1287.28 3.2597 1285.11 3.2597 1282.22C3.2597 1279.68 5.4328 1277.15 8.33028 1277.15ZM8.33028 1273.89C3.62187 1273.89 0 1277.51 0 1282.22C0 1286.92 3.62187 1290.54 8.33028 1290.54C13.0387 1290.54 16.6606 1286.92 16.6606 1282.22C16.6606 1277.87 12.6765 1273.89 8.33028 1273.89Z" fill="#231F20"/>
<path d="M249.184 1149.36C253.584 1149.36 257.152 1145.8 257.152 1141.4C257.152 1137 253.584 1133.43 249.184 1133.43C244.783 1133.43 241.216 1137 241.216 1141.4C241.216 1145.8 244.783 1149.36 249.184 1149.36Z" fill="#C4C4C4"/>
<path d="M249.184 1133.07C253.53 1133.07 257.152 1136.69 257.152 1141.03C257.152 1145.38 253.53 1149 249.184 1149C244.837 1149 241.216 1145.38 241.216 1141.03C241.216 1136.69 244.837 1133.07 249.184 1133.07ZM249.184 1129.81C243.027 1129.81 237.594 1134.88 237.594 1141.03C237.594 1147.19 242.664 1152.62 248.822 1152.62C254.979 1152.62 260.411 1147.55 260.411 1141.4C260.774 1134.88 255.703 1129.81 249.184 1129.81Z" fill="#231F20"/>
<path d="M720.025 637.126C722.625 637.126 724.733 635.019 724.733 632.42C724.733 629.821 722.625 627.714 720.025 627.714C717.424 627.714 715.316 629.821 715.316 632.42C715.316 635.019 717.424 637.126 720.025 637.126Z" fill="#C4C4C4"/>
<path d="M720.025 627.714C722.56 627.714 724.733 629.886 724.733 632.42C724.733 634.954 722.56 637.126 720.025 637.126C717.489 637.126 715.316 634.954 715.316 632.42C715.316 629.886 717.489 627.714 720.025 627.714ZM720.025 624.094C715.316 624.094 711.694 627.714 711.694 632.42C711.694 637.126 715.316 640.746 720.025 640.746C724.733 640.746 728.355 637.126 728.355 632.42C728.355 628.076 724.733 624.456 720.025 624.094Z" fill="#231F20"/>
<path d="M1005.06 847.45C1011.27 847.45 1016.29 842.426 1016.29 836.228C1016.29 830.03 1011.27 825.006 1005.06 825.006C998.864 825.006 993.837 830.03 993.837 836.228C993.837 842.426 998.864 847.45 1005.06 847.45Z" fill="#C4C4C4"/>
<path d="M1005.06 825.006C1011.22 825.006 1016.29 830.074 1015.93 836.228C1015.93 842.382 1010.86 847.45 1004.7 847.088C998.545 847.088 993.475 842.02 993.837 835.866C994.199 829.712 999.27 825.006 1005.06 825.006ZM1005.43 821.748C997.459 821.748 990.939 828.264 990.939 836.228C990.939 844.192 997.459 850.708 1005.43 850.708C1013.39 850.708 1019.91 844.192 1019.91 836.228C1019.55 828.264 1013.39 821.748 1005.43 821.748Z" fill="#231F20"/>
<path d="M789.202 866.636C792.203 866.636 794.635 864.205 794.635 861.206C794.635 858.207 792.203 855.776 789.202 855.776C786.202 855.776 783.769 858.207 783.769 861.206C783.769 864.205 786.202 866.636 789.202 866.636Z" fill="#C4C4C4"/>
<path d="M789.202 855.414C792.1 855.414 794.635 857.948 794.635 860.844C794.635 863.74 792.1 866.274 789.202 866.274C786.305 866.274 783.769 863.74 783.769 860.844C783.769 857.948 786.305 855.414 789.202 855.414ZM789.202 852.156C784.132 852.156 780.147 856.138 780.147 861.206C780.147 866.274 784.132 870.256 789.202 870.256C794.273 870.256 798.257 866.274 798.257 861.206C798.257 856.138 794.273 852.156 789.202 852.156Z" fill="#231F20"/>
<path d="M797.895 909.353C801.296 909.353 804.052 906.598 804.052 903.199C804.052 899.8 801.296 897.045 797.895 897.045C794.495 897.045 791.738 899.8 791.738 903.199C791.738 906.598 794.495 909.353 797.895 909.353Z" fill="#C4C4C4"/>
<path d="M798.257 897.045C801.879 897.045 804.415 899.941 804.415 903.199C804.415 906.819 801.517 909.353 798.257 909.353C794.636 909.353 792.1 906.457 792.1 903.199C791.738 899.579 794.636 897.045 798.257 897.045ZM798.257 893.425C792.825 893.425 788.479 897.769 788.479 902.837C788.479 908.267 792.825 912.611 797.895 912.611C803.328 912.611 807.674 908.267 807.674 903.199C807.674 897.769 803.328 893.425 798.257 893.425Z" fill="#231F20"/>
<path d="M897.134 982.478C899.735 982.478 901.843 980.371 901.843 977.771C901.843 975.172 899.735 973.065 897.134 973.065C894.534 973.065 892.426 975.172 892.426 977.771C892.426 980.371 894.534 982.478 897.134 982.478Z" fill="#C4C4C4"/>
<path d="M897.134 973.065C899.669 973.065 901.842 975.237 901.842 978.133C901.842 980.667 899.669 982.839 896.772 982.839C893.874 982.839 892.063 980.667 892.063 977.771C892.426 975.237 894.599 973.065 897.134 973.065ZM897.134 969.445C892.426 969.445 888.804 973.065 888.804 977.771C888.804 982.477 892.426 986.097 897.134 986.097C901.842 986.097 905.464 982.477 905.464 977.771C905.464 973.427 901.842 969.445 897.134 969.445Z" fill="#231F20"/>
<path d="M1364.35 988.632C1368.95 988.632 1372.68 984.904 1372.68 980.306C1372.68 975.707 1368.95 971.979 1364.35 971.979C1359.75 971.979 1356.02 975.707 1356.02 980.306C1356.02 984.904 1359.75 988.632 1364.35 988.632Z" fill="#C4C4C4"/>
<path d="M1364.35 971.617C1369.06 971.617 1372.68 975.599 1372.68 980.305C1372.68 985.011 1368.7 988.632 1363.99 988.632C1359.28 988.632 1355.66 984.65 1355.66 979.943C1356.02 975.599 1359.65 971.617 1364.35 971.617ZM1364.35 968.359C1357.83 968.359 1352.4 973.789 1352.4 980.305C1352.4 986.822 1357.83 992.252 1364.35 992.252C1370.87 992.252 1376.31 986.822 1376.31 980.305C1376.31 973.789 1370.87 968.359 1364.35 968.359Z" fill="#231F20"/>
<path d="M1459.97 628.438C1465.37 628.438 1469.75 624.062 1469.75 618.664C1469.75 613.266 1465.37 608.89 1459.97 608.89C1454.57 608.89 1450.19 613.266 1450.19 618.664C1450.19 624.062 1454.57 628.438 1459.97 628.438Z" fill="#C4C4C4"/>
<path d="M1459.97 608.89C1465.4 608.89 1469.75 613.234 1469.75 618.664C1469.75 624.094 1465.4 628.438 1459.97 628.438C1454.54 628.438 1450.19 624.094 1450.19 618.664C1450.19 613.234 1454.9 608.89 1459.97 608.89ZM1460.33 605.27C1453.09 605.27 1447.29 611.062 1446.93 618.302C1446.57 625.542 1452.73 631.334 1459.97 631.696C1467.21 631.696 1473.01 625.904 1473.37 618.664C1473.37 611.424 1467.58 605.632 1460.33 605.27Z" fill="#231F20"/>
<path d="M299.165 1240.22C304.966 1240.22 309.669 1235.52 309.669 1229.73C309.669 1223.93 304.966 1219.23 299.165 1219.23C293.364 1219.23 288.662 1223.93 288.662 1229.73C288.662 1235.52 293.364 1240.22 299.165 1240.22Z" fill="#C4C4C4"/>
<path d="M299.165 1219.23C304.96 1219.23 309.669 1223.93 309.669 1229.73C309.669 1235.52 304.96 1240.22 299.165 1240.22C293.37 1240.22 288.662 1235.52 288.662 1229.73C288.3 1223.93 293.37 1219.23 299.165 1219.23ZM299.165 1215.97C291.559 1215.97 285.04 1222.12 285.04 1229.73C285.04 1237.33 291.197 1243.84 298.803 1243.84C306.409 1243.84 312.928 1237.69 312.928 1230.09C312.928 1222.12 306.771 1215.97 299.165 1215.97Z" fill="#231F20"/>
<path d="M398.042 1117.87C401.443 1117.87 404.199 1115.11 404.199 1111.71C404.199 1108.31 401.443 1105.56 398.042 1105.56C394.642 1105.56 391.885 1108.31 391.885 1111.71C391.885 1115.11 394.642 1117.87 398.042 1117.87Z" fill="#C4C4C4"/>
<path d="M398.042 1105.56C401.302 1105.56 404.199 1108.45 404.199 1111.71C404.199 1114.97 401.302 1117.87 398.042 1117.87C394.782 1117.87 391.885 1114.97 391.885 1111.71C391.885 1108.09 394.782 1105.56 398.042 1105.56ZM398.042 1102.3C392.971 1102.3 388.625 1106.64 388.625 1111.71C388.625 1116.78 392.971 1121.12 398.042 1121.12C403.113 1121.12 407.459 1116.78 407.459 1111.71C407.459 1106.64 403.113 1102.3 398.042 1102.3Z" fill="#231F20"/>
<path d="M537.122 1432.45C542.322 1432.45 546.538 1428.23 546.538 1423.04C546.538 1417.84 542.322 1413.62 537.122 1413.62C531.921 1413.62 527.705 1417.84 527.705 1423.04C527.705 1428.23 531.921 1432.45 537.122 1432.45Z" fill="#C4C4C4"/>
<path d="M537.122 1413.62C542.554 1413.62 546.538 1417.97 546.538 1423.4C546.538 1428.83 542.192 1432.81 536.76 1432.81C531.327 1432.81 527.343 1428.47 527.343 1423.04C527.705 1417.61 532.051 1413.62 537.122 1413.62ZM537.122 1410C529.878 1410 524.083 1415.8 524.083 1423.04C524.083 1430.28 529.878 1436.07 537.122 1436.07C544.365 1436.07 550.16 1430.28 550.16 1423.04C550.16 1416.16 544.365 1410 537.122 1410Z" fill="#231F20"/>
<path d="M593.622 1121.12C599.223 1121.12 603.764 1116.59 603.764 1110.99C603.764 1105.39 599.223 1100.85 593.622 1100.85C588.022 1100.85 583.481 1105.39 583.481 1110.99C583.481 1116.59 588.022 1121.12 593.622 1121.12Z" fill="#C4C4C4"/>
<path d="M593.622 1100.85C599.055 1100.85 603.764 1105.56 603.764 1110.99C603.764 1116.42 599.055 1121.12 593.622 1121.12C588.19 1121.12 583.481 1116.42 583.481 1110.99C583.481 1105.56 588.19 1100.85 593.622 1100.85ZM593.622 1097.59C586.379 1097.59 580.222 1103.39 580.222 1110.99C580.222 1118.23 586.017 1124.38 593.622 1124.38C600.866 1124.38 607.023 1118.59 607.023 1110.99C607.023 1103.75 600.866 1097.59 593.622 1097.59Z" fill="#231F20"/>
<path d="M882.284 1254.34C887.085 1254.34 890.976 1250.45 890.976 1245.65C890.976 1240.86 887.085 1236.97 882.284 1236.97C877.483 1236.97 873.592 1240.86 873.592 1245.65C873.592 1250.45 877.483 1254.34 882.284 1254.34Z" fill="#C4C4C4"/>
<path d="M882.284 1236.6C886.992 1236.6 890.976 1240.59 890.976 1245.29C890.976 1250 886.992 1253.98 882.284 1253.98C877.576 1253.98 873.592 1250 873.592 1245.29C873.592 1240.59 877.576 1236.6 882.284 1236.6ZM882.284 1233.35C875.765 1233.35 869.97 1238.78 869.97 1245.29C869.97 1251.81 875.402 1257.6 881.922 1257.6C888.441 1257.6 894.236 1252.17 894.236 1245.65C894.598 1238.78 889.166 1233.35 882.284 1233.35Z" fill="#231F20"/>
<path d="M641.068 1027.73C644.669 1027.73 647.588 1024.81 647.588 1021.21C647.588 1017.61 644.669 1014.7 641.068 1014.7C637.468 1014.7 634.549 1017.61 634.549 1021.21C634.549 1024.81 637.468 1027.73 641.068 1027.73Z" fill="#C4C4C4"/>
<path d="M641.068 1014.7C644.69 1014.7 647.587 1017.59 647.587 1021.21C647.587 1024.83 644.69 1027.73 641.068 1027.73C637.446 1027.73 634.549 1024.83 634.549 1021.21C634.549 1017.59 637.446 1014.7 641.068 1014.7ZM641.068 1011.44C635.635 1011.44 631.289 1015.78 631.289 1021.21C631.289 1026.64 635.635 1030.99 641.068 1030.99C646.501 1030.99 650.847 1026.64 650.847 1021.21C650.847 1015.78 646.501 1011.44 641.068 1011.44Z" fill="#231F20"/>
<path d="M766.747 460.106C770.948 460.106 774.353 456.703 774.353 452.504C774.353 448.306 770.948 444.902 766.747 444.902C762.547 444.902 759.141 448.306 759.141 452.504C759.141 456.703 762.547 460.106 766.747 460.106Z" fill="#C4C4C4"/>
<path d="M766.747 444.903C771.094 444.903 774.353 448.523 774.353 452.505C774.353 456.849 770.731 460.107 766.747 460.107C762.763 460.107 759.141 456.487 759.141 452.505C759.141 448.161 762.763 444.903 766.747 444.903ZM766.747 441.645C760.59 441.645 755.52 446.713 755.52 452.505C755.52 458.659 760.59 463.727 766.385 463.727C772.542 463.727 777.613 458.659 777.613 452.867C777.975 446.351 772.904 441.645 766.747 441.645Z" fill="#231F20"/>
<path d="M963.414 517.303C966.614 517.303 969.209 514.71 969.209 511.511C969.209 508.312 966.614 505.719 963.414 505.719C960.213 505.719 957.619 508.312 957.619 511.511C957.619 514.71 960.213 517.303 963.414 517.303Z" fill="#C4C4C4"/>
<path d="M963.414 506.081C966.674 506.081 969.209 508.615 969.209 511.873C969.209 515.131 966.674 517.665 963.414 517.665C960.154 517.665 957.619 515.131 957.619 511.873C957.619 508.615 960.154 506.081 963.414 506.081ZM963.414 502.461C958.343 502.461 954.359 506.443 954.359 511.511C954.359 516.579 958.343 520.561 963.414 520.561C968.485 520.561 972.469 516.579 972.469 511.511C972.469 506.805 968.485 502.461 963.414 502.461Z" fill="#231F20"/>
<path d="M983.695 21.358C988.696 21.358 992.75 17.3061 992.75 12.3079C992.75 7.30967 988.696 3.25781 983.695 3.25781C978.695 3.25781 974.641 7.30967 974.641 12.3079C974.641 17.3061 978.695 21.358 983.695 21.358Z" fill="#C4C4C4"/>
<path d="M983.696 3.25804C988.766 3.25804 992.75 7.24007 992.75 12.3081C992.75 17.3762 988.766 21.3582 983.696 21.3582C978.625 21.3582 974.641 17.3762 974.641 12.3081C974.641 7.24007 978.625 3.25804 983.696 3.25804ZM983.696 0C976.814 0 971.381 5.43006 971.019 12.3081C970.657 19.1862 976.452 24.6162 983.333 24.9782C990.215 24.9782 995.648 19.5482 996.01 12.6701C996.01 5.79206 990.577 0 983.696 0Z" fill="#231F20"/>
<path d="M963.052 333.768C969.853 333.768 975.366 328.257 975.366 321.459C975.366 314.662 969.853 309.151 963.052 309.151C956.251 309.151 950.737 314.662 950.737 321.459C950.737 328.257 956.251 333.768 963.052 333.768Z" fill="#C4C4C4"/>
<path d="M963.051 309.151C969.933 309.151 975.366 314.581 975.366 321.459C975.366 328.337 969.933 333.768 963.051 333.768C956.17 333.768 950.737 328.337 950.737 321.459C950.737 314.581 956.532 309.151 963.051 309.151ZM963.051 305.531C954.359 305.531 947.478 312.409 947.478 321.097C947.478 329.785 954.359 336.664 963.051 336.664C971.744 336.664 978.626 329.785 978.626 321.097C978.988 312.771 971.744 305.893 963.051 305.531Z" fill="#231F20"/>
<path d="M1158.27 430.422C1161.67 430.422 1164.43 427.667 1164.43 424.268C1164.43 420.87 1161.67 418.114 1158.27 418.114C1154.87 418.114 1152.11 420.87 1152.11 424.268C1152.11 427.667 1154.87 430.422 1158.27 430.422Z" fill="#C4C4C4"/>
<path d="M1158.27 418.114C1161.89 418.114 1164.43 421.01 1164.43 424.268C1164.43 427.888 1161.53 430.422 1158.27 430.422C1154.65 430.422 1152.11 427.526 1152.11 424.268C1152.11 420.648 1154.65 418.114 1158.27 418.114ZM1158.27 414.494C1152.84 414.494 1148.49 418.838 1148.49 424.268C1148.49 429.698 1152.84 434.042 1158.27 434.042C1163.7 434.042 1168.05 429.698 1168.05 424.268C1168.05 418.838 1163.7 414.494 1158.27 414.494Z" fill="#231F20"/>
<path d="M1065.19 44.888C1068.99 44.888 1072.07 41.8085 1072.07 38.0099C1072.07 34.2112 1068.99 31.1318 1065.19 31.1318C1061.39 31.1318 1058.31 34.2112 1058.31 38.0099C1058.31 41.8085 1061.39 44.888 1065.19 44.888Z" fill="#C4C4C4"/>
<path d="M1065.19 31.1321C1069.17 31.1321 1072.07 34.3901 1072.07 38.0101C1072.07 41.9922 1068.81 44.8882 1065.19 44.8882C1061.2 44.8882 1058.31 41.6302 1058.31 38.0101C1058.31 34.3901 1061.2 31.1321 1065.19 31.1321ZM1065.19 27.874C1059.39 27.874 1054.68 32.5801 1054.68 38.0101C1054.68 43.8022 1059.39 48.5082 1064.83 48.5082C1070.62 48.5082 1075.33 43.8022 1075.33 38.3721C1075.69 32.5801 1070.98 27.874 1065.19 27.874Z" fill="#231F20"/>
<path d="M1468.66 1377.06C1472.26 1377.06 1475.18 1374.14 1475.18 1370.55C1475.18 1366.95 1472.26 1364.03 1468.66 1364.03C1465.06 1364.03 1462.14 1366.95 1462.14 1370.55C1462.14 1374.14 1465.06 1377.06 1468.66 1377.06Z" fill="#C4C4C4"/>
<path d="M1468.66 1364.03C1472.28 1364.03 1475.18 1366.93 1475.18 1370.55C1475.18 1374.17 1472.28 1377.06 1468.66 1377.06C1465.04 1377.06 1462.14 1374.17 1462.14 1370.55C1462.14 1366.93 1465.04 1364.03 1468.66 1364.03ZM1468.66 1360.77C1463.23 1360.77 1458.88 1365.12 1458.88 1370.55C1458.88 1375.98 1463.23 1380.32 1468.66 1380.32C1474.1 1380.32 1478.44 1375.98 1478.44 1370.55C1478.44 1365.12 1474.1 1360.77 1468.66 1360.77Z" fill="#231F20"/>
</g>
</svg>
