<svg width="279" height="115" viewBox="0 0 279 115" fill="none" xmlns="http://www.w3.org/2000/svg">
<path d="M98.4386 83.2061L0.352034 87.1856L0 25.8163L45.1515 0L99.2348 25.102L98.4386 83.2061Z" fill="#A561FF"/>
<path d="M0 25.8163L45.1515 0L45.2447 60.3403L0.463086 86.9943L0 25.8163Z" fill="#9A4DFF"/>
<path opacity="0.36" d="M99.235 25.1021L58.459 54.2025V114.611L98.4388 83.2062L99.235 25.1021Z" fill="#8F39FF"/>
<path d="M0.351562 87.1856L48.2538 58.5413L98.4381 83.206L58.4594 114.89L0.351562 87.1856Z" fill="#8F39FF"/>
<path opacity="0.4" d="M99.2345 25.1021L58.1064 54.5919V115L98.4383 83.2062L99.2345 25.1021Z" fill="#994CFF"/>
<path d="M111.375 43.1094C111.375 44.4778 111.641 45.4736 112.422 46.3458C113.202 47.218 114.694 47.6964 116.895 47.6964C119.327 47.6964 121.315 47.2169 122.823 46.2568V50.7725C121.99 51.2703 121.093 51.6532 120.158 51.9107C119.235 52.1421 118.081 52.2444 116.678 52.2444C109.809 52.2444 106.351 49.5065 106.351 43.105V34.4451C106.351 31.4568 107.221 29.1272 108.96 27.4361C110.682 25.7673 113.274 24.9285 116.717 24.9285C118.066 24.9285 119.167 25.0531 120.019 25.3023C120.988 25.6195 121.927 26.0243 122.823 26.5116V31.0107C121.046 29.9972 119.007 29.4809 116.715 29.4809C112.952 29.4809 111.372 31.0463 111.372 34.4428L111.375 43.1094Z" fill="#9F00FC"/>
<path d="M142.952 51.8929H138.954L138.581 47.999C138.101 48.7455 137.692 49.3341 137.338 49.7791C136.948 50.2585 136.5 50.6885 136.006 51.0596C134.941 51.9129 133.575 52.2511 131.675 52.2511C127.468 52.2511 125.604 50.1173 125.604 45.1565V37.6525C125.604 32.1043 128.64 29.6857 134.302 29.6857C136.77 29.6857 138.829 30.2898 140.425 31.5169C142.022 32.744 142.946 34.8778 142.946 37.6525L142.952 51.8929ZM130.385 45.2611C130.385 46.9677 130.988 47.7854 132.48 47.7854C133.456 47.7854 134.361 47.3404 135.159 46.4693C135.958 45.5982 136.971 43.9628 138.23 41.5441V37.7615C138.23 36.4999 137.965 35.5921 137.414 35.0236C136.863 34.4551 135.816 34.1703 134.272 34.1703C132.64 34.1703 131.627 34.4551 131.077 35.0948C130.522 35.7523 130.385 36.4999 130.385 37.7649V45.2611Z" fill="#9F00FC"/>
<path d="M159.191 29.719V34.8044C158.377 34.7302 157.791 34.6931 157.434 34.6931C156.529 34.6931 155.748 35.0847 155.056 35.849C154.364 36.6133 153.401 38.1297 152.18 40.3937V51.8984H147.404V30.0394H151.451L151.806 33.9333C152.169 33.3179 152.566 32.7236 152.996 32.1532C153.363 31.6773 153.779 31.2421 154.238 30.8549C155.238 30.0194 156.493 29.6812 158.25 29.6812C158.642 29.6834 158.96 29.7012 159.191 29.719Z" fill="#9F00FC"/>
<path d="M177.669 42.789H165.898V44.638C165.898 45.8618 166.271 46.6828 167.034 47.1278C167.797 47.5728 169.076 47.7853 170.904 47.7853C172.095 47.7731 173.283 47.6663 174.458 47.466C175.752 47.2524 176.764 47.0032 177.493 46.7184V51.1997C175.716 51.8928 173.516 52.2488 170.872 52.2488C167.499 52.2488 165.032 51.6447 163.47 50.4176C161.909 49.1905 161.127 47.1456 161.127 44.2831V37.8805C161.127 35.4451 161.712 33.5416 163.061 32.0308C164.394 30.5367 166.718 29.6833 169.86 29.6833C175.309 29.6833 178.078 32.4747 178.078 37.8805C178.077 40.1033 177.935 41.7398 177.669 42.789ZM165.898 38.7527H173.56V36.7079C173.56 34.8577 172.283 33.9332 169.709 33.9332C167.17 33.9332 165.892 34.8577 165.892 36.7079L165.898 38.7527Z" fill="#9F00FC"/>
<path d="M111.375 74.0511C111.375 75.4207 111.641 76.4164 112.422 77.2875C113.202 78.1586 114.694 78.6392 116.895 78.6392C119.327 78.6392 121.315 78.1586 122.823 77.1929V81.7098C121.989 82.2067 121.093 82.5895 120.158 82.8479C119.235 83.0793 118.081 83.1817 116.678 83.1817C109.809 83.1817 106.351 80.4426 106.351 74.0411V65.3812C106.351 62.3941 107.221 60.0644 108.96 58.3723C110.682 56.7035 113.274 55.8646 116.717 55.8646C118.066 55.8646 119.167 55.9892 120.019 56.2384C120.988 56.5553 121.927 56.9597 122.823 57.4466V61.9457C121.046 60.9322 119.007 60.4171 116.715 60.4171C112.952 60.4171 111.372 61.9813 111.372 65.3779L111.375 74.0511Z" fill="#9F00FC"/>
<path d="M125.574 75.1181V68.6988C125.574 63.4888 128.645 60.6251 134.307 60.6251C140.219 60.6251 142.952 63.2752 142.952 68.6988V75.1181C142.952 80.3636 139.934 83.1917 134.307 83.1917C128.361 83.1917 125.574 80.5416 125.574 75.1181ZM138.194 68.6988C138.194 67.436 138.034 66.6895 137.485 66.0287C136.916 65.389 135.922 65.1042 134.307 65.1042C132.763 65.1042 131.716 65.389 131.166 65.9586C130.61 66.5271 130.349 67.4338 130.349 68.6965V75.1158C130.349 76.3785 130.615 77.2853 131.166 77.8549C131.716 78.4245 132.763 78.726 134.307 78.726C135.922 78.726 136.934 78.4412 137.485 77.7837C138.035 77.1262 138.194 76.3785 138.194 75.1136V68.6988Z" fill="#9F00FC"/>
<path d="M174.795 82.8356H170.019V67.614C170.019 65.9452 169.399 65.1063 168.174 65.1063C167.357 65.1063 166.611 65.5157 165.953 66.3512C165.294 67.1867 164.39 68.8233 163.272 71.2953V82.8356H158.64V67.614C158.64 65.9452 158.018 65.1063 156.793 65.1063C155.959 65.1063 155.214 65.5335 154.572 66.369C153.93 67.2045 153.028 68.8589 151.892 71.3309V82.8356H147.117V60.981H151.165L151.519 64.8749C151.963 64.1273 152.337 63.5399 152.655 63.0949C152.992 62.6159 153.385 62.1798 153.827 61.7965C154.768 60.961 155.957 60.6228 157.59 60.6228C160.626 60.6228 162.418 62.0813 163.004 64.9795L163.04 65.1753C163.536 64.3042 163.963 63.6111 164.299 63.1304C164.646 62.6334 165.045 62.1743 165.488 61.7609C166.412 60.9076 167.459 60.6228 168.968 60.6228C172.926 60.6228 174.79 62.81 174.79 67.7185L174.795 82.8356Z" fill="#9F00FC"/>
<path d="M206.921 82.8356H202.146V67.614C202.146 65.9452 201.525 65.1063 200.3 65.1063C199.484 65.1063 198.737 65.5157 198.079 66.3512C197.42 67.1867 196.516 68.8233 195.399 71.2953V82.8356H190.766V67.614C190.766 65.9452 190.144 65.1063 188.919 65.1063C188.085 65.1063 187.34 65.5335 186.698 66.369C186.041 67.2045 185.153 68.8589 184.017 71.3309V82.8356H179.242V60.981H183.29L183.644 64.8749C184.089 64.1273 184.462 63.5399 184.78 63.0949C185.117 62.6159 185.51 62.1798 185.952 61.7965C186.893 60.961 188.082 60.6228 189.715 60.6228C192.751 60.6228 194.543 62.0813 195.129 64.9795L195.165 65.1753C195.661 64.3042 196.088 63.6111 196.424 63.1304C196.771 62.6334 197.17 62.1743 197.614 61.7609C198.537 60.9076 199.585 60.6228 201.093 60.6228C205.052 60.6228 206.915 62.81 206.915 67.7185L206.921 82.8356Z" fill="#9F00FC"/>
<path d="M227.225 73.7307H215.454V75.5809C215.454 76.8047 215.826 77.6257 216.59 78.0696C217.335 78.5146 218.631 78.7282 220.459 78.7282C221.65 78.7161 222.838 78.609 224.012 78.4078C225.309 78.1942 226.32 77.9454 227.047 77.6613V82.1426C225.271 82.8357 223.072 83.1917 220.426 83.1917C217.054 83.1917 214.586 82.5865 213.025 81.3593C211.463 80.1322 210.682 78.0874 210.682 75.2249V68.8234C210.682 66.3869 211.268 64.4845 212.616 62.9726C213.949 61.4795 216.273 60.6251 219.415 60.6251C224.864 60.6251 227.633 63.4176 227.633 68.8234C227.634 71.0462 227.492 72.6816 227.225 73.7307ZM215.454 69.6945H223.116V67.6508C223.116 65.8017 221.838 64.8772 219.264 64.8772C216.726 64.8772 215.448 65.8017 215.448 67.6508L215.454 69.6945Z" fill="#9F00FC"/>
<path d="M243.626 60.6606V65.7471C242.812 65.673 242.226 65.6359 241.868 65.6359C240.963 65.6359 240.182 66.0264 239.49 66.7918C238.798 67.5572 237.839 69.068 236.614 71.3265V82.8311H231.839V60.981H235.886L236.241 64.8749C236.603 64.2593 237 63.665 237.43 63.0949C237.797 62.619 238.214 62.1837 238.673 61.7965C239.667 60.961 240.926 60.6228 242.684 60.6228C243.075 60.625 243.395 60.6417 243.626 60.6606Z" fill="#9F00FC"/>
<path d="M245.561 68.414C245.561 66.0143 246.306 64.1285 247.815 62.7234C249.305 61.3194 251.488 60.6252 254.367 60.6252C256.115 60.6059 257.853 60.9013 259.498 61.4974V65.982C257.992 65.4196 256.4 65.1248 254.793 65.1109C253.143 65.1109 251.989 65.3423 251.332 65.8051C250.676 66.2846 250.338 67.1735 250.338 68.4896V75.2649C250.338 76.5455 250.711 77.4344 251.456 77.9506C252.184 78.4657 253.409 78.7294 255.131 78.7294C256.586 78.7294 258.148 78.4801 259.816 77.9639V82.3918C257.988 82.9258 256.356 83.1928 254.918 83.1928C248.51 83.1928 245.564 80.5228 245.564 75.4051L245.561 68.414Z" fill="#9F00FC"/>
<path d="M278.591 73.7307H266.819V75.5809C266.819 76.8047 267.193 77.6257 267.956 78.0696C268.702 78.5146 269.997 78.7282 271.826 78.7282C273.017 78.7162 274.205 78.6091 275.379 78.4078C276.676 78.1942 277.688 77.9454 278.416 77.6613V82.1426C276.639 82.8357 274.439 83.1917 271.795 83.1917C268.422 83.1917 265.954 82.5865 264.393 81.3593C262.832 80.1322 262.05 78.0874 262.05 75.2249V68.8234C262.05 66.3869 262.635 64.4845 263.984 62.9726C265.317 61.4795 267.641 60.6251 270.783 60.6251C276.232 60.6251 279.001 63.4176 279.001 68.8234C279.001 71.0462 278.857 72.6816 278.591 73.7307ZM266.819 69.6945H274.482V67.6508C274.482 65.8017 273.204 64.8772 270.631 64.8772C268.092 64.8772 266.814 65.8017 266.814 67.6508L266.819 69.6945Z" fill="#9F00FC"/>
<path d="M66.7598 21.444C66.7653 21.3495 66.7742 21.256 66.7764 21.1614C66.7784 20.4727 66.8698 19.7872 67.0485 19.1222C67.1614 18.6719 67.3803 18.2553 67.687 17.9073C68.0957 17.4623 68.601 17.3377 69.1807 17.4345C69.7604 17.5312 70.2912 17.796 70.7876 18.102C71.3126 18.4232 71.8064 18.793 72.2624 19.2067C72.8621 19.7519 73.3129 20.416 73.7893 21.0624C73.9564 21.2839 74.0401 21.5573 74.0259 21.8345C74.0092 22.6444 74.0259 23.4555 74.0259 24.2665V24.3778C73.9082 24.2042 73.8038 24.044 73.6927 23.8927C73.1742 23.136 72.553 22.4553 71.8471 21.8701C71.5483 21.6276 71.2263 21.4106 70.9053 21.2026C70.6515 21.0287 70.3598 20.9181 70.0547 20.88C69.9143 20.8578 69.7704 20.8776 69.6412 20.937C69.512 20.9964 69.4032 21.0926 69.3284 21.2137C69.1689 21.4601 69.0728 21.7421 69.0485 22.0348C69.0051 22.3922 68.981 22.7517 68.9764 23.1117C68.9697 25.0401 68.9697 26.9718 68.9764 28.9069C68.9699 29.5952 69.0776 30.2798 69.2951 30.9328C69.5685 31.7203 70.037 32.4254 70.6566 32.9821C71.1108 33.4029 71.6142 33.7671 72.1558 34.0668C72.5553 34.3089 73.0009 34.465 73.464 34.5251C73.627 34.5305 73.7902 34.5253 73.9526 34.5096C73.9749 34.5082 73.9972 34.5056 74.0192 34.5018V37.5056C73.8527 37.5134 73.6861 37.5312 73.5184 37.5279C72.982 37.5156 72.51 37.3054 72.0603 37.035C71.4929 36.6912 70.9533 36.3032 70.4467 35.8746C69.8082 35.3437 69.2369 34.7365 68.7454 34.0668C67.9714 33.0017 67.4206 31.7907 67.1262 30.5067C66.9664 29.832 66.8642 29.145 66.8208 28.453C66.8009 28.1292 66.792 27.8044 66.7775 27.4806C66.7775 27.4483 66.7686 27.4161 66.7653 27.3838L66.7598 21.444Z" fill="#E094FF"/>
<path d="M77.8417 30.243L77.7562 30.1896C77.031 29.6745 76.3003 29.1672 75.5829 28.6421C75.1564 28.3317 74.8055 27.9534 74.6467 27.4283C74.5172 26.9871 74.4909 26.5218 74.5701 26.0688C74.6378 25.6694 74.8899 25.3946 75.1909 25.1521C75.6417 24.7872 76.086 24.4145 76.539 24.0518C76.8022 23.8404 76.8611 23.5634 76.8433 23.2463C76.8303 23.0151 76.7649 22.7899 76.6521 22.5877C76.5394 22.3855 76.3822 22.2116 76.1926 22.0793C75.839 21.7974 75.436 21.5842 75.0043 21.4507C74.9388 21.4306 74.8699 21.4229 74.8055 21.4017C74.7822 21.3939 74.7489 21.3639 74.7489 21.3439C74.7489 20.8677 74.7489 20.3915 74.7489 19.8976C74.8488 19.9298 74.9399 19.9521 75.0243 19.9877C76.0715 20.4327 76.9211 21.1125 77.4563 22.1382C77.6469 22.5214 77.7666 22.936 77.8095 23.362C77.8524 23.729 77.8598 24.0994 77.8317 24.4679C77.8149 24.6873 77.7506 24.9004 77.6434 25.0925C77.5363 25.2846 77.3887 25.4511 77.2109 25.5804C76.8111 25.8941 76.4013 26.1956 75.996 26.5038C75.8583 26.6084 75.7206 26.7118 75.5862 26.8209C75.56 26.8417 75.5384 26.8677 75.5226 26.8973C75.5069 26.9269 75.4975 26.9594 75.4949 26.9928C75.4922 27.0262 75.4965 27.0598 75.5075 27.0915C75.5184 27.1231 75.5358 27.1522 75.5585 27.1769C75.6236 27.2461 75.6958 27.3084 75.7739 27.3627C76.4358 27.8336 77.0987 28.3027 77.7628 28.77C77.7916 28.7871 77.8151 28.8119 77.8308 28.8415C77.8465 28.8711 77.8537 28.9045 77.8517 28.938C77.8517 29.3374 77.8517 29.7368 77.8517 30.1362C77.8472 30.1674 77.8439 30.1985 77.8417 30.243Z" fill="#E094FF"/>
<path opacity="0.57" d="M0 25.8163L58.1068 54.5919V115L0 87.2958V25.8163Z" fill="#8F39FF"/>
<path d="M37.2283 86.0153C37.4671 85.152 35.9679 68.5119 35.9679 68.5119L16.405 68.6521L13.7842 54.6665L20.5994 39.7686L47.1086 30.5713L66.0985 40.0445L78.9861 56.1762L78.162 71.8028L67.4478 75.8513L54.7756 73.7375L37.2283 86.0153Z" fill="#E094FF"/>
<path d="M36.7553 86.6851L36.9608 85.9419C37.1173 85.2744 36.31 75.4196 35.7148 68.7911L16.1696 68.9369L13.4944 54.6342L20.3963 39.5483L20.5073 39.5093L47.1253 30.2698L47.2297 30.3221L66.274 39.8231L66.3118 39.8709L79.266 56.0849V56.1962L78.432 72.0052L67.48 76.1394L54.8457 74.0356L36.7553 86.6851ZM36.2223 68.2315L36.2445 68.4863C36.3844 70.0316 37.4949 82.4452 37.526 85.468L54.7091 73.4526L67.4201 75.5664L77.8934 71.6125L78.7018 56.2729L65.9197 40.2725L47.0898 30.8772L20.8027 40L14.073 54.7087L16.636 68.3806L36.2223 68.2315Z" fill="white"/>
<path d="M35.0662 69.8558L40.9675 48.8123L27.0338 56.7335L17.2613 67.6441L16.8481 67.2725L26.6851 56.2941L26.724 56.2718L41.1852 48.0513L45.6805 32.0309L46.2147 32.1811L41.8459 47.7565L64.8192 40.3482L56.6125 58.6293L35.0662 69.8558ZM41.6538 48.4218L35.9479 68.7689L56.1816 58.2198L63.7964 41.2549L41.7582 48.3628L41.6538 48.4218Z" fill="white"/>
<path d="M65.3944 73.5082L56.5702 59.6238C56.0938 64.2742 55.4674 71.0495 55.6018 71.5991L55.0788 71.786C54.8356 71.1419 55.7984 61.662 56.0993 58.7694L56.1826 57.9762L65.863 73.2067L65.3944 73.5082Z" fill="white"/>
<path d="M74.7695 69.7523L56.2949 58.4079L75.8845 55.8168L75.9566 56.3686L57.9218 58.7539L75.0605 69.2784L74.7695 69.7523Z" fill="white"/>
<path d="M53.7474 57.7347L41.5072 48.3517L21.74 40.436L21.9454 39.9198L41.7837 47.8633L41.8148 47.8866L54.0849 57.2931L53.7474 57.7347Z" fill="white"/>
<path d="M34.9996 67.3726L28.1477 56.7402L28.1399 56.7235L20.9404 41.4329L21.4424 41.1959L28.6352 56.4698L35.466 67.07L34.9996 67.3726Z" fill="white"/>
<path d="M15.4068 54.4637L15.3323 55.0149L25.0715 56.3358L25.146 55.7846L15.4068 54.4637Z" fill="white"/>
<path d="M38.5707 69.1607L38.4404 69.7014L50.3799 72.5885L50.5102 72.0477L38.5707 69.1607Z" fill="white"/>
<path d="M41.7271 52.8486C44.2393 52.8486 46.2758 50.8084 46.2758 48.2917C46.2758 45.7749 44.2393 43.7347 41.7271 43.7347C39.215 43.7347 37.1785 45.7749 37.1785 48.2917C37.1785 50.8084 39.215 52.8486 41.7271 52.8486Z" fill="white"/>
<path d="M56.577 63.9016C59.0892 63.9016 61.1257 61.8614 61.1257 59.3446C61.1257 56.8279 59.0892 54.7877 56.577 54.7877C54.0648 54.7877 52.0283 56.8279 52.0283 59.3446C52.0283 61.8614 54.0648 63.9016 56.577 63.9016Z" fill="white"/>
<path d="M27.3036 60.6818C29.8157 60.6818 31.8523 58.6416 31.8523 56.1249C31.8523 53.6082 29.8157 51.568 27.3036 51.568C24.7914 51.568 22.7549 53.6082 22.7549 56.1249C22.7549 58.6416 24.7914 60.6818 27.3036 60.6818Z" fill="white"/>
<path d="M47.1085 35.1326C49.6207 35.1326 51.6572 33.0924 51.6572 30.5757C51.6572 28.059 49.6207 26.0188 47.1085 26.0188C44.5963 26.0188 42.5598 28.059 42.5598 30.5757C42.5598 33.0924 44.5963 35.1326 47.1085 35.1326Z" fill="white"/>
<path d="M64.1783 44.2788C66.6905 44.2788 68.727 42.2386 68.727 39.7218C68.727 37.2051 66.6905 35.1649 64.1783 35.1649C61.6661 35.1649 59.6296 37.2051 59.6296 39.7218C59.6296 42.2386 61.6661 44.2788 64.1783 44.2788Z" fill="white"/>
<path d="M78.7274 60.4149C81.2396 60.4149 83.2761 58.3747 83.2761 55.8579C83.2761 53.3412 81.2396 51.301 78.7274 51.301C76.2152 51.301 74.1787 53.3412 74.1787 55.8579C74.1787 58.3747 76.2152 60.4149 78.7274 60.4149Z" fill="white"/>
<path d="M78.182 75.7689C80.6942 75.7689 82.7307 73.7287 82.7307 71.212C82.7307 68.6952 80.6942 66.655 78.182 66.655C75.6698 66.655 73.6333 68.6952 73.6333 71.212C73.6333 73.7287 75.6698 75.7689 78.182 75.7689Z" fill="white"/>
<path d="M66.8158 79.9242C69.3279 79.9242 71.3645 77.8839 71.3645 75.3672C71.3645 72.8505 69.3279 70.8103 66.8158 70.8103C64.3036 70.8103 62.2671 72.8505 62.2671 75.3672C62.2671 77.8839 64.3036 79.9242 66.8158 79.9242Z" fill="white"/>
<path d="M20.4374 44.6848C22.9495 44.6848 24.986 42.6446 24.986 40.1278C24.986 37.6111 22.9495 35.5709 20.4374 35.5709C17.9252 35.5709 15.8887 37.6111 15.8887 40.1278C15.8887 42.6446 17.9252 44.6848 20.4374 44.6848Z" fill="white"/>
<path d="M35.9679 73.0688C38.48 73.0688 40.5166 71.0286 40.5166 68.5119C40.5166 65.9952 38.48 63.955 35.9679 63.955C33.4557 63.955 31.4192 65.9952 31.4192 68.5119C31.4192 71.0286 33.4557 73.0688 35.9679 73.0688Z" fill="white"/>
<path d="M53.3697 77.4788C55.8819 77.4788 57.9184 75.4386 57.9184 72.9219C57.9184 70.4052 55.8819 68.365 53.3697 68.365C50.8576 68.365 48.821 70.4052 48.821 72.9219C48.821 75.4386 50.8576 77.4788 53.3697 77.4788Z" fill="white"/>
<path d="M38.6476 89.937C41.1597 89.937 43.1962 87.8968 43.1962 85.38C43.1962 82.8633 41.1597 80.8231 38.6476 80.8231C36.1354 80.8231 34.0989 82.8633 34.0989 85.38C34.0989 87.8968 36.1354 89.937 38.6476 89.937Z" fill="white"/>
<path d="M16.9635 73.5883C19.4756 73.5883 21.5122 71.5481 21.5122 69.0314C21.5122 66.5147 19.4756 64.4745 16.9635 64.4745C14.4513 64.4745 12.4148 66.5147 12.4148 69.0314C12.4148 71.5481 14.4513 73.5883 16.9635 73.5883Z" fill="white"/>
<path d="M13.7831 59.2279C16.2952 59.2279 18.3317 57.1877 18.3317 54.6709C18.3317 52.1542 16.2952 50.114 13.7831 50.114C11.2709 50.114 9.23438 52.1542 9.23438 54.6709C9.23438 57.1877 11.2709 59.2279 13.7831 59.2279Z" fill="white"/>
</svg>
