<svg width="334" height="70" viewBox="0 0 334 70" fill="none" xmlns="http://www.w3.org/2000/svg">
<path d="M14.1378 60.666L29.9998 69.9992L59.9996 52.7154V16.9381L30.8618 0L0 18.1479V52.0241L7.93098 57.3821V26.7898L26.3791 37.3329V58.9376L14.1378 52.0241V60.666Z" fill="#0631A1"/>
<path d="M52.5853 26.7898L34.3096 37.3329V59.1104L52.5853 48.3945V26.7898Z" fill="#F5F5F5"/>
<path d="M30.3446 8.8147L11.8965 19.3578L30.3446 30.4194L48.9652 19.3578L30.3446 8.8147Z" fill="#EF069A"/>
<path d="M14.1377 44.592V37.16L19.9997 40.7896V48.3945L14.1377 44.592Z" fill="#01B187"/>
<path d="M14.3119 60.666V52.0241L7.93262 48.5674V57.3821L14.3119 60.666Z" fill="white"/>
<path d="M81.049 32.4995C81.049 30.4395 81.509 28.5995 82.429 26.9795C83.369 25.3395 84.639 24.0695 86.239 23.1695C87.859 22.2495 89.669 21.7895 91.669 21.7895C94.009 21.7895 96.059 22.3895 97.819 23.5895C99.579 24.7895 100.809 26.4495 101.509 28.5695H96.679C96.199 27.5695 95.519 26.8195 94.639 26.3195C93.779 25.8195 92.779 25.5695 91.639 25.5695C90.419 25.5695 89.329 25.8595 88.369 26.4395C87.429 26.9995 86.689 27.7995 86.149 28.8395C85.629 29.8795 85.369 31.0995 85.369 32.4995C85.369 33.8795 85.629 35.0995 86.149 36.1595C86.689 37.1995 87.429 38.0095 88.369 38.5895C89.329 39.1495 90.419 39.4295 91.639 39.4295C92.779 39.4295 93.779 39.1795 94.639 38.6795C95.519 38.1595 96.199 37.3995 96.679 36.3995H101.509C100.809 38.5395 99.579 40.2095 97.819 41.4095C96.079 42.5895 94.029 43.1795 91.669 43.1795C89.669 43.1795 87.859 42.7295 86.239 41.8295C84.639 40.9095 83.369 39.6395 82.429 38.0195C81.509 36.3995 81.049 34.5595 81.049 32.4995ZM104.016 34.6295C104.016 32.9495 104.346 31.4595 105.006 30.1595C105.686 28.8595 106.596 27.8595 107.736 27.1595C108.896 26.4595 110.186 26.1095 111.606 26.1095C112.846 26.1095 113.926 26.3595 114.846 26.8595C115.786 27.3595 116.536 27.9895 117.096 28.7495V26.3795H121.326V42.9995H117.096V40.5695C116.556 41.3495 115.806 41.9995 114.846 42.5195C113.906 43.0195 112.816 43.2695 111.576 43.2695C110.176 43.2695 108.896 42.9095 107.736 42.1895C106.596 41.4695 105.686 40.4595 105.006 39.1595C104.346 37.8395 104.016 36.3295 104.016 34.6295ZM117.096 34.6895C117.096 33.6695 116.896 32.7995 116.496 32.0795C116.096 31.3395 115.556 30.7795 114.876 30.3995C114.196 29.9995 113.466 29.7995 112.686 29.7995C111.906 29.7995 111.186 29.9895 110.526 30.3695C109.866 30.7495 109.326 31.3095 108.906 32.0495C108.506 32.7695 108.306 33.6295 108.306 34.6295C108.306 35.6295 108.506 36.5095 108.906 37.2695C109.326 38.0095 109.866 38.5795 110.526 38.9795C111.206 39.3795 111.926 39.5795 112.686 39.5795C113.466 39.5795 114.196 39.3895 114.876 39.0095C115.556 38.6095 116.096 38.0495 116.496 37.3295C116.896 36.5895 117.096 35.7095 117.096 34.6895ZM129.628 28.9595C130.168 28.0795 130.868 27.3895 131.728 26.8895C132.608 26.3895 133.608 26.1395 134.728 26.1395V30.5495H133.618C132.298 30.5495 131.298 30.8595 130.618 31.4795C129.958 32.0995 129.628 33.1795 129.628 34.7195V42.9995H125.428V26.3795H129.628V28.9595ZM153.007 34.3295C153.007 34.9295 152.967 35.4695 152.887 35.9495H140.737C140.837 37.1495 141.257 38.0895 141.997 38.7695C142.737 39.4495 143.647 39.7895 144.727 39.7895C146.287 39.7895 147.397 39.1195 148.057 37.7795H152.587C152.107 39.3795 151.187 40.6995 149.827 41.7395C148.467 42.7595 146.797 43.2695 144.817 43.2695C143.217 43.2695 141.777 42.9195 140.497 42.2195C139.237 41.4995 138.247 40.4895 137.527 39.1895C136.827 37.8895 136.477 36.3895 136.477 34.6895C136.477 32.9695 136.827 31.4595 137.527 30.1595C138.227 28.8595 139.207 27.8595 140.467 27.1595C141.727 26.4595 143.177 26.1095 144.817 26.1095C146.397 26.1095 147.807 26.4495 149.047 27.1295C150.307 27.8095 151.277 28.7795 151.957 30.0395C152.657 31.2795 153.007 32.7095 153.007 34.3295ZM148.657 33.1295C148.637 32.0495 148.247 31.1895 147.487 30.5495C146.727 29.8895 145.797 29.5595 144.697 29.5595C143.657 29.5595 142.777 29.8795 142.057 30.5195C141.357 31.1395 140.927 32.0095 140.767 33.1295H148.657ZM162.201 32.4995C162.201 30.4395 162.661 28.5995 163.581 26.9795C164.521 25.3395 165.791 24.0695 167.391 23.1695C169.011 22.2495 170.821 21.7895 172.821 21.7895C175.161 21.7895 177.211 22.3895 178.971 23.5895C180.731 24.7895 181.961 26.4495 182.661 28.5695H177.831C177.351 27.5695 176.671 26.8195 175.791 26.3195C174.931 25.8195 173.931 25.5695 172.791 25.5695C171.571 25.5695 170.481 25.8595 169.521 26.4395C168.581 26.9995 167.841 27.7995 167.301 28.8395C166.781 29.8795 166.521 31.0995 166.521 32.4995C166.521 33.8795 166.781 35.0995 167.301 36.1595C167.841 37.1995 168.581 38.0095 169.521 38.5895C170.481 39.1495 171.571 39.4295 172.791 39.4295C173.931 39.4295 174.931 39.1795 175.791 38.6795C176.671 38.1595 177.351 37.3995 177.831 36.3995H182.661C181.961 38.5395 180.731 40.2095 178.971 41.4095C177.231 42.5895 175.181 43.1795 172.821 43.1795C170.821 43.1795 169.011 42.7295 167.391 41.8295C165.791 40.9095 164.521 39.6395 163.581 38.0195C162.661 36.3995 162.201 34.5595 162.201 32.4995ZM193.629 43.2695C192.029 43.2695 190.589 42.9195 189.309 42.2195C188.029 41.4995 187.019 40.4895 186.279 39.1895C185.559 37.8895 185.199 36.3895 185.199 34.6895C185.199 32.9895 185.569 31.4895 186.309 30.1895C187.069 28.8895 188.099 27.8895 189.399 27.1895C190.699 26.4695 192.149 26.1095 193.749 26.1095C195.349 26.1095 196.799 26.4695 198.099 27.1895C199.399 27.8895 200.419 28.8895 201.159 30.1895C201.919 31.4895 202.299 32.9895 202.299 34.6895C202.299 36.3895 201.909 37.8895 201.129 39.1895C200.369 40.4895 199.329 41.4995 198.009 42.2195C196.709 42.9195 195.249 43.2695 193.629 43.2695ZM193.629 39.6095C194.389 39.6095 195.099 39.4295 195.759 39.0695C196.439 38.6895 196.979 38.1295 197.379 37.3895C197.779 36.6495 197.979 35.7495 197.979 34.6895C197.979 33.1095 197.559 31.8995 196.719 31.0595C195.899 30.1995 194.889 29.7695 193.689 29.7695C192.489 29.7695 191.479 30.1995 190.659 31.0595C189.859 31.8995 189.459 33.1095 189.459 34.6895C189.459 36.2695 189.849 37.4895 190.629 38.3495C191.429 39.1895 192.429 39.6095 193.629 39.6095ZM226.02 26.1395C228.06 26.1395 229.7 26.7695 230.94 28.0295C232.2 29.2695 232.83 31.0095 232.83 33.2495V42.9995H228.63V33.8195C228.63 32.5195 228.3 31.5295 227.64 30.8495C226.98 30.1495 226.08 29.7995 224.94 29.7995C223.8 29.7995 222.89 30.1495 222.21 30.8495C221.55 31.5295 221.22 32.5195 221.22 33.8195V42.9995H217.02V33.8195C217.02 32.5195 216.69 31.5295 216.03 30.8495C215.37 30.1495 214.47 29.7995 213.33 29.7995C212.17 29.7995 211.25 30.1495 210.57 30.8495C209.91 31.5295 209.58 32.5195 209.58 33.8195V42.9995H205.38V26.3795H209.58V28.3895C210.12 27.6895 210.81 27.1395 211.65 26.7395C212.51 26.3395 213.45 26.1395 214.47 26.1395C215.77 26.1395 216.93 26.4195 217.95 26.9795C218.97 27.5195 219.76 28.2995 220.32 29.3195C220.86 28.3595 221.64 27.5895 222.66 27.0095C223.7 26.4295 224.82 26.1395 226.02 26.1395ZM257.455 26.1395C259.495 26.1395 261.135 26.7695 262.375 28.0295C263.635 29.2695 264.265 31.0095 264.265 33.2495V42.9995H260.065V33.8195C260.065 32.5195 259.735 31.5295 259.075 30.8495C258.415 30.1495 257.515 29.7995 256.375 29.7995C255.235 29.7995 254.325 30.1495 253.645 30.8495C252.985 31.5295 252.655 32.5195 252.655 33.8195V42.9995H248.455V33.8195C248.455 32.5195 248.125 31.5295 247.465 30.8495C246.805 30.1495 245.905 29.7995 244.765 29.7995C243.605 29.7995 242.685 30.1495 242.005 30.8495C241.345 31.5295 241.015 32.5195 241.015 33.8195V42.9995H236.815V26.3795H241.015V28.3895C241.555 27.6895 242.245 27.1395 243.085 26.7395C243.945 26.3395 244.885 26.1395 245.905 26.1395C247.205 26.1395 248.365 26.4195 249.385 26.9795C250.405 27.5195 251.195 28.2995 251.755 29.3195C252.295 28.3595 253.075 27.5895 254.095 27.0095C255.135 26.4295 256.255 26.1395 257.455 26.1395ZM283.701 34.3295C283.701 34.9295 283.661 35.4695 283.581 35.9495H271.431C271.531 37.1495 271.951 38.0895 272.691 38.7695C273.431 39.4495 274.341 39.7895 275.421 39.7895C276.981 39.7895 278.091 39.1195 278.751 37.7795H283.281C282.801 39.3795 281.881 40.6995 280.521 41.7395C279.161 42.7595 277.491 43.2695 275.511 43.2695C273.911 43.2695 272.471 42.9195 271.191 42.2195C269.931 41.4995 268.941 40.4895 268.221 39.1895C267.521 37.8895 267.171 36.3895 267.171 34.6895C267.171 32.9695 267.521 31.4595 268.221 30.1595C268.921 28.8595 269.901 27.8595 271.161 27.1595C272.421 26.4595 273.871 26.1095 275.511 26.1095C277.091 26.1095 278.501 26.4495 279.741 27.1295C281.001 27.8095 281.971 28.7795 282.651 30.0395C283.351 31.2795 283.701 32.7095 283.701 34.3295ZM279.351 33.1295C279.331 32.0495 278.941 31.1895 278.181 30.5495C277.421 29.8895 276.491 29.5595 275.391 29.5595C274.351 29.5595 273.471 29.8795 272.751 30.5195C272.051 31.1395 271.621 32.0095 271.461 33.1295H279.351ZM290.966 28.9595C291.506 28.0795 292.206 27.3895 293.066 26.8895C293.946 26.3895 294.946 26.1395 296.066 26.1395V30.5495H294.956C293.636 30.5495 292.636 30.8595 291.956 31.4795C291.296 32.0995 290.966 33.1795 290.966 34.7195V42.9995H286.766V26.3795H290.966V28.9595ZM297.815 34.6895C297.815 32.9695 298.165 31.4695 298.865 30.1895C299.565 28.8895 300.535 27.8895 301.775 27.1895C303.015 26.4695 304.435 26.1095 306.035 26.1095C308.095 26.1095 309.795 26.6295 311.135 27.6695C312.495 28.6895 313.405 30.1295 313.865 31.9895H309.335C309.095 31.2695 308.685 30.7095 308.105 30.3095C307.545 29.8895 306.845 29.6795 306.005 29.6795C304.805 29.6795 303.855 30.1195 303.155 30.9995C302.455 31.8595 302.105 33.0895 302.105 34.6895C302.105 36.2695 302.455 37.4995 303.155 38.3795C303.855 39.2395 304.805 39.6695 306.005 39.6695C307.705 39.6695 308.815 38.9095 309.335 37.3895H313.865C313.405 39.1895 312.495 40.6195 311.135 41.6795C309.775 42.7395 308.075 43.2695 306.035 43.2695C304.435 43.2695 303.015 42.9195 301.775 42.2195C300.535 41.4995 299.565 40.4995 298.865 39.2195C298.165 37.9195 297.815 36.4095 297.815 34.6895ZM332.392 34.3295C332.392 34.9295 332.352 35.4695 332.272 35.9495H320.122C320.222 37.1495 320.642 38.0895 321.382 38.7695C322.122 39.4495 323.032 39.7895 324.112 39.7895C325.672 39.7895 326.782 39.1195 327.442 37.7795H331.972C331.492 39.3795 330.572 40.6995 329.212 41.7395C327.852 42.7595 326.182 43.2695 324.202 43.2695C322.602 43.2695 321.162 42.9195 319.882 42.2195C318.622 41.4995 317.632 40.4895 316.912 39.1895C316.212 37.8895 315.862 36.3895 315.862 34.6895C315.862 32.9695 316.212 31.4595 316.912 30.1595C317.612 28.8595 318.592 27.8595 319.852 27.1595C321.112 26.4595 322.562 26.1095 324.202 26.1095C325.782 26.1095 327.192 26.4495 328.432 27.1295C329.692 27.8095 330.662 28.7795 331.342 30.0395C332.042 31.2795 332.392 32.7095 332.392 34.3295ZM328.042 33.1295C328.022 32.0495 327.632 31.1895 326.872 30.5495C326.112 29.8895 325.182 29.5595 324.082 29.5595C323.042 29.5595 322.162 29.8795 321.442 30.5195C320.742 31.1395 320.312 32.0095 320.152 33.1295H328.042Z" fill="black"/>
</svg>
