<svg width="100" height="100" viewBox="0 0 100 100" fill="none" xmlns="http://www.w3.org/2000/svg">
<path d="M100 50C100 77.6142 77.6142 100 50 100C22.3858 100 0 77.6142 0 50C0 22.3858 22.3858 0 50 0C77.6142 0 100 22.3858 100 50Z" fill="#8F39FF"/>
<path d="M62.4462 59.3531H43.2232L39.275 62.7234L35.331 59.3531H27.0116V61.6648C26.9228 62.9783 27.3477 64.275 28.1967 65.2812C29.0458 66.2873 30.2525 66.9243 31.5623 67.0577C31.7648 68.4491 32.3354 69.7611 33.2152 70.8579C33.8437 71.6123 34.6334 72.2161 35.5262 72.6247C36.4191 73.0333 37.3922 73.2363 38.3739 73.2189H51.0797C52.0617 73.2365 53.0352 73.0332 53.9281 72.6241C54.821 72.215 55.6106 71.6105 56.2384 70.8552C57.1174 69.7579 57.688 68.4461 57.8914 67.055C58.5523 67.0303 59.1989 66.8561 59.7827 66.5454C60.3665 66.2346 60.8721 65.7955 61.2616 65.261C62.0409 64.225 62.4573 62.9611 62.4462 61.6648V59.3531Z" fill="white"/>
<path d="M35.5821 56.2718L39.2796 58.986L43.0005 56.2718H62.4467V55.5008C62.4456 54.6132 62.1386 53.7532 61.5773 53.0657C61.016 52.3782 60.2348 51.9052 59.3654 51.7266C59.363 50.386 59.0531 49.0638 58.4596 47.8618C57.8661 46.6598 57.0047 45.6099 55.9418 44.793C53.6974 43.1546 50.9693 42.3144 48.192 42.4061H41.2626C34.6892 42.4061 30.244 46.1392 30.0934 51.7266C29.2237 51.9053 28.4424 52.3784 27.8811 53.0662C27.3197 53.754 27.0128 54.6144 27.0121 55.5022V56.2718H35.5821Z" fill="white"/>
<path d="M70.0608 34.7029H62.878L63.7366 31.2697L68.0312 29.7921L67.0726 26.9998L61.0991 28.9252L59.7077 34.7029H45.4996V37.7842H47.3046L47.484 39.3248H48.1961C51.6586 39.2301 55.053 40.2986 57.837 42.3595C59.254 43.4516 60.4025 44.8531 61.1949 46.457C61.6837 47.4538 62.0312 48.5139 62.2275 49.6067C63.6605 50.4903 64.7231 51.865 65.217 53.4745C65.7109 55.0839 65.6024 56.8181 64.9116 58.3534C65.3176 59.4102 65.5261 60.5326 65.5265 61.6647C65.5447 63.771 64.8171 65.8158 63.4723 67.437C62.6501 68.4168 61.5968 69.1764 60.4075 69.6473C60.0034 70.8018 59.4009 71.877 58.6272 72.8244C58.5135 72.9614 58.3971 73.0983 58.278 73.2243H65.5361C65.844 73.2573 66.1553 73.2242 66.4494 73.1273C66.7434 73.0304 67.0134 72.8718 67.2413 72.6622C67.4692 72.4526 67.6497 72.1968 67.7708 71.9119C67.8919 71.6269 67.9508 71.3194 67.9436 71.0099L71.4398 37.7842H73.2311V34.7029H70.0608Z" fill="white"/>
</svg>
