<svg width="100" height="100" viewBox="0 0 100 100" fill="none" xmlns="http://www.w3.org/2000/svg">
<circle cx="50" cy="49.9998" r="50" fill="#8F39FF"/>
<path d="M40.6781 58.3454C39.4887 58.3445 38.3256 58.6962 37.3361 59.3563C36.3466 60.0163 35.575 60.9549 35.1189 62.0535C34.6629 63.152 34.5428 64.3612 34.7739 65.5279C35.005 66.6947 35.5769 67.7668 36.4173 68.6085C37.2577 69.4503 38.3289 70.0239 39.4953 70.2569C40.6617 70.4899 41.871 70.3718 42.9703 69.9175C44.0696 69.4632 45.0095 68.6931 45.6711 67.7046C46.3327 66.7161 46.6863 65.5537 46.6873 64.3642C46.6882 63.5744 46.5335 62.7921 46.232 62.0621C45.9304 61.332 45.488 60.6686 44.9299 60.1096C44.3718 59.5507 43.7091 59.1072 42.9796 58.8044C42.25 58.5017 41.468 58.3457 40.6781 58.3454V58.3454ZM40.6781 67.3689C40.0838 67.369 39.5029 67.1929 39.0087 66.8628C38.5145 66.5327 38.1293 66.0635 37.9018 65.5145C37.6743 64.9654 37.6147 64.3613 37.7306 63.7784C37.8465 63.1955 38.1326 62.6601 38.5527 62.2398C38.9729 61.8196 39.5083 61.5333 40.0911 61.4173C40.674 61.3013 41.2782 61.3608 41.8272 61.5881C42.3763 61.8155 42.8456 62.2006 43.1758 62.6947C43.506 63.1888 43.6823 63.7697 43.6824 64.364C43.6815 65.1606 43.3647 65.9243 42.8015 66.4876C42.2383 67.0509 41.4747 67.3678 40.6781 67.3688V67.3689ZM86 53.8996V60.316C86 60.6966 85.925 61.0735 85.7794 61.4251C85.6337 61.7768 85.4202 62.0963 85.1511 62.3654C84.8819 62.6345 84.5624 62.848 84.2108 62.9936C83.8591 63.1393 83.4823 63.2142 83.1016 63.2142H80C79.7232 61.3249 78.7759 59.5982 77.3311 58.3497C75.8863 57.1012 74.0406 56.4141 72.1311 56.4141C70.2216 56.4141 68.3758 57.1012 66.931 58.3497C65.4862 59.5982 64.5389 61.3249 64.2621 63.2142H48.5441C48.2689 61.325 47.3227 59.5979 45.8787 58.349C44.4347 57.1001 42.5893 56.4127 40.6801 56.4127C38.7709 56.4127 36.9255 57.1001 35.4814 58.349C34.0374 59.5979 33.0912 61.325 32.816 63.2142H28.9322C28.5516 63.2142 28.1747 63.1393 27.8231 62.9936C27.4715 62.848 27.152 62.6345 26.8828 62.3654C26.6137 62.0963 26.4002 61.7768 26.2546 61.4251C26.1089 61.0735 26.034 60.6966 26.034 60.316V53.8996H86ZM72.1345 58.3454C70.945 58.3444 69.782 58.6962 68.7924 59.3562C67.8029 60.0162 67.0313 60.9549 66.5752 62.0534C66.1191 63.152 65.999 64.3611 66.2301 65.5279C66.4612 66.6947 67.0331 67.7667 67.8735 68.6085C68.7139 69.4502 69.7851 70.0239 70.9515 70.2569C72.1179 70.4899 73.3272 70.3718 74.4265 69.9175C75.5258 69.4632 76.4657 68.6931 77.1273 67.7046C77.7889 66.7162 78.1426 65.5537 78.1435 64.3642C78.1433 62.7697 77.5105 61.2404 76.3839 60.112C75.2573 58.9835 73.729 58.3482 72.1345 58.3454V58.3454ZM72.1345 67.3689C71.5402 67.369 70.9593 67.1928 70.4651 66.8626C69.971 66.5325 69.5859 66.0632 69.3584 65.5142C69.131 64.9652 69.0714 64.361 69.1874 63.7782C69.3033 63.1953 69.5894 62.6599 70.0096 62.2397C70.4298 61.8194 70.9652 61.5332 71.548 61.4173C72.1309 61.3013 72.7351 61.3608 73.2841 61.5882C73.8331 61.8156 74.3024 62.2007 74.6326 62.6948C74.9628 63.1889 75.139 63.7698 75.1391 64.3641C75.1382 65.1607 74.8214 65.9245 74.2581 66.4878C73.6948 67.0511 72.9311 67.3679 72.1345 67.3688V67.3689ZM84.858 47.4381L73.4678 36.1733C72.7451 35.4576 71.77 35.055 70.7529 35.0525H65.0047V32.898C65.0052 32.5172 64.9307 32.1401 64.7852 31.7882C64.6397 31.4364 64.4263 31.1167 64.157 30.8474C63.8878 30.5782 63.5681 30.3647 63.2162 30.2193C62.8643 30.0738 62.4872 29.9992 62.1065 29.9998H28.93C28.1615 30.0004 27.4247 30.3059 26.8813 30.8493C26.3379 31.3927 26.0324 32.1295 26.0318 32.898V33.3521L14.2706 34.7076L35.1113 37.4219L14 39.5187L35.0369 42.5096L14 44.3336L26.0327 46.6031L26.0319 52.2972H85.998V50.1816C85.9968 49.1521 85.5868 48.1652 84.858 47.438V47.4381ZM79.8922 47.8146H68.8687C68.8091 47.8147 68.75 47.803 68.6949 47.7802C68.6397 47.7574 68.5896 47.724 68.5475 47.6818C68.5053 47.6396 68.4718 47.5895 68.449 47.5344C68.4262 47.4793 68.4145 47.4202 68.4146 47.3606V38.8493C68.4145 38.7896 68.4262 38.7306 68.449 38.6754C68.4718 38.6203 68.5053 38.5702 68.5475 38.528C68.5896 38.4859 68.6397 38.4524 68.6948 38.4296C68.75 38.4068 68.8091 38.3951 68.8687 38.3952H70.9652C71.0831 38.3973 71.1963 38.4419 71.284 38.5208L80.2016 47.0322C80.2674 47.0945 80.313 47.1749 80.3326 47.2633C80.3522 47.3517 80.3448 47.4439 80.3116 47.5281C80.2783 47.6123 80.2205 47.6846 80.1458 47.7356C80.0711 47.7867 79.9828 47.8143 79.8922 47.8147V47.8146Z" fill="white"/>
</svg>
