<svg width="101" height="100" viewBox="0 0 101 100" fill="none" xmlns="http://www.w3.org/2000/svg">
<circle cx="50.5" cy="50" r="50" fill="#8F39FF"/>
<path d="M40.5 30.7498C40.5 30.2856 40.6844 29.8405 41.0126 29.5123C41.3408 29.1841 41.7859 28.9998 42.25 28.9998H59.75C60.2141 28.9998 60.6592 29.1841 60.9874 29.5123C61.3156 29.8405 61.5 30.2856 61.5 30.7498V39.4998H65C66.8565 39.4998 68.637 40.2373 69.9497 41.55C71.2625 42.8628 72 44.6432 72 46.4998V63.9998C72 65.8563 71.2625 67.6367 69.9497 68.9495C68.637 70.2623 66.8565 70.9998 65 70.9998H37C35.1435 70.9998 33.363 70.2623 32.0503 68.9495C30.7375 67.6367 30 65.8563 30 63.9998V46.4998C30 44.6432 30.7375 42.8628 32.0503 41.55C33.363 40.2373 35.1435 39.4998 37 39.4998H40.5V30.7498ZM58 32.4998H44V39.4998H58V32.4998ZM52.75 49.9998C52.75 49.5356 52.5656 49.0905 52.2374 48.7623C51.9092 48.4341 51.4641 48.2498 51 48.2498C50.5359 48.2498 50.0908 48.4341 49.7626 48.7623C49.4344 49.0905 49.25 49.5356 49.25 49.9998V53.4998H45.75C45.2859 53.4998 44.8408 53.6841 44.5126 54.0123C44.1844 54.3405 44 54.7856 44 55.2498C44 55.7139 44.1844 56.159 44.5126 56.4872C44.8408 56.8154 45.2859 56.9998 45.75 56.9998H49.25V60.4998C49.25 60.9639 49.4344 61.409 49.7626 61.7372C50.0908 62.0654 50.5359 62.2498 51 62.2498C51.4641 62.2498 51.9092 62.0654 52.2374 61.7372C52.5656 61.409 52.75 60.9639 52.75 60.4998V56.9998H56.25C56.7141 56.9998 57.1592 56.8154 57.4874 56.4872C57.8156 56.159 58 55.7139 58 55.2498C58 54.7856 57.8156 54.3405 57.4874 54.0123C57.1592 53.6841 56.7141 53.4998 56.25 53.4998H52.75V49.9998Z" fill="white"/>
</svg>
