<svg width="543" height="422" viewBox="0 0 543 422" fill="none" xmlns="http://www.w3.org/2000/svg">
<path d="M299.763 341.829C433.668 315.787 529.39 228.711 513.564 147.338C497.739 65.9656 376.359 21.1109 242.455 47.1524C108.551 73.1939 12.8289 160.27 28.6541 241.643C44.4793 323.015 165.859 367.87 299.763 341.829Z" fill="#F9F9FF"/>
<path d="M428.781 421.523H111.832V415.317C111.832 413.918 112.963 412.787 114.362 412.787H426.251C427.65 412.787 428.781 413.918 428.781 415.317V421.523Z" fill="#A0A3EB"/>
<path d="M176.123 406.775V160.937C176.123 157.529 178.876 154.775 182.284 154.775H358.321C361.729 154.775 364.482 157.529 364.482 160.937V406.76C364.482 410.169 361.729 412.922 358.321 412.922H182.284C178.876 412.937 176.123 410.168 176.123 406.775Z" fill="#404040"/>
<path d="M180.842 392.963V163.66C180.842 161.368 182.703 159.508 184.995 159.508H355.614C357.906 159.508 359.766 161.368 359.766 163.66V392.963C359.766 395.255 357.906 397.116 355.614 397.116H184.995C182.703 397.116 180.842 395.255 180.842 392.963Z" fill="#737373"/>
<path d="M346.521 172.754H194.088V383.87H346.521V172.754Z" fill="white"/>
<path d="M346.523 172.77H194.062V184.78H346.523V172.77Z" fill="#645ED1"/>
<path d="M324.065 179.527H317.368V181.016H324.065V179.527Z" fill="white"/>
<path d="M333.345 180.677L328.609 175.941L327.557 176.994L332.292 181.729L333.345 180.677Z" fill="white"/>
<path d="M328.618 181.734L333.354 176.998L332.301 175.946L327.565 180.681L328.618 181.734Z" fill="white"/>
<path d="M336.12 175.627V181.729H342.222V175.627H336.12ZM341.046 180.553H337.311V176.818H341.046V180.553Z" fill="white"/>
<path d="M215.581 180.792C216.633 180.792 217.486 179.94 217.486 178.887C217.486 177.835 216.633 176.982 215.581 176.982C214.529 176.982 213.676 177.835 213.676 178.887C213.676 179.94 214.529 180.792 215.581 180.792Z" fill="white"/>
<path d="M207.651 180.792C208.703 180.792 209.556 179.94 209.556 178.887C209.556 177.835 208.703 176.982 207.651 176.982C206.599 176.982 205.746 177.835 205.746 178.887C205.746 179.94 206.599 180.792 207.651 180.792Z" fill="white"/>
<path d="M199.717 180.792C200.769 180.792 201.622 179.94 201.622 178.887C201.622 177.835 200.769 176.982 199.717 176.982C198.664 176.982 197.812 177.835 197.812 178.887C197.812 179.94 198.664 180.792 199.717 180.792Z" fill="white"/>
<path d="M270.992 213.862H222.667C221.581 213.862 220.703 212.984 220.703 211.898V202.953C220.703 201.866 221.581 200.988 222.667 200.988H270.992C272.079 200.988 272.957 201.866 272.957 202.953V211.898C272.957 212.969 272.079 213.862 270.992 213.862Z" fill="#D1D9FF"/>
<path d="M269.34 212.3H221.015C219.928 212.3 219.05 211.422 219.05 210.335V201.39C219.05 200.304 219.928 199.426 221.015 199.426H269.34C270.427 199.426 271.305 200.304 271.305 201.39V210.335C271.305 211.407 270.427 212.3 269.34 212.3Z" fill="#645ED1"/>
<path d="M208.423 209.472C210.387 209.472 211.98 207.879 211.98 205.914C211.98 203.95 210.387 202.357 208.423 202.357C206.458 202.357 204.866 203.95 204.866 205.914C204.866 207.879 206.458 209.472 208.423 209.472Z" fill="#CD92F0"/>
<path d="M287.379 226.273H221.328C220.762 226.273 220.316 225.827 220.316 225.261V220.662C220.316 220.097 220.762 219.65 221.328 219.65H287.379C287.944 219.65 288.391 220.097 288.391 220.662V225.261C288.391 225.827 287.944 226.273 287.379 226.273Z" fill="#D1D9FF"/>
<path d="M307.439 240.846H221.341C220.775 240.846 220.329 240.399 220.329 239.834V235.235C220.329 234.669 220.775 234.223 221.341 234.223H307.439C308.005 234.223 308.451 234.669 308.451 235.235V239.834C308.451 240.399 307.99 240.846 307.439 240.846Z" fill="#D1D9FF"/>
<path d="M328.188 228.239H305.789C304.301 228.239 303.11 227.034 303.11 225.56V203.161C303.11 201.673 304.316 200.482 305.789 200.482H328.188C329.677 200.482 330.867 201.688 330.867 203.161V225.56C330.882 227.034 329.677 228.239 328.188 228.239Z" fill="#D1D9FF"/>
<path d="M325.972 226.007H303.573C302.085 226.007 300.894 224.801 300.894 223.328V200.929C300.894 199.441 302.1 198.25 303.573 198.25H325.972C327.46 198.25 328.651 199.456 328.651 200.929V223.328C328.651 224.816 327.46 226.007 325.972 226.007Z" fill="#F6F5FF"/>
<path d="M305.046 209.069L315.598 218.52L335.051 194.633L315.048 211.852L305.046 209.069Z" fill="#645ED1"/>
<path d="M270.992 278.425H222.667C221.581 278.425 220.703 277.547 220.703 276.46V267.515C220.703 266.429 221.581 265.551 222.667 265.551H270.992C272.079 265.551 272.957 266.429 272.957 267.515V276.46C272.957 277.547 272.079 278.425 270.992 278.425Z" fill="#D1D9FF"/>
<path d="M269.34 276.862H221.015C219.928 276.862 219.05 275.984 219.05 274.898V265.953C219.05 264.866 219.928 263.988 221.015 263.988H269.34C270.427 263.988 271.305 264.866 271.305 265.953V274.898C271.305 275.984 270.427 276.862 269.34 276.862Z" fill="#645ED1"/>
<path d="M208.423 274.048C210.387 274.048 211.98 272.455 211.98 270.491C211.98 268.526 210.387 266.934 208.423 266.934C206.458 266.934 204.866 268.526 204.866 270.491C204.866 272.455 206.458 274.048 208.423 274.048Z" fill="#CD92F0"/>
<path d="M287.379 290.851H221.328C220.762 290.851 220.316 290.405 220.316 289.839V285.241C220.316 284.675 220.762 284.229 221.328 284.229H287.379C287.944 284.229 288.391 284.675 288.391 285.241V289.839C288.391 290.39 287.944 290.851 287.379 290.851Z" fill="#D1D9FF"/>
<path d="M307.439 305.422H221.341C220.775 305.422 220.329 304.975 220.329 304.41V299.811C220.329 299.245 220.775 298.799 221.341 298.799H307.439C308.005 298.799 308.451 299.245 308.451 299.811V304.41C308.451 304.96 307.99 305.422 307.439 305.422Z" fill="#D1D9FF"/>
<path d="M328.188 292.802H305.789C304.301 292.802 303.11 291.596 303.11 290.123V267.724C303.11 266.236 304.316 265.045 305.789 265.045H328.188C329.677 265.045 330.867 266.25 330.867 267.724V290.123C330.882 291.596 329.677 292.802 328.188 292.802Z" fill="#D1D9FF"/>
<path d="M325.972 290.583H303.573C302.085 290.583 300.894 289.378 300.894 287.904V265.505C300.894 264.017 302.1 262.826 303.573 262.826H325.972C327.46 262.826 328.651 264.032 328.651 265.505V287.904C328.651 289.378 327.46 290.583 325.972 290.583Z" fill="#F6F5FF"/>
<path d="M305.046 273.647L315.598 283.083L335.051 259.195L315.048 276.415L305.046 273.647Z" fill="#645ED1"/>
<path d="M270.992 343H222.667C221.581 343 220.703 342.122 220.703 341.035V332.076C220.703 330.989 221.581 330.111 222.667 330.111H270.992C272.079 330.111 272.957 330.989 272.957 332.076V341.021C272.957 342.122 272.079 343 270.992 343Z" fill="#D1D9FF"/>
<path d="M269.34 341.438H221.015C219.928 341.438 219.05 340.56 219.05 339.474V330.529C219.05 329.443 219.928 328.564 221.015 328.564H269.34C270.427 328.564 271.305 329.443 271.305 330.529V339.474C271.305 340.545 270.427 341.438 269.34 341.438Z" fill="#645ED1"/>
<path d="M208.423 338.61C210.387 338.61 211.98 337.018 211.98 335.053C211.98 333.089 210.387 331.496 208.423 331.496C206.458 331.496 204.866 333.089 204.866 335.053C204.866 337.018 206.458 338.61 208.423 338.61Z" fill="#CD92F0"/>
<path d="M287.379 355.412H221.328C220.762 355.412 220.316 354.966 220.316 354.4V349.801C220.316 349.236 220.762 348.789 221.328 348.789H287.379C287.944 348.789 288.391 349.236 288.391 349.801V354.4C288.391 354.966 287.944 355.412 287.379 355.412Z" fill="#D1D9FF"/>
<path d="M307.439 369.984H221.341C220.775 369.984 220.329 369.538 220.329 368.972V364.373C220.329 363.808 220.775 363.361 221.341 363.361H307.439C308.005 363.361 308.451 363.808 308.451 364.373V368.972C308.451 369.538 307.99 369.984 307.439 369.984Z" fill="#D1D9FF"/>
<path d="M328.188 357.378H305.789C304.301 357.378 303.11 356.172 303.11 354.699V332.3C303.11 330.812 304.316 329.621 305.789 329.621H328.188C329.677 329.621 330.867 330.827 330.867 332.3V354.699C330.882 356.172 329.677 357.378 328.188 357.378Z" fill="#D1D9FF"/>
<path d="M325.972 355.146H303.573C302.085 355.146 300.894 353.94 300.894 352.467V330.068C300.894 328.579 302.1 327.389 303.573 327.389H325.972C327.46 327.389 328.651 328.594 328.651 330.068V352.467C328.651 353.955 327.46 355.146 325.972 355.146Z" fill="#F6F5FF"/>
<path d="M305.046 338.208L315.598 347.659L335.051 323.771L315.048 340.991L305.046 338.208Z" fill="#645ED1"/>
<path d="M348.801 412.996C367.344 412.996 382.377 397.964 382.377 379.42C382.377 360.876 367.344 345.844 348.801 345.844C330.257 345.844 315.225 360.876 315.225 379.42C315.225 397.964 330.257 412.996 348.801 412.996Z" fill="#645ED1"/>
<path d="M365.457 399.377H337.671C336.182 399.377 334.992 398.171 334.992 396.698V368.911C334.992 367.423 336.197 366.232 337.671 366.232H365.457C366.946 366.232 368.136 367.438 368.136 368.911V396.698C368.151 398.186 366.946 399.377 365.457 399.377Z" fill="#D1D9FF"/>
<path d="M362.81 396.729H335.024C333.535 396.729 332.345 395.523 332.345 394.05V366.263C332.345 364.775 333.55 363.584 335.024 363.584H362.81C364.299 363.584 365.489 364.79 365.489 366.263V394.05C365.504 395.523 364.299 396.729 362.81 396.729Z" fill="#F6F5FF"/>
<path d="M337.314 376.502L349.906 387.784L373.123 359.268L349.251 379.821L337.314 376.502Z" fill="#645ED1"/>
</svg>
