<svg width="490" height="432" viewBox="0 0 490 432" fill="none" xmlns="http://www.w3.org/2000/svg">
<path d="M273.763 302.829C407.668 276.787 503.39 189.711 487.564 108.338C471.739 26.9656 350.359 -17.8891 216.455 8.15239C82.5509 34.1939 -13.1711 121.27 2.65409 202.643C18.4793 284.015 139.859 328.87 273.763 302.829Z" fill="#F9F9FF"/>
<path opacity="0.35" d="M349.916 248.736C351.178 249.469 351.178 250.629 349.936 251.362L327.041 264.61C325.799 265.343 323.744 265.343 322.502 264.61L285.381 243.262C284.119 242.529 284.119 241.369 285.361 240.636L308.256 227.387C309.498 226.655 311.553 226.655 312.795 227.387L349.916 248.736Z" fill="#005D92"/>
<path d="M349.163 247.76C349.122 248.269 348.715 248.636 348.308 248.88C347.718 249.002 324.904 263.024 324.904 261.742C324.13 261.762 323.357 261.62 322.685 261.233L288.047 241.329C287.457 240.983 287.152 240.536 287.152 240.088C287.253 241.065 286.826 242.103 288.027 242.693C288.23 242.795 322.685 262.637 322.889 262.719C323.52 263.004 324.212 263.126 324.883 263.106C326.044 263.797 347.311 250.569 348.593 250.019C349.366 249.592 349.122 248.351 349.163 247.638C349.163 247.699 349.163 247.74 349.163 247.76Z" fill="#004166"/>
<path d="M348.267 246.437C349.448 247.108 349.448 248.207 348.288 248.879L326.919 261.232C325.759 261.904 323.845 261.904 322.665 261.232L288.027 241.329C286.846 240.657 286.846 239.558 288.006 238.886L309.375 226.533C310.536 225.861 312.449 225.861 313.629 226.533L348.267 246.437Z" fill="#8CC1E3"/>
<path d="M317.17 235.404V235.832C316.743 235.608 316.804 235.262 316.804 234.916C316.824 235.079 316.926 235.262 317.17 235.404Z" fill="#C9A6C7"/>
<path d="M326.147 235.711C326.147 235.772 326.147 236.159 326.147 236.199C326.127 236.159 326.127 235.752 326.147 235.711Z" fill="#D0B2CE"/>
<path d="M326.125 235.773C326.125 235.834 326.146 236.221 326.105 236.262C326.125 236.221 326.105 235.814 326.125 235.773Z" fill="#D2B5D0"/>
<path d="M326.127 235.854C326.127 235.915 326.147 236.301 326.086 236.342C326.086 236.281 326.066 235.894 326.127 235.854Z" fill="#D4B9D3"/>
<path d="M326.085 235.916C326.085 235.977 326.126 236.364 326.044 236.404V235.977C326.044 235.957 326.065 235.936 326.085 235.916Z" fill="#D6BBD4"/>
<path d="M326.045 235.996V236.423C326.024 236.444 326.004 236.485 325.963 236.505V236.077C325.984 236.037 326.004 236.016 326.045 235.996Z" fill="#D8BFD6"/>
<path d="M325.963 236.059V236.486C325.922 236.527 325.861 236.567 325.8 236.608V236.181C325.861 236.14 325.922 236.099 325.963 236.059Z" fill="#D9C1D8"/>
<path d="M325.801 236.18V236.607C325.801 236.607 325.801 236.607 325.78 236.607L325.801 236.18Z" fill="#DCC5DA"/>
<path d="M325.799 236.18V236.607L323.031 238.215V237.787L325.799 236.18Z" fill="#E0CDDF"/>
<path d="M321.322 237.787V238.215L317.17 235.813V235.406L321.322 237.787Z" fill="#CBAAC9"/>
<path d="M323.031 237.787V238.214C322.95 238.255 322.868 238.296 322.767 238.337V237.909C322.868 237.869 322.95 237.828 323.031 237.787Z" fill="#DCC5DA"/>
<path d="M322.767 237.889V238.316C322.685 238.336 322.624 238.357 322.543 238.377V237.95C322.624 237.95 322.706 237.929 322.767 237.889Z" fill="#D9C1D8"/>
<path d="M322.543 237.949V238.377C322.502 238.377 322.441 238.397 322.38 238.397V237.97C322.441 237.97 322.481 237.97 322.543 237.949Z" fill="#D8BFD6"/>
<path d="M322.38 237.971V238.398C322.34 238.398 322.299 238.398 322.238 238.398V237.971C322.299 237.991 322.34 237.991 322.38 237.971Z" fill="#D6BBD4"/>
<path d="M322.259 237.99V238.418C322.218 238.418 322.178 238.418 322.137 238.418V237.99C322.178 237.99 322.218 237.99 322.259 237.99Z" fill="#D4B9D3"/>
<path d="M322.136 237.99V238.418C322.095 238.418 322.055 238.418 322.014 238.418V237.99C322.055 237.99 322.095 237.99 322.136 237.99Z" fill="#D2B5D0"/>
<path d="M322.014 237.97V238.397C321.973 238.397 321.933 238.397 321.892 238.377V237.949C321.933 237.97 321.973 237.97 322.014 237.97Z" fill="#D0B2CE"/>
<path d="M321.892 237.97V238.397C321.851 238.397 321.811 238.377 321.77 238.377V237.949C321.811 237.949 321.851 237.97 321.892 237.97Z" fill="#CFAFCD"/>
<path d="M321.769 237.951V238.378C321.728 238.378 321.688 238.358 321.647 238.338V237.91C321.688 237.931 321.728 237.931 321.769 237.951Z" fill="#CDACCA"/>
<path d="M321.647 237.91V238.337C321.607 238.317 321.546 238.297 321.505 238.297V237.869C321.546 237.889 321.586 237.91 321.647 237.91Z" fill="#CBAAC9"/>
<path d="M321.505 237.869V238.296C321.444 238.276 321.383 238.235 321.322 238.214V237.787C321.383 237.807 321.444 237.848 321.505 237.869Z" fill="#C9A6C7"/>
<path d="M325.78 235.202C326.248 235.466 326.248 235.914 325.78 236.179L323.032 237.766C321.75 238.723 318.29 235.792 317.171 235.385C316.703 235.12 316.703 234.673 317.171 234.408L319.919 232.821C321.221 231.864 324.661 234.774 325.78 235.202Z" fill="white"/>
<path d="M323.784 239.192V239.619C323.357 239.395 323.418 239.049 323.438 238.703C323.418 238.866 323.54 239.049 323.784 239.192Z" fill="#C9A6C7"/>
<path d="M332.738 239.578C332.738 239.639 332.758 240.026 332.718 240.067C332.718 240.006 332.718 239.619 332.738 239.578Z" fill="#D2B5D0"/>
<path d="M332.718 239.639C332.718 239.7 332.739 240.086 332.678 240.127C332.698 240.066 332.678 239.679 332.718 239.639Z" fill="#D4B9D3"/>
<path d="M332.677 239.699C332.677 239.76 332.718 240.147 332.637 240.188V239.76C332.657 239.76 332.677 239.74 332.677 239.699Z" fill="#D6BBD4"/>
<path d="M332.636 239.781V240.209C332.616 240.229 332.595 240.27 332.555 240.29V239.863C332.595 239.842 332.616 239.802 332.636 239.781Z" fill="#D8BFD6"/>
<path d="M332.555 239.863V240.291C332.515 240.331 332.454 240.372 332.393 240.413V239.985C332.474 239.945 332.515 239.904 332.555 239.863Z" fill="#D9C1D8"/>
<path d="M332.413 239.965V240.392C332.413 240.392 332.413 240.392 332.393 240.392L332.413 239.965C332.413 239.985 332.393 239.985 332.413 239.965Z" fill="#DCC5DA"/>
<path d="M332.394 239.984V240.412L329.646 241.999V241.572L332.394 239.984Z" fill="#E0CDDF"/>
<path d="M327.936 241.573V242L323.764 239.619L323.784 239.191L327.936 241.573Z" fill="#CBAAC9"/>
<path d="M329.645 241.572V242C329.563 242.04 329.482 242.081 329.38 242.122V241.694C329.461 241.654 329.563 241.633 329.645 241.572Z" fill="#DCC5DA"/>
<path d="M329.381 241.695V242.123C329.3 242.143 329.239 242.163 329.157 242.184V241.756C329.218 241.736 329.3 241.716 329.381 241.695Z" fill="#D9C1D8"/>
<path d="M329.137 241.756V242.183C329.096 242.183 329.035 242.204 328.974 242.204V241.776C329.035 241.756 329.096 241.756 329.137 241.756Z" fill="#D8BFD6"/>
<path d="M328.995 241.775V242.203C328.954 242.203 328.913 242.203 328.852 242.203V241.775C328.893 241.775 328.954 241.775 328.995 241.775Z" fill="#D6BBD4"/>
<path d="M328.852 241.775V242.203C328.812 242.203 328.771 242.203 328.73 242.203V241.775C328.771 241.775 328.812 241.775 328.852 241.775Z" fill="#D4B9D3"/>
<path d="M328.729 241.775V242.203C328.689 242.203 328.648 242.203 328.607 242.203V241.775C328.648 241.775 328.689 241.775 328.729 241.775Z" fill="#D2B5D0"/>
<path d="M328.607 241.776V242.204C328.567 242.204 328.526 242.204 328.485 242.183V241.756C328.526 241.776 328.567 241.776 328.607 241.776Z" fill="#D0B2CE"/>
<path d="M328.505 241.755V242.182C328.465 242.182 328.424 242.162 328.383 242.162V241.734C328.424 241.755 328.465 241.755 328.505 241.755Z" fill="#CFAFCD"/>
<path d="M328.383 241.736V242.163C328.343 242.163 328.302 242.143 328.261 242.123V241.695C328.282 241.716 328.322 241.736 328.383 241.736Z" fill="#CDACCA"/>
<path d="M328.241 241.715V242.142C328.2 242.122 328.139 242.101 328.098 242.101V241.674C328.139 241.674 328.2 241.694 328.241 241.715Z" fill="#CBAAC9"/>
<path d="M328.099 241.654V242.081C328.037 242.061 327.976 242.02 327.915 242V241.572C327.976 241.613 328.037 241.633 328.099 241.654Z" fill="#C9A6C7"/>
<path d="M332.395 238.988C332.863 239.252 332.863 239.7 332.395 239.965L329.648 241.552C328.366 242.509 324.906 239.578 323.786 239.171C323.318 238.907 323.318 238.459 323.786 238.194L326.534 236.607C327.816 235.65 331.256 238.581 332.395 238.988Z" fill="white"/>
<path d="M330.382 242.977V243.404C329.955 243.18 330.016 242.834 330.036 242.488C330.016 242.671 330.138 242.855 330.382 242.977Z" fill="#C9A6C7"/>
<path d="M339.355 243.301C339.355 243.362 339.355 243.749 339.355 243.789C339.335 243.728 339.335 243.341 339.355 243.301Z" fill="#D0B2CE"/>
<path d="M339.334 243.363C339.334 243.424 339.354 243.811 339.313 243.852C339.313 243.811 339.313 243.404 339.334 243.363Z" fill="#D2B5D0"/>
<path d="M339.314 243.443C339.314 243.504 339.335 243.891 339.274 243.932C339.294 243.871 339.274 243.464 339.314 243.443Z" fill="#D4B9D3"/>
<path d="M339.294 243.506C339.294 243.567 339.335 243.954 339.254 243.994V243.567C339.254 243.547 339.274 243.526 339.294 243.506Z" fill="#D6BBD4"/>
<path d="M339.233 243.566V243.994C339.213 244.014 339.192 244.055 339.152 244.075V243.648C339.192 243.627 339.213 243.607 339.233 243.566Z" fill="#D8BFD6"/>
<path d="M339.171 243.648V244.076C339.131 244.117 339.07 244.157 339.009 244.198V243.771C339.07 243.73 339.131 243.689 339.171 243.648Z" fill="#D9C1D8"/>
<path d="M339.009 243.77V244.197C339.009 244.197 339.009 244.197 338.989 244.197L339.009 243.77Z" fill="#DCC5DA"/>
<path d="M338.99 243.77V244.197L336.242 245.784V245.377L338.99 243.77Z" fill="#E0CDDF"/>
<path d="M334.532 245.378V245.785L330.38 243.404V242.977L334.532 245.378Z" fill="#CBAAC9"/>
<path d="M336.24 245.379V245.806C336.158 245.847 336.077 245.888 335.975 245.928V245.501C336.077 245.46 336.158 245.42 336.24 245.379Z" fill="#DCC5DA"/>
<path d="M335.975 245.48V245.908C335.893 245.928 335.832 245.949 335.751 245.969V245.542C335.832 245.521 335.893 245.501 335.975 245.48Z" fill="#D9C1D8"/>
<path d="M335.751 245.541V245.968C335.71 245.968 335.649 245.989 335.588 245.989V245.561C335.649 245.561 335.69 245.561 335.751 245.541Z" fill="#D8BFD6"/>
<path d="M335.589 245.562V245.99C335.548 245.99 335.507 245.99 335.446 245.99V245.562C335.507 245.583 335.548 245.562 335.589 245.562Z" fill="#D6BBD4"/>
<path d="M335.467 245.582V246.009C335.427 246.009 335.386 246.009 335.345 246.009V245.582C335.386 245.582 335.427 245.582 335.467 245.582Z" fill="#D4B9D3"/>
<path d="M335.344 245.583V246.011C335.304 246.011 335.263 246.011 335.222 246.011V245.583C335.263 245.563 335.304 245.583 335.344 245.583Z" fill="#D2B5D0"/>
<path d="M335.222 245.561V245.989C335.182 245.989 335.141 245.989 335.1 245.968V245.541C335.141 245.561 335.182 245.561 335.222 245.561Z" fill="#D0B2CE"/>
<path d="M335.1 245.561V245.989C335.06 245.989 335.019 245.968 334.978 245.968V245.541C335.019 245.541 335.06 245.541 335.1 245.561Z" fill="#CFAFCD"/>
<path d="M334.977 245.543V245.97C334.937 245.97 334.896 245.95 334.855 245.929V245.502C334.896 245.522 334.937 245.522 334.977 245.543Z" fill="#CDACCA"/>
<path d="M334.856 245.502V245.929C334.815 245.909 334.754 245.888 334.713 245.888V245.461C334.754 245.481 334.795 245.481 334.856 245.502Z" fill="#CBAAC9"/>
<path d="M334.713 245.46V245.888C334.652 245.867 334.591 245.827 334.53 245.806V245.379C334.591 245.399 334.652 245.44 334.713 245.46Z" fill="#C9A6C7"/>
<path d="M338.989 242.794C339.457 243.058 339.457 243.506 338.989 243.771L336.241 245.358C334.959 246.314 331.499 243.384 330.38 242.977C329.912 242.712 329.912 242.265 330.38 242L333.127 240.413C334.43 239.456 337.869 242.366 338.989 242.794Z" fill="white"/>
<path d="M336.972 246.781V247.209C336.545 246.985 336.606 246.639 336.606 246.293C336.627 246.456 336.749 246.639 336.972 246.781Z" fill="#C9A6C7"/>
<path d="M345.949 247.168C345.949 247.229 345.969 247.616 345.929 247.656C345.929 247.595 345.908 247.209 345.949 247.168Z" fill="#D2B5D0"/>
<path d="M345.929 247.229C345.929 247.29 345.949 247.676 345.888 247.717C345.888 247.656 345.868 247.269 345.929 247.229Z" fill="#D4B9D3"/>
<path d="M345.888 247.289C345.888 247.35 345.929 247.737 345.847 247.777V247.35C345.867 247.35 345.888 247.33 345.888 247.289Z" fill="#D6BBD4"/>
<path d="M345.848 247.371V247.798C345.827 247.819 345.807 247.86 345.766 247.88V247.453C345.807 247.432 345.827 247.391 345.848 247.371Z" fill="#D8BFD6"/>
<path d="M345.766 247.451V247.879C345.725 247.919 345.664 247.96 345.603 248.001V247.573C345.685 247.533 345.725 247.492 345.766 247.451Z" fill="#D9C1D8"/>
<path d="M345.624 247.555V247.982C345.624 247.982 345.624 247.982 345.603 247.982L345.624 247.555C345.603 247.575 345.603 247.575 345.624 247.555Z" fill="#DCC5DA"/>
<path d="M345.603 247.574V248.002L342.835 249.589L342.855 249.162L345.603 247.574Z" fill="#E0CDDF"/>
<path d="M341.125 249.162V249.59L336.973 247.209V246.781L341.125 249.162Z" fill="#CBAAC9"/>
<path d="M342.852 249.162V249.589C342.771 249.63 342.69 249.671 342.588 249.712V249.284C342.669 249.244 342.771 249.203 342.852 249.162Z" fill="#DCC5DA"/>
<path d="M342.588 249.285V249.713C342.506 249.733 342.445 249.753 342.364 249.774V249.346C342.425 249.326 342.506 249.306 342.588 249.285Z" fill="#D9C1D8"/>
<path d="M342.344 249.346V249.773C342.303 249.773 342.242 249.793 342.181 249.793V249.366C342.242 249.346 342.303 249.346 342.344 249.346Z" fill="#D8BFD6"/>
<path d="M342.202 249.365V249.793C342.162 249.793 342.121 249.793 342.06 249.793V249.365C342.101 249.365 342.141 249.365 342.202 249.365Z" fill="#D6BBD4"/>
<path d="M342.06 249.365V249.793C342.019 249.793 341.979 249.793 341.938 249.793V249.365C341.979 249.365 342.019 249.365 342.06 249.365Z" fill="#D4B9D3"/>
<path d="M341.937 249.365V249.793C341.896 249.793 341.856 249.793 341.815 249.793V249.365C341.856 249.365 341.896 249.365 341.937 249.365Z" fill="#D2B5D0"/>
<path d="M341.815 249.366V249.793C341.774 249.793 341.734 249.793 341.693 249.773V249.346C341.734 249.346 341.774 249.366 341.815 249.366Z" fill="#D0B2CE"/>
<path d="M341.693 249.345V249.772C341.653 249.772 341.612 249.752 341.571 249.752V249.324C341.612 249.345 341.653 249.345 341.693 249.345Z" fill="#CFAFCD"/>
<path d="M341.57 249.326V249.753C341.529 249.753 341.489 249.733 341.448 249.713V249.285C341.489 249.306 341.529 249.326 341.57 249.326Z" fill="#CDACCA"/>
<path d="M341.449 249.304V249.732C341.408 249.711 341.347 249.691 341.306 249.691V249.264C341.347 249.264 341.408 249.284 341.449 249.304Z" fill="#CBAAC9"/>
<path d="M341.306 249.244V249.671C341.245 249.651 341.184 249.61 341.123 249.589V249.162C341.184 249.203 341.245 249.223 341.306 249.244Z" fill="#C9A6C7"/>
<path d="M345.603 246.578C346.071 246.842 346.071 247.29 345.603 247.555L342.855 249.142C341.573 250.099 338.113 247.168 336.994 246.761C336.526 246.496 336.526 246.049 336.994 245.784L339.742 244.197C341.024 243.24 344.463 246.171 345.603 246.578Z" fill="#F65841"/>
<path d="M311.413 238.744V239.172C310.985 238.948 311.046 238.602 311.046 238.256C311.046 238.419 311.168 238.602 311.413 238.744Z" fill="#C9A6C7"/>
<path d="M320.368 239.111C320.368 239.172 320.389 239.559 320.348 239.6C320.348 239.559 320.328 239.152 320.368 239.111Z" fill="#D2B5D0"/>
<path d="M320.348 239.191C320.348 239.252 320.368 239.639 320.307 239.68C320.307 239.619 320.287 239.232 320.348 239.191Z" fill="#D4B9D3"/>
<path d="M320.307 239.254C320.307 239.315 320.348 239.702 320.266 239.742V239.315C320.287 239.295 320.307 239.274 320.307 239.254Z" fill="#D6BBD4"/>
<path d="M320.267 239.334V239.761C320.246 239.782 320.226 239.822 320.185 239.843V239.415C320.226 239.375 320.246 239.354 320.267 239.334Z" fill="#D8BFD6"/>
<path d="M320.185 239.416V239.843C320.145 239.884 320.084 239.925 320.022 239.966V239.538C320.104 239.477 320.145 239.457 320.185 239.416Z" fill="#D9C1D8"/>
<path d="M320.043 239.518V239.945C320.043 239.945 320.043 239.945 320.022 239.945L320.043 239.518C320.022 239.518 320.022 239.518 320.043 239.518Z" fill="#DCC5DA"/>
<path d="M320.021 239.537V239.944L317.273 241.552V241.125L320.021 239.537Z" fill="#E0CDDF"/>
<path d="M315.564 241.125L315.544 241.553L311.392 239.151L311.412 238.744L315.564 241.125Z" fill="#CBAAC9"/>
<path d="M317.274 241.125V241.552C317.193 241.593 317.112 241.634 317.01 241.674V241.247C317.091 241.206 317.193 241.166 317.274 241.125Z" fill="#DCC5DA"/>
<path d="M317.01 241.248V241.675C316.928 241.696 316.867 241.716 316.786 241.736V241.309C316.847 241.289 316.928 241.268 317.01 241.248Z" fill="#D9C1D8"/>
<path d="M316.766 241.287V241.714C316.725 241.714 316.664 241.735 316.603 241.735V241.307C316.664 241.307 316.725 241.307 316.766 241.287Z" fill="#D8BFD6"/>
<path d="M316.623 241.309V241.736C316.583 241.736 316.542 241.736 316.481 241.736V241.309C316.522 241.329 316.583 241.329 316.623 241.309Z" fill="#D6BBD4"/>
<path d="M316.481 241.328V241.756C316.44 241.756 316.4 241.756 316.359 241.756V241.328C316.4 241.328 316.44 241.328 316.481 241.328Z" fill="#D4B9D3"/>
<path d="M316.359 241.328V241.756C316.318 241.756 316.278 241.756 316.237 241.756V241.328C316.278 241.328 316.318 241.328 316.359 241.328Z" fill="#D2B5D0"/>
<path d="M316.237 241.329V241.756C316.196 241.756 316.156 241.756 316.115 241.736V241.309C316.156 241.309 316.196 241.309 316.237 241.329Z" fill="#D0B2CE"/>
<path d="M316.115 241.307V241.735C316.075 241.735 316.034 241.714 315.993 241.714V241.287C316.034 241.287 316.075 241.307 316.115 241.307Z" fill="#CFAFCD"/>
<path d="M315.992 241.289V241.716C315.951 241.716 315.911 241.696 315.87 241.675V241.248C315.911 241.268 315.951 241.268 315.992 241.289Z" fill="#CDACCA"/>
<path d="M315.871 241.248V241.675C315.83 241.655 315.769 241.634 315.728 241.634V241.207C315.769 241.227 315.83 241.248 315.871 241.248Z" fill="#CBAAC9"/>
<path d="M315.728 241.206V241.634C315.667 241.613 315.606 241.573 315.545 241.552V241.125C315.606 241.145 315.667 241.186 315.728 241.206Z" fill="#C9A6C7"/>
<path d="M320.021 238.54C320.489 238.804 320.489 239.252 320.021 239.517L317.273 241.104C315.991 242.061 312.531 239.13 311.412 238.723C310.944 238.458 310.944 238.011 311.412 237.746L314.159 236.159C315.442 235.202 318.881 238.112 320.021 238.54Z" fill="white"/>
<path d="M318.002 242.528V242.955C317.575 242.731 317.636 242.385 317.656 242.039C317.636 242.202 317.758 242.385 318.002 242.528Z" fill="#C9A6C7"/>
<path d="M326.98 242.834C326.98 242.895 326.98 243.282 326.98 243.322C326.959 243.282 326.959 242.875 326.98 242.834Z" fill="#D0B2CE"/>
<path d="M326.958 242.916C326.958 242.977 326.979 243.364 326.938 243.404C326.938 243.343 326.938 242.957 326.958 242.916Z" fill="#D2B5D0"/>
<path d="M326.939 242.977C326.939 243.038 326.959 243.424 326.898 243.465C326.918 243.404 326.898 243.017 326.939 242.977Z" fill="#D4B9D3"/>
<path d="M326.919 243.059C326.919 243.12 326.959 243.506 326.878 243.547V243.12C326.878 243.099 326.898 243.079 326.919 243.059Z" fill="#D6BBD4"/>
<path d="M326.857 243.119V243.547C326.837 243.567 326.817 243.608 326.776 243.628V243.201C326.817 243.18 326.837 243.139 326.857 243.119Z" fill="#D8BFD6"/>
<path d="M326.796 243.201V243.629C326.755 243.669 326.694 243.71 326.633 243.751V243.323C326.694 243.283 326.755 243.242 326.796 243.201Z" fill="#D9C1D8"/>
<path d="M326.633 243.322V243.75C326.633 243.75 326.633 243.75 326.613 243.75L326.633 243.322Z" fill="#DCC5DA"/>
<path d="M326.613 243.322V243.75L323.866 245.337V244.91L326.613 243.322Z" fill="#E0CDDF"/>
<path d="M322.156 244.908V245.336L318.004 242.955V242.527L322.156 244.908Z" fill="#CBAAC9"/>
<path d="M323.867 244.908V245.336C323.786 245.376 323.704 245.417 323.602 245.458V245.03C323.704 244.99 323.786 244.969 323.867 244.908Z" fill="#DCC5DA"/>
<path d="M323.602 245.031V245.459C323.521 245.479 323.46 245.499 323.378 245.52V245.092C323.46 245.072 323.521 245.052 323.602 245.031Z" fill="#D9C1D8"/>
<path d="M323.378 245.092V245.519C323.338 245.519 323.276 245.54 323.215 245.54V245.112C323.276 245.112 323.317 245.092 323.378 245.092Z" fill="#D8BFD6"/>
<path d="M323.216 245.111V245.539C323.175 245.539 323.135 245.539 323.073 245.539V245.111C323.135 245.111 323.175 245.111 323.216 245.111Z" fill="#D6BBD4"/>
<path d="M323.095 245.111V245.539C323.054 245.539 323.013 245.539 322.973 245.539V245.111C323.013 245.111 323.054 245.111 323.095 245.111Z" fill="#D4B9D3"/>
<path d="M322.972 245.111V245.539C322.931 245.539 322.89 245.539 322.85 245.539V245.111C322.89 245.111 322.931 245.111 322.972 245.111Z" fill="#D2B5D0"/>
<path d="M322.85 245.112V245.54C322.809 245.54 322.768 245.54 322.728 245.519V245.092C322.768 245.112 322.809 245.112 322.85 245.112Z" fill="#D0B2CE"/>
<path d="M322.728 245.091V245.518C322.687 245.518 322.646 245.498 322.606 245.498V245.07C322.646 245.091 322.687 245.091 322.728 245.091Z" fill="#CFAFCD"/>
<path d="M322.605 245.072V245.499C322.564 245.499 322.523 245.479 322.483 245.459V245.031C322.523 245.052 322.564 245.072 322.605 245.072Z" fill="#CDACCA"/>
<path d="M322.483 245.05V245.478C322.442 245.458 322.381 245.437 322.341 245.437V245.01C322.381 245.01 322.422 245.03 322.483 245.05Z" fill="#CBAAC9"/>
<path d="M322.341 244.99V245.417C322.28 245.397 322.219 245.356 322.158 245.336V244.908C322.219 244.949 322.259 244.969 322.341 244.99Z" fill="#C9A6C7"/>
<path d="M326.613 242.325C327.081 242.589 327.081 243.037 326.613 243.322L323.866 244.909C322.583 245.866 319.124 242.935 318.004 242.528C317.536 242.264 317.536 241.816 318.004 241.551L320.752 239.964C322.054 238.987 325.494 241.918 326.613 242.325Z" fill="white"/>
<path d="M324.597 246.315V246.742C324.169 246.518 324.23 246.172 324.251 245.826C324.251 246.009 324.373 246.193 324.597 246.315Z" fill="#C9A6C7"/>
<path d="M333.574 246.701C333.574 246.762 333.594 247.149 333.554 247.19C333.554 247.149 333.533 246.742 333.574 246.701Z" fill="#D2B5D0"/>
<path d="M333.554 246.781C333.554 246.842 333.574 247.229 333.513 247.27C333.513 247.209 333.493 246.822 333.554 246.781Z" fill="#D4B9D3"/>
<path d="M333.513 246.844C333.513 246.905 333.553 247.291 333.472 247.332V246.905C333.492 246.884 333.492 246.864 333.513 246.844Z" fill="#D6BBD4"/>
<path d="M333.472 246.904V247.332C333.452 247.352 333.432 247.393 333.391 247.413V246.986C333.411 246.965 333.452 246.945 333.472 246.904Z" fill="#D8BFD6"/>
<path d="M333.391 246.986V247.414C333.35 247.454 333.289 247.495 333.228 247.536V247.108C333.289 247.068 333.35 247.027 333.391 246.986Z" fill="#D9C1D8"/>
<path d="M333.248 247.107V247.535C333.248 247.535 333.248 247.535 333.228 247.535L333.248 247.107C333.228 247.107 333.228 247.107 333.248 247.107Z" fill="#DCC5DA"/>
<path d="M333.226 247.107V247.535L330.458 249.143V248.715L333.226 247.107Z" fill="#E0CDDF"/>
<path d="M328.752 248.716V249.143L324.6 246.742V246.314L328.752 248.716Z" fill="#CBAAC9"/>
<path d="M330.46 248.717V249.144C330.378 249.185 330.297 249.226 330.195 249.266V248.839C330.297 248.798 330.378 248.758 330.46 248.717Z" fill="#DCC5DA"/>
<path d="M330.195 248.818V249.246C330.114 249.266 330.052 249.286 329.971 249.307V248.879C330.052 248.859 330.134 248.859 330.195 248.818Z" fill="#D9C1D8"/>
<path d="M329.972 248.879V249.306C329.931 249.306 329.87 249.327 329.809 249.327V248.899C329.87 248.899 329.931 248.899 329.972 248.879Z" fill="#D8BFD6"/>
<path d="M329.83 248.9V249.328C329.789 249.328 329.748 249.328 329.687 249.328V248.9C329.728 248.921 329.769 248.9 329.83 248.9Z" fill="#D6BBD4"/>
<path d="M329.687 248.92V249.347C329.647 249.347 329.606 249.347 329.565 249.347V248.92C329.606 248.92 329.647 248.92 329.687 248.92Z" fill="#D4B9D3"/>
<path d="M329.564 248.92V249.347C329.524 249.347 329.483 249.347 329.442 249.347V248.92C329.483 248.92 329.524 248.92 329.564 248.92Z" fill="#D2B5D0"/>
<path d="M329.442 248.899V249.327C329.402 249.327 329.361 249.327 329.32 249.306V248.879C329.361 248.899 329.402 248.899 329.442 248.899Z" fill="#D0B2CE"/>
<path d="M329.32 248.899V249.327C329.28 249.327 329.239 249.306 329.198 249.306V248.879C329.239 248.879 329.28 248.879 329.32 248.899Z" fill="#CFAFCD"/>
<path d="M329.197 248.879V249.306C329.157 249.306 329.116 249.286 329.075 249.265V248.838C329.116 248.858 329.157 248.858 329.197 248.879Z" fill="#CDACCA"/>
<path d="M329.076 248.84V249.267C329.035 249.247 328.974 249.226 328.933 249.226V248.799C328.974 248.819 329.035 248.84 329.076 248.84Z" fill="#CBAAC9"/>
<path d="M328.934 248.798V249.226C328.873 249.205 328.811 249.165 328.75 249.144V248.717C328.811 248.737 328.873 248.778 328.934 248.798Z" fill="#C9A6C7"/>
<path d="M333.227 246.132C333.695 246.396 333.695 246.844 333.227 247.108L330.479 248.696C329.197 249.652 325.737 246.722 324.618 246.315C324.15 246.05 324.15 245.602 324.618 245.338L327.365 243.75C328.647 242.794 332.087 245.704 333.227 246.132Z" fill="white"/>
<path d="M331.213 250.119V250.547C330.785 250.323 330.847 249.977 330.847 249.631C330.847 249.794 330.969 249.977 331.213 250.119Z" fill="#C9A6C7"/>
<path d="M340.19 250.424C340.19 250.444 340.19 250.851 340.19 250.851C340.17 250.831 340.19 250.424 340.19 250.424Z" fill="#CFAFCD"/>
<path d="M340.191 250.424C340.191 250.485 340.191 250.872 340.191 250.912C340.17 250.872 340.17 250.465 340.191 250.424Z" fill="#D0B2CE"/>
<path d="M340.169 250.506C340.169 250.567 340.19 250.954 340.149 250.994C340.149 250.933 340.149 250.547 340.169 250.506Z" fill="#D2B5D0"/>
<path d="M340.15 250.566C340.15 250.627 340.17 251.014 340.109 251.055C340.129 250.994 340.109 250.607 340.15 250.566Z" fill="#D4B9D3"/>
<path d="M340.13 250.627C340.13 250.688 340.17 251.075 340.089 251.115V250.688C340.089 250.688 340.109 250.668 340.13 250.627Z" fill="#D6BBD4"/>
<path d="M340.068 250.709V251.136C340.048 251.157 340.028 251.197 339.987 251.218V250.79C340.028 250.77 340.048 250.729 340.068 250.709Z" fill="#D8BFD6"/>
<path d="M339.987 250.791V251.218C339.946 251.259 339.885 251.3 339.824 251.34V250.913C339.905 250.872 339.946 250.832 339.987 250.791Z" fill="#D9C1D8"/>
<path d="M339.844 250.893V251.32C339.844 251.32 339.844 251.32 339.824 251.32L339.844 250.893C339.844 250.913 339.824 250.913 339.844 250.893Z" fill="#DCC5DA"/>
<path d="M339.823 250.912V251.339L337.076 252.927V252.5L339.823 250.912Z" fill="#E0CDDF"/>
<path d="M335.366 252.5V252.928L331.214 250.547V250.119L335.366 252.5Z" fill="#CBAAC9"/>
<path d="M337.073 252.5V252.927C336.991 252.968 336.91 253.009 336.808 253.049V252.622C336.91 252.581 336.991 252.541 337.073 252.5Z" fill="#DCC5DA"/>
<path d="M336.808 252.623V253.05C336.727 253.071 336.666 253.091 336.584 253.111V252.684C336.645 252.664 336.727 252.643 336.808 252.623Z" fill="#D9C1D8"/>
<path d="M336.585 252.684V253.111C336.544 253.111 336.483 253.131 336.422 253.131V252.704C336.483 252.684 336.524 252.684 336.585 252.684Z" fill="#D8BFD6"/>
<path d="M336.423 252.703V253.131C336.382 253.131 336.342 253.131 336.28 253.131V252.703C336.342 252.703 336.382 252.703 336.423 252.703Z" fill="#D6BBD4"/>
<path d="M336.281 252.703V253.131C336.24 253.131 336.199 253.131 336.159 253.131V252.703C336.199 252.703 336.24 252.703 336.281 252.703Z" fill="#D4B9D3"/>
<path d="M336.158 252.703V253.131C336.117 253.131 336.076 253.131 336.035 253.131V252.703C336.076 252.703 336.117 252.703 336.158 252.703Z" fill="#D2B5D0"/>
<path d="M336.036 252.704V253.131C335.995 253.131 335.954 253.131 335.913 253.111V252.684C335.975 252.684 336.015 252.704 336.036 252.704Z" fill="#D0B2CE"/>
<path d="M335.934 252.682V253.11C335.893 253.11 335.852 253.09 335.811 253.09V252.662C335.852 252.682 335.893 252.682 335.934 252.682Z" fill="#CFAFCD"/>
<path d="M335.812 252.664V253.091C335.771 253.091 335.73 253.071 335.69 253.05V252.623C335.73 252.643 335.771 252.664 335.812 252.664Z" fill="#CDACCA"/>
<path d="M335.69 252.642V253.07C335.649 253.049 335.588 253.029 335.548 253.029V252.602C335.588 252.602 335.629 252.622 335.69 252.642Z" fill="#CBAAC9"/>
<path d="M335.527 252.581V253.009C335.466 252.988 335.405 252.948 335.344 252.927V252.5C335.405 252.541 335.466 252.561 335.527 252.581Z" fill="#C9A6C7"/>
<path d="M339.823 249.916C340.291 250.18 340.291 250.628 339.823 250.893L337.075 252.48C335.793 253.436 332.333 250.506 331.214 250.099C330.746 249.834 330.746 249.387 331.214 249.122L333.961 247.535C335.243 246.578 338.703 249.509 339.823 249.916Z" fill="white"/>
<path d="M305.633 242.08V242.508C305.206 242.284 305.267 241.938 305.267 241.592C305.267 241.755 305.389 241.938 305.633 242.08Z" fill="#C9A6C7"/>
<path d="M314.607 242.387C314.607 242.448 314.607 242.834 314.607 242.875C314.587 242.834 314.587 242.427 314.607 242.387Z" fill="#D0B2CE"/>
<path d="M314.586 242.447C314.586 242.508 314.607 242.895 314.566 242.936C314.566 242.895 314.566 242.488 314.586 242.447Z" fill="#D2B5D0"/>
<path d="M314.566 242.529C314.566 242.59 314.586 242.977 314.525 243.018C314.545 242.957 314.525 242.57 314.566 242.529Z" fill="#D4B9D3"/>
<path d="M314.546 242.59C314.546 242.651 314.587 243.038 314.505 243.078V242.651C314.505 242.651 314.525 242.61 314.546 242.59Z" fill="#D6BBD4"/>
<path d="M314.485 242.672V243.099C314.464 243.12 314.444 243.16 314.403 243.181V242.753C314.444 242.713 314.464 242.692 314.485 242.672Z" fill="#D8BFD6"/>
<path d="M314.423 242.754V243.181C314.382 243.222 314.321 243.263 314.26 243.303V242.876C314.321 242.815 314.362 242.795 314.423 242.754Z" fill="#D9C1D8"/>
<path d="M314.261 242.855V243.283C314.261 243.283 314.26 243.283 314.24 243.283L314.261 242.855Z" fill="#DCC5DA"/>
<path d="M314.241 242.875V243.282L311.494 244.89V244.462L314.241 242.875Z" fill="#E0CDDF"/>
<path d="M309.785 244.461V244.889L305.633 242.487V242.08L309.785 244.461Z" fill="#CBAAC9"/>
<path d="M311.494 244.461V244.888C311.413 244.929 311.332 244.97 311.23 245.01V244.583C311.332 244.542 311.413 244.502 311.494 244.461Z" fill="#DCC5DA"/>
<path d="M311.229 244.582V245.009C311.147 245.03 311.086 245.05 311.005 245.07V244.643C311.086 244.623 311.147 244.602 311.229 244.582Z" fill="#D9C1D8"/>
<path d="M311.006 244.623V245.05C310.965 245.05 310.904 245.071 310.843 245.071V244.643C310.904 244.643 310.945 244.643 311.006 244.623Z" fill="#D8BFD6"/>
<path d="M310.843 244.645V245.072C310.803 245.072 310.762 245.072 310.701 245.072V244.645C310.762 244.665 310.803 244.665 310.843 244.645Z" fill="#D6BBD4"/>
<path d="M310.701 244.664V245.091C310.66 245.091 310.62 245.091 310.579 245.091V244.664C310.62 244.664 310.66 244.664 310.701 244.664Z" fill="#D4B9D3"/>
<path d="M310.578 244.664V245.091C310.537 245.091 310.497 245.091 310.456 245.091V244.664C310.497 244.664 310.537 244.664 310.578 244.664Z" fill="#D2B5D0"/>
<path d="M310.476 244.665V245.092C310.435 245.092 310.395 245.092 310.354 245.072V244.645C310.395 244.645 310.435 244.645 310.476 244.665Z" fill="#D0B2CE"/>
<path d="M310.355 244.643V245.071C310.314 245.071 310.274 245.05 310.233 245.05V244.623C310.274 244.623 310.314 244.643 310.355 244.643Z" fill="#CFAFCD"/>
<path d="M310.232 244.623V245.05C310.191 245.05 310.151 245.03 310.11 245.009V244.582C310.151 244.602 310.191 244.623 310.232 244.623Z" fill="#CDACCA"/>
<path d="M310.111 244.584V245.011C310.07 244.991 310.009 244.97 309.968 244.97V244.543C310.009 244.563 310.05 244.584 310.111 244.584Z" fill="#CBAAC9"/>
<path d="M309.947 244.542V244.97C309.886 244.949 309.825 244.909 309.764 244.888V244.461C309.846 244.481 309.886 244.522 309.947 244.542Z" fill="#C9A6C7"/>
<path d="M314.24 241.877C314.708 242.142 314.708 242.589 314.24 242.854L311.493 244.441C310.19 245.398 306.751 242.488 305.631 242.06C305.163 241.796 305.163 241.348 305.631 241.063L308.379 239.475C309.661 238.539 313.121 241.45 314.24 241.877Z" fill="white"/>
<path d="M312.228 245.865V246.293C311.801 246.069 311.862 245.723 311.882 245.377C311.882 245.56 312.004 245.723 312.228 245.865Z" fill="#C9A6C7"/>
<path d="M321.202 246.254C321.202 246.315 321.223 246.702 321.182 246.742C321.182 246.681 321.162 246.295 321.202 246.254Z" fill="#D2B5D0"/>
<path d="M321.182 246.314C321.182 246.376 321.202 246.762 321.141 246.803C321.141 246.762 321.121 246.355 321.182 246.314Z" fill="#D4B9D3"/>
<path d="M321.141 246.396C321.141 246.458 321.182 246.844 321.1 246.885V246.458C321.121 246.437 321.121 246.417 321.141 246.396Z" fill="#D6BBD4"/>
<path d="M321.101 246.457V246.884C321.081 246.905 321.06 246.945 321.02 246.966V246.538C321.04 246.518 321.081 246.477 321.101 246.457Z" fill="#D8BFD6"/>
<path d="M321.019 246.539V246.966C320.979 247.007 320.918 247.048 320.857 247.089V246.661C320.918 246.62 320.979 246.58 321.019 246.539Z" fill="#D9C1D8"/>
<path d="M320.877 246.66V247.088C320.877 247.088 320.877 247.088 320.857 247.088L320.877 246.66C320.857 246.66 320.857 246.66 320.877 246.66Z" fill="#DCC5DA"/>
<path d="M320.855 246.66V247.088L318.087 248.675V248.248L320.855 246.66Z" fill="#E0CDDF"/>
<path d="M316.38 248.246V248.674L312.228 246.293V245.865L316.38 248.246Z" fill="#CBAAC9"/>
<path d="M318.089 248.246V248.673C318.008 248.714 317.926 248.755 317.825 248.796V248.368C317.926 248.348 318.008 248.307 318.089 248.246Z" fill="#DCC5DA"/>
<path d="M317.823 248.369V248.797C317.742 248.817 317.681 248.837 317.599 248.858V248.43C317.681 248.41 317.762 248.389 317.823 248.369Z" fill="#D9C1D8"/>
<path d="M317.6 248.43V248.857C317.56 248.857 317.499 248.877 317.438 248.877V248.45C317.499 248.45 317.56 248.43 317.6 248.43Z" fill="#D8BFD6"/>
<path d="M317.458 248.449V248.877C317.417 248.877 317.377 248.877 317.316 248.877V248.449C317.356 248.449 317.397 248.449 317.458 248.449Z" fill="#D6BBD4"/>
<path d="M317.316 248.449V248.877C317.275 248.877 317.234 248.877 317.194 248.877V248.449C317.234 248.449 317.275 248.449 317.316 248.449Z" fill="#D4B9D3"/>
<path d="M317.193 248.449V248.877C317.152 248.877 317.111 248.877 317.071 248.877V248.449C317.111 248.449 317.152 248.449 317.193 248.449Z" fill="#D2B5D0"/>
<path d="M317.071 248.45V248.877C317.03 248.877 316.989 248.877 316.949 248.857V248.43C316.989 248.45 317.03 248.45 317.071 248.45Z" fill="#D0B2CE"/>
<path d="M316.949 248.429V248.856C316.908 248.856 316.867 248.836 316.827 248.836V248.408C316.867 248.429 316.908 248.429 316.949 248.429Z" fill="#CFAFCD"/>
<path d="M316.826 248.41V248.837C316.785 248.837 316.744 248.817 316.704 248.797V248.369C316.744 248.389 316.785 248.41 316.826 248.41Z" fill="#CDACCA"/>
<path d="M316.704 248.388V248.816C316.663 248.795 316.602 248.775 316.562 248.775V248.348C316.602 248.348 316.663 248.368 316.704 248.388Z" fill="#CBAAC9"/>
<path d="M316.562 248.328V248.755C316.501 248.735 316.44 248.694 316.379 248.673V248.246C316.44 248.287 316.501 248.307 316.562 248.328Z" fill="#C9A6C7"/>
<path d="M320.834 245.683C321.302 245.947 321.302 246.395 320.834 246.66L318.087 248.247C316.784 249.204 313.345 246.273 312.225 245.866C311.757 245.601 311.757 245.154 312.225 244.889L314.973 243.302C316.275 242.325 319.715 245.255 320.834 245.683Z" fill="white"/>
<path d="M318.842 249.67V250.097C318.414 249.874 318.475 249.528 318.496 249.182C318.475 249.344 318.598 249.528 318.842 249.67Z" fill="#C9A6C7"/>
<path d="M327.796 250.037C327.796 250.098 327.816 250.485 327.776 250.526C327.776 250.485 327.776 250.078 327.796 250.037Z" fill="#D2B5D0"/>
<path d="M327.777 250.117C327.777 250.178 327.797 250.565 327.736 250.606C327.756 250.545 327.736 250.158 327.777 250.117Z" fill="#D4B9D3"/>
<path d="M327.736 250.18C327.736 250.241 327.776 250.627 327.695 250.668V250.241C327.715 250.22 327.736 250.2 327.736 250.18Z" fill="#D6BBD4"/>
<path d="M327.695 250.26V250.687C327.675 250.707 327.655 250.748 327.614 250.769V250.341C327.655 250.3 327.675 250.28 327.695 250.26Z" fill="#D8BFD6"/>
<path d="M327.614 250.322V250.75C327.573 250.79 327.512 250.831 327.451 250.872V250.444C327.532 250.404 327.573 250.363 327.614 250.322Z" fill="#D9C1D8"/>
<path d="M327.471 250.443V250.871C327.471 250.871 327.471 250.871 327.451 250.871L327.471 250.443C327.471 250.443 327.451 250.443 327.471 250.443Z" fill="#DCC5DA"/>
<path d="M327.449 250.443V250.871L324.702 252.479V252.051L327.449 250.443Z" fill="#E0CDDF"/>
<path d="M322.993 252.053V252.48L318.841 250.079V249.672L322.993 252.053Z" fill="#CBAAC9"/>
<path d="M324.701 252.053V252.48C324.62 252.521 324.538 252.562 324.437 252.602V252.175C324.518 252.134 324.62 252.093 324.701 252.053Z" fill="#DCC5DA"/>
<path d="M324.438 252.154V252.582C324.356 252.602 324.295 252.622 324.214 252.643V252.215C324.275 252.215 324.356 252.195 324.438 252.154Z" fill="#D9C1D8"/>
<path d="M324.193 252.215V252.642C324.152 252.642 324.091 252.663 324.03 252.663V252.235C324.091 252.235 324.152 252.235 324.193 252.215Z" fill="#D8BFD6"/>
<path d="M324.05 252.236V252.664C324.01 252.664 323.969 252.664 323.908 252.664V252.236C323.969 252.257 324.01 252.257 324.05 252.236Z" fill="#D6BBD4"/>
<path d="M323.908 252.256V252.683C323.867 252.683 323.827 252.683 323.786 252.683V252.256C323.827 252.256 323.867 252.256 323.908 252.256Z" fill="#D4B9D3"/>
<path d="M323.786 252.256V252.683C323.745 252.683 323.705 252.683 323.664 252.683V252.256C323.705 252.256 323.745 252.256 323.786 252.256Z" fill="#D2B5D0"/>
<path d="M323.664 252.235V252.663C323.623 252.663 323.583 252.663 323.542 252.642V252.215C323.583 252.235 323.623 252.235 323.664 252.235Z" fill="#D0B2CE"/>
<path d="M323.562 252.235V252.663C323.521 252.663 323.481 252.642 323.44 252.642V252.215C323.481 252.215 323.521 252.235 323.562 252.235Z" fill="#CFAFCD"/>
<path d="M323.44 252.216V252.644C323.399 252.644 323.359 252.624 323.318 252.603V252.176C323.359 252.196 323.399 252.196 323.44 252.216Z" fill="#CDACCA"/>
<path d="M323.297 252.175V252.603C323.257 252.583 323.196 252.562 323.155 252.562V252.135C323.216 252.155 323.257 252.175 323.297 252.175Z" fill="#CBAAC9"/>
<path d="M323.155 252.134V252.562C323.094 252.541 323.033 252.5 322.972 252.48V252.053C323.033 252.073 323.094 252.114 323.155 252.134Z" fill="#C9A6C7"/>
<path d="M327.451 249.467C327.919 249.732 327.919 250.18 327.451 250.444L324.703 252.032C323.401 252.988 319.961 250.078 318.842 249.651C318.374 249.386 318.374 248.938 318.842 248.674L321.589 247.086C322.872 246.13 326.331 249.04 327.451 249.467Z" fill="white"/>
<path d="M325.437 253.457V253.885C325.009 253.661 325.07 253.315 325.07 252.969C325.091 253.132 325.192 253.315 325.437 253.457Z" fill="#C9A6C7"/>
<path d="M334.409 253.762C334.409 253.823 334.409 254.209 334.409 254.25C334.389 254.209 334.389 253.802 334.409 253.762Z" fill="#D0B2CE"/>
<path d="M334.388 253.844C334.388 253.905 334.408 254.291 334.367 254.332C334.388 254.271 334.367 253.884 334.388 253.844Z" fill="#D2B5D0"/>
<path d="M334.389 253.904C334.389 253.965 334.409 254.352 334.348 254.393C334.348 254.332 334.328 253.945 334.389 253.904Z" fill="#D4B9D3"/>
<path d="M334.348 253.965C334.348 254.026 334.389 254.413 334.307 254.453V254.026C334.307 254.026 334.328 254.006 334.348 253.965Z" fill="#D6BBD4"/>
<path d="M334.307 254.047V254.474C334.286 254.495 334.266 254.535 334.225 254.556V254.128C334.246 254.108 334.266 254.067 334.307 254.047Z" fill="#D8BFD6"/>
<path d="M334.226 254.129V254.556C334.186 254.597 334.125 254.638 334.063 254.678V254.251C334.125 254.21 334.186 254.17 334.226 254.129Z" fill="#D9C1D8"/>
<path d="M334.063 254.23V254.658C334.063 254.658 334.063 254.658 334.042 254.658L334.063 254.23C334.063 254.251 334.063 254.251 334.063 254.23Z" fill="#DCC5DA"/>
<path d="M334.064 254.25V254.677L331.296 256.265V255.837L334.064 254.25Z" fill="#E0CDDF"/>
<path d="M329.588 255.838V256.266L325.436 253.884V253.457L329.588 255.838Z" fill="#CBAAC9"/>
<path d="M331.297 255.838V256.265C331.216 256.306 331.134 256.347 331.033 256.387V255.96C331.134 255.919 331.216 255.899 331.297 255.838Z" fill="#DCC5DA"/>
<path d="M331.032 255.961V256.388C330.951 256.409 330.89 256.429 330.809 256.449V256.022C330.89 256.002 330.971 255.981 331.032 255.961Z" fill="#D9C1D8"/>
<path d="M330.808 256.021V256.449C330.768 256.449 330.707 256.469 330.646 256.469V256.042C330.707 256.042 330.747 256.021 330.808 256.021Z" fill="#D8BFD6"/>
<path d="M330.646 256.041V256.468C330.606 256.468 330.565 256.468 330.504 256.468V256.041C330.565 256.041 330.606 256.041 330.646 256.041Z" fill="#D6BBD4"/>
<path d="M330.525 256.041V256.468C330.484 256.468 330.444 256.468 330.403 256.468V256.041C330.444 256.041 330.484 256.041 330.525 256.041Z" fill="#D4B9D3"/>
<path d="M330.402 256.041V256.468C330.361 256.468 330.321 256.468 330.28 256.468V256.041C330.321 256.041 330.361 256.041 330.402 256.041Z" fill="#D2B5D0"/>
<path d="M330.28 256.042V256.469C330.239 256.469 330.199 256.469 330.158 256.449V256.021C330.199 256.042 330.239 256.042 330.28 256.042Z" fill="#D0B2CE"/>
<path d="M330.158 256.02V256.448C330.117 256.448 330.077 256.427 330.036 256.427V256C330.077 256.02 330.117 256.02 330.158 256.02Z" fill="#CFAFCD"/>
<path d="M330.035 256.002V256.429C329.994 256.429 329.954 256.409 329.913 256.388V255.961C329.954 255.981 329.994 256.002 330.035 256.002Z" fill="#CDACCA"/>
<path d="M329.913 255.98V256.408C329.873 256.387 329.812 256.367 329.771 256.367V255.939C329.812 255.939 329.852 255.96 329.913 255.98Z" fill="#CBAAC9"/>
<path d="M329.771 255.919V256.347C329.71 256.326 329.649 256.286 329.588 256.265V255.838C329.649 255.879 329.71 255.899 329.771 255.919Z" fill="#C9A6C7"/>
<path d="M334.044 253.253C334.512 253.517 334.512 253.965 334.044 254.23L331.296 255.817C329.994 256.774 326.554 253.863 325.435 253.436C324.967 253.172 324.967 252.724 325.435 252.439L328.182 250.851C329.485 249.915 332.924 252.846 334.044 253.253Z" fill="white"/>
<path d="M299.853 245.418V245.846C299.426 245.622 299.487 245.276 299.487 244.93C299.507 245.093 299.63 245.276 299.853 245.418Z" fill="#C9A6C7"/>
<path d="M308.826 245.725C308.826 245.786 308.826 246.172 308.826 246.213C308.806 246.172 308.806 245.765 308.826 245.725Z" fill="#D0B2CE"/>
<path d="M308.826 245.807C308.826 245.868 308.847 246.254 308.806 246.295C308.806 246.234 308.786 245.827 308.826 245.807Z" fill="#D2B5D0"/>
<path d="M308.806 245.867C308.806 245.928 308.827 246.315 308.765 246.356C308.765 246.295 308.745 245.908 308.806 245.867Z" fill="#D4B9D3"/>
<path d="M308.765 245.928C308.765 245.989 308.806 246.375 308.725 246.416V245.989C308.745 245.989 308.745 245.948 308.765 245.928Z" fill="#D6BBD4"/>
<path d="M308.724 246.01V246.437C308.704 246.457 308.683 246.498 308.642 246.519V246.091C308.663 246.05 308.704 246.03 308.724 246.01Z" fill="#D8BFD6"/>
<path d="M308.642 246.092V246.519C308.602 246.56 308.541 246.601 308.479 246.641V246.214C308.541 246.173 308.602 246.133 308.642 246.092Z" fill="#D9C1D8"/>
<path d="M308.48 246.193V246.621C308.48 246.621 308.48 246.621 308.46 246.621L308.48 246.193C308.48 246.193 308.48 246.214 308.48 246.193Z" fill="#DCC5DA"/>
<path d="M308.481 246.213V246.62L305.713 248.228V247.8L308.481 246.213Z" fill="#E0CDDF"/>
<path d="M304.004 247.799V248.226L299.852 245.845V245.418L304.004 247.799Z" fill="#CBAAC9"/>
<path d="M305.715 247.801V248.228C305.633 248.269 305.552 248.31 305.45 248.35V247.923C305.552 247.882 305.633 247.841 305.715 247.801Z" fill="#DCC5DA"/>
<path d="M305.451 247.922V248.349C305.37 248.37 305.309 248.39 305.227 248.41V247.983C305.309 247.963 305.39 247.942 305.451 247.922Z" fill="#D9C1D8"/>
<path d="M305.226 247.963V248.39C305.185 248.39 305.124 248.411 305.063 248.411V247.983C305.124 247.983 305.185 247.983 305.226 247.963Z" fill="#D8BFD6"/>
<path d="M305.064 248.004V248.431C305.023 248.431 304.982 248.431 304.921 248.431V248.004C304.982 248.004 305.023 248.004 305.064 248.004Z" fill="#D6BBD4"/>
<path d="M304.942 248.004V248.431C304.902 248.431 304.861 248.431 304.82 248.431V248.004C304.861 248.004 304.902 248.004 304.942 248.004Z" fill="#D4B9D3"/>
<path d="M304.819 248.004V248.431C304.779 248.431 304.738 248.431 304.697 248.431V248.004C304.738 248.004 304.779 248.004 304.819 248.004Z" fill="#D2B5D0"/>
<path d="M304.697 248.005V248.432C304.657 248.432 304.616 248.432 304.575 248.412V247.984C304.616 247.984 304.657 248.005 304.697 248.005Z" fill="#D0B2CE"/>
<path d="M304.575 247.983V248.411C304.535 248.411 304.494 248.39 304.453 248.39V247.963C304.494 247.963 304.535 247.983 304.575 247.983Z" fill="#CFAFCD"/>
<path d="M304.453 247.963V248.39C304.413 248.39 304.372 248.37 304.331 248.349V247.922C304.372 247.942 304.413 247.963 304.453 247.963Z" fill="#CDACCA"/>
<path d="M304.332 247.924V248.351C304.291 248.331 304.23 248.31 304.189 248.31V247.883C304.23 247.903 304.291 247.924 304.332 247.924Z" fill="#CBAAC9"/>
<path d="M304.189 247.882V248.31C304.127 248.289 304.066 248.249 304.005 248.228V247.801C304.066 247.841 304.127 247.862 304.189 247.882Z" fill="#C9A6C7"/>
<path d="M308.462 245.216C308.93 245.48 308.93 245.928 308.462 246.192L305.715 247.78C304.432 248.736 300.973 245.806 299.853 245.399C299.385 245.134 299.385 244.686 299.853 244.422L302.601 242.834C303.903 241.878 307.343 244.788 308.462 245.216Z" fill="white"/>
<path d="M306.465 249.203V249.631C306.038 249.407 306.099 249.061 306.119 248.715C306.099 248.898 306.221 249.061 306.465 249.203Z" fill="#C9A6C7"/>
<path d="M315.42 249.592C315.42 249.653 315.44 250.04 315.399 250.08C315.399 250.04 315.399 249.633 315.42 249.592Z" fill="#D2B5D0"/>
<path d="M315.399 249.652C315.399 249.713 315.419 250.1 315.358 250.141C315.379 250.1 315.358 249.693 315.399 249.652Z" fill="#D4B9D3"/>
<path d="M315.358 249.734C315.358 249.795 315.399 250.182 315.317 250.223V249.795C315.338 249.775 315.358 249.755 315.358 249.734Z" fill="#D6BBD4"/>
<path d="M315.318 249.795V250.222C315.297 250.243 315.277 250.283 315.236 250.304V249.876C315.277 249.856 315.297 249.836 315.318 249.795Z" fill="#D8BFD6"/>
<path d="M315.236 249.877V250.304C315.195 250.345 315.134 250.386 315.073 250.426V249.999C315.155 249.958 315.195 249.918 315.236 249.877Z" fill="#D9C1D8"/>
<path d="M315.094 249.998V250.425C315.094 250.425 315.094 250.425 315.073 250.425L315.094 249.998C315.094 249.998 315.073 249.998 315.094 249.998Z" fill="#DCC5DA"/>
<path d="M315.076 249.998V250.425L312.328 252.013V251.585L315.076 249.998Z" fill="#E0CDDF"/>
<path d="M310.619 251.584V252.012L306.467 249.631V249.203L310.619 251.584Z" fill="#CBAAC9"/>
<path d="M312.327 251.584V252.011C312.246 252.052 312.164 252.093 312.063 252.133V251.706C312.144 251.686 312.246 251.645 312.327 251.584Z" fill="#DCC5DA"/>
<path d="M312.061 251.707V252.134C311.98 252.155 311.919 252.175 311.837 252.195V251.768C311.899 251.748 311.98 251.727 312.061 251.707Z" fill="#D9C1D8"/>
<path d="M311.838 251.768V252.195C311.798 252.195 311.737 252.215 311.676 252.215V251.788C311.716 251.788 311.777 251.768 311.838 251.768Z" fill="#D8BFD6"/>
<path d="M311.675 251.787V252.214C311.634 252.214 311.594 252.214 311.533 252.214V251.787C311.594 251.787 311.634 251.787 311.675 251.787Z" fill="#D6BBD4"/>
<path d="M311.534 251.787V252.214C311.493 252.214 311.452 252.214 311.412 252.214V251.787C311.452 251.787 311.493 251.787 311.534 251.787Z" fill="#D4B9D3"/>
<path d="M311.411 251.787V252.214C311.37 252.214 311.329 252.214 311.289 252.214V251.787C311.329 251.787 311.37 251.787 311.411 251.787Z" fill="#D2B5D0"/>
<path d="M311.29 251.788V252.215C311.249 252.215 311.209 252.215 311.168 252.195V251.768C311.229 251.788 311.249 251.788 311.29 251.788Z" fill="#D0B2CE"/>
<path d="M311.188 251.766V252.194C311.147 252.194 311.107 252.173 311.066 252.173V251.746C311.107 251.766 311.147 251.766 311.188 251.766Z" fill="#CFAFCD"/>
<path d="M311.064 251.748V252.175C311.023 252.175 310.982 252.155 310.942 252.134V251.707C310.982 251.748 311.023 251.748 311.064 251.748Z" fill="#CDACCA"/>
<path d="M310.943 251.726V252.154C310.903 252.133 310.842 252.113 310.801 252.113V251.686C310.842 251.686 310.882 251.706 310.943 251.726Z" fill="#CBAAC9"/>
<path d="M310.78 251.665V252.093C310.719 252.072 310.658 252.032 310.597 252.011V251.584C310.658 251.625 310.719 251.645 310.78 251.665Z" fill="#C9A6C7"/>
<path d="M315.074 249.021C315.542 249.285 315.542 249.733 315.074 249.998L312.327 251.585C311.045 252.542 307.585 249.611 306.466 249.204C305.997 248.939 305.997 248.492 306.466 248.227L309.213 246.64C310.495 245.663 313.935 248.593 315.074 249.021Z" fill="white"/>
<path d="M313.065 253.008V253.435C312.637 253.211 312.698 252.866 312.698 252.52C312.698 252.682 312.821 252.866 313.065 253.008Z" fill="#C9A6C7"/>
<path d="M322.037 253.312C322.037 253.374 322.037 253.76 322.037 253.801C322.017 253.76 322.017 253.353 322.037 253.312Z" fill="#D0B2CE"/>
<path d="M322.017 253.375C322.017 253.436 322.037 253.823 321.996 253.863C321.996 253.823 321.997 253.416 322.017 253.375Z" fill="#D2B5D0"/>
<path d="M321.996 253.455C321.996 253.516 322.017 253.903 321.955 253.944C321.976 253.882 321.955 253.496 321.996 253.455Z" fill="#D4B9D3"/>
<path d="M321.976 253.518C321.976 253.579 322.017 253.965 321.936 254.006V253.579C321.936 253.558 321.956 253.538 321.976 253.518Z" fill="#D6BBD4"/>
<path d="M321.915 253.598V254.025C321.895 254.045 321.874 254.086 321.834 254.106V253.679C321.874 253.638 321.895 253.618 321.915 253.598Z" fill="#D8BFD6"/>
<path d="M321.853 253.68V254.107C321.813 254.148 321.752 254.188 321.69 254.229V253.802C321.752 253.741 321.813 253.72 321.853 253.68Z" fill="#D9C1D8"/>
<path d="M321.691 253.781V254.209C321.691 254.209 321.691 254.209 321.671 254.209L321.691 253.781Z" fill="#DCC5DA"/>
<path d="M321.692 253.803L321.672 254.21L318.924 255.818V255.39L321.692 253.803Z" fill="#E0CDDF"/>
<path d="M317.215 255.391V255.818L313.063 253.417V253.01L317.215 255.391Z" fill="#CBAAC9"/>
<path d="M318.923 255.391V255.818C318.841 255.859 318.76 255.899 318.658 255.94V255.513C318.76 255.472 318.841 255.431 318.923 255.391Z" fill="#DCC5DA"/>
<path d="M318.658 255.514V255.941C318.577 255.961 318.516 255.982 318.434 256.002V255.575C318.516 255.554 318.597 255.534 318.658 255.514Z" fill="#D9C1D8"/>
<path d="M318.434 255.553V255.98C318.393 255.98 318.332 256 318.271 256V255.573C318.332 255.573 318.373 255.573 318.434 255.553Z" fill="#D8BFD6"/>
<path d="M318.272 255.574V256.002C318.231 256.002 318.19 256.002 318.129 256.002V255.574C318.19 255.595 318.231 255.595 318.272 255.574Z" fill="#D6BBD4"/>
<path d="M318.151 255.594V256.021C318.11 256.021 318.069 256.021 318.028 256.021V255.594C318.069 255.594 318.11 255.594 318.151 255.594Z" fill="#D4B9D3"/>
<path d="M318.028 255.594V256.021C317.987 256.021 317.946 256.021 317.905 256.021V255.594C317.946 255.594 317.987 255.594 318.028 255.594Z" fill="#D2B5D0"/>
<path d="M317.906 255.595V256.022C317.865 256.022 317.824 256.022 317.783 256.002V255.574C317.824 255.574 317.865 255.574 317.906 255.595Z" fill="#D0B2CE"/>
<path d="M317.784 255.573V256C317.743 256 317.702 255.98 317.661 255.98V255.553C317.702 255.553 317.743 255.573 317.784 255.573Z" fill="#CFAFCD"/>
<path d="M317.661 255.554V255.982C317.62 255.982 317.579 255.961 317.538 255.941V255.514C317.579 255.534 317.62 255.534 317.661 255.554Z" fill="#CDACCA"/>
<path d="M317.539 255.513V255.941C317.498 255.92 317.437 255.9 317.397 255.9V255.473C317.437 255.493 317.478 255.513 317.539 255.513Z" fill="#CBAAC9"/>
<path d="M317.397 255.472V255.899C317.336 255.879 317.275 255.838 317.214 255.818V255.391C317.275 255.411 317.336 255.452 317.397 255.472Z" fill="#C9A6C7"/>
<path d="M321.671 252.805C322.139 253.07 322.139 253.518 321.671 253.782L318.924 255.37C317.642 256.326 314.182 253.396 313.063 252.989C312.594 252.724 312.594 252.276 313.063 252.012L315.81 250.424C317.112 249.468 320.552 252.378 321.671 252.805Z" fill="white"/>
<path d="M319.676 256.795V257.222C319.248 256.999 319.309 256.653 319.309 256.307C319.309 256.469 319.431 256.653 319.676 256.795Z" fill="#C9A6C7"/>
<path d="M328.63 257.184C328.63 257.245 328.651 257.631 328.61 257.672C328.61 257.611 328.59 257.224 328.63 257.184Z" fill="#D2B5D0"/>
<path d="M328.61 257.244C328.61 257.305 328.63 257.692 328.569 257.733C328.569 257.672 328.549 257.285 328.61 257.244Z" fill="#D4B9D3"/>
<path d="M328.57 257.326C328.57 257.387 328.611 257.774 328.529 257.815V257.387C328.55 257.367 328.57 257.347 328.57 257.326Z" fill="#D6BBD4"/>
<path d="M328.529 257.387V257.814C328.509 257.834 328.488 257.875 328.447 257.896V257.468C328.488 257.448 328.509 257.407 328.529 257.387Z" fill="#D8BFD6"/>
<path d="M328.447 257.469V257.896C328.407 257.937 328.346 257.978 328.284 258.018V257.591C328.366 257.55 328.407 257.509 328.447 257.469Z" fill="#D9C1D8"/>
<path d="M328.305 257.59V258.017C328.305 258.017 328.305 258.017 328.284 258.017L328.305 257.59C328.284 257.59 328.284 257.59 328.305 257.59Z" fill="#DCC5DA"/>
<path d="M328.284 257.59V258.017L325.537 259.605V259.177L328.284 257.59Z" fill="#E0CDDF"/>
<path d="M323.827 259.176V259.603L319.655 257.222L319.676 256.795L323.827 259.176Z" fill="#CBAAC9"/>
<path d="M325.537 259.176V259.603C325.456 259.644 325.375 259.685 325.273 259.725V259.298C325.354 259.257 325.456 259.237 325.537 259.176Z" fill="#DCC5DA"/>
<path d="M325.272 259.299V259.726C325.19 259.747 325.129 259.767 325.048 259.787V259.36C325.109 259.34 325.19 259.319 325.272 259.299Z" fill="#D9C1D8"/>
<path d="M325.029 259.359V259.787C324.988 259.787 324.927 259.807 324.866 259.807V259.38C324.927 259.38 324.988 259.359 325.029 259.359Z" fill="#D8BFD6"/>
<path d="M324.886 259.379V259.806C324.846 259.806 324.805 259.806 324.744 259.806V259.379C324.785 259.379 324.846 259.379 324.886 259.379Z" fill="#D6BBD4"/>
<path d="M324.744 259.379V259.806C324.703 259.806 324.663 259.806 324.622 259.806V259.379C324.663 259.379 324.703 259.379 324.744 259.379Z" fill="#D4B9D3"/>
<path d="M324.621 259.379V259.806C324.58 259.806 324.54 259.806 324.499 259.806V259.379C324.54 259.379 324.58 259.379 324.621 259.379Z" fill="#D2B5D0"/>
<path d="M324.499 259.38V259.807C324.458 259.807 324.418 259.807 324.377 259.787V259.359C324.418 259.38 324.458 259.38 324.499 259.38Z" fill="#D0B2CE"/>
<path d="M324.377 259.358V259.786C324.336 259.786 324.296 259.765 324.255 259.765V259.338C324.316 259.358 324.336 259.358 324.377 259.358Z" fill="#CFAFCD"/>
<path d="M324.275 259.34V259.767C324.234 259.767 324.194 259.747 324.153 259.726V259.299C324.173 259.319 324.214 259.34 324.275 259.34Z" fill="#CDACCA"/>
<path d="M324.133 259.318V259.745C324.092 259.725 324.031 259.705 323.99 259.705V259.277C324.031 259.277 324.092 259.298 324.133 259.318Z" fill="#CBAAC9"/>
<path d="M323.991 259.257V259.685C323.929 259.664 323.868 259.624 323.807 259.603V259.176C323.868 259.216 323.929 259.237 323.991 259.257Z" fill="#C9A6C7"/>
<path d="M328.283 256.612C328.751 256.877 328.751 257.325 328.283 257.589L325.536 259.177C324.253 260.133 320.794 257.203 319.674 256.796C319.206 256.531 319.206 256.083 319.674 255.819L322.422 254.231C323.704 253.254 327.143 256.185 328.283 256.612Z" fill="#F65841"/>
<path d="M317.251 230.888C317.23 231.153 317.027 231.336 316.803 231.479L297.754 242.489C297.571 242.591 297.367 242.652 297.184 242.692C296.655 242.794 296.044 242.753 295.576 242.489C295.21 242.122 291.363 240.454 291.506 239.782C291.506 240.209 291.445 240.576 291.954 240.84L295.556 242.916C296.105 243.221 296.797 243.242 297.408 243.059C297.978 242.855 316.416 232.089 316.945 231.784C317.271 231.58 317.251 231.173 317.23 230.848C317.251 230.848 317.251 230.868 317.251 230.888Z" fill="#004166"/>
<path d="M316.783 230.195C317.393 230.541 317.393 231.111 316.783 231.457L297.734 242.467C296.167 243.566 293.277 240.961 291.934 240.392C291.323 240.046 291.323 239.476 291.934 239.13L310.983 228.12C312.57 227.021 315.44 229.646 316.783 230.195Z" fill="#D5E8F5"/>
<path d="M401.651 238.684C401.692 238.928 399.066 240.251 398.903 240.393V241.248C398.985 241.187 401.631 239.701 401.59 239.64C401.732 239.518 401.651 238.745 401.671 238.582C401.651 238.623 401.651 238.663 401.651 238.684Z" fill="#8CC1E3"/>
<path opacity="0.15" d="M165.945 348.626L283.211 280.855L263.063 269.234L145.797 337.005L165.945 348.626Z" fill="#808080"/>
<path d="M162.77 132.186V322.88C162.77 333.178 174.024 339.304 182.613 334.155L253.864 291.743C259.929 288.12 263.673 281.587 263.673 274.505V81.2258C263.673 77.9085 262.635 74.9778 260.905 72.617C256.693 66.7965 248.389 64.4357 241.409 68.6078L176.975 107.133C168.163 112.404 162.77 121.909 162.77 132.186Z" fill="#005D92"/>
<path d="M169.874 146.676L263.654 92.2969V263.148L169.874 317.06V146.676Z" fill="#FDDEB2"/>
<path d="M173.068 315.35L260.457 264.898V94.25L173.068 144.702V315.35Z" fill="#FDDEB2"/>
<path d="M169.873 317.06C169.833 317.976 169.853 329.088 169.955 329.678C170.647 335.926 177.912 337.432 182.593 334.155L253.844 291.742C264.406 286.064 264.04 273.507 263.653 263.148C236.484 278.778 197.165 301.389 169.873 317.06Z" fill="white"/>
<path d="M169.874 137.478C169.874 127.2 175.287 117.676 184.099 112.405L248.512 73.8996C254.394 69.7683 263.226 72.5564 263.633 80.2493C263.878 79.944 263.532 92.0736 263.674 92.2975L169.874 146.677V137.478Z" fill="white"/>
<path d="M169.873 137.478C169.954 151.5 169.73 316.43 169.954 329.678C170.402 333.769 174.208 336.557 178.237 335.804C179.703 335.54 181.168 334.99 182.593 334.156L253.843 291.743C259.908 288.121 263.653 281.588 263.653 274.505C263.633 259.181 263.714 95.4724 263.612 80.2494C263.185 72.5972 254.393 69.7276 248.491 73.8997L184.078 112.405C175.286 117.676 169.873 127.201 169.873 137.478ZM171.827 137.478C171.765 128.055 176.975 118.856 185.096 114.094L249.509 75.5889C254.596 72.0884 261.903 74.3474 261.699 81.2466V274.526C261.699 280.875 258.3 286.838 252.846 290.074L181.595 332.487C180.435 333.179 179.173 333.647 177.891 333.891C174.472 334.563 171.521 331.571 171.827 328.172C171.827 328.152 171.827 137.478 171.827 137.478Z" fill="white"/>
<path d="M203.82 166.539L253.6 137.783V109.209L203.82 137.945V166.539Z" fill="white"/>
<path d="M217.516 165.603L254.108 144.479V167.13L217.516 188.255V165.603ZM253.091 146.473L218.493 166.438V186.26L253.091 166.295V146.473Z" fill="white"/>
<path d="M179.886 157.178L192.24 150.055C192.769 149.75 193.196 148.895 193.196 148.162C193.196 147.409 192.769 147.063 192.24 147.369L179.886 154.492C179.011 154.756 178.319 157.789 179.886 157.178Z" fill="white"/>
<path d="M179.886 167.211L200.299 155.428C201.194 155.143 201.866 152.131 200.299 152.721L179.886 164.505C179.011 164.789 178.319 167.822 179.886 167.211Z" fill="white"/>
<path d="M180.334 188.459C180.965 187.523 206.017 175.088 204.43 173.195C204.43 172.442 204.003 172.096 203.473 172.402L180.334 185.773C179.438 186.058 178.746 189.07 180.334 188.459Z" fill="white"/>
<path d="M179.886 177.244L200.299 165.461C201.194 165.176 201.866 162.164 200.299 162.754L179.886 174.538C179.011 174.823 178.319 177.855 179.886 177.244Z" fill="white"/>
<path d="M223.173 168.554L244.502 156.242C244.827 156.058 245.092 155.529 245.092 155.082C245.886 152.68 223.214 167.394 223.173 166.906C222.624 167.069 222.196 168.921 223.173 168.554Z" fill="white"/>
<path d="M223.173 174.66L249.427 159.498C249.752 159.315 250.017 158.786 250.017 158.338C250.526 156.039 223.417 173.439 223.173 173.012C222.624 173.195 222.196 175.027 223.173 174.66Z" fill="white"/>
<path d="M223.173 180.785L249.427 165.623C249.752 165.44 250.017 164.911 250.017 164.463C250.526 162.164 223.397 179.564 223.173 179.137C222.624 179.3 222.196 181.152 223.173 180.785Z" fill="white"/>
<path d="M227.55 201.239L246.844 190.087V188.662L227.55 199.815V201.239Z" fill="white"/>
<path d="M227.55 206.672L251.28 192.975V191.551L227.55 205.268V206.672Z" fill="white"/>
<path d="M227.55 212.127L251.28 198.43V197.006L227.55 210.723V212.127Z" fill="white"/>
<path d="M180.475 268.399L254.005 225.946V224.521L180.475 266.975V268.399Z" fill="white"/>
<path d="M180.475 274.79L254.005 232.337V230.912L180.475 273.366V274.79Z" fill="white"/>
<path d="M180.475 281.181L254.005 238.727V237.303L180.475 279.756V281.181Z" fill="white"/>
<path d="M180.475 287.571L254.005 245.118V243.693L180.475 286.147V287.571Z" fill="white"/>
<path d="M180.17 195.215C180.455 194.442 214.707 176.777 212.57 175.149C212.57 174.396 212.142 174.05 211.613 174.355L180.15 192.508C179.295 192.793 178.603 195.805 180.17 195.215Z" fill="white"/>
<path d="M180.17 202.215C180.455 201.442 214.706 183.777 212.569 182.149C212.569 181.396 212.142 181.05 211.613 181.355L180.17 199.508C179.295 199.793 178.603 202.805 180.17 202.215Z" fill="white"/>
<path d="M180.17 209.196C180.455 208.422 214.707 190.757 212.57 189.129C212.57 188.376 212.142 188.03 211.613 188.335L180.15 206.489C179.295 206.794 178.603 209.806 180.17 209.196Z" fill="white"/>
<path d="M224.232 194.564L254.597 177.041V203.661L224.232 221.184V194.564V194.564ZM253.783 178.669L225.067 195.256V219.576L253.783 202.989V178.669Z" fill="white"/>
<path d="M179.927 220.146L225.067 194.096V233.456L179.927 259.506V220.146ZM224.233 195.724L180.741 220.838V257.878L224.233 232.764V195.724V195.724Z" fill="white"/>
<path d="M224.232 220.044L254.597 202.521V216.401L224.232 233.924V220.044V220.044ZM253.783 204.129L225.067 220.716V232.296L253.783 215.709V204.129Z" fill="white"/>
<path opacity="0.15" d="M243.252 398.432C227.5 408.445 201.938 408.445 186.165 398.432C170.393 388.419 170.393 372.199 186.165 362.206C210.954 342.2 283.934 365.422 243.252 398.432Z" fill="#808080"/>
<path d="M250.234 373.725L250.214 381.865H217.671L217.692 373.725H250.234Z" fill="#973D32"/>
<path d="M240.628 360.395C246.999 364.078 250.214 368.902 250.234 373.725H217.692L194.614 360.395C207.313 353.028 227.909 353.048 240.628 360.395Z" fill="white"/>
<path d="M217.691 373.725L217.671 381.865L194.592 368.535L194.612 360.395L217.691 373.725Z" fill="#999999"/>
<path d="M240.791 387.055L240.77 395.196L217.671 381.865L217.692 373.725L240.791 387.055Z" fill="#F87664"/>
<path d="M250.233 373.725C250.253 378.548 247.119 383.371 240.77 387.055L217.691 373.725H250.233Z" fill="#F65841"/>
<path d="M250.213 374.356C249.908 380.013 245.431 384.348 240.77 387.055L240.75 395.196C250.783 389.07 250.417 384.368 250.234 373.725C250.234 373.928 250.234 374.152 250.213 374.356Z" fill="#B94231"/>
<path d="M211.668 373.398L211.648 381.519L188.712 394.849L188.732 386.729L211.668 373.398Z" fill="#C65E50"/>
<path d="M211.667 373.399L188.731 386.729C176.011 379.402 175.869 367.456 188.588 360.068L211.667 373.399Z" fill="#FBB3A9"/>
<path d="M188.732 386.729L188.712 394.869C178.617 389.395 178.699 382.15 179.126 373.398C179.146 378.222 182.342 383.045 188.732 386.729Z" fill="#F87664"/>
<path d="M237.391 400.873C239.202 400.181 240.953 399.367 242.642 398.41L242.662 390.27C235.722 394.238 227.602 395.744 219.685 395.785L219.665 403.925C225.689 403.905 231.754 402.989 237.391 400.873Z" fill="#3992D8"/>
<path d="M219.685 395.785L219.665 403.926C219.624 398.309 219.522 382.312 219.583 376.939L219.685 395.785Z" fill="#7E581E"/>
<path d="M242.663 390.25C236.333 393.934 228.009 395.765 219.686 395.765L219.584 376.92L242.663 390.25Z" fill="#8CC1E3"/>
<path d="M216.307 392.55C208.858 392.326 201.287 390.759 194.754 387.055L194.734 395.195C201.694 399.144 209.835 400.67 217.772 400.711L217.792 392.57C217.304 392.57 216.816 392.57 216.307 392.55Z" fill="#3992D8"/>
<path d="M217.691 373.725L217.793 392.57C209.469 392.57 201.125 390.739 194.755 387.055L217.691 373.725Z" fill="#005D92"/>
<path d="M289.927 302.264C285.734 299.577 282.01 295.08 281.725 289.951L212.916 329.942C213.201 335.172 217.048 339.751 221.362 342.418L290.171 302.427C290.089 302.366 290.008 302.305 289.927 302.264Z" fill="white"/>
<path d="M229.32 322.615C226.837 324.06 223.825 325.81 221.362 327.255C221.627 328.212 221.993 329.535 223.296 331.57C225.779 330.125 228.791 328.375 231.253 326.93C230.663 325.953 229.829 324.589 229.32 322.615Z" fill="#8CC1E3"/>
<path d="M279.425 293.514C271.712 297.991 263.999 302.468 256.285 306.966C256.55 307.882 256.55 307.882 256.733 308.37C264.446 303.893 272.16 299.416 279.873 294.918C279.547 294.002 279.547 293.982 279.425 293.514Z" fill="#8CC1E3"/>
<path d="M280.545 296.424C266.299 304.707 252.053 312.99 237.807 321.273C238.315 322.189 238.315 322.209 238.621 322.677C252.867 314.394 267.113 306.111 281.359 297.828C280.809 296.933 280.789 296.912 280.545 296.424Z" fill="#8CC1E3"/>
<path d="M229.544 337.655C228.587 337.064 227.264 336.25 225.534 334.439C228.2 332.892 230.846 331.346 233.492 329.799C234.306 330.613 235.507 331.854 237.501 333.014L229.544 337.655Z" fill="#8CC1E3"/>
<path d="M283.597 300.697C275.884 305.175 268.171 309.652 260.457 314.15C261.231 314.943 261.251 314.964 261.699 315.35C269.392 310.873 277.146 306.375 284.839 301.898C284.025 301.145 284.004 301.125 283.597 300.697Z" fill="#8CC1E3"/>
<path d="M244.868 328.762C244.461 328.498 243.911 328.152 243.504 327.867C257.75 319.584 271.996 311.301 286.243 303.018C286.65 303.303 287.199 303.648 287.606 303.913L244.868 328.762Z" fill="#8CC1E3"/>
<path d="M221.383 342.397L290.191 302.406L298.515 307.23L229.706 347.2L221.383 342.397Z" fill="white"/>
<path d="M236.424 348.116L305.232 308.125C303.075 309.285 300.49 308.328 298.516 307.209L229.707 347.2C231.682 348.319 234.266 349.276 236.424 348.116Z" fill="white"/>
<path d="M238.661 344.78L307.47 304.789V304.809L238.661 344.78C238.661 344.78 238.661 344.8 238.661 344.78Z" fill="#B8B8B8"/>
<path d="M238.661 344.799L307.47 304.809C307.47 304.91 307.47 304.992 307.47 305.073L238.661 345.064C238.661 344.983 238.661 344.881 238.661 344.799Z" fill="#B3B3B3"/>
<path d="M238.64 345.065L307.449 305.074C307.449 305.156 307.449 305.257 307.428 305.339L238.62 345.33C238.64 345.248 238.64 345.167 238.64 345.065Z" fill="#ADADAD"/>
<path d="M238.64 345.329L307.449 305.338C307.449 305.44 307.428 305.521 307.428 305.602L238.62 345.593C238.62 345.512 238.62 345.431 238.64 345.329Z" fill="#A8A8A8"/>
<path d="M238.599 345.594L307.408 305.604C307.388 305.705 307.388 305.787 307.368 305.868L238.559 345.859C238.579 345.778 238.599 345.696 238.599 345.594Z" fill="#A3A3A3"/>
<path d="M238.56 345.88L307.369 305.889C307.348 305.99 307.328 306.072 307.308 306.174L238.499 346.164C238.54 346.063 238.54 345.961 238.56 345.88Z" fill="#9E9E9E"/>
<path d="M238.518 346.143L307.327 306.152C307.307 306.254 307.286 306.356 307.246 306.437L238.437 346.448C238.457 346.347 238.478 346.245 238.518 346.143Z" fill="#999999"/>
<path d="M238.438 346.448L307.246 306.457C307.206 306.559 307.185 306.681 307.145 306.783L238.336 346.774C238.356 346.651 238.397 346.55 238.438 346.448Z" fill="#949494"/>
<path d="M238.335 346.755L307.144 306.764C307.103 306.886 307.063 306.988 307.002 307.089L238.193 347.08C238.234 346.978 238.274 346.877 238.335 346.755Z" fill="#8F8F8F"/>
<path d="M238.193 347.1L307.002 307.109C307.205 307.822 238.172 347.121 237.969 347.507C238.03 347.385 238.111 347.243 238.193 347.1Z" fill="#8A8A8A"/>
<path d="M237.949 347.506L306.758 307.516C306.452 308.004 306.045 308.391 305.557 308.676L236.748 348.667C237.237 348.402 237.644 347.995 237.949 347.506Z" fill="#858585"/>
<path d="M238.724 325.282L307.512 285.291L307.451 304.788L238.662 344.779L238.724 325.282Z" fill="#C5C5C5"/>
<path d="M240.698 321.233L309.506 281.242C308.997 281.547 308.57 281.934 308.244 282.463L239.436 322.434C239.761 321.925 240.189 321.518 240.698 321.233Z" fill="#858585"/>
<path d="M239.435 322.434L308.244 282.443C308.162 282.586 308.081 282.728 307.999 282.891L239.191 322.882C239.272 322.719 239.354 322.577 239.435 322.434Z" fill="#8A8A8A"/>
<path d="M239.191 322.881L308 282.891C307.939 282.992 307.898 283.115 307.858 283.237L239.049 323.227C239.09 323.105 239.151 322.983 239.191 322.881Z" fill="#8F8F8F"/>
<path d="M239.049 323.227L307.857 283.236C307.817 283.338 307.776 283.46 307.756 283.562L238.947 323.553C238.988 323.431 239.008 323.329 239.049 323.227Z" fill="#949494"/>
<path d="M238.946 323.553L307.755 283.562C307.735 283.664 307.694 283.766 307.673 283.868L238.865 323.859C238.885 323.757 238.926 323.655 238.946 323.553Z" fill="#999999"/>
<path d="M238.865 323.858L307.674 283.867C307.653 283.969 307.633 284.05 307.613 284.152L238.804 324.143C238.824 324.041 238.844 323.96 238.865 323.858Z" fill="#9E9E9E"/>
<path d="M238.805 324.143L307.613 284.152C307.593 284.254 307.593 284.336 307.573 284.437L238.764 324.428C238.784 324.326 238.784 324.245 238.805 324.143Z" fill="#A3A3A3"/>
<path d="M238.763 324.428L307.572 284.438C307.552 284.539 307.552 284.621 307.552 284.722L238.743 324.713C238.743 324.612 238.763 324.51 238.763 324.428Z" fill="#A8A8A8"/>
<path d="M238.743 324.714L307.552 284.723C307.552 284.804 307.532 284.906 307.532 284.987L238.723 324.978C238.723 324.897 238.723 324.795 238.743 324.714Z" fill="#ADADAD"/>
<path d="M238.723 324.977L307.532 284.986C307.532 285.088 307.532 285.169 307.532 285.271L238.723 325.262C238.723 325.16 238.723 325.079 238.723 324.977Z" fill="#B3B3B3"/>
<path d="M238.723 325.262L307.532 285.271V285.292L238.723 325.262Z" fill="#B8B8B8"/>
<path d="M340.664 331.551C336.472 328.865 332.747 324.367 332.462 319.238L263.654 359.229C263.939 364.46 267.785 369.039 272.1 371.705L340.908 331.714C340.827 331.653 340.746 331.612 340.664 331.551Z" fill="white"/>
<path d="M317.035 281.729C315.102 280.63 312.823 279.755 310.564 280.162C308.773 280.345 241.979 320.031 240.371 320.662C244.808 318.362 249.997 323.043 253.783 324.915L322.591 284.924L317.035 281.729Z" fill="white"/>
<path d="M263.714 339.712L332.523 299.721L332.462 319.238L263.673 359.208L263.714 339.712Z" fill="white"/>
<path d="M277.919 334.053L270.084 338.611V341.847L277.919 337.289V334.053Z" fill="#8CC1E3"/>
<path d="M327.232 305.398L304.458 318.627V319.685L327.232 306.457V305.398Z" fill="#8CC1E3"/>
<path d="M327.21 307.576L285.164 332.039L285.144 333.077L327.21 308.634V307.576Z" fill="#8CC1E3"/>
<path d="M277.9 339.568L270.064 344.127V347.363L277.9 342.804V339.568Z" fill="#8CC1E3"/>
<path d="M327.212 310.914L304.438 324.143V325.201L327.212 311.972V310.914Z" fill="#8CC1E3"/>
<path d="M327.21 313.092L285.144 337.534V338.592L327.21 314.15V313.092Z" fill="#8CC1E3"/>
<path d="M277.899 345.064L270.043 349.623V352.859L277.878 348.3L277.899 345.064Z" fill="#8CC1E3"/>
<path d="M327.19 316.408L304.437 329.637L304.416 330.695L327.19 317.466V316.408Z" fill="#8CC1E3"/>
<path d="M327.19 318.586L285.124 343.049V344.086L327.19 319.644V318.586Z" fill="#8CC1E3"/>
<path d="M213.161 248.333L281.97 208.342L281.726 289.952L212.937 329.922L213.161 248.333Z" fill="#C5C5C5"/>
<path d="M281.97 207.935C281.542 201.056 277.269 194.93 272.364 190.351C269.311 187.176 255.431 179.992 251.585 177.57L182.776 217.561C192.525 223.545 205.651 228.571 210.78 239.704C215.603 242.797 212.001 324.366 212.917 329.943L281.726 289.952C281.726 289.423 281.97 208.383 281.97 207.935Z" fill="white"/>
<path d="M226.614 249.453L218.738 254.053L218.697 267.159L226.594 262.56L226.614 249.453Z" fill="#8CC1E3"/>
<path d="M276.273 220.594L253.357 233.924L253.336 238.218L276.273 224.888V220.594Z" fill="#8CC1E3"/>
<path d="M276.252 229.426L233.88 254.051V258.325L276.231 233.72L276.252 229.426Z" fill="#8CC1E3"/>
<path d="M226.553 271.777L218.657 276.356L218.636 289.463L226.533 284.884L226.553 271.777Z" fill="#8CC1E3"/>
<path d="M276.212 242.92L253.275 256.23V260.524L276.191 247.194L276.212 242.92Z" fill="#8CC1E3"/>
<path d="M276.192 251.732L233.82 276.358V280.652L276.172 256.027L276.192 251.732Z" fill="#8CC1E3"/>
<path d="M226.492 294.084L218.596 298.663L218.555 311.77L226.452 307.19L226.492 294.084Z" fill="#8CC1E3"/>
<path d="M276.151 265.225L253.214 278.555V282.829L276.13 269.519L276.151 265.225Z" fill="#8CC1E3"/>
<path d="M276.13 274.057L233.758 298.662V302.956L276.109 278.33L276.13 274.057Z" fill="#8CC1E3"/>
<path d="M254.597 325.425C259.298 328.661 263.429 333.831 263.714 339.712L332.523 299.721C332.197 293.535 327.7 288.08 322.591 284.926L253.783 324.917C254.047 325.079 254.332 325.242 254.597 325.425Z" fill="white"/>
<path d="M268.7 318.037C266.115 319.543 263.531 321.049 260.946 322.555C262.106 323.41 262.513 323.736 263.734 324.936C266.319 323.43 268.903 321.924 271.488 320.418C270.409 319.38 270.002 318.994 268.7 318.037Z" fill="#8CC1E3"/>
<path d="M317.464 289.688C309.954 294.043 302.444 298.418 294.934 302.774C295.219 302.997 295.606 303.262 295.891 303.486C303.401 299.131 310.91 294.755 318.42 290.4C318.135 290.176 317.769 289.891 317.464 289.688Z" fill="#8CC1E3"/>
<path d="M319.396 291.234C305.516 299.294 291.657 307.353 277.777 315.412C278.042 315.656 278.388 315.982 278.652 316.246C292.532 308.187 306.392 300.128 320.271 292.069C320.007 291.804 319.661 291.479 319.396 291.234Z" fill="#8CC1E3"/>
<path d="M273.198 322.352C270.613 323.858 268.029 325.364 265.444 326.87C266.319 328.03 266.645 328.457 267.459 329.861C270.043 328.355 272.628 326.849 275.213 325.343C274.5 324.122 274.215 323.674 273.198 322.352Z" fill="#8CC1E3"/>
<path d="M321.982 294.002C314.472 298.357 306.962 302.733 299.452 307.088C299.676 307.373 299.961 307.76 300.165 308.045C307.674 303.689 315.184 299.314 322.694 294.958C322.49 294.653 322.205 294.267 321.982 294.002Z" fill="#8CC1E3"/>
<path d="M323.405 295.977C309.525 304.036 295.666 312.095 281.786 320.154C281.969 320.46 282.214 320.846 282.376 321.151C296.256 313.092 310.116 305.033 323.995 296.974C323.812 296.689 323.588 296.282 323.405 295.977Z" fill="#8CC1E3"/>
<path d="M276.25 327.502C273.666 329.008 271.081 330.514 268.496 332.02C268.944 333.261 269.107 333.709 269.331 335.032C271.915 333.526 274.5 332.02 277.085 330.514C276.861 329.354 276.779 328.906 276.25 327.502Z" fill="#8CC1E3"/>
<path d="M325.013 299.152C317.503 303.508 309.993 307.883 302.484 312.238C302.585 312.544 302.748 312.93 302.85 313.236C310.36 308.88 317.869 304.505 325.379 300.15C325.277 299.844 325.135 299.437 325.013 299.152Z" fill="#8CC1E3"/>
<path d="M325.664 301.188C311.784 309.247 297.924 317.306 284.045 325.365C284.106 325.65 284.187 326.037 284.228 326.342C298.108 318.283 311.967 310.224 325.847 302.164C325.806 301.879 325.745 301.493 325.664 301.188Z" fill="#8CC1E3"/>
<path d="M213.629 222.486C210.76 224.155 207.911 225.804 205.041 227.472C206.018 228.307 207.056 229.162 208.358 230.546C211.228 228.877 214.077 227.228 216.947 225.559C215.97 224.583 215.074 223.646 213.629 222.486Z" fill="#8CC1E3"/>
<path d="M267.582 191.145C259.278 195.968 250.975 200.791 242.672 205.615C243.018 205.899 243.465 206.266 243.791 206.571C252.094 201.748 260.398 196.924 268.701 192.101C268.355 191.796 267.928 191.409 267.582 191.145Z" fill="#8CC1E3"/>
<path d="M269.84 193.16C254.495 202.074 239.15 210.988 223.805 219.902C224.11 220.228 224.537 220.635 224.843 220.96C240.188 212.046 255.533 203.132 270.878 194.218C270.573 193.893 270.166 193.465 269.84 193.16Z" fill="#8CC1E3"/>
<path d="M219.002 227.961C216.133 229.63 213.283 231.278 210.414 232.947C211.187 233.985 211.981 235.043 212.897 236.61C215.603 235.023 218.778 233.191 221.485 231.624C220.834 230.566 220.142 229.447 219.002 227.961Z" fill="#8CC1E3"/>
<path d="M272.955 196.619C264.651 201.442 256.348 206.266 248.044 211.089C248.309 211.435 248.655 211.903 248.919 212.27C257.223 207.446 265.526 202.623 273.83 197.8C273.565 197.433 273.219 196.965 272.955 196.619Z" fill="#8CC1E3"/>
<path d="M274.684 199.062C259.339 207.976 243.994 216.89 228.649 225.804C228.873 226.171 229.178 226.659 229.402 227.026C244.747 218.112 260.092 209.198 275.437 200.284C275.213 199.917 274.908 199.429 274.684 199.062Z" fill="#8CC1E3"/>
<path d="M222.849 234.27C220.143 235.857 216.968 237.689 214.261 239.256C214.729 240.395 215.197 241.494 215.564 243C218.433 241.332 221.282 239.683 224.152 238.014C223.867 236.956 223.541 235.857 222.849 234.27Z" fill="#8CC1E3"/>
<path d="M276.801 202.928C268.497 207.751 260.194 212.574 251.89 217.398C252.053 217.764 252.257 218.252 252.399 218.639C260.703 213.816 269.006 208.993 277.31 204.169C277.147 203.783 276.964 203.294 276.801 202.928Z" fill="#8CC1E3"/>
<path d="M277.757 205.453C262.412 214.367 247.067 223.281 231.722 232.195C231.824 232.561 231.966 233.05 232.068 233.416C247.413 224.502 262.758 215.588 278.103 206.674C278.002 206.308 277.879 205.819 277.757 205.453Z" fill="#8CC1E3"/>
<path d="M272.121 371.683L340.909 331.713L373.98 350.803L305.192 390.773L272.121 371.683Z" fill="white"/>
<path d="M285.818 366.576L277.209 371.583L283.478 375.185L292.086 370.199L285.818 366.576Z" fill="#8CC1E3"/>
<path d="M339.912 335.152L314.941 349.663L316.976 350.843L341.947 336.333L339.912 335.152Z" fill="#8CC1E3"/>
<path d="M344.125 337.574L297.968 364.398L300.023 365.578L346.181 338.755L344.125 337.574Z" fill="#8CC1E3"/>
<path d="M296.483 372.742L287.874 377.728L294.142 381.351L302.751 376.344L296.483 372.742Z" fill="#8CC1E3"/>
<path d="M350.577 341.299L325.605 355.81L327.64 356.99L352.612 342.479L350.577 341.299Z" fill="#8CC1E3"/>
<path d="M354.79 343.74L308.632 370.564L310.688 371.744L356.845 344.921L354.79 343.74Z" fill="#8CC1E3"/>
<path d="M307.147 378.889L298.539 383.895L304.807 387.497L313.416 382.511L307.147 378.889Z" fill="#8CC1E3"/>
<path d="M361.241 347.465L336.249 361.976L338.304 363.156L363.276 348.645L361.241 347.465Z" fill="#8CC1E3"/>
<path d="M365.454 349.887L319.297 376.71L321.352 377.89L367.51 351.067L365.454 349.887Z" fill="#8CC1E3"/>
<path d="M198.61 226.7C206.649 231.34 213.182 241.047 213.161 248.333L212.938 329.943C212.836 338.023 223.032 343.701 229.707 347.222C234.368 349.928 238.194 348.707 238.194 344.535L238.255 325.038C238.723 315.941 248.797 321.68 253.783 324.957C267.317 332.528 263.125 347.181 263.674 359.249C263.654 363.422 267.459 369.018 272.12 371.725L305.191 390.815V391.344L272.12 372.254C267.195 369.405 263.206 363.462 263.206 358.985C262.718 341.645 267.582 331.551 248.248 322.291C243.017 319.259 238.743 320.622 238.723 325.323L238.662 344.82C238.214 354.569 225.759 345.39 221.383 342.968C216.458 340.119 212.469 334.176 212.469 329.699L212.693 248.089C213.019 234.046 194.011 224.196 182.756 218.111V217.582L198.61 226.7Z" fill="#898989"/>
<path d="M305.191 390.773L373.98 350.803V351.332L305.191 391.323V390.773Z" fill="#C5C5C5"/>
<path opacity="0.15" fill-rule="evenodd" clip-rule="evenodd" d="M399.907 427.143C389.222 433.309 371.883 433.309 361.198 427.143C350.514 420.976 350.514 410.963 361.198 404.797C371.883 398.63 389.222 398.63 399.907 404.797C410.592 410.963 410.592 420.976 399.907 427.143Z" fill="#808080"/>
<path d="M370.417 232.418C370.417 232.418 362.866 254.133 373.938 255.395C373.348 259.017 373.897 262.03 372.879 265.245L383.32 267.036C383.32 267.036 382.994 252.851 384.114 247.193L370.417 232.418Z" fill="#F1B8BC"/>
<path fill-rule="evenodd" clip-rule="evenodd" d="M372.126 258.407L373.917 255.375C374.304 254.134 374.711 251.061 374.202 251.305C373.713 251.569 371.617 255.049 370.946 256.942L372.126 258.407Z" fill="#DEAAAA"/>
<path d="M366.916 234.047C369.603 238.3 372.269 237.73 371.984 242.574C372.35 241.475 372.859 240.803 373.51 240.742C374.528 242.655 375.749 243.795 377.092 244.446C378.557 247.54 380.531 251.569 383.035 251.06C385.518 250.552 390.239 246.359 392.05 241.393C396.507 234.779 399.764 228.368 395.795 225.173C390.056 220.92 387.064 222.1 385.151 225.356C382.974 224.278 380.776 224.176 378.517 225.316C375.728 223.688 373.083 222.996 370.702 223.81C367.568 225.499 366.489 227.127 366.855 228.714C366.509 230.465 366.204 232.418 366.916 234.047Z" fill="#333333"/>
<path fill-rule="evenodd" clip-rule="evenodd" d="M383.686 226.537C375.423 231.584 392.03 241.109 384.683 254.541L394.961 253.971L398.481 243.409L393.088 244.162C393.088 244.162 390.198 238.219 386.637 236.163C386.637 236.163 381.854 231.747 383.686 226.537Z" fill="#1A1A1A"/>
<path fill-rule="evenodd" clip-rule="evenodd" d="M388.285 227.025C387.023 235.024 394.472 233.497 402.979 232.581L402.714 241.19L396.263 241.821C393.637 239.094 384.703 232.073 388.285 227.025Z" fill="#1A1A1A"/>
<path fill-rule="evenodd" clip-rule="evenodd" d="M372.045 241.657C371.699 243.672 371.231 245.158 372.167 246.684C374.101 247.437 374.935 243.143 374.732 242.023C373.633 239.459 372.289 241.047 372.045 241.657Z" fill="#EBB2C0"/>
<path d="M386.597 343.273C389.101 345.512 390.016 363.096 390.953 368.041C391.543 383.101 387.249 392.463 389.284 400.868L382.262 411.533L372.819 411.757C372.819 411.757 379.617 410.983 379.596 402.578C379.556 394.173 377.785 371.399 377.785 371.399C377.541 369.547 375.546 348.199 373.369 343.986L386.597 343.273Z" fill="#F0B385"/>
<path fill-rule="evenodd" clip-rule="evenodd" d="M383.178 339.406C390.362 367.308 390.382 375.632 385.172 403.392L402.349 407.625L409.146 364.418L403.346 340.811L383.178 339.406Z" fill="#DC9E77"/>
<path fill-rule="evenodd" clip-rule="evenodd" d="M381.306 408.459C379.27 413.791 372.738 409.66 370.072 410.535C370.763 413.689 379.047 415.48 381.021 415.358C385.681 414.3 386.109 409.415 387.309 406.709C389.304 404.348 387.33 414.32 387.594 414.462L389.263 414.727C389.263 414.727 391.4 405.956 391.115 402.923C390.891 400.644 389.568 397.306 387.472 396.553C382.934 394.905 381.306 408.459 381.306 408.459Z" fill="#260707"/>
<path d="M368.666 351.25C366.814 360.245 372.777 366.819 376.522 374.573C380.715 388.208 379.188 399.87 383.177 406.362L380.755 418.553L371.638 421.015C371.638 421.015 378.069 418.634 376.034 410.493C373.999 402.353 364.596 381.961 364.596 381.961C364.596 381.961 357.432 368.671 356.008 364.194C355.092 361.304 356.008 355.096 356.008 355.096L368.666 351.25Z" fill="#F0B385"/>
<path fill-rule="evenodd" clip-rule="evenodd" d="M365.858 346.102C361.889 361.04 367.405 363.197 374.283 377.28C378.618 391.323 379.005 400.725 380.592 412.488L402.348 408.479C401.697 354.547 408.25 375.326 365.858 346.102Z" fill="#DC9E77"/>
<path fill-rule="evenodd" clip-rule="evenodd" d="M379.087 415.807C378.395 421.465 371.048 419.022 368.667 420.508C370.091 423.398 378.558 423.174 380.45 422.584C384.724 420.447 383.971 415.603 384.48 412.693C385.864 409.925 386.332 420.081 386.597 420.162L388.286 420.02C388.286 420.02 388.265 410.984 387.268 408.114C386.495 405.957 384.439 403.046 382.201 402.802C377.438 402.273 379.087 415.807 379.087 415.807Z" fill="black"/>
<path d="M386.414 305.746C397.567 318.059 390.668 339.509 389.141 351.68C386.007 354.916 382.242 356.32 378.07 356.645L376.035 351.781L374.407 357.521C367.691 360.594 361.158 361.448 354.747 360.94C353.058 350.051 352.956 338.41 354.747 325.874L363.071 307.72L386.414 305.746Z" fill="#004166"/>
<path fill-rule="evenodd" clip-rule="evenodd" d="M368.24 369.792C368.24 369.792 361.463 343.925 366.347 340.852C404.14 343.07 387.35 297.056 413.563 346.937L382.079 370.281L368.24 369.792Z" fill="#005D92"/>
<path fill-rule="evenodd" clip-rule="evenodd" d="M394.575 324.266C384.765 332.976 362.175 338.105 353.464 326.321C353.363 317.122 359.387 308.697 360.547 299.538C362.195 286.595 354.055 284.906 354.36 271.596C355.785 267.179 359.814 266.63 363.416 264.31C366.062 262.621 368.179 260.178 370.275 259.161C374.549 257.065 384.317 256.617 384.317 256.617C386.597 255.905 391.97 256.597 392.804 259.466C396.02 271.352 385.579 282.138 385.335 293.25C385.498 298.663 389.751 304.81 391.298 309.979C392.682 314.66 393.903 319.239 394.575 324.266Z" fill="#F65841"/>
<path fill-rule="evenodd" clip-rule="evenodd" d="M372.269 260.198L372.778 257.206C376.645 257.002 380.471 256.371 384.236 255.395L385.925 257.776C381.529 259.2 376.95 259.953 372.269 260.198Z" fill="white"/>
<path fill-rule="evenodd" clip-rule="evenodd" d="M339.523 270.639C339.523 270.639 337.651 267.077 336.817 262.844C336.349 261.725 335.718 261.358 334.944 261.521C334.822 262.742 334.68 265.53 334.619 266.772C334.619 266.772 331.871 267.708 330.671 259.608C328.92 258.265 327.984 264.187 329.185 268.441C329.185 268.441 333.357 273.691 337.102 275.543C340.256 281.486 338.384 281.934 344.265 278.23C344.245 278.23 342.312 273.651 339.523 270.639Z" fill="#F1B8BC"/>
<path fill-rule="evenodd" clip-rule="evenodd" d="M367.262 277.945C367.262 277.945 368.402 271.453 365.024 269.641C361.91 267.993 360.058 268.054 357.209 272.124C353.077 279.349 353.952 279.553 350.554 287.571C348.763 285.801 342.433 273.793 342.433 273.793L336.45 277.253C336.45 277.253 342.189 295.101 347.949 301.451C349.658 303.323 352.528 303.547 354.502 301.96C363.965 293.962 367.262 277.945 367.262 277.945Z" fill="#F76752"/>
<path opacity="0.25" d="M124.797 400.542L101.515 387.11L139.816 365.15L163.099 378.582L124.797 400.542Z" fill="#8CC1E3"/>
<path d="M152.678 371.298C152.882 371.623 152.719 353.795 152.739 353.388C152.739 351.923 152.434 351.089 151.884 350.783L140.996 344.434C142.767 345.187 141.525 361.793 141.892 363.462C141.932 365.497 141.2 367.675 139.409 368.794C138.778 369.181 137.923 369.69 137.191 369.303L148.079 375.653C148.18 375.714 148.323 375.755 148.445 375.775C150.704 375.734 152.373 373.414 152.678 371.298Z" fill="url(#paint0_linear_0_1)"/>
<path d="M149.951 345.491C162.121 337.982 157.176 360.694 158.193 366.23C158.214 372.62 155.364 377.83 150.053 380.903C137.882 388.413 142.828 365.701 141.81 360.165C141.79 353.775 144.639 348.585 149.951 345.491ZM152.8 369.812L152.759 353.388C152.759 350.64 151.66 350.111 149.971 351.088C148.201 352.106 147.203 353.856 147.203 356.603L147.244 373.027C147.224 379.234 153.431 373.719 152.8 369.812Z" fill="#F65841"/>
<path d="M141.831 359.33C141.933 354.08 144.558 348.951 148.995 346.102C150.969 344.881 153.594 343.293 155.914 344.494C155.385 344.27 144.354 337.534 144.009 337.778C141.607 337.473 139.368 338.897 137.455 340.2C128.114 346.611 131.513 359.799 130.963 369.364C130.963 372.64 131.737 374.737 133.181 375.591L144.07 381.941C142.625 381.086 141.851 378.99 141.851 375.713L141.811 360.185C141.811 359.88 141.811 359.615 141.831 359.33Z" fill="url(#paint1_linear_0_1)"/>
<path d="M123.922 395.15L113.054 388.8L135.278 313.703L146.166 320.032L123.922 395.15Z" fill="#F87664"/>
<path d="M146.166 320.032L135.278 313.702L140.671 310.568L151.559 316.918L146.166 320.032Z" fill="#FBB3A9"/>
<path d="M146.167 320.032L151.56 316.918L129.316 392.015L123.923 395.149L146.167 320.032Z" fill="#F65841"/>
<path d="M128.176 356.95C128.379 357.276 128.216 339.448 128.237 339.041C128.237 337.575 127.932 336.741 127.382 336.436L116.494 330.086C118.244 330.839 117.023 347.446 117.389 349.115C117.43 351.15 116.697 353.327 114.906 354.467C114.276 354.854 113.421 355.363 112.688 354.976L123.576 361.326C123.678 361.387 123.82 361.427 123.943 361.448C126.222 361.366 127.87 359.046 128.176 356.95Z" fill="url(#paint2_linear_0_1)"/>
<path d="M133.69 351.882C135.461 361.468 117.673 377.098 117.348 361.346C117.633 351.841 114.783 336.11 125.448 331.144C137.618 323.634 132.673 346.346 133.69 351.882ZM122.741 358.659C122.721 364.866 128.907 359.351 128.297 355.444L128.256 339.02C128.256 336.272 127.157 335.743 125.468 336.72C123.697 337.738 122.7 339.488 122.7 342.235L122.741 358.659Z" fill="#F65841"/>
<path d="M117.327 344.983C117.429 339.732 120.055 334.603 124.491 331.754C126.465 330.533 129.091 328.946 131.411 330.146C130.882 329.923 119.851 323.186 119.505 323.43C117.104 323.125 114.865 324.55 112.952 325.852C103.61 332.263 107.009 345.451 106.46 355.016C106.46 358.293 107.233 360.389 108.678 361.244L119.566 367.593C118.101 366.739 117.348 364.642 117.348 361.366L117.307 345.838C117.307 345.532 117.307 345.247 117.327 344.983Z" fill="url(#paint3_linear_0_1)"/>
<defs>
<linearGradient id="paint0_linear_0_1" x1="137.195" y1="360.111" x2="152.786" y2="360.111" gradientUnits="userSpaceOnUse">
<stop stop-color="#FBBCB3"/>
<stop offset="0.4944" stop-color="#F65841"/>
<stop offset="1" stop-color="#7B2C21"/>
</linearGradient>
<linearGradient id="paint1_linear_0_1" x1="145.245" y1="338.56" x2="138.03" y2="378.022" gradientUnits="userSpaceOnUse">
<stop stop-color="#FBBCB3"/>
<stop offset="0.4944" stop-color="#F65841"/>
<stop offset="1" stop-color="#7B2C21"/>
</linearGradient>
<linearGradient id="paint2_linear_0_1" x1="112.696" y1="345.757" x2="128.286" y2="345.757" gradientUnits="userSpaceOnUse">
<stop stop-color="#FBBCB3"/>
<stop offset="0.4944" stop-color="#F65841"/>
<stop offset="1" stop-color="#7B2C21"/>
</linearGradient>
<linearGradient id="paint3_linear_0_1" x1="120.868" y1="324.27" x2="113.064" y2="363.585" gradientUnits="userSpaceOnUse">
<stop stop-color="#FBBCB3"/>
<stop offset="0.4944" stop-color="#F65841"/>
<stop offset="1" stop-color="#7B2C21"/>
</linearGradient>
</defs>
</svg>
