<svg width="460" height="459" viewBox="0 0 460 459" fill="none" xmlns="http://www.w3.org/2000/svg">
<path d="M259.353 282.777C370.124 261.234 449.31 189.2 436.218 121.885C423.127 54.5704 322.716 17.4645 211.945 39.0072C101.173 60.5499 21.9876 132.583 35.0789 199.898C48.1703 267.213 148.581 304.319 259.353 282.777Z" fill="#F9F9FF"/>
<path d="M43.2678 365.829C43.2678 365.829 403.674 366.084 407.727 366.084C409.966 366.084 475.75 287.49 439.159 178.824C438.082 175.593 436.665 172.588 435.248 169.669C434.568 168.28 433.887 166.892 433.15 165.559C430.996 161.563 428.701 157.794 426.32 154.307C425.129 152.578 423.911 150.906 422.692 149.291C387.122 102.724 331.287 103.687 311.588 113.834C289.821 125.058 275.82 98.6706 243.764 98.3021C241.44 98.2738 239.229 98.3305 237.075 98.4439C236.509 98.4722 235.942 98.5289 235.403 98.5572C190.026 102.072 185.35 138.35 148.476 135.091C109.448 131.633 73.9347 107.287 31.9591 157.794C-46.0401 251.665 43.2678 365.829 43.2678 365.829Z" fill="#E9E9E9"/>
<path d="M20.5938 366.453H431.677C431.989 366.453 432.244 366.198 432.244 365.887V365.405C432.244 365.093 431.989 364.838 431.677 364.838H20.5938C20.282 364.838 20.0269 365.093 20.0269 365.405V365.887C20.0269 366.198 20.282 366.453 20.5938 366.453Z" fill="#151F2C"/>
<path d="M221.371 81.8196C221.371 81.8196 217.1 72.9554 211.135 67.6775C205.103 62.3996 195.545 63.8206 192.698 67.3392C189.852 70.8578 187.75 80.3986 185.649 79.7219C183.548 79.0453 176.092 72.2787 170.059 76.88C164.026 81.4812 168.974 87.0975 164.772 88.9244C160.502 90.6837 156.977 84.3232 152.368 87.1651C147.758 90.0071 147.758 95.6233 147.758 95.6233L132.236 99.4802H252.212C252.212 99.4802 247.603 85.3382 242.316 81.1429C237.029 76.88 232.08 85.7442 228.149 86.0825C224.218 86.3531 221.371 81.8196 221.371 81.8196Z" stroke="#263238" stroke-miterlimit="10" stroke-linecap="round" stroke-linejoin="round"/>
<path d="M351.107 210.723C351.107 210.723 348.125 205.716 343.922 202.739C339.72 199.761 333.009 200.506 330.976 202.536C329.01 204.566 327.519 209.979 326.027 209.573C324.536 209.167 319.317 205.378 315.114 207.949C310.912 210.52 314.369 213.768 311.386 214.783C308.404 215.798 305.896 212.212 302.71 213.768C299.524 215.324 299.457 218.572 299.457 218.572L288.543 220.738H372.798C372.798 220.738 369.544 212.753 365.816 210.317C362.088 207.881 358.631 212.956 355.852 213.091C353.073 213.362 351.107 210.723 351.107 210.723Z" stroke="#263238" stroke-miterlimit="10" stroke-linecap="round" stroke-linejoin="round"/>
<path d="M148.165 249.629C148.165 249.629 145.183 244.622 140.98 241.645C136.778 238.668 130.067 239.412 128.034 241.442C126.068 243.472 124.577 248.885 123.086 248.479C121.594 248.073 116.375 244.284 112.172 246.855C107.97 249.426 111.427 252.674 108.444 253.689C105.462 254.704 102.954 251.118 99.7682 252.674C96.5146 254.298 96.5146 257.479 96.5146 257.479L85.6016 259.644H169.856C169.856 259.644 166.602 251.659 162.874 249.223C159.146 246.787 155.689 251.862 152.91 251.998C150.131 252.268 148.165 249.629 148.165 249.629Z" stroke="#263238" stroke-miterlimit="10" stroke-linecap="round" stroke-linejoin="round"/>
<path d="M278.987 364.998H135.22C130.814 364.998 127.221 361.412 127.221 357.014V165.791C127.221 161.393 130.814 157.807 135.22 157.807H278.987C283.393 157.807 286.986 161.393 286.986 165.791V357.014C286.986 361.48 283.393 364.998 278.987 364.998Z" fill="#263238"/>
<path d="M279.327 170.123H134.881V355.256H279.327V170.123Z" fill="white" stroke="#263238" stroke-miterlimit="10" stroke-linecap="round" stroke-linejoin="round"/>
<path d="M226.117 153.679C222.998 153.679 221.236 150.229 222.931 147.59C224.625 144.883 225.439 141.5 224.829 137.913C223.88 132.568 219.677 128.102 214.322 127.019C205.443 125.192 197.715 131.891 197.715 140.349C197.715 143.124 198.529 145.627 199.952 147.793C201.579 150.296 199.681 153.679 196.631 153.679H172.839L179.278 172.152H243.605L250.044 153.679H226.117ZM211.34 145.83C208.696 145.83 206.527 143.665 206.527 141.026C206.527 138.387 208.696 136.222 211.34 136.222C213.983 136.222 216.152 138.387 216.152 141.026C216.152 143.665 213.983 145.83 211.34 145.83Z" fill="#92E3A9" stroke="#263238" stroke-miterlimit="10" stroke-linecap="round" stroke-linejoin="round"/>
<path d="M159.888 194.451L156.216 205.965H152.817L158.081 191.746H160.229L159.888 194.451ZM162.935 205.965L159.253 194.451L158.872 191.746H161.05L166.333 205.965H162.935ZM162.778 200.672V203.133H155.366V200.672H162.778ZM173.12 201.023H169.546V198.553H173.12C173.647 198.553 174.071 198.465 174.39 198.289C174.715 198.113 174.953 197.872 175.103 197.566C175.259 197.254 175.337 196.902 175.337 196.512C175.337 196.108 175.259 195.734 175.103 195.389C174.953 195.037 174.715 194.754 174.39 194.539C174.071 194.324 173.647 194.217 173.12 194.217H170.698V205.965H167.515V191.746H173.12C174.253 191.746 175.223 191.951 176.03 192.361C176.844 192.771 177.466 193.335 177.896 194.051C178.332 194.76 178.55 195.574 178.55 196.492C178.55 197.41 178.332 198.208 177.896 198.885C177.466 199.562 176.844 200.089 176.03 200.467C175.223 200.838 174.253 201.023 173.12 201.023ZM186.089 201.023H182.515V198.553H186.089C186.616 198.553 187.039 198.465 187.358 198.289C187.684 198.113 187.922 197.872 188.071 197.566C188.228 197.254 188.306 196.902 188.306 196.512C188.306 196.108 188.228 195.734 188.071 195.389C187.922 195.037 187.684 194.754 187.358 194.539C187.039 194.324 186.616 194.217 186.089 194.217H183.667V205.965H180.483V191.746H186.089C187.222 191.746 188.192 191.951 188.999 192.361C189.813 192.771 190.435 193.335 190.864 194.051C191.3 194.76 191.519 195.574 191.519 196.492C191.519 197.41 191.3 198.208 190.864 198.885C190.435 199.562 189.813 200.089 188.999 200.467C188.192 200.838 187.222 201.023 186.089 201.023ZM193.452 191.746H198.911C199.998 191.746 200.939 191.909 201.733 192.234C202.534 192.56 203.149 193.042 203.579 193.68C204.009 194.318 204.224 195.105 204.224 196.043C204.224 196.824 204.097 197.488 203.843 198.035C203.589 198.582 203.231 199.035 202.769 199.393C202.313 199.751 201.779 200.04 201.167 200.262L200.132 200.828H195.483L195.464 198.357H198.921C199.396 198.357 199.79 198.273 200.103 198.104C200.415 197.934 200.649 197.697 200.806 197.391C200.968 197.078 201.05 196.714 201.05 196.297C201.05 195.867 200.968 195.496 200.806 195.184C200.643 194.871 200.402 194.633 200.083 194.471C199.771 194.301 199.38 194.217 198.911 194.217H196.636V205.965H193.452V191.746ZM201.323 205.965L198.13 199.646L201.489 199.637L204.731 205.818V205.965H201.323ZM218.237 198.543V199.178C218.237 200.258 218.088 201.229 217.788 202.088C217.495 202.947 217.075 203.68 216.528 204.285C215.988 204.891 215.343 205.356 214.595 205.682C213.853 206.001 213.029 206.16 212.124 206.16C211.219 206.16 210.392 206.001 209.644 205.682C208.895 205.356 208.244 204.891 207.69 204.285C207.144 203.68 206.72 202.947 206.421 202.088C206.121 201.229 205.972 200.258 205.972 199.178V198.543C205.972 197.462 206.121 196.492 206.421 195.633C206.72 194.767 207.14 194.031 207.681 193.426C208.228 192.82 208.875 192.358 209.624 192.039C210.373 191.714 211.2 191.551 212.104 191.551C213.009 191.551 213.836 191.714 214.585 192.039C215.334 192.358 215.978 192.82 216.519 193.426C217.065 194.031 217.489 194.767 217.788 195.633C218.088 196.492 218.237 197.462 218.237 198.543ZM215.024 199.178V198.523C215.024 197.801 214.959 197.163 214.829 196.609C214.699 196.049 214.51 195.581 214.263 195.203C214.015 194.826 213.709 194.542 213.345 194.354C212.98 194.158 212.567 194.061 212.104 194.061C211.623 194.061 211.203 194.158 210.845 194.354C210.487 194.542 210.184 194.826 209.937 195.203C209.696 195.581 209.51 196.049 209.38 196.609C209.256 197.163 209.194 197.801 209.194 198.523V199.178C209.194 199.894 209.256 200.532 209.38 201.092C209.51 201.645 209.699 202.114 209.946 202.498C210.194 202.882 210.496 203.172 210.854 203.367C211.219 203.562 211.642 203.66 212.124 203.66C212.586 203.66 212.996 203.562 213.354 203.367C213.719 203.172 214.025 202.882 214.272 202.498C214.52 202.114 214.705 201.645 214.829 201.092C214.959 200.532 215.024 199.894 215.024 199.178ZM225.229 202.811L228.394 191.746H231.938L227.065 205.965H224.751L225.229 202.811ZM222.349 191.746L225.503 202.811L226.001 205.965H223.657L218.813 191.746H222.349ZM242.788 203.504V205.965H235.22V203.504H242.788ZM236.304 191.746V205.965H233.12V191.746H236.304ZM241.812 197.469V199.852H235.22V197.469H241.812ZM242.798 191.746V194.217H235.22V191.746H242.798ZM248.853 205.965H245.728L245.747 203.504H248.853C249.562 203.504 250.161 203.341 250.649 203.016C251.138 202.684 251.509 202.195 251.763 201.551C252.017 200.9 252.144 200.109 252.144 199.178V198.523C252.144 197.82 252.072 197.202 251.929 196.668C251.785 196.128 251.574 195.675 251.294 195.311C251.014 194.946 250.666 194.673 250.249 194.49C249.839 194.308 249.367 194.217 248.833 194.217H245.669V191.746H248.833C249.797 191.746 250.675 191.909 251.47 192.234C252.271 192.56 252.961 193.025 253.54 193.631C254.126 194.236 254.578 194.952 254.897 195.779C255.216 196.606 255.376 197.527 255.376 198.543V199.178C255.376 200.187 255.216 201.108 254.897 201.941C254.578 202.768 254.126 203.484 253.54 204.09C252.961 204.689 252.274 205.151 251.479 205.477C250.685 205.802 249.81 205.965 248.853 205.965ZM247.534 191.746V205.965H244.351V191.746H247.534Z" fill="#01B187"/>
<path d="M162.401 254.433C169.888 254.433 175.957 248.374 175.957 240.9C175.957 233.426 169.888 227.367 162.401 227.367C154.913 227.367 148.844 233.426 148.844 240.9C148.844 248.374 154.913 254.433 162.401 254.433Z" fill="white" stroke="#263238" stroke-width="4" stroke-miterlimit="10"/>
<path d="M163.351 246.72C162.402 246.72 161.589 246.314 160.979 245.637L155.014 238.668C153.861 237.382 154.065 235.352 155.353 234.202C155.895 233.728 156.64 233.458 157.386 233.458C158.335 233.458 159.148 233.864 159.759 234.54L163.419 238.736L175.62 225.202C176.23 224.526 177.043 224.188 177.992 224.188C178.738 224.188 179.551 224.458 180.093 224.999C181.381 226.15 181.517 228.18 180.365 229.465L165.791 245.705C165.181 246.314 164.3 246.72 163.351 246.72Z" fill="#92E3A9"/>
<path d="M177.992 225.202C178.466 225.202 179.009 225.405 179.415 225.743C180.296 226.555 180.364 227.908 179.551 228.72L164.978 244.96C164.571 245.434 164.029 245.637 163.418 245.637C162.808 245.637 162.198 245.366 161.792 244.892L155.827 237.923C155.081 237.043 155.149 235.69 156.03 234.946C156.437 234.607 156.911 234.404 157.386 234.404C157.996 234.404 158.606 234.675 159.013 235.149L163.418 240.224L176.365 225.811C176.84 225.472 177.382 225.202 177.992 225.202ZM177.992 223.172C176.84 223.172 175.687 223.646 174.874 224.525L163.486 237.179L160.639 233.863C159.826 232.916 158.674 232.442 157.454 232.442C156.437 232.442 155.488 232.78 154.742 233.457C152.98 234.946 152.777 237.585 154.268 239.344L160.233 246.313C161.046 247.193 162.131 247.734 163.351 247.734H163.418C164.571 247.734 165.723 247.261 166.537 246.381L181.11 230.141C181.855 229.329 182.262 228.247 182.194 227.164C182.127 226.081 181.652 225.067 180.839 224.322C180.025 223.578 179.009 223.172 177.992 223.172Z" fill="#263238"/>
<path d="M162.401 292.328C169.888 292.328 175.957 286.269 175.957 278.795C175.957 271.321 169.888 265.262 162.401 265.262C154.913 265.262 148.844 271.321 148.844 278.795C148.844 286.269 154.913 292.328 162.401 292.328Z" fill="white" stroke="#263238" stroke-width="4" stroke-miterlimit="10"/>
<path d="M163.351 284.615C162.402 284.615 161.589 284.209 160.979 283.532L155.014 276.562C153.861 275.277 154.065 273.247 155.353 272.097C155.895 271.623 156.64 271.352 157.386 271.352C158.335 271.352 159.148 271.758 159.759 272.435L163.419 276.63L175.62 263.097C176.23 262.42 177.043 262.082 177.992 262.082C178.738 262.082 179.551 262.353 180.093 262.894C180.703 263.435 181.11 264.247 181.11 265.059C181.178 265.871 180.839 266.683 180.297 267.36L165.723 283.6C165.181 284.209 164.3 284.615 163.351 284.615Z" fill="#92E3A9"/>
<path d="M177.992 263.096C178.466 263.096 179.009 263.299 179.415 263.638C180.296 264.45 180.364 265.803 179.551 266.615L164.978 282.855C164.571 283.328 164.029 283.531 163.418 283.531C162.808 283.531 162.198 283.261 161.792 282.787L155.827 275.817C155.081 274.938 155.149 273.585 156.03 272.84C156.437 272.502 156.911 272.299 157.386 272.299C157.996 272.299 158.606 272.57 159.013 273.043L163.418 278.118L176.365 263.705C176.84 263.367 177.382 263.096 177.992 263.096ZM177.992 261.066C176.84 261.066 175.687 261.54 174.874 262.42L163.486 275.073L160.639 271.758C159.826 270.81 158.674 270.337 157.454 270.337C156.437 270.337 155.488 270.675 154.742 271.352C152.98 272.84 152.777 275.479 154.268 277.238L160.233 284.208C161.046 285.088 162.131 285.629 163.351 285.629H163.418C164.571 285.629 165.723 285.155 166.537 284.276L181.11 268.036C181.855 267.224 182.262 266.141 182.194 265.059C182.127 263.976 181.652 262.961 180.839 262.217C180.025 261.472 179.009 261.066 177.992 261.066Z" fill="#263238"/>
<path d="M162.401 330.22C169.888 330.22 175.957 324.161 175.957 316.687C175.957 309.213 169.888 303.154 162.401 303.154C154.913 303.154 148.844 309.213 148.844 316.687C148.844 324.161 154.913 330.22 162.401 330.22Z" fill="white" stroke="#263238" stroke-width="4" stroke-miterlimit="10"/>
<path d="M163.351 322.505C162.402 322.505 161.589 322.099 160.979 321.423L155.014 314.453C153.861 313.167 154.065 311.137 155.353 309.987C155.895 309.513 156.64 309.243 157.386 309.243C158.335 309.243 159.148 309.649 159.759 310.325L163.419 314.521L175.62 300.988C176.23 300.311 177.043 299.973 177.992 299.973C178.738 299.973 179.551 300.243 180.093 300.785C180.703 301.326 181.11 302.138 181.11 302.95C181.178 303.762 180.839 304.574 180.297 305.251L165.723 321.49C165.181 322.099 164.3 322.505 163.351 322.505Z" fill="#92E3A9"/>
<path d="M177.992 301.055C178.466 301.055 179.009 301.258 179.415 301.597C180.296 302.409 180.364 303.762 179.551 304.574L164.978 320.814C164.571 321.287 164.029 321.49 163.418 321.49C162.808 321.49 162.198 321.22 161.792 320.746L155.827 313.776C155.081 312.897 155.149 311.543 156.03 310.799C156.437 310.461 156.911 310.258 157.386 310.258C157.996 310.258 158.606 310.528 159.013 311.002L163.418 316.077L176.365 301.664C176.84 301.258 177.382 301.055 177.992 301.055ZM177.992 299.025C176.84 299.025 175.687 299.499 174.874 300.379L163.486 313.032L160.639 309.717C159.826 308.769 158.674 308.296 157.454 308.296C156.437 308.296 155.488 308.634 154.742 309.311C152.98 310.799 152.777 313.438 154.268 315.197L160.233 322.167C161.046 323.047 162.131 323.588 163.351 323.588H163.418C164.571 323.588 165.723 323.114 166.537 322.235L181.11 305.995C181.855 305.183 182.262 304.1 182.194 303.018C182.127 301.935 181.652 300.92 180.839 300.176C180.025 299.364 179.009 299.025 177.992 299.025Z" fill="#263238"/>
<path d="M188.699 240.834H254.042" stroke="#263238" stroke-miterlimit="10" stroke-linecap="round" stroke-linejoin="round"/>
<path d="M183.209 240.834H186.53" stroke="#263238" stroke-miterlimit="10" stroke-linecap="round" stroke-linejoin="round"/>
<path d="M207.679 281.23H254.042" stroke="#263238" stroke-miterlimit="10" stroke-linecap="round" stroke-linejoin="round"/>
<path d="M183.209 281.23H202.188" stroke="#263238" stroke-miterlimit="10" stroke-linecap="round" stroke-linejoin="round"/>
<path d="M246.043 317.838H254.042" stroke="#263238" stroke-miterlimit="10" stroke-linecap="round" stroke-linejoin="round"/>
<path d="M183.209 317.838H237.571" stroke="#263238" stroke-miterlimit="10" stroke-linecap="round" stroke-linejoin="round"/>
<path d="M334.976 291.718H305.49C302.846 291.718 300.745 289.62 300.745 286.981V258.088H339.72V286.981C339.72 289.62 337.551 291.718 334.976 291.718Z" fill="#92E3A9" stroke="#263238" stroke-miterlimit="10" stroke-linecap="round" stroke-linejoin="round"/>
<path d="M305.761 264.178V268.102" stroke="#263238" stroke-miterlimit="10" stroke-linecap="round" stroke-linejoin="round"/>
<path d="M307.726 264.178V268.102" stroke="#263238" stroke-miterlimit="10" stroke-linecap="round" stroke-linejoin="round"/>
<path d="M309.624 264.178V268.102" stroke="#263238" stroke-miterlimit="10" stroke-linecap="round" stroke-linejoin="round"/>
<path d="M310.912 269.389V273.313" stroke="#263238" stroke-miterlimit="10" stroke-linecap="round" stroke-linejoin="round"/>
<path d="M312.877 269.389V273.313" stroke="#263238" stroke-miterlimit="10" stroke-linecap="round" stroke-linejoin="round"/>
<path d="M314.775 269.389V273.313" stroke="#263238" stroke-miterlimit="10" stroke-linecap="round" stroke-linejoin="round"/>
<path d="M305.761 275.139V279.063" stroke="#263238" stroke-miterlimit="10" stroke-linecap="round" stroke-linejoin="round"/>
<path d="M307.726 275.139V279.063" stroke="#263238" stroke-miterlimit="10" stroke-linecap="round" stroke-linejoin="round"/>
<path d="M309.624 275.139V279.063" stroke="#263238" stroke-miterlimit="10" stroke-linecap="round" stroke-linejoin="round"/>
<path d="M309.692 269.592H305.761" stroke="#263238" stroke-miterlimit="10" stroke-linecap="round" stroke-linejoin="round"/>
<path d="M309.692 271.486H305.761" stroke="#263238" stroke-miterlimit="10" stroke-linecap="round" stroke-linejoin="round"/>
<path d="M309.692 273.449H305.761" stroke="#263238" stroke-miterlimit="10" stroke-linecap="round" stroke-linejoin="round"/>
<path d="M314.911 264.312H310.98" stroke="#263238" stroke-miterlimit="10" stroke-linecap="round" stroke-linejoin="round"/>
<path d="M314.911 266.207H310.98" stroke="#263238" stroke-miterlimit="10" stroke-linecap="round" stroke-linejoin="round"/>
<path d="M314.911 268.17H310.98" stroke="#263238" stroke-miterlimit="10" stroke-linecap="round" stroke-linejoin="round"/>
<path d="M327.926 274.6V278.524" stroke="#263238" stroke-miterlimit="10" stroke-linecap="round" stroke-linejoin="round"/>
<path d="M329.892 274.6V278.524" stroke="#263238" stroke-miterlimit="10" stroke-linecap="round" stroke-linejoin="round"/>
<path d="M331.789 274.6V278.524" stroke="#263238" stroke-miterlimit="10" stroke-linecap="round" stroke-linejoin="round"/>
<path d="M333.077 279.811V283.735" stroke="#263238" stroke-miterlimit="10" stroke-linecap="round" stroke-linejoin="round"/>
<path d="M335.042 279.811V283.735" stroke="#263238" stroke-miterlimit="10" stroke-linecap="round" stroke-linejoin="round"/>
<path d="M336.94 279.811V283.735" stroke="#263238" stroke-miterlimit="10" stroke-linecap="round" stroke-linejoin="round"/>
<path d="M327.926 285.494V289.419" stroke="#263238" stroke-miterlimit="10" stroke-linecap="round" stroke-linejoin="round"/>
<path d="M329.892 285.494V289.419" stroke="#263238" stroke-miterlimit="10" stroke-linecap="round" stroke-linejoin="round"/>
<path d="M331.789 285.494V289.419" stroke="#263238" stroke-miterlimit="10" stroke-linecap="round" stroke-linejoin="round"/>
<path d="M331.857 279.945H327.926" stroke="#263238" stroke-miterlimit="10" stroke-linecap="round" stroke-linejoin="round"/>
<path d="M331.857 281.908H327.926" stroke="#263238" stroke-miterlimit="10" stroke-linecap="round" stroke-linejoin="round"/>
<path d="M331.857 283.803H327.926" stroke="#263238" stroke-miterlimit="10" stroke-linecap="round" stroke-linejoin="round"/>
<path d="M337.076 274.668H333.144" stroke="#263238" stroke-miterlimit="10" stroke-linecap="round" stroke-linejoin="round"/>
<path d="M337.076 276.631H333.144" stroke="#263238" stroke-miterlimit="10" stroke-linecap="round" stroke-linejoin="round"/>
<path d="M337.076 278.525H333.144" stroke="#263238" stroke-miterlimit="10" stroke-linecap="round" stroke-linejoin="round"/>
<path d="M339.653 260.05H300.813C299.796 260.05 298.983 259.238 298.983 258.223C298.983 257.208 299.796 256.396 300.813 256.396H339.653C340.669 256.396 341.483 257.208 341.483 258.223C341.483 259.238 340.669 260.05 339.653 260.05Z" fill="#92E3A9" stroke="#263238" stroke-miterlimit="10" stroke-linecap="round" stroke-linejoin="round"/>
<path d="M305.015 226.826L300.812 256.396" stroke="#263238" stroke-miterlimit="10" stroke-linecap="round" stroke-linejoin="round"/>
<path d="M335.314 226.826L339.652 256.396" stroke="#263238" stroke-miterlimit="10" stroke-linecap="round" stroke-linejoin="round"/>
<path d="M381 133.854C381 100.36 353.751 73.1582 320.199 73.1582C286.646 73.1582 259.397 100.36 259.397 133.854C259.397 152.259 267.599 168.769 280.613 179.934H280.342C280.342 179.934 290.103 189.881 292.543 192.385C294.983 194.956 301.016 201.587 302.304 204.835C303.659 208.083 304.947 214.038 304.947 214.038H320.063H335.179C335.179 214.038 336.534 208.015 337.822 204.835C339.178 201.587 345.143 194.888 347.583 192.385C350.023 189.813 359.784 179.934 359.784 179.934H359.716C372.798 168.837 381 152.327 381 133.854Z" fill="#92E3A9" stroke="#263238" stroke-miterlimit="10" stroke-linecap="round" stroke-linejoin="round"/>
<path d="M287.798 187.58C289.764 189.61 291.662 191.505 292.543 192.452C293.017 192.993 293.695 193.67 294.373 194.414H345.753C346.498 193.602 347.108 192.926 347.583 192.452C348.464 191.505 350.294 189.61 352.327 187.58H287.798Z" fill="white" stroke="#263238" stroke-miterlimit="10" stroke-linecap="round" stroke-linejoin="round"/>
<path d="M320.198 73.2266C309.963 73.2266 300.27 75.7978 291.797 80.2638H348.599C340.126 75.7302 330.433 73.2266 320.198 73.2266Z" fill="white" stroke="#263238" stroke-miterlimit="10" stroke-linecap="round" stroke-linejoin="round"/>
<path d="M259.397 133.853C259.397 149.687 265.498 164.1 275.394 174.926H364.935C374.899 164.1 380.932 149.687 380.932 133.853C380.932 115.313 372.595 98.6674 359.445 87.5703H280.817C267.735 98.7351 259.397 115.313 259.397 133.853Z" fill="white" stroke="#263238" stroke-miterlimit="10" stroke-linecap="round" stroke-linejoin="round"/>
<path d="M335.314 214.105H305.015V226.827H335.314V214.105Z" fill="white" stroke="#263238" stroke-miterlimit="10" stroke-linecap="round" stroke-linejoin="round"/>
<path d="M283.189 104.689C279.868 110.982 277.36 118.426 276.479 127.087C272.276 168.024 304.812 190.76 304.812 190.76" stroke="#263238" stroke-miterlimit="10" stroke-linecap="round" stroke-linejoin="round"/>
<path d="M320.199 73.2266C320.199 73.2266 299.118 80.1284 286.104 99.8867" stroke="#263238" stroke-miterlimit="10" stroke-linecap="round" stroke-linejoin="round"/>
<path d="M314.437 166.131C315.589 175.536 317.419 185.551 320.063 196.242" stroke="#263238" stroke-miterlimit="10" stroke-linecap="round" stroke-linejoin="round"/>
<path d="M321.284 81.9551C321.284 81.9551 308.54 112.269 313.963 162.342" stroke="#263238" stroke-miterlimit="10" stroke-linecap="round" stroke-linejoin="round"/>
<path d="M360.055 154.965C355.175 181.625 339.517 192.045 339.517 192.045" stroke="#263238" stroke-miterlimit="10" stroke-linecap="round" stroke-linejoin="round"/>
<path d="M343.787 86.623C351.04 94.9459 360.936 110.915 361.478 136.357C361.614 141.432 361.343 146.101 360.8 150.364" stroke="#263238" stroke-miterlimit="10" stroke-linecap="round" stroke-linejoin="round"/>
<path d="M336.059 79.3828C336.059 79.3828 338.432 80.9391 341.685 84.3901" stroke="#263238" stroke-miterlimit="10" stroke-linecap="round" stroke-linejoin="round"/>
<path d="M308.2 193.332C308.2 193.332 308.2 193.4 308.268 193.467C311.251 197.189 312.81 201.79 312.81 206.527V209.842" stroke="#263238" stroke-miterlimit="10" stroke-linecap="round" stroke-linejoin="round"/>
<path d="M320.402 201.52V209.436" stroke="#263238" stroke-miterlimit="10" stroke-linecap="round" stroke-linejoin="round"/>
<path d="M337.686 194.686C337.686 194.686 334.839 196.107 333.145 200.369C331.45 204.632 331.179 209.978 331.179 209.978" stroke="#263238" stroke-miterlimit="10" stroke-linecap="round" stroke-linejoin="round"/>
<path d="M336.601 162.273C334.026 162.273 331.043 162.273 328.264 162.205C321.147 162.137 314.165 159.634 308.607 155.1L307.658 154.288C307.387 154.085 307.251 153.747 307.319 153.409L309.556 122.418C309.556 122.012 309.827 121.674 310.234 121.538C310.301 121.538 317.554 118.899 322.028 115.448C324.129 113.824 328.942 109.291 327.925 102.118C327.518 99.141 327.722 97.314 328.603 96.299C329.077 95.8253 329.62 95.5547 330.297 95.5547C331.518 95.5547 333.009 96.4343 334.703 98.126C338.296 101.712 338.499 105.907 338.499 109.629C338.431 113.892 336.805 118.426 335.856 120.659C340.804 120.862 353.276 121.403 355.309 122.283C356.936 122.959 358.224 125.057 358.834 126.816C359.58 128.914 359.647 130.876 358.97 132.229C358.156 133.921 357.139 134.936 356.462 135.545C356.936 136.628 357.478 138.658 356.394 140.755C355.58 142.379 354.767 143.529 354.225 144.138C354.835 145.153 355.716 147.048 355.174 149.349C354.632 151.717 352.598 153.679 351.581 154.559C351.785 155.439 351.785 156.86 350.565 158.551C348.734 161.122 346.498 161.799 344.532 162.137C344.329 162.137 343.651 162.273 336.601 162.273Z" fill="white"/>
<path d="M330.365 96.569C331.314 96.569 332.67 97.4487 334.026 98.8697C337.211 102.05 337.55 105.704 337.483 109.628C337.415 115.245 334.297 121.605 334.297 121.605C334.297 121.605 352.666 122.214 354.835 123.162C357.072 124.109 359.241 129.184 358.021 131.687C356.733 134.191 355.174 135.138 355.174 135.138C355.174 135.138 356.733 137.642 355.513 140.213C354.225 142.717 353.005 144.002 353.005 144.002C353.005 144.002 354.903 146.235 354.293 149.077C353.683 151.919 350.497 154.152 350.497 154.152C350.497 154.152 351.446 155.709 349.887 157.942C348.328 160.175 346.43 160.784 344.532 161.122C343.922 161.257 340.668 161.257 336.737 161.257C334.161 161.257 331.179 161.257 328.4 161.189C321.486 161.122 314.775 158.686 309.42 154.288L308.472 153.476L310.708 122.485C310.708 122.485 318.097 119.778 322.774 116.192C325.892 113.756 330.027 108.884 329.078 101.915C328.4 98.0577 329.078 96.569 330.365 96.569ZM330.365 94.5391C329.416 94.5391 328.535 94.9451 327.857 95.6894C326.773 96.975 326.502 99.005 326.908 102.321C327.79 108.952 323.384 113.215 321.418 114.703C317.08 118.019 309.963 120.658 309.895 120.658C309.149 120.929 308.607 121.605 308.539 122.417L306.302 153.408C306.235 154.085 306.506 154.694 307.048 155.1L307.997 155.912C313.691 160.581 320.876 163.219 328.264 163.287C331.45 163.287 334.297 163.355 336.601 163.355C343.719 163.355 344.396 163.219 344.735 163.219C346.769 162.881 349.345 162.137 351.446 159.227C352.598 157.603 352.802 156.115 352.734 155.032C353.954 153.949 355.716 152.055 356.191 149.686C356.665 147.521 356.055 145.559 355.445 144.341C355.987 143.596 356.665 142.582 357.275 141.296C358.224 139.401 358.089 137.371 357.614 135.883C358.292 135.206 359.105 134.191 359.851 132.77C360.936 130.605 360.258 127.966 359.783 126.545C359.444 125.597 358.156 122.485 355.716 121.47C353.751 120.658 343.719 120.117 337.347 119.846C338.296 117.342 339.516 113.418 339.516 109.764C339.584 105.907 339.313 101.441 335.449 97.584C333.483 95.4864 331.857 94.5391 330.365 94.5391Z" fill="#263238"/>
<path d="M310.911 120.32H284.612V159.499H310.911V120.32Z" fill="#01B187" stroke="#263238" stroke-miterlimit="10" stroke-linecap="round" stroke-linejoin="round"/>
</svg>
