<svg width="451" height="459" viewBox="0 0 451 459" fill="none" xmlns="http://www.w3.org/2000/svg">
<path d="M249.64 282.777C360.411 261.234 439.597 189.2 426.505 121.885C413.414 54.5704 313.003 17.4645 202.232 39.0072C91.4602 60.5499 12.2747 132.583 25.366 199.898C38.4574 267.213 138.868 304.319 249.64 282.777Z" fill="#F9F9FF"/>
<path d="M43.2678 370.614C43.2678 370.614 403.674 370.869 407.727 370.869C409.966 370.869 475.75 292.275 439.159 183.609C438.082 180.378 436.665 177.374 435.248 174.454C434.568 173.066 433.887 171.677 433.15 170.345C430.996 166.348 428.701 162.579 426.32 159.093C425.129 157.364 423.911 155.691 422.692 154.076C387.122 107.509 331.287 108.472 311.588 118.619C289.821 129.843 275.82 103.456 243.764 103.087C241.44 103.059 239.229 103.116 237.075 103.229C236.509 103.257 235.942 103.314 235.403 103.342C190.026 106.857 185.35 143.136 148.476 139.876C109.448 136.418 73.9347 112.072 31.9591 162.579C-46.0401 256.45 43.2678 370.614 43.2678 370.614Z" fill="#E9E9E9"/>
<path d="M119.538 197.526H91.3937C90.0899 197.526 89.0413 196.478 89.0413 195.174V167.993C89.0413 166.689 90.0899 165.641 91.3937 165.641H119.538C120.842 165.641 121.89 166.689 121.89 167.993V195.174C121.89 196.478 120.842 197.526 119.538 197.526Z" fill="#677282"/>
<path d="M118.319 196.136H92.6123C91.4219 196.136 90.4583 195.173 90.4583 193.982V169.154C90.4583 167.964 91.4219 167 92.6123 167H118.319C119.51 167 120.473 167.964 120.473 169.154V194.011C120.473 195.173 119.51 196.136 118.319 196.136Z" fill="#E9E9E9"/>
<path d="M105.481 170.63C105.857 170.63 106.161 170.325 106.161 169.95C106.161 169.574 105.857 169.27 105.481 169.27C105.105 169.27 104.801 169.574 104.801 169.95C104.801 170.325 105.105 170.63 105.481 170.63Z" fill="#677282"/>
<path d="M110.895 171.905C111.271 171.905 111.576 171.601 111.576 171.225C111.576 170.849 111.271 170.545 110.895 170.545C110.52 170.545 110.215 170.849 110.215 171.225C110.215 171.601 110.52 171.905 110.895 171.905Z" fill="#677282"/>
<path d="M115.372 175.901C115.748 175.901 116.053 175.597 116.053 175.221C116.053 174.846 115.748 174.541 115.372 174.541C114.997 174.541 114.692 174.846 114.692 175.221C114.692 175.597 114.997 175.901 115.372 175.901Z" fill="#677282"/>
<path d="M117.329 181.796C117.705 181.796 118.009 181.491 118.009 181.116C118.009 180.74 117.705 180.436 117.329 180.436C116.953 180.436 116.649 180.74 116.649 181.116C116.649 181.491 116.953 181.796 117.329 181.796Z" fill="#677282"/>
<path d="M115.657 188.316C116.032 188.316 116.337 188.011 116.337 187.635C116.337 187.26 116.032 186.955 115.657 186.955C115.281 186.955 114.977 187.26 114.977 187.635C114.977 188.011 115.281 188.316 115.657 188.316Z" fill="#677282"/>
<path d="M111.376 192.597C111.752 192.597 112.056 192.292 112.056 191.917C112.056 191.541 111.752 191.236 111.376 191.236C111 191.236 110.696 191.541 110.696 191.917C110.696 192.292 111 192.597 111.376 192.597Z" fill="#677282"/>
<path d="M105.481 194.325C105.857 194.325 106.161 194.021 106.161 193.645C106.161 193.269 105.857 192.965 105.481 192.965C105.105 192.965 104.801 193.269 104.801 193.645C104.801 194.021 105.105 194.325 105.481 194.325Z" fill="#677282"/>
<path d="M100.039 171.905C100.415 171.905 100.719 171.601 100.719 171.225C100.719 170.849 100.415 170.545 100.039 170.545C99.6634 170.545 99.3589 170.849 99.3589 171.225C99.3589 171.601 99.6634 171.905 100.039 171.905Z" fill="#677282"/>
<path d="M95.5619 175.901C95.9375 175.901 96.2421 175.597 96.2421 175.221C96.2421 174.846 95.9375 174.541 95.5619 174.541C95.1862 174.541 94.8816 174.846 94.8816 175.221C94.8816 175.597 95.1862 175.901 95.5619 175.901Z" fill="#677282"/>
<path d="M93.6052 181.798C93.9809 181.798 94.2855 181.493 94.2855 181.118C94.2855 180.742 93.9809 180.438 93.6052 180.438C93.2296 180.438 92.925 180.742 92.925 181.118C92.925 181.493 93.2296 181.798 93.6052 181.798Z" fill="#677282"/>
<path d="M95.2777 188.316C95.6534 188.316 95.9579 188.011 95.9579 187.635C95.9579 187.26 95.6534 186.955 95.2777 186.955C94.902 186.955 94.5974 187.26 94.5974 187.635C94.5974 188.011 94.902 188.316 95.2777 188.316Z" fill="#677282"/>
<path d="M99.5567 192.595C99.9323 192.595 100.237 192.29 100.237 191.915C100.237 191.539 99.9323 191.234 99.5567 191.234C99.181 191.234 98.8765 191.539 98.8765 191.915C98.8765 192.29 99.181 192.595 99.5567 192.595Z" fill="#677282"/>
<path d="M105.961 181.796C106.336 181.796 106.641 181.491 106.641 181.116C106.641 180.74 106.336 180.436 105.961 180.436C105.585 180.436 105.28 180.74 105.28 181.116C105.28 181.491 105.585 181.796 105.961 181.796Z" fill="#677282"/>
<path d="M106.074 172.613H105.875V181.116H106.074V172.613Z" fill="#677282"/>
<path d="M110.603 177.776L110.253 177.33L105.75 180.866L106.1 181.312L110.603 177.776Z" fill="#677282"/>
<path d="M414.034 110.852H299.607V266.949H414.034V110.852Z" fill="#99A7D8"/>
<path d="M409.485 115.412H295.059V271.51H409.485V115.412Z" fill="#F1F3F2"/>
<path d="M361.421 262.742C355.086 262.742 349.939 257.595 349.939 251.261C349.939 244.927 355.086 239.779 361.421 239.779C367.755 239.779 372.902 244.927 372.902 251.261C372.902 257.595 367.755 262.742 361.421 262.742ZM361.421 240.837C355.674 240.837 350.997 245.514 350.997 251.261C350.997 257.007 355.674 261.684 361.421 261.684C367.167 261.684 371.844 257.007 371.844 251.261C371.856 245.514 367.179 240.837 361.421 240.837Z" fill="#3E8EDD"/>
<path d="M398.474 161.113H306.199V229.978H398.474V161.113Z" fill="#3E8EDD"/>
<path d="M398.474 171.231H306.2C305.941 171.231 305.729 171.02 305.729 170.761C305.729 170.503 305.941 170.291 306.2 170.291H398.474C398.732 170.291 398.944 170.503 398.944 170.761C398.944 171.02 398.732 171.231 398.474 171.231Z" fill="#305777"/>
<path d="M398.474 179.046H306.2C306.082 179.046 306 178.952 306 178.846C306 178.729 306.094 178.646 306.2 178.646H398.474C398.592 178.646 398.674 178.74 398.674 178.846C398.674 178.964 398.58 179.046 398.474 179.046Z" fill="#305777"/>
<path d="M398.474 187.661H306.2C306.082 187.661 306 187.567 306 187.461C306 187.344 306.094 187.262 306.2 187.262H398.474C398.592 187.262 398.674 187.356 398.674 187.461C398.674 187.567 398.58 187.661 398.474 187.661Z" fill="#305777"/>
<path d="M398.474 222.093H306.2C306.082 222.093 306 221.999 306 221.893C306 221.787 306.094 221.693 306.2 221.693H398.474C398.592 221.693 398.674 221.787 398.674 221.893C398.674 221.999 398.58 222.093 398.474 222.093Z" fill="#305777"/>
<path d="M398.474 213.48H306.2C306.082 213.48 306 213.386 306 213.28C306 213.174 306.094 213.08 306.2 213.08H398.474C398.592 213.08 398.674 213.174 398.674 213.28C398.674 213.386 398.58 213.48 398.474 213.48Z" fill="#305777"/>
<path d="M398.474 204.878H306.2C306.082 204.878 306 204.784 306 204.678C306 204.573 306.094 204.479 306.2 204.479H398.474C398.592 204.479 398.674 204.573 398.674 204.678C398.674 204.784 398.58 204.878 398.474 204.878Z" fill="#305777"/>
<path d="M398.474 196.263H306.2C306.082 196.263 306 196.169 306 196.063C306 195.957 306.094 195.863 306.2 195.863H398.474C398.592 195.863 398.674 195.957 398.674 196.063C398.674 196.169 398.58 196.263 398.474 196.263Z" fill="#305777"/>
<path d="M377.967 230.448C377.708 230.448 377.497 230.236 377.497 229.978V161.113C377.497 160.854 377.708 160.643 377.967 160.643C378.225 160.643 378.437 160.854 378.437 161.113V229.978C378.437 230.236 378.225 230.448 377.967 230.448Z" fill="#305777"/>
<path d="M319.784 136.658H317.246C317.058 136.658 316.905 136.811 316.905 136.999V149.55C316.905 149.738 317.058 149.891 317.246 149.891H319.784C319.972 149.891 320.125 149.738 320.125 149.55V136.999C320.125 136.811 319.972 136.658 319.784 136.658Z" fill="#FF593A"/>
<path d="M332.183 136.658H329.832C329.644 136.658 329.492 136.811 329.492 136.999V144.191L324.979 136.823C324.92 136.717 324.814 136.658 324.697 136.658H322.229C322.041 136.658 321.888 136.811 321.888 136.999V149.55C321.888 149.738 322.041 149.891 322.229 149.891H324.579C324.767 149.891 324.92 149.738 324.92 149.55V142.546L329.362 149.726C329.421 149.82 329.527 149.891 329.644 149.891H332.183C332.371 149.891 332.523 149.738 332.523 149.55V136.999C332.523 136.811 332.371 136.658 332.183 136.658Z" fill="#FF593A"/>
<path d="M345.274 136.658H342.583C342.442 136.658 342.313 136.752 342.266 136.893L339.504 145.237L336.648 136.893C336.601 136.752 336.472 136.67 336.331 136.67H333.581C333.475 136.67 333.37 136.729 333.311 136.811C333.252 136.905 333.229 137.011 333.264 137.117L337.753 149.667C337.8 149.797 337.929 149.891 338.07 149.891H340.773C340.914 149.891 341.044 149.797 341.091 149.667L345.591 137.117C345.627 137.011 345.615 136.893 345.544 136.811C345.486 136.717 345.38 136.658 345.274 136.658Z" fill="#FF593A"/>
<path d="M352.125 136.447C351.068 136.447 350.104 136.624 349.293 136.964C348.67 137.223 348.083 137.634 347.554 138.175C347.037 138.704 346.614 139.326 346.32 139.996C345.92 140.901 345.721 142.029 345.721 143.357C345.721 145.437 346.308 147.094 347.472 148.293C348.635 149.492 350.21 150.103 352.172 150.103C354.1 150.103 355.674 149.492 356.838 148.281C358.001 147.083 358.589 145.402 358.589 143.287C358.589 141.16 358.001 139.467 356.826 138.269C355.627 137.058 354.053 136.447 352.125 136.447ZM355.263 143.228C355.263 144.591 354.969 145.614 354.382 146.283C353.794 146.942 353.066 147.259 352.149 147.259C351.232 147.259 350.492 146.93 349.904 146.272C349.305 145.602 349.011 144.591 349.011 143.263C349.011 141.912 349.305 140.901 349.881 140.243C350.457 139.597 351.197 139.279 352.161 139.279C353.113 139.279 353.853 139.585 354.417 140.231C354.981 140.878 355.263 141.888 355.263 143.228Z" fill="#FF593A"/>
<path d="M362.667 136.658H360.129C359.941 136.658 359.788 136.811 359.788 136.999V149.55C359.788 149.738 359.941 149.891 360.129 149.891H362.667C362.855 149.891 363.008 149.738 363.008 149.55V136.999C362.996 136.811 362.843 136.658 362.667 136.658Z" fill="#FF593A"/>
<path d="M375.664 145.39L373.208 144.615C373.114 144.591 373.02 144.591 372.938 144.638C372.856 144.685 372.797 144.767 372.773 144.85C372.574 145.696 372.268 146.319 371.833 146.695C371.41 147.071 370.917 147.247 370.317 147.247C369.495 147.247 368.86 146.953 368.343 146.354C367.826 145.743 367.567 144.673 367.567 143.181C367.567 141.771 367.838 140.76 368.355 140.161C368.872 139.561 369.53 139.279 370.364 139.279C370.964 139.279 371.457 139.444 371.869 139.773C372.28 140.102 372.55 140.549 372.679 141.124C372.703 141.207 372.75 141.289 372.832 141.336C372.915 141.383 372.997 141.395 373.091 141.383L375.606 140.784C375.7 140.76 375.77 140.701 375.817 140.631C375.864 140.549 375.876 140.455 375.852 140.372C375.547 139.315 375.089 138.48 374.477 137.904C373.455 136.941 372.127 136.447 370.505 136.447C368.66 136.447 367.144 137.07 366.005 138.292C364.865 139.503 364.301 141.218 364.301 143.393C364.301 145.449 364.876 147.094 366.005 148.293C367.144 149.492 368.602 150.103 370.364 150.103C371.786 150.103 372.973 149.738 373.902 149.033C374.83 148.328 375.512 147.235 375.899 145.802C375.935 145.625 375.841 145.449 375.664 145.39Z" fill="#FF593A"/>
<path d="M387.286 147.094H380.611V144.356H386.581C386.769 144.356 386.922 144.203 386.922 144.015V141.899C386.922 141.711 386.769 141.559 386.581 141.559H380.611V139.455H387.051C387.239 139.455 387.392 139.302 387.392 139.114V136.987C387.392 136.799 387.239 136.646 387.051 136.646H377.744C377.556 136.646 377.403 136.799 377.403 136.987V149.538C377.403 149.726 377.556 149.879 377.744 149.879H387.286C387.474 149.879 387.627 149.726 387.627 149.538V147.423C387.627 147.246 387.474 147.094 387.286 147.094Z" fill="#FF593A"/>
<path d="M361.421 258.113C357.637 258.113 354.57 255.034 354.57 251.261C354.57 247.477 357.649 244.41 361.421 244.41C365.205 244.41 368.272 247.489 368.272 251.261C368.272 255.034 365.205 258.113 361.421 258.113ZM361.421 245.468C358.225 245.468 355.627 248.065 355.627 251.261C355.627 254.458 358.225 257.055 361.421 257.055C364.618 257.055 367.215 254.458 367.215 251.261C367.215 248.065 364.618 245.468 361.421 245.468Z" fill="#3E8EDD"/>
<path d="M359.893 252.859C359.787 252.859 359.693 252.823 359.611 252.741C359.446 252.588 359.446 252.33 359.599 252.165C359.622 252.142 360.986 250.685 362.278 248.581C361.938 247.876 361.644 247.041 361.421 246.054C360.68 242.717 361.515 239.332 362.748 238.251C363.254 237.805 363.7 237.887 363.924 237.969C364.582 238.216 365.028 239.121 365.252 240.684C365.663 243.504 364.523 246.395 363.219 248.628C364.112 250.238 365.24 250.955 365.98 251.272C367.144 251.777 368.401 251.754 369.329 251.202C369.846 250.896 370.223 250.32 370.458 249.639C369.435 248.804 368.765 247.794 368.425 246.853C368.013 245.737 368.048 244.715 368.507 244.174C368.777 243.857 369.177 243.728 369.623 243.822C370.552 244.01 371.221 244.961 371.48 246.454C371.633 247.347 371.609 248.381 371.386 249.321C372.15 249.838 373.102 250.25 374.253 250.438C376.11 250.732 377.133 250.12 377.697 249.368C376.216 248.428 375.499 246.947 375.323 245.749C375.158 244.668 375.417 243.716 375.981 243.269C376.38 242.952 376.897 242.905 377.438 243.128C378.86 243.716 379.647 246.278 379.048 248.416C379.001 248.593 378.919 248.816 378.825 249.051C378.883 249.075 378.942 249.098 379.001 249.122C380.787 249.815 382.585 248.934 383.772 247.805C382.738 246.806 382.562 245.608 382.538 244.985C382.491 243.387 383.314 241.847 384.36 241.553C384.665 241.471 385.417 241.377 386.005 242.376C386.863 243.833 386.452 245.913 384.959 247.711C385.406 247.982 385.97 248.217 386.675 248.381C387.744 248.628 388.72 248.452 389.625 247.841C392.786 245.725 393.926 239.191 393.937 239.133C393.973 238.909 394.184 238.768 394.407 238.804C394.631 238.839 394.772 239.05 394.737 239.274C394.69 239.556 393.538 246.207 390.083 248.522C388.99 249.251 387.791 249.474 386.499 249.18C385.617 248.981 384.936 248.687 384.407 248.322C383.032 249.662 380.893 250.72 378.707 249.885C378.613 249.85 378.519 249.815 378.425 249.768C377.755 250.72 376.486 251.625 374.124 251.249C372.949 251.061 371.95 250.661 371.139 250.144C370.845 250.908 370.387 251.542 369.752 251.918C368.601 252.6 367.061 252.647 365.663 252.036C364.887 251.695 363.712 250.967 362.748 249.427C361.526 251.343 360.304 252.635 360.198 252.741C360.116 252.812 359.999 252.859 359.893 252.859ZM369.341 244.609C369.224 244.609 369.153 244.656 369.118 244.715C368.895 244.973 368.848 245.69 369.177 246.583C369.447 247.312 369.94 248.087 370.669 248.769C370.787 248.052 370.787 247.288 370.669 246.595C370.481 245.49 370.011 244.738 369.459 244.621C369.412 244.609 369.376 244.609 369.341 244.609ZM376.792 243.798C376.615 243.798 376.521 243.869 376.486 243.904C376.157 244.162 376.016 244.856 376.134 245.631C376.286 246.642 376.886 247.864 378.12 248.663C378.19 248.499 378.249 248.334 378.284 248.193C378.801 246.336 378.096 244.268 377.144 243.88C376.991 243.81 376.874 243.798 376.792 243.798ZM363.583 238.721C363.501 238.721 363.395 238.768 363.289 238.874C362.372 239.673 361.526 242.729 362.22 245.89C362.372 246.583 362.572 247.194 362.784 247.723C363.9 245.678 364.805 243.187 364.452 240.801C364.194 239.015 363.736 238.768 363.642 238.733C363.63 238.721 363.606 238.721 363.583 238.721ZM384.712 242.294C384.654 242.294 384.607 242.306 384.583 242.317C383.972 242.494 383.314 243.657 383.349 244.95C383.361 245.561 383.549 246.454 384.325 247.206C385.582 245.69 385.982 243.916 385.312 242.764C385.065 242.364 384.853 242.294 384.712 242.294Z" fill="#FF593A"/>
<g opacity="0.4">
<path d="M273.638 317.018C273.043 318.463 267.204 319.795 258.531 320.986C257.001 321.184 255.385 321.411 253.713 321.609C224.237 325.095 143.46 327.023 138.5 326.002C131.613 324.585 117.923 255.401 117.923 255.401C117.923 255.401 158.226 254.692 190.225 254.352C201.166 254.239 239.258 253.955 246.316 253.955C257.256 253.955 274.63 314.694 273.638 317.018Z" fill="#D4D5D9"/>
<path d="M262.499 308.146C262.499 308.146 250.114 260.757 249.235 256.761C248.838 254.975 247.619 254.352 246.372 254.182C248.555 253.983 250.142 253.955 250.142 253.955C254.422 253.955 258.22 256.846 259.608 261.126C262.613 270.479 268.565 288.42 274.148 305.964C273.836 305.936 262.499 308.146 262.499 308.146Z" fill="#B0D4FF"/>
<path d="M337.494 350.094C335.51 361.97 322.614 369.566 309.378 369.566H283.161L285.202 300.863C285.202 300.863 310.228 292.7 316.52 299.899C322.019 306.191 336.956 331.105 337.721 345.843C337.806 347.317 337.721 348.734 337.494 350.094Z" fill="#B8C0C7"/>
<path d="M337.495 350.094C335.511 361.97 322.615 369.566 309.379 369.566H296.511C305.099 364.096 312.836 347.26 337.495 350.094Z" fill="#B8C0C7"/>
<path d="M267.912 307.609C267.912 307.609 303.284 290.632 309.973 301.714C313.516 307.609 323.322 331.077 324.031 345.815C324.74 360.128 311.532 369.538 297.956 369.538H273.836L267.912 307.609Z" fill="#677282"/>
<path d="M314.508 358.002C314.111 358.314 313.714 358.626 313.317 358.937C308.216 362.707 301.555 365.711 293.931 367.554C288.177 368.942 281.857 369.708 275.281 369.651H263.831H263.689L209.441 369.679H178.349H177.896L176.819 364.039L166.984 307.098C166.984 307.098 303.284 304.037 314.366 310.358C319.524 313.306 322.444 325.465 324.059 338.871C324.796 345.985 321.14 352.674 314.508 358.002Z" fill="#7E8A99"/>
<path d="M314.509 358.001C314.112 358.313 313.715 358.625 313.318 358.937C308.216 362.706 301.556 365.711 293.932 367.553C288.178 368.942 281.858 369.707 275.282 369.65H263.832H263.69L209.442 369.679H178.35H177.897L176.82 364.038C195.894 360.354 222.253 356.613 249.774 356.896C275.962 357.151 297.956 357.123 314.509 358.001Z" fill="#677282"/>
<path d="M204.707 350.717C202.581 362.253 190.904 369.565 178.972 369.565H154.852L156.751 300.267C156.751 300.267 179.765 292.728 185.519 299.899C190.592 306.191 204.31 331.104 205.019 345.842C205.104 347.543 204.99 349.159 204.707 350.717Z" fill="#B8C0C7"/>
<path d="M204.707 350.718C202.581 362.253 190.904 369.566 178.972 369.566H159.67C168.683 363.812 180.842 347.912 204.707 350.718Z" fill="#B8C0C7"/>
<path d="M190.904 351.198C189.94 355.761 187.503 359.616 184.13 362.62C182.118 364.406 179.793 365.88 177.271 367.013C174.182 368.402 170.781 369.252 167.294 369.507C167.124 369.507 166.926 369.536 166.756 369.536C166.614 369.536 166.472 369.536 166.331 369.564C166.104 369.564 165.849 369.592 165.622 369.592C165.509 369.592 165.367 369.592 165.254 369.592H141.134C140.681 369.592 140.199 369.592 139.745 369.621C137.251 369.649 134.672 369.677 132.263 369.706C131.866 369.706 131.469 369.706 131.072 369.706C130.931 369.706 130.789 369.706 130.647 369.706C128.266 369.734 126.169 369.734 124.667 369.706C122.569 369.706 120.585 369.564 118.715 369.281C116.306 368.912 114.095 368.345 112.083 367.495C111.714 367.353 111.374 367.183 111.006 367.013C110.637 366.843 110.297 366.673 109.957 366.475C109.05 365.993 108.171 365.426 107.349 364.803C105.224 363.187 103.353 361.175 101.794 358.652C100.689 356.923 99.7253 354.939 98.9033 352.729C97.883 350.036 97.061 346.947 96.4092 343.489C96.3808 343.404 96.3808 343.319 96.3525 343.234C96.0691 341.647 95.814 339.974 95.5872 338.217C95.5022 337.423 95.3888 336.601 95.3321 335.751C95.0487 332.804 94.8503 329.629 94.7653 326.228C94.7653 325.945 94.737 325.633 94.737 325.321C94.737 325.264 94.737 325.179 94.737 325.123C94.6803 322.43 94.6803 319.568 94.737 316.592C94.7653 315.288 94.7936 313.927 94.8503 312.567C94.8786 311.943 94.8786 311.32 94.907 310.668C95.0203 307.494 95.2188 304.149 95.4455 300.663C95.5589 299.104 95.6723 297.489 95.7856 295.873C96.2958 289.156 97.0044 281.872 97.8547 274.021C98.8183 265.121 99.952 258.886 101.596 257.469C104.005 255.371 109.05 254.521 112.565 254.209C114.747 254.011 116.334 253.982 116.334 253.982C116.419 253.982 116.476 253.982 116.561 253.982C116.618 253.982 116.674 253.982 116.731 253.982C116.873 253.982 116.986 254.011 117.128 254.011C117.213 254.011 117.269 254.011 117.354 254.039C117.411 254.039 117.439 254.039 117.496 254.067C117.581 254.067 117.638 254.096 117.723 254.096C117.865 254.124 117.978 254.124 118.12 254.152C118.205 254.181 118.29 254.181 118.375 254.209H118.403C118.46 254.238 118.517 254.238 118.602 254.266C118.715 254.294 118.857 254.323 118.97 254.351C119.055 254.379 119.14 254.408 119.225 254.436C119.282 254.464 119.338 254.464 119.395 254.493C120.075 254.719 120.699 255.031 121.322 255.371C123.391 256.618 125.035 258.659 125.829 261.181C128.635 269.939 133.623 285.556 138.81 301.91C138.838 301.995 138.867 302.08 138.895 302.165C139.207 303.1 139.49 304.036 139.802 304.999C139.83 305.084 139.859 305.198 139.887 305.283C139.915 305.339 139.915 305.368 139.944 305.424C140.227 305.311 140.539 305.169 140.851 305.056H140.879C142.126 304.546 143.543 303.979 145.045 303.384C145.839 303.072 146.661 302.789 147.483 302.477C149.864 301.627 152.443 300.776 155.022 300.039C156.184 299.728 157.346 299.416 158.508 299.132C159.982 298.792 161.456 298.481 162.901 298.282C162.958 298.282 162.986 298.254 163.015 298.254C163.185 298.225 163.355 298.197 163.525 298.169C164.545 298.027 165.537 297.942 166.472 297.885C171.376 297.602 175.429 298.537 177.299 301.598C177.98 302.76 178.915 304.574 179.992 306.87C182.174 311.632 184.895 318.434 187.106 325.519C189.317 332.577 191.074 339.889 191.357 345.841C191.414 347.683 191.272 349.497 190.904 351.198Z" fill="#677282"/>
<path d="M128.664 308.146C128.664 308.146 116.278 260.757 115.399 256.761C115.002 254.975 113.784 254.352 112.536 254.182C114.719 253.983 116.306 253.955 116.306 253.955C120.586 253.955 124.384 256.846 125.773 261.126C128.777 270.479 134.275 287.683 139.887 305.227C139.575 305.227 128.664 308.146 128.664 308.146Z" fill="#B8C0C7"/>
</g>
<path d="M114.917 288.137V290.206C114.917 290.943 114.691 291.538 114.407 291.538H38.6472C38.3637 291.538 38.137 290.943 38.137 290.206V288.137C38.137 287.4 38.3637 286.805 38.6472 286.805H114.407C114.691 286.833 114.917 287.428 114.917 288.137Z" fill="#B8C0C7"/>
<path d="M114.917 288.137V290.206C114.917 290.943 114.691 291.538 114.436 291.538H54.2923C54.0372 291.538 53.8105 290.943 53.8105 290.206V288.137C53.8105 287.4 54.0372 286.805 54.2923 286.805H114.436C114.719 286.833 114.917 287.428 114.917 288.137Z" fill="#D4D5D9"/>
<path d="M41.9907 291.539H95.7568V369.935H41.9907V291.539Z" fill="#677282"/>
<path d="M57.0693 291.539H110.835V369.935H57.0693V291.539Z" fill="#CCD2D6"/>
<path d="M107.947 293.748H59.934V365.597H107.947V293.748ZM60.4725 294.258H107.436V365.058H60.4725V294.258Z" fill="#677282"/>
<path d="M60.2168 317.527H107.691V318.037H60.2168V317.527Z" fill="#677282"/>
<path d="M60.2168 341.76H107.691V342.27H60.2168V341.76Z" fill="#677282"/>
<path d="M88.8156 298.396H80.001C79.5759 298.396 79.2357 298.056 79.2357 297.63C79.2357 297.205 79.5759 296.865 80.001 296.865H88.8156C89.2407 296.865 89.5808 297.205 89.5808 297.63C89.5808 298.027 89.2407 298.396 88.8156 298.396Z" fill="#677282"/>
<path d="M88.8156 322.091H80.001C79.5759 322.091 79.2357 321.751 79.2357 321.326C79.2357 320.901 79.5759 320.561 80.001 320.561H88.8156C89.2407 320.561 89.5808 320.901 89.5808 321.326C89.5808 321.723 89.2407 322.091 88.8156 322.091Z" fill="#677282"/>
<path d="M88.8156 346.777H80.001C79.5759 346.777 79.2357 346.437 79.2357 346.011C79.2357 345.586 79.5759 345.246 80.001 345.246H88.8156C89.2407 345.246 89.5808 345.586 89.5808 346.011C89.5808 346.437 89.2407 346.777 88.8156 346.777Z" fill="#677282"/>
<path d="M302.973 267.078C302.973 267.078 306.913 267.333 308.5 268.325C310.115 269.317 311.561 269.686 311.277 270.167C310.994 270.621 308.188 269.657 308.131 270.167C308.075 270.678 310.597 272.236 311.306 272.35C312.014 272.463 313.601 272.69 313.318 273.597C313.035 274.504 310.314 274.787 308.16 274.844C306.006 274.901 300.734 271.415 300.734 271.415L302.973 267.078Z" fill="#EE805F"/>
<path d="M300.11 272.009C296.142 272.009 283.02 263.251 278.598 259.709C278.116 259.312 277.748 259 277.521 258.745C275.877 257.073 270.209 248.797 266.184 241.427C263.86 237.176 262.103 233.236 261.961 231.026C261.451 223.146 265.617 212.121 265.617 212.121C277.89 216.401 279.165 226.179 279.165 226.179L285.457 249.562C285.797 250.809 286.506 251.914 287.498 252.736L304.107 266.539C304.645 268.948 301.442 272.009 300.11 272.009Z" fill="#677282"/>
<path d="M278.598 259.68C278.117 259.283 277.748 258.971 277.521 258.716C275.877 257.044 270.209 248.768 266.184 241.399C265.674 236.949 266.014 232.783 267.856 229.863C267.856 229.892 278.287 248.229 278.598 259.68Z" fill="#384152"/>
<path d="M271.541 332.606L269.444 341.308L268.14 346.693L263.832 364.605C263.832 364.605 260.147 365.739 256.321 364.605C256.321 364.605 254.904 358.682 254.876 351.284C254.847 347.43 255.216 343.15 256.349 339.125C256.803 337.481 257.398 335.894 258.135 334.364C264.229 321.978 271.541 332.606 271.541 332.606Z" fill="#EE805F"/>
<path d="M275.112 369.82H254.932C254.932 369.82 254.62 366.759 255.499 363.84C255.64 363.415 255.782 362.961 255.98 362.564C255.98 362.564 260.487 363.585 264.37 362.564C264.37 362.564 268.026 365.682 270.237 366.617C272.419 367.581 274.857 367.071 275.112 369.82Z" fill="#384152"/>
<path d="M269.443 341.307L268.139 346.692C265.957 348.081 261.195 350.632 254.903 351.284C254.875 347.429 255.243 343.15 256.377 339.125C258.247 338.19 260.118 337.679 261.734 337.963C265.73 338.643 268.111 340.117 269.443 341.307Z" fill="#DE6B4D"/>
<path d="M264.626 369.82H254.933C254.933 369.82 254.621 366.759 255.499 363.84C257.909 364.605 262.868 366.504 264.626 369.82Z" fill="#151F2C"/>
<path d="M255.441 332.606L253.344 341.308L252.04 346.693L247.732 364.605C247.732 364.605 244.047 365.739 240.221 364.605C240.221 364.605 238.804 358.682 238.776 351.284C238.747 347.43 239.116 343.15 240.249 339.125C240.703 337.481 241.298 335.894 242.035 334.364C248.129 321.978 255.441 332.606 255.441 332.606Z" fill="#EE805F"/>
<path d="M239.882 362.564C239.882 362.564 244.389 363.585 248.272 362.564C248.272 362.564 251.928 365.682 254.139 366.617C256.349 367.581 258.787 367.043 259.014 369.82H238.834C238.834 369.82 238.409 365.796 239.882 362.564Z" fill="#384152"/>
<path d="M253.373 341.307L252.069 346.692C249.887 348.081 245.125 350.632 238.833 351.284C238.805 347.429 239.173 343.15 240.307 339.125C242.178 338.19 244.048 337.679 245.664 337.963C249.66 338.643 252.041 340.117 253.373 341.307Z" fill="#DE6B4D"/>
<path d="M274.461 342.526C266.921 347.316 235.518 343.886 235.263 339.267C235.263 339.267 236.821 327.646 237.36 322.799C237.587 320.787 237.672 319.172 237.558 318.321C234.299 296.696 231.55 271.244 231.89 266.369C231.946 265.689 231.975 265.32 231.975 265.32C231.975 265.32 234.327 265.122 237.927 264.98C248.357 264.555 269.16 264.64 272.618 271.471C276.133 278.415 276.218 318.746 276.218 318.746C276.161 329.828 274.461 342.526 274.461 342.526Z" fill="#43A1F6"/>
<path d="M237.331 322.772C237.558 320.76 237.643 319.144 237.53 318.294C234.27 296.669 231.521 271.217 231.861 266.342C231.918 265.662 231.946 265.293 231.946 265.293C231.946 265.293 234.299 265.095 237.898 264.953C243.283 268.128 246.798 273.541 246.798 273.541C246.798 273.541 245.692 314.014 237.331 322.772Z" fill="#2B6EB2"/>
<path d="M251.758 180.83C251.758 178.024 253.374 175.984 256.491 175.785C258.787 175.644 261.933 177.032 261.933 179.838C261.933 182.644 259.666 185.904 256.831 185.904C254.025 185.904 251.758 183.636 251.758 180.83Z" fill="#151F2C"/>
<path d="M256.094 201.152C256.094 201.152 243.85 190.127 253.259 181.652C254.166 180.83 255.272 180.263 256.491 180.008C259.778 179.3 267.119 178.279 270.804 182.361C274.8 186.754 276.359 190.127 273.043 194.123C269.727 198.148 256.094 201.152 256.094 201.152Z" fill="#151F2C"/>
<path d="M240.109 274.164C240.109 274.164 240.648 276.29 240.421 278.812C240.109 282.355 239.457 284.311 237.161 285.444C237.161 285.444 234.497 287.258 234.1 284.906C233.704 282.553 234.497 282.468 233.845 279.152C233.193 275.836 233.675 273.314 235.603 271.84L240.109 274.164Z" fill="#EE805F"/>
<path d="M267.12 201.039C267.12 201.039 266.95 202.852 266.638 205.318C266.496 206.509 266.298 207.869 266.099 209.23C265.958 210.222 265.787 211.214 265.589 212.149L261.423 226.235L251.616 210.392C251.616 210.392 253.912 208.493 257.03 198.176C257.058 198.063 257.086 198.006 257.086 198.006L267.12 201.039Z" fill="#EE805F"/>
<path d="M272.845 270.507C272.958 272.094 272.562 272.377 272.562 272.377C272.562 272.377 266.553 274.56 251.39 273.794C249.746 273.709 248.215 273.624 246.77 273.539C237.02 272.972 231.777 272.349 231.777 272.349C231.777 272.349 223.784 253.898 238.805 231.167C240.506 228.588 242.49 225.98 244.814 223.316C247.252 220.538 247.79 216.825 248.697 213.311C248.952 212.291 248.187 212.064 248.584 211.129C248.584 211.129 251.333 210.363 251.616 210.363C253.175 211.724 255.216 214.388 260.318 214.926C263.747 215.295 265.108 213.339 265.589 212.177C266.893 212.659 268.254 213.481 269.387 214.019C278.627 218.441 279.449 227.029 279.449 227.029C279.449 227.029 270.974 254.918 270.436 258.404C270.238 259.963 272.165 262.372 272.845 270.507Z" fill="#677282"/>
<path d="M266.667 205.291C266.525 206.481 266.326 207.842 266.128 209.202C255.443 205.036 256.803 199.197 257.087 198.149C257.115 198.035 257.143 197.979 257.143 197.979C257.143 197.979 262.585 201.89 266.667 205.291Z" fill="#DE6B4D"/>
<path d="M268.877 206.707C268.877 206.707 256.888 207.104 256.775 199.622C256.661 192.167 255.018 187.179 262.67 186.612C270.323 186.045 271.853 188.88 272.505 191.345C273.129 193.84 271.995 206.395 268.877 206.707Z" fill="#EE805F"/>
<path d="M269.925 185.508C269.925 185.508 269.16 199.736 254.564 198.404C254.564 198.375 254.875 179.357 269.925 185.508Z" fill="#151F2C"/>
<path d="M267.119 186.725C267.119 186.725 271.456 189.36 272.788 193.612C272.788 193.612 277.635 186.895 267.119 186.725Z" fill="#151F2C"/>
<path d="M246.769 273.568C237.019 273.001 231.775 272.377 231.775 272.377C231.775 272.377 223.783 253.926 238.804 231.195C241.865 238.281 249.036 257.242 246.769 273.568Z" fill="#384152"/>
<path d="M251.616 210.363C251.616 210.363 240.024 212.744 234.866 218.724C230.898 223.316 226.59 245.707 226.59 249.391C226.59 252.934 230.643 271.725 233.194 275.325C233.364 275.58 233.675 275.722 233.959 275.693L240.478 275.013C241.016 274.956 241.413 274.446 241.328 273.908L237.672 250.156L250.539 227.341C250.539 227.312 258.135 218.328 251.616 210.363Z" fill="#677282"/>
<path d="M240.166 275.693C240.166 275.693 241.895 280.625 241.413 281.078C240.959 281.532 239.741 279.52 239.741 279.52L240.166 275.693Z" fill="#EE805F"/>
<path d="M270.35 201.662C270.35 201.662 269.981 202.881 269.415 202.994C268.848 203.107 267.941 203.306 267.119 202.994C266.325 202.682 266.098 202.03 266.098 202.03C266.098 202.03 267.941 201.35 270.35 201.662Z" fill="white"/>
<path d="M203.658 369.992L203.998 273.259C203.998 273.259 204.735 266.286 210.829 266.258C217.319 266.23 217.716 273.174 217.716 273.174C217.716 273.174 217.631 273.769 216.951 273.769C216.243 273.769 216.129 273.174 216.129 273.174C216.129 273.174 215.817 267.817 210.801 267.845C206.124 267.873 205.557 273.259 205.557 273.259L206.124 369.992H203.658Z" fill="#151F2C"/>
<path d="M206.974 369.992L202.95 370.021L203.29 365.798C203.29 365.798 203.261 365.202 204.055 365.174C204.82 365.146 206.294 365.032 206.464 365.486C206.578 365.883 206.974 369.992 206.974 369.992Z" fill="#151F2C"/>
<path d="M210.83 261.127L211.114 262.516C211.114 262.516 217.944 262.459 219.588 269.772C219.588 269.772 220.042 272.833 217.831 272.181C215.62 271.529 215.96 269.998 212.843 269.148C209.725 268.326 207.684 267.674 207.202 265.407L206.692 262.884L210.83 261.127Z" fill="#EE805F"/>
<path d="M186.285 201.295C186.285 201.295 188.128 208.409 189.743 214.899C190.395 217.507 190.99 220.029 191.415 221.957C191.841 223.912 192.096 225.245 192.011 225.415C190.678 227.625 193.229 241.031 195.213 245.906C195.383 246.332 195.638 246.842 195.922 247.409C198.699 252.765 206.069 263.28 206.069 263.28C206.069 263.28 208.138 263.479 209.47 262.969C210.603 262.544 211.34 261.155 211.34 261.155C211 259.794 207.968 247.72 204.538 240.776C203.064 237.8 200.768 210.195 197.934 206.51C195.553 203.364 186.285 201.295 186.285 201.295Z" fill="#43A1F6"/>
<path d="M192.011 225.386C190.678 227.596 193.229 241.002 195.213 245.877C195.383 246.303 195.638 246.813 195.922 247.38C198.473 235.787 194.023 219.377 194.023 219.377C192.946 219.802 192.096 220.709 191.415 221.928C191.84 223.912 192.096 225.244 192.011 225.386Z" fill="#2B6EB2"/>
<path d="M173.815 359.532C173.815 359.532 173.191 370.019 175.175 370.161C175.43 370.189 185.208 370.132 185.208 370.132L197.821 370.047C197.821 370.047 197.594 366.958 193.938 366.363C190.282 365.739 184.16 363.217 181.92 358.399C179.568 353.325 173.815 359.532 173.815 359.532Z" fill="#151F2C"/>
<path d="M154.853 359.646C154.853 359.646 154.229 370.132 156.213 370.274C156.468 370.302 166.246 370.246 166.246 370.246L178.859 370.161C178.859 370.161 178.632 367.071 174.976 366.476C171.32 365.853 165.198 363.33 162.959 358.512C160.606 353.438 154.853 359.646 154.853 359.646Z" fill="#151F2C"/>
<path d="M173.077 334.25C172.794 338.7 172.198 344.397 172.453 349.527C172.822 356.726 173.077 362.763 173.077 362.763C177.839 364.35 186.511 362.338 186.511 362.338C186.511 362.338 189.487 344.142 191.953 329.63C193.059 323.112 193.966 317.5 194.306 314.836C195.411 306.248 192.775 260.644 192.775 260.644C192.775 260.644 179.908 252.51 174.636 256.761C169.364 261.041 166.133 265.179 174.948 311.548C175.571 315.119 173.7 324.302 173.077 334.25Z" fill="#384152"/>
<path d="M173.078 334.25C172.794 338.7 172.256 345.786 172.511 350.916C176.933 346.183 185.662 336.149 191.926 329.63C193.031 323.112 193.938 317.5 194.278 314.836C195.384 306.248 192.748 260.644 192.748 260.644C192.748 260.644 179.88 252.51 174.608 256.761C169.337 261.041 166.106 265.179 174.92 311.548C175.572 315.119 173.701 324.302 173.078 334.25Z" fill="#151F2C"/>
<path d="M181.156 261.664C181.156 261.664 180.277 307.324 178.52 315.827C176.762 324.301 167.608 363.131 167.608 363.131C167.608 363.131 158.821 363.981 154.202 362.054C154.202 362.054 154.4 344.113 155.874 333.541C157.263 323.678 159.842 314.665 159.445 311.094C154.23 264.186 157.773 260.275 163.356 256.421C168.94 252.566 181.156 261.664 181.156 261.664Z" fill="#384152"/>
<path d="M163.554 265.775C163.554 265.775 166.644 271.869 160.805 276.602C160.805 276.602 158.282 278.359 157.857 276.092C157.461 273.825 157.914 274.618 157.262 271.444C156.639 268.269 157.404 265.01 159.218 263.564L163.554 265.775Z" fill="#EE805F"/>
<path d="M189.063 190.921C189.063 190.921 185.634 196.533 186.342 201.521L181.155 213.851L171.831 199.736C171.831 199.736 176.592 194.096 178.406 186.727L189.063 190.921Z" fill="#EE805F"/>
<path d="M190.622 195.484C190.622 195.484 177.811 196.107 177.528 188.427C177.245 180.717 173.758 175.644 183.338 174.907C191.218 174.312 193.853 177.571 194.59 180.122C195.299 182.645 195.384 195.03 190.622 195.484Z" fill="#EE805F"/>
<path d="M159.644 263.99C162.393 264.217 166.191 264.529 170.811 264.784C171.718 264.841 172.681 264.897 173.673 264.926C187.561 265.634 193.088 263.339 193.088 263.339C193.088 263.339 193.456 263.027 193.315 261.411C192.663 253.022 190.849 250.528 191.076 248.94C191.529 245.341 200.06 216.006 200.06 216.006C200.06 216.006 200.174 206.766 189.857 202.487C188.78 202.033 187.618 201.665 186.314 201.325C185.861 202.515 184.642 204.527 181.496 204.187C176.819 203.677 173.475 200.928 172.058 199.539C171.803 199.539 171.689 199.539 171.689 199.539C171.349 200.531 171.094 201.551 170.839 202.6C170.017 206.228 169.535 210.083 167.324 212.945C165.142 215.779 163.271 218.585 161.684 221.306C160.352 223.574 159.218 225.813 158.255 227.995C149.27 248.204 156.384 263.707 159.644 263.99Z" fill="#43A1F6"/>
<path d="M159.644 263.989C162.393 264.215 166.191 264.527 170.811 264.782C172.029 242.165 162.676 220.482 162.676 220.482C162.336 220.738 161.996 220.993 161.684 221.304C160.097 222.863 158.992 225.187 158.255 227.993C155.562 238.282 157.971 254.919 159.644 263.989Z" fill="#2B6EB2"/>
<path d="M194.703 188.116C194.703 188.116 197.254 198.007 193.031 199.424C188.808 200.841 177.556 199.793 177.471 187.662C177.471 187.662 183.395 191.148 186.2 191.035C189.006 190.922 190.82 189.278 193.428 190.553C193.485 190.553 194.42 190.468 194.703 188.116Z" fill="#151F2C"/>
<path d="M178.065 177.317C178.264 176.524 179.256 176.098 179.256 176.098C186.455 172.924 191.755 176.325 191.755 176.325C187.305 170.402 176.62 171.734 174.409 177.09C170.781 185.848 177.527 187.634 177.527 187.634C177.527 187.634 184.215 184.771 180.304 181.257C179 180.095 178.377 179.046 178.178 178.139C178.065 177.884 178.037 177.572 178.065 177.317Z" fill="#151F2C"/>
<path d="M192.605 192.14C192.605 192.14 191.755 193.472 190.281 193.415C188.808 193.359 188.099 192.14 188.099 192.14C188.099 192.14 190.621 191.658 192.605 192.14Z" fill="white"/>
<path d="M163.413 265.264C163.413 265.264 165.425 268.693 165.681 269.515C165.936 270.337 164.915 270.365 164.348 269.515C163.782 268.665 163.413 265.264 163.413 265.264Z" fill="#EE805F"/>
<path d="M171.66 199.566C171.66 199.566 162.704 199.821 157.999 206C154.4 210.733 150.715 236.1 150.743 239.926C150.772 243.753 154.966 264.755 157.291 267.05C157.291 267.05 158.764 267.419 160.748 267.022C162.846 266.597 164.064 265.378 164.064 265.378C164.064 265.378 162.789 241.939 162.761 239.756C162.732 236.582 172.567 217.026 172.567 217.026C172.567 217.026 177.697 207.729 171.66 199.566Z" fill="#43A1F6"/>
<path d="M20.5938 371.239H431.677C431.989 371.239 432.244 370.984 432.244 370.672V370.19C432.244 369.878 431.989 369.623 431.677 369.623H20.5938C20.282 369.623 20.0269 369.878 20.0269 370.19V370.672C20.0269 370.984 20.282 371.239 20.5938 371.239Z" fill="#151F2C"/>
<path d="M65.8007 253.246C65.8007 253.246 71.1858 246.954 66.1408 242.986C66.1408 242.986 62.4563 240.747 59.4519 240.945C59.4519 240.945 63.7033 248.088 62.3429 248.796C60.9541 249.505 58.1765 240.492 58.1765 240.492C58.1765 240.492 49.787 239.67 47.0661 240.974C47.0661 240.974 54.2368 246.841 52.7346 247.209C51.2325 247.549 43.4666 241.796 43.4666 241.796C43.4666 241.796 35.644 243.128 36.0692 247.889C36.4943 252.651 39.1868 254.125 40.3489 254.011C41.5393 253.898 48.4549 251.234 48.5966 252.226C48.7384 253.19 44.572 256.364 41.6527 256.506C41.6527 256.506 47.1511 262.571 50.8357 260.842C54.4919 259.085 54.8037 256.307 57.0995 255.259C59.3952 254.21 61.3225 254.21 60.3872 255.287C59.4519 256.364 55.3138 257.384 54.0101 259.68C52.7063 261.976 51.5443 263.535 55.3139 262.968C59.1118 262.401 65.2622 259.623 65.5172 256.449C65.8007 253.246 65.8007 253.246 65.8007 253.246Z" fill="#384152"/>
<path d="M39.8957 248.002C39.8957 248.002 61.1244 247.18 65.801 253.246C65.801 253.246 66.8496 256.363 70.024 259.169L70.5342 260.53C70.5342 260.53 66.8497 256.647 65.5459 256.42C65.5459 256.42 67.5866 248.909 39.8957 248.002Z" fill="#384152"/>
<path d="M70.0242 259.169C70.0242 259.169 74.5874 262.542 74.8992 268.551L74.0772 268.636C74.0772 268.636 72.6317 262.4 69.9959 259.991C67.36 257.582 70.0242 259.169 70.0242 259.169Z" fill="#384152"/>
<path d="M83.0598 251.15C83.0598 251.15 76.8812 247.693 79.7721 243.016C79.7721 243.016 82.0679 240.125 84.5337 239.388C84.5337 239.388 83.23 246.389 84.5337 246.531C85.8375 246.701 85.4407 238.623 85.4407 238.623C85.4407 238.623 91.9311 235.505 94.482 235.732C94.482 235.732 90.4573 242.563 91.7611 242.393C93.0649 242.222 97.5997 235.307 97.5997 235.307C97.5997 235.307 104.26 234.06 105.337 238.028C106.414 241.967 104.685 243.951 103.693 244.206C102.701 244.462 96.381 244.377 96.551 245.198C96.7211 246.02 101.001 247.324 103.382 246.587C103.382 246.587 100.746 253.078 97.2879 252.766C93.8301 252.426 92.7531 250.3 90.6274 250.13C88.5017 249.96 86.9145 250.555 87.9915 251.122C89.0685 251.689 92.668 251.321 94.3969 252.766C96.1258 254.24 97.5147 255.147 94.312 255.799C91.1092 256.451 85.3556 256.054 84.1935 253.588C83.0598 251.15 83.0598 251.15 83.0598 251.15Z" fill="#677282"/>
<path d="M102.303 239.332C102.303 239.332 85.0425 244.916 83.0585 251.179C83.0585 251.179 83.1435 253.985 81.4146 257.188V258.435C81.4146 258.435 83.2285 254.24 84.2205 253.673C84.1922 253.645 80.3376 248.203 102.303 239.332Z" fill="#384152"/>
<path d="M81.4141 257.16C81.4141 257.16 78.7499 261.213 80.2804 266.117L80.9606 265.947C80.9606 265.947 80.3088 260.533 81.6976 257.784C83.058 255.063 81.4141 257.16 81.4141 257.16Z" fill="#384152"/>
<path d="M71.0146 238.736C71.0146 238.736 82.2951 232.415 77.0233 223.828C77.0233 223.828 72.8002 218.556 68.2937 217.195C68.2937 217.195 70.7029 229.978 68.2937 230.29C65.8846 230.602 66.6498 215.835 66.6498 215.835C66.6498 215.835 54.7743 210.11 50.0977 210.563C50.0977 210.563 57.4668 223.062 55.0577 222.751C52.6486 222.439 44.3724 209.798 44.3724 209.798C44.3724 209.798 32.1851 207.531 30.2294 214.758C28.2738 221.985 31.4198 225.585 33.2338 226.038C35.0477 226.492 46.6399 226.35 46.3281 227.852C46.0163 229.354 38.1937 231.764 33.8289 230.403C33.8289 230.403 38.6472 242.279 44.9676 241.684C51.2881 241.088 53.2437 237.177 57.155 236.865C61.0663 236.554 63.9289 237.631 61.9733 238.679C60.0176 239.728 53.3855 239.019 50.2394 241.712C47.065 244.404 44.5142 246.048 50.3811 247.267C56.2481 248.457 66.7915 247.721 68.8889 243.214C71.0146 238.736 71.0146 238.736 71.0146 238.736Z" fill="#677282"/>
<path d="M35.785 217.053C35.785 217.053 67.3871 227.284 71.0149 238.735C71.0149 238.735 70.8732 243.865 74.0193 249.732V251.999C74.0193 251.999 70.7032 244.318 68.8892 243.27C68.8892 243.241 75.975 233.321 35.785 217.053Z" fill="#384152"/>
<path d="M74.0184 249.733C74.0184 249.733 78.8933 257.13 76.1157 266.143L74.8686 265.803C74.8686 265.803 76.0874 255.883 73.5365 250.895C70.9857 245.878 74.0184 249.733 74.0184 249.733Z" fill="#384152"/>
<path d="M49.2756 263.564C49.2756 275.78 59.1672 285.672 71.3829 285.672C73.9337 285.672 76.3712 285.247 78.667 284.453C87.3115 281.449 93.4902 273.229 93.4902 263.564H49.2756V263.564Z" fill="#2B6EB2"/>
<path d="M63.8438 263.564C63.8438 271.841 65.8277 280.287 72.5733 284.085C73.707 284.708 77.4482 284.028 78.667 284.453C87.3115 281.449 93.4902 273.229 93.4902 263.564H63.8438V263.564Z" fill="#43A1F6"/>
<path d="M48.9648 286.805H93.803C93.803 286.04 93.4912 285.36 93.0094 284.878C92.5275 284.396 91.8473 284.084 91.082 284.084H51.714C50.1835 284.056 48.9648 285.303 48.9648 286.805Z" fill="#2B6EB2"/>
<path d="M69.9667 286.805H93.803C93.803 286.04 93.4912 285.36 93.0094 284.878C92.5275 284.396 91.8473 284.084 91.082 284.084H72.7159C71.1854 284.056 69.9667 285.303 69.9667 286.805Z" fill="#43A1F6"/>
<path d="M48.7662 263.564H94.228V264.245H48.7662V263.564Z" fill="#2B6EB2"/>
</svg>
