<svg width="490" height="391" viewBox="0 0 490 391" fill="none" xmlns="http://www.w3.org/2000/svg">
<path d="M273.763 302.829C407.668 276.787 503.39 189.711 487.564 108.338C471.739 26.9656 350.36 -17.8891 216.455 8.15239C82.5509 34.1939 -13.1711 121.27 2.65409 202.643C18.4793 284.015 139.859 328.87 273.763 302.829Z" fill="#F9F9FF"/>
<path d="M87.5018 356.627H405.454" stroke="#263238" stroke-miterlimit="10"/>
<path d="M74 356.627H79.015" stroke="#263238" stroke-miterlimit="10"/>
<path d="M223.834 132.032H184.022C183.328 132.032 182.711 131.492 182.711 130.721V106.571C182.711 105.877 183.251 105.26 184.022 105.26H223.834C224.528 105.26 225.146 105.8 225.146 106.571V130.721C225.146 131.415 224.605 132.032 223.834 132.032Z" stroke="#263238" stroke-miterlimit="10"/>
<path d="M225.146 121.076H182.711V127.249H225.146V121.076Z" stroke="#263238" stroke-miterlimit="10"/>
<path d="M218.433 113.438C220.053 113.438 221.365 112.125 221.365 110.506C221.365 108.887 220.053 107.574 218.433 107.574C216.814 107.574 215.501 108.887 215.501 110.506C215.501 112.125 216.814 113.438 218.433 113.438Z" stroke="#263238" stroke-miterlimit="10"/>
<path d="M214.035 113.438C215.655 113.438 216.967 112.125 216.967 110.506C216.967 108.887 215.655 107.574 214.035 107.574C212.416 107.574 211.104 108.887 211.104 110.506C211.104 112.125 212.416 113.438 214.035 113.438Z" stroke="#263238" stroke-miterlimit="10"/>
<path d="M186.492 109.658H198.142" stroke="#263238" stroke-miterlimit="10"/>
<path d="M133.871 251.003H94.0593C93.3649 251.003 92.7477 250.463 92.7477 249.691V225.542C92.7477 224.848 93.2878 224.23 94.0593 224.23H133.871C134.565 224.23 135.182 224.771 135.182 225.542V249.691C135.182 250.386 134.565 251.003 133.871 251.003Z" stroke="#263238" stroke-miterlimit="10"/>
<path d="M135.182 240.047H92.7476V246.219H135.182V240.047Z" stroke="#263238" stroke-miterlimit="10"/>
<path d="M128.47 232.332C130.089 232.332 131.402 231.02 131.402 229.401C131.402 227.781 130.089 226.469 128.47 226.469C126.851 226.469 125.538 227.781 125.538 229.401C125.538 231.02 126.851 232.332 128.47 232.332Z" stroke="#263238" stroke-miterlimit="10"/>
<path d="M124.072 232.332C125.691 232.332 127.004 231.02 127.004 229.401C127.004 227.781 125.691 226.469 124.072 226.469C122.453 226.469 121.14 227.781 121.14 229.401C121.14 231.02 122.453 232.332 124.072 232.332Z" stroke="#263238" stroke-miterlimit="10"/>
<path d="M96.5286 228.551H108.102" stroke="#263238" stroke-miterlimit="10"/>
<path d="M358.236 79.7207H331.849V106.107H358.236V79.7207Z" stroke="#263238" stroke-miterlimit="10"/>
<path d="M353.144 90.8316H346.431V84.1191H343.577V90.8316H336.864V93.6863H343.577V100.399H346.431V93.6863H353.144V90.8316Z" stroke="#263238" stroke-miterlimit="10"/>
<path d="M384.468 79.7207H358.082V106.107H384.468V79.7207Z" stroke="#263238" stroke-miterlimit="10"/>
<path d="M378.296 90.8301H364.254V93.299H378.296V90.8301Z" stroke="#263238" stroke-miterlimit="10"/>
<path d="M358.236 105.953H331.849V132.34H358.236V105.953Z" stroke="#263238" stroke-miterlimit="10"/>
<path d="M349.749 111.816L344.966 116.523L340.259 111.816L338.253 113.822L342.96 118.529L338.253 123.312L340.259 125.318L344.966 120.612L349.749 125.318L351.755 123.312L346.972 118.529L351.755 113.822L349.749 111.816Z" stroke="#263238" stroke-miterlimit="10"/>
<path d="M384.468 105.953H358.082V132.34H384.468V105.953Z" stroke="#263238" stroke-miterlimit="10"/>
<path d="M378.296 117.141H364.254V119.61H378.296V117.141Z" stroke="#263238" stroke-miterlimit="10"/>
<path d="M371.275 114.903C372.255 114.903 373.049 114.108 373.049 113.128C373.049 112.148 372.255 111.354 371.275 111.354C370.295 111.354 369.5 112.148 369.5 113.128C369.5 114.108 370.295 114.903 371.275 114.903Z" stroke="#263238" stroke-miterlimit="10"/>
<path d="M371.275 125.627C372.255 125.627 373.049 124.833 373.049 123.853C373.049 122.873 372.255 122.078 371.275 122.078C370.295 122.078 369.5 122.873 369.5 123.853C369.5 124.833 370.295 125.627 371.275 125.627Z" stroke="#263238" stroke-miterlimit="10"/>
<path d="M93.5199 310.721H76.8546V327.386H93.5199V310.721Z" stroke="#263238" stroke-miterlimit="10"/>
<path d="M90.2793 317.742H86.0359V313.498H84.2613V317.742H80.0178V319.593H84.2613V323.837H86.0359V319.593H90.2793V317.742Z" stroke="#263238" stroke-miterlimit="10"/>
<path d="M110.108 310.721H93.4429V327.386H110.108V310.721Z" stroke="#263238" stroke-miterlimit="10"/>
<path d="M106.173 317.742H97.3007V319.285H106.173V317.742Z" stroke="#263238" stroke-miterlimit="10"/>
<path d="M93.5199 327.309H76.8546V343.974H93.5199V327.309Z" stroke="#263238" stroke-miterlimit="10"/>
<path d="M88.1193 331.012L85.1875 334.021L82.1784 331.012L80.8668 332.246L83.8758 335.255L80.8668 338.264L82.1784 339.576L85.1875 336.567L88.1193 339.576L89.4309 338.264L86.4219 335.255L89.4309 332.246L88.1193 331.012Z" stroke="#263238" stroke-miterlimit="10"/>
<path d="M110.108 327.309H93.4429V343.974H110.108V327.309Z" stroke="#263238" stroke-miterlimit="10"/>
<path d="M106.174 334.408H97.301V335.951H106.174V334.408Z" stroke="#263238" stroke-miterlimit="10"/>
<path d="M101.776 332.942C102.373 332.942 102.857 332.458 102.857 331.861C102.857 331.265 102.373 330.781 101.776 330.781C101.18 330.781 100.696 331.265 100.696 331.861C100.696 332.458 101.18 332.942 101.776 332.942Z" stroke="#263238" stroke-miterlimit="10"/>
<path d="M101.776 339.654C102.373 339.654 102.857 339.171 102.857 338.574C102.857 337.978 102.373 337.494 101.776 337.494C101.18 337.494 100.696 337.978 100.696 338.574C100.696 339.171 101.18 339.654 101.776 339.654Z" stroke="#263238" stroke-miterlimit="10"/>
<path d="M278.537 112.589C278.46 112.589 278.383 112.667 278.383 112.744V113.901C278.383 114.21 278.228 114.364 277.92 114.364H276.454C276.145 114.364 275.991 114.21 275.991 113.901L276.068 112.744C276.068 112.667 275.991 112.589 275.914 112.589C272.982 112.204 271.362 110.506 271.362 108.037V106.957C271.362 106.649 271.516 106.494 271.824 106.494H274.448C274.756 106.494 274.911 106.649 274.911 106.803V107.189C274.911 108.5 275.759 109.58 277.457 109.58C279.077 109.58 279.771 108.577 279.771 107.574C279.771 105.8 276.454 105.491 274.062 103.948C272.519 102.945 271.362 101.711 271.362 99.5503C271.362 96.8499 272.982 94.9982 275.914 94.5353C275.991 94.5353 276.068 94.4582 276.068 94.381L275.991 92.9922C275.991 92.6836 276.145 92.5293 276.454 92.5293H277.92C278.228 92.5293 278.383 92.6836 278.383 92.9922V94.3038C278.383 94.381 278.46 94.4582 278.537 94.4582C281.623 94.7668 283.32 96.6185 283.32 99.2417V100.09C283.32 100.399 283.166 100.553 282.858 100.553H280.157C279.849 100.553 279.694 100.476 279.694 100.322V100.09C279.694 98.7788 278.923 97.5443 277.148 97.5443C275.759 97.5443 274.834 98.3159 274.834 99.396C274.834 101.016 277.148 101.325 279.54 102.328C282.163 103.485 283.32 105.105 283.32 107.343C283.32 110.198 281.623 112.204 278.537 112.589Z" stroke="#263238" stroke-miterlimit="10"/>
<path d="M277.148 117.99C285.116 117.99 291.576 111.531 291.576 103.563C291.576 95.5943 285.116 89.1348 277.148 89.1348C269.18 89.1348 262.72 95.5943 262.72 103.563C262.72 111.531 269.18 117.99 277.148 117.99Z" stroke="#263238" stroke-miterlimit="10"/>
<path d="M162.65 85.7393C162.573 85.7393 162.573 85.8164 162.573 85.8936V86.6651C162.573 86.8966 162.496 86.9738 162.265 86.9738H161.262C161.107 86.9738 160.953 86.8966 160.953 86.6651V85.8936C160.953 85.8164 160.953 85.8164 160.876 85.7393C158.947 85.5078 157.79 84.3505 157.79 82.6531V81.9587C157.79 81.8044 157.867 81.6501 158.098 81.6501H159.873C160.027 81.6501 160.181 81.7273 160.181 81.8816V82.113C160.181 82.9617 160.722 83.7333 161.879 83.7333C162.959 83.7333 163.422 83.0389 163.422 82.4217C163.422 81.1872 161.184 81.0329 159.564 79.9527C158.484 79.3355 157.79 78.4868 157.79 77.0209C157.79 75.2463 158.87 73.9347 160.876 73.7032C160.953 73.7032 160.953 73.6261 160.953 73.5489V72.6231C160.953 72.3916 161.03 72.3145 161.262 72.3145H162.265C162.419 72.3145 162.573 72.3916 162.573 72.6231V73.5489C162.573 73.6261 162.573 73.6261 162.65 73.7032C164.656 73.9347 165.814 75.1692 165.814 76.9437V77.4838C165.814 77.6381 165.737 77.7924 165.505 77.7924H163.731C163.576 77.7924 163.422 77.7152 163.422 77.6381V77.4838C163.422 76.5579 162.882 75.7864 161.725 75.7864C160.799 75.7864 160.181 76.2493 160.181 77.0209C160.181 78.101 161.725 78.3325 163.345 79.0269C165.119 79.7984 165.891 80.8786 165.891 82.4217C165.891 84.119 164.734 85.4307 162.65 85.7393Z" stroke="#263238" stroke-miterlimit="10"/>
<path d="M161.724 89.2886C167.05 89.2886 171.368 84.9707 171.368 79.6443C171.368 74.3179 167.05 70 161.724 70C156.397 70 152.079 74.3179 152.079 79.6443C152.079 84.9707 156.397 89.2886 161.724 89.2886Z" stroke="#263238" stroke-miterlimit="10"/>
<path d="M87.7335 182.724C87.6564 182.724 87.6564 182.801 87.6564 182.878V183.65C87.6564 183.881 87.5792 183.958 87.3477 183.958H86.3447C86.1904 183.958 86.0361 183.881 86.0361 183.65V182.878C86.0361 182.801 86.0361 182.801 85.959 182.724C84.0301 182.492 82.8728 181.335 82.8728 179.637V178.943C82.8728 178.789 82.95 178.634 83.1814 178.634H84.956C85.1103 178.634 85.2646 178.712 85.2646 178.866V179.097C85.2646 179.946 85.8047 180.718 86.962 180.718C88.0421 180.718 88.5051 180.023 88.5051 179.406C88.5051 178.172 86.2676 178.017 84.6473 176.937C83.5672 176.32 82.8728 175.471 82.8728 174.005C82.8728 172.231 83.953 170.919 85.959 170.688C86.0361 170.688 86.0361 170.61 86.0361 170.533V169.607C86.0361 169.376 86.1133 169.299 86.3447 169.299H87.3477C87.5021 169.299 87.6564 169.376 87.6564 169.607V170.533C87.6564 170.61 87.6564 170.61 87.7335 170.688C89.7395 170.919 90.8968 172.154 90.8968 173.928V174.468C90.8968 174.622 90.8197 174.777 90.5882 174.777H88.8137C88.6594 174.777 88.5051 174.7 88.5051 174.622V174.468C88.5051 173.542 87.965 172.771 86.8077 172.771C85.8818 172.771 85.2646 173.234 85.2646 174.005C85.2646 175.085 86.8077 175.317 88.4279 176.011C90.2025 176.783 90.974 177.863 90.974 179.406C90.974 181.103 89.8167 182.415 87.7335 182.724Z" stroke="#263238" stroke-miterlimit="10"/>
<path d="M86.8081 186.349C92.1345 186.349 96.4524 182.031 96.4524 176.705C96.4524 171.378 92.1345 167.061 86.8081 167.061C81.4817 167.061 77.1638 171.378 77.1638 176.705C77.1638 182.031 81.4817 186.349 86.8081 186.349Z" stroke="#263238" stroke-miterlimit="10"/>
<path d="M406.38 315.196C406.303 315.196 406.303 315.273 406.303 315.351V316.122C406.303 316.354 406.226 316.431 405.995 316.431H404.992C404.837 316.431 404.683 316.354 404.683 316.122V315.351C404.683 315.273 404.683 315.273 404.606 315.196C402.677 314.965 401.52 313.808 401.52 312.11V311.416C401.52 311.261 401.597 311.107 401.828 311.107H403.603C403.757 311.107 403.911 311.184 403.911 311.339V311.57C403.911 312.419 404.452 313.19 405.609 313.19C406.689 313.19 407.152 312.496 407.152 311.879C407.152 310.644 404.914 310.49 403.294 309.41C402.214 308.793 401.52 307.944 401.52 306.478C401.52 304.703 402.6 303.392 404.606 303.16C404.683 303.16 404.683 303.083 404.683 303.006V302.08C404.683 301.849 404.76 301.771 404.992 301.771H405.995C406.149 301.771 406.303 301.849 406.303 302.08V303.006C406.303 303.083 406.303 303.083 406.38 303.16C408.386 303.392 409.544 304.626 409.544 306.401V306.941C409.544 307.095 409.467 307.249 409.235 307.249H407.461C407.306 307.249 407.152 307.172 407.152 307.095V306.864C407.152 305.938 406.612 305.166 405.455 305.166C404.529 305.166 403.911 305.629 403.911 306.401C403.911 307.481 405.455 307.712 407.075 308.407C408.849 309.178 409.621 310.258 409.621 311.802C409.621 313.576 408.464 314.965 406.38 315.196Z" stroke="#263238" stroke-miterlimit="10"/>
<path d="M405.455 318.822C410.781 318.822 415.099 314.504 415.099 309.177C415.099 303.851 410.781 299.533 405.455 299.533C400.128 299.533 395.81 303.851 395.81 309.177C395.81 314.504 400.128 318.822 405.455 318.822Z" stroke="#263238" stroke-miterlimit="10"/>
<path d="M242.506 379.003C315.371 379.003 374.44 376.93 374.44 374.373C374.44 371.817 315.371 369.744 242.506 369.744C169.641 369.744 110.573 371.817 110.573 374.373C110.573 376.93 169.641 379.003 242.506 379.003Z" fill="#CCCCCC"/>
<path d="M233.016 332.479C233.016 332.479 239.42 360.1 236.643 364.575C233.016 370.516 194.131 374.065 194.131 374.065H279.926C279.926 374.065 290.651 371.056 287.41 362.414C284.941 355.702 272.905 332.479 272.905 332.479H233.016Z" fill="white" stroke="#263238" stroke-miterlimit="10" stroke-linecap="round" stroke-linejoin="round"/>
<path d="M231.165 332.479C231.165 332.479 238.031 360.331 234.791 364.575C231.551 368.895 194.131 372.136 194.131 372.136H280.312C280.312 372.136 287.564 369.204 285.558 362.414C283.552 355.625 271.053 332.479 271.053 332.479H231.165Z" fill="white" stroke="#263238" stroke-miterlimit="10" stroke-linecap="round" stroke-linejoin="round"/>
<path d="M270.977 332.479H231.088C231.088 332.479 235.177 348.99 235.563 358.479H283.939C280.081 349.375 270.977 332.479 270.977 332.479Z" fill="#263238" stroke="#263238" stroke-miterlimit="10" stroke-linecap="round" stroke-linejoin="round"/>
<path d="M279.926 372.367H194.131V374.142H279.926V372.367Z" fill="white" stroke="#263238" stroke-miterlimit="10" stroke-linecap="round" stroke-linejoin="round"/>
<path d="M376.833 335.18H131.174C127.547 335.18 124.616 332.248 124.616 328.621V147.695C124.616 144.069 127.547 141.137 131.174 141.137H376.833C380.459 141.137 383.391 144.069 383.391 147.695V328.699C383.391 332.248 380.459 335.18 376.833 335.18Z" fill="white" stroke="#263238" stroke-miterlimit="10" stroke-linecap="round" stroke-linejoin="round"/>
<path d="M370.737 335.18H125.078C121.451 335.18 118.52 332.248 118.52 328.621V147.695C118.52 144.069 121.451 141.137 125.078 141.137H370.737C374.363 141.137 377.295 144.069 377.295 147.695V328.699C377.295 332.248 374.363 335.18 370.737 335.18Z" fill="#263238" stroke="#263238" stroke-miterlimit="10" stroke-linecap="round" stroke-linejoin="round"/>
<path d="M370.737 335.179H125.078C121.451 335.179 118.52 332.247 118.52 328.621V305.012H377.295V328.621C377.295 332.247 374.363 335.179 370.737 335.179Z" fill="white" stroke="#263238" stroke-miterlimit="10" stroke-linecap="round" stroke-linejoin="round"/>
<path d="M364.256 153.172H131.559V290.275H364.256V153.172Z" fill="white" stroke="#263238" stroke-miterlimit="10" stroke-linecap="round" stroke-linejoin="round"/>
<path d="M340.801 232.178H143.209V240.819H340.801V232.178Z" fill="#FEF0DC"/>
<path d="M340.801 248.535H143.209V257.176H340.801V248.535Z" fill="#FEF0DC"/>
<path d="M143.209 175.47V163.897C143.209 163.742 143.286 163.588 143.518 163.588H145.37C145.524 163.588 145.678 163.665 145.678 163.897V175.47C145.678 175.624 145.601 175.778 145.37 175.778H143.518C143.286 175.778 143.209 175.701 143.209 175.47Z" fill="#263238"/>
<path d="M147.762 175.47V163.897C147.762 163.742 147.839 163.588 148.07 163.588H149.845C149.999 163.588 150.076 163.665 150.231 163.742L154.551 170.995C154.628 171.072 154.705 171.072 154.705 170.995V163.897C154.705 163.742 154.783 163.588 155.014 163.588H156.866C157.02 163.588 157.174 163.665 157.174 163.897V175.47C157.174 175.624 157.097 175.778 156.866 175.778H155.091C154.937 175.778 154.86 175.701 154.705 175.547L150.308 168.217C150.231 168.14 150.153 168.14 150.153 168.217V175.392C150.153 175.547 150.076 175.701 149.845 175.701H147.993C147.839 175.778 147.762 175.701 147.762 175.47Z" fill="#263238"/>
<path d="M162.19 175.546L158.641 163.973C158.564 163.818 158.641 163.664 158.872 163.664H160.878C161.033 163.664 161.187 163.741 161.187 163.896L163.501 172.305C163.501 172.382 163.656 172.382 163.656 172.305L165.893 163.973C165.97 163.818 166.048 163.741 166.202 163.741H168.131C168.362 163.741 168.439 163.896 168.362 164.05L164.813 175.623C164.736 175.777 164.659 175.854 164.504 175.854H162.498C162.344 175.777 162.267 175.7 162.19 175.546Z" fill="#263238"/>
<path d="M169.21 171.535V167.831C169.21 165.208 171.062 163.434 173.762 163.434C176.54 163.434 178.392 165.208 178.392 167.831V171.535C178.392 174.158 176.54 175.933 173.762 175.933C170.985 175.933 169.21 174.158 169.21 171.535ZM175.923 171.612V167.754C175.923 166.365 175.074 165.517 173.762 165.517C172.528 165.517 171.602 166.365 171.602 167.754V171.612C171.602 172.924 172.451 173.849 173.762 173.849C175.074 173.849 175.923 173.001 175.923 171.612Z" fill="#263238"/>
<path d="M180.243 175.47V163.897C180.243 163.742 180.321 163.588 180.552 163.588H182.404C182.558 163.588 182.712 163.665 182.712 163.897V175.47C182.712 175.624 182.635 175.778 182.404 175.778H180.552C180.321 175.778 180.243 175.701 180.243 175.47Z" fill="#263238"/>
<path d="M184.564 171.689V167.677C184.564 165.131 186.338 163.434 189.116 163.434C191.816 163.434 193.591 165.054 193.591 167.446C193.591 167.523 193.514 167.6 193.282 167.6L191.43 167.754C191.276 167.754 191.122 167.754 191.122 167.677V167.6C191.122 166.365 190.273 165.594 189.039 165.594C187.804 165.594 186.956 166.443 186.956 167.6V171.766C186.956 173.001 187.804 173.772 189.039 173.772C190.273 173.772 191.122 172.924 191.122 171.766C191.122 171.612 191.199 171.535 191.43 171.612L193.282 171.689C193.436 171.689 193.591 171.689 193.591 171.766V171.843C193.591 174.312 191.816 175.933 189.116 175.933C186.338 175.933 184.564 174.235 184.564 171.689Z" fill="#263238"/>
<path d="M203.543 165.67H197.911C197.834 165.67 197.834 165.67 197.834 165.747V168.37C197.834 168.448 197.834 168.448 197.911 168.448H201.537C201.691 168.448 201.846 168.525 201.846 168.756V170.299C201.846 170.454 201.769 170.608 201.537 170.608H197.911C197.834 170.608 197.834 170.608 197.834 170.685V173.463C197.834 173.54 197.834 173.54 197.911 173.54H203.543C203.697 173.54 203.852 173.617 203.852 173.848V175.392C203.852 175.546 203.775 175.7 203.543 175.7H195.673C195.519 175.7 195.365 175.623 195.365 175.392V163.818C195.365 163.664 195.442 163.51 195.673 163.51H203.543C203.697 163.51 203.852 163.587 203.852 163.818V165.361C203.852 165.593 203.697 165.67 203.543 165.67Z" fill="#263238"/>
<path d="M143.209 180.408H177.929" stroke="#263238" stroke-miterlimit="10"/>
<path d="M143.209 185.5H177.929" stroke="#263238" stroke-miterlimit="10"/>
<path d="M255.855 185.5H290.651" stroke="#263238" stroke-miterlimit="10"/>
<path d="M255.855 190.592H290.651" stroke="#263238" stroke-miterlimit="10"/>
<path d="M255.855 195.684H290.651" stroke="#263238" stroke-miterlimit="10"/>
<path d="M143.209 190.67H177.929" stroke="#263238" stroke-miterlimit="10"/>
<path d="M143.209 276.387H177.929" stroke="#263238" stroke-miterlimit="10"/>
<path d="M143.209 281.17H177.929" stroke="#263238" stroke-miterlimit="10"/>
<path d="M143.209 195.762H177.929" stroke="#263238" stroke-miterlimit="10"/>
<path d="M226.536 200.854H143.209V210.035H226.536V200.854Z" fill="#FEF0DC"/>
<path d="M340.493 191.672H296.515V196.301H340.493V191.672Z" fill="#FEF0DC"/>
<path d="M340.493 179.867H296.515V196.224H340.493V179.867Z" fill="#FEF0DC" stroke="#263238" stroke-miterlimit="10"/>
<path d="M340.493 184.496H296.515V191.671H340.493V184.496Z" fill="#FEF0DC" stroke="#263238" stroke-miterlimit="10"/>
<path d="M303.228 180.021V196.07" stroke="#263238" stroke-miterlimit="10"/>
<path d="M340.801 216.207H143.209V271.604H340.801V216.207Z" stroke="#263238" stroke-miterlimit="10"/>
<path d="M340.801 216.207H143.209V224.848H340.801V216.207Z" fill="#FEF0DC" stroke="#263238" stroke-miterlimit="10"/>
<path d="M282.704 216.439V271.528" stroke="#263238" stroke-miterlimit="10"/>
<path d="M304.152 216.439V271.528" stroke="#263238" stroke-miterlimit="10"/>
<path d="M301.384 274.459H279.609C277.952 274.459 276.609 275.802 276.609 277.459V283.804C276.609 285.461 277.952 286.804 279.609 286.804H301.384C303.041 286.804 304.384 285.461 304.384 283.804V277.459C304.384 275.802 303.041 274.459 301.384 274.459Z" fill="#FECF97"/>
<path d="M287.178 279.166C287.178 280.246 286.407 281.017 285.172 281.017H283.938C283.938 281.017 283.861 281.017 283.861 281.094V283.255C283.861 283.332 283.784 283.409 283.706 283.409H282.781C282.703 283.409 282.626 283.332 282.626 283.255V277.468C282.626 277.391 282.703 277.314 282.781 277.314H285.172C286.484 277.237 287.178 278.008 287.178 279.166ZM286.021 279.166C286.021 278.626 285.635 278.317 285.172 278.317H284.092C284.092 278.317 284.015 278.317 284.015 278.394V279.937C284.015 279.937 284.015 280.014 284.092 280.014H285.172C285.635 280.014 286.021 279.706 286.021 279.166Z" fill="#263238"/>
<path d="M291.19 283.253L290.959 282.482C290.959 282.482 290.959 282.405 290.882 282.405H288.721C288.721 282.405 288.644 282.405 288.644 282.482L288.413 283.253C288.413 283.331 288.335 283.408 288.258 283.408H287.255C287.178 283.408 287.101 283.331 287.101 283.253L288.953 277.467C288.953 277.39 289.03 277.312 289.107 277.312H290.419C290.496 277.312 290.573 277.39 290.573 277.467L292.425 283.253C292.425 283.331 292.425 283.408 292.27 283.408H291.267C291.267 283.331 291.267 283.331 291.19 283.253ZM289.107 281.402H290.65C290.65 281.402 290.727 281.402 290.727 281.325L289.956 278.701C289.956 278.624 289.879 278.624 289.879 278.701L289.107 281.402C289.03 281.402 289.03 281.402 289.107 281.402Z" fill="#263238"/>
<path d="M294.046 283.177V281.017V280.94L292.271 277.391C292.194 277.313 292.271 277.236 292.348 277.236H293.351C293.428 277.236 293.505 277.313 293.505 277.313L294.586 279.551H294.663L295.743 277.313C295.743 277.236 295.82 277.236 295.897 277.236H296.9C296.977 277.236 297.055 277.313 296.977 277.391L295.203 280.94V281.017V283.177C295.203 283.254 295.126 283.332 295.049 283.332H294.123C294.123 283.332 294.046 283.254 294.046 283.177Z" fill="#263238"/>
<path d="M364.256 153.172H131.559V159.499H364.256V153.172Z" fill="#FEF0DC" stroke="#263238" stroke-miterlimit="10" stroke-linecap="round" stroke-linejoin="round"/>
<path d="M247.908 324.919C250.549 324.919 252.691 322.777 252.691 320.135C252.691 317.493 250.549 315.352 247.908 315.352C245.266 315.352 243.124 317.493 243.124 320.135C243.124 322.777 245.266 324.919 247.908 324.919Z" fill="#263238" stroke="#263238" stroke-miterlimit="10" stroke-linecap="round" stroke-linejoin="round"/>
<path d="M353.608 390.962C370.525 390.962 384.238 388.475 384.238 385.407C384.238 382.339 370.525 379.852 353.608 379.852C336.691 379.852 322.978 382.339 322.978 385.407C322.978 388.475 336.691 390.962 353.608 390.962Z" fill="#CCCCCC"/>
<path d="M334.628 243.211C334.628 243.211 331.311 244.446 330.308 249.075C329.305 253.704 327.144 267.746 325.987 274.382C324.83 281.017 318.734 302.466 318.734 302.466L321.898 304.626C321.898 304.626 329.767 293.207 331.928 287.807C334.088 282.406 336.248 278.702 336.557 274.613C336.866 270.524 336.326 247.764 336.326 246.066C336.403 244.214 335.554 242.98 334.628 243.211Z" fill="#766EFF"/>
<path d="M337.636 377.923C337.636 377.923 329.458 383.169 328.532 385.021C327.606 386.873 329.381 387.413 333.933 386.795C338.485 386.178 341.648 383.786 343.809 382.552C345.969 381.318 346.972 381.24 346.278 378.463C345.583 375.608 337.636 377.923 337.636 377.923Z" fill="white" stroke="#263238" stroke-miterlimit="10" stroke-linecap="round" stroke-linejoin="round"/>
<path d="M369.502 378.694C369.502 378.694 378.451 384.789 377.989 386.101C377.448 387.413 374.825 388.03 370.042 386.487C365.258 384.944 364.255 383.709 362.326 382.089C360.397 380.469 361.092 378.386 361.092 376.92C361.092 375.454 369.502 378.694 369.502 378.694Z" fill="white" stroke="#263238" stroke-miterlimit="10" stroke-linecap="round" stroke-linejoin="round"/>
<path d="M333.394 284.488C333.394 284.488 331.542 300.768 331.311 313.807C331.079 326.769 337.097 376.379 337.097 376.919C337.097 377.459 337.097 377.459 337.097 377.459V378.462C337.097 378.462 339.489 379.619 341.958 379.697C344.427 379.774 347.204 379.465 347.204 379.465C347.204 379.465 347.204 370.284 347.436 363.186C347.667 356.087 348.747 323.605 348.747 323.605L349.056 309.563L351.139 310.875L360.861 379.619L369.502 378.694C369.502 378.694 370.505 332.941 370.351 320.365C370.119 307.789 367.65 285.568 367.65 285.568L333.394 284.488Z" fill="#263238" stroke="#263238" stroke-miterlimit="10" stroke-linecap="round" stroke-linejoin="round"/>
<path d="M349.596 238.352C349.596 238.352 335.863 242.595 334.628 243.212C333.394 243.83 332.545 247.147 332.545 251.236C332.545 255.325 334.088 275.771 333.857 278.24C333.625 280.709 332.391 283.795 333.471 285.57C334.474 287.344 348.13 288.425 355.46 288.116C362.79 287.807 366.879 288.502 367.959 286.496C368.962 284.413 369.579 258.952 370.659 253.088C371.662 247.224 372.434 244.138 370.351 242.441C368.267 240.821 357.389 238.814 354.688 238.197L349.596 238.352Z" fill="#5C54E4"/>
<path d="M349.133 235.728C349.133 235.728 346.896 236.499 346.124 238.197C345.353 239.894 343.115 248.381 343.887 248.767C344.736 249.153 351.139 246.067 352.065 246.298C352.991 246.53 356.926 251.622 358.16 250.927C359.318 250.233 362.095 242.98 361.015 239.277C359.935 235.574 350.136 234.802 349.133 235.728Z" fill="#766EFF"/>
<path d="M347.899 233.412C347.899 233.412 347.822 237.193 347.822 239.122C347.822 241.05 349.442 247.917 350.908 247.686C352.374 247.377 358.315 240.665 359.318 238.89C360.244 237.116 360.475 233.412 360.475 233.412C360.475 233.412 356.232 236.421 352.991 235.495C349.751 234.492 347.899 233.412 347.899 233.412Z" fill="#FFC8C8"/>
<path d="M352.991 235.418C349.751 234.492 347.899 233.412 347.899 233.412C347.899 233.412 347.899 234.878 347.822 236.498C348.285 237.501 348.748 238.35 349.056 238.967C350.214 241.128 352.22 241.822 354.148 241.128C355.846 240.51 358.083 238.967 360.012 236.807C360.398 235.11 360.475 233.412 360.475 233.412C360.475 233.412 356.232 236.421 352.991 235.418Z" fill="#E09090"/>
<path d="M346.278 222.379C346.278 222.379 345.892 219.601 344.58 220.759C343.269 221.916 343.5 224.694 344.117 226.005C344.735 227.317 345.429 227.162 345.583 227.162C345.738 227.085 346.278 222.379 346.278 222.379Z" fill="#FFC8C8"/>
<path d="M364.255 225.003C364.409 224.694 366.492 217.75 366.647 213.97C366.724 210.189 361.323 206.64 357.465 205.946C353.608 205.252 347.898 206.177 346.664 208.338C345.429 210.498 345.352 219.139 345.352 220.605C345.352 222.071 346.509 222.303 346.741 221.917C347.05 221.608 347.898 213.121 348.361 212.504C348.901 211.887 357.851 212.195 359.24 212.581C360.629 212.967 361.4 214.433 361.169 216.593C360.86 218.753 361.246 218.599 361.786 219.834C362.326 221.068 362.326 221.531 362.326 223.228C362.172 224.849 363.02 226.932 364.255 225.003Z" fill="#263238" stroke="#263238" stroke-miterlimit="10" stroke-linecap="round" stroke-linejoin="round"/>
<path d="M347.512 212.272C347.512 212.272 345.738 219.756 345.506 224.771C345.198 229.786 347.975 234.955 349.133 237.038C350.29 239.121 352.296 239.893 354.225 239.199C356.154 238.504 358.931 236.421 361.014 233.721C363.097 231.02 364.178 224.539 364.178 224.539C364.178 224.539 363.329 225.002 363.252 224.231C363.175 223.536 363.792 220.99 363.175 219.37C362.635 217.75 361.4 217.364 362.094 215.744C362.789 214.123 363.097 213.198 363.097 212.966C363.097 212.658 360.32 211.037 355.151 210.574C350.058 210.189 347.744 210.883 347.512 212.272Z" fill="#FFC8C8"/>
<path d="M363.56 225.466C363.56 225.466 364.717 222.92 366.337 222.843C367.958 222.766 367.726 225.929 366.26 228.013C364.717 230.096 362.557 230.944 362.48 229.401" fill="#FFC8C8"/>
<path d="M319.583 300.074L323.904 301.772" stroke="#263238" stroke-miterlimit="10" stroke-linecap="round" stroke-linejoin="round"/>
<path d="M315.572 313.267C315.572 313.267 316.189 316.817 316.575 317.048C316.961 317.202 317.115 315.351 316.961 314.116C316.806 312.882 316.806 312.882 316.806 312.882C316.806 312.882 317.501 316.045 318.118 316.354C318.812 316.662 318.427 315.196 318.195 314.502C318.041 313.808 318.041 313.808 318.041 313.808C318.041 313.808 319.661 315.505 319.815 315.119C319.97 314.733 318.812 312.573 318.812 312.419C318.735 312.264 318.272 310.567 318.195 309.95C318.118 309.255 317.192 306.632 316.266 308.33C315.418 309.95 315.572 313.267 315.572 313.267Z" fill="#FFC8C8"/>
<path d="M318.735 302.389C318.735 302.389 315.649 307.327 314.8 309.024C313.952 310.644 313.334 316.894 314.106 317.279C314.8 317.665 315.032 316.199 315.186 315.119C315.417 313.73 316.498 311.57 316.498 311.57C316.498 311.57 316.035 315.505 316.652 315.428C317.269 315.351 317.809 311.724 318.195 310.798C318.581 309.873 321.05 308.561 321.898 304.626L318.735 302.389Z" fill="#FFC8C8"/>
<path d="M316.497 311.571C316.497 311.571 316.497 311.03 316.883 309.102Z" fill="white"/>
<path d="M369.887 242.285C369.887 242.285 373.05 244.368 375.056 249.229C377.062 254.09 383.698 275.23 383.929 275.616C384.161 276.002 383.929 280.168 380.612 281.48C377.294 282.791 375.751 279.936 373.822 276.619C371.893 273.301 367.341 258.642 367.341 258.642" fill="#766EFF"/>
<path d="M378.374 269.598L394.422 261.729L397.2 264.892C397.2 264.892 385.395 279.243 382.849 280.94C380.303 282.637 377.062 282.174 375.828 279.397" fill="#766EFF"/>
<path d="M392.647 262.885L395.656 266.511" stroke="#263238" stroke-miterlimit="10" stroke-linecap="round" stroke-linejoin="round"/>
<path d="M394.346 261.728C394.346 261.728 397.818 256.25 398.898 255.865C399.901 255.479 402.833 254.862 404.453 253.627C406.073 252.393 406.999 252.701 406.073 254.013C405.147 255.325 404.144 255.556 403.218 255.942C402.292 256.328 401.907 256.636 401.907 256.636C401.907 256.636 404.453 256.713 406.15 256.868C407.77 256.945 409.159 256.636 409.159 256.636C409.159 256.636 413.403 254.784 412.323 257.022C411.242 259.259 411.397 260.725 407.23 261.96C403.064 263.194 398.975 263.117 398.975 263.117L397.123 264.892L394.346 261.728Z" fill="#FFC8C8"/>
<path d="M410.548 260.493C410.548 260.493 412.631 259.876 413.325 257.639C414.019 255.401 413.634 255.247 412.708 256.095C411.782 256.944 411.088 258.256 410.548 259.259C410.085 260.339 410.548 260.493 410.548 260.493Z" fill="#FFC8C8"/>
<path d="M409.622 260.648C409.622 260.648 410.856 261.497 411.782 259.028C412.708 256.559 412.631 254.63 411.782 255.016C410.933 255.402 410.779 255.556 409.699 257.716C408.696 259.877 407.77 260.803 408.387 261.034C409.005 261.111 409.622 260.648 409.622 260.648Z" fill="#FFC8C8"/>
<path d="M397.818 261.574C397.818 261.574 399.361 259.028 401.135 259.028C402.91 259.028 407.539 259.877 407.539 259.877C407.539 259.877 410.934 254.939 411.628 255.633C412.322 256.328 410.471 259.723 409.699 260.726C408.928 261.729 408.773 261.729 408.079 261.96" fill="#FFC8C8"/>
<path d="M349.056 309.565L344.35 307.25" stroke="#7D7D7D" stroke-miterlimit="10" stroke-linecap="round" stroke-linejoin="round"/>
</svg>
