<svg width="460" height="459" viewBox="0 0 460 459" fill="none" xmlns="http://www.w3.org/2000/svg">
<path d="M259.388 282.777C370.159 261.234 449.345 189.2 436.253 121.885C423.162 54.5704 322.751 17.4645 211.98 39.0072C101.208 60.5499 22.0228 132.583 35.1141 199.898C48.2054 267.213 148.616 304.319 259.388 282.777Z" fill="#F9F9FF"/>
<path d="M43.2678 360.614C43.2678 360.614 403.674 360.869 407.727 360.869C409.966 360.869 475.75 282.275 439.159 173.609C438.082 170.378 436.665 167.374 435.248 164.454C434.568 163.066 433.887 161.677 433.15 160.345C430.996 156.348 428.701 152.579 426.32 149.093C425.129 147.364 423.911 145.691 422.692 144.076C387.122 97.5088 331.287 98.4724 311.588 108.619C289.821 119.843 275.82 93.4558 243.764 93.0873C241.44 93.059 239.229 93.1156 237.075 93.229C236.509 93.2574 235.942 93.314 235.403 93.3424C190.026 96.8569 185.35 133.136 148.476 129.876C109.448 126.418 73.9347 102.072 31.9591 152.579C-46.0401 246.45 43.2678 360.614 43.2678 360.614Z" fill="#E9E9E9"/>
<path d="M20.5938 361.237H431.677C431.989 361.237 432.244 360.982 432.244 360.67V360.188C432.244 359.876 431.989 359.621 431.677 359.621H20.5938C20.282 359.621 20.0269 359.876 20.0269 360.188V360.67C20.0269 360.982 20.282 361.237 20.5938 361.237Z" fill="#151F2C"/>
<path d="M260.013 348.096C251.452 348.096 244.506 341.15 244.506 332.589V311.449H275.521V332.589C275.521 341.15 268.574 348.096 260.013 348.096Z" fill="#5896FA"/>
<path d="M244.506 327.42H242.791V360.224H244.506V327.42Z" fill="#0E0E0E"/>
<path d="M277.235 327.42H275.521V360.224H277.235V327.42Z" fill="#0E0E0E"/>
<path d="M264.081 327.42H262.366V360.224H264.081V327.42Z" fill="#0E0E0E"/>
<path d="M275.595 348.096H242.791V349.81H275.595V348.096Z" fill="#0E0E0E"/>
<path d="M284.156 276.53C286.034 279.221 282.267 281.549 281.678 285.278C281.09 289.008 285.37 291.111 280.827 296.004C278.036 299.021 275.671 295.016 273.405 299.634C271.127 304.252 272.93 305.028 270.364 306.693C265.908 309.584 259.099 303.189 261.39 298.57C263.68 293.964 268.311 294.365 266.171 290.573C264.031 286.78 263.23 285.141 266.922 283.188C271.503 280.773 275.533 282.988 275.896 279.458C276.284 275.954 281.691 272.963 284.156 276.53Z" fill="#FFCA59"/>
<path d="M264.607 311.236L263.831 311.086C267.435 292.85 279.4 280.084 279.513 279.959L280.076 280.497C279.964 280.622 268.161 293.238 264.607 311.236Z" fill="#0E0E0E"/>
<path d="M224.193 269.795C222.253 273.738 227.71 276.053 229.237 280.885C230.764 285.716 225.144 287.418 232.128 292.975C236.433 296.404 237.335 294.264 238.912 301.924C240.301 308.67 245.432 302.249 249.262 306.204C254.206 311.311 261.928 300.097 257.973 294.464C254.018 288.82 249.4 290.284 251.465 284.827C253.543 279.37 251.065 275.265 245.783 273.425C239.237 271.147 236.884 276.642 235.695 272.048C234.506 267.442 226.759 264.576 224.193 269.795Z" fill="#ED5A24"/>
<path d="M257.06 311.787C248.724 288.67 230.563 274.364 230.388 274.226L231.039 273.4C231.227 273.538 249.613 288.032 258.061 311.436L257.06 311.787Z" fill="#0E0E0E"/>
<path d="M98.7629 359.654H92.2796L91.6038 345.561H99.4262L98.7629 359.654Z" fill="#0E0E0E"/>
<path d="M211.381 359.654H204.91L204.235 345.561H212.057L211.381 359.654Z" fill="#0E0E0E"/>
<path d="M205.737 321.104C205.023 323.319 204.247 325.597 203.396 327.925H95.8089C95.8089 327.925 81.9287 271.416 95.8089 261.077C96.1593 260.815 96.5849 260.552 97.0855 260.301C115.784 250.689 190.755 248.436 205.974 260.802C206.087 260.89 206.2 260.99 206.3 261.09C211.919 266.234 216.788 286.785 205.737 321.104Z" fill="#EA7B00"/>
<path d="M136.373 327.937H95.834L99.789 288.324C106.861 291.391 125.672 307.586 136.373 327.937Z" fill="#982C20"/>
<path d="M205.737 321.103C205.023 323.319 204.247 325.597 203.396 327.924H164.321C171.042 315.459 187.338 296.585 203.158 287.898L205.737 321.103Z" fill="#982C20"/>
<path d="M219.216 287.773H204.297C201.794 287.773 199.666 289.626 199.341 292.116L194.585 328.087H107.411L102.655 292.116C102.33 289.626 100.202 287.773 97.6988 287.773H82.7798C79.6633 287.773 77.3103 290.59 77.861 293.643L86.1466 353.545H94.332H215.587H215.85L224.135 293.643C224.686 290.59 222.333 287.773 219.216 287.773Z" fill="#EA7B00"/>
<path d="M193.72 308.438C200.741 310.791 199.365 325.647 193.72 327.938H108.574C102.216 326.298 101.678 306.635 110.852 308.112C166.973 318.663 169.689 301.829 193.72 308.438Z" fill="#F2B066"/>
<path d="M128.825 293.369C128.8 297.212 129.001 300.816 129.414 303.983H169.339L171.705 264.996C169.327 250.752 162.844 247.311 152.568 247.311C143.369 247.311 137.249 254.808 133.519 264.858C130.302 273.531 128.875 284.107 128.825 293.369Z" fill="#007880"/>
<path d="M128.825 294.12L143.269 293.256C135.246 290.628 134.608 278.325 142.768 270.665L133.519 264.857C130.302 273.531 128.875 284.858 128.825 294.12Z" fill="#005459"/>
<path d="M126.072 312.043H180.929V293.369H131.516L126.072 312.043Z" fill="#0E0E0E"/>
<path d="M187.938 306.123L173.206 359.666H161.717C165.359 336.887 164.545 322.068 167.962 303.157C170.954 287.612 191.505 291.73 187.938 306.123Z" fill="#0E0E0E"/>
<path d="M169.076 359.653C169.076 359.616 169.076 359.578 169.076 359.553C169.076 355.586 172.293 352.369 176.261 352.369C180.228 352.369 183.445 355.586 183.445 359.553C183.445 359.591 183.445 359.628 183.445 359.653H169.076Z" fill="#B15626"/>
<path d="M177.637 352.494L175.022 351.693C173.294 348.301 165.947 348.727 166.974 352.845C164.083 353.27 162.568 351.843 162.568 351.843L161.705 359.653H177.287L177.637 352.494Z" fill="#B15626"/>
<path d="M123.231 306.123L137.963 359.666H149.452C145.81 336.887 146.624 322.068 143.207 303.157C140.215 287.612 119.664 291.73 123.231 306.123Z" fill="#0E0E0E"/>
<path d="M142.092 359.653C142.092 359.616 142.092 359.578 142.092 359.553C142.092 355.586 138.876 352.369 134.908 352.369C130.941 352.369 127.724 355.586 127.724 359.553C127.724 359.591 127.724 359.628 127.724 359.653H142.092Z" fill="#B15626"/>
<path d="M133.532 352.494L136.148 351.693C137.875 348.301 145.222 348.727 144.195 352.845C147.087 353.27 148.601 351.843 148.601 351.843L149.465 359.653H133.882L133.532 352.494Z" fill="#B15626"/>
<path d="M146.41 248.562C151.804 251.829 152.568 261.542 149.802 265.409L134.42 276.861L150.077 284.921L147.537 293.244C147.537 293.244 131.191 291.918 123.193 283.707C115.521 275.847 134.245 252.705 146.41 248.562Z" fill="#007880"/>
<path d="M157.336 263.294C152.73 257.512 155.91 248.563 161.792 248.826C180.929 255.56 186.836 274.258 180.766 282.657C175.572 289.853 152.73 292.619 152.73 292.619V284.747L168.601 281.317C168.601 281.317 160.415 268.639 157.336 263.294Z" fill="#007880"/>
<path d="M140.578 290.629C140.278 287.988 141.83 284.697 145.797 283.971C152.731 282.707 155.234 286.511 155.898 289.24C156.073 289.953 155.422 290.692 154.834 290.629C154.233 290.567 153.82 290.229 153.72 289.69C153.595 289.04 153.257 288.239 152.506 287.813C153.219 289.215 152.919 290.629 150.966 290.629H140.578Z" fill="#F7A594"/>
<path d="M156.223 290.616L161.68 263.256H162.831C162.456 265.146 157.099 292.506 156.924 293.369C155.497 293.369 142.355 293.369 140.578 293.369L138.788 290.616H156.223Z" fill="#99C1FF"/>
<path d="M162.844 263.268H203.433L197.426 293.368H156.937L162.844 263.268Z" fill="white"/>
<path d="M151.003 250.527C151.003 253.643 160.34 255.708 163.382 252.429C163.845 251.941 164.158 251.328 164.283 250.577L166.035 242.692L154.896 238.486L154.558 239.513L151.003 250.527Z" fill="#F7A594"/>
<path d="M164.283 250.576L166.035 242.691L155.497 239.85C152.768 247.985 162.506 254.468 164.283 250.576Z" fill="#F4856D"/>
<path d="M154.07 235.471C153.482 243.218 159.602 250.039 164.746 250.39C169.89 250.74 176.962 244.996 177.55 237.248C178.138 229.501 173.357 222.817 166.874 222.329C160.39 221.841 154.658 227.723 154.07 235.471Z" fill="#F7A594"/>
<path d="M162.668 222.917C169.777 218.424 173.682 222.655 177.224 227.135C179.702 230.289 181.467 232.542 184.559 233.018C178.614 240.515 166.723 235.571 162.981 228.061C162.618 232.342 157.574 235.884 154.082 235.471C152.943 230.715 156.235 221.09 162.668 222.917Z" fill="#0E0E0E"/>
<path d="M155.434 238.663C157.141 238.663 158.525 237.279 158.525 235.572C158.525 233.865 157.141 232.48 155.434 232.48C153.727 232.48 152.343 233.865 152.343 235.572C152.343 237.279 153.727 238.663 155.434 238.663Z" fill="#F7A594"/>
<path d="M321.535 247.284C369.29 247.284 408.003 208.571 408.003 160.816C408.003 113.061 369.29 74.3477 321.535 74.3477C273.78 74.3477 235.066 113.061 235.066 160.816C235.066 208.571 273.78 247.284 321.535 247.284Z" stroke="#2E77E6" stroke-width="8.7306" stroke-miterlimit="10" stroke-dasharray="13.1 13.1"/>
<path d="M352.887 267H288.517C286.346 267 284.6 265.238 284.6 263.083V209.077C284.6 206.906 286.363 205.16 288.517 205.16H352.887C355.058 205.16 356.804 206.923 356.804 209.077V263.083C356.82 265.238 355.058 267 352.887 267Z" fill="#5896FA"/>
<path d="M342.572 242.485H299.028C297.608 242.485 296.433 241.326 296.433 239.89C296.433 238.47 297.592 237.295 299.028 237.295H342.556C343.976 237.295 345.151 238.454 345.151 239.89C345.151 241.326 343.992 242.485 342.572 242.485Z" fill="white"/>
<path d="M342.572 250.825H299.028C297.608 250.825 296.433 249.666 296.433 248.23C296.433 246.81 297.592 245.635 299.028 245.635H342.556C343.976 245.635 345.151 246.794 345.151 248.23C345.151 249.666 343.992 250.825 342.572 250.825Z" fill="white"/>
<path d="M306.257 249.389C306.762 249.389 307.171 248.979 307.171 248.475C307.171 247.97 306.762 247.561 306.257 247.561C305.752 247.561 305.343 247.97 305.343 248.475C305.343 248.979 305.752 249.389 306.257 249.389Z" fill="#80B2FF"/>
<path d="M309.374 249.389C309.879 249.389 310.288 248.979 310.288 248.475C310.288 247.97 309.879 247.561 309.374 247.561C308.87 247.561 308.46 247.97 308.46 248.475C308.46 248.979 308.87 249.389 309.374 249.389Z" fill="#80B2FF"/>
<path d="M312.507 249.389C313.012 249.389 313.421 248.979 313.421 248.475C313.421 247.97 313.012 247.561 312.507 247.561C312.002 247.561 311.593 247.97 311.593 248.475C311.593 248.979 312.002 249.389 312.507 249.389Z" fill="#80B2FF"/>
<path d="M315.624 249.389C316.129 249.389 316.538 248.979 316.538 248.475C316.538 247.97 316.129 247.561 315.624 247.561C315.119 247.561 314.71 247.97 314.71 248.475C314.71 248.979 315.119 249.389 315.624 249.389Z" fill="#80B2FF"/>
<path d="M318.759 249.389C319.264 249.389 319.673 248.979 319.673 248.475C319.673 247.97 319.264 247.561 318.759 247.561C318.254 247.561 317.845 247.97 317.845 248.475C317.845 248.979 318.254 249.389 318.759 249.389Z" fill="#80B2FF"/>
<path d="M321.875 249.389C322.38 249.389 322.789 248.979 322.789 248.475C322.789 247.97 322.38 247.561 321.875 247.561C321.371 247.561 320.961 247.97 320.961 248.475C320.961 248.979 321.371 249.389 321.875 249.389Z" fill="#80B2FF"/>
<path d="M325.009 249.389C325.514 249.389 325.923 248.979 325.923 248.475C325.923 247.97 325.514 247.561 325.009 247.561C324.504 247.561 324.095 247.97 324.095 248.475C324.095 248.979 324.504 249.389 325.009 249.389Z" fill="#80B2FF"/>
<path d="M328.143 249.389C328.648 249.389 329.057 248.979 329.057 248.475C329.057 247.97 328.648 247.561 328.143 247.561C327.638 247.561 327.229 247.97 327.229 248.475C327.229 248.979 327.638 249.389 328.143 249.389Z" fill="#80B2FF"/>
<path d="M331.26 249.389C331.765 249.389 332.174 248.979 332.174 248.475C332.174 247.97 331.765 247.561 331.26 247.561C330.755 247.561 330.346 247.97 330.346 248.475C330.346 248.979 330.755 249.389 331.26 249.389Z" fill="#80B2FF"/>
<path d="M320.817 230.064C326.342 230.064 330.821 225.585 330.821 220.059C330.821 214.534 326.342 210.055 320.817 210.055C315.291 210.055 310.812 214.534 310.812 220.059C310.812 225.585 315.291 230.064 320.817 230.064Z" fill="white"/>
<path d="M320.835 219.65C321.815 219.65 322.712 219.177 323.284 218.442C323.708 217.92 323.953 217.235 323.953 216.484C323.953 214.754 322.549 213.334 320.819 213.334C319.073 213.334 317.669 214.77 317.669 216.484C317.669 217.235 317.914 217.92 318.338 218.442C318.926 219.177 319.824 219.65 320.835 219.65Z" fill="#005CEA"/>
<path d="M326.384 225.281C326.384 227.272 315.253 227.272 315.253 225.281V222.963C315.693 219.797 325.47 219.65 326.384 222.963V225.281Z" fill="#005CEA"/>
<path d="M301.199 247.756V247.61C301.199 247.055 300.742 246.598 300.187 246.598C299.632 246.598 299.175 247.055 299.175 247.61V247.756H299.028V249.601C299.028 249.911 301.378 249.911 301.378 249.601V247.756H301.199ZM299.518 247.626C299.518 247.267 299.73 246.957 300.171 246.957C300.611 246.957 300.84 247.25 300.84 247.626V247.773H299.518V247.626ZM300.35 248.687V249.225C300.35 249.323 300.268 249.389 300.171 249.389C300.073 249.389 300.007 249.323 300.007 249.225V248.687C299.909 248.638 299.844 248.54 299.844 248.409C299.844 248.23 299.991 248.083 300.171 248.083C300.35 248.083 300.497 248.23 300.497 248.409C300.497 248.54 300.432 248.638 300.35 248.687Z" fill="#5896FA"/>
<path d="M300.167 239.709C300.38 239.709 300.559 239.611 300.69 239.448C300.788 239.334 300.837 239.187 300.837 239.04C300.837 238.681 300.543 238.371 300.184 238.371C299.808 238.371 299.515 238.665 299.515 239.04C299.515 239.203 299.564 239.334 299.662 239.448C299.776 239.611 299.955 239.709 300.167 239.709Z" fill="#5896FA"/>
<path d="M301.344 240.902C301.344 241.327 298.977 241.327 298.977 240.902L298.993 240.413C299.091 239.743 301.148 239.711 301.344 240.413V240.902Z" fill="#5896FA"/>
<path d="M315.429 240.655H305.881C305.457 240.655 305.114 240.313 305.114 239.888C305.114 239.464 305.457 239.121 305.881 239.121H315.429C315.853 239.121 316.196 239.464 316.196 239.888C316.18 240.313 315.837 240.655 315.429 240.655Z" fill="#80B2FF"/>
<path d="M328.013 240.655H318.465C318.04 240.655 317.698 240.313 317.698 239.888C317.698 239.464 318.04 239.121 318.465 239.121H328.013C328.437 239.121 328.78 239.464 328.78 239.888C328.763 240.313 328.421 240.655 328.013 240.655Z" fill="#80B2FF"/>
<path d="M323.998 258.92H315.348C314.124 258.92 313.128 257.924 313.128 256.7C313.128 255.476 314.124 254.48 315.348 254.48H323.998C325.222 254.48 326.218 255.476 326.218 256.7C326.218 257.924 325.222 258.92 323.998 258.92Z" fill="#1251B3"/>
<path d="M210.831 168.567C210.831 168.502 210.831 168.469 210.831 168.453C210.847 168.469 210.831 168.567 210.831 168.567Z" fill="#D9FFFF"/>
<path d="M210.831 168.567C210.831 168.502 210.831 168.469 210.831 168.453C210.847 168.469 210.831 168.567 210.831 168.567Z" fill="#D9FFFF"/>
<path d="M232.211 157.078C227.25 162.382 219.334 166.74 210.88 168.601C210.88 169.172 210.864 172.306 210.798 186.733C210.717 205.992 229.045 215.409 231.885 216.862C234.643 215.589 253.216 206.188 253.298 186.929C253.363 172.485 253.38 169.351 253.38 168.797C244.925 166.854 237.108 162.431 232.211 157.078Z" fill="white"/>
<path d="M232.145 160.553C227.281 165.008 220.557 168.501 213.163 170.411L213.098 186.732C213.066 194.207 216.036 200.963 221.911 206.806C225.78 210.658 229.843 213.041 231.9 214.118C231.981 214.069 232.079 214.02 232.177 213.971V160.585C232.177 160.569 232.161 160.569 232.145 160.553Z" fill="#296ACC"/>
<path d="M232.195 160.586V213.988C234.333 212.878 238.234 210.561 241.971 206.921C247.912 201.111 250.932 194.387 250.964 186.912L251.029 170.591C243.685 168.616 237.01 165.074 232.195 160.586Z" fill="#2E77E6"/>
<path d="M223.591 184.121V196.77C223.591 198.173 240.777 198.173 240.777 196.77V184.121H223.591ZM233.057 190.829V194.42C233.057 194.893 232.666 195.301 232.192 195.301C231.703 195.301 231.311 194.909 231.311 194.42V190.829C230.577 190.503 230.054 189.752 230.054 188.903C230.054 187.728 231.001 186.781 232.176 186.781C233.351 186.781 234.298 187.728 234.298 188.903C234.314 189.752 233.808 190.503 233.057 190.829Z" fill="white"/>
<path d="M239.275 183.223H237.529V182.374C237.529 179.42 235.13 177.021 232.176 177.021C229.221 177.021 226.822 179.42 226.822 182.374V183.223H225.076V182.374C225.076 178.457 228.259 175.291 232.159 175.291C236.076 175.291 239.243 178.474 239.243 182.374V183.223H239.275Z" fill="white"/>
<path d="M359.446 53H328.388V91.7622H359.446V53Z" fill="#296ACC"/>
<path d="M363.476 56.998H332.418V95.7603H363.476V56.998Z" fill="white" stroke="#5896FA" stroke-width="6.3406" stroke-miterlimit="10"/>
<path d="M368.602 60.9316H337.544V99.6939H368.602V60.9316Z" fill="white" stroke="#5896FA" stroke-width="6.3406" stroke-miterlimit="10"/>
<path d="M372.323 64.9297H341.265V103.692H372.323V64.9297Z" fill="#5896FA"/>
<path d="M367.477 71.2949H351.417V73.8083H367.477V71.2949Z" fill="#005CEA"/>
<path d="M367.476 77.2188H346.667V79.7322H367.476V77.2188Z" fill="#005CEA"/>
<path d="M367.476 83.1445H346.667V85.658H367.476V83.1445Z" fill="#005CEA"/>
<path d="M367.476 89.0684H346.667V91.5818H367.476V89.0684Z" fill="#005CEA"/>
<path d="M367.476 94.9922H346.667V97.5056H367.476V94.9922Z" fill="#005CEA"/>
<path d="M260.267 106.156C266.324 106.156 271.235 101.246 271.235 95.1884C271.235 89.1311 266.324 84.2207 260.267 84.2207C254.21 84.2207 249.299 89.1311 249.299 95.1884C249.299 101.246 254.21 106.156 260.267 106.156Z" fill="white"/>
<path d="M277.566 105.617C278.986 103.251 279.884 100.705 280.259 98.1425L281.075 98.2567L282.691 98.5015H282.707C283.148 95.5638 283.001 92.577 282.283 89.7372L279.884 90.3247C279.247 87.746 278.105 85.2979 276.489 83.1435L278.48 81.6583C276.783 79.3408 274.596 77.3333 271.984 75.7501L270.695 77.8719C268.328 76.4519 265.782 75.5543 263.22 75.1789L263.579 72.7308C260.641 72.2901 257.654 72.4533 254.815 73.1551L255.402 75.5543C252.823 76.1908 250.375 77.3333 248.221 78.9491L246.736 76.9579C244.418 78.6553 242.411 80.8423 240.828 83.4536L242.949 84.743C241.529 87.1095 240.632 89.6556 240.256 92.218L238.526 91.9568L237.825 91.8589C237.384 94.7967 237.547 97.7834 238.249 100.623L240.648 100.036C241.285 102.614 242.427 105.063 244.059 107.233L242.068 108.718C243.765 111.036 245.952 113.043 248.547 114.61L249.837 112.489C252.203 113.909 254.749 114.806 257.328 115.182L257.051 117.091L256.969 117.63C259.907 118.07 262.877 117.907 265.717 117.205L265.129 114.806C267.708 114.17 270.156 113.027 272.327 111.411L273.812 113.403C276.113 111.689 278.137 109.518 279.704 106.907L277.566 105.617ZM254.602 104.573C249.412 101.439 247.748 94.6988 250.865 89.5087C253.999 84.3186 260.723 82.6539 265.913 85.7875C271.103 88.9211 272.768 95.6454 269.634 100.835C266.533 106.042 259.793 107.707 254.602 104.573Z" fill="#005CEA"/>
<path d="M236.519 104.164C235.719 102.956 234.707 101.961 233.565 101.193L233.81 100.834L234.283 100.116V100.1C232.977 99.235 231.525 98.6311 230.023 98.321L229.762 99.594C228.391 99.3166 226.971 99.3003 225.584 99.5777L225.323 98.3047C223.838 98.5985 222.385 99.1697 221.047 100.067L221.765 101.161C220.557 101.961 219.561 102.972 218.794 104.115L217.717 103.397C216.852 104.702 216.248 106.155 215.938 107.657L217.211 107.918C216.934 109.289 216.917 110.709 217.195 112.096L215.922 112.357C216.216 113.842 216.787 115.295 217.685 116.633L218.778 115.915C219.578 117.123 220.59 118.118 221.732 118.885L221.226 119.652L221.014 119.963C222.32 120.828 223.772 121.431 225.274 121.742L225.535 120.469C226.906 120.746 228.326 120.762 229.729 120.469L229.991 121.742C231.476 121.448 232.928 120.877 234.267 119.995L233.548 118.902C234.756 118.102 235.768 117.09 236.519 115.948L237.368 116.519L237.612 116.682C238.477 115.376 239.081 113.924 239.391 112.422L238.118 112.161C238.396 110.79 238.412 109.37 238.135 107.967L239.408 107.706C239.114 106.22 238.543 104.768 237.645 103.429L236.519 104.164ZM230.839 114.854C228.179 116.617 224.588 115.882 222.842 113.222C221.079 110.562 221.814 106.987 224.474 105.225C227.134 103.462 230.709 104.197 232.471 106.857C234.234 109.501 233.5 113.091 230.839 114.854Z" fill="#1251B3"/>
<path d="M415.92 126.46H389.252C388.697 126.46 388.24 126.003 388.24 125.448V110.319C388.24 109.764 388.697 109.307 389.252 109.307H415.92C416.475 109.307 416.932 109.764 416.932 110.319V125.448C416.932 126.003 416.475 126.46 415.92 126.46Z" fill="#005CEA"/>
<path d="M416.915 112.539H388.223V115.493H416.915V112.539Z" fill="#5896FA"/>
<path d="M394.8 123.164H390.572C390.311 123.164 390.083 123.376 390.083 123.654C390.083 123.915 390.295 124.143 390.572 124.143H394.8C395.061 124.143 395.289 123.931 395.289 123.654C395.289 123.376 395.077 123.164 394.8 123.164Z" fill="#D1F5FF"/>
<path d="M401.296 123.164H397.068C396.807 123.164 396.579 123.376 396.579 123.654C396.579 123.915 396.791 124.143 397.068 124.143H401.296C401.557 124.143 401.785 123.931 401.785 123.654C401.785 123.376 401.557 123.164 401.296 123.164Z" fill="#D1F5FF"/>
<path d="M407.775 123.164H403.548C403.287 123.164 403.058 123.376 403.058 123.654C403.058 123.915 403.271 124.143 403.548 124.143H407.775C408.036 124.143 408.265 123.931 408.265 123.654C408.265 123.376 408.053 123.164 407.775 123.164Z" fill="#D1F5FF"/>
<path d="M414.271 123.164H410.044C409.783 123.164 409.554 123.376 409.554 123.654C409.554 123.915 409.766 124.143 410.044 124.143H414.271C414.532 124.143 414.761 123.931 414.761 123.654C414.761 123.376 414.532 123.164 414.271 123.164Z" fill="#D1F5FF"/>
<path d="M390.393 110.156C390.099 110.156 389.854 110.401 389.854 110.695V110.891C389.854 111.184 390.099 111.429 390.393 111.429C390.687 111.429 390.931 111.184 390.931 110.891V110.695C390.931 110.401 390.687 110.156 390.393 110.156Z" fill="#D1F5FF"/>
<path d="M391.552 110.793C391.552 111.136 391.83 111.429 392.189 111.429H394.425C394.767 111.429 395.061 111.152 395.061 110.793C395.061 110.45 394.784 110.156 394.425 110.156H392.189C391.83 110.156 391.552 110.45 391.552 110.793Z" fill="#D1F5FF"/>
<path d="M391.259 117.092H394.147C394.604 117.092 394.98 117.467 394.98 117.924V120.405C394.98 120.862 394.604 121.237 394.147 121.237H391.259C390.802 121.237 390.426 120.862 390.426 120.405V117.924C390.41 117.467 390.785 117.092 391.259 117.092Z" fill="#5896FA"/>
<path d="M405.342 170.168V168.21C405.342 167.312 404.624 166.594 403.726 166.594H386.573C385.675 166.594 384.957 167.312 384.957 168.21V202.859H429.35V170.168H405.342Z" fill="#1251B3"/>
<path d="M431.195 171.359H387.667L384.974 202.859H429.139L431.195 171.359Z" fill="white"/>
<path d="M429.35 202.859H384.957L389.674 171.751C389.804 170.837 390.588 170.168 391.518 170.168H432.141C433.283 170.168 434.148 171.18 433.985 172.306L429.35 202.859Z" fill="#3383FF"/>
<path d="M434.002 181.529C439.618 181.529 444.17 176.977 444.17 171.361C444.17 165.746 439.618 161.193 434.002 161.193C428.387 161.193 423.834 165.746 423.834 171.361C423.834 176.977 428.387 181.529 434.002 181.529Z" fill="#005CEA"/>
<path d="M434.002 181.903C428.192 181.903 423.459 177.17 423.459 171.36C423.459 165.549 428.192 160.816 434.002 160.816C439.813 160.816 444.546 165.549 444.546 171.36C444.546 177.17 439.813 181.903 434.002 181.903ZM434.002 161.567C428.6 161.567 424.21 165.957 424.21 171.36C424.21 176.762 428.6 181.152 434.002 181.152C439.405 181.152 443.795 176.762 443.795 171.36C443.795 165.957 439.405 161.567 434.002 161.567Z" fill="white"/>
<path d="M429.106 169.516V176.713C429.106 177.513 438.899 177.513 438.899 176.713V169.516H429.106ZM434.492 173.351V175.391C434.492 175.669 434.264 175.881 434.003 175.881C433.725 175.881 433.513 175.652 433.513 175.391V173.351C433.089 173.155 432.795 172.731 432.795 172.258C432.795 171.588 433.334 171.05 434.003 171.05C434.672 171.05 435.21 171.588 435.21 172.258C435.21 172.731 434.917 173.155 434.492 173.351Z" fill="white"/>
<path d="M438.034 169.009H437.039V168.52C437.039 166.838 435.668 165.468 433.987 165.468C432.306 165.468 430.935 166.838 430.935 168.52V169.009H429.939V168.52C429.939 166.3 431.751 164.488 433.97 164.488C436.19 164.488 438.002 166.3 438.002 168.52V169.009H438.034Z" fill="white"/>
<path d="M398.683 90.1452C400.838 90.1452 402.584 88.3988 402.584 86.2445C402.584 84.0902 400.838 82.3438 398.683 82.3438C396.529 82.3438 394.783 84.0902 394.783 86.2445C394.783 88.3988 396.529 90.1452 398.683 90.1452Z" fill="#AAE0FF"/>
<path d="M296.45 104.671C298.604 104.671 300.35 102.924 300.35 100.77C300.35 98.6155 298.604 96.8691 296.45 96.8691C294.295 96.8691 292.549 98.6155 292.549 100.77C292.549 102.924 294.295 104.671 296.45 104.671Z" fill="#AAE0FF"/>
<path d="M425.989 154.662C427.116 154.662 428.029 153.749 428.029 152.622C428.029 151.495 427.116 150.582 425.989 150.582C424.862 150.582 423.949 151.495 423.949 152.622C423.949 153.749 424.862 154.662 425.989 154.662Z" fill="white"/>
<path d="M212.821 158.481C213.948 158.481 214.861 157.567 214.861 156.441C214.861 155.314 213.948 154.4 212.821 154.4C211.694 154.4 210.781 155.314 210.781 156.441C210.781 157.567 211.694 158.481 212.821 158.481Z" fill="#AAE0FF"/>
<path d="M244.678 234.569C246.833 234.569 248.579 232.823 248.579 230.668C248.579 228.514 246.833 226.768 244.678 226.768C242.524 226.768 240.778 228.514 240.778 230.668C240.778 232.823 242.524 234.569 244.678 234.569Z" fill="#AAE0FF"/>
<path d="M307.156 62.1232C306.781 62.1232 306.487 61.8131 306.487 61.454V54.2238C306.487 53.8485 306.797 53.5547 307.156 53.5547C307.532 53.5547 307.825 53.8648 307.825 54.2238V61.454C307.842 61.8294 307.532 62.1232 307.156 62.1232Z" fill="#AAE0FF"/>
<path d="M302.881 57.8469C302.881 57.4715 303.191 57.1777 303.55 57.1777H310.78C311.156 57.1777 311.45 57.4878 311.45 57.8469C311.45 58.2223 311.14 58.5161 310.78 58.5161H303.55C303.175 58.5161 302.881 58.206 302.881 57.8469Z" fill="#AAE0FF"/>
<path d="M383.945 154.858C383.569 154.858 383.275 154.547 383.275 154.188V146.958C383.275 146.583 383.586 146.289 383.945 146.289C384.32 146.289 384.614 146.599 384.614 146.958V154.188C384.614 154.564 384.32 154.858 383.945 154.858Z" fill="white"/>
<path d="M379.652 150.581C379.652 150.206 379.962 149.912 380.321 149.912H387.551C387.927 149.912 388.22 150.222 388.22 150.581C388.22 150.957 387.91 151.25 387.551 151.25H380.321C379.962 151.25 379.652 150.957 379.652 150.581Z" fill="white"/>
<path d="M376.602 249.992C376.226 249.992 375.933 249.682 375.933 249.323V242.093C375.933 241.718 376.243 241.424 376.602 241.424C376.977 241.424 377.271 241.734 377.271 242.093V249.323C377.271 249.699 376.977 249.992 376.602 249.992Z" fill="white"/>
<path d="M372.309 245.698C372.309 245.323 372.619 245.029 372.978 245.029H380.208C380.584 245.029 380.878 245.339 380.878 245.698C380.878 246.074 380.567 246.368 380.208 246.368H372.978C372.619 246.384 372.309 246.074 372.309 245.698Z" fill="white"/>
<path d="M316.491 198.238C317.681 198.238 318.645 197.274 318.645 196.084C318.645 194.894 317.681 193.93 316.491 193.93C315.301 193.93 314.337 194.894 314.337 196.084C314.337 197.274 315.301 198.238 316.491 198.238Z" stroke="white" stroke-width="4.2257" stroke-miterlimit="10"/>
</svg>
