<svg width="719" height="410" viewBox="0 0 719 410" fill="none" xmlns="http://www.w3.org/2000/svg">
<path d="M37.0416 408.733C37.0416 408.733 -43.1953 331.953 38.1938 220.773C110.899 121.426 56.6019 73.9583 131.218 25.5632C206.649 -23.3658 270.839 6.42443 343.038 44.2524C415.237 82.0803 514.95 -8.47068 622.7 39.6714C730.423 87.8136 714.938 161.39 688.295 237.046C665.812 300.898 734.217 347.045 696.895 408.845C696.895 408.845 34.7371 406.428 37.0416 408.733Z" fill="#EBF3FA"/>
<path d="M717.579 409.97H0.815018C0.365354 409.97 0 409.605 0 409.155V408.846C0 408.397 0.365354 408.031 0.815018 408.031H717.579C718.029 408.031 718.394 408.397 718.394 408.846V409.155C718.422 409.605 718.029 409.97 717.579 409.97Z" fill="#2E3552"/>
<path d="M166.903 308.211C166.903 308.211 198.042 314.74 196.475 320.452C194.909 326.164 162.301 310.659 162.301 310.659C162.301 310.659 138.245 332.17 134.915 343.137C134.915 343.137 170.037 338.175 167.099 343.333C164.161 348.49 127.865 355.344 127.865 355.344C127.865 355.344 111.349 380.771 125.841 391.934C140.334 403.13 151.431 399.344 154.141 395.688C156.85 392.032 167.36 365.724 170.461 367.813C173.594 369.902 171.701 389.845 164.553 398.43C164.553 398.43 195.92 398.691 200.458 383.84C205.027 368.988 198.009 360.926 200.98 351.787C203.95 342.68 209.009 337.196 209.564 342.582C210.119 348 202.318 362.297 205.419 371.926C208.52 381.587 209.891 388.899 218.083 376.789C226.309 364.647 234.469 340.167 226.244 331.158C225.885 330.766 225.558 330.407 225.199 330.048C225.917 330.668 226.244 331.158 226.244 331.158C228.692 329.297 237.015 328.449 243.282 328.057C244.326 328.057 245.795 327.992 247.819 327.828C248.733 327.796 249.451 327.763 249.973 327.763C263.617 327.926 282.777 338.763 282.777 338.763L284.703 336.25C266.946 321.529 245.665 325.609 245.665 325.609C229.442 327.241 218.018 322.116 218.018 322.116C218.018 322.116 214.297 290.716 190.013 294.568C190.045 294.698 174.182 299.268 166.903 308.211Z" fill="#D2E3FC"/>
<path d="M577.587 43.5288C569.296 12.8793 517.593 22.4757 517.593 22.4757C517.593 22.4757 482.472 76.1041 472.288 77.3771C462.072 78.65 493.341 25.6744 493.341 25.6744C473.561 23.7486 423.132 48.0006 423.132 48.0006C423.132 48.0006 426.33 110.54 416.114 109.267C405.897 107.994 416.114 53.7453 416.114 53.7453C396.954 59.49 379.099 81.8162 379.099 81.8162C356.773 118.21 404.624 145.008 404.624 145.008C404.624 145.008 405.277 166.714 391.862 191.619C391.862 191.619 388.826 196.221 385.758 204.022H390.981C391.405 202.619 391.862 201.281 392.384 199.975V199.942C392.384 199.91 392.384 199.91 392.417 199.877C392.776 199.061 393.298 197.919 393.918 196.515C395.518 193.382 396.595 191.097 397.28 189.432C402.046 179.64 408.933 166.845 413.535 164.168C413.535 164.168 412.948 163.352 412.425 161.786C412.784 162.536 413.144 163.352 413.535 164.168C422.479 183.328 467.164 186.494 492.036 181.402C516.94 176.311 506.071 169.26 492.689 157.869C479.273 146.477 451.202 149.48 442.912 145.008C434.621 140.537 446.731 136.065 463.345 137.338C479.926 138.611 488.249 155.225 515.047 157.771C541.845 160.317 562.278 109.887 562.278 109.887C543.771 115.632 510.576 105.415 509.303 99.0504C508.03 92.6528 557.186 93.3056 564.824 91.3799C572.462 89.4541 585.91 74.1783 577.587 43.5288Z" fill="#DFEBFD"/>
<path d="M81.9063 45.7803C93.3305 27.5016 125.09 43.8871 125.09 43.8871C125.09 43.8871 137.363 85.667 143.76 88.5068C150.158 91.3465 140.235 50.7416 140.235 50.7416C153.487 53.3855 181.493 79.1063 181.493 79.1063C181.493 79.1063 167.098 119.156 173.985 120.364C180.872 121.572 184.92 84.2308 184.92 84.2308C196.246 91.7382 203.46 109.788 203.46 109.788C210.836 137.859 174.41 145.856 174.41 145.856C174.41 145.856 169.742 159.859 173.561 178.693C173.561 178.693 174.638 182.283 175.095 187.962L171.7 186.951C171.7 185.971 171.668 184.992 171.57 184.046C171.57 184.046 171.57 184.046 171.57 184.013V183.98C171.505 183.393 171.374 182.544 171.243 181.5C170.819 179.15 170.558 177.452 170.46 176.212C169.285 168.9 167.327 159.239 164.846 156.595C164.846 156.595 165.368 156.171 166.054 155.257C165.662 155.681 165.27 156.138 164.846 156.595C155.25 167.301 125.579 160.577 110.401 152.352C95.2236 144.126 103.645 141.711 114.612 136.913C125.579 132.147 143.238 139.622 149.537 138.349C155.804 137.076 148.819 131.788 137.754 129.34C126.722 126.892 118.039 136.064 100.12 132.441C82.1674 128.818 78.8381 91.9993 78.8381 91.9993C89.74 99.376 113.339 99.2781 115.428 95.3613C117.517 91.477 85.4315 82.2071 80.8291 79.4327C76.1615 76.6909 70.4821 64.0916 81.9063 45.7803Z" fill="#D2E3FC"/>
<path d="M350.343 43.5938C342.346 30.2765 319.269 41.668 319.269 41.668C319.269 41.668 309.901 71.5994 305.266 73.5905C300.631 75.5489 308.269 46.4335 308.269 46.4335C298.705 48.1635 278.174 66.3443 278.174 66.3443C278.174 66.3443 288.032 95.3944 283.038 96.1451C278.044 96.8958 275.628 70 275.628 70C267.37 75.2551 261.952 88.1808 261.952 88.1808C256.272 108.287 282.418 114.522 282.418 114.522C282.418 114.522 285.616 124.673 282.613 138.186C282.613 138.186 281.797 140.765 281.406 144.845L283.854 144.159C283.854 143.441 283.919 142.756 283.984 142.07V142.038C284.05 141.613 284.148 140.993 284.245 140.242C284.572 138.545 284.768 137.337 284.866 136.456C285.812 131.201 287.346 124.281 289.142 122.388C289.142 122.388 288.75 122.094 288.293 121.409C288.554 121.735 288.848 122.062 289.142 122.388C295.898 130.222 317.376 125.75 328.408 120.038C339.441 114.293 333.402 112.465 325.568 108.875C317.735 105.284 304.907 110.474 300.403 109.462C295.898 108.451 301.023 104.73 308.987 103.13C316.984 101.531 323.088 108.222 336.079 105.839C349.037 103.457 351.942 76.9851 351.942 76.9851C343.978 82.1749 327.005 81.7832 325.536 78.9435C324.067 76.1038 347.307 69.8368 350.669 67.911C354.064 65.9199 358.339 56.9438 350.343 43.5938Z" fill="#DFEBFD"/>
<path d="M286.92 211.041L271.22 397.713C271.22 397.713 269.588 409.039 277.977 409.039C291.817 409.072 346.848 409.039 346.848 409.039C346.848 409.039 336.436 406.689 336.567 401.368C336.73 395.134 354.911 209.246 354.911 209.246L286.92 211.041Z" fill="#D86713"/>
<path d="M351.353 405.676C348.644 405.676 296.06 405.839 282.579 405.676C276.704 405.61 275.692 400.453 275.627 397.124C275.594 395.524 275.79 394.349 275.79 394.349L276.214 389.486L277.259 377.115L278.173 366.181L279.348 352.145L280.327 340.297L291.49 207.645L359.513 205.883C359.513 205.883 351.843 283.665 346.424 340.297C345.804 346.596 345.249 352.667 344.694 358.314C344.531 360.109 344.368 361.872 344.205 363.602C343.715 368.955 343.258 373.884 342.834 378.225C342.638 380.51 342.442 382.631 342.246 384.59C341.561 392.228 341.137 397.091 341.137 398.038C341.137 398.593 341.169 399.082 341.267 399.539C342.41 405.48 350.309 405.676 351.353 405.676Z" fill="#F99746"/>
<path d="M121.76 109.463L159.982 263.069L165.237 284.122L183.026 355.671H513.936L448.296 109.463H121.76Z" fill="#F99746"/>
<path d="M121.76 109.463L116.44 111.225L176.009 360.991L183.026 355.671L121.76 109.463Z" fill="#F99746"/>
<path d="M176.008 360.99H504.862L513.936 355.67H183.026L176.008 360.99Z" fill="#D86713"/>
<path d="M362.68 405.74H291.49V409.135H362.68V405.74Z" fill="#F1A34F"/>
<path d="M497.91 310.3L444.216 112.727H122.576L121.76 109.463H448.296L501.794 309.843L497.91 310.3Z" fill="#F1A34F"/>
<path d="M344.565 360.99L344.206 363.601L277.26 377.115L278.174 366.18L278.598 360.99H344.565Z" fill="#D86713"/>
<path opacity="0.4" d="M351.353 405.676C348.644 405.676 296.06 405.839 282.58 405.676C276.704 405.61 275.692 400.453 275.627 397.124L342.279 384.59C341.594 392.228 341.169 397.091 341.169 398.038C341.169 398.593 341.202 399.082 341.3 399.539C342.41 405.48 350.309 405.676 351.353 405.676Z" fill="#D86713"/>
<path d="M328.407 305.829L183.026 355.671L165.237 284.123L328.407 305.829Z" fill="#ED7D2B"/>
<path d="M121.76 109.463H448.296L501.272 307.33H171.015L121.76 109.463Z" fill="#699DEE"/>
<path d="M357.261 332.333C356.315 327.47 351.615 323.553 346.784 323.553C341.92 323.553 338.754 327.502 339.701 332.333C340.647 337.164 345.348 341.113 350.178 341.113C355.042 341.113 358.208 337.196 357.261 332.333Z" fill="#D86713"/>
<path d="M485.866 298.745H180.122L145.523 160.838L142.846 150.263L140.594 141.221L135.274 120.07H436.611L442.454 141.221L444.935 150.263L447.84 160.838L485.866 298.745Z" fill="#E4EDF9"/>
<path d="M442.454 141.221H140.594L135.274 120.07H436.611L442.454 141.221Z" fill="#AFCDFB"/>
<path d="M147.743 129.634C147.384 128.165 148.265 126.99 149.734 126.99C151.203 126.99 152.671 128.165 153.03 129.634C153.389 131.103 152.508 132.278 151.039 132.278C149.571 132.278 148.102 131.103 147.743 129.634Z" fill="#E9F3FE"/>
<path d="M156.523 129.634C156.164 128.165 157.045 126.99 158.514 126.99C159.983 126.99 161.451 128.165 161.81 129.634C162.169 131.103 161.288 132.278 159.819 132.278C158.383 132.278 156.882 131.103 156.523 129.634Z" fill="#E9F3FE"/>
<path d="M165.988 129.634C165.629 128.165 166.51 126.99 167.979 126.99C169.448 126.99 170.916 128.165 171.276 129.634C171.635 131.103 170.753 132.278 169.284 132.278C167.848 132.278 166.347 131.103 165.988 129.634Z" fill="#E9F3FE"/>
<path d="M418.528 286.505H192.035L157.6 151.275H380.861L418.528 286.505Z" fill="#CAE0FF"/>
<path d="M447.806 182.741H396.463L387.095 151.275H439.026L447.806 182.741Z" fill="#D2E3FC"/>
<path d="M309.313 164.43H279.969L278.761 159.926H308.105L309.313 164.43Z" fill="#1C468A"/>
<path d="M361.406 164.43H313.359L312.152 159.926H360.198L361.406 164.43Z" fill="#78ACEA"/>
<path d="M314.274 176.637H262.18L260.972 172.1H313.066L314.274 176.637Z" fill="#78ACEA"/>
<path d="M345.936 176.637H318.942L317.734 172.1H344.728L345.936 176.637Z" fill="#F1A34F"/>
<path d="M318.191 197.658H288.815L287.607 193.121H316.983L318.191 197.658Z" fill="#699DEE"/>
<path d="M370.254 197.658H322.207L320.999 193.121H369.046L370.254 197.658Z" fill="#78ACEA"/>
<path d="M323.119 209.833H271.058L269.85 205.328H321.912L323.119 209.833Z" fill="white"/>
<path d="M354.813 209.833H327.82L326.612 205.328H353.606L354.813 209.833Z" fill="white"/>
<path d="M291.588 228.73H192.231L191.023 224.193H290.381L291.588 228.73Z" fill="#1C468A"/>
<path d="M327.298 228.73H297.954L296.747 224.193H326.09L327.298 228.73Z" fill="#699DEE"/>
<path d="M379.392 228.732H331.345L330.137 224.195H378.184L379.392 228.732Z" fill="#78ACEA"/>
<path d="M224.839 240.939H195.495L194.287 236.402H223.631L224.839 240.939Z" fill="white"/>
<path d="M332.258 240.939H280.164L278.956 236.402H331.051L332.258 240.939Z" fill="#F1A34F"/>
<path d="M276.933 240.939H228.886L227.678 236.402H275.725L276.933 240.939Z" fill="#78ACEA"/>
<path d="M363.919 240.939H336.926L335.718 236.402H362.712L363.919 240.939Z" fill="#78ACEA"/>
<path d="M302.882 262.416H203.524L202.317 257.879H301.674L302.882 262.416Z" fill="#1C468A"/>
<path d="M338.591 262.416H309.215L308.007 257.879H337.384L338.591 262.416Z" fill="#699DEE"/>
<path d="M236.133 274.625H206.756L205.548 270.088H234.925L236.133 274.625Z" fill="white"/>
<path d="M343.52 274.623H291.458L290.218 270.086H342.312L343.52 274.623Z" fill="#F1A34F"/>
<path d="M288.194 274.623H240.147L238.94 270.086H286.987L288.194 274.623Z" fill="#78ACEA"/>
<path d="M375.214 274.623H348.221L347.013 270.086H374.007L375.214 274.623Z" fill="#78ACEA"/>
<path d="M422.249 192.467L399.662 192.532L399.172 190.508L421.759 190.41L422.249 192.467Z" fill="#78ACEA"/>
<path d="M434.162 192.435L425.676 192.468L425.154 190.412L433.673 190.379L434.162 192.435Z" fill="#78ACEA"/>
<path d="M451.365 192.402L436.383 192.435L435.861 190.378L450.875 190.346L451.365 192.402Z" fill="#78ACEA"/>
<path d="M413.305 197.689L400.935 197.722L400.412 195.665L412.816 195.633L413.305 197.689Z" fill="#78ACEA"/>
<path d="M431.356 197.625L415.362 197.691L414.872 195.634L430.866 195.602L431.356 197.625Z" fill="#78ACEA"/>
<path d="M452.637 197.559L434.326 197.624L433.804 195.568L452.148 195.535L452.637 197.559Z" fill="#78ACEA"/>
<path d="M424.959 203.566L402.372 203.631L401.85 201.575L424.437 201.51L424.959 203.566Z" fill="#78ACEA"/>
<path d="M436.872 203.533H428.386L427.864 201.509L436.35 201.477L436.872 203.533Z" fill="#78ACEA"/>
<path d="M454.075 203.468L439.06 203.501L438.571 201.477L453.585 201.412L454.075 203.468Z" fill="#78ACEA"/>
<path d="M416.015 208.789L403.612 208.821L403.122 206.765L415.526 206.732L416.015 208.789Z" fill="#78ACEA"/>
<path d="M434.066 208.724L418.072 208.757L417.582 206.733L433.576 206.668L434.066 208.724Z" fill="#78ACEA"/>
<path d="M455.347 208.658L437.003 208.723L436.514 206.667L454.858 206.602L455.347 208.658Z" fill="#78ACEA"/>
<path d="M407.236 155.649L393.625 155.681L393.331 154.441L406.942 154.408L407.236 155.649Z" fill="white"/>
<path d="M414.417 155.617L409.292 155.65L408.999 154.41L414.123 154.377L414.417 155.617Z" fill="white"/>
<path d="M424.796 155.584L415.755 155.617L415.428 154.376L424.47 154.344L424.796 155.584Z" fill="white"/>
<path d="M401.85 158.783L394.408 158.816L394.082 157.576L401.556 157.543L401.85 158.783Z" fill="white"/>
<path d="M412.719 158.75L403.09 158.783L402.796 157.542L412.425 157.51L412.719 158.75Z" fill="white"/>
<path d="M425.547 158.717L414.514 158.75L414.188 157.509L425.253 157.477L425.547 158.717Z" fill="white"/>
<path d="M408.866 162.309L395.255 162.341L394.961 161.134L408.572 161.068L408.866 162.309Z" fill="white"/>
<path d="M416.047 162.309H410.923L410.629 161.068H415.721L416.047 162.309Z" fill="white"/>
<path d="M426.394 162.276H417.353L417.059 161.068L426.101 161.035L426.394 162.276Z" fill="white"/>
<path d="M403.48 165.442L396.038 165.475L395.711 164.234H403.186L403.48 165.442Z" fill="white"/>
<path d="M414.35 165.409L404.721 165.442L404.427 164.201H414.056L414.35 165.409Z" fill="white"/>
<path d="M427.177 165.377L416.145 165.41L415.818 164.169L426.851 164.137L427.177 165.377Z" fill="white"/>
<path d="M429.561 222.498L406.974 222.563L406.485 220.507L429.072 220.441L429.561 222.498Z" fill="#78ACEA"/>
<path d="M441.474 222.467L432.988 222.499L432.498 220.443L440.985 220.41L441.474 222.467Z" fill="#78ACEA"/>
<path d="M458.71 222.4L443.695 222.465L443.173 220.409L458.188 220.344L458.71 222.4Z" fill="#78ACEA"/>
<path d="M420.617 227.72L408.247 227.753L407.757 225.697L420.128 225.664L420.617 227.72Z" fill="#78ACEA"/>
<path d="M438.701 227.656L422.707 227.721L422.185 225.665L438.179 225.6L438.701 227.656Z" fill="#78ACEA"/>
<path d="M459.949 227.59L441.638 227.655L441.148 225.599L459.46 225.533L459.949 227.59Z" fill="#78ACEA"/>
<path d="M434.098 241.07L411.511 241.135L410.989 239.079L433.576 239.014L434.098 241.07Z" fill="#78ACEA"/>
<path d="M446.011 241.004L437.525 241.037L437.002 238.98H445.489L446.011 241.004Z" fill="#78ACEA"/>
<path d="M463.214 240.972L448.199 241.005L447.709 238.949L462.724 238.916L463.214 240.972Z" fill="#78ACEA"/>
<path d="M425.154 246.26L412.783 246.325L412.261 244.269L424.664 244.236L425.154 246.26Z" fill="#78ACEA"/>
<path d="M443.204 246.228L427.211 246.261L426.721 244.205L442.715 244.172L443.204 246.228Z" fill="#78ACEA"/>
<path d="M464.486 246.162L446.142 246.194L445.653 244.171L463.997 244.105L464.486 246.162Z" fill="#78ACEA"/>
<path d="M438.177 257.781L415.589 257.846L415.067 255.79L437.654 255.725L438.177 257.781Z" fill="#78ACEA"/>
<path d="M450.091 257.748L441.572 257.78L441.082 255.724L449.569 255.691L450.091 257.748Z" fill="#78ACEA"/>
<path d="M467.292 257.683L452.278 257.749L451.788 255.692L466.803 255.627L467.292 257.683Z" fill="#78ACEA"/>
<path d="M429.233 263.004L416.83 263.036L416.34 260.98L428.711 260.947L429.233 263.004Z" fill="#78ACEA"/>
<path d="M447.282 262.939L431.288 263.004L430.799 260.948L446.793 260.883L447.282 262.939Z" fill="#78ACEA"/>
<path d="M468.565 262.873L450.221 262.938L449.731 260.882L468.075 260.816L468.565 262.873Z" fill="#78ACEA"/>
<path d="M448.816 282.654C445.193 282.654 441.374 279.716 440.297 276.06C439.252 272.437 441.341 269.467 444.964 269.467C448.587 269.467 452.406 272.404 453.483 276.06C454.528 279.683 452.439 282.654 448.816 282.654ZM445.323 270.674C442.353 270.674 440.656 273.09 441.504 276.06C442.353 279.03 445.486 281.446 448.457 281.446C451.427 281.446 453.124 279.03 452.276 276.06C451.427 273.09 448.294 270.674 445.323 270.674Z" fill="#A8D29F"/>
<path d="M447.74 279.423C447.478 279.39 447.217 279.292 446.989 279.129L443.3 276.159C442.811 275.767 442.615 275.114 442.909 274.755C443.203 274.364 443.823 274.396 444.345 274.788L446.956 276.877L448.294 273.776C448.49 273.319 449.078 273.221 449.633 273.548C450.188 273.874 450.449 274.494 450.253 274.951L448.49 279.031C448.392 279.26 448.164 279.423 447.87 279.456C447.837 279.423 447.772 279.423 447.74 279.423Z" fill="#A8D29F"/>
<path d="M466.964 282.654C463.341 282.654 459.522 279.716 458.445 276.06C457.401 272.437 459.49 269.467 463.113 269.467C466.736 269.467 470.555 272.404 471.632 276.06C472.709 279.683 470.62 282.654 466.964 282.654ZM463.472 270.674C460.501 270.674 458.804 273.09 459.653 276.06C460.501 279.03 463.635 281.446 466.605 281.446C469.575 281.446 471.273 279.03 470.424 276.06C469.575 273.09 466.442 270.674 463.472 270.674Z" fill="#F1A34F"/>
<path d="M465.365 277.138C464.843 277.138 464.321 276.713 464.158 276.191L463.342 273.384C463.179 272.862 463.505 272.438 463.995 272.438C464.517 272.438 465.039 272.862 465.202 273.384L466.018 276.191C466.181 276.713 465.888 277.138 465.365 277.138Z" fill="#F1A34F"/>
<path d="M466.117 279.325H465.921C465.464 279.325 464.974 278.966 464.844 278.509C464.713 278.052 464.974 277.693 465.431 277.693H465.627C466.084 277.693 466.574 278.052 466.704 278.509C466.835 278.966 466.574 279.325 466.117 279.325Z" fill="#F1A34F"/>
<path d="M428.55 179.705C426.559 179.705 424.47 178.073 423.882 176.082C423.295 174.091 424.437 172.459 426.428 172.459C428.419 172.459 430.508 174.091 431.096 176.082C431.683 178.106 430.541 179.705 428.55 179.705ZM426.657 173.144C425.025 173.144 424.078 174.483 424.568 176.082C425.057 177.714 426.755 179.02 428.387 179.02C430.019 179.02 430.965 177.681 430.476 176.082C429.986 174.483 428.256 173.144 426.657 173.144Z" fill="#A8D29F"/>
<path d="M427.963 177.943C427.832 177.943 427.669 177.877 427.571 177.779L425.548 176.147C425.286 175.919 425.189 175.592 425.352 175.364C425.515 175.168 425.874 175.168 426.135 175.397L427.571 176.539L428.289 174.842C428.387 174.581 428.714 174.548 429.008 174.711C429.301 174.874 429.464 175.233 429.367 175.494L428.387 177.714C428.322 177.845 428.192 177.943 428.061 177.943C428.028 177.943 427.996 177.943 427.963 177.943Z" fill="#A8D29F"/>
<path d="M418.234 179.705C416.242 179.705 414.153 178.073 413.566 176.082C412.978 174.091 414.121 172.459 416.112 172.459C418.103 172.459 420.192 174.091 420.779 176.082C421.367 178.073 420.225 179.705 418.234 179.705ZM416.308 173.144C414.676 173.144 413.729 174.483 414.219 176.082C414.708 177.714 416.406 179.02 418.038 179.02C419.67 179.02 420.616 177.681 420.127 176.082C419.637 174.483 417.94 173.144 416.308 173.144Z" fill="#A8D29F"/>
<path d="M417.648 177.943C417.517 177.943 417.354 177.877 417.256 177.779L415.232 176.147C414.971 175.919 414.873 175.592 415.036 175.364C415.2 175.168 415.559 175.168 415.82 175.397L417.256 176.539L417.974 174.842C418.072 174.581 418.398 174.548 418.692 174.711C418.986 174.874 419.149 175.233 419.051 175.494L418.072 177.714C418.007 177.845 417.876 177.943 417.746 177.943C417.68 177.943 417.68 177.943 417.648 177.943Z" fill="#A8D29F"/>
<path d="M407.528 179.705C405.537 179.705 403.448 178.073 402.861 176.082C402.273 174.091 403.415 172.459 405.407 172.459C407.398 172.459 409.487 174.091 410.074 176.082C410.662 178.073 409.519 179.705 407.528 179.705ZM405.602 173.144C403.97 173.144 403.024 174.483 403.513 176.082C404.003 177.714 405.7 179.02 407.332 179.02C408.964 179.02 409.911 177.681 409.421 176.082C408.964 174.483 407.234 173.144 405.602 173.144Z" fill="#A8D29F"/>
<path d="M406.94 177.943C406.81 177.943 406.647 177.877 406.549 177.779L404.525 176.147C404.264 175.919 404.166 175.592 404.329 175.364C404.492 175.168 404.851 175.168 405.112 175.397L406.549 176.539L407.267 174.842C407.365 174.581 407.691 174.548 407.985 174.711C408.279 174.874 408.442 175.233 408.344 175.494L407.365 177.714C407.299 177.845 407.169 177.943 407.038 177.943C407.006 177.943 406.973 177.943 406.94 177.943Z" fill="#A8D29F"/>
<path d="M438.538 179.705C436.547 179.705 434.458 178.073 433.871 176.082C433.283 174.091 434.425 172.459 436.417 172.459C438.408 172.459 440.497 174.091 441.084 176.082C441.672 178.106 440.529 179.705 438.538 179.705ZM436.612 173.144C434.98 173.144 434.034 174.483 434.523 176.082C435.013 177.714 436.71 179.02 438.342 179.02C439.974 179.02 440.921 177.681 440.431 176.082C439.942 174.483 438.244 173.144 436.612 173.144Z" fill="#F1A34F"/>
<path d="M437.656 176.702C437.363 176.702 437.069 176.473 437.004 176.179L436.547 174.645C436.449 174.352 436.612 174.123 436.906 174.123C437.199 174.123 437.493 174.352 437.558 174.645L438.015 176.179C438.081 176.473 437.917 176.702 437.656 176.702Z" fill="#F1A34F"/>
<path d="M438.048 177.91H437.95C437.689 177.91 437.428 177.714 437.363 177.453C437.298 177.192 437.428 176.996 437.689 176.996H437.787C438.048 176.996 438.309 177.192 438.375 177.453C438.44 177.682 438.309 177.91 438.048 177.91Z" fill="#F1A34F"/>
<path d="M412.425 408.189C412.425 408.189 412.914 404.37 414.057 402.085C415.199 399.801 422.445 401.269 422.445 401.269C422.445 401.269 423.882 402.51 424.208 408.32L412.425 408.189Z" fill="#233862"/>
<path d="M387.748 408.124C389.446 407.079 388.466 399.344 388.466 399.344C388.466 399.344 380.535 393.011 379.458 397.842C378.38 402.705 371.918 404.892 368.262 405.48C365.716 405.904 364.933 407.308 364.704 408.124H387.748Z" fill="#233862"/>
<path d="M404.198 351.755C403.872 353.55 403.676 354.987 403.611 356.031C402.86 370.426 391.501 403.295 389.477 404.078C386.344 405.253 381.383 402.74 378.771 401.924C377.694 401.565 376.976 400.487 377.205 399.41C382.851 373.526 384.908 336.251 385.658 314.186C386.05 303.055 387.943 295.385 387.943 295.385C387.943 295.385 415.688 287.975 415.851 297.343C415.982 305.601 406.646 338.079 404.198 351.755Z" fill="#213F7A"/>
<path d="M404.2 351.755L385.66 314.153C386.052 303.022 387.945 295.352 387.945 295.352C387.945 295.352 415.689 287.942 415.853 297.31C415.983 305.601 406.648 338.078 404.2 351.755Z" fill="#233862"/>
<path d="M398.03 297.344L412.686 403.621C412.686 403.621 419.116 405.188 424.143 403.948C424.143 403.948 428.451 347.414 428.092 333.77C427.733 320.094 431.16 297.213 427.309 294.7C423.392 292.121 398.03 297.344 398.03 297.344Z" fill="#213F7A"/>
<path d="M428.287 270.056L430.115 295.581C430.181 296.528 429.56 297.409 428.646 297.67C426.59 298.258 424.24 298.682 419.703 299.629C415.427 300.51 409.682 301.293 402.632 301.358C391.404 301.424 387.16 297.572 387.16 297.572C386.671 297.572 387.421 295.222 388.074 284.059C388.303 280.273 388.531 275.475 388.662 269.403C388.792 263.952 388.89 257.457 388.923 249.786C388.923 240.549 403.252 230.594 403.513 230.594C403.513 231.932 405.602 234.38 408.834 234.609C412.685 234.87 417.385 232.944 417.385 230.724C417.385 230.692 424.338 241.822 426.786 253.671C427.112 255.172 427.341 256.771 427.537 258.436C427.537 258.469 427.537 258.501 427.537 258.501C427.569 258.795 427.602 259.122 427.635 259.415C427.635 259.481 427.635 259.513 427.635 259.579C427.667 259.872 427.7 260.133 427.732 260.427C427.732 260.493 427.732 260.59 427.765 260.688C427.798 260.949 427.798 261.211 427.83 261.472C427.83 261.504 427.83 261.504 427.83 261.537C427.863 261.733 427.863 261.929 427.863 262.125C427.863 262.255 427.896 262.418 427.896 262.549C427.928 262.777 427.928 263.006 427.928 263.234C427.928 263.365 427.928 263.463 427.961 263.593C427.961 263.822 427.994 264.05 427.994 264.246C427.994 264.344 427.994 264.442 428.026 264.54C428.059 264.866 428.059 265.193 428.092 265.519C428.092 265.552 428.092 265.584 428.092 265.584C428.124 265.911 428.124 266.205 428.124 266.531C428.124 266.596 428.124 266.694 428.124 266.759C428.124 267.053 428.157 267.347 428.157 267.673C428.157 267.706 428.157 267.771 428.157 267.804C428.255 268.555 428.287 269.305 428.287 270.056C428.287 270.089 428.287 270.089 428.287 270.121V270.056Z" fill="#2B478B"/>
<path d="M403.514 230.528C403.514 230.528 390.196 230.43 386.998 234.901C383.799 239.406 376.781 263.592 380.437 271.622C384.093 279.684 390.98 268.293 394.766 263.364C398.585 258.435 403.514 230.528 403.514 230.528Z" fill="#2B478B"/>
<path d="M403.384 228.504V229.875C403.384 229.875 403.025 234.183 408.312 234.804C413.6 235.424 417.615 233.139 417.484 229.81C416.995 227.231 416.473 225.468 416.44 223.347C416.44 222.563 416.473 221.715 416.636 220.768L406.354 220.572L403.318 221.062L403.384 228.504Z" fill="#FFB27D"/>
<path d="M403.351 221.062L403.383 228.504C404.46 229.026 405.701 229.32 407.072 229.32C411.804 229.32 414.84 225.86 416.439 223.347C416.439 222.563 416.472 221.715 416.635 220.768L406.354 220.572L403.351 221.062Z" fill="#E2915A"/>
<path d="M417.418 219.103C416.211 225.534 407.953 225.305 404.362 224.913C403.35 224.815 402.73 224.685 402.73 224.685C401.588 224.391 400.968 222.596 400.674 220.246C400.086 215.611 400.837 208.822 401.62 207.059C402.795 204.448 405.015 201.608 413.338 203.664C421.694 205.688 418.952 210.878 417.418 219.103Z" fill="#FFB27D"/>
<path d="M389.903 248.545C389.903 248.545 384.746 259.904 384.909 263.331C384.909 263.331 387.455 263.233 389.903 263.984C393.918 265.192 389.903 248.545 389.903 248.545Z" fill="#233862"/>
<path d="M399.042 200.955C399.042 200.955 402.697 200.662 407.039 198.801C410.564 197.267 414.97 198.964 416.406 199.715C416.374 199.486 416.276 199.16 416.047 198.834C416.047 198.834 416.7 199.291 416.798 199.943C416.863 200.009 416.896 200.041 416.863 200.041C416.863 200.041 417.581 199.911 418.071 200.107C418.071 200.107 417.745 200.074 417.614 200.27C417.614 200.302 417.581 200.302 417.549 200.335C423.032 202.979 423.522 211.629 421.759 213.652C419.638 216.068 417.092 221.486 417.092 221.486C417.092 221.486 416.178 220.213 416.537 218.092C416.929 215.97 415.101 215.97 412.783 214.991C410.466 214.012 412.392 211.335 410.368 209.703C408.344 208.071 400.935 209.018 401 207.777C398.356 206.765 399.042 201.249 399.042 200.955Z" fill="#233862"/>
<path d="M419.116 269.859C416.929 278.574 393.428 283.111 388.075 284.025C388.304 280.238 388.532 275.44 388.663 269.369L419.116 269.859Z" fill="#233862"/>
<path d="M413.926 272.699C414.155 272.699 419.149 271.948 420.063 271.491C420.944 271.034 425.057 265.224 422.38 263.723C419.704 262.221 412.49 268.194 412.49 268.194L413.926 272.699Z" fill="#FFB27D"/>
<path d="M383.505 274.43C383.505 274.43 402.86 275.475 415.851 272.7C415.851 272.7 416.178 268.946 412.098 267.282C412.098 267.282 391.861 263.006 386.997 264.181C382.134 265.389 383.505 274.43 383.505 274.43Z" fill="#2B478B"/>
<path d="M427.961 259.252C423.946 264.083 418.691 268.032 412.914 268.979C412.881 268.914 411.151 266.335 411.477 262.516C411.641 260.753 412.196 258.73 413.599 256.575C414.023 255.923 414.415 255.139 414.742 254.291C417.908 246.228 417.418 230.691 417.418 230.691C417.418 230.691 430.833 232.095 435.011 238.068C437.557 241.724 434.293 251.581 427.961 259.252Z" fill="#2B478B"/>
<path d="M404.395 224.914C403.384 224.816 402.763 224.685 402.763 224.685C401.621 224.391 401.001 222.596 400.707 220.246C402.829 220.768 403.808 222.4 404.232 223.118C404.363 223.412 404.395 224.13 404.395 224.914Z" fill="#E2915A"/>
<path d="M398.977 228.536C398.977 228.536 394.342 220.899 397.932 220.54C401.523 220.213 402.992 222.661 403.514 223.542C404.036 224.424 403.383 228.471 403.383 228.471L398.977 228.536Z" fill="#FFB27D"/>
<path d="M416.635 262.253C416.505 263.233 416.211 264.114 415.852 264.897C414.71 267.411 412.914 268.977 412.914 268.977C400.87 263.559 398.455 244.889 398.03 234.64C397.867 230.527 398.03 227.752 398.03 227.752C403.449 225.957 404.983 229.091 404.983 229.091C404.983 229.091 411.38 244.334 414.71 254.289C415.983 258.075 416.799 261.144 416.635 262.253Z" fill="#2B478B"/>
<path d="M427.962 259.252C423.947 264.082 418.692 268.032 412.914 268.979C400.87 263.56 398.455 244.89 398.03 234.641C398.03 234.641 403.742 255.302 411.478 262.516C412.882 263.821 414.351 264.703 415.852 264.898C415.852 264.898 425.644 262.124 427.668 259.545C427.831 259.35 427.896 259.252 427.962 259.252Z" fill="#233862"/>
<path d="M253.204 211.889H105.57L82.624 136.75H230.257L253.204 211.889Z" fill="#FAFDFF"/>
<path d="M232.379 174.32H103.449L93.6895 142.365H222.62L232.379 174.32Z" fill="#4A75CB"/>
<path d="M124.665 148.859H102.829L102.307 147.162H124.143L124.665 148.859Z" fill="#CAE0FF"/>
<path d="M148.003 148.859H129.855L129.333 147.162H147.481L148.003 148.859Z" fill="#CAE0FF"/>
<path d="M190.273 148.859H152.736L152.214 147.162H189.75L190.273 148.859Z" fill="#CAE0FF"/>
<path d="M126.526 154.963H104.689L104.167 153.266H126.004L126.526 154.963Z" fill="#CAE0FF"/>
<path d="M149.864 154.963H131.716L131.193 153.266H149.341L149.864 154.963Z" fill="#CAE0FF"/>
<path d="M171.342 154.963H153.161L152.639 153.266H170.819L171.342 154.963Z" fill="#CAE0FF"/>
<path d="M214.362 155.682H176.825L176.303 153.984H213.839L214.362 155.682Z" fill="#CAE0FF"/>
<path d="M128.875 162.699H107.039L106.517 161.002H128.353L128.875 162.699Z" fill="#CAE0FF"/>
<path d="M152.246 162.699H134.065L133.543 161.002H151.724L152.246 162.699Z" fill="#CAE0FF"/>
<path d="M194.515 162.699H156.978L156.456 161.002H193.992L194.515 162.699Z" fill="#CAE0FF"/>
<path d="M130.736 168.803H108.899L108.377 167.105H130.213L130.736 168.803Z" fill="#CAE0FF"/>
<path d="M154.106 168.803H135.926L135.403 167.105H153.584L154.106 168.803Z" fill="#CAE0FF"/>
<path d="M175.55 168.803H157.402L156.88 167.105H175.028L175.55 168.803Z" fill="#CAE0FF"/>
<path d="M218.605 169.522H181.068L180.546 167.824H218.083L218.605 169.522Z" fill="#CAE0FF"/>
<path d="M189.914 200.791C184.92 200.791 179.6 196.711 178.066 191.717C176.532 186.723 179.371 182.643 184.365 182.643C189.359 182.643 194.68 186.723 196.214 191.717C197.748 196.711 194.908 200.791 189.914 200.791ZM184.855 184.275C180.775 184.275 178.458 187.604 179.698 191.684C180.938 195.764 185.279 199.093 189.392 199.093C193.472 199.093 195.79 195.764 194.549 191.684C193.309 187.604 188.968 184.275 184.855 184.275Z" fill="#A8D29F"/>
<path d="M188.348 196.318C187.989 196.285 187.63 196.155 187.336 195.894L182.179 191.814C181.494 191.259 181.232 190.378 181.624 189.855C182.016 189.333 182.897 189.333 183.583 189.888L187.206 192.76L189.001 188.484C189.262 187.864 190.078 187.734 190.829 188.191C191.579 188.648 191.971 189.496 191.71 190.116L189.36 195.731C189.229 196.057 188.903 196.285 188.511 196.285C188.479 196.318 188.413 196.318 188.348 196.318Z" fill="#A8D29F"/>
<path d="M163.932 200.791C158.938 200.791 153.618 196.711 152.084 191.717C150.55 186.723 153.39 182.643 158.384 182.643C163.378 182.643 168.698 186.723 170.232 191.717C171.766 196.711 168.926 200.791 163.932 200.791ZM158.906 184.275C154.826 184.275 152.508 187.604 153.749 191.684C154.989 195.764 159.33 199.093 163.443 199.093C167.523 199.093 169.84 195.764 168.6 191.684C167.327 187.604 162.986 184.275 158.906 184.275Z" fill="#A8D29F"/>
<path d="M162.399 196.318C162.04 196.285 161.681 196.155 161.387 195.894L156.23 191.814C155.544 191.259 155.283 190.378 155.675 189.855C156.066 189.333 156.948 189.333 157.633 189.888L161.256 192.76L163.051 188.484C163.313 187.864 164.129 187.734 164.879 188.191C165.63 188.648 166.022 189.496 165.761 190.116L163.41 195.731C163.28 196.057 162.954 196.285 162.562 196.285C162.529 196.318 162.464 196.318 162.399 196.318Z" fill="#A8D29F"/>
<path d="M137.038 200.791C132.044 200.791 126.724 196.711 125.19 191.717C123.655 186.723 126.495 182.643 131.489 182.643C136.483 182.643 141.804 186.723 143.338 191.717C144.872 196.711 142.032 200.791 137.038 200.791ZM132.011 184.275C127.931 184.275 125.614 187.604 126.854 191.684C128.095 195.764 132.436 199.093 136.549 199.093C140.629 199.093 142.946 195.764 141.706 191.684C140.433 187.604 136.092 184.275 132.011 184.275Z" fill="#A8D29F"/>
<path d="M135.503 196.318C135.144 196.285 134.785 196.155 134.491 195.894L129.334 191.814C128.649 191.259 128.387 190.378 128.779 189.855C129.171 189.333 130.052 189.333 130.738 189.888L134.361 192.76L136.156 188.484C136.417 187.864 137.233 187.734 137.984 188.191C138.735 188.648 139.126 189.496 138.865 190.116L136.515 195.731C136.384 196.057 136.058 196.285 135.666 196.285C135.634 196.318 135.568 196.318 135.503 196.318Z" fill="#A8D29F"/>
<path d="M214.948 200.791C209.954 200.791 204.634 196.711 203.1 191.717C201.566 186.723 204.405 182.643 209.399 182.643C214.393 182.643 219.714 186.723 221.248 191.717C222.782 196.711 219.975 200.791 214.948 200.791ZM209.922 184.275C205.842 184.275 203.524 187.604 204.764 191.684C206.005 195.764 210.346 199.093 214.459 199.093C218.571 199.093 220.856 195.764 219.616 191.684C218.343 187.604 214.002 184.275 209.922 184.275Z" fill="#F1A34F"/>
<path d="M212.631 193.185C211.913 193.185 211.162 192.597 210.967 191.912L209.792 188.06C209.563 187.342 209.987 186.787 210.673 186.787C211.391 186.787 212.142 187.375 212.337 188.06L213.513 191.912C213.741 192.597 213.349 193.185 212.631 193.185Z" fill="#F1A34F"/>
<path d="M213.708 196.22H213.447C212.827 196.22 212.142 195.698 211.946 195.078C211.75 194.458 212.109 193.936 212.729 193.936H212.99C213.611 193.936 214.296 194.458 214.492 195.078C214.688 195.698 214.329 196.22 213.708 196.22Z" fill="#F1A34F"/>
<path d="M567.795 196.939C567.795 196.939 586.465 216.295 587.347 223.574C588.228 230.853 578.403 242.245 578.403 242.245L567.795 196.939Z" fill="#ED7D2B"/>
<path d="M559.374 397.613C559.374 397.613 558.721 407.895 556.73 408.026C556.469 408.058 546.644 408.026 546.644 408.026L534.11 407.928C534.11 407.928 534.208 404.925 537.864 404.272C541.52 403.652 547.656 401.073 549.908 396.242C552.226 391.15 559.374 397.613 559.374 397.613Z" fill="#163560"/>
<path d="M587.28 397.646C587.28 397.646 586.628 407.928 584.637 408.058C584.375 408.091 574.551 408.058 574.551 408.058L562.017 407.96C562.017 407.96 562.115 404.957 565.77 404.305C569.426 403.684 575.562 401.106 577.815 396.275C580.132 391.216 587.28 397.646 587.28 397.646Z" fill="#163560"/>
<path d="M545.73 287.157C545.73 287.157 548.962 308.112 561.104 345.355C573.246 382.598 574.878 398.69 574.878 398.69L588 398.363C588 398.363 588.196 357.693 582.614 338.99C577.033 320.254 581.537 271.555 581.537 271.555L545.73 287.157Z" fill="#163560"/>
<path d="M539.364 272.6C539.364 272.6 538.842 304.196 544.228 342.973C549.614 381.75 547.72 398.233 547.72 398.233L560.809 398.69C560.809 398.69 568.708 359.913 566.521 340.492C564.334 321.071 577.391 273.905 577.391 273.905L539.364 272.6Z" fill="#1C468A"/>
<path d="M564.89 198.735L557.905 203.305L547.819 201.412C547.95 200.596 548.635 197.234 549.255 194.165C549.288 193.969 549.321 193.806 549.353 193.643C549.876 191.032 550.333 188.812 550.333 188.812L559.766 184.667L563.291 183.133C563.291 183.198 562.997 186.005 562.965 186.43C562.279 193.774 564.89 198.735 564.89 198.735Z" fill="#FFB27D"/>
<path d="M550.397 196.417C550.593 196.319 562.539 192.826 563.845 193.283C565.151 193.708 565.901 196.221 565.901 196.221L546.35 200.595C546.382 200.562 547.916 197.461 550.397 196.417Z" fill="#ED7D2B"/>
<path d="M582.385 276.582C580.329 285.819 546.644 286.831 537.994 278.442C537.015 277.496 536.982 273.057 537.341 267.051C538.092 255.333 540.475 237.74 540.573 228.731C540.638 224.39 541.226 219.951 542.042 215.903C543.739 207.319 546.35 200.562 546.35 200.562C546.35 200.562 562.801 195.274 565.902 196.188C580.721 200.595 584.442 267.377 582.385 276.582Z" fill="#F99746"/>
<path d="M537.341 267.052C538.092 255.334 540.474 237.74 540.572 228.732C540.638 224.39 541.225 219.951 542.041 215.904L551.931 214.174C551.964 214.206 561.56 253.734 537.341 267.052Z" fill="#ED7D2B"/>
<path d="M542.759 250.731C542.759 250.731 543.444 252.33 542.008 253.44C540.572 254.55 539.658 256.28 539.984 257.553C540.311 258.826 543.411 260.947 544.489 260.588C545.566 260.262 547.753 258.565 547.524 257.879C547.296 257.194 549.026 251.939 546.382 249.915C543.77 247.924 542.759 250.731 542.759 250.731Z" fill="#FFB27D"/>
<path d="M553.923 198.213C553.923 198.213 544.261 200.008 536.558 211.302C528.855 222.628 523.763 231.049 525.166 235.129C526.57 239.209 539.463 253.408 541.682 253.408C543.902 253.408 547.492 251.809 547.721 248.153C547.721 248.153 538.647 234.509 540.442 232.485C541.225 231.604 552.258 222.693 553.825 226.741C556.436 233.432 553.923 198.213 553.923 198.213Z" fill="#F99746"/>
<path d="M562.246 186.559C560.157 190.051 552.454 193.054 549.255 194.164C549.288 193.968 549.32 193.805 549.353 193.642C549.875 191.03 550.332 188.811 550.332 188.811L559.765 184.666C561.822 184.633 563.095 185.123 562.246 186.559Z" fill="#FCA56B"/>
<path d="M546.773 188.224C546.773 188.224 561.919 192.989 564.758 183.491C567.565 174.025 571.45 168.247 561.886 164.788C552.322 161.36 549.352 164.396 547.655 167.334C545.925 170.304 542.922 186.722 546.773 188.224Z" fill="#FFB27D"/>
<path d="M548.244 166.453C548.244 166.453 549.191 177.485 551.475 177.028C553.76 176.539 555.817 176.212 555.49 179.542C555.164 182.871 551.965 186.69 559.015 187.31C566.066 187.93 576.217 169.782 574.291 166.355C568.71 156.4 540.214 154.343 548.244 166.453Z" fill="#163560"/>
</svg>
