<svg width="543" height="422" viewBox="0 0 543 422" fill="none" xmlns="http://www.w3.org/2000/svg">
<path d="M299.763 341.829C433.668 315.787 529.39 228.711 513.564 147.338C497.739 65.9656 376.359 21.1109 242.455 47.1524C108.551 73.1939 12.8289 160.27 28.6541 241.643C44.4793 323.015 165.859 367.87 299.763 341.829Z" fill="#F9F9FF"/>
<path d="M431.562 421.527H114.612V415.321C114.612 413.922 115.743 412.791 117.142 412.791H429.032C430.431 412.791 431.562 413.922 431.562 415.321V421.527Z" fill="#A0A3EB"/>
<path d="M188.988 198.262L196.615 202.871L216.478 233.378L243.204 211.26L250.963 218.124L220.125 257.584L212.1 252.013L188.988 198.262Z" fill="#BBC9C9"/>
<path d="M256.496 84.8554C256.496 83.6948 256.496 82.5674 256.496 81.4068L254.904 78.1572C254.507 77.7261 253.678 77.7261 253.313 78.1903L251.986 81.4068V84.8554C250.726 84.8554 248.704 85.817 248.704 87.0439C248.704 88.2377 249.732 89.2324 250.958 89.2324H251.986V205.722C251.986 212.287 248.505 217.759 243.531 217.659C239.651 217.56 236.302 214.277 235.705 208.905C235.572 207.711 234.578 206.816 233.318 206.816H233.218C231.792 206.816 230.665 208.01 230.831 209.403C231.825 217.029 237.86 222.501 243.63 222.501C248.14 222.501 251.821 220.411 253.943 216.664C256.596 212.022 256.43 206.916 256.43 201.809C256.43 196.968 256.43 192.16 256.43 187.318C256.43 180.587 256.43 173.822 256.43 167.091C256.43 159.398 256.43 151.705 256.43 144.012C256.43 136.352 256.43 128.659 256.43 120.999C256.43 114.334 256.43 107.636 256.43 100.971C256.43 97.0581 256.43 93.1784 256.43 89.2656H257.126C258.386 89.2656 259.381 88.304 259.381 87.0771C259.447 85.8502 257.756 84.8554 256.496 84.8554Z" fill="#59595B"/>
<g opacity="0.26">
<path d="M256.498 150.179L251.955 145.437V137.645H256.498V150.179Z" fill="black"/>
</g>
<path d="M225.035 148.886L225.732 144.609C228.152 129.753 233.856 115.594 242.444 103.226L253.32 87.6074C226.892 88.7348 204.211 104.386 193.136 126.835C189.753 133.666 187.432 141.16 186.438 149.019C192.141 147.295 198.773 146.333 205.869 146.333C212.799 146.3 219.332 147.228 225.035 148.886Z" fill="#74A7CE"/>
<path d="M281.838 140.265L283.694 149.483H284.391C290.426 147.493 297.588 146.333 305.314 146.333C313.007 146.333 320.203 147.493 326.338 149.483C325.111 139.436 321.795 130.018 316.788 121.728C304.452 101.203 282.003 87.5078 256.338 87.5078C255.575 87.5078 254.846 87.5078 254.083 87.541L262.771 100.208C273.415 113.339 278.289 126.57 281.838 140.265Z" fill="#74A7CE"/>
<path d="M225.732 144.609L225.036 148.886C225.102 148.919 225.169 148.919 225.235 148.952C232.563 145.703 242.578 143.846 253.653 143.846C265.325 143.846 275.837 145.902 283.264 149.483H283.695L281.838 140.265C278.29 126.57 273.416 113.339 262.772 100.241L254.084 87.5742C253.819 87.5742 253.553 87.6074 253.321 87.6074L242.478 103.226C233.857 115.594 228.153 129.72 225.732 144.609Z" fill="#6596C1"/>
<path d="M225.035 148.887L225.001 149.019C225.068 148.986 225.134 148.953 225.2 148.92C225.167 148.92 225.101 148.92 225.035 148.887Z" fill="white"/>
<path d="M307.668 329.54C323.021 329.54 335.455 347.38 335.455 369.398C335.455 391.415 323.021 409.255 307.635 409.255C292.249 409.255 279.847 391.382 279.847 369.398C279.847 347.413 292.315 329.54 307.668 329.54ZM307.668 325.66C303.191 325.66 298.881 326.887 294.835 329.341C291.055 331.629 287.706 334.879 284.821 338.99C279.117 347.148 275.967 357.958 275.967 369.398C275.967 380.838 279.117 391.614 284.821 399.805C287.673 403.917 291.055 407.166 294.835 409.454C298.881 411.908 303.191 413.135 307.668 413.135C312.144 413.135 316.455 411.908 320.501 409.454C324.281 407.166 327.63 403.917 330.515 399.805C336.218 391.648 339.368 380.838 339.368 369.398C339.368 357.958 336.218 347.181 330.515 338.99C327.663 334.879 324.281 331.629 320.501 329.341C316.455 326.92 312.144 325.66 307.668 325.66Z" fill="#59595B"/>
<path d="M307.665 332.757C313.999 332.757 320.034 336.405 324.676 343.07C329.55 350.067 332.236 359.418 332.236 369.432C332.236 379.446 329.55 388.797 324.676 395.794C320.034 402.426 313.999 406.106 307.665 406.106C301.332 406.106 295.263 402.459 290.654 395.794C285.78 388.797 283.094 379.446 283.094 369.432C283.094 359.418 285.78 350.067 290.654 343.07C295.263 336.405 301.298 332.757 307.665 332.757ZM307.665 329.541C292.312 329.541 279.844 347.381 279.844 369.399C279.844 391.417 292.279 409.257 307.665 409.257C323.051 409.257 335.486 391.417 335.486 369.399C335.486 347.381 323.018 329.541 307.665 329.541Z" fill="#AEB8BD"/>
<path d="M308.131 331.762H307.169V369.199H308.131V331.762Z" fill="#AEB8BD"/>
<path d="M308.082 368.969L292.234 338.979L291.384 339.428L307.232 369.418L308.082 368.969Z" fill="#AEB8BD"/>
<path d="M307.913 368.806L282.671 352.885L282.158 353.698L307.4 369.62L307.913 368.806Z" fill="#AEB8BD"/>
<path d="M307.665 368.734H279.844V369.696H307.665V368.734Z" fill="#AEB8BD"/>
<path d="M307.902 369.624L307.39 368.811L282.958 384.213L283.471 385.027L307.902 369.624Z" fill="#AEB8BD"/>
<path d="M308.061 369.442L307.21 368.992L291.107 399.448L291.957 399.898L308.061 369.442Z" fill="#AEB8BD"/>
<path d="M308.131 369.232H307.169V406.67H308.131V369.232Z" fill="#AEB8BD"/>
<path d="M324.226 399.503L308.099 368.984L307.249 369.434L323.376 399.952L324.226 399.503Z" fill="#AEB8BD"/>
<path d="M332.627 384.398L307.918 368.812L307.405 369.626L332.114 385.211L332.627 384.398Z" fill="#AEB8BD"/>
<path d="M333.995 368.734H307.666V369.696H333.995V368.734Z" fill="#AEB8BD"/>
<path d="M332.158 354.327L331.646 353.514L307.383 368.81L307.895 369.624L332.158 354.327Z" fill="#AEB8BD"/>
<path d="M324.315 338.692L323.465 338.242L307.207 368.992L308.057 369.441L324.315 338.692Z" fill="#AEB8BD"/>
<path d="M307.666 375.168C309.9 375.168 311.711 372.585 311.711 369.399C311.711 366.212 309.9 363.629 307.666 363.629C305.431 363.629 303.62 366.212 303.62 369.399C303.62 372.585 305.431 375.168 307.666 375.168Z" fill="#AEB8BD"/>
<path d="M307.667 363.596C309.889 363.596 311.679 366.182 311.679 369.365C311.679 372.549 309.889 375.135 307.634 375.135C305.412 375.135 303.588 372.549 303.588 369.365C303.621 366.182 305.445 363.596 307.667 363.596ZM307.667 362.004C304.517 362.004 302.03 365.254 302.03 369.398C302.03 373.543 304.517 376.793 307.667 376.793C310.817 376.793 313.304 373.543 313.304 369.398C313.304 365.254 310.817 362.004 307.667 362.004Z" fill="#59595B"/>
<path d="M307.5 264.58H247.713V281.923H307.5V264.58Z" fill="#446072"/>
<path d="M301.102 321.316H357.639V350.895H300.737L301.102 321.316Z" fill="#446072"/>
<path d="M309.922 369.696H305.114V264.58C305.114 263.154 304.716 262.093 303.953 261.363C302.528 260.004 299.908 259.871 299.013 259.938H298.847H288.567V255.129H298.747C299.61 255.063 304.119 254.964 307.203 257.849C308.994 259.507 309.922 261.828 309.922 264.613V369.696Z" fill="#AEB8BD"/>
<path d="M277.724 261.065H293.243C294.37 261.065 295.298 260.136 295.298 259.009V256.025C295.298 254.897 294.37 253.969 293.243 253.969H277.724C276.596 253.969 275.668 254.897 275.668 256.025V259.009C275.668 260.136 276.596 261.065 277.724 261.065Z" fill="#446072"/>
<path d="M360.057 402.027H355.249V318.597C355.249 313.557 353.491 309.81 350.01 307.389C347.755 305.831 345.467 305.333 344.936 305.234H307.665V300.426H345.268L345.434 300.459C345.6 300.492 349.181 300.956 352.762 303.443C356.111 305.764 360.057 310.241 360.057 318.597V402.027Z" fill="#AEB8BD"/>
<path d="M357.641 349.535H299.147V354.343H357.641V349.535Z" fill="#AEB8BD"/>
<path d="M360.226 384.186H355.086V400.268H360.226V384.186Z" fill="#464647"/>
<path d="M350.41 412.77C355.996 412.77 360.524 408.242 360.524 402.657C360.524 397.071 355.996 392.543 350.41 392.543C344.824 392.543 340.296 397.071 340.296 402.657C340.296 408.242 344.824 412.77 350.41 412.77Z" fill="#AEB8BD"/>
<path d="M350.443 397.351C353.361 397.351 355.716 399.739 355.716 402.657C355.716 405.575 353.328 407.962 350.41 407.962C347.492 407.962 345.105 405.575 345.105 402.657C345.105 399.739 347.492 397.351 350.41 397.351H350.443ZM350.41 392.543C344.806 392.543 340.296 397.086 340.296 402.657C340.296 408.261 344.839 412.77 350.41 412.77C356.014 412.77 360.524 408.227 360.524 402.657C360.524 397.053 356.014 392.543 350.41 392.543Z" fill="#59595B"/>
<path d="M355.95 393.869L349.152 400.667C348.455 401.131 348.024 401.927 348.024 402.789C348.024 404.215 349.185 405.375 350.611 405.375C351.539 405.375 352.335 404.878 352.799 404.149L359.531 397.417L355.95 393.869Z" fill="#464647"/>
<path d="M385.461 405.077H361.553L355.783 371.718H300.108V366.877H359.828L365.631 400.235H385.461V405.077Z" fill="#AEB8BD"/>
<path d="M367.157 405.708H384.101C385.262 405.708 386.224 404.746 386.224 403.585V400.767C386.224 399.606 385.262 398.645 384.101 398.645H367.157C365.996 398.645 365.035 399.606 365.035 400.767V403.585C365.035 404.746 365.996 405.708 367.157 405.708Z" fill="#446072"/>
<path d="M355.083 349.335L350.806 344.992C349.579 343.731 347.888 343.035 346.097 343.035H300.735V349.468L355.083 349.335Z" fill="#5E859E"/>
<path d="M314.9 325.66L332.242 347.844L329.689 393.803H319.708L316.823 352.022L291.423 343.334L314.9 325.66Z" fill="#9E6652"/>
<path d="M333.533 325.66L356.048 338.526L372.429 391.88L363.443 396.058L342.552 347.844L323.884 342.373L312.643 331.762L333.533 325.66Z" fill="#9E6652"/>
<path d="M276.408 252.276C279.293 252.541 282.178 252.84 285.063 253.105C285.527 253.138 285.594 246.241 285.892 245.71C286.257 244.981 287.616 244.782 288.28 244.285C289.208 243.655 290.004 242.792 290.634 241.864C293.419 237.719 292.59 232.911 292.623 228.169C292.623 226.909 292.657 225.616 292.226 224.455C291.463 222.399 289.573 221.172 287.683 220.377C282.875 218.387 277.271 218.453 272.794 221.239C271.6 221.968 270.473 222.93 269.81 224.223C268.749 226.246 268.981 228.567 268.914 230.755C268.848 233.176 269.279 235.763 270.075 238.084C270.871 240.405 272.23 242.627 274.22 244.052C277.005 246.042 275.646 249.258 276.408 252.276Z" fill="#EACDB0"/>
<path d="M270.599 233.112C270.367 232.714 270.135 232.316 270.002 231.885C269.604 230.26 271.461 230.061 271.826 228.668C272.091 227.674 271.959 226.082 273.119 225.651C274.114 225.253 275.142 226.182 276.203 226.082C277.264 225.983 277.894 224.921 278.557 224.059C279.221 223.197 280.414 222.468 281.276 223.131C281.542 223.33 281.707 223.628 281.973 223.827C282.636 224.291 283.498 223.894 284.261 223.661C285.786 223.23 287.743 223.927 288.14 225.452C288.207 225.717 288.24 225.983 288.339 226.248C288.704 227.01 289.732 227.11 290.561 227.176C291.39 227.243 292.451 227.574 292.517 228.436C292.617 229.299 291.589 230.028 291.821 230.857C291.921 231.255 292.285 231.52 292.517 231.819C292.949 232.382 293.081 233.178 292.783 233.841C292.584 234.306 292.252 234.67 292.12 235.168C291.821 236.361 293.181 237.423 294.374 237.224C295.568 237.025 296.463 235.997 297.027 234.936C297.491 234.073 297.856 233.079 297.624 232.15C297.525 231.686 297.259 231.255 297.16 230.791C297.027 230.061 297.292 229.332 297.525 228.635C297.956 227.408 298.287 226.016 298.022 224.722C297.889 224.092 297.823 223.628 297.757 223.098C297.69 222.567 297.79 222.136 297.392 221.672C296.928 221.075 296.265 220.611 296.099 219.881C295.9 218.853 296.828 217.925 296.795 216.897C296.762 216.399 296.53 215.968 296.265 215.57C295.402 214.377 294.043 213.548 292.617 213.349C291.954 213.249 291.257 213.249 290.661 212.951C289.566 212.387 289.268 210.961 288.339 210.132C287.444 209.336 286.118 209.27 284.924 209.37C283.73 209.502 282.503 209.768 281.343 209.502C279.618 209.104 278.126 207.612 276.369 207.811C273.948 208.076 272.92 211.26 270.665 212.188C269.173 212.785 267.349 212.321 266.056 213.282C264.199 214.642 264.63 217.991 263.868 219.981C262.807 222.799 262.243 224.955 263.503 227.906C263.868 228.768 264.332 229.663 264.133 230.559C264.067 230.956 263.868 231.321 263.735 231.719C263.337 233.079 264 234.538 264.929 235.632C265.857 236.726 267.051 237.522 267.946 238.616C268.377 239.147 268.742 239.711 269.273 240.109C269.803 240.506 270.566 240.739 271.13 240.407C270.864 239.976 270.864 239.379 271.13 238.948C271.362 238.616 271.76 238.384 271.925 237.986C272.025 237.754 272.025 237.456 272.025 237.19C271.959 235.997 271.594 234.803 270.997 233.775C270.897 233.576 270.732 233.344 270.599 233.112Z" fill="#E4E4E4"/>
<path d="M270.901 208.175C270.337 207.645 269.541 207.28 268.811 207.479C268.513 207.578 268.215 207.744 267.916 207.844C266.888 208.142 265.86 207.379 264.832 207.114C263.705 206.816 262.412 207.147 261.55 207.943C260.953 208.474 260.588 209.435 261.019 210.099C261.152 210.264 261.317 210.43 261.417 210.596C261.881 211.259 261.45 212.221 260.82 212.751C260.19 213.282 259.394 213.547 258.764 214.011C257.57 214.94 257.073 216.697 257.604 218.123C258.134 219.549 259.659 220.544 261.152 220.444C261.881 220.378 262.644 220.113 263.34 220.345C263.705 220.477 264.036 220.743 264.368 220.942C265.595 221.638 267.153 221.34 268.347 220.544C269.508 219.781 270.337 218.587 271.099 217.394C271.398 216.929 271.696 216.399 271.564 215.868C271.166 214.111 269.541 214.343 271.066 212.552C272.326 211.127 272.393 209.502 270.901 208.175Z" fill="#E4E4E4"/>
<path d="M335.589 320.156C322.723 310.705 312.012 294.357 305.513 279.933C304.353 277.38 294.935 249.824 290.459 249.824L271.458 250.09C271.458 250.09 252.358 278.54 259.654 316.143C261.975 328.18 264.13 338.161 266.02 346.153C273.813 365.916 291.951 349.17 300.572 342.505C305.613 338.625 318.313 335.243 327.564 331.629C336.086 328.246 341.69 324.632 335.589 320.156Z" fill="#C69C6D"/>
<path d="M371.037 392.543L381.117 395.096V398.644H365.035L364.471 395.594L371.037 392.543Z" fill="#3A3029"/>
<path d="M328.393 393.869L333.864 396.058V398.644H319.805L319.705 393.803L328.393 393.869Z" fill="#3A3029"/>
<path d="M291.817 250.455L300.77 255.893C300.77 255.893 327.464 287.063 327.762 288.025C328.094 288.986 330.349 300.891 330.017 300.559C329.686 300.228 319.738 297.674 319.738 297.674L299.477 278.707L291.817 250.455Z" fill="#C69C6D"/>
<path d="M327.764 288.057L320.668 290.643L311.682 307.355L315.86 311.202L330.019 300.591L327.764 288.057Z" fill="#D1A573"/>
<path d="M345.102 262.589C339.067 259.041 329.417 258.809 324.775 263.617C325.604 256.986 317.646 248.828 311.08 246.374C293.771 239.842 278.683 256.853 279.38 273.499C279.744 282.452 282.231 291.306 285.514 299.761C288.266 306.824 296.357 322.94 296.39 322.94C296.424 323.006 314.031 319.193 321.26 316.905C329.882 314.153 338.337 310.538 345.533 305.199C358.962 295.285 361.052 272.007 345.102 262.589Z" fill="#B22759"/>
<g opacity="0.12">
<path d="M341.524 305.299C334.825 308.648 327.63 311.334 320.368 313.124C313.338 314.849 305.711 315.645 298.615 313.754C295.2 312.826 292.182 311.301 289.629 309.212C292.845 316.109 296.493 323.304 296.526 323.304C296.559 323.371 314.167 319.557 321.396 317.269C330.017 314.517 338.473 310.903 345.668 305.564C347.99 303.84 349.979 301.718 351.604 299.33C348.421 301.585 345.038 303.541 341.524 305.299Z" fill="black"/>
</g>
<path d="M343.909 299.562C339.499 297.606 335.089 295.616 330.679 293.66C332.005 286.829 333.332 279.998 334.691 273.167C334.89 272.172 333.63 271.642 332.967 272.338C324.544 281.291 316.089 290.244 307.666 299.231C307.169 299.761 306.704 300.259 306.207 300.789C307.235 292.731 308.296 284.674 309.324 276.616C309.49 275.323 309.656 274.029 309.821 272.736C309.921 271.94 308.992 271.178 308.296 271.741C305.013 274.328 301.731 276.914 298.448 279.501C293.573 277.18 288.699 274.825 283.824 272.504C282.664 271.94 281.835 273.731 282.962 274.295C288.036 276.715 293.076 279.136 298.149 281.557C298.448 281.689 298.846 281.689 299.144 281.49C301.963 279.269 304.781 277.047 307.6 274.858C306.539 283.115 305.478 291.405 304.383 299.662C304.217 300.955 304.052 302.248 303.886 303.541C303.753 304.503 304.914 305.1 305.61 304.37C314.033 295.417 322.488 286.464 330.911 277.478C331.309 277.047 331.707 276.616 332.138 276.185C330.977 282.154 329.817 288.122 328.656 294.091C328.59 294.522 328.822 294.986 329.187 295.152C333.829 297.208 338.471 299.297 343.114 301.353C344.208 301.85 345.07 300.093 343.909 299.562Z" fill="white"/>
<path d="M337.713 310.573L331.943 305.135L326.803 305.964L326.638 309.412L331.413 311.8L333.866 313.126L337.713 310.573Z" fill="#EACDB0"/>
<path d="M291.052 294.291L296.789 296.679L300.437 304.836L296.491 305.731L290.456 300.293L291.052 294.291Z" fill="#EACDB0"/>
<path d="M270.065 252.378L248.677 292.567L255.74 300.592H290.789L291.751 294.159L266.682 287.096L278.255 268.46L271.491 250.123L270.065 252.378Z" fill="#D1A573"/>
<path d="M298.845 321.316H249.006V350.895H298.845V321.316Z" fill="#446072"/>
<path d="M251.096 369.397H246.288V264.613C246.288 263.187 245.89 262.126 245.128 261.397C243.702 260.037 241.082 259.904 240.187 259.971H240.021H229.742V255.163H239.955C240.817 255.096 245.327 254.997 248.411 257.882C250.201 259.54 251.13 261.861 251.13 264.646V369.397H251.096Z" fill="#AEB8BD"/>
<path d="M218.899 261.065H234.417C235.545 261.065 236.473 260.136 236.473 259.009V256.025C236.473 254.897 235.545 253.969 234.417 253.969H218.899C217.771 253.969 216.843 254.897 216.843 256.025V259.009C216.843 260.136 217.771 261.065 218.899 261.065Z" fill="#446072"/>
<path d="M301.235 402.027H296.427V318.597C296.427 313.557 294.669 309.81 291.187 307.389C288.933 305.831 286.645 305.333 286.114 305.234H248.843V300.426H286.446L286.611 300.459C286.777 300.492 290.358 300.956 293.94 303.443C297.289 305.764 301.235 310.241 301.235 318.597V402.027Z" fill="#AEB8BD"/>
<path d="M298.845 349.535H249.006V354.343H298.845V349.535Z" fill="#AEB8BD"/>
<path d="M335.322 405.077H311.414L305.644 371.718H249.969V366.877H309.69L315.459 400.235H335.322V405.077Z" fill="#AEB8BD"/>
<path d="M301.399 384.186H296.259V400.268H301.399V384.186Z" fill="#464647"/>
<path d="M291.586 412.77C297.172 412.77 301.7 408.242 301.7 402.657C301.7 397.071 297.172 392.543 291.586 392.543C286.001 392.543 281.473 397.071 281.473 402.657C281.473 408.242 286.001 412.77 291.586 412.77Z" fill="#AEB8BD"/>
<path d="M291.421 397.351C294.339 397.351 296.892 399.739 296.892 402.657C296.892 405.575 294.504 407.962 291.586 407.962C288.668 407.962 286.281 405.575 286.281 402.657C286.281 399.739 288.668 397.351 291.586 397.351H291.421ZM291.586 392.543C285.982 392.543 281.473 397.086 281.473 402.657C281.473 408.261 286.016 412.77 291.586 412.77C297.19 412.77 301.7 408.227 301.7 402.657C301.7 397.053 297.19 392.543 291.586 392.543Z" fill="#59595B"/>
<path d="M297.123 393.869L290.325 400.667C289.629 401.131 289.198 401.927 289.198 402.789C289.198 404.215 290.358 405.375 291.784 405.375C292.713 405.375 293.508 404.878 293.973 404.149L300.704 397.417L297.123 393.869Z" fill="#464647"/>
<path d="M317.017 405.708H333.961C335.122 405.708 336.083 404.746 336.083 403.585V400.767C336.083 399.606 335.122 398.645 333.961 398.645H317.017C315.856 398.645 314.895 399.606 314.895 400.767V403.585C314.895 404.746 315.856 405.708 317.017 405.708Z" fill="#446072"/>
<path d="M248.979 329.54C265.757 329.54 279.187 347.38 279.187 369.398C279.187 391.415 265.592 409.255 248.813 409.255C232.034 409.255 218.439 391.415 218.439 369.398C218.439 347.38 232.034 329.54 248.813 329.54H248.979ZM248.846 325.66C244.071 325.66 239.462 326.887 235.151 329.275C231.073 331.529 227.425 334.779 224.308 338.858C218.074 347.048 214.625 357.891 214.625 369.364C214.625 380.838 218.074 391.681 224.308 399.871C227.425 403.95 231.073 407.166 235.151 409.454C239.462 411.842 244.071 413.069 248.846 413.069C253.621 413.069 258.23 411.842 262.541 409.454C266.62 407.199 270.267 403.95 273.384 399.871C279.618 391.681 283.067 380.838 283.067 369.364C283.067 357.891 279.618 347.048 273.384 338.858C270.267 334.779 266.62 331.563 262.541 329.275C258.197 326.887 253.588 325.66 248.846 325.66Z" fill="#59595B"/>
<path d="M248.977 332.756C256.074 332.756 262.639 336.436 267.746 343.168C273.051 350.131 275.969 359.449 275.969 369.397C275.969 379.345 273.051 388.662 267.746 395.626C262.639 402.324 255.908 406.038 248.812 406.038C241.716 406.038 235.017 402.357 229.878 395.626C224.572 388.662 221.654 379.345 221.654 369.397C221.654 359.449 224.572 350.131 229.878 343.168C234.984 336.469 241.716 332.756 248.812 332.756H248.977ZM248.845 329.539C232.066 329.539 218.471 347.379 218.471 369.397C218.471 391.415 232.066 409.255 248.845 409.255C265.624 409.255 279.219 391.415 279.219 369.397C279.219 347.379 265.624 329.539 248.845 329.539Z" fill="#AEB8BD"/>
<path d="M249.311 331.762H248.349V369.199H249.311V331.762Z" fill="#AEB8BD"/>
<path d="M249.272 368.98L231.962 339L231.13 339.481L248.439 369.46L249.272 368.98Z" fill="#AEB8BD"/>
<path d="M249.075 368.79L221.507 352.873L221.027 353.706L248.594 369.622L249.075 368.79Z" fill="#AEB8BD"/>
<path d="M248.845 368.734H218.471V369.696H248.845V368.734Z" fill="#AEB8BD"/>
<path d="M249.067 369.659L248.586 368.826L221.909 384.232L222.39 385.065L249.067 369.659Z" fill="#AEB8BD"/>
<path d="M249.241 369.485L248.408 369.004L230.814 399.472L231.646 399.953L249.241 369.485Z" fill="#AEB8BD"/>
<path d="M249.311 369.232H248.349V406.67H249.311V369.232Z" fill="#AEB8BD"/>
<path d="M266.877 399.463L249.27 368.967L248.437 369.448L266.044 399.944L266.877 399.463Z" fill="#AEB8BD"/>
<path d="M276.069 384.38L249.076 368.795L248.595 369.628L275.589 385.213L276.069 384.38Z" fill="#AEB8BD"/>
<path d="M277.628 368.734H248.846V369.696H277.628V368.734Z" fill="#AEB8BD"/>
<path d="M275.579 354.36L275.098 353.527L248.593 368.834L249.074 369.666L275.579 354.36Z" fill="#AEB8BD"/>
<path d="M266.997 338.735L266.164 338.254L248.404 369.009L249.236 369.49L266.997 338.735Z" fill="#AEB8BD"/>
<path d="M248.842 375.168C251.278 375.168 253.252 372.585 253.252 369.399C253.252 366.212 251.278 363.629 248.842 363.629C246.406 363.629 244.432 366.212 244.432 369.399C244.432 372.585 246.406 375.168 248.842 375.168Z" fill="#AEB8BD"/>
<path d="M248.973 363.596C251.394 363.596 253.217 366.182 253.217 369.365C253.217 372.549 251.228 375.135 248.807 375.135C246.386 375.135 244.397 372.549 244.397 369.365C244.397 366.182 246.386 363.596 248.807 363.596H248.973ZM248.84 362.004C245.524 362.004 242.838 365.32 242.838 369.398C242.838 373.477 245.524 376.793 248.84 376.793C252.156 376.793 254.842 373.477 254.842 369.398C254.842 365.32 252.156 362.004 248.84 362.004Z" fill="#59595B"/>
<path d="M154.266 398.213L154.101 402.855L163.385 407.796L168.26 403.286L163.684 398.478L154.432 393.537L154.266 398.213Z" fill="#3A3029"/>
<path d="M167.964 282.785L150.224 285.968L160.835 333.188L153.838 396.688L163.123 398.81L187.462 322.146L187.528 299.265L185.704 285.703L167.964 282.785Z" fill="#59595B"/>
<path d="M212.56 260.467L213.157 319.923L201.684 396.521H192.963L187.558 325.792L175.753 255.062L212.56 260.467Z" fill="#59595B"/>
<path d="M193.032 395.494L192.999 400.136L202.416 404.812L207.158 400.17L202.449 395.494H193.032Z" fill="#3A3029"/>
<path d="M144.616 287.923C144.749 290.576 148.496 307.753 147.7 308.217C151.646 306.824 155.692 305.597 159.737 304.536C170.414 301.751 181.39 300.126 192.432 299.695C197.439 299.496 202.679 299.164 207.619 300.059C210.04 300.491 212.428 301.187 214.782 301.784C215.379 301.95 221.712 303.077 221.712 303.176C220.585 295.583 220.916 287.956 220.386 280.263C219.855 272.504 218.894 264.778 217.501 257.118C215.312 245.114 209.277 235.166 204.436 224.058C202.049 218.52 199.794 212.916 196.71 207.71C194.289 203.665 190.045 197.762 185.303 196.237C183.711 195.706 181.987 195.773 180.296 195.839C175.189 196.038 170.083 196.237 164.976 196.436C163.119 196.502 161.196 196.602 159.538 197.464C157.084 198.79 155.824 201.543 154.73 204.129C149.856 215.669 147.07 227.938 145.91 240.439C145.313 246.971 144.749 253.537 144.451 260.102C144.086 267.431 144.02 274.759 144.384 282.087C144.484 282.883 144.517 285.171 144.616 287.923Z" fill="#BBC9C9"/>
<path d="M175.227 227.44C175.625 230.723 175.459 234.039 175.26 237.355C174.1 257.45 169.026 282.087 167.866 302.149C180.732 299.761 196.681 299.496 214.024 301.585C213.029 294.157 210.807 279.567 209.813 272.139C209.183 267.364 208.519 262.59 207.326 257.947C205.402 250.486 202.053 243.523 198.737 236.659C192.603 223.959 186.468 211.292 180.334 198.592C180.002 197.928 179.671 197.199 179.107 196.735C178.444 196.171 177.581 196.038 176.753 195.939C172.773 195.441 168.33 195.077 164.45 196.005C163.754 200.15 167.833 207.014 169.457 210.728C171.779 216.1 174.464 221.439 175.227 227.44Z" fill="#FFFFF1"/>
<path d="M188.953 170.041C189.782 172.628 189.881 175.446 189.417 178.132C189.285 178.862 189.185 179.691 189.649 180.221C190.18 180.785 189.417 181.68 190.014 181.183C190.611 180.685 192.634 178.928 192.866 178.198C193.396 176.474 193.761 174.684 193.96 172.86C194.126 171.301 194.159 169.61 193.396 168.217C192.932 167.388 192.236 166.725 191.573 166.095C190.578 165.167 189.55 164.238 188.29 163.708C186.134 162.812 184.576 163.343 186.234 165.333C187.428 166.725 188.356 168.251 188.953 170.041Z" fill="#E4E4E4"/>
<path d="M168.594 197.365C171.645 198.294 174.696 199.255 177.713 200.184C178.741 197.597 179.603 194.944 180.233 192.225C183.019 192.325 186.401 192.126 187.926 189.473C188.39 188.644 188.623 187.683 188.821 186.721C189.684 182.808 190.513 178.895 191.375 174.982C191.673 173.623 191.972 172.23 191.773 170.871C191.408 168.483 189.617 166.726 187.76 165.499C183.019 162.316 176.95 161.122 171.545 163.145C170.119 163.675 168.694 164.471 167.666 165.698C166.074 167.621 165.676 170.307 165.311 172.827C164.98 175.148 164.681 177.503 164.35 179.824C163.985 182.51 163.753 185.627 165.51 187.45C166.439 188.412 167.831 188.843 168.561 190.004C169.854 192.026 168.495 194.878 168.594 197.365Z" fill="#EACDB0"/>
<path d="M190.113 185.361C190.212 184.631 190.345 182.41 188.985 183.537C188.62 183.835 188.455 184.3 188.322 184.764C188.222 185.228 188.123 185.726 187.891 186.123C187.327 187.052 186.133 187.284 185.139 187.052C184.741 186.952 184.343 186.82 184.044 186.554C183.746 186.289 183.547 185.924 183.348 185.56C182.851 184.698 182.386 183.835 181.889 182.973C181.06 181.481 178.772 181.581 177.247 181.448C175.489 181.315 173.699 181.481 172.074 182.31C171.908 182.41 171.742 182.476 171.576 182.575C171.178 182.807 170.781 183.006 170.349 183.106C168.89 183.471 167.398 182.476 166.735 181.083C166.437 180.453 166.171 179.657 165.541 179.425C165.044 179.259 164.48 179.525 164.115 179.923C163.751 180.354 163.552 180.917 163.419 181.448C162.855 183.437 162.723 185.593 163.22 187.582C164.314 191.893 167.896 193.12 171.61 193.816C173.069 194.082 174.561 194.347 176.02 194.645C178.706 195.143 181.557 195.607 184.144 194.546C186.432 193.584 188.09 191.495 189.085 189.174C189.582 187.947 189.914 186.654 190.113 185.361ZM179.17 188.843C177.578 189.506 175.987 189.207 174.528 188.411C173.898 188.08 174.428 187.019 175.058 187.35C176.285 188.014 177.512 188.246 178.838 187.715C179.501 187.45 179.833 188.577 179.17 188.843Z" fill="#E4E4E4"/>
<path d="M195.085 164.206C195.549 163.31 195.947 162.382 196.246 161.42C195.284 161.553 194.256 161.42 193.361 161.056C193.46 160.492 193.593 159.928 193.692 159.364C193.792 158.9 187.492 157.242 186.994 157.076C182.252 155.684 177.908 154.357 173.001 156.049C168.823 157.474 165.739 160.293 164.247 164.471C162.854 168.483 163.053 174.12 164.744 178.033C164.943 176.939 164.877 174.22 165.341 173.225C165.706 172.23 166.303 171.302 166.966 170.473C168.358 168.815 170.215 167.588 172.205 166.859C175.421 165.665 178.903 165.433 182.285 165.665C185.369 165.864 189.149 166.262 191.935 167.688C193.294 168.384 193.46 168.782 194.621 167.522C194.82 167.29 196.644 164.571 196.544 164.537C196.113 164.438 195.616 164.338 195.085 164.206Z" fill="#E4E4E4"/>
<path d="M158.448 198.262L164.45 200.318L183.085 244.983L216.676 253.108L216.543 262.658H179.869L167.036 256.225L149.13 221.308L151.285 207.049L158.448 198.262Z" fill="#C4D3D3"/>
<path d="M216.642 255.063L223.937 249.791L229.076 252.046L229.706 253.969L226.921 254.102L225.528 258.18L230.668 261.065L228.115 262.988H220.389L216.642 261.596V255.063Z" fill="#EACDB0"/>
<path d="M251.789 198.062H255.437L258.421 201.71L257.426 213.979L253.447 214.675L251.789 212.321L249.8 199.389L251.789 198.062Z" fill="#DBC0A5"/>
<path d="M243.566 211.492L245.821 203.699L252.121 199.389L253.447 202.705L250.795 205.357V210.663L248.507 215.869L243.566 211.492Z" fill="#EACDB0"/>
</svg>
