<svg width="719" height="410" viewBox="0 0 719 410" fill="none" xmlns="http://www.w3.org/2000/svg">
<path d="M37.0416 408.733C37.0416 408.733 -43.1953 331.953 38.1938 220.773C110.899 121.426 56.6019 73.9583 131.218 25.5632C206.649 -23.3658 270.839 6.42443 343.038 44.2524C415.237 82.0803 514.95 -8.47068 622.7 39.6714C730.423 87.8136 714.938 161.39 688.295 237.046C665.812 300.898 734.217 347.045 696.895 408.845C696.895 408.845 34.7371 406.428 37.0416 408.733Z" fill="#EBF3FA"/>
<path opacity="0.4" d="M450.619 129.998C450.619 129.998 461.973 82.3619 499.914 77.2188C499.914 77.2188 507.305 76.3195 509.722 84.4697C512.167 92.5917 497.497 92.6198 488.419 95.8799C479.37 99.1119 458.179 112.911 450.619 129.998Z" fill="#CDDFF9"/>
<path opacity="0.4" d="M451.322 139.019C451.322 139.019 473.075 95.1482 511.212 98.6612C511.212 98.6612 518.603 99.4481 519.165 107.936C519.727 116.395 505.422 113.135 495.839 114.259C486.256 115.355 462.508 124.067 451.322 139.019Z" fill="#CDDFF9"/>
<path d="M565.816 321.695C565.816 321.695 577.17 274.059 615.111 268.916C615.111 268.916 622.502 268.017 624.919 276.167C627.364 284.289 612.694 284.317 603.616 287.577C594.567 290.809 573.376 304.636 565.816 321.695Z" fill="#CDDFF9"/>
<path d="M567.055 306.07C567.055 306.07 560.816 257.506 594.484 239.267C594.484 239.267 601.061 235.81 606.232 242.555C611.403 249.3 597.66 254.499 590.325 260.766C582.99 267.033 568.067 287.437 567.055 306.07Z" fill="#DFEBFD"/>
<path d="M680.931 316.131C676.66 297.948 646.026 302.557 646.026 302.557C646.026 302.557 624.302 333.387 618.26 333.921C612.217 334.455 631.693 303.962 631.693 303.962C620.086 302.444 589.931 315.709 589.931 315.709C589.931 315.709 590.577 352.554 584.591 351.598C578.605 350.643 585.687 318.97 585.687 318.97C574.305 321.977 563.344 334.736 563.344 334.736C549.489 355.673 577.115 372.395 577.115 372.395C577.115 372.395 577.059 385.154 568.684 399.544C568.684 399.544 566.801 402.185 564.862 406.71L567.925 406.823C568.206 406.008 568.515 405.221 568.853 404.462C568.853 404.462 568.853 404.434 568.881 404.434C569.106 403.956 569.443 403.31 569.836 402.495C570.848 400.696 571.523 399.347 571.944 398.391C574.951 392.714 579.251 385.351 582.005 383.862C582.005 383.862 581.668 383.384 581.387 382.428C581.584 382.878 581.781 383.356 582.005 383.862C586.895 395.3 613.116 398.054 627.871 395.553C642.626 393.052 636.387 388.695 628.714 381.726C621.042 374.756 604.46 375.964 599.655 373.182C594.849 370.4 602.072 368.011 611.824 369.079C621.576 370.147 626.129 380.068 641.839 382.119C657.549 384.171 670.589 354.914 670.589 354.914C659.572 357.922 640.237 351.261 639.619 347.495C639 343.729 667.919 345.078 672.444 344.094C676.969 343.111 685.203 334.286 680.931 316.131Z" fill="#DFEBFD"/>
<path d="M117.924 156.219C122.196 138.036 152.829 142.645 152.829 142.645C152.829 142.645 174.554 173.475 180.596 174.009C186.638 174.543 167.162 144.05 167.162 144.05C178.769 142.532 208.925 155.797 208.925 155.797C208.925 155.797 208.278 192.642 214.265 191.686C220.251 190.731 213.169 159.057 213.169 159.057C224.551 162.065 235.511 174.824 235.511 174.824C249.366 195.761 221.74 212.483 221.74 212.483C221.74 212.483 221.796 225.242 230.171 239.631C230.171 239.631 232.054 242.273 233.994 246.798L230.93 246.91C230.649 246.095 230.34 245.308 230.003 244.55C230.003 244.55 230.003 244.522 229.975 244.522C229.75 244.044 229.413 243.397 229.019 242.582C228.007 240.784 227.333 239.435 226.911 238.479C223.904 232.802 219.604 225.439 216.85 223.949C216.85 223.949 217.187 223.472 217.468 222.516C217.272 222.966 217.075 223.444 216.85 223.949C211.96 235.388 185.739 238.142 170.984 235.641C156.23 233.139 162.469 228.783 170.141 221.814C177.814 214.844 194.395 216.052 199.201 213.27C204.007 210.488 196.784 208.099 187.032 209.167C177.28 210.235 172.727 220.155 157.017 222.207C141.279 224.231 128.266 195.002 128.266 195.002C139.283 198.009 158.619 191.349 159.237 187.583C159.855 183.817 130.936 185.166 126.412 184.182C121.831 183.142 113.652 174.402 117.924 156.219Z" fill="#DFEBFD"/>
<path d="M304.113 67.3816C313.107 50.1539 342.784 62.6883 342.784 62.6883C342.784 62.6883 356.752 99.3359 362.682 101.444C368.612 103.551 356.865 67.7751 356.865 67.7751C368.949 69.2365 395.957 90.3707 395.957 90.3707C395.957 90.3707 385.84 127.327 392.107 127.918C398.374 128.508 399.386 94.7268 399.386 94.7268C410.093 100.685 417.85 116.367 417.85 116.367C426.45 141.042 394.271 150.766 394.271 150.766C394.271 150.766 391.039 163.666 395.789 180.303C395.789 180.303 396.997 183.451 397.812 188.51L394.692 187.835C394.608 186.936 394.524 186.065 394.383 185.222C394.383 185.222 394.383 185.222 394.383 185.194V185.165C394.271 184.631 394.13 183.873 393.906 182.973C393.372 180.894 393.006 179.376 392.838 178.28C391.264 171.788 388.819 163.244 386.43 161.052C386.43 161.052 386.88 160.631 387.414 159.759C387.104 160.181 386.767 160.603 386.43 161.052C378.561 171.31 351.412 167.347 337.192 161.024C322.971 154.701 330.391 151.918 339.89 146.888C349.417 141.829 365.83 147.337 371.366 145.736C376.931 144.162 370.242 139.89 360.153 138.485C350.063 137.079 342.897 145.904 326.54 143.881C310.184 141.857 304.563 109.088 304.563 109.088C314.877 114.962 336.096 113.219 337.698 109.566C339.3 105.912 309.818 99.8417 305.462 97.6777C301.134 95.5418 295.12 84.6094 304.113 67.3816Z" fill="#DFEBFD"/>
<path d="M564.216 401.51H198.921C193.693 401.51 189.422 397.239 189.422 392.011V150.12C189.422 144.893 193.693 140.621 198.921 140.621H564.188C569.416 140.621 573.687 144.893 573.687 150.12V392.011C573.687 397.239 569.416 401.51 564.216 401.51Z" fill="#2B478B"/>
<path d="M565.032 149.756H198.106V398.87H565.032V149.756Z" fill="#DDE7FE"/>
<path d="M612.555 408.086H150.582C146.816 408.086 143.753 405.023 143.753 401.257V398.222C143.753 394.456 146.816 391.393 150.582 391.393H612.555C616.321 391.393 619.385 394.456 619.385 398.222V401.257C619.385 405.023 616.321 408.086 612.555 408.086Z" fill="#2B478B"/>
<path d="M565.032 149.756H198.106V392.237H565.032V149.756Z" fill="#AEC3FF"/>
<path d="M521.864 121.482H284.554V374.193H521.864V121.482Z" fill="#CFDEFF"/>
<path d="M454.61 331.645H409.391C409.363 331.645 409.335 331.617 409.335 331.588V328.806C409.335 328.778 409.363 328.75 409.391 328.75H454.61C454.638 328.75 454.666 328.778 454.666 328.806V331.588C454.666 331.617 454.638 331.645 454.61 331.645Z" fill="#2B478B"/>
<path d="M465.852 324.983H409.391C409.363 324.983 409.335 324.955 409.335 324.927V322.117C409.335 322.089 409.363 322.061 409.391 322.061H465.852C465.88 322.061 465.908 322.089 465.908 322.117V324.927C465.908 324.955 465.88 324.983 465.852 324.983Z" fill="#2B478B"/>
<path d="M501.264 164.174H305.126V302.164H501.264V164.174Z" fill="#AEC3FF"/>
<path d="M351.442 156.359H351.133V302.135H351.442V156.359Z" fill="#1F1F89"/>
<path d="M474.255 156.359H473.946V302.135H474.255V156.359Z" fill="#1F1F89"/>
<path d="M372.294 156.359H371.985V302.135H372.294V156.359Z" fill="#1F1F89"/>
<path d="M501.263 276.336H305.125V276.645H501.263V276.336Z" fill="#1F1F89"/>
<path d="M501.263 247.445H305.125V247.754H501.263V247.445Z" fill="#1F1F89"/>
<path d="M501.263 218.582H305.125V218.891H501.263V218.582Z" fill="#1F1F89"/>
<path d="M501.263 189.691H305.125V190.001H501.263V189.691Z" fill="#1F1F89"/>
<path d="M501.264 139.217H305.126V167.208H501.264V139.217Z" fill="#F78248"/>
<path d="M482.743 350.473C478.331 351.822 474.003 352.524 470.602 352.271C465.431 351.878 462.508 349.292 462.396 345.077C462.312 341.704 463.773 338.781 466.668 336.393C466.64 336.168 466.612 335.943 466.612 335.69C466.415 333.329 466.949 331.755 468.214 330.997C470.237 329.816 473.244 331.446 473.357 331.503L472.682 332.599C472.008 332.233 470.012 331.418 468.916 332.065C467.961 332.627 467.848 334.172 467.933 335.437C470.293 333.835 473.357 332.514 477.123 331.559C479.905 330.856 482.996 330.378 485.779 330.154C485.807 329.844 485.807 329.591 485.863 329.367C485.947 328.776 486.172 328.102 486.762 327.961C486.987 327.905 487.437 327.905 487.83 328.495C488.083 328.861 488.224 329.395 488.224 330.013C489.179 329.985 490.078 330.013 490.865 330.069C490.865 330.041 490.893 330.041 490.893 330.013C490.697 328.524 490.837 326.781 491.09 325.657C491.427 324.196 491.99 323.465 492.748 323.409C493.226 323.38 493.62 323.605 493.788 324.027C494.21 325.011 493.423 327.68 492.242 330.21C493.338 330.378 494.097 330.659 494.322 331.081C494.491 331.39 494.519 331.84 494.041 332.261C493.142 333.048 492.439 332.852 492.102 332.655C491.821 332.486 491.568 332.233 491.399 331.896C490.5 333.554 489.544 334.987 488.786 335.578C488.083 336.14 487.465 335.915 487.24 335.802C487.128 335.746 487.015 335.662 486.903 335.55C486.594 336.252 486.256 336.927 485.891 337.517C484.514 339.821 482.94 341.002 481.366 340.945C480.72 340.917 480.158 340.664 479.68 340.243C478.809 342.013 477.713 343.7 476.645 344.964C475.549 346.257 474.143 346.735 472.682 346.285C470.097 345.526 467.764 342.013 466.893 337.826C464.701 339.849 463.633 342.266 463.689 345.021C463.801 348.646 466.134 350.641 470.659 351.007C482.097 351.906 502.163 341.873 503.681 334.482C502.529 340.496 493.001 347.325 482.743 350.473ZM468.129 336.87C468.832 341.283 471.164 344.515 473.132 345.077C474.059 345.358 474.902 345.049 475.661 344.149C476.954 342.66 478.05 340.805 478.865 338.978C478.64 338.5 478.443 337.966 478.303 337.348C477.994 335.887 477.938 333.919 478.303 332.542C476.167 333.048 474.031 333.723 472.036 334.594C470.546 335.297 469.225 336.027 468.129 336.87ZM480.326 338.922C480.607 339.344 481.001 339.653 481.507 339.681C482.518 339.709 483.727 338.697 484.823 336.899C485.385 335.943 485.863 334.931 486.2 333.976C485.975 333.189 485.863 332.261 485.835 331.418C484.373 331.531 482.771 331.727 481.113 332.008C481.928 333.582 481.451 336.252 480.326 338.922ZM487.577 333.976C487.774 334.566 487.971 334.678 487.971 334.678C488.701 334.088 489.573 332.767 490.331 331.278C489.713 331.25 488.982 331.25 488.224 331.278C488.111 332.121 487.886 333.048 487.577 333.976ZM479.764 332.374C479.427 333.048 479.174 335.156 479.596 337.067C480.27 334.987 480.411 333.189 479.764 332.374ZM492.833 331.559C492.861 331.587 492.861 331.559 492.833 331.559C492.861 331.587 492.861 331.587 492.833 331.559ZM492.636 325.123C492.523 325.432 492.411 325.91 492.327 326.444C492.495 325.938 492.608 325.488 492.636 325.123Z" fill="#F77D48"/>
<path d="M320.415 148.209H322.157V158.186H320.415V148.209Z" fill="#EBF3FA"/>
<path d="M324.827 148.209H326.457L331.797 155.123V148.209H333.511V158.186H332.05L326.541 151.076V158.186H324.827V148.209Z" fill="#EBF3FA"/>
<path d="M335.254 148.209H337.193L340.2 155.881L343.207 148.209H345.118L340.959 158.27H339.413L335.254 148.209Z" fill="#EBF3FA"/>
<path d="M345.736 153.212C345.736 150.402 347.9 148.041 350.964 148.041C354.027 148.041 356.163 150.374 356.163 153.212C356.163 156.023 353.999 158.383 350.936 158.383C347.872 158.383 345.736 156.051 345.736 153.212ZM354.336 153.212C354.336 151.273 352.931 149.671 350.936 149.671C348.94 149.671 347.563 151.245 347.563 153.212C347.563 155.151 348.968 156.753 350.964 156.753C352.959 156.753 354.336 155.179 354.336 153.212Z" fill="#EBF3FA"/>
<path d="M358.412 148.209H360.155V158.186H358.412V148.209Z" fill="#EBF3FA"/>
<path d="M362.402 153.212C362.402 150.374 364.538 148.041 367.545 148.041C369.372 148.041 370.496 148.687 371.452 149.587L370.328 150.88C369.541 150.149 368.67 149.643 367.517 149.643C365.606 149.643 364.229 151.217 364.229 153.184C364.229 155.151 365.606 156.725 367.517 156.725C368.754 156.725 369.541 156.219 370.384 155.432L371.508 156.585C370.468 157.681 369.316 158.355 367.461 158.355C364.566 158.383 362.402 156.107 362.402 153.212Z" fill="#EBF3FA"/>
<path d="M373.363 148.209H380.755V149.783H375.106V152.368H380.108V153.942H375.106V156.612H380.839V158.186H373.363V148.209V148.209Z" fill="#EBF3FA"/>
<path d="M269.573 408.676L169.326 408.058C164.858 408.03 161.26 404.376 161.288 399.908L161.935 294.546C161.963 290.077 165.617 286.48 170.085 286.508L270.332 287.126C274.8 287.154 278.398 290.808 278.37 295.276L277.723 400.638C277.667 405.107 274.042 408.704 269.573 408.676Z" fill="#F77D48"/>
<path d="M268.055 314.724L172.024 314.134C170.056 314.134 168.483 312.532 168.483 310.564L168.567 298.367C168.567 296.4 170.169 294.826 172.136 294.826L268.167 295.416C270.135 295.416 271.709 297.018 271.709 298.986L271.624 311.183C271.624 313.15 270.022 314.752 268.055 314.724Z" fill="#AEC3FF"/>
<path d="M204.146 361.687L195.912 361.631C193.86 361.631 192.202 359.945 192.202 357.893L192.258 349.659C192.258 347.607 193.945 345.949 195.996 345.949L204.231 346.005C206.282 346.005 207.94 347.692 207.94 349.743L207.884 357.978C207.856 360.057 206.198 361.716 204.146 361.687Z" fill="#2B478B"/>
<path d="M204.007 380.91L195.772 380.854C193.721 380.854 192.062 379.168 192.062 377.116L192.119 368.882C192.119 366.83 193.805 365.172 195.857 365.172L204.091 365.228C206.143 365.228 207.801 366.914 207.801 368.966L207.773 377.2C207.745 379.28 206.058 380.91 204.007 380.91Z" fill="#2B478B"/>
<path d="M203.894 400.135L195.659 400.079C193.608 400.079 191.949 398.392 191.949 396.341L192.006 388.106C192.006 386.055 193.692 384.396 195.743 384.396L203.978 384.453C206.03 384.453 207.688 386.139 207.688 388.191L207.631 396.425C207.631 398.477 205.945 400.135 203.894 400.135Z" fill="#2B478B"/>
<path d="M224.831 361.828L216.597 361.772C214.545 361.772 212.887 360.086 212.887 358.034L212.943 349.8C212.943 347.748 214.63 346.09 216.681 346.09L224.916 346.146C226.967 346.146 228.625 347.832 228.625 349.884L228.569 358.118C228.569 360.17 226.883 361.828 224.831 361.828Z" fill="#2B478B"/>
<path d="M224.719 381.051L216.485 380.995C214.433 380.995 212.775 379.308 212.775 377.257L212.831 369.022C212.831 366.971 214.517 365.312 216.569 365.312L224.803 365.369C226.855 365.369 228.513 367.055 228.513 369.107L228.457 377.341C228.457 379.393 226.771 381.051 224.719 381.051Z" fill="#2B478B"/>
<path d="M224.607 400.246L216.372 400.19C214.32 400.19 212.662 398.504 212.662 396.452L212.719 388.218C212.719 386.166 214.405 384.508 216.456 384.508L224.691 384.564C226.742 384.564 228.401 386.25 228.401 388.302L228.344 396.536C228.316 398.616 226.658 400.274 224.607 400.246Z" fill="#2B478B"/>
<path d="M244.673 381.164L236.439 381.108C234.387 381.108 232.729 379.422 232.729 377.37L232.785 369.136C232.785 367.084 234.471 365.426 236.523 365.426L244.757 365.482C246.809 365.482 248.467 367.168 248.467 369.22L248.411 377.454C248.411 379.534 246.725 381.164 244.673 381.164Z" fill="#2B478B"/>
<path d="M244.56 400.387L236.325 400.33C234.274 400.33 232.615 398.644 232.615 396.593L232.672 388.358C232.672 386.307 234.358 384.648 236.41 384.648L244.644 384.705C246.696 384.705 248.354 386.391 248.354 388.442L248.297 396.677C248.269 398.729 246.611 400.387 244.56 400.387Z" fill="#2B478B"/>
<path d="M184.502 339.007L176.268 338.951C174.216 338.951 172.558 337.265 172.558 335.213L172.586 330.323C172.586 328.271 174.272 326.613 176.324 326.613L184.558 326.669C186.61 326.669 188.268 328.356 188.268 330.407L188.24 335.297C188.24 337.349 186.554 339.007 184.502 339.007Z" fill="#F99746"/>
<path d="M184.39 359.158L176.155 359.101C174.103 359.101 172.445 357.415 172.445 355.364L172.473 350.473C172.473 348.422 174.16 346.764 176.211 346.764L184.446 346.82C186.497 346.82 188.155 348.506 188.155 350.558L188.127 355.448C188.099 357.499 186.441 359.158 184.39 359.158Z" fill="#F99746"/>
<path d="M184.249 379.308L176.015 379.252C173.963 379.252 172.305 377.565 172.305 375.514L172.333 370.624C172.333 368.572 174.019 366.914 176.071 366.914L184.305 366.97C186.357 366.97 188.015 368.657 188.015 370.708L187.987 375.598C187.987 377.678 186.301 379.308 184.249 379.308Z" fill="#F99746"/>
<path d="M184.137 399.458L175.902 399.402C173.851 399.402 172.193 397.716 172.193 395.664L172.221 390.774C172.221 388.723 173.907 387.064 175.959 387.064L184.193 387.121C186.245 387.121 187.903 388.807 187.903 390.858L187.875 395.749C187.847 397.828 186.188 399.458 184.137 399.458Z" fill="#F99746"/>
<path d="M204.259 342.463L196.024 342.407C193.973 342.407 192.315 340.72 192.315 338.669L192.371 330.434C192.371 328.383 194.057 326.725 196.109 326.725L204.343 326.781C206.395 326.781 208.053 328.467 208.053 330.519L207.997 338.753C207.997 340.833 206.31 342.491 204.259 342.463Z" fill="#F99746"/>
<path d="M224.944 342.605L216.709 342.549C214.658 342.549 213 340.863 213 338.811L213.056 330.577C213.056 328.525 214.742 326.867 216.794 326.867L225.028 326.923C227.08 326.923 228.738 328.61 228.738 330.661L228.682 338.896C228.682 340.947 226.995 342.605 224.944 342.605Z" fill="#F99746"/>
<path d="M244.925 342.717L236.69 342.661C234.639 342.661 232.981 340.974 232.981 338.923L233.037 330.688C233.037 328.637 234.723 326.979 236.775 326.979L245.009 327.035C247.061 327.035 248.719 328.721 248.719 330.773L248.663 339.007C248.635 341.087 246.976 342.745 244.925 342.717Z" fill="#F99746"/>
<path d="M263.558 362.164L255.323 362.108C253.272 362.108 251.614 360.422 251.614 358.37L251.67 350.135C251.67 348.084 253.356 346.426 255.408 346.426L263.642 346.482C265.694 346.482 267.352 348.168 267.352 350.22L267.296 358.454C267.267 360.506 265.609 362.164 263.558 362.164Z" fill="#F99746"/>
<path d="M263.67 342.941L255.436 342.885C253.384 342.885 251.726 341.199 251.726 339.147L251.782 330.913C251.782 328.861 253.468 327.203 255.52 327.203L263.754 327.259C265.806 327.259 267.464 328.946 267.464 330.997L267.408 339.232C267.408 341.283 265.722 342.941 263.67 342.941Z" fill="#F99746"/>
<path d="M263.306 400.584L255.071 400.527C253.02 400.527 251.362 398.841 251.362 396.79L251.53 369.36C251.53 367.309 253.216 365.65 255.268 365.65L263.503 365.707C265.554 365.707 267.212 367.393 267.212 369.444L267.044 396.874C267.044 398.954 265.357 400.612 263.306 400.584Z" fill="#F99746"/>
<path d="M202.152 304.523L202.18 301.881L202.573 300.869C202.91 300.953 203.107 301.178 203.191 301.487L203.163 305L202.91 305.253L202.152 304.523ZM202.91 305.534L203.163 305.787L203.135 309.3C203.051 309.638 202.826 309.834 202.517 309.919L202.152 308.907L202.18 306.265L202.91 305.534Z" fill="#2B478B"/>
<path d="M206.565 302.161L206.536 304.55L205.778 305.309L205.525 305.056L205.553 301.796L206.565 302.161ZM205.525 309.047L205.553 305.787L205.806 305.534L206.565 306.292L206.536 308.681L205.525 309.047ZM209.909 309.946L206.143 309.918C205.806 309.834 205.609 309.609 205.525 309.3L206.536 308.934L209.544 308.962L209.909 309.946ZM209.572 301.936L206.565 301.908L205.553 301.515C205.637 301.178 205.862 300.981 206.171 300.896L209.909 300.925L209.572 301.936ZM209.825 304.55L209.853 301.908L210.246 300.896C210.583 300.981 210.78 301.206 210.864 301.515L210.836 305.028L210.583 305.281L209.825 304.55ZM210.555 305.562L210.808 305.815L210.78 309.328C210.696 309.665 210.471 309.862 210.162 309.946L209.796 308.934L209.825 306.292L210.555 305.562Z" fill="#2B478B"/>
<path d="M214.208 302.219L214.18 304.607L213.421 305.366L213.168 305.113L213.196 301.853L214.208 302.219ZM213.168 309.104L213.196 305.844L213.449 305.591L214.208 306.35L214.18 308.739L213.168 309.104ZM217.552 310.003L213.787 309.975C213.449 309.891 213.253 309.666 213.168 309.357L214.18 308.992L217.187 309.02L217.552 310.003ZM217.215 301.966L214.208 301.938L213.196 301.544C213.281 301.207 213.505 301.01 213.815 300.926L217.552 300.954L217.215 301.966ZM217.468 304.607L217.496 301.966L217.89 300.954C218.227 301.038 218.424 301.263 218.508 301.572L218.48 305.085L218.227 305.338L217.468 304.607ZM218.199 305.619L218.452 305.872L218.424 309.385C218.339 309.722 218.115 309.919 217.805 310.003L217.44 308.992L217.468 306.35L218.199 305.619Z" fill="#2B478B"/>
<path d="M221.853 302.247L221.824 304.636L221.066 305.395L220.813 305.142L220.841 301.882L221.853 302.247ZM220.813 309.133L220.841 305.872L221.094 305.62L221.853 306.378L221.824 308.767L220.813 309.133ZM225.197 310.06L221.431 310.032C221.094 309.948 220.897 309.723 220.813 309.414L221.824 309.048L224.832 309.076L225.197 310.06ZM224.888 302.022L221.881 301.994L220.869 301.601C220.953 301.263 221.178 301.067 221.487 300.982L225.225 301.011L224.888 302.022ZM225.113 304.664L225.141 302.022L225.534 301.011C225.871 301.095 226.068 301.32 226.153 301.629L226.124 305.142L225.871 305.395L225.113 304.664ZM225.871 305.676L226.124 305.929L226.096 309.442C226.012 309.779 225.787 309.976 225.478 310.06L225.113 309.048L225.141 306.406L225.871 305.676Z" fill="#2B478B"/>
<path d="M229.524 302.302L229.496 304.691L228.738 305.449L228.485 305.197L228.513 301.936L229.524 302.302ZM228.485 309.187L228.513 305.927L228.766 305.674L229.524 306.433L229.496 308.822L228.485 309.187ZM232.869 310.087L229.103 310.058C228.766 309.974 228.569 309.749 228.485 309.44L229.496 309.075L232.504 309.103L232.869 310.087ZM232.532 302.077L229.524 302.049L228.513 301.655C228.597 301.318 228.822 301.121 229.131 301.037L232.869 301.065L232.532 302.077ZM232.756 304.691L232.785 302.049L233.178 301.037C233.515 301.121 233.712 301.346 233.796 301.655L233.768 305.168L233.515 305.421L232.756 304.691ZM233.515 305.702L233.768 305.955L233.74 309.468C233.656 309.806 233.431 310.002 233.122 310.087L232.756 309.075L232.785 306.433L233.515 305.702Z" fill="#2B478B"/>
<path d="M237.169 302.359L237.141 304.748L236.382 305.507L236.129 305.254L236.157 301.994L237.169 302.359ZM236.129 309.245L236.157 305.985L236.41 305.732L237.169 306.49L237.141 308.879L236.129 309.245ZM240.514 310.144L236.748 310.116C236.41 310.032 236.214 309.807 236.129 309.498L237.141 309.132L240.148 309.16L240.514 310.144ZM240.176 302.106L237.169 302.078L236.157 301.685C236.242 301.347 236.467 301.151 236.776 301.066L240.514 301.095L240.176 302.106ZM240.401 304.748L240.429 302.106L240.823 301.095C241.16 301.179 241.357 301.404 241.441 301.713L241.413 305.226L241.16 305.479L240.401 304.748ZM241.16 305.76L241.413 306.013L241.385 309.526C241.301 309.863 241.076 310.06 240.767 310.144L240.401 309.132L240.429 306.49L241.16 305.76Z" fill="#2B478B"/>
<path d="M244.814 302.388L244.786 304.777L244.027 305.535L243.774 305.282L243.802 302.022L244.814 302.388ZM243.774 309.301L243.802 306.041L244.055 305.788L244.814 306.547L244.786 308.936L243.774 309.301ZM248.158 310.201L244.392 310.173C244.055 310.088 243.858 309.863 243.774 309.554L244.786 309.189L247.793 309.217L248.158 310.201ZM247.821 302.163L244.814 302.135L243.802 301.741C243.886 301.404 244.111 301.207 244.42 301.123L248.158 301.151L247.821 302.163ZM248.074 304.805L248.102 302.163L248.495 301.151C248.833 301.235 249.029 301.46 249.114 301.769L249.086 305.282L248.833 305.535L248.074 304.805ZM248.805 305.816L249.057 306.069L249.029 309.582C248.945 309.92 248.72 310.116 248.411 310.201L248.046 309.189L248.074 306.547L248.805 305.816Z" fill="#2B478B"/>
<path d="M252.457 302.442L252.429 304.831L251.67 305.59L251.417 305.337L251.445 302.077L252.457 302.442ZM251.417 309.328L251.445 306.068L251.698 305.815L252.457 306.574L252.429 308.963L251.417 309.328ZM255.801 310.227L252.036 310.199C251.698 310.115 251.502 309.89 251.417 309.581L252.429 309.215L255.436 309.244L255.801 310.227ZM255.492 302.218L252.485 302.189L251.473 301.796C251.558 301.459 251.783 301.262 252.092 301.178L255.83 301.206L255.492 302.218ZM255.717 304.859L255.745 302.218L256.139 301.206C256.476 301.29 256.673 301.515 256.757 301.824L256.729 305.337L256.476 305.59L255.717 304.859ZM256.476 305.843L256.729 306.096L256.701 309.609C256.616 309.946 256.392 310.143 256.082 310.227L255.717 309.215L255.745 306.574L256.476 305.843Z" fill="#2B478B"/>
<path d="M260.13 302.5L260.102 304.889L259.343 305.647L259.09 305.395L259.118 302.134L260.13 302.5ZM259.062 309.385L259.09 306.125L259.343 305.872L260.102 306.631L260.074 309.02L259.062 309.385ZM263.446 310.285L259.68 310.257C259.343 310.172 259.146 309.947 259.062 309.638L260.074 309.273L263.081 309.301L263.446 310.285ZM263.137 302.247L260.13 302.219L259.118 301.825C259.202 301.488 259.427 301.291 259.736 301.207L263.474 301.235L263.137 302.247ZM263.362 304.889L263.39 302.247L263.783 301.235C264.12 301.319 264.317 301.544 264.402 301.853L264.373 305.366L264.12 305.619L263.362 304.889ZM264.12 305.9L264.373 306.153L264.345 309.666C264.261 310.004 264.036 310.2 263.727 310.285L263.362 309.273L263.39 306.631L264.12 305.9Z" fill="#2B478B"/>
<path d="M369.031 402.636V406.711C369.031 407.048 368.919 407.329 368.722 407.582C368.497 407.835 368.216 408.06 367.851 408.172C367.739 408.2 367.626 408.229 367.514 408.257C367.401 408.285 367.289 408.285 367.177 408.285H289.806C288.879 408.285 288.092 407.695 287.951 406.936C287.951 406.88 287.923 406.823 287.923 406.767C287.923 406.739 287.923 406.711 287.923 406.683V402.608C287.923 402.58 287.923 402.552 287.923 402.523C287.923 402.467 287.923 402.411 287.951 402.355C288.092 401.596 288.879 401.006 289.806 401.006H367.177C367.289 401.006 367.401 401.006 367.514 401.034C367.626 401.062 367.739 401.09 367.851 401.118C368.216 401.231 368.526 401.456 368.722 401.708C368.919 401.989 369.031 402.299 369.031 402.636Z" fill="#FFB93E"/>
<path d="M331.063 408.285H289.61C288.851 408.285 288.204 407.779 288.008 407.133C287.98 407.077 287.98 407.021 287.951 406.964C287.951 406.908 287.923 406.852 287.923 406.796C287.923 406.768 287.923 406.739 287.923 406.711V402.636C287.923 402.608 287.923 402.58 287.923 402.552C287.923 402.496 287.923 402.44 287.951 402.383C287.951 402.327 287.98 402.271 288.008 402.215C288.204 401.54 288.851 401.062 289.61 401.062H325.976C326.538 403.17 327.887 406.121 331.063 408.285Z" fill="#FFA412"/>
<path d="M359.617 401.062H358.746V408.285H359.617V401.062Z" fill="#FFA412"/>
<path d="M356.637 401.062H355.766V408.285H356.637V401.062Z" fill="#FFA412"/>
<path d="M353.069 401.062H352.198V408.285H353.069V401.062Z" fill="#FFA412"/>
<path d="M347.589 401.062H346.717V408.285H347.589V401.062Z" fill="#FFA412"/>
<path d="M341.828 401.062H340.957V408.285H341.828V401.062Z" fill="#FFA412"/>
<path d="M332.946 401.062H332.074V408.285H332.946V401.062Z" fill="#FFA412"/>
<path d="M324.656 401.062H323.785V408.285H324.656V401.062Z" fill="#FFA412"/>
<path d="M317.236 401.062H316.365V408.285H317.236V401.062Z" fill="#FFA412"/>
<path d="M362.455 401.062H361.584V408.285H362.455V401.062Z" fill="#FFA412"/>
<path d="M364.338 401.062H363.466V408.285H364.338V401.062Z" fill="#FFA412"/>
<path d="M366.136 401.062H365.265V408.285H366.136V401.062Z" fill="#FFA412"/>
<path d="M367.486 401.091V408.257C367.373 408.285 367.261 408.285 367.149 408.285H366.586V401.063H367.149C367.289 401.063 367.401 401.062 367.486 401.091Z" fill="#FFA412"/>
<path d="M368.722 401.738V407.583C368.497 407.836 368.216 408.061 367.851 408.174V401.176C368.188 401.288 368.497 401.485 368.722 401.738Z" fill="#FFA412"/>
<path d="M360.77 395.414V399.489C360.77 399.826 360.658 400.107 360.461 400.36C360.405 400.416 360.349 400.5 360.293 400.557C360.096 400.725 359.871 400.866 359.59 400.95C359.478 400.978 359.365 401.006 359.253 401.034C359.14 401.063 359.028 401.063 358.916 401.063H281.545C280.618 401.063 279.831 400.472 279.69 399.714C279.69 399.657 279.662 399.601 279.662 399.573C279.662 399.545 279.662 399.517 279.662 399.489V395.414C279.662 395.386 279.662 395.357 279.662 395.329C279.662 395.273 279.662 395.217 279.69 395.189C279.831 394.43 280.618 393.84 281.545 393.84H358.916C358.972 393.84 359.028 393.84 359.056 393.84C359.084 393.84 359.084 393.84 359.112 393.84C359.14 393.84 359.168 393.84 359.168 393.84C359.197 393.84 359.197 393.84 359.225 393.84C359.337 393.868 359.45 393.896 359.562 393.924C359.618 393.952 359.702 393.98 359.759 394.008C359.787 394.037 359.843 394.037 359.871 394.065C359.899 394.065 359.927 394.093 359.927 394.093L359.984 394.121C360.068 394.177 360.152 394.233 360.208 394.29C360.236 394.318 360.265 394.318 360.265 394.346C360.293 394.346 360.293 394.374 360.293 394.374L360.321 394.402L360.349 394.43C360.377 394.458 360.405 394.486 360.405 394.514C360.658 394.767 360.77 395.076 360.77 395.414Z" fill="#FFB93E"/>
<path d="M322.774 401.063H281.321C280.562 401.063 279.915 400.557 279.719 399.882C279.69 399.826 279.691 399.77 279.662 399.714C279.662 399.657 279.634 399.601 279.634 399.573C279.634 399.545 279.634 399.517 279.634 399.489V395.414C279.634 395.386 279.634 395.357 279.634 395.329C279.634 395.273 279.634 395.217 279.662 395.189C279.662 395.133 279.69 395.076 279.719 395.02C279.915 394.346 280.562 393.84 281.321 393.84H317.687C317.715 393.896 317.715 393.952 317.743 394.008C318.333 396.116 319.711 398.955 322.774 401.063Z" fill="#FFA412"/>
<path d="M351.356 393.84H350.485V401.063H351.356V393.84Z" fill="#FFA412"/>
<path d="M348.378 393.84H347.507V401.063H348.378V393.84Z" fill="#FFA412"/>
<path d="M344.808 393.84H343.937V401.063H344.808V393.84Z" fill="#FFA412"/>
<path d="M339.328 393.84H338.457V401.063H339.328V393.84Z" fill="#FFA412"/>
<path d="M333.539 393.84H332.668V401.063H333.539V393.84Z" fill="#FFA412"/>
<path d="M324.686 393.84H323.815V401.063H324.686V393.84Z" fill="#FFA412"/>
<path d="M316.367 393.84H315.496V401.063H316.367V393.84Z" fill="#FFA412"/>
<path d="M308.947 393.84H308.076V401.063H308.947V393.84Z" fill="#FFA412"/>
<path d="M354.194 393.84H353.323V401.063H354.194V393.84Z" fill="#FFA412"/>
<path d="M356.05 393.84H355.178V401.063H356.05V393.84Z" fill="#FFA412"/>
<path d="M357.848 393.84H356.977V401.063H357.848V393.84Z" fill="#FFA412"/>
<path d="M359.225 393.868V401.034C359.113 401.063 359 401.063 358.888 401.063H358.326V393.84H358.888C359 393.84 359.113 393.84 359.225 393.868Z" fill="#FFA412"/>
<path d="M360.463 394.515V400.361C360.238 400.614 359.957 400.839 359.592 400.951V393.953C359.929 394.066 360.238 394.262 360.463 394.515Z" fill="#FFA412"/>
<path d="M364.762 388.36V392.435C364.762 392.772 364.649 393.053 364.453 393.306C364.228 393.559 363.947 393.784 363.582 393.896C363.469 393.924 363.357 393.952 363.244 393.981C363.132 394.009 363.019 394.009 362.907 394.009H285.537C285.228 394.009 284.947 393.952 284.666 393.84C284.16 393.615 283.766 393.194 283.682 392.688C283.682 392.66 283.682 392.632 283.654 392.575C283.654 392.547 283.654 392.519 283.654 392.491C283.654 392.463 283.654 392.435 283.654 392.407V388.332C283.654 388.304 283.654 388.275 283.654 388.247C283.654 388.191 283.654 388.135 283.682 388.107C283.822 387.348 284.609 386.758 285.537 386.758H362.907C363.019 386.758 363.132 386.758 363.244 386.786C363.357 386.814 363.469 386.842 363.582 386.87C363.947 386.983 364.256 387.207 364.453 387.46C364.649 387.741 364.762 388.022 364.762 388.36Z" fill="#FFB93E"/>
<path d="M326.766 394.009H285.34C285.059 394.009 284.806 393.952 284.581 393.84C284.132 393.615 283.795 393.194 283.71 392.688C283.71 392.66 283.71 392.632 283.682 392.575C283.682 392.547 283.682 392.519 283.682 392.491C283.682 392.463 283.682 392.435 283.682 392.407V388.332C283.682 388.304 283.682 388.275 283.682 388.247C283.682 388.191 283.682 388.135 283.71 388.107C283.71 388.051 283.738 387.994 283.766 387.938C283.963 387.264 284.61 386.758 285.368 386.758H321.735C322.297 388.838 323.59 391.676 326.569 393.812C326.597 393.896 326.681 393.952 326.766 394.009Z" fill="#FFA412"/>
<path d="M355.347 386.785H354.476V394.008H355.347V386.785Z" fill="#FFA412"/>
<path d="M352.368 386.785H351.496V394.008H352.368V386.785Z" fill="#FFA412"/>
<path d="M348.799 386.785H347.928V394.008H348.799V386.785Z" fill="#FFA412"/>
<path d="M343.319 386.785H342.448V394.008H343.319V386.785Z" fill="#FFA412"/>
<path d="M337.558 386.785H336.687V394.008H337.558V386.785Z" fill="#FFA412"/>
<path d="M328.676 386.785H327.805V394.008H328.676V386.785Z" fill="#FFA412"/>
<path d="M320.357 386.785H319.486V394.008H320.357V386.785Z" fill="#FFA412"/>
<path d="M312.966 386.785H312.095V394.008H312.966V386.785Z" fill="#FFA412"/>
<path d="M358.185 386.785H357.314V394.008H358.185V386.785Z" fill="#FFA412"/>
<path d="M360.04 386.785H359.169V394.008H360.04V386.785Z" fill="#FFA412"/>
<path d="M361.867 386.785H360.995V394.008H361.867V386.785Z" fill="#FFA412"/>
<path d="M363.216 386.813V393.98C363.104 394.008 362.991 394.008 362.879 394.008H362.317V386.785H362.879C363.019 386.785 363.132 386.785 363.216 386.813Z" fill="#FFA412"/>
<path d="M364.453 387.488V393.334C364.228 393.586 363.947 393.811 363.581 393.924V386.926C363.919 387.01 364.228 387.207 364.453 387.488Z" fill="#FFA412"/>
<path d="M366.615 381.136V385.211C366.615 385.549 366.503 385.83 366.306 386.083C366.278 386.111 366.25 386.139 366.222 386.167C366.081 386.336 365.884 386.448 365.688 386.56C365.603 386.589 365.519 386.645 365.435 386.673C365.322 386.701 365.21 386.729 365.098 386.757C365.041 386.757 364.985 386.785 364.929 386.785C364.873 386.785 364.817 386.785 364.76 386.785H287.39C286.463 386.785 285.676 386.195 285.535 385.436C285.535 385.38 285.507 385.324 285.507 385.296V381.052C285.563 380.293 286.266 379.675 287.165 379.563C287.25 379.563 287.306 379.563 287.39 379.563H364.76C364.817 379.563 364.873 379.563 364.929 379.563C364.985 379.563 365.041 379.562 365.098 379.591C365.21 379.619 365.322 379.647 365.435 379.675C365.8 379.787 366.109 380.012 366.306 380.265C366.503 380.518 366.615 380.799 366.615 381.136Z" fill="#FFB93E"/>
<path d="M328.618 386.784H287.165C286.406 386.784 285.76 386.279 285.563 385.632C285.535 385.576 285.535 385.52 285.507 385.464C285.507 385.407 285.479 385.351 285.479 385.323V381.079C285.535 380.321 286.153 379.702 286.94 379.59C286.996 379.59 287.08 379.59 287.137 379.59H323.503C324.122 381.698 325.47 384.62 328.618 386.784Z" fill="#FFA412"/>
<path d="M357.2 379.562H356.329V386.785H357.2V379.562Z" fill="#FFA412"/>
<path d="M354.221 379.562H353.35V386.785H354.221V379.562Z" fill="#FFA412"/>
<path d="M350.653 379.562H349.781V386.785H350.653V379.562Z" fill="#FFA412"/>
<path d="M345.172 379.562H344.301V386.785H345.172V379.562Z" fill="#FFA412"/>
<path d="M339.382 379.562H338.511V386.785H339.382V379.562Z" fill="#FFA412"/>
<path d="M330.53 379.562H329.658V386.785H330.53V379.562Z" fill="#FFA412"/>
<path d="M322.21 379.562H321.339V386.785H322.21V379.562Z" fill="#FFA412"/>
<path d="M314.82 379.562H313.948V386.785H314.82V379.562Z" fill="#FFA412"/>
<path d="M360.038 379.562H359.167V386.785H360.038V379.562Z" fill="#FFA412"/>
<path d="M361.894 379.562H361.023V386.785H361.894V379.562Z" fill="#FFA412"/>
<path d="M363.72 379.562H362.849V386.785H363.72V379.562Z" fill="#FFA412"/>
<path d="M365.069 379.591V386.757C364.957 386.785 364.844 386.785 364.732 386.785H364.17V379.563H364.732C364.873 379.563 364.985 379.562 365.069 379.591Z" fill="#FFA412"/>
<path d="M366.307 380.265V386.111C366.082 386.364 365.801 386.589 365.436 386.701V379.703C365.773 379.787 366.082 379.984 366.307 380.265Z" fill="#FFA412"/>
<path d="M360.938 373.913V377.988C360.938 378.325 360.826 378.606 360.629 378.859C360.404 379.112 360.123 379.337 359.758 379.449C359.646 379.477 359.533 379.506 359.421 379.534C359.393 379.534 359.336 379.534 359.308 379.562H359.28C359.252 379.562 359.252 379.562 359.224 379.562C359.196 379.562 359.196 379.562 359.168 379.562C359.14 379.562 359.112 379.562 359.055 379.562H281.685C280.673 379.562 279.858 378.887 279.802 378.072C279.802 378.044 279.802 378.016 279.802 377.988V373.913C279.802 373.885 279.802 373.857 279.802 373.829C279.802 373.8 279.802 373.772 279.802 373.772C279.887 373.098 280.449 372.564 281.207 372.395C281.236 372.395 281.236 372.395 281.264 372.395C281.404 372.367 281.517 372.367 281.657 372.367H359.027C359.084 372.367 359.14 372.367 359.196 372.367C359.224 372.367 359.252 372.367 359.252 372.367C359.28 372.367 359.308 372.367 359.337 372.367C359.449 372.395 359.561 372.423 359.674 372.451C360.039 372.564 360.348 372.789 360.545 373.042C360.826 373.295 360.938 373.604 360.938 373.913Z" fill="#FFB93E"/>
<path d="M322.942 379.563H281.488C280.589 379.563 279.858 378.888 279.83 378.073C279.83 378.045 279.83 378.017 279.83 377.989V373.914C279.83 373.886 279.83 373.857 279.83 373.829C279.83 373.801 279.83 373.773 279.83 373.773C279.887 373.099 280.42 372.537 281.123 372.396C281.151 372.396 281.179 372.396 281.179 372.368C281.264 372.34 281.376 372.34 281.488 372.34H317.855C317.855 372.368 317.855 372.368 317.883 372.396C318.445 374.532 319.794 377.427 322.942 379.563Z" fill="#FFA412"/>
<path d="M351.524 372.34H350.653V379.563H351.524V372.34Z" fill="#FFA412"/>
<path d="M348.545 372.34H347.673V379.563H348.545V372.34Z" fill="#FFA412"/>
<path d="M344.976 372.34H344.105V379.563H344.976V372.34Z" fill="#FFA412"/>
<path d="M339.496 372.34H338.625V379.563H339.496V372.34Z" fill="#FFA412"/>
<path d="M333.705 372.34H332.834V379.563H333.705V372.34Z" fill="#FFA412"/>
<path d="M324.826 372.34H323.955V379.563H324.826V372.34Z" fill="#FFA412"/>
<path d="M316.534 372.34H315.663V379.563H316.534V372.34Z" fill="#FFA412"/>
<path d="M309.115 372.34H308.244V379.563H309.115V372.34Z" fill="#FFA412"/>
<path d="M354.335 372.34H353.463V379.563H354.335V372.34Z" fill="#FFA412"/>
<path d="M356.217 372.34H355.346V379.563H356.217V372.34Z" fill="#FFA412"/>
<path d="M358.016 372.34H357.145V379.563H358.016V372.34Z" fill="#FFA412"/>
<path d="M359.393 372.368V379.534C359.281 379.563 359.168 379.563 359.056 379.563H358.494V372.34H359.056C359.168 372.34 359.281 372.368 359.393 372.368Z" fill="#FFA412"/>
<path d="M360.601 373.043V378.888C360.376 379.141 360.095 379.366 359.73 379.478V372.48C360.095 372.565 360.405 372.79 360.601 373.043Z" fill="#FFA412"/>
<path d="M360.771 366.746V370.822C360.771 371.159 360.658 371.44 360.462 371.693C360.405 371.749 360.349 371.833 360.293 371.889C360.096 372.058 359.871 372.199 359.59 372.283C359.506 372.311 359.422 372.339 359.337 372.339C359.309 372.339 359.281 372.339 359.281 372.339C359.169 372.367 359.056 372.367 358.944 372.367H281.574C281.489 372.367 281.405 372.367 281.321 372.339C281.293 372.339 281.264 372.339 281.236 372.339C280.449 372.227 279.831 371.693 279.719 371.018C279.719 370.962 279.719 370.934 279.691 370.878C279.691 370.85 279.691 370.822 279.691 370.793V366.718C279.691 366.69 279.691 366.662 279.691 366.634C279.691 366.578 279.691 366.522 279.719 366.494C279.859 365.735 280.646 365.145 281.574 365.145H358.944C359 365.145 359.056 365.145 359.084 365.145H359.113C359.141 365.145 359.141 365.145 359.169 365.145C359.197 365.145 359.225 365.145 359.225 365.145C359.253 365.145 359.253 365.145 359.281 365.145C359.394 365.173 359.506 365.201 359.618 365.229C359.675 365.257 359.759 365.285 359.815 365.313C360.068 365.426 360.265 365.566 360.433 365.735C360.461 365.763 360.49 365.791 360.49 365.819C360.658 366.128 360.771 366.437 360.771 366.746Z" fill="#FFB93E"/>
<path d="M322.774 372.395H281.321C281.292 372.395 281.264 372.395 281.236 372.395C281.208 372.395 281.152 372.395 281.124 372.395C280.365 372.31 279.775 371.748 279.662 371.046C279.662 370.989 279.662 370.961 279.634 370.905C279.634 370.877 279.634 370.849 279.634 370.821V366.746C279.634 366.718 279.634 366.69 279.634 366.661C279.634 366.605 279.634 366.549 279.662 366.521C279.662 366.465 279.69 366.408 279.719 366.352C279.915 365.678 280.562 365.172 281.321 365.172H317.687C317.715 365.228 317.715 365.284 317.743 365.341C318.333 367.42 319.682 370.231 322.718 372.338C322.718 372.366 322.746 372.395 322.774 372.395Z" fill="#FFA412"/>
<path d="M351.356 365.172H350.485V372.395H351.356V365.172Z" fill="#FFA412"/>
<path d="M348.378 365.172H347.507V372.395H348.378V365.172Z" fill="#FFA412"/>
<path d="M344.808 365.172H343.937V372.395H344.808V365.172Z" fill="#FFA412"/>
<path d="M339.328 365.172H338.457V372.395H339.328V365.172Z" fill="#FFA412"/>
<path d="M333.539 365.172H332.668V372.395H333.539V365.172Z" fill="#FFA412"/>
<path d="M324.686 365.172H323.815V372.395H324.686V365.172Z" fill="#FFA412"/>
<path d="M316.367 365.172H315.496V372.395H316.367V365.172Z" fill="#FFA412"/>
<path d="M308.947 365.172H308.076V372.395H308.947V365.172Z" fill="#FFA412"/>
<path d="M354.194 365.172H353.323V372.395H354.194V365.172Z" fill="#FFA412"/>
<path d="M356.05 365.172H355.178V372.395H356.05V365.172Z" fill="#FFA412"/>
<path d="M357.848 365.172H356.977V372.395H357.848V365.172Z" fill="#FFA412"/>
<path d="M359.225 365.2V372.367C359.113 372.395 359 372.395 358.888 372.395H358.326V365.172H358.888C359 365.172 359.113 365.2 359.225 365.2Z" fill="#FFA412"/>
<path d="M360.463 365.875V371.72C360.238 371.973 359.957 372.198 359.592 372.31V365.312C359.929 365.397 360.238 365.622 360.463 365.875Z" fill="#FFA412"/>
<path d="M364.762 359.72V363.795C364.762 364.133 364.649 364.414 364.453 364.667C364.228 364.92 363.947 365.144 363.582 365.257C363.469 365.285 363.357 365.313 363.244 365.341C363.132 365.369 363.019 365.369 362.907 365.369H285.537C285.228 365.369 284.947 365.313 284.666 365.201C284.16 364.976 283.766 364.554 283.682 364.048C283.682 364.02 283.682 363.992 283.654 363.936C283.654 363.908 283.654 363.88 283.654 363.88C283.654 363.852 283.654 363.824 283.654 363.795V359.72C283.654 359.692 283.654 359.664 283.654 359.636C283.654 359.58 283.654 359.524 283.682 359.495C283.822 358.737 284.609 358.146 285.537 358.146H362.907C363.019 358.146 363.132 358.147 363.244 358.175C363.357 358.203 363.469 358.231 363.582 358.259C363.947 358.371 364.256 358.596 364.453 358.849C364.649 359.074 364.762 359.383 364.762 359.72Z" fill="#FFB93E"/>
<path d="M326.766 365.369H285.34C285.059 365.369 284.806 365.313 284.581 365.201C284.132 364.976 283.795 364.554 283.71 364.048C283.71 364.02 283.71 363.992 283.682 363.936C283.682 363.908 283.682 363.88 283.682 363.88C283.682 363.852 283.682 363.824 283.682 363.795V359.72C283.682 359.692 283.682 359.664 283.682 359.636C283.682 359.58 283.682 359.524 283.71 359.495C283.71 359.439 283.738 359.383 283.766 359.327C283.963 358.652 284.61 358.146 285.368 358.146H321.735C322.297 360.226 323.59 363.065 326.569 365.201C326.597 365.229 326.681 365.285 326.766 365.369Z" fill="#FFA412"/>
<path d="M355.347 358.146H354.476V365.369H355.347V358.146Z" fill="#FFA412"/>
<path d="M352.368 358.146H351.496V365.369H352.368V358.146Z" fill="#FFA412"/>
<path d="M348.799 358.146H347.928V365.369H348.799V358.146Z" fill="#FFA412"/>
<path d="M343.319 358.146H342.448V365.369H343.319V358.146Z" fill="#FFA412"/>
<path d="M337.558 358.146H336.687V365.369H337.558V358.146Z" fill="#FFA412"/>
<path d="M328.676 358.146H327.805V365.369H328.676V358.146Z" fill="#FFA412"/>
<path d="M320.357 358.146H319.486V365.369H320.357V358.146Z" fill="#FFA412"/>
<path d="M312.966 358.146H312.095V365.369H312.966V358.146Z" fill="#FFA412"/>
<path d="M358.185 358.146H357.314V365.369H358.185V358.146Z" fill="#FFA412"/>
<path d="M360.04 358.146H359.169V365.369H360.04V358.146Z" fill="#FFA412"/>
<path d="M361.867 358.146H360.995V365.369H361.867V358.146Z" fill="#FFA412"/>
<path d="M363.216 358.147V365.314C363.104 365.342 362.991 365.342 362.879 365.342H362.317V358.119H362.879C363.019 358.147 363.132 358.147 363.216 358.147Z" fill="#FFA412"/>
<path d="M364.453 358.822V364.667C364.228 364.92 363.947 365.145 363.581 365.258V358.26C363.919 358.344 364.228 358.569 364.453 358.822Z" fill="#FFA412"/>
<path d="M371.084 352.47V356.545C371.084 356.883 370.972 357.164 370.775 357.417C370.747 357.445 370.719 357.473 370.69 357.501C370.578 357.613 370.438 357.726 370.269 357.838C370.185 357.894 370.1 357.922 370.016 357.951C369.988 357.979 369.932 357.979 369.875 358.007C369.763 358.035 369.651 358.063 369.538 358.091C369.426 358.119 369.313 358.119 369.201 358.119H291.831C290.903 358.119 290.116 357.529 289.976 356.77C289.976 356.714 289.948 356.658 289.948 356.63C289.948 356.602 289.948 356.573 289.948 356.545V352.47C289.948 352.442 289.948 352.414 289.948 352.386C290.004 351.627 290.707 351.009 291.606 350.896C291.69 350.896 291.746 350.896 291.831 350.896H369.201C369.313 350.896 369.426 350.896 369.538 350.925C369.651 350.953 369.763 350.981 369.875 351.009C370.185 351.121 370.466 351.29 370.662 351.487C370.69 351.515 370.719 351.543 370.747 351.571C370.972 351.852 371.084 352.161 371.084 352.47Z" fill="#FFB93E"/>
<path d="M333.087 358.147H291.634C290.875 358.147 290.229 357.641 290.032 356.967C290.004 356.911 290.004 356.855 289.976 356.798C289.976 356.742 289.948 356.686 289.948 356.658C289.948 356.63 289.948 356.602 289.948 356.573V352.47C289.948 352.442 289.948 352.414 289.948 352.386C289.976 351.627 290.622 351.009 291.409 350.896C291.465 350.896 291.55 350.896 291.606 350.896H327.972C328.591 353.06 329.94 355.983 333.087 358.147Z" fill="#FFA412"/>
<path d="M361.669 350.924H360.797V358.147H361.669V350.924Z" fill="#FFA412"/>
<path d="M358.69 350.924H357.819V358.147H358.69V350.924Z" fill="#FFA412"/>
<path d="M355.121 350.924H354.249V358.147H355.121V350.924Z" fill="#FFA412"/>
<path d="M349.64 350.924H348.769V358.147H349.64V350.924Z" fill="#FFA412"/>
<path d="M343.851 350.924H342.98V358.147H343.851V350.924Z" fill="#FFA412"/>
<path d="M334.998 350.924H334.126V358.147H334.998V350.924Z" fill="#FFA412"/>
<path d="M326.679 350.924H325.808V358.147H326.679V350.924Z" fill="#FFA412"/>
<path d="M319.288 350.924H318.417V358.147H319.288V350.924Z" fill="#FFA412"/>
<path d="M364.506 350.924H363.635V358.147H364.506V350.924Z" fill="#FFA412"/>
<path d="M366.362 350.924H365.491V358.147H366.362V350.924Z" fill="#FFA412"/>
<path d="M368.188 350.924H367.317V358.147H368.188V350.924Z" fill="#FFA412"/>
<path d="M369.537 350.925V358.091C369.425 358.119 369.313 358.119 369.2 358.119H368.638V350.896H369.2C369.341 350.925 369.453 350.925 369.537 350.925Z" fill="#FFA412"/>
<path d="M370.775 351.599V357.445C370.55 357.698 370.269 357.923 369.904 358.035V351.037C370.241 351.121 370.55 351.346 370.775 351.599Z" fill="#FFA412"/>
<path d="M360.938 345.275V349.35C360.938 349.687 360.826 349.968 360.629 350.221C360.404 350.474 360.123 350.699 359.758 350.811C359.646 350.84 359.533 350.868 359.421 350.896C359.393 350.896 359.336 350.896 359.308 350.924H359.28C359.252 350.924 359.224 350.924 359.196 350.924C359.168 350.924 359.168 350.924 359.14 350.924C359.112 350.924 359.084 350.924 359.055 350.924H281.685C281.011 350.924 280.421 350.615 280.083 350.165C279.915 349.94 279.83 349.687 279.802 349.434C279.802 349.406 279.802 349.378 279.802 349.35V345.275C279.802 345.247 279.802 345.219 279.802 345.191C279.83 344.516 280.392 343.954 281.123 343.757C281.292 343.701 281.488 343.701 281.657 343.701H359.027C359.055 343.701 359.084 343.701 359.14 343.701C359.168 343.701 359.168 343.701 359.196 343.701C359.252 343.701 359.308 343.701 359.393 343.729C359.505 343.757 359.618 343.785 359.73 343.814C359.786 343.842 359.842 343.842 359.899 343.87C360.095 343.954 360.292 344.067 360.433 344.207C360.433 344.207 360.461 344.207 360.461 344.235C360.517 344.291 360.573 344.348 360.601 344.404C360.826 344.657 360.938 344.938 360.938 345.275Z" fill="#FFB93E"/>
<path d="M322.942 350.924H281.488C280.898 350.924 280.392 350.643 280.083 350.221C279.915 349.996 279.83 349.715 279.802 349.434C279.802 349.406 279.802 349.378 279.802 349.35V345.275C279.802 345.247 279.802 345.219 279.802 345.191C279.83 344.46 280.392 343.87 281.123 343.729C281.236 343.701 281.348 343.701 281.46 343.701H317.827C317.855 343.757 317.855 343.814 317.883 343.87C318.501 345.978 319.85 348.816 322.942 350.924Z" fill="#FFA412"/>
<path d="M351.524 343.701H350.653V350.924H351.524V343.701Z" fill="#FFA412"/>
<path d="M348.545 343.701H347.673V350.924H348.545V343.701Z" fill="#FFA412"/>
<path d="M344.976 343.701H344.105V350.924H344.976V343.701Z" fill="#FFA412"/>
<path d="M339.496 343.701H338.625V350.924H339.496V343.701Z" fill="#FFA412"/>
<path d="M333.705 343.701H332.834V350.924H333.705V343.701Z" fill="#FFA412"/>
<path d="M324.826 343.701H323.955V350.924H324.826V343.701Z" fill="#FFA412"/>
<path d="M316.534 343.701H315.663V350.924H316.534V343.701Z" fill="#FFA412"/>
<path d="M309.115 343.701H308.244V350.924H309.115V343.701Z" fill="#FFA412"/>
<path d="M354.335 343.701H353.463V350.924H354.335V343.701Z" fill="#FFA412"/>
<path d="M356.217 343.701H355.346V350.924H356.217V343.701Z" fill="#FFA412"/>
<path d="M358.016 343.701H357.145V350.924H358.016V343.701Z" fill="#FFA412"/>
<path d="M359.393 343.729V350.896C359.281 350.924 359.168 350.924 359.056 350.924H358.494V343.701H359.056C359.168 343.701 359.281 343.701 359.393 343.729Z" fill="#FFA412"/>
<path d="M360.601 344.404V350.249C360.376 350.502 360.095 350.727 359.73 350.84V343.842C360.095 343.926 360.405 344.123 360.601 344.404Z" fill="#FFA412"/>
<path d="M366.615 338.22V342.295C366.615 342.633 366.503 342.914 366.306 343.167C366.081 343.42 365.8 343.644 365.435 343.757C365.322 343.785 365.21 343.813 365.098 343.841C364.985 343.869 364.873 343.869 364.76 343.869H287.39C287.081 343.869 286.8 343.813 286.547 343.701C285.985 343.476 285.591 342.998 285.507 342.436C285.507 342.408 285.507 342.38 285.507 342.38C285.507 342.352 285.507 342.324 285.507 342.295V338.22C285.507 338.192 285.507 338.164 285.507 338.136C285.563 337.377 286.266 336.759 287.165 336.646C287.25 336.646 287.306 336.646 287.39 336.646H364.76C364.873 336.646 364.985 336.647 365.098 336.675C365.21 336.703 365.322 336.731 365.435 336.759C365.8 336.871 366.109 337.096 366.306 337.349C366.503 337.602 366.615 337.883 366.615 338.22Z" fill="#FFB93E"/>
<path d="M328.618 343.869H287.165C286.884 343.869 286.631 343.813 286.406 343.701C285.9 343.476 285.535 342.998 285.479 342.436C285.479 342.408 285.479 342.38 285.479 342.38C285.479 342.352 285.479 342.324 285.479 342.295V338.22C285.479 338.192 285.479 338.164 285.479 338.136C285.507 337.377 286.153 336.759 286.94 336.646C286.996 336.646 287.081 336.646 287.137 336.646H323.503C324.066 338.726 325.358 341.565 328.365 343.701C328.478 343.757 328.534 343.813 328.618 343.869Z" fill="#FFA412"/>
<path d="M357.2 336.646H356.329V343.869H357.2V336.646Z" fill="#FFA412"/>
<path d="M354.221 336.646H353.35V343.869H354.221V336.646Z" fill="#FFA412"/>
<path d="M350.653 336.646H349.781V343.869H350.653V336.646Z" fill="#FFA412"/>
<path d="M345.172 336.646H344.301V343.869H345.172V336.646Z" fill="#FFA412"/>
<path d="M339.382 336.646H338.511V343.869H339.382V336.646Z" fill="#FFA412"/>
<path d="M330.53 336.646H329.658V343.869H330.53V336.646Z" fill="#FFA412"/>
<path d="M322.21 336.646H321.339V343.869H322.21V336.646Z" fill="#FFA412"/>
<path d="M314.82 336.646H313.948V343.869H314.82V336.646Z" fill="#FFA412"/>
<path d="M360.038 336.646H359.167V343.869H360.038V336.646Z" fill="#FFA412"/>
<path d="M361.894 336.646H361.023V343.869H361.894V336.646Z" fill="#FFA412"/>
<path d="M363.72 336.646H362.849V343.869H363.72V336.646Z" fill="#FFA412"/>
<path d="M365.069 336.675V343.841C364.957 343.869 364.844 343.869 364.732 343.869H364.17V336.646H364.732C364.873 336.646 364.985 336.647 365.069 336.675Z" fill="#FFA412"/>
<path d="M366.307 337.349V343.195C366.082 343.448 365.801 343.673 365.436 343.785V336.787C365.773 336.871 366.082 337.068 366.307 337.349Z" fill="#FFA412"/>
<path d="M369.031 330.998V335.073C369.031 335.411 368.919 335.692 368.722 335.945C368.497 336.198 368.216 336.422 367.851 336.535C367.739 336.563 367.626 336.591 367.514 336.619C367.486 336.619 367.43 336.619 367.401 336.619C367.373 336.619 367.373 336.619 367.345 336.619C367.317 336.619 367.317 336.619 367.289 336.619C367.261 336.619 367.233 336.619 367.177 336.619H289.806C288.823 336.619 287.98 335.945 287.923 335.13C287.923 335.102 287.923 335.073 287.923 335.045V330.97C287.923 330.942 287.923 330.914 287.923 330.886C287.98 330.071 288.795 329.396 289.806 329.396H367.177C367.289 329.396 367.401 329.396 367.514 329.425C367.626 329.453 367.739 329.481 367.851 329.509C368.216 329.621 368.526 329.846 368.722 330.099C368.919 330.38 369.031 330.689 369.031 330.998Z" fill="#FFB93E"/>
<path d="M331.063 336.647H289.61C288.71 336.647 287.98 335.972 287.952 335.157C287.952 335.129 287.952 335.101 287.952 335.073V330.998C287.952 330.97 287.952 330.941 287.952 330.913C288.008 330.098 288.739 329.424 289.61 329.424H325.976C326.538 331.56 327.887 334.483 331.063 336.647C331.035 336.647 331.035 336.647 331.063 336.647Z" fill="#FFA412"/>
<path d="M359.617 329.424H358.746V336.647H359.617V329.424Z" fill="#FFA412"/>
<path d="M356.637 329.424H355.766V336.647H356.637V329.424Z" fill="#FFA412"/>
<path d="M353.069 329.424H352.198V336.647H353.069V329.424Z" fill="#FFA412"/>
<path d="M347.589 329.424H346.717V336.647H347.589V329.424Z" fill="#FFA412"/>
<path d="M341.828 329.424H340.957V336.647H341.828V329.424Z" fill="#FFA412"/>
<path d="M332.946 329.424H332.074V336.647H332.946V329.424Z" fill="#FFA412"/>
<path d="M324.656 329.424H323.785V336.647H324.656V329.424Z" fill="#FFA412"/>
<path d="M317.236 329.424H316.365V336.647H317.236V329.424Z" fill="#FFA412"/>
<path d="M362.455 329.424H361.584V336.647H362.455V329.424Z" fill="#FFA412"/>
<path d="M364.338 329.424H363.466V336.647H364.338V329.424Z" fill="#FFA412"/>
<path d="M366.136 329.424H365.265V336.647H366.136V329.424Z" fill="#FFA412"/>
<path d="M367.486 329.452V336.618C367.373 336.647 367.261 336.647 367.149 336.647H366.586V329.424H367.149C367.289 329.424 367.401 329.452 367.486 329.452Z" fill="#FFA412"/>
<path d="M368.722 330.127V335.972C368.497 336.225 368.216 336.45 367.851 336.562V329.564C368.188 329.649 368.497 329.874 368.722 330.127Z" fill="#FFA412"/>
<path d="M344.526 288.28C344.526 288.28 340.451 294.013 336.742 294.069C333.032 294.126 327.355 291.428 327.355 291.428C327.355 291.428 323.926 283.811 326.259 280.832C326.259 280.832 328.591 279.821 331.008 281.619C331.43 281.928 331.851 282.322 332.273 282.828C332.863 283.53 333.538 283.952 334.24 284.149C336.91 284.964 340.058 283.053 341.238 284.879C341.941 285.947 342.671 286.762 343.29 287.324C343.992 287.943 344.526 288.28 344.526 288.28Z" fill="#FFEDDC"/>
<path d="M291.55 329.536C291.55 329.536 305.911 294.743 331.767 294.068C331.767 294.068 355.627 296.71 356.948 329.536H291.55Z" fill="#FFEDDC"/>
<path d="M324.685 295.138C324.685 295.138 335.055 297.443 338.259 296.094C338.259 296.094 338.737 291.766 334.381 292.356C331.402 292.777 329.435 291.344 328.31 290.754C326.652 289.939 324.235 293.311 324.685 295.138Z" fill="#DB6A1D"/>
<path d="M333.705 288.59C333.031 289.096 331.007 281.592 331.007 281.592C331.429 281.901 331.85 282.294 332.272 282.8C332.862 283.503 333.537 283.924 334.239 284.121C334.211 284.346 334.324 288.112 333.705 288.59Z" fill="#E5C1A1"/>
<path d="M343.261 287.297C343.12 287.381 338.315 290.248 337.668 290.248C336.994 290.248 341.209 284.852 341.209 284.852C341.884 285.948 342.643 286.735 343.261 287.297Z" fill="#E5C1A1"/>
<path d="M305.574 319.813C305.321 319.589 315.748 304.469 318.615 304.356C321.481 304.244 327.945 307.672 332.61 308.122C337.276 308.572 341.8 307.251 342.7 310.005C343.571 312.759 346.016 322.568 344.526 324.113C343.037 325.659 311.308 324.703 305.574 319.813Z" fill="#F9DDBF"/>
<path opacity="0.5" d="M315.382 372.339C315.382 372.367 315.382 372.367 315.382 372.396C315.242 374.812 314.848 377.229 314.23 379.562C314.146 379.899 314.033 380.237 313.949 380.574C313.303 382.71 312.459 384.789 311.391 386.785C310.071 389.286 308.441 391.647 306.529 393.839C306.473 393.895 306.417 393.951 306.361 394.008C303.972 396.706 301.105 399.066 297.873 401.062C297.199 401.483 296.496 401.877 295.766 402.27C295.288 402.523 294.782 402.776 294.304 403.001C293.826 403.282 293.349 403.507 292.871 403.788C291.494 404.631 289.808 405.277 287.953 405.811V402.635C287.953 402.607 287.953 402.579 287.953 402.551C287.953 402.495 287.953 402.439 287.981 402.382C287.981 402.326 288.009 402.27 288.037 402.214C288.234 401.539 288.88 401.062 289.639 401.062H281.376C280.618 401.062 279.971 400.556 279.774 399.881C279.746 399.825 279.746 399.769 279.718 399.713C279.718 399.656 279.69 399.6 279.69 399.572C279.69 399.544 279.69 399.516 279.69 399.488V395.413C279.69 395.385 279.69 395.357 279.69 395.328C279.69 395.272 279.69 395.216 279.718 395.188C279.718 395.132 279.746 395.075 279.774 395.019C279.971 394.345 280.618 393.839 281.376 393.839H284.608C284.159 393.614 283.821 393.192 283.737 392.687C283.737 392.659 283.737 392.63 283.709 392.574C283.709 392.546 283.709 392.518 283.709 392.49C283.709 392.462 283.709 392.434 283.709 392.406V388.33C283.709 388.302 283.709 388.274 283.709 388.246C283.709 388.19 283.709 388.134 283.737 388.106C283.737 388.049 283.765 387.993 283.793 387.937C283.99 387.263 284.636 386.757 285.395 386.757H287.25C286.491 386.757 285.845 386.251 285.648 385.604C285.62 385.548 285.62 385.492 285.592 385.436C285.592 385.38 285.564 385.323 285.564 385.295V381.052C285.62 380.293 286.238 379.674 287.025 379.562H281.545C280.646 379.562 279.915 378.888 279.887 378.073C279.887 378.044 279.887 378.016 279.887 377.988V373.913C279.887 373.885 279.887 373.857 279.887 373.829C279.887 373.801 279.887 373.773 279.887 373.773C279.943 373.098 280.477 372.536 281.18 372.396C280.421 372.311 279.831 371.749 279.718 371.047C279.718 370.99 279.718 370.962 279.69 370.906C279.69 370.878 279.69 370.85 279.69 370.822V366.747C279.69 366.719 279.69 366.69 279.69 366.662C279.69 366.606 279.69 366.55 279.718 366.522C279.718 366.466 279.746 366.409 279.774 366.353C279.971 365.679 280.618 365.173 281.376 365.173H284.608C284.159 364.948 283.821 364.526 283.737 364.021C283.737 363.992 283.737 363.964 283.709 363.908C283.709 363.88 283.709 363.852 283.709 363.852C283.709 363.824 283.709 363.796 283.709 363.768V359.693C283.709 359.664 283.709 359.636 283.709 359.608C283.709 359.552 283.709 359.496 283.737 359.468C283.737 359.412 283.765 359.355 283.793 359.299C283.99 358.625 284.636 358.119 285.395 358.119H291.719C290.96 358.119 290.313 357.613 290.117 356.938C290.089 356.882 290.089 356.826 290.061 356.77C290.061 356.714 290.032 356.657 290.032 356.629C290.032 356.601 290.032 356.573 290.032 356.545V352.47C290.032 352.442 290.032 352.414 290.032 352.386C290.061 351.627 290.707 351.008 291.494 350.896H281.545C280.955 350.896 280.449 350.615 280.14 350.193V350.165L281.18 343.758V343.729L282.669 334.596C284.412 334.821 286.126 335.186 287.784 335.636C287.897 335.664 287.981 335.692 288.065 335.72C288.065 335.72 288.065 335.72 288.093 335.72C289.077 336.001 290.032 336.31 290.988 336.647H291.016C295.4 338.249 299.475 340.61 303.016 343.701C303.073 343.758 303.129 343.814 303.213 343.87C305.068 345.5 306.754 347.299 308.244 349.294C308.553 349.688 308.834 350.081 309.115 350.503C309.199 350.643 309.312 350.784 309.396 350.924C309.846 351.599 310.295 352.301 310.689 353.004C311.644 354.69 312.459 356.404 313.134 358.147C314.033 360.451 314.652 362.812 315.017 365.201C315.017 365.257 315.045 365.313 315.045 365.37C315.41 367.702 315.523 370.035 315.382 372.339Z" fill="#E2810E"/>
<path d="M268.813 406.682C289.829 406.682 306.866 389.645 306.866 368.629C306.866 347.613 289.829 330.576 268.813 330.576C247.797 330.576 230.76 347.613 230.76 368.629C230.76 389.645 247.797 406.682 268.813 406.682Z" fill="#E2810E"/>
<path d="M285.704 402.718C285.226 402.999 284.748 403.28 284.27 403.561C284.102 403.646 283.933 403.73 283.765 403.814C283.399 404.011 283.006 404.208 282.64 404.404C264.513 413.313 242.424 406.484 232.559 388.61C223.172 371.551 228.203 350.445 243.632 339.372C244.869 338.501 246.161 337.657 247.51 336.927C247.988 336.646 248.494 336.393 248.972 336.168C249.45 335.915 249.927 335.69 250.433 335.493C251.923 334.819 253.44 334.257 254.958 333.807C257.234 333.133 259.539 332.655 261.843 332.43C269.01 331.671 276.233 332.992 282.612 336.112C289.385 339.428 295.259 344.796 299.194 351.906C309.114 369.78 303.016 392.179 285.704 402.718Z" fill="#FFB93E"/>
<path d="M266.172 404.742C262.996 404.742 259.792 404.293 256.645 403.393C247.904 400.864 240.653 395.075 236.269 387.093C231.885 379.112 230.845 369.893 233.375 361.153C235.904 352.413 241.693 345.162 249.675 340.778C266.144 331.7 286.913 337.714 295.99 354.183C305.068 370.652 299.054 391.421 282.585 400.499C277.47 403.309 271.849 404.742 266.172 404.742ZM266.059 337.433C260.635 337.433 255.155 338.754 250.096 341.537C242.34 345.808 236.691 352.862 234.246 361.378C231.773 369.893 232.784 378.859 237.056 386.615C241.328 394.372 248.382 400.021 256.898 402.466C265.413 404.939 274.378 403.927 282.135 399.656C298.154 390.831 304 370.596 295.175 354.577C289.133 343.644 277.751 337.433 266.059 337.433Z" fill="#FFA412"/>
<path d="M282.894 373.941C282.81 373.744 282.725 373.575 282.669 373.407C282.051 372.058 281.292 370.962 280.364 370.118C279.325 369.163 278.116 368.46 276.739 367.983C275.362 367.505 273.816 367.224 272.13 367.111C270.444 366.999 268.589 366.971 266.594 367.027C265.357 367.055 264.317 367.055 263.418 366.971C262.547 366.886 261.788 366.718 261.198 366.493C260.579 366.24 260.102 365.903 259.708 365.481C259.315 365.06 259.005 364.526 258.753 363.936C258.5 363.345 258.359 362.699 258.331 362.109C258.303 361.519 258.387 360.928 258.612 360.394C258.837 359.86 259.174 359.355 259.68 358.905C260.158 358.455 260.804 358.062 261.619 357.725C263.109 357.134 264.486 357.134 265.779 357.753C267.071 358.371 268.111 359.692 268.926 361.687L276.683 358.54C276.008 356.881 275.165 355.476 274.153 354.324C273.142 353.172 271.989 352.3 270.725 351.682C269.46 351.064 268.055 350.699 266.565 350.586C265.076 350.474 263.502 350.642 261.9 351.064L259.708 345.668L255.408 347.41L257.572 352.75C256.026 353.565 254.706 354.493 253.638 355.561C252.57 356.629 251.727 357.781 251.164 359.017C250.574 360.254 250.293 361.575 250.265 362.924C250.237 364.301 250.518 365.678 251.08 367.083C251.755 368.713 252.598 370.006 253.638 370.962C254.677 371.917 255.886 372.62 257.263 373.097C258.64 373.575 260.186 373.856 261.872 373.941C263.586 374.025 265.441 374.025 267.437 373.941C268.589 373.884 269.601 373.884 270.472 373.969C271.315 374.053 272.074 374.222 272.692 374.475C273.31 374.727 273.844 375.065 274.238 375.514C274.631 375.964 274.997 376.554 275.278 377.229C275.531 377.847 275.643 378.465 275.643 379.055C275.643 379.674 275.502 380.236 275.221 380.798C274.94 381.36 274.547 381.866 273.985 382.344C273.451 382.821 272.748 383.215 271.905 383.552C271.174 383.861 270.416 384.058 269.629 384.142C268.842 384.227 268.083 384.17 267.324 383.917C266.565 383.665 265.891 383.215 265.216 382.568C264.57 381.922 264.008 380.995 263.53 379.814L255.774 382.962C256.589 384.957 257.6 386.531 258.809 387.712C260.045 388.892 261.366 389.707 262.828 390.213C264.289 390.719 265.807 390.943 267.38 390.859C268.954 390.803 270.528 390.55 272.074 390.072L274.069 395.019L278.341 393.276L276.318 388.33C277.863 387.515 279.184 386.587 280.308 385.547C281.32 384.564 282.135 383.524 282.697 382.4C282.753 382.316 282.781 382.231 282.838 382.119C283.428 380.882 283.737 379.589 283.765 378.24C283.765 376.807 283.484 375.402 282.894 373.941Z" fill="#FFA412"/>
<path d="M529.142 197.812C524.842 196.379 521.835 198.178 521.835 198.178C509.413 198.683 508.963 211.415 510.425 216.136C512.476 222.797 505.226 228.024 513.263 230.722C522.594 233.842 530.407 228.923 529.873 230.525C559.354 232.858 538.95 201.072 529.142 197.812Z" fill="#2A539B"/>
<path d="M516.271 259.697C516.271 259.697 515.09 262.03 512.954 264.728C510.369 267.96 496.851 260.288 498.003 259.697C499.155 259.107 505.76 240.418 508.542 237.102C511.128 234.039 514.725 233.336 514.725 233.336L516.271 259.697Z" fill="#2B478B"/>
<path d="M561.939 391.813C561.939 391.813 565.677 395.213 564.947 397.63C564.216 400.047 560.843 401.677 560.394 404.628C559.944 407.579 558.117 409.209 556.487 409.209C554.857 409.209 548.674 409.209 548.674 409.209C548.674 409.209 547.466 407.13 550.389 406.511C553.312 405.893 554.408 402.408 554.211 399.176C554.042 395.944 554.492 391.644 554.492 391.644L560.675 390.211L561.939 391.813Z" fill="#4075C1"/>
<path d="M530.323 393.275C530.323 393.275 531.672 407.721 530.013 408.536L509.02 408.48C509.02 408.48 509.02 406.063 512.392 405.529C515.765 404.995 521.695 403.027 522.678 398.615C523.718 394.203 530.323 393.275 530.323 393.275Z" fill="#4075C1"/>
<path d="M546.481 249.945C546.481 249.945 546.791 254.357 546.481 259.641C546.285 263.154 542.716 267.847 542.21 268.999C540.945 271.922 539.512 272.4 539.512 272.4L528.495 275.098L524.617 276.054L512.391 272.4C512.391 272.4 506.827 256.858 509.075 248.118C511.323 239.378 514.724 233.307 514.724 233.307C514.724 233.307 523.015 231.453 537.685 232.492L546.481 249.945Z" fill="#2B478B"/>
<path d="M547.521 259.782C547.325 263.295 542.715 267.876 542.21 269.028C540.945 271.951 539.512 272.428 539.512 272.428L528.495 275.126L525.544 270.995C525.544 270.995 543.39 266.021 540.017 250.311L547.521 259.782Z" fill="#163560"/>
<path d="M513.179 274.762C513.179 274.762 507.136 293.591 506.743 299.999C506.349 306.407 518.322 391.084 518.799 394.035C519.249 396.817 522.706 398.588 522.706 398.588C522.706 398.588 524.308 399.515 526.556 398.897C529.704 397.998 530.687 396.93 530.687 396.93C530.687 396.93 535.409 336.534 532.486 314.979C529.563 293.395 529.535 274.762 529.535 274.762H513.179Z" fill="#ED7D2B"/>
<path d="M538.838 274.199C538.838 274.199 548.056 286.593 548.927 294.94C549.798 303.287 550.276 332.712 552.103 340.862C553.93 349.012 560.675 364.722 560.675 390.184C560.675 390.184 559.972 391.646 557.808 392.433C557.105 392.686 556.178 392.91 555.279 393.135C553.508 393.557 551.681 392.686 550.866 391.027C546.313 381.866 531.812 352.3 531.053 346.145C530.519 341.789 525.938 313.067 515.961 296.177C513.572 292.13 517.423 276.026 517.423 276.026L538.838 274.199Z" fill="#F99746"/>
<path d="M512.223 271.867C512.223 271.867 514.64 273.778 519.474 273.891C525.235 274.003 539.512 272.429 539.512 272.429C539.512 272.429 540.158 274.2 540.13 276.083C540.13 276.083 522.678 280.495 512.588 276.729C512.588 276.701 511.267 274.256 512.223 271.867Z" fill="#163560"/>
<path d="M518.097 278.837C516.635 278.837 515.455 277.488 515.455 275.858C515.455 274.228 516.635 272.879 518.097 272.879C519.558 272.879 520.739 274.228 520.739 275.858C520.739 277.516 519.558 278.837 518.097 278.837ZM518.097 273.75C517.113 273.75 516.326 274.706 516.326 275.858C516.326 277.01 517.113 277.966 518.097 277.966C519.052 277.966 519.867 277.01 519.867 275.858C519.867 274.706 519.052 273.75 518.097 273.75Z" fill="white"/>
<path d="M530.687 284.26L504.494 284.513L491.595 254.188L517.788 253.936L530.687 284.26Z" fill="#D35B31"/>
<path d="M527.259 270.545L525.348 268.184C525.348 268.184 524.055 267.032 523.099 266.835C522.144 266.638 520.176 265.486 519.98 265.823C519.783 266.16 521.497 268.465 521.497 268.465H521.582C519.614 269.954 514.612 268.634 513.994 269.252C513.235 269.983 515.033 271.584 515.989 272.484C516.944 273.383 519.671 274.873 521.806 274.198C523.352 273.72 525.797 273.215 525.797 273.215L527.259 270.545Z" fill="#FFB27D"/>
<path d="M493.562 259.528C493.562 259.528 495.22 257.645 496.259 258.544C497.299 259.443 495.978 263.856 494.995 263.406C493.983 262.956 492.971 260.062 493.562 259.528Z" fill="#FFB27D"/>
<path d="M537.686 232.492C537.686 232.492 546.426 233.11 549.771 241.261C553.115 249.411 559.27 262.816 557.949 268.437C557.415 270.685 551.063 278.442 524.505 273.496C524.505 273.496 524.73 270.714 526.529 269.421C526.529 269.421 545.246 263.407 545.218 262.226C545.162 259.978 542.688 258.011 532.234 247.556C529.367 244.689 537.686 232.492 537.686 232.492Z" fill="#2B478B"/>
<path d="M531.895 232.885C532.148 232.548 531.811 231.424 531.417 229.372C531.052 227.517 530.406 224.623 530.434 221.391L529.872 221.475L520.569 223.049C520.569 223.049 520.794 225.522 520.794 227.883C520.794 227.911 520.794 227.911 520.794 227.939C520.794 229.962 520.232 233.054 520.935 233.447C524.448 235.527 530.912 234.206 531.895 232.885Z" fill="#FFB27D"/>
<path d="M520.569 223.078C520.569 223.078 520.766 226.591 520.766 228.923C525.965 228.811 528.748 223.752 529.872 221.504L520.569 223.078Z" fill="#E8945B"/>
<path d="M520.008 227.266C520.008 227.266 532.205 225.523 530.997 217.963C529.788 210.375 530.575 205.064 522.734 205.851C514.893 206.638 513.853 209.757 513.628 212.399C513.432 214.984 516.804 227.519 520.008 227.266Z" fill="#FFB27D"/>
<path d="M517.17 206.524C517.17 206.524 521.919 214.871 527.231 215.377C532.543 215.883 534.538 214.169 534.538 214.169C534.538 214.169 530.126 211.667 528.439 206.384C528.468 206.356 518.996 201.887 517.17 206.524Z" fill="#2A539B"/>
<path d="M518.097 207.115C518.097 207.115 515.764 208.436 515.034 210.404C514.331 212.315 513.853 214.788 514.5 217.626C514.5 217.626 511.015 211.977 513.291 208.127C515.736 203.996 518.097 207.115 518.097 207.115Z" fill="#2A539B"/>
<path d="M717.579 409.97H0.815018C0.365354 409.97 0 409.605 0 409.155V408.846C0 408.397 0.365354 408.031 0.815018 408.031H717.579C718.029 408.031 718.394 408.397 718.394 408.846V409.155C718.422 409.605 718.029 409.97 717.579 409.97Z" fill="#2E3552"/>
<path d="M605.001 102.611L606.096 102.676L606.032 103.256C605.903 105.318 605.709 107.38 605.516 109.442L605.452 110.022L604.356 109.893L604.421 109.313C604.678 107.251 604.807 105.189 604.936 103.191L605.001 102.611ZM603.712 114.856L604.807 115.049L604.743 115.629C604.421 117.691 604.034 119.753 603.583 121.687L603.454 122.202L602.358 121.944L602.487 121.429C602.938 119.495 603.325 117.433 603.647 115.436L603.712 114.856ZM529.022 126.584C529.924 126.52 530.891 126.52 531.857 126.649L532.437 126.713L532.309 127.809L531.729 127.744C530.826 127.615 529.989 127.615 529.086 127.68C527.991 127.744 526.895 128.002 525.864 128.324L525.349 128.518L524.962 127.486L525.478 127.293C526.638 126.971 527.798 126.713 529.022 126.584ZM537.464 128.195L537.979 128.453C539.784 129.484 541.137 131.16 542.039 133.415L542.233 133.931L541.202 134.317L541.008 133.802C540.235 131.804 539.011 130.322 537.4 129.42L536.884 129.162L537.464 128.195ZM520.58 130.322L521.353 131.095L520.967 131.482C519.613 132.835 518.518 134.446 517.551 136.38L517.293 136.895L516.262 136.38L516.52 135.864C517.487 133.866 518.711 132.126 520.129 130.709L520.58 130.322ZM601.07 126.842L602.165 127.164L602.036 127.68C601.456 129.678 600.812 131.675 600.103 133.544L599.91 134.06L598.878 133.673L599.072 133.157C599.781 131.289 600.425 129.355 601.005 127.358L601.07 126.842ZM542.039 139.086H543.135V139.666C543.135 141.6 542.942 143.726 542.491 145.917L542.362 146.433L541.266 146.175L541.395 145.659C541.846 143.533 542.039 141.535 542.039 139.666V139.086ZM514.651 141.342L515.747 141.535L515.618 142.051C515.231 143.984 515.038 146.046 515.038 148.044V148.624H513.942V148.044C513.942 145.917 514.136 143.791 514.522 141.793L514.651 141.342ZM596.881 138.313L597.912 138.764L597.654 139.28C596.752 141.213 595.785 143.017 594.819 144.822L594.561 145.337L593.594 144.757L593.852 144.242C594.819 142.502 595.785 140.697 596.623 138.828L596.881 138.313ZM539.848 150.944L540.879 151.33L540.686 151.846C539.977 153.715 539.075 155.648 537.979 157.453L537.722 157.968L536.755 157.453L537.013 156.937C538.044 155.133 538.882 153.264 539.655 151.459L539.848 150.944ZM515.682 153.586L515.811 154.102C516.004 154.875 516.198 155.648 516.455 156.357C516.842 157.517 517.293 158.677 517.809 159.708L518.067 160.224L517.1 160.739L516.842 160.224C516.262 159.128 515.747 157.904 515.36 156.679C515.102 155.906 514.909 155.133 514.715 154.295L514.587 153.779L515.682 153.586ZM590.888 148.946L591.79 149.591L591.467 150.042C590.243 151.782 588.954 153.393 587.601 154.939L587.214 155.39L586.377 154.682L586.763 154.23C588.116 152.748 589.341 151.137 590.565 149.462L590.888 148.946ZM534.048 161.641L534.951 162.286L534.628 162.737C533.404 164.412 532.115 166.024 530.697 167.57L530.311 167.957L529.473 167.184L529.86 166.797C531.213 165.315 532.566 163.704 533.726 162.093L534.048 161.641ZM582.897 158.161L583.67 158.999L583.283 159.386C581.737 160.804 580.125 162.093 578.45 163.252L577.999 163.575L577.354 162.673L577.806 162.35C579.481 161.19 581.028 159.901 582.574 158.548L582.897 158.161ZM520.902 164.219L521.289 164.606C522.642 166.024 524.189 167.312 525.993 168.344L526.444 168.666L525.864 169.632L525.413 169.31C523.544 168.15 521.933 166.861 520.515 165.379L520.129 164.992L520.902 164.219ZM573.037 165.315L573.552 166.281L573.037 166.539C571.232 167.506 569.363 168.472 567.43 169.246L566.915 169.439L566.464 168.408L566.979 168.215C568.848 167.441 570.717 166.539 572.457 165.572L573.037 165.315ZM525.929 170.663L526.637 171.501L526.251 171.888C524.704 173.241 523.093 174.53 521.418 175.755L520.967 176.077L520.322 175.175L520.773 174.852C522.449 173.628 524.06 172.403 525.542 171.05L525.929 170.663ZM530.891 170.792L531.406 170.986C533.211 171.63 535.208 172.146 537.271 172.468L537.851 172.532L537.657 173.628L537.077 173.563C534.951 173.177 532.889 172.661 531.02 172.017L530.504 171.823L530.891 170.792ZM561.888 170.212L562.21 171.308L561.695 171.501C559.697 172.146 557.699 172.661 555.701 173.048L555.186 173.177L554.928 172.081L555.444 171.952C557.441 171.566 559.375 171.05 561.372 170.406L561.888 170.212ZM542.748 173.048H543.328C545.326 173.112 547.388 173.048 549.45 172.855L550.03 172.79L550.159 173.886L549.579 173.95C547.453 174.143 545.391 174.208 543.328 174.143H542.748V173.048ZM516.069 177.881L516.649 178.848L516.133 179.106C514.329 180.072 512.46 181.039 510.527 181.812L510.011 182.006L509.56 180.974L510.076 180.781C512.009 180.008 513.813 179.106 515.553 178.139L516.069 177.881ZM461.292 183.037L461.872 183.166C463.87 183.552 465.932 183.939 467.93 184.197L468.51 184.261L468.316 185.357L467.736 185.292C465.674 184.97 463.676 184.648 461.614 184.197L461.099 184.068L461.292 183.037ZM473.407 184.905L473.987 184.97C476.049 185.163 478.112 185.292 480.109 185.357H480.689L480.625 186.452H480.045C478.047 186.388 475.921 186.259 473.858 186.001L473.278 185.937L473.407 184.905ZM504.856 182.65L505.178 183.746L504.662 183.874C502.729 184.454 500.667 184.905 498.605 185.292L498.025 185.421L497.831 184.325L498.411 184.197C500.474 183.81 502.471 183.359 504.34 182.843L504.856 182.65ZM485.652 185.421H486.232C488.294 185.357 490.356 185.228 492.354 185.034L492.934 184.97L493.063 186.065L492.483 186.13C490.42 186.323 488.358 186.452 486.296 186.517H485.716L485.652 185.421Z" fill="#33192C"/>
<path d="M609.319 100.808L608.288 90.6903C608.288 90.6903 628.329 63.8818 628.458 63.3663C628.587 62.8507 634 44.4844 634 44.4844L618.405 59.3708L598.17 88.4992L609.319 100.808Z" fill="#3093B3"/>
<path d="M580.191 82.5704L634.002 44.4844L598.171 88.4992L580.191 82.5704Z" fill="#4CB7D8"/>
<path d="M608.285 90.6258L627.36 97.0057L633.998 44.4844L608.285 90.6258Z" fill="#4CB7D8"/>
</svg>
