<svg width="543" height="497" viewBox="0 0 543 497" fill="none" xmlns="http://www.w3.org/2000/svg">
<path d="M299.763 341.829C433.668 315.787 529.39 228.711 513.564 147.338C497.739 65.9656 376.36 21.1109 242.455 47.1524C108.551 73.1939 12.8289 160.27 28.6541 241.643C44.4793 323.015 165.859 367.87 299.763 341.829Z" fill="#F9F9FF"/>
<path d="M125.804 262.704C125.792 262.704 125.781 262.704 125.769 262.704L122.707 262.531C122.419 262.52 122.212 262.278 122.223 261.99C122.235 261.702 122.488 261.495 122.764 261.506L125.827 261.679C126.115 261.691 126.322 261.932 126.311 262.22C126.299 262.485 126.08 262.704 125.804 262.704Z" fill="#BFC8D6"/>
<path d="M393.77 278.028C393.759 278.028 393.747 278.028 393.736 278.028L387.645 277.683C387.357 277.671 387.15 277.43 387.161 277.142C387.173 276.854 387.438 276.647 387.702 276.658L393.793 277.004C394.081 277.015 394.288 277.257 394.277 277.545C394.265 277.821 394.035 278.028 393.77 278.028ZM381.588 277.326C381.577 277.326 381.565 277.326 381.554 277.326L375.463 276.981C375.175 276.969 374.968 276.727 374.979 276.439C374.991 276.152 375.256 275.944 375.52 275.956L381.611 276.301C381.899 276.313 382.107 276.555 382.095 276.842C382.083 277.119 381.853 277.326 381.588 277.326ZM369.407 276.635C369.395 276.635 369.383 276.635 369.372 276.635L363.281 276.29C362.993 276.278 362.786 276.036 362.797 275.749C362.809 275.461 363.074 275.254 363.339 275.265L369.43 275.61C369.717 275.622 369.925 275.864 369.913 276.152C369.902 276.428 369.683 276.635 369.407 276.635ZM357.225 275.933C357.213 275.933 357.202 275.933 357.19 275.933L351.099 275.587C350.811 275.576 350.604 275.334 350.616 275.046C350.627 274.758 350.892 274.551 351.157 274.563L357.248 274.908C357.536 274.92 357.743 275.161 357.731 275.449C357.72 275.726 357.501 275.933 357.225 275.933ZM345.054 275.242C345.043 275.242 345.031 275.242 345.02 275.242L338.929 274.897C338.641 274.885 338.434 274.643 338.445 274.355C338.457 274.068 338.722 273.86 338.986 273.872L345.077 274.217C345.365 274.229 345.572 274.471 345.561 274.758C345.549 275.035 345.319 275.242 345.054 275.242ZM332.872 274.54C332.861 274.54 332.849 274.54 332.838 274.54L326.747 274.194C326.459 274.183 326.252 273.941 326.263 273.653C326.275 273.365 326.54 273.158 326.805 273.169L332.895 273.515C333.183 273.526 333.391 273.768 333.379 274.056C333.368 274.332 333.137 274.54 332.872 274.54ZM320.691 273.849C320.679 273.849 320.668 273.849 320.656 273.849L314.565 273.503C314.277 273.492 314.07 273.25 314.081 272.962C314.093 272.674 314.358 272.467 314.623 272.479L320.714 272.824C321.001 272.836 321.209 273.077 321.197 273.365C321.186 273.642 320.955 273.849 320.691 273.849ZM308.509 273.146C308.497 273.146 308.486 273.146 308.474 273.146L302.383 272.801C302.095 272.79 301.888 272.548 301.9 272.26C301.911 271.972 302.176 271.765 302.441 271.776L308.532 272.122C308.82 272.133 309.027 272.375 309.015 272.663C309.004 272.939 308.773 273.146 308.509 273.146ZM296.327 272.456C296.315 272.456 296.304 272.456 296.292 272.456L290.201 272.11C289.913 272.099 289.706 271.857 289.718 271.569C289.729 271.281 289.994 271.074 290.259 271.085L296.35 271.431C296.638 271.442 296.845 271.684 296.833 271.972C296.822 272.248 296.603 272.456 296.327 272.456ZM284.145 271.753C284.133 271.753 284.122 271.753 284.11 271.753L278.019 271.408C277.732 271.396 277.524 271.155 277.536 270.867C277.547 270.579 277.812 270.372 278.077 270.383L284.168 270.729C284.456 270.74 284.663 270.982 284.652 271.27C284.64 271.546 284.421 271.753 284.145 271.753ZM271.975 271.062C271.963 271.062 271.952 271.062 271.94 271.062L265.849 270.717C265.561 270.705 265.354 270.464 265.365 270.176C265.377 269.888 265.63 269.681 265.907 269.692L271.998 270.038C272.285 270.049 272.493 270.291 272.481 270.579C272.47 270.844 272.239 271.062 271.975 271.062ZM259.793 270.36C259.781 270.36 259.77 270.36 259.758 270.36L253.667 270.015C253.379 270.003 253.172 269.761 253.184 269.473C253.195 269.186 253.448 268.978 253.725 268.99L259.816 269.335C260.104 269.347 260.311 269.589 260.299 269.876C260.288 270.153 260.058 270.36 259.793 270.36ZM247.611 269.669C247.599 269.669 247.588 269.669 247.576 269.669L241.485 269.324C241.198 269.312 240.99 269.07 241.002 268.783C241.013 268.495 241.267 268.288 241.543 268.299L247.634 268.644C247.922 268.656 248.129 268.898 248.117 269.186C248.106 269.45 247.876 269.669 247.611 269.669ZM235.429 268.967C235.417 268.967 235.406 268.967 235.394 268.967L229.303 268.621C229.016 268.61 228.808 268.368 228.82 268.08C228.831 267.792 229.085 267.585 229.361 267.597L235.452 267.942C235.74 267.954 235.947 268.195 235.936 268.483C235.924 268.76 235.694 268.967 235.429 268.967ZM223.247 268.276C223.236 268.276 223.224 268.276 223.213 268.276L217.122 267.931C216.834 267.919 216.627 267.677 216.638 267.389C216.65 267.102 216.903 266.894 217.179 266.906L223.27 267.251C223.558 267.263 223.765 267.505 223.754 267.792C223.742 268.057 223.523 268.276 223.247 268.276ZM211.065 267.574C211.054 267.574 211.042 267.574 211.031 267.574L204.94 267.228C204.652 267.217 204.445 266.975 204.456 266.687C204.468 266.399 204.721 266.192 204.997 266.203L211.088 266.549C211.376 266.56 211.583 266.802 211.572 267.09C211.56 267.366 211.342 267.574 211.065 267.574ZM198.883 266.883C198.872 266.883 198.86 266.883 198.849 266.883L192.758 266.537C192.47 266.526 192.263 266.284 192.274 265.996C192.286 265.708 192.539 265.501 192.815 265.513L198.906 265.858C199.194 265.87 199.401 266.111 199.39 266.399C199.378 266.664 199.16 266.883 198.883 266.883ZM186.713 266.18C186.701 266.18 186.69 266.18 186.678 266.18L180.588 265.835C180.3 265.824 180.092 265.582 180.104 265.294C180.115 265.006 180.369 264.799 180.645 264.81L186.736 265.156C187.024 265.167 187.231 265.409 187.22 265.697C187.208 265.973 186.978 266.18 186.713 266.18ZM174.531 265.49C174.52 265.49 174.508 265.49 174.497 265.49L168.406 265.144C168.118 265.133 167.911 264.891 167.922 264.603C167.934 264.315 168.187 264.108 168.463 264.119L174.554 264.465C174.842 264.476 175.049 264.718 175.038 265.006C175.026 265.271 174.796 265.49 174.531 265.49ZM162.349 264.787C162.338 264.787 162.326 264.787 162.315 264.787L156.224 264.442C155.936 264.43 155.729 264.189 155.74 263.901C155.752 263.613 156.005 263.406 156.281 263.417L162.372 263.763C162.66 263.774 162.867 264.016 162.856 264.304C162.844 264.58 162.614 264.787 162.349 264.787ZM150.167 264.096C150.156 264.096 150.144 264.096 150.133 264.096L144.042 263.751C143.754 263.739 143.547 263.498 143.558 263.21C143.57 262.922 143.823 262.715 144.099 262.726L150.19 263.072C150.478 263.083 150.686 263.325 150.674 263.613C150.662 263.878 150.444 264.096 150.167 264.096ZM137.986 263.394C137.974 263.394 137.962 263.394 137.951 263.394L131.86 263.049C131.572 263.037 131.365 262.795 131.376 262.507C131.388 262.22 131.641 262.012 131.918 262.024L138.009 262.369C138.296 262.381 138.504 262.623 138.492 262.91C138.481 263.187 138.262 263.394 137.986 263.394Z" fill="#BFC8D6"/>
<path d="M402.923 278.548C402.912 278.548 402.9 278.548 402.889 278.548L399.826 278.375C399.538 278.363 399.331 278.122 399.342 277.834C399.354 277.546 399.619 277.339 399.883 277.35L402.946 277.523C403.234 277.534 403.441 277.776 403.43 278.064C403.418 278.34 403.199 278.548 402.923 278.548Z" fill="#BFC8D6"/>
<path d="M183.049 172.675C183.026 172.675 182.992 172.675 182.969 172.663L179.941 172.157C179.664 172.111 179.468 171.846 179.515 171.569C179.561 171.293 179.825 171.097 180.102 171.143L183.13 171.65C183.406 171.696 183.602 171.961 183.556 172.237C183.51 172.502 183.291 172.675 183.049 172.675Z" fill="#BFC8D6"/>
<path d="M368.713 203.705C368.69 203.705 368.656 203.705 368.633 203.694L362.438 202.658C362.162 202.611 361.966 202.347 362.012 202.07C362.058 201.794 362.323 201.598 362.599 201.644L368.794 202.681C369.07 202.727 369.266 202.991 369.22 203.268C369.174 203.533 368.955 203.705 368.713 203.705ZM356.336 201.644C356.313 201.644 356.278 201.644 356.255 201.633L350.072 200.596C349.796 200.55 349.6 200.286 349.646 200.009C349.692 199.733 349.957 199.537 350.233 199.583L356.416 200.62C356.693 200.666 356.888 200.93 356.842 201.207C356.796 201.46 356.577 201.644 356.336 201.644ZM343.958 199.572C343.935 199.572 343.9 199.572 343.877 199.56L337.694 198.524C337.418 198.478 337.222 198.213 337.268 197.937C337.314 197.66 337.579 197.465 337.856 197.511L344.039 198.547C344.315 198.593 344.511 198.858 344.465 199.134C344.419 199.399 344.2 199.572 343.958 199.572ZM331.58 197.499C331.557 197.499 331.523 197.499 331.5 197.488L325.317 196.451C325.04 196.405 324.845 196.141 324.891 195.864C324.937 195.588 325.202 195.392 325.478 195.438L331.661 196.474C331.937 196.521 332.133 196.785 332.087 197.062C332.041 197.326 331.822 197.499 331.58 197.499ZM319.203 195.438C319.18 195.438 319.145 195.438 319.122 195.427L312.939 194.39C312.663 194.344 312.467 194.08 312.513 193.803C312.559 193.527 312.824 193.331 313.1 193.377L319.283 194.413C319.56 194.459 319.755 194.724 319.709 195.001C319.663 195.254 319.445 195.438 319.203 195.438ZM306.825 193.366C306.802 193.366 306.768 193.366 306.745 193.354L300.55 192.318C300.274 192.272 300.078 192.007 300.124 191.731C300.17 191.454 300.435 191.259 300.711 191.305L306.906 192.341C307.182 192.387 307.378 192.652 307.332 192.928C307.286 193.193 307.067 193.366 306.825 193.366ZM294.448 191.293C294.425 191.293 294.39 191.293 294.367 191.282L288.184 190.245C287.908 190.199 287.712 189.934 287.758 189.658C287.804 189.382 288.069 189.186 288.345 189.232L294.528 190.268C294.804 190.314 295 190.579 294.954 190.856C294.908 191.12 294.689 191.293 294.448 191.293ZM282.07 189.232C282.047 189.232 282.012 189.232 281.989 189.221L275.795 188.184C275.518 188.138 275.323 187.873 275.369 187.597C275.415 187.321 275.68 187.125 275.956 187.171L282.151 188.207C282.427 188.253 282.623 188.518 282.577 188.795C282.53 189.048 282.312 189.232 282.07 189.232ZM269.692 187.16C269.669 187.16 269.635 187.16 269.612 187.148L263.429 186.112C263.152 186.066 262.957 185.801 263.003 185.525C263.049 185.248 263.314 185.053 263.59 185.099L269.773 186.135C270.049 186.181 270.245 186.446 270.199 186.722C270.153 186.987 269.934 187.16 269.692 187.16ZM257.315 185.087C257.292 185.087 257.257 185.087 257.234 185.076L251.04 184.039C250.763 183.993 250.567 183.728 250.614 183.452C250.66 183.176 250.924 182.98 251.201 183.026L257.395 184.062C257.672 184.108 257.867 184.373 257.821 184.65C257.775 184.914 257.557 185.087 257.315 185.087ZM244.937 183.026C244.914 183.026 244.88 183.026 244.857 183.015L238.662 181.978C238.386 181.932 238.19 181.667 238.236 181.391C238.282 181.115 238.547 180.919 238.823 180.965L245.018 182.001C245.294 182.047 245.49 182.312 245.444 182.589C245.398 182.842 245.179 183.026 244.937 183.026ZM232.559 180.954C232.536 180.954 232.502 180.954 232.479 180.942L226.284 179.906C226.008 179.86 225.812 179.595 225.858 179.319C225.904 179.042 226.169 178.846 226.446 178.892L232.64 179.929C232.916 179.975 233.112 180.24 233.066 180.516C233.02 180.769 232.801 180.954 232.559 180.954ZM220.182 178.881C220.159 178.881 220.124 178.881 220.101 178.869L213.907 177.833C213.63 177.787 213.435 177.522 213.481 177.246C213.527 176.97 213.792 176.774 214.068 176.82L220.262 177.856C220.539 177.902 220.735 178.167 220.688 178.443C220.642 178.708 220.424 178.881 220.182 178.881ZM207.804 176.808C207.781 176.808 207.747 176.808 207.724 176.797L201.529 175.761C201.253 175.715 201.057 175.45 201.103 175.173C201.149 174.897 201.414 174.701 201.69 174.747L207.885 175.784C208.161 175.83 208.357 176.095 208.311 176.371C208.265 176.636 208.046 176.808 207.804 176.808ZM195.427 174.747C195.404 174.747 195.369 174.747 195.346 174.736L189.152 173.7C188.875 173.654 188.679 173.389 188.725 173.112C188.772 172.836 189.036 172.64 189.313 172.686L195.507 173.723C195.784 173.769 195.979 174.034 195.933 174.31C195.887 174.563 195.668 174.747 195.427 174.747Z" fill="#BFC8D6"/>
<path d="M377.348 208.264C377.314 208.264 377.279 208.264 377.245 208.252C376.968 208.195 376.784 207.93 376.842 207.654L377.325 205.155L374.815 204.741C374.539 204.695 374.343 204.43 374.389 204.153C374.435 203.877 374.7 203.681 374.976 203.727L378.004 204.234C378.143 204.257 378.258 204.338 378.338 204.453C378.419 204.568 378.442 204.706 378.419 204.844L377.832 207.861C377.797 208.103 377.59 208.264 377.348 208.264Z" fill="#BFC8D6"/>
<path d="M348.51 356.877C348.475 356.877 348.441 356.877 348.406 356.865C348.13 356.808 347.946 356.543 348.003 356.266L349.201 350.072C349.258 349.796 349.523 349.611 349.799 349.669C350.076 349.726 350.26 349.991 350.202 350.268L349.005 356.462C348.97 356.715 348.752 356.877 348.51 356.877ZM350.916 344.499C350.882 344.499 350.847 344.499 350.813 344.488C350.536 344.43 350.352 344.165 350.41 343.889L351.607 337.694C351.665 337.418 351.93 337.234 352.206 337.291C352.482 337.349 352.666 337.614 352.609 337.89L351.411 344.085C351.365 344.326 351.158 344.499 350.916 344.499ZM353.323 332.11C353.288 332.11 353.254 332.11 353.219 332.098C352.943 332.041 352.759 331.776 352.816 331.5L354.014 325.305C354.071 325.029 354.336 324.845 354.612 324.902C354.889 324.96 355.073 325.225 355.015 325.501L353.818 331.695C353.772 331.937 353.553 332.11 353.323 332.11ZM355.718 319.732C355.683 319.732 355.649 319.732 355.614 319.721C355.338 319.663 355.153 319.398 355.211 319.122L356.408 312.928C356.466 312.651 356.731 312.467 357.007 312.525C357.284 312.582 357.468 312.847 357.41 313.123L356.213 319.318C356.178 319.56 355.959 319.732 355.718 319.732ZM358.124 307.343C358.09 307.343 358.055 307.343 358.02 307.332C357.744 307.274 357.56 307.009 357.617 306.733L358.815 300.538C358.873 300.262 359.137 300.078 359.414 300.135C359.69 300.193 359.874 300.458 359.817 300.734L358.619 306.929C358.585 307.17 358.366 307.343 358.124 307.343ZM360.531 294.954C360.496 294.954 360.461 294.954 360.427 294.943C360.151 294.885 359.966 294.62 360.024 294.344L361.221 288.149C361.279 287.873 361.544 287.689 361.82 287.746C362.096 287.804 362.281 288.069 362.223 288.345L361.026 294.54C360.98 294.793 360.772 294.954 360.531 294.954ZM362.925 282.576C362.891 282.576 362.856 282.576 362.822 282.565C362.545 282.507 362.361 282.243 362.419 281.966L363.616 275.772C363.674 275.495 363.939 275.311 364.215 275.369C364.491 275.426 364.676 275.691 364.618 275.967L363.421 282.162C363.386 282.404 363.167 282.576 362.925 282.576ZM365.332 270.187C365.297 270.187 365.263 270.187 365.228 270.176C364.952 270.118 364.768 269.853 364.825 269.577L366.023 263.383C366.08 263.106 366.345 262.922 366.621 262.98C366.898 263.037 367.082 263.302 367.024 263.578L365.827 269.773C365.792 270.015 365.574 270.187 365.332 270.187ZM367.738 257.81C367.704 257.81 367.669 257.81 367.635 257.798C367.358 257.741 367.174 257.476 367.232 257.2L368.429 251.005C368.487 250.729 368.752 250.544 369.028 250.602C369.304 250.66 369.488 250.924 369.431 251.201L368.233 257.395C368.187 257.637 367.98 257.81 367.738 257.81ZM370.145 245.421C370.11 245.421 370.076 245.421 370.041 245.409C369.765 245.352 369.581 245.087 369.638 244.81L370.836 238.616C370.893 238.339 371.158 238.155 371.434 238.213C371.711 238.27 371.895 238.535 371.837 238.812L370.64 245.006C370.594 245.248 370.375 245.421 370.145 245.421ZM372.54 233.031C372.505 233.031 372.471 233.032 372.436 233.02C372.16 232.962 371.976 232.698 372.033 232.421L373.231 226.227C373.288 225.95 373.553 225.766 373.829 225.824C374.106 225.881 374.29 226.146 374.232 226.422L373.035 232.617C373 232.87 372.781 233.031 372.54 233.031ZM374.946 220.654C374.912 220.654 374.877 220.654 374.842 220.642C374.566 220.585 374.382 220.32 374.44 220.044L375.637 213.849C375.695 213.573 375.959 213.389 376.236 213.446C376.512 213.504 376.696 213.768 376.639 214.045L375.441 220.239C375.395 220.481 375.188 220.654 374.946 220.654Z" fill="#BFC8D6"/>
<path d="M346.724 366.088C346.689 366.088 346.666 366.088 346.631 366.076L343.603 365.546C343.327 365.5 343.143 365.235 343.189 364.959C343.235 364.683 343.5 364.499 343.787 364.545L346.321 364.994L346.816 362.472C346.873 362.196 347.138 362.012 347.414 362.069C347.691 362.127 347.875 362.392 347.817 362.668L347.23 365.685C347.173 365.915 346.965 366.088 346.724 366.088Z" fill="#BFC8D6"/>
<path d="M337.73 364.509C337.695 364.509 337.672 364.509 337.637 364.498L331.673 363.45C331.397 363.404 331.213 363.139 331.259 362.863C331.305 362.587 331.57 362.402 331.857 362.448L337.822 363.496C338.098 363.542 338.282 363.807 338.236 364.083C338.19 364.337 337.971 364.509 337.73 364.509ZM325.812 362.425C325.778 362.425 325.755 362.425 325.72 362.414L319.756 361.366C319.48 361.32 319.296 361.055 319.342 360.779C319.388 360.502 319.652 360.318 319.94 360.364L325.905 361.412C326.181 361.458 326.365 361.723 326.319 361.999C326.273 362.253 326.054 362.425 325.812 362.425ZM313.884 360.341C313.849 360.341 313.826 360.341 313.792 360.33L307.828 359.282C307.551 359.236 307.367 358.971 307.413 358.695C307.459 358.418 307.724 358.234 308.012 358.28L313.976 359.328C314.252 359.374 314.437 359.639 314.391 359.915C314.345 360.169 314.137 360.341 313.884 360.341ZM301.967 358.246C301.932 358.246 301.909 358.246 301.875 358.234L295.91 357.186C295.634 357.14 295.45 356.876 295.496 356.599C295.542 356.323 295.807 356.139 296.095 356.185L302.059 357.232C302.335 357.279 302.52 357.543 302.474 357.82C302.427 358.073 302.209 358.246 301.967 358.246ZM290.038 356.162C290.004 356.162 289.981 356.162 289.946 356.15L283.982 355.102C283.706 355.056 283.521 354.792 283.567 354.515C283.613 354.239 283.878 354.055 284.166 354.101L290.13 355.148C290.407 355.194 290.591 355.459 290.545 355.736C290.499 355.989 290.292 356.162 290.038 356.162ZM278.121 354.078C278.087 354.078 278.064 354.078 278.029 354.066L272.065 353.018C271.789 352.972 271.604 352.707 271.65 352.431C271.696 352.155 271.961 351.971 272.249 352.017L278.213 353.064C278.49 353.11 278.674 353.375 278.628 353.652C278.582 353.905 278.363 354.078 278.121 354.078ZM266.193 351.982C266.158 351.982 266.135 351.982 266.101 351.971L260.136 350.923C259.86 350.877 259.676 350.612 259.722 350.336C259.768 350.059 260.033 349.875 260.321 349.921L266.285 350.969C266.561 351.015 266.745 351.28 266.699 351.556C266.653 351.809 266.446 351.982 266.193 351.982ZM254.276 349.898C254.241 349.898 254.218 349.898 254.184 349.887L248.219 348.839C247.943 348.793 247.759 348.528 247.805 348.252C247.851 347.975 248.116 347.791 248.392 347.837L254.356 348.885C254.633 348.931 254.817 349.196 254.771 349.472C254.736 349.725 254.517 349.898 254.276 349.898ZM242.359 347.814C242.324 347.814 242.301 347.814 242.267 347.802L236.302 346.755C236.026 346.709 235.842 346.444 235.888 346.167C235.934 345.891 236.199 345.707 236.475 345.753L242.439 346.801C242.716 346.847 242.9 347.112 242.854 347.388C242.808 347.641 242.6 347.814 242.359 347.814ZM230.43 345.718C230.396 345.718 230.372 345.718 230.338 345.707L224.374 344.659C224.097 344.613 223.913 344.348 223.959 344.072C224.005 343.796 224.27 343.611 224.546 343.657L230.511 344.705C230.787 344.751 230.971 345.016 230.925 345.292C230.891 345.546 230.672 345.718 230.43 345.718ZM218.513 343.634C218.478 343.634 218.455 343.634 218.421 343.623L212.457 342.575C212.18 342.529 211.996 342.264 212.042 341.988C212.088 341.712 212.353 341.527 212.629 341.573L218.594 342.621C218.87 342.667 219.054 342.932 219.008 343.208C218.974 343.462 218.755 343.634 218.513 343.634ZM206.584 341.55C206.55 341.55 206.527 341.55 206.492 341.539L200.528 340.491C200.252 340.445 200.067 340.18 200.114 339.904C200.16 339.628 200.424 339.443 200.701 339.489L206.665 340.537C206.941 340.583 207.126 340.848 207.08 341.124C207.045 341.378 206.826 341.55 206.584 341.55ZM194.667 339.455C194.633 339.455 194.61 339.455 194.575 339.443L188.611 338.395C188.335 338.349 188.15 338.085 188.197 337.808C188.243 337.532 188.507 337.348 188.784 337.394L194.748 338.442C195.024 338.488 195.209 338.752 195.163 339.029C195.128 339.282 194.909 339.455 194.667 339.455Z" fill="#BFC8D6"/>
<path d="M182.739 337.372C182.704 337.372 182.681 337.372 182.647 337.36L179.619 336.83C179.457 336.796 179.308 336.692 179.239 336.543C179.17 336.393 179.181 336.209 179.262 336.07L180.839 333.434C180.989 333.192 181.3 333.111 181.542 333.261C181.783 333.411 181.864 333.722 181.714 333.963L180.517 335.955L182.808 336.358C183.084 336.404 183.269 336.669 183.223 336.946C183.2 337.199 182.981 337.372 182.739 337.372Z" fill="#BFC8D6"/>
<path d="M184.535 328.805C184.443 328.805 184.351 328.782 184.27 328.736C184.028 328.587 183.948 328.276 184.098 328.034L187.344 322.634C187.494 322.392 187.805 322.312 188.047 322.461C188.289 322.611 188.369 322.922 188.22 323.164L184.973 328.564C184.88 328.713 184.708 328.805 184.535 328.805ZM191.029 317.994C190.937 317.994 190.845 317.971 190.764 317.925C190.522 317.775 190.442 317.464 190.591 317.222L193.838 311.822C193.988 311.58 194.299 311.5 194.541 311.65C194.783 311.799 194.863 312.11 194.713 312.352L191.467 317.752C191.374 317.913 191.202 317.994 191.029 317.994ZM197.511 307.194C197.419 307.194 197.327 307.171 197.247 307.125C197.005 306.975 196.924 306.664 197.074 306.422L200.321 301.022C200.47 300.78 200.781 300.7 201.023 300.849C201.265 300.999 201.346 301.31 201.196 301.552L197.949 306.952C197.857 307.101 197.684 307.194 197.511 307.194ZM204.005 296.382C203.913 296.382 203.821 296.359 203.74 296.313C203.499 296.163 203.418 295.852 203.568 295.61L206.815 290.21C206.964 289.969 207.275 289.888 207.517 290.038C207.759 290.187 207.839 290.498 207.69 290.74L204.443 296.14C204.351 296.301 204.178 296.382 204.005 296.382ZM210.488 285.582C210.396 285.582 210.304 285.559 210.223 285.513C209.981 285.363 209.901 285.052 210.05 284.81L213.297 279.41C213.447 279.168 213.758 279.088 214 279.237C214.241 279.387 214.322 279.698 214.172 279.94L210.925 285.34C210.833 285.49 210.66 285.582 210.488 285.582ZM216.982 274.77C216.89 274.77 216.797 274.747 216.717 274.701C216.475 274.551 216.394 274.24 216.544 273.999L219.791 268.598C219.941 268.357 220.252 268.276 220.493 268.426C220.735 268.575 220.816 268.886 220.666 269.128L217.419 274.528C217.327 274.678 217.154 274.77 216.982 274.77ZM223.464 263.97C223.372 263.97 223.28 263.947 223.199 263.901C222.957 263.751 222.877 263.44 223.027 263.198L226.273 257.798C226.423 257.556 226.734 257.476 226.976 257.626C227.218 257.775 227.298 258.086 227.149 258.328L223.902 263.728C223.809 263.878 223.637 263.97 223.464 263.97ZM229.958 253.158C229.866 253.158 229.774 253.135 229.693 253.089C229.451 252.939 229.371 252.628 229.52 252.387L232.767 246.987C232.917 246.745 233.228 246.664 233.47 246.814C233.712 246.964 233.792 247.274 233.642 247.516L230.396 252.916C230.303 253.066 230.131 253.158 229.958 253.158ZM236.44 242.346C236.348 242.346 236.256 242.323 236.176 242.277C235.934 242.128 235.853 241.817 236.003 241.575L239.25 236.175C239.4 235.933 239.71 235.852 239.952 236.002C240.194 236.152 240.275 236.463 240.125 236.705L236.878 242.105C236.786 242.266 236.613 242.346 236.44 242.346ZM242.934 231.546C242.842 231.546 242.75 231.523 242.67 231.477C242.428 231.327 242.347 231.017 242.497 230.775L245.744 225.375C245.893 225.133 246.204 225.052 246.446 225.202C246.688 225.352 246.769 225.663 246.619 225.904L243.372 231.304C243.268 231.454 243.107 231.546 242.934 231.546ZM249.417 220.735C249.325 220.735 249.233 220.712 249.152 220.665C248.91 220.516 248.83 220.205 248.979 219.963L252.226 214.563C252.376 214.321 252.687 214.241 252.929 214.39C253.17 214.54 253.251 214.851 253.101 215.093L249.854 220.493C249.762 220.654 249.589 220.735 249.417 220.735ZM255.911 209.934C255.819 209.934 255.726 209.911 255.646 209.865C255.404 209.716 255.323 209.405 255.473 209.163L258.72 203.763C258.87 203.521 259.181 203.44 259.422 203.59C259.664 203.74 259.745 204.051 259.595 204.292L256.348 209.693C256.245 209.842 256.083 209.934 255.911 209.934ZM262.393 199.123C262.301 199.123 262.209 199.1 262.128 199.054C261.886 198.904 261.806 198.593 261.956 198.351L265.203 192.951C265.352 192.709 265.663 192.629 265.905 192.778C266.147 192.928 266.227 193.239 266.078 193.481L262.831 198.881C262.738 199.031 262.566 199.123 262.393 199.123ZM268.887 188.322C268.795 188.322 268.703 188.299 268.622 188.253C268.38 188.104 268.3 187.793 268.449 187.551L271.696 182.151C271.846 181.909 272.157 181.829 272.399 181.978C272.641 182.128 272.721 182.439 272.572 182.681L269.325 188.081C269.221 188.23 269.06 188.322 268.887 188.322ZM275.369 177.511C275.277 177.511 275.185 177.488 275.105 177.442C274.863 177.292 274.782 176.981 274.932 176.739L278.179 171.339C278.329 171.097 278.639 171.017 278.881 171.167C279.123 171.316 279.204 171.627 279.054 171.869L275.807 177.269C275.715 177.419 275.542 177.511 275.369 177.511ZM281.863 166.699C281.771 166.699 281.679 166.676 281.599 166.63C281.357 166.48 281.276 166.169 281.426 165.928L284.673 160.528C284.822 160.286 285.133 160.205 285.375 160.355C285.617 160.505 285.698 160.815 285.548 161.057L282.301 166.457C282.197 166.618 282.036 166.699 281.863 166.699Z" fill="#BFC8D6"/>
<path d="M288.346 155.899C288.254 155.899 288.162 155.876 288.081 155.83C287.839 155.68 287.759 155.369 287.909 155.127L289.486 152.49C289.636 152.249 289.947 152.168 290.188 152.318C290.43 152.467 290.511 152.778 290.361 153.02L288.784 155.657C288.691 155.806 288.519 155.899 288.346 155.899Z" fill="#BFC8D6"/>
<path d="M125.134 265.028C124.973 265.028 124.812 264.947 124.72 264.809L122.947 262.299C122.831 262.138 122.82 261.907 122.924 261.735L124.524 259.11C124.674 258.868 124.985 258.787 125.226 258.937C125.468 259.087 125.549 259.397 125.399 259.639L123.971 261.977L125.549 264.21C125.71 264.441 125.652 264.763 125.422 264.924C125.33 265.005 125.238 265.028 125.134 265.028Z" fill="#BFC8D6"/>
<path d="M128.116 254.712C128.024 254.712 127.932 254.689 127.851 254.631C127.609 254.481 127.529 254.17 127.679 253.929L130.845 248.747C130.995 248.506 131.305 248.425 131.547 248.575C131.789 248.724 131.87 249.035 131.72 249.277L128.554 254.458C128.462 254.631 128.289 254.712 128.116 254.712ZM134.437 244.349C134.345 244.349 134.253 244.326 134.172 244.268C133.931 244.119 133.85 243.808 134 243.566L137.166 238.385C137.316 238.143 137.627 238.062 137.869 238.212C138.11 238.362 138.191 238.673 138.041 238.914L134.875 244.096C134.783 244.257 134.61 244.349 134.437 244.349ZM140.77 233.986C140.678 233.986 140.586 233.963 140.505 233.906C140.263 233.756 140.183 233.445 140.333 233.203L143.499 228.022C143.649 227.78 143.959 227.7 144.201 227.849C144.443 227.999 144.524 228.31 144.374 228.552L141.208 233.733C141.104 233.894 140.943 233.986 140.77 233.986ZM147.091 223.612C146.999 223.612 146.907 223.589 146.826 223.532C146.585 223.382 146.504 223.071 146.654 222.829L149.82 217.648C149.97 217.406 150.281 217.325 150.522 217.475C150.764 217.625 150.845 217.936 150.695 218.177L147.529 223.359C147.437 223.532 147.264 223.612 147.091 223.612ZM153.412 213.249C153.32 213.249 153.228 213.226 153.148 213.169C152.906 213.019 152.825 212.708 152.975 212.467L156.141 207.285C156.291 207.043 156.602 206.963 156.844 207.112C157.085 207.262 157.166 207.573 157.016 207.815L153.85 212.996C153.758 213.157 153.585 213.249 153.412 213.249ZM159.745 202.887C159.653 202.887 159.561 202.864 159.48 202.806C159.239 202.657 159.158 202.346 159.308 202.104L162.474 196.923C162.624 196.681 162.935 196.6 163.176 196.75C163.418 196.9 163.499 197.21 163.349 197.452L160.183 202.634C160.079 202.795 159.918 202.887 159.745 202.887ZM166.066 192.513C165.974 192.513 165.882 192.49 165.802 192.432C165.56 192.282 165.479 191.972 165.629 191.73L168.795 186.548C168.945 186.307 169.256 186.226 169.498 186.376C169.739 186.525 169.82 186.836 169.67 187.078L166.504 192.259C166.412 192.432 166.239 192.513 166.066 192.513ZM172.388 182.15C172.296 182.15 172.203 182.127 172.123 182.069C171.881 181.92 171.8 181.609 171.95 181.367L175.116 176.186C175.266 175.944 175.577 175.863 175.819 176.013C176.061 176.163 176.141 176.474 175.992 176.715L172.825 181.897C172.733 182.058 172.56 182.15 172.388 182.15Z" fill="#BFC8D6"/>
<path d="M178.721 171.788C178.629 171.788 178.537 171.765 178.456 171.708C178.214 171.558 178.134 171.247 178.284 171.005L179.884 168.38C179.965 168.254 180.091 168.161 180.241 168.138L183.269 167.62C183.545 167.574 183.81 167.759 183.856 168.035C183.902 168.311 183.718 168.576 183.442 168.622L180.644 169.094L179.17 171.524C179.055 171.696 178.894 171.788 178.721 171.788Z" fill="#BFC8D6"/>
<path d="M398.351 267.389C398.132 267.389 397.937 267.251 397.868 267.032L396.002 261.298C395.91 261.034 396.06 260.746 396.336 260.654C396.601 260.562 396.889 260.711 396.981 260.988L398.846 266.722C398.938 266.986 398.789 267.274 398.512 267.366C398.455 267.378 398.397 267.389 398.351 267.389ZM394.609 255.921C394.39 255.921 394.195 255.783 394.126 255.564L392.26 249.83C392.168 249.566 392.318 249.278 392.594 249.186C392.859 249.094 393.147 249.243 393.239 249.52L395.104 255.254C395.196 255.518 395.047 255.806 394.77 255.898C394.713 255.91 394.667 255.921 394.609 255.921ZM390.879 244.453C390.66 244.453 390.464 244.315 390.395 244.096L388.53 238.362C388.438 238.098 388.587 237.81 388.864 237.718C389.128 237.626 389.416 237.775 389.508 238.052L391.374 243.786C391.466 244.05 391.316 244.338 391.04 244.43C390.982 244.453 390.925 244.453 390.879 244.453ZM387.137 232.985C386.918 232.985 386.722 232.847 386.653 232.628L384.788 226.894C384.696 226.63 384.845 226.342 385.122 226.25C385.386 226.158 385.674 226.307 385.766 226.584L387.632 232.318C387.724 232.582 387.574 232.87 387.298 232.962C387.24 232.985 387.194 232.985 387.137 232.985ZM383.394 221.529C383.176 221.529 382.98 221.391 382.911 221.172L381.046 215.438C380.953 215.173 381.103 214.885 381.38 214.793C381.644 214.701 381.932 214.851 382.024 215.127L383.89 220.861C383.982 221.126 383.832 221.414 383.556 221.506C383.51 221.517 383.452 221.529 383.394 221.529ZM379.664 210.061C379.445 210.061 379.249 209.923 379.18 209.704L377.511 204.569L377.292 204.43C377.05 204.281 376.981 203.97 377.119 203.728C377.269 203.486 377.58 203.417 377.822 203.555L378.202 203.786C378.305 203.855 378.386 203.947 378.42 204.062L380.148 209.37C380.24 209.635 380.09 209.923 379.814 210.015C379.768 210.049 379.71 210.061 379.664 210.061ZM372.422 201.345C372.329 201.345 372.237 201.322 372.157 201.264L367.021 198.098C366.78 197.948 366.711 197.637 366.849 197.395C366.998 197.154 367.309 197.085 367.551 197.223L372.686 200.389C372.928 200.539 372.997 200.85 372.859 201.091C372.755 201.264 372.594 201.345 372.422 201.345ZM362.151 195.023C362.059 195.023 361.967 195 361.886 194.943L356.751 191.777C356.509 191.627 356.44 191.316 356.578 191.074C356.728 190.832 357.039 190.763 357.281 190.901L362.416 194.068C362.658 194.218 362.727 194.528 362.589 194.77C362.496 194.931 362.324 195.023 362.151 195.023ZM351.892 188.691C351.8 188.691 351.708 188.668 351.627 188.61L346.492 185.444C346.25 185.294 346.181 184.983 346.319 184.741C346.469 184.5 346.78 184.431 347.022 184.569L352.157 187.735C352.399 187.885 352.468 188.196 352.33 188.437C352.226 188.599 352.065 188.691 351.892 188.691ZM341.621 182.358C341.529 182.358 341.437 182.335 341.357 182.277L336.221 179.111C335.98 178.961 335.911 178.651 336.049 178.409C336.198 178.167 336.509 178.098 336.751 178.236L341.886 181.402C342.128 181.552 342.197 181.863 342.059 182.105C341.967 182.277 341.794 182.358 341.621 182.358ZM331.362 176.025C331.27 176.025 331.178 176.002 331.098 175.945L325.962 172.778C325.721 172.629 325.651 172.318 325.79 172.076C325.939 171.834 326.25 171.765 326.492 171.903L331.627 175.07C331.869 175.219 331.938 175.53 331.8 175.772C331.696 175.945 331.535 176.025 331.362 176.025ZM321.092 169.704C321 169.704 320.908 169.681 320.827 169.623L315.692 166.457C315.45 166.307 315.381 165.997 315.519 165.755C315.669 165.513 315.98 165.444 316.221 165.582L321.357 168.748C321.599 168.898 321.668 169.209 321.529 169.451C321.437 169.612 321.265 169.704 321.092 169.704ZM189.291 167.632C189.049 167.632 188.83 167.459 188.784 167.206C188.738 166.929 188.922 166.664 189.198 166.618L195.14 165.605C195.416 165.559 195.681 165.743 195.727 166.02C195.773 166.296 195.589 166.561 195.312 166.607L189.371 167.62C189.348 167.632 189.325 167.632 189.291 167.632ZM201.185 165.617C200.943 165.617 200.724 165.444 200.678 165.191C200.632 164.914 200.816 164.649 201.092 164.603L207.034 163.59C207.31 163.544 207.575 163.728 207.621 164.005C207.667 164.281 207.483 164.546 207.206 164.592L201.265 165.605C201.242 165.605 201.208 165.617 201.185 165.617ZM213.067 163.59C212.825 163.59 212.606 163.417 212.56 163.164C212.514 162.888 212.699 162.623 212.975 162.577L218.916 161.564C219.193 161.518 219.457 161.702 219.503 161.978C219.549 162.254 219.365 162.519 219.089 162.565L213.148 163.579C213.125 163.59 213.102 163.59 213.067 163.59ZM310.833 163.371C310.741 163.371 310.649 163.348 310.568 163.291L305.433 160.124C305.191 159.975 305.122 159.664 305.26 159.422C305.41 159.18 305.721 159.111 305.962 159.249L311.098 162.416C311.34 162.565 311.409 162.876 311.27 163.118C311.167 163.279 311.006 163.371 310.833 163.371ZM224.961 161.564C224.719 161.564 224.501 161.391 224.454 161.138C224.408 160.861 224.593 160.596 224.869 160.55L230.81 159.537C231.087 159.491 231.351 159.675 231.397 159.952C231.443 160.228 231.259 160.493 230.983 160.539L225.042 161.552C225.019 161.564 224.984 161.564 224.961 161.564ZM236.855 159.549C236.613 159.549 236.395 159.376 236.348 159.123C236.302 158.846 236.487 158.582 236.763 158.535L242.704 157.522C242.981 157.476 243.245 157.66 243.291 157.937C243.338 158.213 243.153 158.478 242.877 158.524L236.936 159.537C236.913 159.537 236.878 159.549 236.855 159.549ZM248.738 157.522C248.496 157.522 248.277 157.35 248.231 157.096C248.185 156.82 248.369 156.555 248.645 156.509L254.587 155.496C254.863 155.45 255.128 155.634 255.174 155.91C255.22 156.187 255.036 156.451 254.759 156.497L248.818 157.511C248.795 157.522 248.772 157.522 248.738 157.522ZM300.562 157.039C300.47 157.039 300.378 157.016 300.298 156.958L295.162 153.792C294.92 153.642 294.851 153.331 294.99 153.089C295.139 152.848 295.45 152.778 295.692 152.917L300.827 156.083C301.069 156.233 301.138 156.544 301 156.785C300.908 156.958 300.735 157.039 300.562 157.039ZM260.632 155.496C260.39 155.496 260.171 155.323 260.125 155.07C260.079 154.793 260.263 154.529 260.54 154.483L266.481 153.469C266.757 153.423 267.022 153.607 267.068 153.884C267.114 154.16 266.93 154.425 266.653 154.471L260.712 155.484C260.689 155.496 260.655 155.496 260.632 155.496ZM272.514 153.481C272.272 153.481 272.054 153.308 272.008 153.055C271.961 152.778 272.146 152.514 272.422 152.468L278.363 151.454C278.64 151.408 278.904 151.592 278.95 151.869C278.997 152.145 278.812 152.41 278.536 152.456L272.595 153.469C272.572 153.481 272.549 153.481 272.514 153.481ZM284.408 151.454C284.166 151.454 283.948 151.282 283.902 151.028C283.855 150.752 284.04 150.487 284.316 150.441L289.889 149.497C290.015 149.474 290.142 149.497 290.246 149.566L290.568 149.762C290.81 149.911 290.879 150.222 290.741 150.464C290.591 150.706 290.28 150.775 290.039 150.637L289.877 150.533L284.5 151.443C284.466 151.454 284.431 151.454 284.408 151.454Z" fill="#BFC8D6"/>
<path d="M399.572 278.673C399.48 278.673 399.388 278.65 399.307 278.604C399.066 278.454 398.985 278.143 399.135 277.901L400.608 275.472L399.733 272.777C399.641 272.513 399.791 272.225 400.067 272.133C400.332 272.041 400.62 272.19 400.712 272.467L401.668 275.391C401.714 275.529 401.691 275.69 401.622 275.817L400.033 278.442C399.918 278.581 399.745 278.673 399.572 278.673Z" fill="#BFC8D6"/>
<path d="M249.508 396.635C249.29 396.635 249.094 396.497 249.025 396.278C248.944 396.013 249.094 395.725 249.359 395.633L255.081 393.837C255.357 393.756 255.634 393.906 255.726 394.171C255.807 394.436 255.657 394.724 255.392 394.816L249.67 396.612C249.612 396.623 249.554 396.635 249.508 396.635ZM260.965 393.043C260.746 393.043 260.55 392.904 260.481 392.686C260.401 392.421 260.55 392.133 260.815 392.041L266.538 390.245C266.814 390.164 267.09 390.314 267.182 390.579C267.263 390.843 267.113 391.131 266.848 391.223L261.126 393.02C261.068 393.031 261.011 393.043 260.965 393.043ZM272.41 389.45C272.191 389.45 271.995 389.312 271.926 389.093C271.846 388.828 271.995 388.541 272.26 388.448L277.983 386.652C278.247 386.572 278.535 386.721 278.627 386.986C278.708 387.251 278.558 387.539 278.293 387.631L272.571 389.427C272.513 389.439 272.467 389.45 272.41 389.45ZM283.866 385.858C283.648 385.858 283.452 385.72 283.383 385.501C283.302 385.236 283.452 384.948 283.717 384.856L289.439 383.06C289.715 382.979 289.992 383.129 290.084 383.394C290.164 383.659 290.015 383.947 289.75 384.039L284.027 385.835C283.97 385.846 283.912 385.858 283.866 385.858ZM295.323 382.265C295.104 382.265 294.908 382.127 294.839 381.909C294.759 381.644 294.908 381.356 295.173 381.264L300.896 379.468C301.172 379.387 301.448 379.537 301.54 379.801C301.621 380.066 301.471 380.354 301.206 380.446L295.484 382.242C295.415 382.254 295.369 382.265 295.323 382.265ZM306.768 378.662C306.549 378.662 306.353 378.523 306.284 378.305C306.204 378.04 306.353 377.752 306.618 377.66L312.341 375.864C312.617 375.783 312.893 375.933 312.985 376.198C313.066 376.462 312.916 376.75 312.651 376.842L306.929 378.639C306.871 378.662 306.825 378.662 306.768 378.662ZM318.224 375.069C318.005 375.069 317.81 374.931 317.741 374.712C317.66 374.447 317.81 374.16 318.075 374.067L323.797 372.271C324.062 372.191 324.35 372.34 324.442 372.605C324.522 372.87 324.373 373.158 324.108 373.25L318.385 375.046C318.328 375.069 318.27 375.069 318.224 375.069ZM329.669 371.477C329.45 371.477 329.255 371.339 329.186 371.12C329.105 370.855 329.255 370.567 329.52 370.475L335.242 368.679C335.518 368.598 335.795 368.748 335.887 369.013C335.967 369.278 335.818 369.565 335.553 369.658L329.83 371.454C329.773 371.465 329.727 371.477 329.669 371.477ZM341.126 367.884C340.907 367.884 340.711 367.746 340.642 367.527C340.561 367.263 340.711 366.975 340.976 366.883L346.284 365.213L346.307 365.167C346.457 364.925 346.768 364.845 347.009 364.994C347.251 365.144 347.332 365.455 347.182 365.697L347.055 365.904C346.986 366.008 346.894 366.088 346.768 366.123L341.275 367.85C341.229 367.873 341.172 367.884 341.126 367.884ZM349.853 360.815C349.761 360.815 349.669 360.792 349.589 360.746C349.347 360.596 349.266 360.285 349.416 360.043L352.525 354.908C352.674 354.666 352.985 354.586 353.227 354.735C353.469 354.885 353.549 355.196 353.4 355.438L350.291 360.573C350.199 360.734 350.026 360.815 349.853 360.815ZM356.071 350.556C355.979 350.556 355.887 350.533 355.806 350.487C355.564 350.337 355.484 350.026 355.633 349.784L358.742 344.649C358.892 344.407 359.203 344.327 359.445 344.476C359.686 344.626 359.767 344.937 359.617 345.179L356.508 350.314C356.416 350.464 356.244 350.556 356.071 350.556ZM362.289 340.285C362.196 340.285 362.104 340.262 362.024 340.216C361.782 340.066 361.701 339.756 361.851 339.514L364.96 334.378C365.109 334.137 365.42 334.056 365.662 334.206C365.904 334.355 365.985 334.666 365.835 334.908L362.726 340.043C362.622 340.193 362.461 340.285 362.289 340.285ZM368.495 330.015C368.402 330.015 368.31 329.992 368.23 329.946C367.988 329.796 367.907 329.485 368.057 329.243L371.166 324.108C371.316 323.866 371.626 323.786 371.868 323.935C372.11 324.085 372.191 324.396 372.041 324.638L368.932 329.773C368.84 329.923 368.667 330.015 368.495 330.015ZM374.712 319.744C374.62 319.744 374.528 319.721 374.447 319.675C374.206 319.525 374.125 319.214 374.275 318.973L377.383 313.837C377.533 313.596 377.844 313.515 378.086 313.665C378.328 313.814 378.408 314.125 378.258 314.367L375.15 319.502C375.058 319.652 374.885 319.744 374.712 319.744ZM380.93 309.474C380.838 309.474 380.746 309.451 380.665 309.404C380.423 309.255 380.343 308.944 380.492 308.702L383.601 303.567C383.751 303.325 384.062 303.244 384.303 303.394C384.545 303.544 384.626 303.855 384.476 304.097L381.367 309.232C381.275 309.393 381.102 309.474 380.93 309.474ZM387.147 299.215C387.055 299.215 386.963 299.192 386.883 299.145C386.641 298.996 386.56 298.685 386.71 298.443L389.819 293.308C389.968 293.066 390.279 292.985 390.521 293.135C390.763 293.285 390.843 293.596 390.694 293.837L387.585 298.973C387.493 299.122 387.32 299.215 387.147 299.215ZM393.365 288.944C393.273 288.944 393.181 288.921 393.1 288.875C392.858 288.725 392.778 288.414 392.927 288.173L396.036 283.037C396.186 282.796 396.497 282.715 396.739 282.865C396.98 283.014 397.061 283.325 396.911 283.567L393.802 288.702C393.699 288.852 393.538 288.944 393.365 288.944Z" fill="#BFC8D6"/>
<path d="M240.849 399.352C240.723 399.352 240.596 399.306 240.504 399.214L238.27 397.107C238.063 396.911 238.052 396.589 238.247 396.382C238.443 396.174 238.765 396.163 238.973 396.359L240.988 398.258L243.636 397.429C243.901 397.349 244.189 397.499 244.281 397.763C244.361 398.028 244.212 398.316 243.947 398.408L241.011 399.329C240.953 399.341 240.907 399.352 240.849 399.352Z" fill="#BFC8D6"/>
<path d="M234.221 393.101C234.094 393.101 233.968 393.055 233.876 392.962L229.477 388.817C229.27 388.622 229.259 388.299 229.454 388.092C229.65 387.885 229.972 387.873 230.18 388.069L234.578 392.214C234.785 392.41 234.797 392.732 234.601 392.939C234.497 393.055 234.359 393.101 234.221 393.101ZM225.424 384.822C225.298 384.822 225.171 384.776 225.079 384.684L220.681 380.539C220.473 380.343 220.462 380.021 220.658 379.813C220.853 379.606 221.176 379.595 221.383 379.79L225.781 383.935C225.989 384.131 226 384.454 225.804 384.661C225.701 384.776 225.563 384.822 225.424 384.822ZM216.639 376.543C216.512 376.543 216.386 376.497 216.294 376.405L211.895 372.26C211.688 372.064 211.677 371.742 211.872 371.535C212.068 371.328 212.39 371.316 212.598 371.512L216.996 375.657C217.203 375.853 217.215 376.175 217.019 376.382C216.915 376.497 216.777 376.543 216.639 376.543ZM207.842 368.265C207.716 368.265 207.589 368.219 207.497 368.127L203.099 363.982C202.891 363.786 202.88 363.463 203.076 363.256C203.271 363.049 203.594 363.037 203.801 363.233L208.199 367.378C208.407 367.574 208.418 367.896 208.222 368.104C208.119 368.219 207.981 368.265 207.842 368.265ZM199.057 359.986C198.93 359.986 198.804 359.94 198.712 359.848L194.313 355.703C194.106 355.507 194.095 355.185 194.29 354.978C194.486 354.77 194.808 354.759 195.016 354.955L199.414 359.1C199.621 359.295 199.633 359.618 199.437 359.825C199.322 359.94 199.195 359.986 199.057 359.986ZM190.26 351.708C190.134 351.708 190.007 351.662 189.915 351.569L185.517 347.424C185.309 347.229 185.298 346.906 185.494 346.699C185.689 346.492 186.012 346.48 186.219 346.676L190.617 350.821C190.825 351.017 190.836 351.339 190.64 351.546C190.537 351.661 190.399 351.708 190.26 351.708ZM181.475 343.429C181.349 343.429 181.222 343.383 181.13 343.291L178.689 340.988C178.666 340.965 178.643 340.942 178.62 340.907L177.065 338.72C176.904 338.489 176.962 338.167 177.192 338.006C177.422 337.845 177.745 337.902 177.906 338.132L179.426 340.286L181.832 342.554C182.039 342.75 182.051 343.072 181.855 343.279C181.74 343.383 181.613 343.429 181.475 343.429ZM173.991 334.01C173.83 334.01 173.669 333.93 173.577 333.792L170.088 328.864C169.927 328.633 169.984 328.311 170.214 328.15C170.445 327.989 170.767 328.046 170.928 328.276L174.417 333.204C174.578 333.435 174.521 333.757 174.29 333.918C174.198 333.987 174.095 334.01 173.991 334.01ZM167.014 324.166C166.852 324.166 166.691 324.085 166.599 323.947L163.11 319.019C162.949 318.789 163.007 318.466 163.237 318.305C163.467 318.144 163.79 318.202 163.951 318.432L167.44 323.36C167.601 323.59 167.543 323.913 167.313 324.074C167.221 324.131 167.117 324.166 167.014 324.166ZM160.036 314.31C159.875 314.31 159.714 314.229 159.622 314.091L156.133 309.163C155.972 308.933 156.029 308.61 156.259 308.449C156.49 308.288 156.812 308.346 156.973 308.576L160.462 313.504C160.623 313.734 160.566 314.057 160.335 314.218C160.232 314.275 160.128 314.31 160.036 314.31ZM153.047 304.454C152.886 304.454 152.725 304.373 152.632 304.235L149.144 299.307C148.983 299.077 149.04 298.754 149.27 298.593C149.501 298.432 149.823 298.49 149.984 298.72L153.473 303.648C153.634 303.878 153.577 304.201 153.346 304.362C153.254 304.419 153.151 304.454 153.047 304.454ZM146.069 294.598C145.908 294.598 145.747 294.517 145.655 294.379L142.166 289.451C142.005 289.221 142.063 288.898 142.293 288.737C142.523 288.576 142.846 288.634 143.007 288.864L146.495 293.792C146.657 294.022 146.599 294.345 146.369 294.506C146.277 294.563 146.173 294.598 146.069 294.598ZM139.092 284.742C138.931 284.742 138.77 284.661 138.677 284.523L135.189 279.595C135.027 279.365 135.085 279.042 135.315 278.881C135.546 278.72 135.868 278.778 136.029 279.008L139.518 283.936C139.679 284.166 139.622 284.489 139.391 284.65C139.299 284.707 139.196 284.742 139.092 284.742ZM132.114 274.886C131.953 274.886 131.792 274.805 131.7 274.667L128.211 269.739C128.05 269.509 128.108 269.186 128.338 269.025C128.568 268.864 128.89 268.922 129.052 269.152L132.54 274.08C132.702 274.31 132.644 274.632 132.414 274.794C132.322 274.851 132.218 274.886 132.114 274.886Z" fill="#BFC8D6"/>
<path d="M290.74 156.232C290.51 156.232 290.314 156.083 290.245 155.852L289.439 152.882C289.37 152.605 289.531 152.329 289.796 152.248C290.073 152.179 290.349 152.341 290.43 152.605L291.236 155.576C291.305 155.852 291.143 156.129 290.879 156.209C290.821 156.221 290.775 156.232 290.74 156.232Z" fill="#BFC8D6"/>
<path d="M344.8 354.827C344.57 354.827 344.374 354.677 344.305 354.447L342.716 348.609C342.647 348.333 342.809 348.057 343.073 347.976C343.35 347.907 343.626 348.068 343.707 348.333L345.296 354.171C345.365 354.447 345.203 354.723 344.939 354.804C344.893 354.816 344.847 354.827 344.8 354.827ZM341.623 343.14C341.392 343.14 341.197 342.991 341.127 342.76L339.539 336.923C339.469 336.646 339.631 336.37 339.896 336.289C340.172 336.22 340.448 336.382 340.529 336.646L342.118 342.484C342.187 342.76 342.026 343.037 341.761 343.117C341.715 343.14 341.669 343.14 341.623 343.14ZM338.445 331.465C338.214 331.465 338.019 331.315 337.95 331.085L336.361 325.247C336.292 324.971 336.453 324.695 336.718 324.614C336.994 324.545 337.27 324.706 337.351 324.971L338.94 330.809C339.009 331.085 338.848 331.361 338.583 331.442C338.525 331.454 338.491 331.465 338.445 331.465ZM335.255 319.778C335.025 319.778 334.829 319.629 334.76 319.398L333.171 313.561C333.102 313.284 333.263 313.008 333.528 312.927C333.805 312.858 334.081 313.02 334.161 313.284L335.75 319.122C335.82 319.398 335.658 319.675 335.393 319.755C335.347 319.767 335.301 319.778 335.255 319.778ZM332.077 308.092C331.847 308.092 331.651 307.942 331.582 307.712L329.993 301.874C329.924 301.598 330.086 301.321 330.35 301.241C330.627 301.172 330.903 301.333 330.984 301.598L332.573 307.435C332.642 307.712 332.48 307.988 332.216 308.068C332.17 308.092 332.124 308.092 332.077 308.092ZM328.9 296.416C328.669 296.416 328.474 296.267 328.404 296.036L326.816 290.199C326.746 289.922 326.908 289.646 327.172 289.565C327.449 289.496 327.725 289.657 327.806 289.922L329.395 295.76C329.464 296.036 329.303 296.313 329.038 296.393C328.992 296.405 328.946 296.416 328.9 296.416ZM325.722 284.729C325.491 284.729 325.296 284.58 325.227 284.35L323.638 278.512C323.569 278.236 323.73 277.959 323.995 277.879C324.271 277.81 324.547 277.971 324.628 278.236L326.217 284.073C326.286 284.35 326.125 284.626 325.86 284.706C325.814 284.729 325.768 284.729 325.722 284.729ZM322.544 273.054C322.314 273.054 322.118 272.905 322.049 272.674L320.46 266.837C320.391 266.56 320.552 266.284 320.817 266.203C321.093 266.134 321.369 266.295 321.45 266.56L323.039 272.398C323.108 272.674 322.947 272.951 322.682 273.031C322.624 273.043 322.578 273.054 322.544 273.054ZM319.354 261.367C319.124 261.367 318.928 261.218 318.859 260.988L317.27 255.15C317.201 254.874 317.363 254.597 317.627 254.517C317.904 254.448 318.18 254.609 318.261 254.874L319.85 260.711C319.919 260.988 319.757 261.264 319.493 261.344C319.447 261.356 319.4 261.367 319.354 261.367ZM316.177 249.681C315.946 249.681 315.751 249.531 315.681 249.301L314.092 243.463C314.023 243.187 314.185 242.91 314.449 242.83C314.726 242.761 315.002 242.922 315.083 243.187L316.672 249.024C316.741 249.301 316.58 249.577 316.315 249.658C316.269 249.681 316.223 249.681 316.177 249.681ZM312.999 238.005C312.768 238.005 312.573 237.856 312.504 237.625L310.915 231.788C310.846 231.512 311.007 231.235 311.272 231.155C311.548 231.086 311.824 231.247 311.905 231.512L313.494 237.349C313.563 237.625 313.402 237.902 313.137 237.982C313.091 237.994 313.045 238.005 312.999 238.005ZM309.821 226.319C309.591 226.319 309.395 226.169 309.326 225.939L307.737 220.101C307.668 219.825 307.829 219.548 308.094 219.468C308.37 219.399 308.646 219.56 308.727 219.825L310.316 225.662C310.385 225.939 310.224 226.215 309.959 226.296C309.913 226.319 309.867 226.319 309.821 226.319ZM306.643 214.643C306.413 214.643 306.217 214.494 306.148 214.263L304.559 208.426C304.49 208.15 304.651 207.873 304.916 207.793C305.192 207.723 305.468 207.885 305.549 208.15L307.138 213.987C307.207 214.263 307.046 214.54 306.781 214.62C306.723 214.632 306.677 214.643 306.643 214.643ZM303.454 202.957C303.223 202.957 303.027 202.807 302.958 202.577L301.369 196.739C301.3 196.463 301.462 196.186 301.726 196.106C302.003 196.037 302.279 196.198 302.36 196.463L303.949 202.3C304.018 202.577 303.856 202.853 303.592 202.934C303.546 202.945 303.5 202.957 303.454 202.957ZM300.276 191.27C300.045 191.27 299.85 191.12 299.781 190.89L298.192 185.052C298.123 184.776 298.284 184.5 298.549 184.419C298.825 184.35 299.101 184.511 299.182 184.776L300.771 190.614C300.84 190.89 300.679 191.166 300.414 191.247C300.368 191.27 300.322 191.27 300.276 191.27ZM297.098 179.595C296.867 179.595 296.672 179.445 296.603 179.215L295.014 173.377C294.945 173.101 295.106 172.824 295.371 172.744C295.647 172.675 295.923 172.836 296.004 173.101L297.593 178.938C297.662 179.215 297.501 179.491 297.236 179.572C297.19 179.583 297.144 179.595 297.098 179.595ZM293.92 167.908C293.69 167.908 293.494 167.758 293.425 167.528L291.836 161.69C291.767 161.414 291.928 161.138 292.193 161.057C292.469 160.988 292.745 161.149 292.826 161.414L294.415 167.252C294.484 167.528 294.323 167.804 294.058 167.885C294.012 167.908 293.966 167.908 293.92 167.908Z" fill="#BFC8D6"/>
<path d="M347.192 363.635C346.962 363.635 346.766 363.485 346.697 363.255L345.891 360.284C345.822 360.008 345.983 359.731 346.248 359.651C346.524 359.582 346.801 359.743 346.881 360.008L347.687 362.978C347.756 363.255 347.595 363.531 347.33 363.612C347.284 363.623 347.238 363.635 347.192 363.635Z" fill="#BFC8D6"/>
<path d="M180.701 175.035C180.413 175.035 180.286 174.804 180.286 174.528V171.454C180.286 171.166 180.413 170.947 180.701 170.947C180.988 170.947 181.115 171.178 181.115 171.454V174.528C181.115 174.804 180.988 175.035 180.701 175.035Z" fill="#BFC8D6"/>
<path d="M180.701 331.764C180.413 331.764 180.286 331.533 180.286 331.257V328.183C180.286 327.895 180.413 327.676 180.701 327.676C180.988 327.676 181.115 327.907 181.115 328.183V331.257C181.115 331.545 180.988 331.764 180.701 331.764ZM180.701 322.553C180.413 322.553 180.286 322.322 180.286 322.046V315.897C180.286 315.61 180.413 315.391 180.701 315.391C180.988 315.391 181.115 315.621 181.115 315.897V322.046C181.115 322.322 180.988 322.553 180.701 322.553ZM180.701 310.256C180.413 310.256 180.286 310.025 180.286 309.749V303.6C180.286 303.313 180.413 303.094 180.701 303.094C180.988 303.094 181.115 303.324 181.115 303.6V309.749C181.115 310.025 180.988 310.256 180.701 310.256ZM180.701 297.959C180.413 297.959 180.286 297.728 180.286 297.452V291.303C180.286 291.016 180.413 290.797 180.701 290.797C180.988 290.797 181.115 291.027 181.115 291.303V297.452C181.115 297.728 180.988 297.959 180.701 297.959ZM180.701 285.673C180.413 285.673 180.286 285.443 180.286 285.166V279.018C180.286 278.73 180.413 278.511 180.701 278.511C180.988 278.511 181.115 278.742 181.115 279.018V285.166C181.115 285.443 180.988 285.673 180.701 285.673ZM180.701 273.376C180.413 273.376 180.286 273.146 180.286 272.869V266.721C180.286 266.433 180.413 266.214 180.701 266.214C180.988 266.214 181.115 266.445 181.115 266.721V272.869C181.115 273.146 180.988 273.376 180.701 273.376ZM180.701 261.079C180.413 261.079 180.286 260.849 180.286 260.572V254.424C180.286 254.136 180.413 253.917 180.701 253.917C180.988 253.917 181.115 254.148 181.115 254.424V260.572C181.115 260.849 180.988 261.079 180.701 261.079ZM180.701 248.793C180.413 248.793 180.286 248.563 180.286 248.287V242.138C180.286 241.851 180.413 241.632 180.701 241.632C180.988 241.632 181.115 241.862 181.115 242.138V248.287C181.115 248.563 180.988 248.793 180.701 248.793ZM180.701 236.496C180.413 236.496 180.286 236.266 180.286 235.99V229.841C180.286 229.554 180.413 229.335 180.701 229.335C180.988 229.335 181.115 229.565 181.115 229.841V235.99C181.115 236.266 180.988 236.496 180.701 236.496ZM180.701 224.199C180.413 224.199 180.286 223.969 180.286 223.693V217.544C180.286 217.256 180.413 217.038 180.701 217.038C180.988 217.038 181.115 217.268 181.115 217.544V223.693C181.115 223.969 180.988 224.199 180.701 224.199ZM180.701 211.914C180.413 211.914 180.286 211.684 180.286 211.407V205.259C180.286 204.971 180.413 204.752 180.701 204.752C180.988 204.752 181.115 204.983 181.115 205.259V211.407C181.115 211.684 180.988 211.914 180.701 211.914ZM180.701 199.617C180.413 199.617 180.286 199.387 180.286 199.11V192.962C180.286 192.674 180.413 192.455 180.701 192.455C180.988 192.455 181.115 192.685 181.115 192.962V199.11C181.115 199.387 180.988 199.617 180.701 199.617ZM180.701 187.32C180.413 187.32 180.286 187.09 180.286 186.813V180.665C180.286 180.377 180.413 180.158 180.701 180.158C180.988 180.158 181.115 180.388 181.115 180.665V186.813C181.115 187.09 180.988 187.32 180.701 187.32Z" fill="#BFC8D6"/>
<path d="M180.701 337.912C180.413 337.912 180.286 337.681 180.286 337.405V334.331C180.286 334.043 180.413 333.824 180.701 333.824C180.988 333.824 181.115 334.054 181.115 334.331V337.405C181.115 337.681 180.988 337.912 180.701 337.912Z" fill="#BFC8D6"/>
<path d="M271.017 340.608C267.966 340.7 264.995 339.928 262.416 338.385C254.563 333.676 242.969 325.916 232.537 315.749C219.296 302.842 211.697 289.727 210.027 276.843L210.004 276.636L209.682 221.679C209.682 210.821 216.763 202.001 230.062 196.21C241.046 191.42 255.611 189.048 271.006 189.497C286.216 189.935 300.286 193.078 310.706 198.305C323.084 204.523 329.589 213.251 329.589 223.613L329.29 276.129L329.267 276.325C327.747 288.656 320.746 301.402 308.38 314.298C298.455 324.638 287.252 332.836 279.549 337.913C277.016 339.594 274.057 340.527 271.017 340.608Z" fill="url(#paint0_linear_86_75263)"/>
<path d="M274.034 340.608C271.029 340.7 268.093 339.928 265.548 338.385C257.799 333.676 246.366 325.916 236.072 315.749C223.015 302.842 215.508 289.727 213.862 276.843L213.838 276.636L213.516 221.679C213.516 210.821 220.505 202.001 233.631 196.21C244.477 191.42 258.847 189.048 274.034 189.497C289.037 189.935 302.923 193.078 313.205 198.305C325.421 204.523 331.835 213.251 331.835 223.613L331.547 276.129L331.524 276.325C330.027 288.656 323.118 301.402 310.914 314.298C301.127 324.638 290.062 332.836 282.462 337.913C279.952 339.594 277.039 340.527 274.034 340.608Z" fill="url(#paint1_linear_86_75263)"/>
<path d="M217.154 221.725L217.477 276.405C221.081 304.303 253.861 326.894 268.15 335.472C272.238 337.936 277.476 337.786 281.529 335.115C295.507 325.915 326.503 302.749 329.819 275.921L330.119 223.555C330.107 184.707 217.154 181.161 217.154 221.725Z" fill="url(#paint2_linear_86_75263)"/>
<path d="M274.851 327.055C274.586 327.067 274.194 327.021 273.791 326.779C267.908 323.221 256.509 315.76 246.595 306.019C235.887 295.495 229.704 285.271 228.288 275.656L227.977 221.886C227.989 216.727 232.076 212.306 240.078 208.771C249.013 204.822 261.713 202.761 274.851 203.072C287.862 203.383 300.182 205.996 308.714 210.233C316.267 213.976 320.078 218.397 320.089 223.383L319.802 275.299C318.478 284.591 312.686 294.62 302.508 305.155C292.939 315.057 281.759 322.91 275.91 326.733C275.507 326.986 275.116 327.044 274.851 327.055Z" fill="url(#paint3_linear_86_75263)"/>
<path d="M273.504 323.371C267.562 319.71 257.004 312.651 247.793 303.59C237.729 293.688 231.903 284.177 230.533 275.38L230.222 221.921C230.234 218.236 233.619 214.851 240.274 211.903C248.737 208.15 260.873 206.181 273.504 206.457C286.008 206.734 297.798 209.209 305.904 213.216C312.202 216.336 315.38 219.733 315.392 223.325L315.104 275.046C313.814 283.578 308.322 292.916 298.719 302.841C289.796 312.064 279.422 319.468 273.504 323.371Z" fill="url(#paint4_linear_86_75263)"/>
<path d="M269.901 283.21C268.012 283.21 266.285 282.312 265.341 280.827L250.58 257.868C249.302 255.876 249.993 252.986 252.146 251.351C254.345 249.681 257.27 249.935 258.652 251.961L269.509 267.896L285.71 237.396C287.287 234.437 291.144 232.571 294.403 233.285C297.742 234.022 299.1 237.165 297.373 240.251L274.852 280.401C273.919 282.059 272.088 283.13 270.097 283.199C270.027 283.21 269.97 283.21 269.901 283.21Z" fill="white"/>
<path d="M194.668 193.216L164.95 192.629C161.208 192.559 158.214 189.485 158.26 185.766L158.583 156.52C158.629 152.801 161.68 149.819 165.422 149.854L195.14 150.096C198.951 150.13 202.002 153.193 201.968 156.958L201.645 186.561C201.611 190.303 198.479 193.285 194.668 193.216Z" fill="url(#paint5_linear_86_75263)"/>
<path d="M195.681 193.412L165.905 192.825C162.163 192.756 159.158 189.681 159.204 185.962L159.527 156.682C159.573 152.963 162.635 149.981 166.377 150.004L196.153 150.246C199.964 150.28 203.038 153.355 202.992 157.108L202.67 186.734C202.624 190.499 199.492 193.493 195.681 193.412Z" fill="url(#paint6_linear_86_75263)"/>
<path opacity="0.48" d="M182.6 179.48C179.02 174.587 182.716 171.386 178.904 165.859C174.356 159.273 166.895 160.678 164.051 154.806C163.43 153.516 163.165 152.146 163.13 150.787C161 151.904 159.549 154.126 159.515 156.682L159.192 185.963C159.146 189.682 162.152 192.756 165.894 192.825L195.669 193.412C198.72 193.47 201.334 191.57 202.278 188.876C196.959 182.9 187.621 186.331 182.6 179.48Z" fill="white"/>
<path d="M190.041 186.261L170.225 185.904C167.853 185.858 165.953 183.912 165.976 181.54L166.195 161.874C166.218 159.502 168.164 157.602 170.536 157.625L190.352 157.821C192.758 157.844 194.681 159.801 194.658 162.185L194.439 182.012C194.416 184.395 192.447 186.295 190.041 186.261Z" fill="url(#paint7_linear_86_75263)"/>
<path d="M190.617 185.685L171.055 185.34C168.717 185.293 166.84 183.382 166.863 181.056L167.071 161.782C167.094 159.456 169.017 157.602 171.354 157.625L190.916 157.821C193.288 157.844 195.188 159.755 195.165 162.104L194.958 181.528C194.935 183.866 192.989 185.731 190.617 185.685Z" fill="url(#paint8_linear_86_75263)"/>
<path opacity="0.48" d="M182.602 179.48C179.022 174.586 182.718 171.385 178.906 165.859C175.913 161.529 171.664 160.654 168.29 158.893C167.554 159.641 167.093 160.654 167.081 161.783L166.874 181.057C166.851 183.383 168.728 185.294 171.065 185.34L190.628 185.686C191.687 185.709 192.654 185.34 193.414 184.73C189.419 183.901 185.366 183.245 182.602 179.48Z" fill="white"/>
<path d="M366.111 394.068L325.743 393.274C320.665 393.17 316.601 389.002 316.658 383.959L317.096 344.224C317.153 339.181 321.31 335.128 326.388 335.162L366.756 335.485C371.926 335.531 376.082 339.699 376.025 344.8L375.587 385.007C375.53 390.119 371.293 394.172 366.111 394.068Z" fill="url(#paint9_linear_86_75263)"/>
<path d="M367.48 394.344L327.032 393.538C321.942 393.435 317.866 389.267 317.924 384.212L318.361 344.442C318.419 339.388 322.576 335.335 327.665 335.369L368.114 335.692C373.295 335.738 377.463 339.906 377.406 345.018L376.968 385.271C376.922 390.384 372.662 394.448 367.48 394.344Z" fill="url(#paint10_linear_86_75263)"/>
<path opacity="0.48" d="M349.727 375.428C344.856 368.785 349.877 364.432 344.707 356.925C338.524 347.979 328.391 349.879 324.523 341.911C323.671 340.161 323.314 338.307 323.279 336.453C320.389 337.973 318.409 340.978 318.374 344.455L317.937 384.225C317.879 389.28 321.955 393.448 327.044 393.551L367.493 394.357C371.638 394.438 375.196 391.847 376.474 388.197C369.22 380.057 356.543 384.732 349.727 375.428Z" fill="white"/>
<path d="M359.824 384.627L332.904 384.144C329.68 384.086 327.101 381.426 327.135 378.214L327.423 351.501C327.458 348.289 330.094 345.698 333.318 345.733L360.238 345.998C363.497 346.032 366.122 348.68 366.087 351.927L365.788 378.859C365.765 382.106 363.082 384.685 359.824 384.627Z" fill="url(#paint11_linear_86_75263)"/>
<path d="M360.606 383.844L334.032 383.372C330.854 383.314 328.31 380.712 328.344 377.557L328.632 351.374C328.666 348.22 331.269 345.687 334.447 345.721L361.021 345.986C364.245 346.02 366.824 348.623 366.79 351.8L366.502 378.179C366.467 381.38 363.83 383.902 360.606 383.844Z" fill="url(#paint12_linear_86_75263)"/>
<path opacity="0.48" d="M349.726 375.427C344.855 368.783 349.876 364.431 344.706 356.924C340.641 351.04 334.861 349.842 330.29 347.459C329.288 348.472 328.655 349.854 328.644 351.385L328.356 377.568C328.321 380.723 330.866 383.325 334.044 383.383L360.618 383.855C362.057 383.878 363.382 383.383 364.406 382.554C358.983 381.425 353.468 380.539 349.726 375.427Z" fill="white"/>
<path d="M392.81 227.182L360.225 226.537C356.126 226.457 352.845 223.095 352.891 219.019L353.236 186.941C353.282 182.865 356.633 179.595 360.732 179.629L393.328 179.894C397.508 179.929 400.858 183.291 400.812 187.413L400.455 219.871C400.421 223.981 396.989 227.263 392.81 227.182Z" fill="url(#paint13_linear_86_75263)"/>
<path d="M393.916 227.4L361.262 226.755C357.151 226.675 353.87 223.301 353.916 219.225L354.273 187.124C354.319 183.048 357.681 179.767 361.78 179.801L394.434 180.066C398.614 180.1 401.976 183.474 401.93 187.596L401.573 220.089C401.538 224.199 398.107 227.481 393.916 227.4Z" fill="url(#paint14_linear_86_75263)"/>
<path opacity="0.48" d="M379.581 212.122C375.655 206.757 379.707 203.245 375.528 197.188C370.542 189.969 362.356 191.501 359.235 185.064C358.545 183.648 358.257 182.151 358.234 180.654C355.908 181.886 354.307 184.304 354.273 187.114L353.916 219.215C353.87 223.291 357.163 226.664 361.262 226.745L393.916 227.39C397.266 227.459 400.133 225.363 401.17 222.416C395.321 215.864 385.085 219.641 379.581 212.122Z" fill="white"/>
<path d="M387.732 219.548L366.005 219.156C363.402 219.11 361.318 216.969 361.353 214.366L361.583 192.801C361.606 190.198 363.736 188.114 366.339 188.149L388.066 188.368C390.702 188.391 392.809 190.532 392.786 193.157L392.545 214.896C392.533 217.521 390.368 219.605 387.732 219.548Z" fill="url(#paint15_linear_86_75263)"/>
<path d="M388.365 218.926L366.914 218.546C364.346 218.5 362.285 216.404 362.32 213.86L362.55 192.72C362.573 190.175 364.68 188.137 367.248 188.16L388.698 188.379C391.301 188.402 393.385 190.509 393.35 193.065L393.12 214.366C393.097 216.934 390.967 218.972 388.365 218.926Z" fill="url(#paint16_linear_86_75263)"/>
<path opacity="0.48" d="M379.579 212.122C375.653 206.756 379.706 203.245 375.526 197.188C372.245 192.433 367.582 191.477 363.886 189.543C363.08 190.36 362.573 191.477 362.562 192.721L362.331 213.861C362.308 216.405 364.358 218.501 366.925 218.547L388.376 218.927C389.539 218.95 390.598 218.547 391.427 217.879C387.052 216.969 382.608 216.256 379.579 212.122Z" fill="white"/>
<path d="M298.514 163.637L279.827 163.268C277.478 163.222 275.59 161.288 275.624 158.962L275.82 140.574C275.843 138.237 277.766 136.36 280.115 136.383L298.802 136.533C301.197 136.556 303.12 138.479 303.097 140.85L302.89 159.457C302.878 161.806 300.909 163.683 298.514 163.637Z" fill="url(#paint17_linear_86_75263)"/>
<path d="M299.148 163.763L280.426 163.394C278.065 163.348 276.189 161.414 276.212 159.077L276.407 140.666C276.43 138.328 278.365 136.451 280.714 136.463L299.435 136.613C301.83 136.636 303.765 138.57 303.742 140.93L303.534 159.56C303.511 161.921 301.543 163.809 299.148 163.763Z" fill="url(#paint18_linear_86_75263)"/>
<path opacity="0.48" d="M290.927 155.001C288.67 151.927 290.996 149.912 288.601 146.435C285.745 142.29 281.048 143.176 279.263 139.48C278.872 138.674 278.699 137.811 278.687 136.947C277.352 137.65 276.431 139.043 276.419 140.655L276.223 159.066C276.2 161.403 278.077 163.337 280.437 163.384L299.159 163.752C301.082 163.787 302.717 162.589 303.316 160.897C299.954 157.143 294.082 159.308 290.927 155.001Z" fill="white"/>
<path d="M295.598 159.262L283.14 159.043C281.655 159.02 280.457 157.788 280.469 156.303L280.607 143.937C280.619 142.452 281.839 141.254 283.336 141.266L295.794 141.392C297.302 141.404 298.511 142.636 298.5 144.133L298.362 156.602C298.35 158.088 297.107 159.285 295.598 159.262Z" fill="url(#paint19_linear_86_75263)"/>
<path d="M295.967 158.905L283.67 158.686C282.196 158.663 281.022 157.454 281.033 155.992L281.171 143.868C281.183 142.405 282.392 141.242 283.866 141.254L296.163 141.381C297.648 141.392 298.846 142.601 298.834 144.075L298.696 156.291C298.673 157.754 297.452 158.928 295.967 158.905Z" fill="url(#paint20_linear_86_75263)"/>
<path opacity="0.48" d="M290.923 155.002C288.666 151.928 290.992 149.913 288.597 146.436C286.721 143.707 284.038 143.166 281.919 142.049C281.459 142.521 281.159 143.154 281.159 143.868L281.021 155.992C281.01 157.455 282.184 158.652 283.658 158.687L295.955 158.905C296.623 158.917 297.233 158.687 297.705 158.307C295.206 157.777 292.662 157.363 290.923 155.002Z" fill="white"/>
<path d="M131.89 274.99L113.203 274.622C110.854 274.576 108.966 272.641 109 270.316L109.196 251.928C109.219 249.59 111.142 247.714 113.491 247.737L132.178 247.886C134.573 247.909 136.496 249.832 136.473 252.204L136.266 270.811C136.243 273.16 134.285 275.036 131.89 274.99Z" fill="url(#paint21_linear_86_75263)"/>
<path d="M132.524 275.116L113.802 274.748C111.441 274.702 109.565 272.767 109.588 270.43L109.783 252.019C109.806 249.682 111.741 247.805 114.09 247.816L132.811 247.966C135.206 247.989 137.141 249.924 137.118 252.284L136.91 270.914C136.887 273.286 134.919 275.162 132.524 275.116Z" fill="url(#paint22_linear_86_75263)"/>
<path opacity="0.48" d="M124.302 266.355C122.046 263.281 124.371 261.266 121.976 257.788C119.121 253.643 114.423 254.53 112.639 250.834C112.247 250.028 112.074 249.164 112.063 248.301C110.727 249.003 109.806 250.396 109.795 252.008L109.599 270.419C109.576 272.757 111.453 274.691 113.813 274.737L132.535 275.106C134.458 275.14 136.093 273.943 136.691 272.25C133.329 268.508 127.457 270.661 124.302 266.355Z" fill="white"/>
<path d="M128.978 270.616L116.519 270.397C115.034 270.374 113.837 269.142 113.848 267.657L113.986 255.29C113.998 253.805 115.218 252.608 116.715 252.619L129.173 252.746C130.682 252.757 131.891 253.989 131.879 255.486L131.741 267.956C131.718 269.453 130.486 270.65 128.978 270.616Z" fill="url(#paint23_linear_86_75263)"/>
<path d="M129.334 270.259L117.037 270.04C115.563 270.017 114.388 268.808 114.4 267.345L114.538 255.221C114.55 253.759 115.759 252.596 117.232 252.608L129.529 252.734C131.015 252.746 132.212 253.955 132.201 255.428L132.063 267.645C132.051 269.119 130.831 270.282 129.334 270.259Z" fill="url(#paint24_linear_86_75263)"/>
<path opacity="0.48" d="M124.302 266.356C122.045 263.281 124.371 261.266 121.976 257.789C120.099 255.06 117.417 254.519 115.298 253.402C114.838 253.874 114.538 254.508 114.538 255.222L114.4 267.346C114.388 268.808 115.563 270.006 117.037 270.04L129.334 270.259C130.002 270.27 130.612 270.04 131.084 269.66C128.585 269.142 126.029 268.728 124.302 266.356Z" fill="white"/>
<path d="M255.104 412.825L232.237 412.376C229.358 412.318 227.056 409.958 227.09 407.102L227.332 384.592C227.367 381.737 229.715 379.434 232.594 379.457L255.461 379.641C258.385 379.664 260.746 382.025 260.711 384.915L260.458 407.69C260.435 410.591 258.028 412.883 255.104 412.825Z" fill="url(#paint25_linear_86_75263)"/>
<path d="M255.875 412.986L232.973 412.526C230.095 412.468 227.78 410.108 227.815 407.241L228.057 384.719C228.091 381.864 230.44 379.561 233.33 379.584L256.243 379.768C259.179 379.791 261.54 382.163 261.505 385.053L261.252 407.851C261.217 410.741 258.811 413.044 255.875 412.986Z" fill="url(#paint26_linear_86_75263)"/>
<path opacity="0.48" d="M245.811 402.268C243.048 398.502 245.903 396.038 242.967 391.79C239.467 386.724 233.733 387.806 231.534 383.281C231.05 382.291 230.855 381.243 230.832 380.184C229.197 381.047 228.08 382.751 228.057 384.72L227.815 407.242C227.78 410.097 230.095 412.469 232.973 412.527L255.875 412.987C258.223 413.033 260.238 411.571 260.964 409.498C256.865 404.893 249.68 407.529 245.811 402.268Z" fill="white"/>
<path d="M251.534 407.472L236.29 407.195C234.47 407.161 233.008 405.664 233.02 403.833L233.181 388.704C233.204 386.884 234.689 385.422 236.52 385.434L251.764 385.583C253.607 385.606 255.092 387.103 255.081 388.945L254.908 404.202C254.896 406.044 253.388 407.506 251.534 407.472Z" fill="url(#paint27_linear_86_75263)"/>
<path d="M251.984 407.034L236.935 406.77C235.138 406.735 233.688 405.261 233.711 403.477L233.872 388.646C233.895 386.862 235.369 385.423 237.165 385.446L252.214 385.595C254.033 385.618 255.495 387.092 255.484 388.888L255.323 403.834C255.3 405.641 253.803 407.069 251.984 407.034Z" fill="url(#paint28_linear_86_75263)"/>
<path opacity="0.48" d="M245.812 402.267C243.049 398.502 245.904 396.038 242.968 391.789C240.665 388.45 237.395 387.782 234.805 386.424C234.24 387 233.883 387.782 233.872 388.646L233.711 403.476C233.688 405.261 235.138 406.735 236.935 406.769L251.984 407.034C252.801 407.046 253.549 406.769 254.125 406.297C251.062 405.664 247.942 405.157 245.812 402.267Z" fill="white"/>
<path d="M411.466 288.691L392.779 288.323C390.43 288.277 388.542 286.343 388.576 284.017L388.772 265.629C388.795 263.291 390.718 261.415 393.067 261.438L411.754 261.587C414.149 261.61 416.072 263.533 416.049 265.905L415.841 284.512C415.818 286.861 413.861 288.738 411.466 288.691Z" fill="url(#paint29_linear_86_75263)"/>
<path d="M412.099 288.817L393.377 288.449C391.017 288.403 389.14 286.469 389.163 284.131L389.359 265.72C389.382 263.383 391.316 261.506 393.665 261.518L412.387 261.667C414.782 261.69 416.716 263.625 416.693 265.985L416.486 284.615C416.463 286.987 414.494 288.864 412.099 288.817Z" fill="url(#paint30_linear_86_75263)"/>
<path opacity="0.48" d="M403.878 280.056C401.621 276.982 403.947 274.967 401.552 271.49C398.697 267.344 393.999 268.231 392.214 264.535C391.823 263.729 391.65 262.866 391.639 262.002C390.303 262.704 389.382 264.098 389.37 265.709L389.175 284.12C389.151 286.458 391.028 288.392 393.389 288.438L412.111 288.807C414.033 288.841 415.668 287.644 416.267 285.951C412.905 282.198 407.033 284.362 403.878 280.056Z" fill="white"/>
<path d="M408.553 284.317L396.095 284.098C394.609 284.075 393.412 282.843 393.423 281.358L393.562 268.992C393.573 267.506 394.794 266.309 396.29 266.32L408.749 266.447C410.257 266.459 411.466 267.691 411.454 269.187L411.316 281.657C411.293 283.154 410.061 284.34 408.553 284.317Z" fill="url(#paint31_linear_86_75263)"/>
<path d="M408.909 283.96L396.612 283.741C395.139 283.718 393.964 282.509 393.976 281.047L394.114 268.922C394.125 267.46 395.334 266.297 396.808 266.309L409.105 266.435C410.59 266.447 411.788 267.656 411.776 269.13L411.638 281.346C411.627 282.808 410.406 283.983 408.909 283.96Z" fill="url(#paint32_linear_86_75263)"/>
<path opacity="0.48" d="M403.878 280.057C401.621 276.983 403.947 274.968 401.552 271.49C399.675 268.762 396.992 268.22 394.874 267.104C394.413 267.576 394.114 268.209 394.114 268.923L393.976 281.047C393.964 282.509 395.139 283.707 396.612 283.741L408.909 283.96C409.577 283.972 410.187 283.741 410.66 283.361C408.161 282.843 405.605 282.429 403.878 280.057Z" fill="white"/>
<path d="M194.99 360.112L162.405 359.467C158.306 359.387 155.024 356.024 155.07 351.948L155.416 319.87C155.462 315.794 158.812 312.524 162.911 312.559L195.508 312.824C199.687 312.858 203.038 316.22 202.992 320.342L202.635 352.8C202.589 356.911 199.158 360.193 194.99 360.112Z" fill="url(#paint33_linear_86_75263)"/>
<path d="M196.083 360.33L163.429 359.685C159.318 359.604 156.037 356.231 156.083 352.155L156.428 320.054C156.474 315.978 159.837 312.696 163.936 312.731L196.589 312.996C200.769 313.03 204.131 316.404 204.085 320.526L203.728 353.018C203.705 357.129 200.274 360.41 196.083 360.33Z" fill="url(#paint34_linear_86_75263)"/>
<path opacity="0.48" d="M181.749 345.052C177.823 339.686 181.876 336.175 177.696 330.118C172.71 322.899 164.524 324.43 161.404 317.994C160.713 316.578 160.425 315.081 160.402 313.584C158.076 314.816 156.476 317.234 156.441 320.043L156.096 352.145C156.05 356.221 159.343 359.594 163.442 359.675L196.096 360.32C199.446 360.389 202.313 358.293 203.349 355.345C197.489 348.794 187.253 352.559 181.749 345.052Z" fill="white"/>
<path d="M189.899 352.477L168.172 352.086C165.57 352.04 163.486 349.898 163.52 347.296L163.751 325.73C163.774 323.128 165.904 321.044 168.506 321.079L190.233 321.297C192.87 321.32 194.977 323.462 194.954 326.087L194.712 347.826C194.701 350.439 192.536 352.523 189.899 352.477Z" fill="url(#paint35_linear_86_75263)"/>
<path d="M190.544 351.856L169.093 351.476C166.525 351.43 164.464 349.334 164.499 346.789L164.729 325.65C164.752 323.105 166.859 321.067 169.427 321.09L190.878 321.309C193.48 321.332 195.564 323.439 195.529 325.995L195.299 347.296C195.265 349.864 193.134 351.902 190.544 351.856Z" fill="url(#paint36_linear_86_75263)"/>
<path opacity="0.48" d="M181.747 345.052C177.82 339.686 181.873 336.174 177.694 330.118C174.412 325.363 169.749 324.407 166.053 322.473C165.247 323.29 164.741 324.407 164.729 325.651L164.499 346.79C164.476 349.335 166.525 351.431 169.093 351.477L190.544 351.857C191.706 351.88 192.766 351.477 193.595 350.809C189.231 349.899 184.775 349.185 181.747 345.052Z" fill="white"/>
<defs>
<linearGradient id="paint0_linear_86_75263" x1="339.974" y1="185.298" x2="305.416" y2="218.514" gradientUnits="userSpaceOnUse">
<stop stop-color="#AA80F9"/>
<stop offset="0.9964" stop-color="#6165D7"/>
</linearGradient>
<linearGradient id="paint1_linear_86_75263" x1="237.262" y1="192.867" x2="354.733" y2="384.998" gradientUnits="userSpaceOnUse">
<stop stop-color="#AA80F9"/>
<stop offset="0.9964" stop-color="#6165D7"/>
</linearGradient>
<linearGradient id="paint2_linear_86_75263" x1="299.552" y1="302.258" x2="204.149" y2="110.422" gradientUnits="userSpaceOnUse">
<stop stop-color="#AA80F9"/>
<stop offset="0.9964" stop-color="#6165D7"/>
</linearGradient>
<linearGradient id="paint3_linear_86_75263" x1="227.977" y1="265.042" x2="320.094" y2="265.042" gradientUnits="userSpaceOnUse">
<stop offset="0.003597" stop-color="#26264F"/>
<stop offset="1" stop-color="#444B8C"/>
</linearGradient>
<linearGradient id="paint4_linear_86_75263" x1="288.83" y1="335.566" x2="262.234" y2="190.614" gradientUnits="userSpaceOnUse">
<stop stop-color="#AA80F9"/>
<stop offset="0.9964" stop-color="#6165D7"/>
</linearGradient>
<linearGradient id="paint5_linear_86_75263" x1="158.267" y1="171.529" x2="201.972" y2="171.529" gradientUnits="userSpaceOnUse">
<stop stop-color="#444B8C"/>
<stop offset="0.9964" stop-color="#26264F"/>
</linearGradient>
<linearGradient id="paint6_linear_86_75263" x1="159.203" y1="171.709" x2="202.991" y2="171.709" gradientUnits="userSpaceOnUse">
<stop stop-color="#AA80F9"/>
<stop offset="0.9964" stop-color="#6165D7"/>
</linearGradient>
<linearGradient id="paint7_linear_86_75263" x1="165.985" y1="171.941" x2="194.658" y2="171.941" gradientUnits="userSpaceOnUse">
<stop stop-color="#444B8C"/>
<stop offset="0.9964" stop-color="#26264F"/>
</linearGradient>
<linearGradient id="paint8_linear_86_75263" x1="185.877" y1="197.057" x2="177.477" y2="152.971" gradientUnits="userSpaceOnUse">
<stop offset="0.00359712" stop-color="#E38DDD"/>
<stop offset="1" stop-color="#9571F6"/>
</linearGradient>
<linearGradient id="paint9_linear_86_75263" x1="316.662" y1="364.617" x2="376.033" y2="364.617" gradientUnits="userSpaceOnUse">
<stop stop-color="#444B8C"/>
<stop offset="0.9964" stop-color="#26264F"/>
</linearGradient>
<linearGradient id="paint10_linear_86_75263" x1="317.932" y1="364.859" x2="377.416" y2="364.859" gradientUnits="userSpaceOnUse">
<stop stop-color="#AA80F9"/>
<stop offset="0.9964" stop-color="#6165D7"/>
</linearGradient>
<linearGradient id="paint11_linear_86_75263" x1="327.143" y1="365.178" x2="366.093" y2="365.178" gradientUnits="userSpaceOnUse">
<stop stop-color="#444B8C"/>
<stop offset="0.9964" stop-color="#26264F"/>
</linearGradient>
<linearGradient id="paint12_linear_86_75263" x1="354.165" y1="399.295" x2="342.754" y2="339.408" gradientUnits="userSpaceOnUse">
<stop offset="0.00359712" stop-color="#E38DDD"/>
<stop offset="1" stop-color="#9571F6"/>
</linearGradient>
<linearGradient id="paint13_linear_86_75263" x1="352.892" y1="203.402" x2="400.82" y2="203.402" gradientUnits="userSpaceOnUse">
<stop stop-color="#444B8C"/>
<stop offset="0.9964" stop-color="#26264F"/>
</linearGradient>
<linearGradient id="paint14_linear_86_75263" x1="353.919" y1="203.597" x2="401.938" y2="203.597" gradientUnits="userSpaceOnUse">
<stop stop-color="#AA80F9"/>
<stop offset="0.9964" stop-color="#6165D7"/>
</linearGradient>
<linearGradient id="paint15_linear_86_75263" x1="361.354" y1="203.854" x2="392.796" y2="203.854" gradientUnits="userSpaceOnUse">
<stop stop-color="#444B8C"/>
<stop offset="0.9964" stop-color="#26264F"/>
</linearGradient>
<linearGradient id="paint16_linear_86_75263" x1="383.167" y1="231.396" x2="373.955" y2="183.051" gradientUnits="userSpaceOnUse">
<stop offset="0.00359712" stop-color="#E38DDD"/>
<stop offset="1" stop-color="#9571F6"/>
</linearGradient>
<linearGradient id="paint17_linear_86_75263" x1="275.622" y1="149.998" x2="303.105" y2="149.998" gradientUnits="userSpaceOnUse">
<stop stop-color="#444B8C"/>
<stop offset="0.9964" stop-color="#26264F"/>
</linearGradient>
<linearGradient id="paint18_linear_86_75263" x1="276.211" y1="150.11" x2="303.746" y2="150.11" gradientUnits="userSpaceOnUse">
<stop stop-color="#AA80F9"/>
<stop offset="0.9964" stop-color="#6165D7"/>
</linearGradient>
<linearGradient id="paint19_linear_86_75263" x1="280.471" y1="150.258" x2="298.501" y2="150.258" gradientUnits="userSpaceOnUse">
<stop stop-color="#444B8C"/>
<stop offset="0.9964" stop-color="#26264F"/>
</linearGradient>
<linearGradient id="paint20_linear_86_75263" x1="292.98" y1="166.051" x2="287.698" y2="138.33" gradientUnits="userSpaceOnUse">
<stop offset="0.00359712" stop-color="#E38DDD"/>
<stop offset="1" stop-color="#9571F6"/>
</linearGradient>
<linearGradient id="paint21_linear_86_75263" x1="108.995" y1="261.358" x2="136.477" y2="261.358" gradientUnits="userSpaceOnUse">
<stop stop-color="#444B8C"/>
<stop offset="0.9964" stop-color="#26264F"/>
</linearGradient>
<linearGradient id="paint22_linear_86_75263" x1="109.583" y1="261.469" x2="137.118" y2="261.469" gradientUnits="userSpaceOnUse">
<stop stop-color="#AA80F9"/>
<stop offset="0.9964" stop-color="#6165D7"/>
</linearGradient>
<linearGradient id="paint23_linear_86_75263" x1="113.847" y1="261.618" x2="131.877" y2="261.618" gradientUnits="userSpaceOnUse">
<stop stop-color="#444B8C"/>
<stop offset="0.9964" stop-color="#26264F"/>
</linearGradient>
<linearGradient id="paint24_linear_86_75263" x1="126.354" y1="277.41" x2="121.072" y2="249.689" gradientUnits="userSpaceOnUse">
<stop offset="0.00359712" stop-color="#E38DDD"/>
<stop offset="1" stop-color="#9571F6"/>
</linearGradient>
<linearGradient id="paint25_linear_86_75263" x1="227.089" y1="396.145" x2="260.716" y2="396.145" gradientUnits="userSpaceOnUse">
<stop stop-color="#444B8C"/>
<stop offset="0.9964" stop-color="#26264F"/>
</linearGradient>
<linearGradient id="paint26_linear_86_75263" x1="227.809" y1="396.282" x2="261.5" y2="396.282" gradientUnits="userSpaceOnUse">
<stop stop-color="#AA80F9"/>
<stop offset="0.9964" stop-color="#6165D7"/>
</linearGradient>
<linearGradient id="paint27_linear_86_75263" x1="233.026" y1="396.463" x2="255.087" y2="396.463" gradientUnits="userSpaceOnUse">
<stop stop-color="#444B8C"/>
<stop offset="0.9964" stop-color="#26264F"/>
</linearGradient>
<linearGradient id="paint28_linear_86_75263" x1="248.331" y1="415.787" x2="241.868" y2="381.867" gradientUnits="userSpaceOnUse">
<stop offset="0.00359712" stop-color="#E38DDD"/>
<stop offset="1" stop-color="#9571F6"/>
</linearGradient>
<linearGradient id="paint29_linear_86_75263" x1="388.57" y1="275.054" x2="416.052" y2="275.054" gradientUnits="userSpaceOnUse">
<stop stop-color="#444B8C"/>
<stop offset="0.9964" stop-color="#26264F"/>
</linearGradient>
<linearGradient id="paint30_linear_86_75263" x1="389.159" y1="275.166" x2="416.693" y2="275.166" gradientUnits="userSpaceOnUse">
<stop stop-color="#AA80F9"/>
<stop offset="0.9964" stop-color="#6165D7"/>
</linearGradient>
<linearGradient id="paint31_linear_86_75263" x1="393.422" y1="275.315" x2="411.452" y2="275.315" gradientUnits="userSpaceOnUse">
<stop stop-color="#444B8C"/>
<stop offset="0.9964" stop-color="#26264F"/>
</linearGradient>
<linearGradient id="paint32_linear_86_75263" x1="405.93" y1="291.107" x2="400.647" y2="263.386" gradientUnits="userSpaceOnUse">
<stop offset="0.00359712" stop-color="#E38DDD"/>
<stop offset="1" stop-color="#9571F6"/>
</linearGradient>
<linearGradient id="paint33_linear_86_75263" x1="155.062" y1="336.331" x2="202.99" y2="336.331" gradientUnits="userSpaceOnUse">
<stop stop-color="#444B8C"/>
<stop offset="0.9964" stop-color="#26264F"/>
</linearGradient>
<linearGradient id="paint34_linear_86_75263" x1="156.088" y1="336.526" x2="204.107" y2="336.526" gradientUnits="userSpaceOnUse">
<stop stop-color="#AA80F9"/>
<stop offset="0.9964" stop-color="#6165D7"/>
</linearGradient>
<linearGradient id="paint35_linear_86_75263" x1="163.523" y1="336.783" x2="194.966" y2="336.783" gradientUnits="userSpaceOnUse">
<stop stop-color="#444B8C"/>
<stop offset="0.9964" stop-color="#26264F"/>
</linearGradient>
<linearGradient id="paint36_linear_86_75263" x1="185.336" y1="364.324" x2="176.125" y2="315.98" gradientUnits="userSpaceOnUse">
<stop offset="0.00359712" stop-color="#E38DDD"/>
<stop offset="1" stop-color="#9571F6"/>
</linearGradient>
</defs>
</svg>
